STARTFONT 2.1
FONT -Adobe-Courier-Medium-O-Normal--14-140-75-75-M-90-windows-1251
SIZE 14 75 75
FONTBOUNDINGBOX 12 16 -2 -3
COMMENT $XConsortium: courO14.bdf,v 1.11 95/01/26 18:00:48 gildea Exp $
COMMENT 
COMMENT +
COMMENT  Copyright 1984-1989, 1994 Adobe Systems Incorporated.
COMMENT  Copyright 1988, 1994 Digital Equipment Corporation.
COMMENT
COMMENT  Adobe is a trademark of Adobe Systems Incorporated which may be
COMMENT  registered in certain jurisdictions.
COMMENT  Permission to use these trademarks is hereby granted only in
COMMENT  association with the images described in this file.
COMMENT
COMMENT  Permission to use, copy, modify, distribute and sell this software
COMMENT  and its documentation for any purpose and without fee is hereby
COMMENT  granted, provided that the above copyright notices appear in all
COMMENT  copies and that both those copyright notices and this permission
COMMENT  notice appear in supporting documentation, and that the names of
COMMENT  Adobe Systems and Digital Equipment Corporation not be used in
COMMENT  advertising or publicity pertaining to distribution of the software
COMMENT  without specific, written prior permission.  Adobe Systems and
COMMENT  Digital Equipment Corporation make no representations about the
COMMENT  suitability of this software for any purpose.  It is provided "as
COMMENT  is" without express or implied warranty.
COMMENT -
STARTPROPERTIES 32
FOUNDRY "Adobe"
FAMILY_NAME "Courier"
WEIGHT_NAME "Medium"
SLANT "O"
SETWIDTH_NAME "Normal"
ADD_STYLE_NAME ""
PIXEL_SIZE 14
POINT_SIZE 140
RESOLUTION_X 75
RESOLUTION_Y 75
SPACING "M"
AVERAGE_WIDTH 90
CHARSET_REGISTRY "windows"
CHARSET_ENCODING "1251"
CAP_HEIGHT 9
X_HEIGHT 7
FONT_ASCENT 12
FONT_DESCENT 3
FACE_NAME "Courier Oblique"
COPYRIGHT "Copyright (c) 1984, 1987 Adobe Systems Incorporated. All Rights Reserved. Copyright (c) 1988, 1991 Digital Equipment Corporation. All Rights Reserved."
NOTICE "No mark"
_DEC_DEVICE_FONTNAMES "PS=Courier-Oblique"
_DEC_PRODUCTINFO "DECwindows Fonts V2.2, 07-Nov-1991"
DEFAULT_CHAR 32
RELATIVE_SETWIDTH 50
RELATIVE_WEIGHT 50
CHARSET_COLLECTIONS "ASCII ISO8859-1 ADOBE-STANDARD"
FULL_NAME "Courier Oblique"
COPYRIGHT2 "Cyrillic and Euro glyphs copyright 2000 Dmitry Yu. Bolkhovityanov, bolkhov@inp.nsk.su"
SOURCEDATE "Wed Jul 19 10:30:44 2000"
PKGVERSION "1.1"
ASSEMBLER "cvtbdf.pl (Linux)"
ENDPROPERTIES
CHARS 244
STARTCHAR space
ENCODING 32
SWIDTH 600 0
DWIDTH 9 0
BBX 0 0 0 0
BITMAP
ENDCHAR
STARTCHAR exclam
ENCODING 33
SWIDTH 600 0
DWIDTH 9 0
BBX 4 10 2 0
BITMAP
10
30
20
60
40
40
40
00
C0
C0
ENDCHAR
STARTCHAR quotedbl
ENCODING 34
SWIDTH 600 0
DWIDTH 9 0
BBX 5 4 3 5
BITMAP
D8
D8
90
90
ENDCHAR
STARTCHAR numbersign
ENCODING 35
SWIDTH 600 0
DWIDTH 9 0
BBX 7 11 1 -1
BITMAP
14
14
14
7E
28
28
FC
50
50
50
50
ENDCHAR
STARTCHAR dollar
ENCODING 36
SWIDTH 600 0
DWIDTH 9 0
BBX 7 13 1 -2
BITMAP
04
04
1E
22
22
20
18
0C
84
84
78
20
20
ENDCHAR
STARTCHAR percent
ENCODING 37
SWIDTH 600 0
DWIDTH 9 0
BBX 7 10 1 0
BITMAP
60
90
90
66
08
30
CC
12
12
0C
ENDCHAR
STARTCHAR ampersand
ENCODING 38
SWIDTH 600 0
DWIDTH 9 0
BBX 6 8 1 0
BITMAP
1C
20
20
20
54
88
98
64
ENDCHAR
STARTCHAR quotesingle
ENCODING 39
SWIDTH 600 0
DWIDTH 9 0
BBX 2 4 4 5
BITMAP
C0
C0
80
80
ENDCHAR
STARTCHAR parenleft
ENCODING 40
SWIDTH 600 0
DWIDTH 9 0
BBX 5 13 3 -3
BITMAP
08
10
20
40
40
80
80
80
80
80
40
40
20
ENDCHAR
STARTCHAR parenright
ENCODING 41
SWIDTH 600 0
DWIDTH 9 0
BBX 5 13 1 -3
BITMAP
20
10
10
08
08
08
08
08
10
10
20
40
80
ENDCHAR
STARTCHAR asterisk
ENCODING 42
SWIDTH 600 0
DWIDTH 9 0
BBX 6 6 2 3
BITMAP
10
10
7C
30
50
90
ENDCHAR
STARTCHAR plus
ENCODING 43
SWIDTH 600 0
DWIDTH 9 0
BBX 6 7 2 1
BITMAP
10
10
10
FC
20
20
20
ENDCHAR
STARTCHAR comma
ENCODING 44
SWIDTH 600 0
DWIDTH 9 0
BBX 3 4 2 -2
BITMAP
60
60
C0
80
ENDCHAR
STARTCHAR minus
ENCODING 45
SWIDTH 600 0
DWIDTH 9 0
BBX 6 1 2 4
BITMAP
FC
ENDCHAR
STARTCHAR period
ENCODING 46
SWIDTH 600 0
DWIDTH 9 0
BBX 2 2 3 0
BITMAP
C0
C0
ENDCHAR
STARTCHAR slash
ENCODING 47
SWIDTH 600 0
DWIDTH 9 0
BBX 6 12 1 -2
BITMAP
04
04
08
08
10
10
20
20
40
40
80
80
ENDCHAR
STARTCHAR zero
ENCODING 48
SWIDTH 600 0
DWIDTH 9 0
BBX 7 10 1 0
BITMAP
1C
22
42
42
82
82
84
84
88
70
ENDCHAR
STARTCHAR one
ENCODING 49
SWIDTH 600 0
DWIDTH 9 0
BBX 5 10 1 0
BITMAP
08
78
08
10
10
10
10
20
20
F8
ENDCHAR
STARTCHAR two
ENCODING 50
SWIDTH 600 0
DWIDTH 9 0
BBX 6 10 1 0
BITMAP
38
44
44
04
04
08
10
20
44
FC
ENDCHAR
STARTCHAR three
ENCODING 51
SWIDTH 600 0
DWIDTH 9 0
BBX 6 10 1 0
BITMAP
38
44
04
04
38
04
04
04
88
70
ENDCHAR
STARTCHAR four
ENCODING 52
SWIDTH 600 0
DWIDTH 9 0
BBX 6 10 1 0
BITMAP
0C
14
24
24
48
88
88
FC
10
38
ENDCHAR
STARTCHAR five
ENCODING 53
SWIDTH 600 0
DWIDTH 9 0
BBX 7 10 1 0
BITMAP
3E
20
40
78
04
04
04
04
88
70
ENDCHAR
STARTCHAR six
ENCODING 54
SWIDTH 600 0
DWIDTH 9 0
BBX 6 10 2 0
BITMAP
1C
20
40
40
B8
C4
84
84
88
70
ENDCHAR
STARTCHAR seven
ENCODING 55
SWIDTH 600 0
DWIDTH 9 0
BBX 6 10 2 0
BITMAP
7C
84
08
08
10
10
10
20
20
40
ENDCHAR
STARTCHAR eight
ENCODING 56
SWIDTH 600 0
DWIDTH 9 0
BBX 6 10 1 0
BITMAP
38
44
44
44
78
84
84
84
88
70
ENDCHAR
STARTCHAR nine
ENCODING 57
SWIDTH 600 0
DWIDTH 9 0
BBX 6 10 1 0
BITMAP
38
44
84
84
8C
74
04
08
10
E0
ENDCHAR
STARTCHAR colon
ENCODING 58
SWIDTH 600 0
DWIDTH 9 0
BBX 4 7 2 0
BITMAP
30
30
00
00
00
C0
C0
ENDCHAR
STARTCHAR semicolon
ENCODING 59
SWIDTH 600 0
DWIDTH 9 0
BBX 5 9 1 -2
BITMAP
18
18
00
00
00
60
60
C0
80
ENDCHAR
STARTCHAR less
ENCODING 60
SWIDTH 600 0
DWIDTH 9 0
BBX 7 7 2 1
BITMAP
06
18
60
80
40
20
10
ENDCHAR
STARTCHAR equal
ENCODING 61
SWIDTH 600 0
DWIDTH 9 0
BBX 7 3 1 3
BITMAP
7E
00
FC
ENDCHAR
STARTCHAR greater
ENCODING 62
SWIDTH 600 0
DWIDTH 9 0
BBX 7 7 1 1
BITMAP
10
08
04
02
0C
30
C0
ENDCHAR
STARTCHAR question
ENCODING 63
SWIDTH 600 0
DWIDTH 9 0
BBX 6 9 2 0
BITMAP
78
44
0C
38
60
40
00
C0
C0
ENDCHAR
STARTCHAR at
ENCODING 64
SWIDTH 600 0
DWIDTH 9 0
BBX 7 9 1 0
BITMAP
1E
22
4E
52
A4
A4
9E
80
78
ENDCHAR
STARTCHAR A
ENCODING 65
SWIDTH 600 0
DWIDTH 9 0
BBX 8 9 0 0
BITMAP
1E
06
0A
0A
12
3E
22
42
EF
ENDCHAR
STARTCHAR B
ENCODING 66
SWIDTH 600 0
DWIDTH 9 0
BBX 8 9 0 0
BITMAP
3E
11
11
22
3C
22
42
44
F8
ENDCHAR
STARTCHAR C
ENCODING 67
SWIDTH 600 0
DWIDTH 9 0
BBX 7 9 1 0
BITMAP
1E
66
42
80
80
80
84
CC
70
ENDCHAR
STARTCHAR D
ENCODING 68
SWIDTH 600 0
DWIDTH 9 0
BBX 8 9 0 0
BITMAP
3E
13
11
21
21
21
42
46
F8
ENDCHAR
STARTCHAR E
ENCODING 69
SWIDTH 600 0
DWIDTH 9 0
BBX 9 9 0 0
BITMAP
3F80
1080
1080
2200
3C00
2400
4100
4200
FE00
ENDCHAR
STARTCHAR F
ENCODING 70
SWIDTH 600 0
DWIDTH 9 0
BBX 9 9 0 0
BITMAP
3F80
1080
1080
2200
3C00
2400
4000
4000
F000
ENDCHAR
STARTCHAR G
ENCODING 71
SWIDTH 600 0
DWIDTH 9 0
BBX 7 9 1 0
BITMAP
1C
66
42
80
80
9E
84
CC
70
ENDCHAR
STARTCHAR H
ENCODING 72
SWIDTH 600 0
DWIDTH 9 0
BBX 9 9 0 0
BITMAP
3B80
1100
1100
2200
3E00
2200
4400
4400
EE00
ENDCHAR
STARTCHAR I
ENCODING 73
SWIDTH 600 0
DWIDTH 9 0
BBX 7 9 1 0
BITMAP
3E
08
08
10
10
10
20
20
F8
ENDCHAR
STARTCHAR J
ENCODING 74
SWIDTH 600 0
DWIDTH 9 0
BBX 9 9 0 0
BITMAP
1F80
0200
0200
0400
0400
4400
8800
8800
7000
ENDCHAR
STARTCHAR K
ENCODING 75
SWIDTH 600 0
DWIDTH 9 0
BBX 9 9 0 0
BITMAP
3B80
1100
1200
2400
3800
2400
4400
4400
E600
ENDCHAR
STARTCHAR L
ENCODING 76
SWIDTH 600 0
DWIDTH 9 0
BBX 8 9 0 0
BITMAP
3E
08
08
10
10
11
21
22
FE
ENDCHAR
STARTCHAR M
ENCODING 77
SWIDTH 600 0
DWIDTH 9 0
BBX 10 9 0 0
BITMAP
30C0
1180
1280
2A80
2D00
2900
4200
4200
E700
ENDCHAR
STARTCHAR N
ENCODING 78
SWIDTH 600 0
DWIDTH 9 0
BBX 10 9 0 0
BITMAP
71C0
1080
1080
2900
2900
2500
4500
4200
F200
ENDCHAR
STARTCHAR O
ENCODING 79
SWIDTH 600 0
DWIDTH 9 0
BBX 7 9 1 0
BITMAP
1C
66
42
82
82
82
84
CC
70
ENDCHAR
STARTCHAR P
ENCODING 80
SWIDTH 600 0
DWIDTH 9 0
BBX 8 9 0 0
BITMAP
3E
11
11
21
22
3C
40
40
F8
ENDCHAR
STARTCHAR Q
ENCODING 81
SWIDTH 600 0
DWIDTH 9 0
BBX 7 11 1 -2
BITMAP
1C
66
42
82
82
82
84
CC
70
72
8C
ENDCHAR
STARTCHAR R
ENCODING 82
SWIDTH 600 0
DWIDTH 9 0
BBX 8 9 0 0
BITMAP
3E
11
11
21
22
3C
44
42
F3
ENDCHAR
STARTCHAR S
ENCODING 83
SWIDTH 600 0
DWIDTH 9 0
BBX 8 9 0 0
BITMAP
1D
33
22
20
1C
02
42
C6
BC
ENDCHAR
STARTCHAR T
ENCODING 84
SWIDTH 600 0
DWIDTH 9 0
BBX 9 9 1 0
BITMAP
7F80
4880
8900
9100
1000
1000
2000
2000
F800
ENDCHAR
STARTCHAR U
ENCODING 85
SWIDTH 600 0
DWIDTH 9 0
BBX 8 9 1 0
BITMAP
77
22
22
44
44
44
88
88
70
ENDCHAR
STARTCHAR V
ENCODING 86
SWIDTH 600 0
DWIDTH 9 0
BBX 8 9 1 0
BITMAP
E7
42
42
44
24
28
28
30
30
ENDCHAR
STARTCHAR W
ENCODING 87
SWIDTH 600 0
DWIDTH 9 0
BBX 10 9 0 0
BITMAP
E1C0
4080
4880
4900
5500
5500
6600
6600
4400
ENDCHAR
STARTCHAR X
ENCODING 88
SWIDTH 600 0
DWIDTH 9 0
BBX 9 9 0 0
BITMAP
3B80
1100
1200
0C00
0800
1800
2400
4400
EE00
ENDCHAR
STARTCHAR Y
ENCODING 89
SWIDTH 600 0
DWIDTH 9 0
BBX 8 9 1 0
BITMAP
77
22
24
28
10
10
20
20
F8
ENDCHAR
STARTCHAR Z
ENCODING 90
SWIDTH 600 0
DWIDTH 9 0
BBX 7 9 1 0
BITMAP
3E
42
44
08
10
20
44
84
F8
ENDCHAR
STARTCHAR bracketleft
ENCODING 91
SWIDTH 600 0
DWIDTH 9 0
BBX 5 13 2 -3
BITMAP
38
20
20
20
40
40
40
40
40
80
80
80
E0
ENDCHAR
STARTCHAR backslash
ENCODING 92
SWIDTH 600 0
DWIDTH 9 0
BBX 6 12 1 -2
BITMAP
80
80
40
40
20
20
10
10
08
08
04
04
ENDCHAR
STARTCHAR bracketright
ENCODING 93
SWIDTH 600 0
DWIDTH 9 0
BBX 5 13 2 -3
BITMAP
38
08
08
08
10
10
10
10
10
20
20
20
E0
ENDCHAR
STARTCHAR asciicircum
ENCODING 94
SWIDTH 600 0
DWIDTH 9 0
BBX 6 4 2 5
BITMAP
18
28
44
84
ENDCHAR
STARTCHAR underscore
ENCODING 95
SWIDTH 600 0
DWIDTH 9 0
BBX 9 1 0 -3
BITMAP
FF80
ENDCHAR
STARTCHAR grave
ENCODING 96
SWIDTH 600 0
DWIDTH 9 0
BBX 4 2 3 7
BITMAP
C0
30
ENDCHAR
STARTCHAR a
ENCODING 97
SWIDTH 600 0
DWIDTH 9 0
BBX 6 7 1 0
BITMAP
38
44
04
78
88
88
74
ENDCHAR
STARTCHAR b
ENCODING 98
SWIDTH 600 0
DWIDTH 9 0
BBX 8 10 0 0
BITMAP
30
10
10
26
29
31
21
61
62
DC
ENDCHAR
STARTCHAR c
ENCODING 99
SWIDTH 600 0
DWIDTH 9 0
BBX 7 7 1 0
BITMAP
1E
62
42
80
80
8C
70
ENDCHAR
STARTCHAR d
ENCODING 100
SWIDTH 600 0
DWIDTH 9 0
BBX 7 10 1 0
BITMAP
06
02
02
34
4C
84
84
88
98
6C
ENDCHAR
STARTCHAR e
ENCODING 101
SWIDTH 600 0
DWIDTH 9 0
BBX 7 7 1 0
BITMAP
1C
62
42
FE
80
8C
70
ENDCHAR
STARTCHAR f
ENCODING 102
SWIDTH 600 0
DWIDTH 9 0
BBX 8 10 1 0
BITMAP
07
08
08
3E
10
10
10
20
20
F8
ENDCHAR
STARTCHAR g
ENCODING 103
SWIDTH 600 0
DWIDTH 9 0
BBX 8 10 0 -3
BITMAP
19
26
42
42
44
4C
34
04
88
70
ENDCHAR
STARTCHAR h
ENCODING 104
SWIDTH 600 0
DWIDTH 9 0
BBX 7 10 0 0
BITMAP
30
10
10
1C
32
22
22
44
44
EE
ENDCHAR
STARTCHAR i
ENCODING 105
SWIDTH 600 0
DWIDTH 9 0
BBX 5 10 2 0
BITMAP
08
08
00
70
10
10
20
20
20
F8
ENDCHAR
STARTCHAR j
ENCODING 106
SWIDTH 600 0
DWIDTH 9 0
BBX 8 13 -1 -3
BITMAP
01
01
00
1E
02
02
02
04
04
04
08
08
F0
ENDCHAR
STARTCHAR k
ENCODING 107
SWIDTH 600 0
DWIDTH 9 0
BBX 8 10 0 0
BITMAP
30
10
10
27
24
28
30
48
44
CE
ENDCHAR
STARTCHAR l
ENCODING 108
SWIDTH 600 0
DWIDTH 9 0
BBX 6 10 1 0
BITMAP
38
08
08
10
10
10
10
20
20
FC
ENDCHAR
STARTCHAR m
ENCODING 109
SWIDTH 600 0
DWIDTH 9 0
BBX 9 7 0 0
BITMAP
6D80
3680
2480
2480
4900
4900
ED80
ENDCHAR
STARTCHAR n
ENCODING 110
SWIDTH 600 0
DWIDTH 9 0
BBX 8 7 0 0
BITMAP
6E
31
21
21
42
42
E7
ENDCHAR
STARTCHAR o
ENCODING 111
SWIDTH 600 0
DWIDTH 9 0
BBX 7 7 1 0
BITMAP
1C
62
42
82
84
8C
70
ENDCHAR
STARTCHAR p
ENCODING 112
SWIDTH 600 0
DWIDTH 9 0
BBX 9 10 -1 -3
BITMAP
3700
1880
1080
1080
2100
3300
2C00
4000
4000
F000
ENDCHAR
STARTCHAR q
ENCODING 113
SWIDTH 600 0
DWIDTH 9 0
BBX 8 10 1 -3
BITMAP
1B
66
42
82
84
8C
74
08
08
3C
ENDCHAR
STARTCHAR r
ENCODING 114
SWIDTH 600 0
DWIDTH 9 0
BBX 8 7 0 0
BITMAP
37
18
10
10
20
20
FC
ENDCHAR
STARTCHAR s
ENCODING 115
SWIDTH 600 0
DWIDTH 9 0
BBX 7 7 0 0
BITMAP
1E
22
20
18
04
84
F8
ENDCHAR
STARTCHAR t
ENCODING 116
SWIDTH 600 0
DWIDTH 9 0
BBX 6 10 2 0
BITMAP
20
20
20
FC
40
40
80
80
88
70
ENDCHAR
STARTCHAR u
ENCODING 117
SWIDTH 600 0
DWIDTH 9 0
BBX 6 7 1 0
BITMAP
CC
44
44
88
88
98
6C
ENDCHAR
STARTCHAR v
ENCODING 118
SWIDTH 600 0
DWIDTH 9 0
BBX 8 7 1 0
BITMAP
E7
42
44
44
28
28
30
ENDCHAR
STARTCHAR w
ENCODING 119
SWIDTH 600 0
DWIDTH 9 0
BBX 10 7 0 0
BITMAP
E1C0
4880
4900
5900
6600
6600
4400
ENDCHAR
STARTCHAR x
ENCODING 120
SWIDTH 600 0
DWIDTH 9 0
BBX 8 7 0 0
BITMAP
77
22
14
18
28
44
EE
ENDCHAR
STARTCHAR y
ENCODING 121
SWIDTH 600 0
DWIDTH 9 0
BBX 9 10 0 -3
BITMAP
7380
2100
2200
1400
1400
0800
1000
1000
2000
F000
ENDCHAR
STARTCHAR z
ENCODING 122
SWIDTH 600 0
DWIDTH 9 0
BBX 7 7 1 0
BITMAP
7E
44
08
10
20
44
FC
ENDCHAR
STARTCHAR braceleft
ENCODING 123
SWIDTH 600 0
DWIDTH 9 0
BBX 5 13 3 -3
BITMAP
18
20
20
20
40
80
40
40
40
80
80
80
60
ENDCHAR
STARTCHAR bar
ENCODING 124
SWIDTH 600 0
DWIDTH 9 0
BBX 3 11 3 -2
BITMAP
20
20
20
40
40
40
40
80
80
80
80
ENDCHAR
STARTCHAR braceright
ENCODING 125
SWIDTH 600 0
DWIDTH 9 0
BBX 5 13 1 -3
BITMAP
30
08
08
10
10
08
10
20
20
20
20
20
C0
ENDCHAR
STARTCHAR asciitilde
ENCODING 126
SWIDTH 600 0
DWIDTH 9 0
BBX 7 2 1 3
BITMAP
72
9C
ENDCHAR
STARTCHAR afii10051
ENCODING 128
SWIDTH 600 0
DWIDTH 9 0
BBX 7 9 1 0
BITMAP
7C
54
10
3C
22
22
44
44
D8
ENDCHAR
STARTCHAR afii10052
ENCODING 129
SWIDTH 600 0
DWIDTH 9 0
BBX 9 12 0 0
BITMAP
0180
0600
0000
3F80
1080
1080
2000
2000
2000
4000
4000
F000
ENDCHAR
STARTCHAR quotesinglbase
ENCODING 130
SWIDTH 600 0
DWIDTH 9 0
BBX 3 4 2 -2
BITMAP
60
60
C0
80
ENDCHAR
STARTCHAR afii10100
ENCODING 131
SWIDTH 600 0
DWIDTH 9 0
BBX 7 10 1 0
BITMAP
06
18
00
7E
22
22
20
40
40
E0
ENDCHAR
STARTCHAR quotedblbase
ENCODING 132
SWIDTH 600 0
DWIDTH 9 0
BBX 6 4 1 -2
BITMAP
6C
6C
D8
90
ENDCHAR
STARTCHAR ellipsis
ENCODING 133
SWIDTH 600 0
DWIDTH 9 0
BBX 7 2 1 0
BITMAP
92
92
ENDCHAR
STARTCHAR dagger
ENCODING 134
SWIDTH 600 0
DWIDTH 9 0
BBX 6 10 2 -1
BITMAP
10
10
FC
20
20
20
40
40
40
40
ENDCHAR
STARTCHAR daggerdbl
ENCODING 135
SWIDTH 600 0
DWIDTH 9 0
BBX 7 10 1 -1
BITMAP
08
08
7E
10
10
10
FC
20
20
20
ENDCHAR
STARTCHAR Euro
ENCODING 136
SWIDTH 600 0
DWIDTH 9 0
BBX 8 9 0 0
BITMAP
0F
33
21
7C
40
F0
42
66
38
ENDCHAR
STARTCHAR perthousand
ENCODING 137
SWIDTH 600 0
DWIDTH 9 0
BBX 8 10 0 0
BITMAP
30
50
53
6C
30
C0
33
55
55
66
ENDCHAR
STARTCHAR afii10058
ENCODING 138
SWIDTH 600 0
DWIDTH 9 0
BBX 9 9 0 0
BITMAP
1F80
0900
0900
1200
1300
1280
2480
A480
CF00
ENDCHAR
STARTCHAR guilsinglleft
ENCODING 139
SWIDTH 600 0
DWIDTH 9 0
BBX 5 6 2 1
BITMAP
18
30
60
C0
60
30
ENDCHAR
STARTCHAR afii10059
ENCODING 140
SWIDTH 600 0
DWIDTH 9 0
BBX 9 9 0 0
BITMAP
3B80
1100
1100
2200
3F00
2280
4480
4480
EF00
ENDCHAR
STARTCHAR afii10061
ENCODING 141
SWIDTH 600 0
DWIDTH 9 0
BBX 9 12 0 0
BITMAP
0180
0600
0000
3B80
1100
1200
2400
3800
2400
4400
4400
E600
ENDCHAR
STARTCHAR afii10060
ENCODING 142
SWIDTH 600 0
DWIDTH 9 0
BBX 7 9 1 0
BITMAP
7C
54
10
3C
22
22
44
44
EE
ENDCHAR
STARTCHAR afii10145
ENCODING 143
SWIDTH 600 0
DWIDTH 9 0
BBX 9 11 0 -2
BITMAP
3B80
1100
1100
2200
2200
2200
4400
4400
FE00
2000
2000
ENDCHAR
STARTCHAR afii10099
ENCODING 144
SWIDTH 600 0
DWIDTH 9 0
BBX 7 13 0 -3
BITMAP
30
10
3C
1C
32
22
22
44
44
E4
08
08
30
ENDCHAR
STARTCHAR quoteleft
ENCODING 145
SWIDTH 600 0
DWIDTH 9 0
BBX 3 4 4 5
BITMAP
C0
C0
60
20
ENDCHAR
STARTCHAR quoteright
ENCODING 146
SWIDTH 600 0
DWIDTH 9 0
BBX 3 4 3 5
BITMAP
60
60
C0
80
ENDCHAR
STARTCHAR quotedblleft
ENCODING 147
SWIDTH 600 0
DWIDTH 9 0
BBX 6 4 2 5
BITMAP
D8
D8
6C
24
ENDCHAR
STARTCHAR quotedblright
ENCODING 148
SWIDTH 600 0
DWIDTH 9 0
BBX 6 4 2 5
BITMAP
6C
6C
D8
90
ENDCHAR
STARTCHAR bullet
ENCODING 149
SWIDTH 600 0
DWIDTH 9 0
BBX 4 3 3 4
BITMAP
70
F0
E0
ENDCHAR
STARTCHAR endash
ENCODING 150
SWIDTH 600 0
DWIDTH 9 0
BBX 7 1 1 4
BITMAP
FE
ENDCHAR
STARTCHAR emdash
ENCODING 151
SWIDTH 600 0
DWIDTH 9 0
BBX 9 1 0 4
BITMAP
FF80
ENDCHAR
STARTCHAR trademark
ENCODING 153
SWIDTH 600 0
DWIDTH 9 0
BBX 8 4 1 5
BITMAP
F1
5B
AE
AA
ENDCHAR
STARTCHAR afii10106
ENCODING 154
SWIDTH 600 0
DWIDTH 9 0
BBX 10 7 0 0
BITMAP
3F00
1200
1200
1380
2440
A440
CF80
ENDCHAR
STARTCHAR guilsinglright
ENCODING 155
SWIDTH 600 0
DWIDTH 9 0
BBX 5 6 2 1
BITMAP
60
30
18
30
60
C0
ENDCHAR
STARTCHAR afii10107
ENCODING 156
SWIDTH 600 0
DWIDTH 9 0
BBX 10 7 0 0
BITMAP
7700
2200
2200
3F80
4440
4440
EF80
ENDCHAR
STARTCHAR afii10109
ENCODING 157
SWIDTH 600 0
DWIDTH 9 0
BBX 8 10 0 0
BITMAP
03
0C
00
77
24
28
30
48
44
EE
ENDCHAR
STARTCHAR afii10108
ENCODING 158
SWIDTH 600 0
DWIDTH 9 0
BBX 7 10 0 0
BITMAP
30
10
3C
1C
32
22
22
44
44
EE
ENDCHAR
STARTCHAR afii10193
ENCODING 159
SWIDTH 600 0
DWIDTH 9 0
BBX 8 9 0 -2
BITMAP
77
22
22
22
44
44
FE
20
20
ENDCHAR
STARTCHAR space
ENCODING 160
SWIDTH 600 0
DWIDTH 9 0
BBX 0 0 0 0
BITMAP
ENDCHAR
STARTCHAR afii10062
ENCODING 161
SWIDTH 600 0
DWIDTH 9 0
BBX 9 12 0 0
BITMAP
0A00
0C00
0000
7380
2100
2200
1200
1400
1400
0800
9000
6000
ENDCHAR
STARTCHAR afii10110
ENCODING 162
SWIDTH 600 0
DWIDTH 9 0
BBX 9 13 0 -3
BITMAP
0A00
0C00
0000
7380
2100
2200
1400
1400
0800
1000
1000
2000
F000
ENDCHAR
STARTCHAR afii10057
ENCODING 163
SWIDTH 600 0
DWIDTH 9 0
BBX 9 9 0 0
BITMAP
1F80
0200
0200
0400
0400
4400
8800
8800
7000
ENDCHAR
STARTCHAR currency
ENCODING 164
SWIDTH 600 0
DWIDTH 9 0
BBX 7 6 1 1
BITMAP
66
3C
44
44
78
CC
ENDCHAR
STARTCHAR afii10050
ENCODING 165
SWIDTH 600 0
DWIDTH 9 0
BBX 10 11 0 0
BITMAP
0040
0040
3F80
1000
1000
2000
2000
2000
4000
4000
F000
ENDCHAR
STARTCHAR brokenbar
ENCODING 166
SWIDTH 600 0
DWIDTH 9 0
BBX 3 11 3 -2
BITMAP
20
20
40
40
00
00
40
40
80
80
80
ENDCHAR
STARTCHAR section
ENCODING 167
SWIDTH 600 0
DWIDTH 9 0
BBX 8 10 1 -1
BITMAP
1F
21
78
4C
66
32
1E
04
84
F8
ENDCHAR
STARTCHAR afii10023
ENCODING 168
SWIDTH 600 0
DWIDTH 9 0
BBX 9 11 0 0
BITMAP
0D80
0000
3F80
1080
1080
2200
3C00
2400
4100
4200
FE00
ENDCHAR
STARTCHAR copyright
ENCODING 169
SWIDTH 600 0
DWIDTH 9 0
BBX 9 9 0 0
BITMAP
1E00
6100
4E80
9280
A080
A480
9900
4300
3C00
ENDCHAR
STARTCHAR afii10053
ENCODING 170
SWIDTH 600 0
DWIDTH 9 0
BBX 7 9 1 0
BITMAP
1E
66
42
80
F0
80
84
CC
70
ENDCHAR
STARTCHAR guillemotleft
ENCODING 171
SWIDTH 600 0
DWIDTH 9 0
BBX 9 6 0 1
BITMAP
0880
3300
6600
CC00
6600
1100
ENDCHAR
STARTCHAR logicalnot
ENCODING 172
SWIDTH 600 0
DWIDTH 9 0
BBX 6 3 1 3
BITMAP
FC
04
08
ENDCHAR
STARTCHAR hyphen
ENCODING 173
SWIDTH 600 0
DWIDTH 9 0
BBX 6 1 1 4
BITMAP
FC
ENDCHAR
STARTCHAR registered
ENCODING 174
SWIDTH 600 0
DWIDTH 9 0
BBX 9 9 0 0
BITMAP
1E00
2100
5C80
9280
9C80
A880
A500
4200
3C00
ENDCHAR
STARTCHAR afii10056
ENCODING 175
SWIDTH 600 0
DWIDTH 9 0
BBX 8 11 1 0
BITMAP
1B
00
3E
08
08
10
10
10
20
20
F8
ENDCHAR
STARTCHAR degree
ENCODING 176
SWIDTH 600 0
DWIDTH 9 0
BBX 5 5 2 5
BITMAP
70
88
88
88
70
ENDCHAR
STARTCHAR plusminus
ENCODING 177
SWIDTH 600 0
DWIDTH 9 0
BBX 7 7 1 1
BITMAP
08
08
7E
10
10
00
FC
ENDCHAR
STARTCHAR afii10055
ENCODING 178
SWIDTH 600 0
DWIDTH 9 0
BBX 7 9 1 0
BITMAP
3E
08
08
10
10
10
20
20
F8
ENDCHAR
STARTCHAR afii10103
ENCODING 179
SWIDTH 600 0
DWIDTH 9 0
BBX 5 10 2 0
BITMAP
08
08
00
70
10
10
20
20
20
F8
ENDCHAR
STARTCHAR afii10098
ENCODING 180
SWIDTH 600 0
DWIDTH 9 0
BBX 8 9 1 0
BITMAP
01
01
7E
20
20
20
40
40
E0
ENDCHAR
STARTCHAR mu
ENCODING 181
SWIDTH 600 0
DWIDTH 9 0
BBX 7 10 0 -3
BITMAP
66
22
22
44
44
4C
F6
80
80
80
ENDCHAR
STARTCHAR paragraph
ENCODING 182
SWIDTH 600 0
DWIDTH 9 0
BBX 8 10 1 -1
BITMAP
3F
6A
6A
74
34
14
28
28
28
EC
ENDCHAR
STARTCHAR periodcentered
ENCODING 183
SWIDTH 600 0
DWIDTH 9 0
BBX 2 2 4 3
BITMAP
C0
C0
ENDCHAR
STARTCHAR afii10071
ENCODING 184
SWIDTH 600 0
DWIDTH 9 0
BBX 8 9 1 0
BITMAP
1B
00
1C
62
42
FE
80
8C
70
ENDCHAR
STARTCHAR afii61352
ENCODING 185
SWIDTH 600 0
DWIDTH 9 0
BBX 10 9 -1 0
BITMAP
3380
1180
1140
2A80
2A00
2B80
4400
4400
E400
ENDCHAR
STARTCHAR afii10101
ENCODING 186
SWIDTH 600 0
DWIDTH 9 0
BBX 7 7 1 0
BITMAP
1E
62
42
F0
80
8C
70
ENDCHAR
STARTCHAR guillemotright
ENCODING 187
SWIDTH 600 0
DWIDTH 9 0
BBX 8 6 1 1
BITMAP
88
44
66
33
66
88
ENDCHAR
STARTCHAR afii10105
ENCODING 188
SWIDTH 600 0
DWIDTH 9 0
BBX 8 13 -1 -3
BITMAP
01
01
00
1E
02
02
02
04
04
04
08
08
F0
ENDCHAR
STARTCHAR afii10054
ENCODING 189
SWIDTH 600 0
DWIDTH 9 0
BBX 8 9 0 0
BITMAP
1D
33
22
20
1C
02
42
C6
BC
ENDCHAR
STARTCHAR afii10102
ENCODING 190
SWIDTH 600 0
DWIDTH 9 0
BBX 7 7 0 0
BITMAP
1E
22
20
18
04
84
F8
ENDCHAR
STARTCHAR afii10104
ENCODING 191
SWIDTH 600 0
DWIDTH 9 0
BBX 6 9 2 0
BITMAP
6C
00
70
10
10
20
20
20
F8
ENDCHAR
STARTCHAR afii10017
ENCODING 192
SWIDTH 600 0
DWIDTH 9 0
BBX 8 9 0 0
BITMAP
1E
06
0A
0A
12
3E
22
42
EF
ENDCHAR
STARTCHAR afii10018
ENCODING 193
SWIDTH 600 0
DWIDTH 9 0
BBX 8 9 0 0
BITMAP
3F
11
10
20
3C
22
42
44
F8
ENDCHAR
STARTCHAR afii10019
ENCODING 194
SWIDTH 600 0
DWIDTH 9 0
BBX 8 9 0 0
BITMAP
3E
11
11
22
3C
22
42
44
F8
ENDCHAR
STARTCHAR afii10020
ENCODING 195
SWIDTH 600 0
DWIDTH 9 0
BBX 9 9 0 0
BITMAP
3F80
1080
1080
2000
2000
2000
4000
4000
F000
ENDCHAR
STARTCHAR afii10021
ENCODING 196
SWIDTH 600 0
DWIDTH 9 0
BBX 10 11 -1 -2
BITMAP
0FC0
0480
0480
0900
0900
0900
1200
2200
7F00
8200
8200
ENDCHAR
STARTCHAR afii10022
ENCODING 197
SWIDTH 600 0
DWIDTH 9 0
BBX 9 9 0 0
BITMAP
3F80
1080
1080
2200
3C00
2400
4100
4200
FE00
ENDCHAR
STARTCHAR afii10024
ENCODING 198
SWIDTH 600 0
DWIDTH 9 0
BBX 11 9 -1 0
BITMAP
3760
1240
1280
1500
0E00
1500
2900
4900
DD80
ENDCHAR
STARTCHAR afii10025
ENCODING 199
SWIDTH 600 0
DWIDTH 9 0
BBX 8 9 0 0
BITMAP
2E
31
01
02
1C
02
02
84
78
ENDCHAR
STARTCHAR afii10026
ENCODING 200
SWIDTH 600 0
DWIDTH 9 0
BBX 9 9 0 0
BITMAP
3980
1300
1500
2600
2A00
3200
6400
6400
CE00
ENDCHAR
STARTCHAR afii10027
ENCODING 201
SWIDTH 600 0
DWIDTH 9 0
BBX 9 12 0 0
BITMAP
0500
0600
0000
3980
1300
1500
2600
2A00
3200
6400
6400
CE00
ENDCHAR
STARTCHAR afii10028
ENCODING 202
SWIDTH 600 0
DWIDTH 9 0
BBX 9 9 0 0
BITMAP
3B80
1100
1200
2400
3800
2400
4400
4400
E600
ENDCHAR
STARTCHAR afii10029
ENCODING 203
SWIDTH 600 0
DWIDTH 9 0
BBX 9 9 0 0
BITMAP
1F80
0900
0900
1200
1200
1200
2400
A400
CE00
ENDCHAR
STARTCHAR afii10030
ENCODING 204
SWIDTH 600 0
DWIDTH 9 0
BBX 10 9 0 0
BITMAP
30C0
1180
1280
2A80
2D00
2900
4200
4200
E700
ENDCHAR
STARTCHAR afii10031
ENCODING 205
SWIDTH 600 0
DWIDTH 9 0
BBX 9 9 0 0
BITMAP
3B80
1100
1100
2200
3E00
2200
4400
4400
EE00
ENDCHAR
STARTCHAR afii10032
ENCODING 206
SWIDTH 600 0
DWIDTH 9 0
BBX 7 9 1 0
BITMAP
1C
66
42
82
82
82
84
CC
70
ENDCHAR
STARTCHAR afii10033
ENCODING 207
SWIDTH 600 0
DWIDTH 9 0
BBX 9 9 0 0
BITMAP
3F80
1100
1100
2200
2200
2200
4400
4400
EE00
ENDCHAR
STARTCHAR afii10034
ENCODING 208
SWIDTH 600 0
DWIDTH 9 0
BBX 8 9 0 0
BITMAP
3E
11
11
21
22
3C
40
40
F8
ENDCHAR
STARTCHAR afii10035
ENCODING 209
SWIDTH 600 0
DWIDTH 9 0
BBX 7 9 1 0
BITMAP
1E
66
42
80
80
80
84
CC
70
ENDCHAR
STARTCHAR afii10036
ENCODING 210
SWIDTH 600 0
DWIDTH 9 0
BBX 9 9 1 0
BITMAP
7F80
4880
8900
9100
1000
1000
2000
2000
F800
ENDCHAR
STARTCHAR afii10037
ENCODING 211
SWIDTH 600 0
DWIDTH 9 0
BBX 9 9 0 0
BITMAP
7380
2100
2200
1200
1400
1400
0800
9000
6000
ENDCHAR
STARTCHAR afii10038
ENCODING 212
SWIDTH 600 0
DWIDTH 9 0
BBX 9 9 0 0
BITMAP
0E00
0400
3F00
4880
8880
8900
7E00
1000
3800
ENDCHAR
STARTCHAR afii10039
ENCODING 213
SWIDTH 600 0
DWIDTH 9 0
BBX 9 9 0 0
BITMAP
3B80
1100
1200
0C00
0800
1800
2400
4400
EE00
ENDCHAR
STARTCHAR afii10040
ENCODING 214
SWIDTH 600 0
DWIDTH 9 0
BBX 9 11 0 -2
BITMAP
3B80
1100
1100
2200
2200
2200
4400
4400
FE00
0400
0400
ENDCHAR
STARTCHAR afii10041
ENCODING 215
SWIDTH 600 0
DWIDTH 9 0
BBX 7 9 2 0
BITMAP
EE
44
44
88
98
68
10
10
38
ENDCHAR
STARTCHAR afii10042
ENCODING 216
SWIDTH 600 0
DWIDTH 9 0
BBX 11 9 -1 0
BITMAP
3AE0
1240
1240
2480
2480
2480
4900
4900
FF80
ENDCHAR
STARTCHAR afii10043
ENCODING 217
SWIDTH 600 0
DWIDTH 9 0
BBX 11 11 -1 -2
BITMAP
3AE0
1240
1240
2480
2480
2480
4900
4900
FF80
0100
0100
ENDCHAR
STARTCHAR afii10044
ENCODING 218
SWIDTH 600 0
DWIDTH 9 0
BBX 7 9 0 0
BITMAP
7C
50
90
20
3C
22
42
44
F8
ENDCHAR
STARTCHAR afii10045
ENCODING 219
SWIDTH 600 0
DWIDTH 9 0
BBX 10 9 0 0
BITMAP
39C0
1080
1080
2100
3900
2500
4600
4A00
F700
ENDCHAR
STARTCHAR afii10046
ENCODING 220
SWIDTH 600 0
DWIDTH 9 0
BBX 7 9 0 0
BITMAP
3C
10
10
20
3C
22
42
44
F8
ENDCHAR
STARTCHAR afii10047
ENCODING 221
SWIDTH 600 0
DWIDTH 9 0
BBX 7 9 1 0
BITMAP
3C
26
42
02
1E
02
84
CC
70
ENDCHAR
STARTCHAR afii10048
ENCODING 222
SWIDTH 600 0
DWIDTH 9 0
BBX 9 9 0 0
BITMAP
3B00
1480
1480
2900
3900
2900
5200
5200
EC00
ENDCHAR
STARTCHAR afii10049
ENCODING 223
SWIDTH 600 0
DWIDTH 9 0
BBX 9 9 0 0
BITMAP
0F80
1100
1100
2200
2200
1E00
2400
4400
8E00
ENDCHAR
STARTCHAR afii10065
ENCODING 224
SWIDTH 600 0
DWIDTH 9 0
BBX 6 7 1 0
BITMAP
38
44
04
78
88
88
74
ENDCHAR
STARTCHAR afii10066
ENCODING 225
SWIDTH 600 0
DWIDTH 9 0
BBX 8 10 1 0
BITMAP
01
0E
10
2C
72
42
82
84
8C
70
ENDCHAR
STARTCHAR afii10067
ENCODING 226
SWIDTH 600 0
DWIDTH 9 0
BBX 7 7 0 0
BITMAP
7C
22
22
3C
44
44
F8
ENDCHAR
STARTCHAR afii10068
ENCODING 227
SWIDTH 600 0
DWIDTH 9 0
BBX 7 7 1 0
BITMAP
7E
22
22
20
40
40
E0
ENDCHAR
STARTCHAR afii10069
ENCODING 228
SWIDTH 600 0
DWIDTH 9 0
BBX 9 9 -1 -2
BITMAP
1F80
0900
0900
1100
1200
2200
7F00
8200
8200
ENDCHAR
STARTCHAR afii10070
ENCODING 229
SWIDTH 600 0
DWIDTH 9 0
BBX 7 7 1 0
BITMAP
1C
62
42
FE
80
8C
70
ENDCHAR
STARTCHAR afii10072
ENCODING 230
SWIDTH 600 0
DWIDTH 9 0
BBX 10 7 0 0
BITMAP
6EC0
2480
1500
1E00
2A00
4900
DD80
ENDCHAR
STARTCHAR afii10073
ENCODING 231
SWIDTH 600 0
DWIDTH 9 0
BBX 6 7 1 0
BITMAP
58
64
04
38
08
88
70
ENDCHAR
STARTCHAR afii10074
ENCODING 232
SWIDTH 600 0
DWIDTH 9 0
BBX 8 7 0 0
BITMAP
73
26
2A
2A
54
64
CE
ENDCHAR
STARTCHAR afii10075
ENCODING 233
SWIDTH 600 0
DWIDTH 9 0
BBX 8 10 0 0
BITMAP
0A
0C
00
73
26
2A
2A
54
64
CE
ENDCHAR
STARTCHAR afii10076
ENCODING 234
SWIDTH 600 0
DWIDTH 9 0
BBX 8 7 0 0
BITMAP
77
24
28
30
48
44
EE
ENDCHAR
STARTCHAR afii10077
ENCODING 235
SWIDTH 600 0
DWIDTH 9 0
BBX 8 7 0 0
BITMAP
3F
12
12
12
24
A4
CE
ENDCHAR
STARTCHAR afii10078
ENCODING 236
SWIDTH 600 0
DWIDTH 9 0
BBX 9 7 0 0
BITMAP
7380
3300
2D00
2900
4A00
4200
E700
ENDCHAR
STARTCHAR afii10079
ENCODING 237
SWIDTH 600 0
DWIDTH 9 0
BBX 8 7 0 0
BITMAP
77
22
22
3E
44
44
EE
ENDCHAR
STARTCHAR afii10080
ENCODING 238
SWIDTH 600 0
DWIDTH 9 0
BBX 7 7 1 0
BITMAP
1C
62
42
82
84
8C
70
ENDCHAR
STARTCHAR afii10081
ENCODING 239
SWIDTH 600 0
DWIDTH 9 0
BBX 8 7 0 0
BITMAP
7F
22
22
22
44
44
EE
ENDCHAR
STARTCHAR afii10082
ENCODING 240
SWIDTH 600 0
DWIDTH 9 0
BBX 9 10 -1 -3
BITMAP
3700
1880
1080
1080
2100
3300
2C00
4000
4000
F000
ENDCHAR
STARTCHAR afii10083
ENCODING 241
SWIDTH 600 0
DWIDTH 9 0
BBX 7 7 1 0
BITMAP
1E
62
42
80
80
8C
70
ENDCHAR
STARTCHAR afii10084
ENCODING 242
SWIDTH 600 0
DWIDTH 9 0
BBX 7 7 1 0
BITMAP
FE
92
92
10
20
20
70
ENDCHAR
STARTCHAR afii10085
ENCODING 243
SWIDTH 600 0
DWIDTH 9 0
BBX 9 10 0 -3
BITMAP
7380
2100
2200
1400
1400
0800
1000
1000
2000
F000
ENDCHAR
STARTCHAR afii10086
ENCODING 244
SWIDTH 600 0
DWIDTH 9 0
BBX 8 13 1 -3
BITMAP
0C
04
04
3E
49
49
89
92
92
7C
20
20
70
ENDCHAR
STARTCHAR afii10087
ENCODING 245
SWIDTH 600 0
DWIDTH 9 0
BBX 8 7 0 0
BITMAP
77
22
14
18
28
44
EE
ENDCHAR
STARTCHAR afii10088
ENCODING 246
SWIDTH 600 0
DWIDTH 9 0
BBX 8 9 0 -2
BITMAP
77
22
22
22
44
44
FE
04
04
ENDCHAR
STARTCHAR afii10089
ENCODING 247
SWIDTH 600 0
DWIDTH 9 0
BBX 7 7 1 0
BITMAP
EE
44
44
4C
38
08
1C
ENDCHAR
STARTCHAR afii10090
ENCODING 248
SWIDTH 600 0
DWIDTH 9 0
BBX 10 7 0 0
BITMAP
75C0
2480
2480
2480
4900
4900
FF80
ENDCHAR
STARTCHAR afii10091
ENCODING 249
SWIDTH 600 0
DWIDTH 9 0
BBX 10 9 0 -2
BITMAP
75C0
2480
2480
2480
4900
4900
FF80
0100
0100
ENDCHAR
STARTCHAR afii10092
ENCODING 250
SWIDTH 600 0
DWIDTH 9 0
BBX 6 7 1 0
BITMAP
F0
A0
A0
38
44
44
F8
ENDCHAR
STARTCHAR afii10093
ENCODING 251
SWIDTH 600 0
DWIDTH 9 0
BBX 9 7 0 0
BITMAP
7380
2100
2100
3100
4A00
4A00
F700
ENDCHAR
STARTCHAR afii10094
ENCODING 252
SWIDTH 600 0
DWIDTH 9 0
BBX 6 7 0 0
BITMAP
70
20
20
38
44
44
F8
ENDCHAR
STARTCHAR afii10095
ENCODING 253
SWIDTH 600 0
DWIDTH 9 0
BBX 7 7 1 0
BITMAP
3C
22
02
1E
04
8C
70
ENDCHAR
STARTCHAR afii10096
ENCODING 254
SWIDTH 600 0
DWIDTH 9 0
BBX 8 7 0 0
BITMAP
76
29
29
39
52
52
EC
ENDCHAR
STARTCHAR afii10097
ENCODING 255
SWIDTH 600 0
DWIDTH 9 0
BBX 8 7 0 0
BITMAP
1F
22
22
1E
24
44
8E
ENDCHAR
STARTCHAR Lslash
ENCODING -1
SWIDTH 600 0
DWIDTH 9 0
BBX 8 9 0 0
BITMAP
3E
08
08
1C
70
11
21
22
FE
ENDCHAR
STARTCHAR OE
ENCODING -1
SWIDTH 600 0
DWIDTH 9 0
BBX 10 9 0 0
BITMAP
1FC0
2440
4400
4900
8F00
8900
9000
9100
7F00
ENDCHAR
STARTCHAR Scaron
ENCODING -1
SWIDTH 600 0
DWIDTH 9 0
BBX 8 12 0 0
BITMAP
0A
0C
00
1D
33
22
20
1C
02
C2
C6
BC
ENDCHAR
STARTCHAR Ydieresis
ENCODING -1
SWIDTH 600 0
DWIDTH 9 0
BBX 8 11 1 0
BITMAP
12
00
77
22
24
28
10
10
20
20
F8
ENDCHAR
STARTCHAR Zcaron
ENCODING -1
SWIDTH 600 0
DWIDTH 9 0
BBX 7 12 1 0
BITMAP
14
18
00
3E
42
44
08
10
20
44
84
F8
ENDCHAR
STARTCHAR breve
ENCODING -1
SWIDTH 600 0
DWIDTH 9 0
BBX 4 2 4 7
BITMAP
90
E0
ENDCHAR
STARTCHAR caron
ENCODING -1
SWIDTH 600 0
DWIDTH 9 0
BBX 3 2 4 7
BITMAP
A0
C0
ENDCHAR
STARTCHAR circumflex
ENCODING -1
SWIDTH 600 0
DWIDTH 9 0
BBX 3 2 4 7
BITMAP
60
A0
ENDCHAR
STARTCHAR dotaccent
ENCODING -1
SWIDTH 600 0
DWIDTH 9 0
BBX 1 1 5 8
BITMAP
80
ENDCHAR
STARTCHAR dotlessi
ENCODING -1
SWIDTH 600 0
DWIDTH 9 0
BBX 5 7 2 0
BITMAP
70
10
10
20
20
20
F8
ENDCHAR
STARTCHAR fi
ENCODING -1
SWIDTH 600 0
DWIDTH 9 0
BBX 8 10 0 0
BITMAP
01
0D
10
7E
22
22
24
44
44
EE
ENDCHAR
STARTCHAR fl
ENCODING -1
SWIDTH 600 0
DWIDTH 9 0
BBX 8 9 0 0
BITMAP
0F
11
79
22
22
22
44
44
EE
ENDCHAR
STARTCHAR florin
ENCODING -1
SWIDTH 600 0
DWIDTH 9 0
BBX 8 11 0 -2
BITMAP
07
08
08
3E
08
08
08
10
10
10
E0
ENDCHAR
STARTCHAR fraction
ENCODING -1
SWIDTH 600 0
DWIDTH 9 0
BBX 8 4 0 2
BITMAP
03
0C
30
C0
ENDCHAR
STARTCHAR hungarumlaut
ENCODING -1
SWIDTH 600 0
DWIDTH 9 0
BBX 5 2 3 7
BITMAP
48
90
ENDCHAR
STARTCHAR lslash
ENCODING -1
SWIDTH 600 0
DWIDTH 9 0
BBX 6 9 1 0
BITMAP
38
08
08
10
1C
70
20
20
FC
ENDCHAR
STARTCHAR oe
ENCODING -1
SWIDTH 600 0
DWIDTH 9 0
BBX 9 7 0 0
BITMAP
1B00
6480
4480
8F00
8800
8900
7600
ENDCHAR
STARTCHAR ogonek
ENCODING -1
SWIDTH 600 0
DWIDTH 9 0
BBX 3 3 3 -2
BITMAP
40
80
E0
ENDCHAR
STARTCHAR ring
ENCODING -1
SWIDTH 600 0
DWIDTH 9 0
BBX 3 3 4 6
BITMAP
60
A0
C0
ENDCHAR
STARTCHAR scaron
ENCODING -1
SWIDTH 600 0
DWIDTH 9 0
BBX 7 10 0 0
BITMAP
0A
0C
00
1E
22
20
18
04
84
F8
ENDCHAR
STARTCHAR tilde
ENCODING -1
SWIDTH 600 0
DWIDTH 9 0
BBX 4 2 3 7
BITMAP
50
A0
ENDCHAR
STARTCHAR zcaron
ENCODING -1
SWIDTH 600 0
DWIDTH 9 0
BBX 7 10 1 0
BITMAP
14
18
00
7E
44
08
10
20
44
FC
ENDCHAR
ENDFONT
