STARTFONT 2.1
FONT -Adobe-Courier-Medium-O-Normal--18-180-75-75-M-110-windows-1251
SIZE 18 75 75
FONTBOUNDINGBOX 13 19 0 -4
COMMENT $XConsortium: courO18.bdf,v 1.11 95/01/26 18:00:51 gildea Exp $
COMMENT 
COMMENT +
COMMENT  Copyright 1984-1989, 1994 Adobe Systems Incorporated.
COMMENT  Copyright 1988, 1994 Digital Equipment Corporation.
COMMENT
COMMENT  Adobe is a trademark of Adobe Systems Incorporated which may be
COMMENT  registered in certain jurisdictions.
COMMENT  Permission to use these trademarks is hereby granted only in
COMMENT  association with the images described in this file.
COMMENT
COMMENT  Permission to use, copy, modify, distribute and sell this software
COMMENT  and its documentation for any purpose and without fee is hereby
COMMENT  granted, provided that the above copyright notices appear in all
COMMENT  copies and that both those copyright notices and this permission
COMMENT  notice appear in supporting documentation, and that the names of
COMMENT  Adobe Systems and Digital Equipment Corporation not be used in
COMMENT  advertising or publicity pertaining to distribution of the software
COMMENT  without specific, written prior permission.  Adobe Systems and
COMMENT  Digital Equipment Corporation make no representations about the
COMMENT  suitability of this software for any purpose.  It is provided "as
COMMENT  is" without express or implied warranty.
COMMENT -
STARTPROPERTIES 32
FOUNDRY "Adobe"
FAMILY_NAME "Courier"
WEIGHT_NAME "Medium"
SLANT "O"
SETWIDTH_NAME "Normal"
ADD_STYLE_NAME ""
PIXEL_SIZE 18
POINT_SIZE 180
RESOLUTION_X 75
RESOLUTION_Y 75
SPACING "M"
AVERAGE_WIDTH 110
CHARSET_REGISTRY "windows"
CHARSET_ENCODING "1251"
CAP_HEIGHT 11
X_HEIGHT 8
FONT_ASCENT 14
FONT_DESCENT 4
FACE_NAME "Courier Oblique"
COPYRIGHT "Copyright (c) 1984, 1987 Adobe Systems Incorporated. All Rights Reserved. Copyright (c) 1988, 1991 Digital Equipment Corporation. All Rights Reserved."
NOTICE "No mark"
_DEC_DEVICE_FONTNAMES "PS=Courier-Oblique"
_DEC_PRODUCTINFO "DECwindows Fonts V2.2, 07-Nov-1991"
DEFAULT_CHAR 32
RELATIVE_SETWIDTH 50
RELATIVE_WEIGHT 50
CHARSET_COLLECTIONS "ASCII ISO8859-1 ADOBE-STANDARD"
FULL_NAME "Courier Oblique"
COPYRIGHT2 "Cyrillic and Euro glyphs copyright 2000 Dmitry Yu. Bolkhovityanov, bolkhov@inp.nsk.su"
SOURCEDATE "Mon Jan  3 13:31:15 2000"
PKGVERSION "1.1"
ASSEMBLER "cvtbdf.pl (Linux)"
ENDPROPERTIES
CHARS 230
STARTCHAR space
ENCODING 32
SWIDTH 600 0
DWIDTH 11 0
BBX 0 0 0 0
BITMAP
ENDCHAR
STARTCHAR exclam
ENCODING 33
SWIDTH 600 0
DWIDTH 11 0
BBX 4 12 5 0
BITMAP
10
30
30
20
60
60
40
40
00
00
C0
C0
ENDCHAR
STARTCHAR quotedbl
ENCODING 34
SWIDTH 600 0
DWIDTH 11 0
BBX 7 6 4 6
BITMAP
66
66
CC
CC
88
88
ENDCHAR
STARTCHAR numbersign
ENCODING 35
SWIDTH 600 0
DWIDTH 11 0
BBX 8 14 2 -2
BITMAP
09
09
12
12
7F
24
24
24
FE
48
48
90
90
90
ENDCHAR
STARTCHAR dollar
ENCODING 36
SWIDTH 600 0
DWIDTH 11 0
BBX 9 14 2 -1
BITMAP
0400
0400
1E80
2100
2100
2000
1800
0400
0200
4200
4200
BC00
1000
1000
ENDCHAR
STARTCHAR percent
ENCODING 37
SWIDTH 600 0
DWIDTH 11 0
BBX 8 12 2 0
BITMAP
1C
24
44
48
73
0C
30
C7
09
11
12
1C
ENDCHAR
STARTCHAR ampersand
ENCODING 38
SWIDTH 600 0
DWIDTH 11 0
BBX 7 10 2 0
BITMAP
3C
40
40
40
20
76
98
88
8C
76
ENDCHAR
STARTCHAR quotesingle
ENCODING 39
SWIDTH 600 0
DWIDTH 11 0
BBX 4 6 5 6
BITMAP
30
30
60
60
C0
80
ENDCHAR
STARTCHAR parenleft
ENCODING 40
SWIDTH 600 0
DWIDTH 11 0
BBX 4 14 5 -2
BITMAP
10
20
20
40
40
80
80
80
80
80
80
80
40
40
ENDCHAR
STARTCHAR parenright
ENCODING 41
SWIDTH 600 0
DWIDTH 11 0
BBX 4 14 4 -2
BITMAP
20
20
10
10
10
10
10
10
10
20
20
40
40
80
ENDCHAR
STARTCHAR asterisk
ENCODING 42
SWIDTH 600 0
DWIDTH 11 0
BBX 6 7 4 5
BITMAP
10
10
94
78
30
50
88
ENDCHAR
STARTCHAR plus
ENCODING 43
SWIDTH 600 0
DWIDTH 11 0
BBX 9 9 2 1
BITMAP
0400
0400
0400
0800
FF80
0800
1000
1000
1000
ENDCHAR
STARTCHAR comma
ENCODING 44
SWIDTH 600 0
DWIDTH 11 0
BBX 4 5 3 -2
BITMAP
30
70
60
C0
80
ENDCHAR
STARTCHAR minus
ENCODING 45
SWIDTH 600 0
DWIDTH 11 0
BBX 9 1 2 5
BITMAP
FF80
ENDCHAR
STARTCHAR period
ENCODING 46
SWIDTH 600 0
DWIDTH 11 0
BBX 2 2 4 0
BITMAP
C0
C0
ENDCHAR
STARTCHAR slash
ENCODING 47
SWIDTH 600 0
DWIDTH 11 0
BBX 7 14 3 -2
BITMAP
02
02
04
04
08
08
10
10
20
20
40
40
80
80
ENDCHAR
STARTCHAR zero
ENCODING 48
SWIDTH 600 0
DWIDTH 11 0
BBX 7 12 3 0
BITMAP
1C
22
42
42
82
82
82
82
84
84
88
70
ENDCHAR
STARTCHAR one
ENCODING 49
SWIDTH 600 0
DWIDTH 11 0
BBX 7 12 2 0
BITMAP
04
3C
04
04
08
08
08
08
10
10
10
FE
ENDCHAR
STARTCHAR two
ENCODING 50
SWIDTH 600 0
DWIDTH 11 0
BBX 9 12 1 0
BITMAP
0F00
1080
2080
0080
0080
0100
0600
0800
1000
2000
4200
FE00
ENDCHAR
STARTCHAR three
ENCODING 51
SWIDTH 600 0
DWIDTH 11 0
BBX 8 12 2 0
BITMAP
1E
21
01
01
02
0C
02
01
01
02
86
78
ENDCHAR
STARTCHAR four
ENCODING 52
SWIDTH 600 0
DWIDTH 11 0
BBX 7 12 2 0
BITMAP
06
0A
12
12
24
44
44
84
FE
08
08
3C
ENDCHAR
STARTCHAR five
ENCODING 53
SWIDTH 600 0
DWIDTH 11 0
BBX 8 12 2 0
BITMAP
3F
20
20
40
5C
62
01
01
01
02
86
78
ENDCHAR
STARTCHAR six
ENCODING 54
SWIDTH 600 0
DWIDTH 11 0
BBX 8 12 3 0
BITMAP
0F
30
20
40
40
9C
A2
C2
82
82
84
78
ENDCHAR
STARTCHAR seven
ENCODING 55
SWIDTH 600 0
DWIDTH 11 0
BBX 7 12 4 0
BITMAP
FE
82
04
08
08
10
10
20
20
40
40
80
ENDCHAR
STARTCHAR eight
ENCODING 56
SWIDTH 600 0
DWIDTH 11 0
BBX 7 12 3 0
BITMAP
1C
22
42
42
44
38
44
84
84
84
88
70
ENDCHAR
STARTCHAR nine
ENCODING 57
SWIDTH 600 0
DWIDTH 11 0
BBX 8 12 2 0
BITMAP
0E
11
21
21
21
23
1D
02
02
04
18
E0
ENDCHAR
STARTCHAR colon
ENCODING 58
SWIDTH 600 0
DWIDTH 11 0
BBX 3 8 5 0
BITMAP
60
60
00
00
00
00
C0
C0
ENDCHAR
STARTCHAR semicolon
ENCODING 59
SWIDTH 600 0
DWIDTH 11 0
BBX 5 10 3 -2
BITMAP
18
18
00
00
00
30
70
60
C0
80
ENDCHAR
STARTCHAR less
ENCODING 60
SWIDTH 600 0
DWIDTH 11 0
BBX 11 8 1 2
BITMAP
00E0
0380
0E00
3800
E000
3800
0E00
0380
ENDCHAR
STARTCHAR equal
ENCODING 61
SWIDTH 600 0
DWIDTH 11 0
BBX 10 4 1 3
BITMAP
7FC0
0000
0000
FF80
ENDCHAR
STARTCHAR greater
ENCODING 62
SWIDTH 600 0
DWIDTH 11 0
BBX 11 8 0 2
BITMAP
3800
0E00
0380
00E0
0380
0E00
3800
E000
ENDCHAR
STARTCHAR question
ENCODING 63
SWIDTH 600 0
DWIDTH 11 0
BBX 6 11 4 0
BITMAP
78
CC
84
04
08
30
40
40
00
C0
C0
ENDCHAR
STARTCHAR at
ENCODING 64
SWIDTH 600 0
DWIDTH 11 0
BBX 8 12 3 0
BITMAP
0E
31
21
42
4E
92
A4
A4
9E
80
84
78
ENDCHAR
STARTCHAR A
ENCODING 65
SWIDTH 600 0
DWIDTH 11 0
BBX 11 11 0 0
BITMAP
0F00
0300
0500
0500
0880
0880
1080
1F80
2040
2040
F1E0
ENDCHAR
STARTCHAR B
ENCODING 66
SWIDTH 600 0
DWIDTH 11 0
BBX 9 11 1 0
BITMAP
3F00
1080
1080
2080
2100
3E00
2100
4080
4080
4100
FE00
ENDCHAR
STARTCHAR C
ENCODING 67
SWIDTH 600 0
DWIDTH 11 0
BBX 10 11 1 0
BITMAP
0F40
3180
6080
4000
8000
8000
8000
8000
4180
6300
3C00
ENDCHAR
STARTCHAR D
ENCODING 68
SWIDTH 600 0
DWIDTH 11 0
BBX 10 11 1 0
BITMAP
3F00
1080
1040
2040
2040
2040
2040
4080
4080
4100
FE00
ENDCHAR
STARTCHAR E
ENCODING 69
SWIDTH 600 0
DWIDTH 11 0
BBX 10 11 1 0
BITMAP
3FC0
1040
1080
2080
2400
3C00
2400
4080
4080
4100
FF00
ENDCHAR
STARTCHAR F
ENCODING 70
SWIDTH 600 0
DWIDTH 11 0
BBX 10 11 1 0
BITMAP
3FC0
1040
1080
2080
2400
3C00
2400
4000
4000
4000
F800
ENDCHAR
STARTCHAR G
ENCODING 71
SWIDTH 600 0
DWIDTH 11 0
BBX 10 11 1 0
BITMAP
0F40
3180
6080
4000
8000
8000
87C0
8080
4080
6100
3E00
ENDCHAR
STARTCHAR H
ENCODING 72
SWIDTH 600 0
DWIDTH 11 0
BBX 11 11 1 0
BITMAP
38E0
1040
1040
2080
2080
3F80
2080
4100
4100
4100
E380
ENDCHAR
STARTCHAR I
ENCODING 73
SWIDTH 600 0
DWIDTH 11 0
BBX 9 11 2 0
BITMAP
3F80
0400
0400
0400
0800
0800
0800
1000
1000
1000
FE00
ENDCHAR
STARTCHAR J
ENCODING 74
SWIDTH 600 0
DWIDTH 11 0
BBX 11 11 1 0
BITMAP
07E0
0080
0080
0080
0100
0100
4100
4200
8200
8600
7800
ENDCHAR
STARTCHAR K
ENCODING 75
SWIDTH 600 0
DWIDTH 11 0
BBX 11 11 1 0
BITMAP
3DE0
1080
1100
1200
2400
2C00
3200
2200
4100
4100
F180
ENDCHAR
STARTCHAR L
ENCODING 76
SWIDTH 600 0
DWIDTH 11 0
BBX 9 11 1 0
BITMAP
3E00
0800
0800
0800
1000
1000
1000
2080
2080
2100
FF00
ENDCHAR
STARTCHAR M
ENCODING 77
SWIDTH 600 0
DWIDTH 11 0
BBX 12 11 0 0
BITMAP
3870
1860
18A0
2940
2940
2640
2440
4080
4080
4080
F3C0
ENDCHAR
STARTCHAR N
ENCODING 78
SWIDTH 600 0
DWIDTH 11 0
BBX 11 11 1 0
BITMAP
39E0
1840
1840
2440
2480
2480
2280
4280
4100
4100
F100
ENDCHAR
STARTCHAR O
ENCODING 79
SWIDTH 600 0
DWIDTH 11 0
BBX 10 11 1 0
BITMAP
0F00
3180
6080
4040
8040
8040
8040
8080
4180
6300
3C00
ENDCHAR
STARTCHAR P
ENCODING 80
SWIDTH 600 0
DWIDTH 11 0
BBX 10 11 1 0
BITMAP
3F80
1040
1040
1040
2080
2180
3E00
4000
4000
4000
F800
ENDCHAR
STARTCHAR Q
ENCODING 81
SWIDTH 600 0
DWIDTH 11 0
BBX 10 13 1 -2
BITMAP
0F00
3180
6080
4040
8040
8040
8040
8080
4180
6300
3C00
3880
6700
ENDCHAR
STARTCHAR R
ENCODING 82
SWIDTH 600 0
DWIDTH 11 0
BBX 10 11 1 0
BITMAP
3F00
1080
1080
2080
2100
3E00
2200
4100
4100
4080
F0C0
ENDCHAR
STARTCHAR S
ENCODING 83
SWIDTH 600 0
DWIDTH 11 0
BBX 10 11 1 0
BITMAP
0F40
1180
2080
2000
1000
0F00
0080
0080
4080
6100
BE00
ENDCHAR
STARTCHAR T
ENCODING 84
SWIDTH 600 0
DWIDTH 11 0
BBX 11 11 2 0
BITMAP
7FE0
4420
8440
8440
0800
0800
0800
1000
1000
1000
7C00
ENDCHAR
STARTCHAR U
ENCODING 85
SWIDTH 600 0
DWIDTH 11 0
BBX 10 11 2 0
BITMAP
71C0
2080
2080
4100
4100
4100
8200
8200
8200
8400
7800
ENDCHAR
STARTCHAR V
ENCODING 86
SWIDTH 600 0
DWIDTH 11 0
BBX 11 11 2 0
BITMAP
F3E0
4040
4080
2080
2100
2100
2200
2200
1400
1800
1800
ENDCHAR
STARTCHAR W
ENCODING 87
SWIDTH 600 0
DWIDTH 11 0
BBX 12 11 1 0
BITMAP
F070
4020
4620
4640
4A40
4A80
5280
5280
6300
6300
4200
ENDCHAR
STARTCHAR X
ENCODING 88
SWIDTH 600 0
DWIDTH 11 0
BBX 11 11 1 0
BITMAP
38E0
1040
1080
0900
0A00
0400
0A00
1200
2100
4100
E380
ENDCHAR
STARTCHAR Y
ENCODING 89
SWIDTH 600 0
DWIDTH 11 0
BBX 9 11 3 0
BITMAP
E380
4100
4200
2400
2400
1800
1000
1000
2000
2000
F800
ENDCHAR
STARTCHAR Z
ENCODING 90
SWIDTH 600 0
DWIDTH 11 0
BBX 9 11 2 0
BITMAP
3F80
2080
4100
4200
0400
0800
1000
2100
4100
8200
FE00
ENDCHAR
STARTCHAR bracketleft
ENCODING 91
SWIDTH 600 0
DWIDTH 11 0
BBX 6 14 4 -2
BITMAP
1C
10
10
10
20
20
20
40
40
40
80
80
80
E0
ENDCHAR
STARTCHAR backslash
ENCODING 92
SWIDTH 600 0
DWIDTH 11 0
BBX 7 14 3 -2
BITMAP
80
80
40
40
20
20
10
10
08
08
04
04
02
02
ENDCHAR
STARTCHAR bracketright
ENCODING 93
SWIDTH 600 0
DWIDTH 11 0
BBX 6 14 2 -2
BITMAP
1C
04
04
04
08
08
08
10
10
10
20
20
20
E0
ENDCHAR
STARTCHAR asciicircum
ENCODING 94
SWIDTH 600 0
DWIDTH 11 0
BBX 7 5 3 7
BITMAP
0C
14
22
42
82
ENDCHAR
STARTCHAR underscore
ENCODING 95
SWIDTH 600 0
DWIDTH 11 0
BBX 11 1 0 -3
BITMAP
FFE0
ENDCHAR
STARTCHAR grave
ENCODING 96
SWIDTH 600 0
DWIDTH 11 0
BBX 4 3 5 9
BITMAP
C0
60
30
ENDCHAR
STARTCHAR a
ENCODING 97
SWIDTH 600 0
DWIDTH 11 0
BBX 9 8 1 0
BITMAP
1F00
2080
0080
1F00
6100
8100
8300
7D80
ENDCHAR
STARTCHAR b
ENCODING 98
SWIDTH 600 0
DWIDTH 11 0
BBX 9 12 1 0
BITMAP
3000
1000
1000
1000
2700
2880
3080
2080
4080
4100
6300
DC00
ENDCHAR
STARTCHAR c
ENCODING 99
SWIDTH 600 0
DWIDTH 11 0
BBX 9 8 1 0
BITMAP
1E80
6180
4080
8000
8000
8100
4300
3C00
ENDCHAR
STARTCHAR d
ENCODING 100
SWIDTH 600 0
DWIDTH 11 0
BBX 9 12 1 0
BITMAP
0180
0080
0080
0100
1D00
6300
4100
8100
8200
8200
4600
3B80
ENDCHAR
STARTCHAR e
ENCODING 101
SWIDTH 600 0
DWIDTH 11 0
BBX 9 8 1 0
BITMAP
1E00
6100
4080
FF80
8000
8000
4300
3C00
ENDCHAR
STARTCHAR f
ENCODING 102
SWIDTH 600 0
DWIDTH 11 0
BBX 10 12 2 0
BITMAP
07C0
0800
0800
0800
7F00
1000
1000
1000
2000
2000
2000
FE00
ENDCHAR
STARTCHAR g
ENCODING 103
SWIDTH 600 0
DWIDTH 11 0
BBX 10 12 1 -4
BITMAP
1DC0
6300
4100
8100
8200
8200
4600
3A00
0200
0400
0C00
F000
ENDCHAR
STARTCHAR h
ENCODING 104
SWIDTH 600 0
DWIDTH 11 0
BBX 9 12 1 0
BITMAP
3000
1000
1000
1000
2700
2880
3080
2080
4100
4100
4100
E380
ENDCHAR
STARTCHAR i
ENCODING 105
SWIDTH 600 0
DWIDTH 11 0
BBX 7 12 2 0
BITMAP
04
04
00
00
38
08
08
08
10
10
10
FE
ENDCHAR
STARTCHAR j
ENCODING 106
SWIDTH 600 0
DWIDTH 11 0
BBX 7 16 2 -4
BITMAP
02
02
00
00
3E
02
02
02
02
04
04
04
04
04
08
F0
ENDCHAR
STARTCHAR k
ENCODING 107
SWIDTH 600 0
DWIDTH 11 0
BBX 9 12 1 0
BITMAP
3000
1000
1000
1000
2700
2400
2800
3000
4800
4400
4200
C780
ENDCHAR
STARTCHAR l
ENCODING 108
SWIDTH 600 0
DWIDTH 11 0
BBX 7 12 2 0
BITMAP
1C
04
04
04
08
08
08
08
10
10
10
FE
ENDCHAR
STARTCHAR m
ENCODING 109
SWIDTH 600 0
DWIDTH 11 0
BBX 11 8 0 0
BITMAP
6CC0
3320
2220
2220
2220
4440
4440
E660
ENDCHAR
STARTCHAR n
ENCODING 110
SWIDTH 600 0
DWIDTH 11 0
BBX 9 8 1 0
BITMAP
6700
2880
3080
2080
4100
4100
4100
E380
ENDCHAR
STARTCHAR o
ENCODING 111
SWIDTH 600 0
DWIDTH 11 0
BBX 9 8 1 0
BITMAP
1E00
6100
4080
8080
8080
8100
4300
3C00
ENDCHAR
STARTCHAR p
ENCODING 112
SWIDTH 600 0
DWIDTH 11 0
BBX 10 12 0 -4
BITMAP
3380
1440
1840
1040
2040
2080
3180
2E00
4000
4000
4000
E000
ENDCHAR
STARTCHAR q
ENCODING 113
SWIDTH 600 0
DWIDTH 11 0
BBX 10 12 1 -4
BITMAP
1DC0
6300
4100
8100
8200
8200
8600
7A00
0400
0400
0400
1F00
ENDCHAR
STARTCHAR r
ENCODING 114
SWIDTH 600 0
DWIDTH 11 0
BBX 9 8 2 0
BITMAP
3300
1480
1800
1000
1000
2000
2000
FC00
ENDCHAR
STARTCHAR s
ENCODING 115
SWIDTH 600 0
DWIDTH 11 0
BBX 8 8 2 0
BITMAP
1D
23
21
18
04
82
C2
BC
ENDCHAR
STARTCHAR t
ENCODING 116
SWIDTH 600 0
DWIDTH 11 0
BBX 8 11 2 0
BITMAP
10
10
10
FE
20
20
40
40
40
43
3C
ENDCHAR
STARTCHAR u
ENCODING 117
SWIDTH 600 0
DWIDTH 11 0
BBX 8 8 2 0
BITMAP
C3
41
41
82
82
86
8A
73
ENDCHAR
STARTCHAR v
ENCODING 118
SWIDTH 600 0
DWIDTH 11 0
BBX 10 8 1 0
BITMAP
F3C0
4100
4200
2200
2400
2400
1800
1800
ENDCHAR
STARTCHAR w
ENCODING 119
SWIDTH 600 0
DWIDTH 11 0
BBX 10 8 1 0
BITMAP
E1C0
4080
4880
4900
5900
6600
6600
4400
ENDCHAR
STARTCHAR x
ENCODING 120
SWIDTH 600 0
DWIDTH 11 0
BBX 10 8 1 0
BITMAP
39C0
1080
0900
0600
0C00
1200
2100
F380
ENDCHAR
STARTCHAR y
ENCODING 121
SWIDTH 600 0
DWIDTH 11 0
BBX 11 12 0 -4
BITMAP
38E0
1040
1080
0880
0900
0600
0600
0400
0800
0800
1000
FC00
ENDCHAR
STARTCHAR z
ENCODING 122
SWIDTH 600 0
DWIDTH 11 0
BBX 8 8 2 0
BITMAP
7F
82
84
08
10
21
41
FE
ENDCHAR
STARTCHAR braceleft
ENCODING 123
SWIDTH 600 0
DWIDTH 11 0
BBX 6 14 4 -2
BITMAP
0C
10
10
20
20
20
C0
20
20
40
40
40
40
30
ENDCHAR
STARTCHAR bar
ENCODING 124
SWIDTH 600 0
DWIDTH 11 0
BBX 3 14 5 -2
BITMAP
20
20
20
20
40
40
40
40
40
80
80
80
80
80
ENDCHAR
STARTCHAR braceright
ENCODING 125
SWIDTH 600 0
DWIDTH 11 0
BBX 6 14 3 -2
BITMAP
30
08
08
08
08
10
10
0C
10
10
10
20
20
C0
ENDCHAR
STARTCHAR asciitilde
ENCODING 126
SWIDTH 600 0
DWIDTH 11 0
BBX 8 3 2 4
BITMAP
70
99
0E
ENDCHAR
STARTCHAR quotesinglbase
ENCODING 130
SWIDTH 600 0
DWIDTH 11 0
BBX 3 5 3 -3
BITMAP
60
60
C0
C0
80
ENDCHAR
STARTCHAR quotedblbase
ENCODING 132
SWIDTH 600 0
DWIDTH 11 0
BBX 6 5 2 -3
BITMAP
6C
6C
D8
D8
90
ENDCHAR
STARTCHAR ellipsis
ENCODING 133
SWIDTH 600 0
DWIDTH 11 0
BBX 10 2 1 0
BITMAP
CCC0
CCC0
ENDCHAR
STARTCHAR dagger
ENCODING 134
SWIDTH 600 0
DWIDTH 11 0
BBX 6 13 4 -1
BITMAP
10
10
10
10
FC
20
20
20
20
40
40
40
40
ENDCHAR
STARTCHAR daggerdbl
ENCODING 135
SWIDTH 600 0
DWIDTH 11 0
BBX 7 13 3 -1
BITMAP
08
08
08
08
7E
10
10
10
FC
20
20
20
20
ENDCHAR
STARTCHAR Euro
ENCODING 136
SWIDTH 600 0
DWIDTH 11 0
BBX 11 11 0 0
BITMAP
07A0
18C0
3040
2000
7F00
4000
FC00
4000
20C0
3180
1E00
ENDCHAR
STARTCHAR perthousand
ENCODING 137
SWIDTH 600 0
DWIDTH 11 0
BBX 9 12 1 0
BITMAP
7000
9000
9000
E300
0C00
3000
C000
0000
7380
9480
9480
E700
ENDCHAR
STARTCHAR guilsinglleft
ENCODING 139
SWIDTH 600 0
DWIDTH 11 0
BBX 6 8 3 0
BITMAP
0C
18
30
60
C0
60
30
18
ENDCHAR
STARTCHAR quoteleft
ENCODING 145
SWIDTH 600 0
DWIDTH 11 0
BBX 3 5 6 7
BITMAP
C0
C0
60
60
20
ENDCHAR
STARTCHAR quoteright
ENCODING 146
SWIDTH 600 0
DWIDTH 11 0
BBX 3 5 5 7
BITMAP
60
60
C0
C0
80
ENDCHAR
STARTCHAR quotedblleft
ENCODING 147
SWIDTH 600 0
DWIDTH 11 0
BBX 6 5 4 7
BITMAP
D8
D8
6C
6C
24
ENDCHAR
STARTCHAR quotedblright
ENCODING 148
SWIDTH 600 0
DWIDTH 11 0
BBX 6 5 4 7
BITMAP
6C
6C
D8
D8
90
ENDCHAR
STARTCHAR bullet
ENCODING 149
SWIDTH 600 0
DWIDTH 11 0
BBX 4 4 4 4
BITMAP
70
F0
F0
E0
ENDCHAR
STARTCHAR endash
ENCODING 150
SWIDTH 600 0
DWIDTH 11 0
BBX 9 1 2 5
BITMAP
FF80
ENDCHAR
STARTCHAR emdash
ENCODING 151
SWIDTH 600 0
DWIDTH 11 0
BBX 11 1 0 5
BITMAP
FFE0
ENDCHAR
STARTCHAR trademark
ENCODING 153
SWIDTH 600 0
DWIDTH 11 0
BBX 10 5 1 6
BITMAP
FC40
24C0
2780
4A80
4A80
ENDCHAR
STARTCHAR guilsinglright
ENCODING 155
SWIDTH 600 0
DWIDTH 11 0
BBX 6 8 4 0
BITMAP
60
30
18
0C
18
30
60
C0
ENDCHAR
STARTCHAR space
ENCODING 160
SWIDTH 600 0
DWIDTH 11 0
BBX 0 0 0 0
BITMAP
ENDCHAR
STARTCHAR afii10062
ENCODING 161
SWIDTH 600 0
DWIDTH 11 0
BBX 12 14 1 0
BITMAP
0880
0700
0000
78F0
2020
2040
1080
1100
1100
0A00
0C00
8800
9000
6000
ENDCHAR
STARTCHAR afii10110
ENCODING 162
SWIDTH 600 0
DWIDTH 11 0
BBX 11 15 0 -4
BITMAP
0480
0700
0000
38E0
1040
1080
0880
0900
0600
0600
0400
0800
0800
1000
FC00
ENDCHAR
STARTCHAR afii10057
ENCODING 163
SWIDTH 600 0
DWIDTH 11 0
BBX 11 11 1 0
BITMAP
07E0
0080
0080
0080
0100
0100
4100
4200
8200
8600
7800
ENDCHAR
STARTCHAR currency
ENCODING 164
SWIDTH 600 0
DWIDTH 11 0
BBX 9 7 2 2
BITMAP
6180
3F00
2100
4100
4200
7E00
C300
ENDCHAR
STARTCHAR afii10050
ENCODING 165
SWIDTH 600 0
DWIDTH 11 0
BBX 11 14 1 0
BITMAP
0020
0020
0040
3FC0
1000
1000
2000
2000
2000
2000
4000
4000
4000
F800
ENDCHAR
STARTCHAR brokenbar
ENCODING 166
SWIDTH 600 0
DWIDTH 11 0
BBX 3 14 5 -2
BITMAP
20
20
20
40
40
40
00
00
40
40
40
80
80
80
ENDCHAR
STARTCHAR section
ENCODING 167
SWIDTH 600 0
DWIDTH 11 0
BBX 9 13 1 -1
BITMAP
0F80
1080
1080
3800
4400
4200
2100
1080
0880
0700
8400
8400
F800
ENDCHAR
STARTCHAR afii10023
ENCODING 168
SWIDTH 600 0
DWIDTH 11 0
BBX 10 14 1 0
BITMAP
0D80
0000
0000
3FC0
1040
1080
2080
2400
3C00
2400
4080
4080
4100
FF00
ENDCHAR
STARTCHAR copyright
ENCODING 169
SWIDTH 600 0
DWIDTH 11 0
BBX 11 11 1 0
BITMAP
0F00
30C0
4740
4920
9020
9020
9020
9140
4E40
6180
1E00
ENDCHAR
STARTCHAR afii10053
ENCODING 170
SWIDTH 600 0
DWIDTH 11 0
BBX 10 11 1 0
BITMAP
0F40
3180
6080
4000
8000
FC00
8000
8000
4180
6300
3C00
ENDCHAR
STARTCHAR guillemotleft
ENCODING 171
SWIDTH 600 0
DWIDTH 11 0
BBX 10 8 1 0
BITMAP
0440
1980
3300
6600
CC00
6600
3300
0880
ENDCHAR
STARTCHAR logicalnot
ENCODING 172
SWIDTH 600 0
DWIDTH 11 0
BBX 9 4 2 3
BITMAP
FF80
0080
0100
0100
ENDCHAR
STARTCHAR hyphen
ENCODING 173
SWIDTH 600 0
DWIDTH 11 0
BBX 8 1 2 5
BITMAP
FF
ENDCHAR
STARTCHAR registered
ENCODING 174
SWIDTH 600 0
DWIDTH 11 0
BBX 11 11 1 0
BITMAP
0F00
30C0
4E40
4920
8920
8E20
9420
9240
5240
6180
1E00
ENDCHAR
STARTCHAR afii10056
ENCODING 175
SWIDTH 600 0
DWIDTH 11 0
BBX 9 14 2 0
BITMAP
0D80
0000
0000
3F80
0400
0400
0800
0800
0800
0800
1000
1000
1000
FE00
ENDCHAR
STARTCHAR degree
ENCODING 176
SWIDTH 600 0
DWIDTH 11 0
BBX 6 6 3 6
BITMAP
38
44
84
84
88
70
ENDCHAR
STARTCHAR plusminus
ENCODING 177
SWIDTH 600 0
DWIDTH 11 0
BBX 9 9 1 1
BITMAP
0400
0400
0400
7F80
0800
0800
0800
0000
FF00
ENDCHAR
STARTCHAR afii10055
ENCODING 178
SWIDTH 600 0
DWIDTH 11 0
BBX 9 11 2 0
BITMAP
3F80
0400
0400
0400
0800
0800
0800
1000
1000
1000
FE00
ENDCHAR
STARTCHAR afii10103
ENCODING 179
SWIDTH 600 0
DWIDTH 11 0
BBX 7 12 2 0
BITMAP
04
04
00
00
38
08
08
08
10
10
10
FE
ENDCHAR
STARTCHAR afii10098
ENCODING 180
SWIDTH 600 0
DWIDTH 11 0
BBX 10 10 2 0
BITMAP
0040
0040
7F80
1000
1000
1000
2000
2000
2000
FC00
ENDCHAR
STARTCHAR mu
ENCODING 181
SWIDTH 600 0
DWIDTH 11 0
BBX 10 12 0 -4
BITMAP
30C0
1040
1040
2080
2080
2180
2280
5CC0
4000
4000
8000
8000
ENDCHAR
STARTCHAR paragraph
ENCODING 182
SWIDTH 600 0
DWIDTH 11 0
BBX 9 13 3 -1
BITMAP
3F80
6A00
CA00
8A00
8A00
D400
7400
1400
1400
2800
2800
2800
EE00
ENDCHAR
STARTCHAR periodcentered
ENCODING 183
SWIDTH 600 0
DWIDTH 11 0
BBX 2 2 6 5
BITMAP
C0
C0
ENDCHAR
STARTCHAR afii10071
ENCODING 184
SWIDTH 600 0
DWIDTH 11 0
BBX 9 11 1 0
BITMAP
1B00
0000
0000
1E00
6100
4080
FF80
8000
8000
4300
3C00
ENDCHAR
STARTCHAR afii61352
ENCODING 185
SWIDTH 600 0
DWIDTH 11 0
BBX 13 11 0 0
BITMAP
39C0
1898
18A8
28A8
2530
2500
2570
4500
4200
4200
E200
ENDCHAR
STARTCHAR afii10101
ENCODING 186
SWIDTH 600 0
DWIDTH 11 0
BBX 9 8 1 0
BITMAP
1E80
6180
4080
F800
8000
8100
4300
3C00
ENDCHAR
STARTCHAR guillemotright
ENCODING 187
SWIDTH 600 0
DWIDTH 11 0
BBX 10 8 1 0
BITMAP
4400
3300
1980
0CC0
1980
3300
6600
8800
ENDCHAR
STARTCHAR afii10105
ENCODING 188
SWIDTH 600 0
DWIDTH 11 0
BBX 7 16 2 -4
BITMAP
02
02
00
00
3E
02
02
02
02
04
04
04
04
04
08
F0
ENDCHAR
STARTCHAR afii10054
ENCODING 189
SWIDTH 600 0
DWIDTH 11 0
BBX 10 11 1 0
BITMAP
0F40
1180
2080
2000
1000
0F00
0080
0080
4080
6100
BE00
ENDCHAR
STARTCHAR afii10102
ENCODING 190
SWIDTH 600 0
DWIDTH 11 0
BBX 8 8 2 0
BITMAP
1D
23
21
18
04
82
C2
BC
ENDCHAR
STARTCHAR afii10104
ENCODING 191
SWIDTH 600 0
DWIDTH 11 0
BBX 7 11 2 0
BITMAP
36
00
00
38
08
08
08
10
10
10
FE
ENDCHAR
STARTCHAR afii10017
ENCODING 192
SWIDTH 600 0
DWIDTH 11 0
BBX 11 11 0 0
BITMAP
0F00
0300
0500
0500
0880
0880
1080
1F80
2040
2040
F1E0
ENDCHAR
STARTCHAR afii10018
ENCODING 193
SWIDTH 600 0
DWIDTH 11 0
BBX 10 11 1 0
BITMAP
3FC0
1040
1080
2000
3E00
2100
2080
4080
4100
4300
FC00
ENDCHAR
STARTCHAR afii10019
ENCODING 194
SWIDTH 600 0
DWIDTH 11 0
BBX 9 11 1 0
BITMAP
3F00
1080
1080
2080
2100
3E00
2100
4080
4080
4100
FE00
ENDCHAR
STARTCHAR afii10020
ENCODING 195
SWIDTH 600 0
DWIDTH 11 0
BBX 10 11 1 0
BITMAP
3FC0
1040
1080
2080
2000
2000
2000
4000
4000
4000
F800
ENDCHAR
STARTCHAR afii10021
ENCODING 196
SWIDTH 600 0
DWIDTH 11 0
BBX 12 14 0 -3
BITMAP
0FF0
0420
0420
0840
0840
0840
0840
1080
1080
2080
7FC0
4040
8080
8080
ENDCHAR
STARTCHAR afii10022
ENCODING 197
SWIDTH 600 0
DWIDTH 11 0
BBX 10 11 1 0
BITMAP
3FC0
1040
1080
2080
2400
3C00
2400
4080
4080
4100
FF00
ENDCHAR
STARTCHAR afii10024
ENCODING 198
SWIDTH 600 0
DWIDTH 11 0
BBX 13 11 0 0
BITMAP
3BB8
1110
1120
0A40
0A80
0700
0A80
1480
2480
6440
CC60
ENDCHAR
STARTCHAR afii10025
ENCODING 199
SWIDTH 600 0
DWIDTH 11 0
BBX 9 11 1 0
BITMAP
2F00
3080
2080
0080
0100
0E00
0100
0080
8080
4100
3E00
ENDCHAR
STARTCHAR afii10026
ENCODING 200
SWIDTH 600 0
DWIDTH 11 0
BBX 11 11 1 0
BITMAP
3CE0
1140
1140
2280
2280
2480
2880
4900
5100
5100
E780
ENDCHAR
STARTCHAR afii10027
ENCODING 201
SWIDTH 600 0
DWIDTH 11 0
BBX 11 14 1 0
BITMAP
0880
0700
0000
3CE0
1140
1140
2280
2280
2480
2880
4900
5100
5100
E780
ENDCHAR
STARTCHAR afii10028
ENCODING 202
SWIDTH 600 0
DWIDTH 11 0
BBX 11 11 1 0
BITMAP
3DE0
1080
1100
1200
2400
2C00
3200
2200
4100
4100
F180
ENDCHAR
STARTCHAR afii10029
ENCODING 203
SWIDTH 600 0
DWIDTH 11 0
BBX 12 11 0 0
BITMAP
0FF0
0420
0420
0840
0840
0840
0840
1080
9080
A080
41C0
ENDCHAR
STARTCHAR afii10030
ENCODING 204
SWIDTH 600 0
DWIDTH 11 0
BBX 12 11 0 0
BITMAP
3870
1860
18A0
2940
2940
2640
2440
4080
4080
4080
F3C0
ENDCHAR
STARTCHAR afii10031
ENCODING 205
SWIDTH 600 0
DWIDTH 11 0
BBX 11 11 1 0
BITMAP
38E0
1040
1040
2080
2080
3F80
2080
4100
4100
4100
E380
ENDCHAR
STARTCHAR afii10032
ENCODING 206
SWIDTH 600 0
DWIDTH 11 0
BBX 10 11 1 0
BITMAP
0F00
3180
6080
4040
8040
8040
8040
8080
4180
6300
3C00
ENDCHAR
STARTCHAR afii10033
ENCODING 207
SWIDTH 600 0
DWIDTH 11 0
BBX 11 11 1 0
BITMAP
3FE0
1040
1040
2080
2080
2080
2080
4100
4100
4100
E380
ENDCHAR
STARTCHAR afii10034
ENCODING 208
SWIDTH 600 0
DWIDTH 11 0
BBX 10 11 1 0
BITMAP
3F80
1040
1040
1040
2080
2180
3E00
4000
4000
4000
F800
ENDCHAR
STARTCHAR afii10035
ENCODING 209
SWIDTH 600 0
DWIDTH 11 0
BBX 10 11 1 0
BITMAP
0F40
3180
6080
4000
8000
8000
8000
8000
4180
6300
3C00
ENDCHAR
STARTCHAR afii10036
ENCODING 210
SWIDTH 600 0
DWIDTH 11 0
BBX 11 11 2 0
BITMAP
7FE0
4420
8440
8440
0800
0800
0800
1000
1000
1000
7C00
ENDCHAR
STARTCHAR afii10037
ENCODING 211
SWIDTH 600 0
DWIDTH 11 0
BBX 12 11 1 0
BITMAP
78F0
2020
2040
1080
1100
1100
0A00
0C00
8800
9000
6000
ENDCHAR
STARTCHAR afii10038
ENCODING 212
SWIDTH 600 0
DWIDTH 11 0
BBX 11 11 1 0
BITMAP
0F80
0200
1F80
6240
4420
8420
8440
48C0
3F00
0800
3E00
ENDCHAR
STARTCHAR afii10039
ENCODING 213
SWIDTH 600 0
DWIDTH 11 0
BBX 11 11 1 0
BITMAP
38E0
1040
1080
0900
0A00
0400
0A00
1200
2100
4100
E380
ENDCHAR
STARTCHAR afii10040
ENCODING 214
SWIDTH 600 0
DWIDTH 11 0
BBX 11 14 1 -3
BITMAP
38E0
1040
1040
2080
2080
2080
2080
4100
4100
4100
FF80
0080
0100
0100
ENDCHAR
STARTCHAR afii10041
ENCODING 215
SWIDTH 600 0
DWIDTH 11 0
BBX 9 11 3 0
BITMAP
E380
4100
4100
8200
8200
8600
7A00
0400
0400
0400
0E00
ENDCHAR
STARTCHAR afii10042
ENCODING 216
SWIDTH 600 0
DWIDTH 11 0
BBX 13 11 0 0
BITMAP
3BB8
1110
1110
2220
2220
2220
2220
4440
4440
4440
FFE0
ENDCHAR
STARTCHAR afii10043
ENCODING 217
SWIDTH 600 0
DWIDTH 11 0
BBX 13 14 0 -3
BITMAP
3BB8
1110
1110
2220
2220
2220
2220
4440
4440
4440
FFE0
0020
0040
0040
ENDCHAR
STARTCHAR afii10044
ENCODING 218
SWIDTH 600 0
DWIDTH 11 0
BBX 10 11 1 0
BITMAP
7C00
4800
8800
9000
1F00
1080
1040
2040
2080
2180
7E00
ENDCHAR
STARTCHAR afii10045
ENCODING 219
SWIDTH 600 0
DWIDTH 11 0
BBX 13 11 0 0
BITMAP
3838
1010
1010
2020
3C20
2220
2120
4140
4240
4640
F8E0
ENDCHAR
STARTCHAR afii10046
ENCODING 220
SWIDTH 600 0
DWIDTH 11 0
BBX 9 11 1 0
BITMAP
3800
1000
1000
2000
3E00
2100
2080
4080
4100
4300
FC00
ENDCHAR
STARTCHAR afii10047
ENCODING 221
SWIDTH 600 0
DWIDTH 11 0
BBX 9 11 2 0
BITMAP
5E00
6300
4100
0080
0080
1F80
0080
0100
8300
C600
7800
ENDCHAR
STARTCHAR afii10048
ENCODING 222
SWIDTH 600 0
DWIDTH 11 0
BBX 11 11 0 0
BITMAP
39C0
1220
1420
2420
2820
3820
2820
4840
4840
4880
E700
ENDCHAR
STARTCHAR afii10049
ENCODING 223
SWIDTH 600 0
DWIDTH 11 0
BBX 12 11 0 0
BITMAP
03F0
0420
0820
0820
0440
03C0
0440
0840
1080
2080
C3C0
ENDCHAR
STARTCHAR afii10065
ENCODING 224
SWIDTH 600 0
DWIDTH 11 0
BBX 9 8 1 0
BITMAP
1F00
2080
0080
1F00
6100
8100
8300
7D80
ENDCHAR
STARTCHAR afii10066
ENCODING 225
SWIDTH 600 0
DWIDTH 11 0
BBX 11 12 1 0
BITMAP
0020
07C0
1800
2000
5E00
6100
4080
8080
8080
8100
4300
3C00
ENDCHAR
STARTCHAR afii10067
ENCODING 226
SWIDTH 600 0
DWIDTH 11 0
BBX 8 8 1 0
BITMAP
7E
21
21
3E
41
41
42
FC
ENDCHAR
STARTCHAR afii10068
ENCODING 227
SWIDTH 600 0
DWIDTH 11 0
BBX 9 8 2 0
BITMAP
7F80
1080
1080
1000
2000
2000
2000
FC00
ENDCHAR
STARTCHAR afii10069
ENCODING 228
SWIDTH 600 0
DWIDTH 11 0
BBX 11 10 0 -2
BITMAP
1FE0
0840
0840
0840
1080
1080
2080
7FC0
8080
8080
ENDCHAR
STARTCHAR afii10070
ENCODING 229
SWIDTH 600 0
DWIDTH 11 0
BBX 9 8 1 0
BITMAP
1E00
6100
4080
FF80
8000
8000
4300
3C00
ENDCHAR
STARTCHAR afii10072
ENCODING 230
SWIDTH 600 0
DWIDTH 11 0
BBX 12 8 0 0
BITMAP
7770
2220
1240
0F80
1480
2480
4440
CE60
ENDCHAR
STARTCHAR afii10073
ENCODING 231
SWIDTH 600 0
DWIDTH 11 0
BBX 7 8 2 0
BITMAP
5C
62
02
1C
02
02
84
78
ENDCHAR
STARTCHAR afii10074
ENCODING 232
SWIDTH 600 0
DWIDTH 11 0
BBX 10 8 1 0
BITMAP
71C0
2280
2280
2480
4900
5100
5100
E380
ENDCHAR
STARTCHAR afii10075
ENCODING 233
SWIDTH 600 0
DWIDTH 11 0
BBX 10 11 1 0
BITMAP
0900
0E00
0000
71C0
2280
2280
2480
4900
5100
5100
E380
ENDCHAR
STARTCHAR afii10076
ENCODING 234
SWIDTH 600 0
DWIDTH 11 0
BBX 9 8 1 0
BITMAP
7700
2400
2800
3000
4800
4400
4200
E780
ENDCHAR
STARTCHAR afii10077
ENCODING 235
SWIDTH 600 0
DWIDTH 11 0
BBX 11 8 0 0
BITMAP
1FE0
0840
0840
0840
1080
9080
9080
61C0
ENDCHAR
STARTCHAR afii10078
ENCODING 236
SWIDTH 600 0
DWIDTH 11 0
BBX 12 8 0 0
BITMAP
7070
3060
28A0
2920
4940
4640
4440
E0E0
ENDCHAR
STARTCHAR afii10079
ENCODING 237
SWIDTH 600 0
DWIDTH 11 0
BBX 10 8 1 0
BITMAP
71C0
2080
2080
3F80
4100
4100
4100
E380
ENDCHAR
STARTCHAR afii10080
ENCODING 238
SWIDTH 600 0
DWIDTH 11 0
BBX 9 8 1 0
BITMAP
1E00
6100
4080
8080
8080
8100
4300
3C00
ENDCHAR
STARTCHAR afii10081
ENCODING 239
SWIDTH 600 0
DWIDTH 11 0
BBX 10 8 1 0
BITMAP
7FC0
2080
2080
2080
4100
4100
4100
E380
ENDCHAR
STARTCHAR afii10082
ENCODING 240
SWIDTH 600 0
DWIDTH 11 0
BBX 10 12 0 -4
BITMAP
3380
1440
1840
1040
2040
2080
3180
2E00
4000
4000
4000
E000
ENDCHAR
STARTCHAR afii10083
ENCODING 241
SWIDTH 600 0
DWIDTH 11 0
BBX 9 8 1 0
BITMAP
1E80
6180
4080
8000
8000
8100
4300
3C00
ENDCHAR
STARTCHAR afii10084
ENCODING 242
SWIDTH 600 0
DWIDTH 11 0
BBX 9 8 2 0
BITMAP
FF80
8880
8880
0800
1000
1000
1000
7C00
ENDCHAR
STARTCHAR afii10085
ENCODING 243
SWIDTH 600 0
DWIDTH 11 0
BBX 11 12 0 -4
BITMAP
38E0
1040
1080
0880
0900
0600
0600
0400
0800
0800
1000
FC00
ENDCHAR
STARTCHAR afii10086
ENCODING 244
SWIDTH 600 0
DWIDTH 11 0
BBX 10 16 1 -4
BITMAP
0600
0200
0200
0400
3580
4E40
4440
8440
8840
8880
9C80
6B00
0800
1000
1000
3800
ENDCHAR
STARTCHAR afii10087
ENCODING 245
SWIDTH 600 0
DWIDTH 11 0
BBX 10 8 1 0
BITMAP
39C0
1080
0900
0600
0C00
1200
2100
F380
ENDCHAR
STARTCHAR afii10088
ENCODING 246
SWIDTH 600 0
DWIDTH 11 0
BBX 10 10 1 -2
BITMAP
71C0
2080
2080
2080
4100
4100
4100
FF80
0100
0100
ENDCHAR
STARTCHAR afii10089
ENCODING 247
SWIDTH 600 0
DWIDTH 11 0
BBX 9 8 2 0
BITMAP
E380
4100
4300
4500
3A00
0200
0200
0700
ENDCHAR
STARTCHAR afii10090
ENCODING 248
SWIDTH 600 0
DWIDTH 11 0
BBX 12 8 0 0
BITMAP
7770
2220
2220
2220
4440
4440
4440
FFE0
ENDCHAR
STARTCHAR afii10091
ENCODING 249
SWIDTH 600 0
DWIDTH 11 0
BBX 12 10 0 -2
BITMAP
7770
2220
2220
2220
4440
4440
4440
FFE0
0040
0040
ENDCHAR
STARTCHAR afii10092
ENCODING 250
SWIDTH 600 0
DWIDTH 11 0
BBX 8 8 1 0
BITMAP
78
90
90
1E
21
21
22
7C
ENDCHAR
STARTCHAR afii10093
ENCODING 251
SWIDTH 600 0
DWIDTH 11 0
BBX 11 8 0 0
BITMAP
70E0
2040
2040
3C40
4280
4280
4480
F9C0
ENDCHAR
STARTCHAR afii10094
ENCODING 252
SWIDTH 600 0
DWIDTH 11 0
BBX 8 8 1 0
BITMAP
70
20
20
3E
41
41
42
FC
ENDCHAR
STARTCHAR afii10095
ENCODING 253
SWIDTH 600 0
DWIDTH 11 0
BBX 9 8 1 0
BITMAP
5E00
6100
4080
0F80
0080
8100
4300
3C00
ENDCHAR
STARTCHAR afii10096
ENCODING 254
SWIDTH 600 0
DWIDTH 11 0
BBX 11 8 0 0
BITMAP
7180
2640
2420
3820
4820
4840
44C0
E380
ENDCHAR
STARTCHAR afii10097
ENCODING 255
SWIDTH 600 0
DWIDTH 11 0
BBX 10 8 1 0
BITMAP
0FC0
1080
2080
2080
1F00
1100
2100
C380
ENDCHAR
STARTCHAR Lslash
ENCODING -1
SWIDTH 600 0
DWIDTH 11 0
BBX 9 11 1 0
BITMAP
3E00
0800
0800
0B00
1C00
3000
D000
2080
2080
2100
FF00
ENDCHAR
STARTCHAR OE
ENCODING -1
SWIDTH 600 0
DWIDTH 11 0
BBX 12 11 0 0
BITMAP
0EF0
3110
2110
4100
4240
83C0
8240
8400
8420
4420
3BE0
ENDCHAR
STARTCHAR Scaron
ENCODING -1
SWIDTH 600 0
DWIDTH 11 0
BBX 10 14 1 0
BITMAP
0480
0500
0600
0000
0F40
1180
2080
2000
1C00
0300
0080
4080
6100
BE00
ENDCHAR
STARTCHAR Ydieresis
ENCODING -1
SWIDTH 600 0
DWIDTH 11 0
BBX 9 13 3 0
BITMAP
1200
0000
0000
E380
4100
2200
2400
1800
1000
1000
2000
2000
F800
ENDCHAR
STARTCHAR Zcaron
ENCODING -1
SWIDTH 600 0
DWIDTH 11 0
BBX 9 14 2 0
BITMAP
0900
0A00
0C00
0000
3F80
2080
4100
4200
0400
0800
1100
2100
4200
FE00
ENDCHAR
STARTCHAR breve
ENCODING -1
SWIDTH 600 0
DWIDTH 11 0
BBX 5 3 5 9
BITMAP
88
88
70
ENDCHAR
STARTCHAR caron
ENCODING -1
SWIDTH 600 0
DWIDTH 11 0
BBX 4 3 6 9
BITMAP
90
A0
C0
ENDCHAR
STARTCHAR circumflex
ENCODING -1
SWIDTH 600 0
DWIDTH 11 0
BBX 4 3 5 9
BITMAP
30
50
90
ENDCHAR
STARTCHAR dotaccent
ENCODING -1
SWIDTH 600 0
DWIDTH 11 0
BBX 2 2 6 9
BITMAP
C0
C0
ENDCHAR
STARTCHAR dotlessi
ENCODING -1
SWIDTH 600 0
DWIDTH 11 0
BBX 7 8 2 0
BITMAP
38
08
08
08
10
10
10
FE
ENDCHAR
STARTCHAR fi
ENCODING -1
SWIDTH 600 0
DWIDTH 11 0
BBX 10 12 0 0
BITMAP
0740
0840
0800
0800
7D80
1080
1080
1080
2100
2100
2100
FBC0
ENDCHAR
STARTCHAR fl
ENCODING -1
SWIDTH 600 0
DWIDTH 11 0
BBX 10 12 0 0
BITMAP
07C0
0840
0840
0840
7C80
1080
1080
1080
2100
2100
2100
FBC0
ENDCHAR
STARTCHAR florin
ENCODING -1
SWIDTH 600 0
DWIDTH 11 0
BBX 11 14 1 -2
BITMAP
00E0
0100
0200
0200
0200
1F00
0400
0400
0400
0400
0800
0800
1000
E000
ENDCHAR
STARTCHAR fraction
ENCODING -1
SWIDTH 600 0
DWIDTH 11 0
BBX 11 5 1 3
BITMAP
00E0
0380
0E00
3800
E000
ENDCHAR
STARTCHAR hungarumlaut
ENCODING -1
SWIDTH 600 0
DWIDTH 11 0
BBX 6 3 4 9
BITMAP
24
48
90
ENDCHAR
STARTCHAR lslash
ENCODING -1
SWIDTH 600 0
DWIDTH 11 0
BBX 8 12 2 0
BITMAP
1C
04
04
04
0B
0E
38
68
10
10
10
FE
ENDCHAR
STARTCHAR oe
ENCODING -1
SWIDTH 600 0
DWIDTH 11 0
BBX 11 8 0 0
BITMAP
1DC0
6220
4220
87E0
8400
8400
4440
3B80
ENDCHAR
STARTCHAR ogonek
ENCODING -1
SWIDTH 600 0
DWIDTH 11 0
BBX 3 4 4 -4
BITMAP
40
80
80
60
ENDCHAR
STARTCHAR ring
ENCODING -1
SWIDTH 600 0
DWIDTH 11 0
BBX 4 3 5 9
BITMAP
70
90
E0
ENDCHAR
STARTCHAR scaron
ENCODING -1
SWIDTH 600 0
DWIDTH 11 0
BBX 8 12 2 0
BITMAP
09
0A
0C
00
1D
23
21
18
04
82
C2
BC
ENDCHAR
STARTCHAR tilde
ENCODING -1
SWIDTH 600 0
DWIDTH 11 0
BBX 6 2 4 9
BITMAP
64
98
ENDCHAR
STARTCHAR zcaron
ENCODING -1
SWIDTH 600 0
DWIDTH 11 0
BBX 8 12 2 0
BITMAP
12
14
18
00
7F
82
84
08
10
21
41
FE
ENDCHAR
ENDFONT
