STARTFONT 2.1
FONT -Adobe-Helvetica-Medium-O-Normal--14-140-75-75-P-78-windows-1251
SIZE 14 75 75
FONTBOUNDINGBOX 20 17 -3 -3
COMMENT $XConsortium: helvO14.bdf,v 1.14 95/01/26 18:02:35 gildea Exp $
COMMENT 
COMMENT +
COMMENT  Copyright 1984-1989, 1994 Adobe Systems Incorporated.
COMMENT  Copyright 1988, 1994 Digital Equipment Corporation.
COMMENT
COMMENT  Adobe is a trademark of Adobe Systems Incorporated which may be
COMMENT  registered in certain jurisdictions.
COMMENT  Permission to use these trademarks is hereby granted only in
COMMENT  association with the images described in this file.
COMMENT
COMMENT  Permission to use, copy, modify, distribute and sell this software
COMMENT  and its documentation for any purpose and without fee is hereby
COMMENT  granted, provided that the above copyright notices appear in all
COMMENT  copies and that both those copyright notices and this permission
COMMENT  notice appear in supporting documentation, and that the names of
COMMENT  Adobe Systems and Digital Equipment Corporation not be used in
COMMENT  advertising or publicity pertaining to distribution of the software
COMMENT  without specific, written prior permission.  Adobe Systems and
COMMENT  Digital Equipment Corporation make no representations about the
COMMENT  suitability of this software for any purpose.  It is provided "as
COMMENT  is" without express or implied warranty.
COMMENT -
STARTPROPERTIES 32
FOUNDRY "Adobe"
FAMILY_NAME "Helvetica"
WEIGHT_NAME "Medium"
SLANT "O"
SETWIDTH_NAME "Normal"
ADD_STYLE_NAME ""
PIXEL_SIZE 14
POINT_SIZE 140
RESOLUTION_X 75
RESOLUTION_Y 75
SPACING "P"
AVERAGE_WIDTH 78
CHARSET_REGISTRY "windows"
CHARSET_ENCODING "1251"
CAP_HEIGHT 11
X_HEIGHT 8
FONT_ASCENT 13
FONT_DESCENT 3
FACE_NAME "Helvetica Oblique"
COPYRIGHT "Copyright (c) 1984, 1987 Adobe Systems Incorporated. All Rights Reserved. Copyright (c) 1988, 1991 Digital Equipment Corporation. All Rights Reserved."
NOTICE "Helvetica is a trademark of Linotype-Hell AG and/or its subsidiaries.  "
_DEC_DEVICE_FONTNAMES "PS=Helvetica-Oblique"
_DEC_PRODUCTINFO "DECwindows Fonts V2.2, 07-Nov-1991"
DEFAULT_CHAR 32
RELATIVE_SETWIDTH 50
RELATIVE_WEIGHT 50
CHARSET_COLLECTIONS "ASCII ISO8859-1 ADOBE-STANDARD"
FULL_NAME "Helvetica Oblique"
COPYRIGHT2 "Cyrillic and Euro glyphs copyright 2000 Dmitry Yu. Bolkhovityanov, bolkhov@inp.nsk.su"
SOURCEDATE "Mon Jul 17 11:56:45 2000"
PKGVERSION "1.1"
ASSEMBLER "cvtbdf.pl (Linux)"
ENDPROPERTIES
CHARS 244
STARTCHAR space
ENCODING 32
SWIDTH 278 0
DWIDTH 4 0
BBX 0 0 0 0
BITMAP
ENDCHAR
STARTCHAR exclam
ENCODING 33
SWIDTH 278 0
DWIDTH 4 0
BBX 4 11 1 0
BITMAP
10
10
20
20
20
40
40
40
00
80
80
ENDCHAR
STARTCHAR quotedbl
ENCODING 34
SWIDTH 355 0
DWIDTH 5 0
BBX 4 3 2 8
BITMAP
50
50
A0
ENDCHAR
STARTCHAR numbersign
ENCODING 35
SWIDTH 556 0
DWIDTH 9 0
BBX 9 10 0 0
BITMAP
0900
0900
1200
7F80
1200
2400
FE00
2400
4800
4800
ENDCHAR
STARTCHAR dollar
ENCODING 36
SWIDTH 556 0
DWIDTH 8 0
BBX 8 13 0 -2
BITMAP
04
1E
25
25
28
18
0C
12
92
94
78
20
20
ENDCHAR
STARTCHAR percent
ENCODING 37
SWIDTH 889 0
DWIDTH 12 0
BBX 9 10 2 0
BITMAP
7080
8900
8A00
7400
0400
0800
1700
2880
4880
8700
ENDCHAR
STARTCHAR ampersand
ENCODING 38
SWIDTH 667 0
DWIDTH 10 0
BBX 8 10 1 0
BITMAP
1C
24
24
18
31
49
86
84
8A
71
ENDCHAR
STARTCHAR quotesingle
ENCODING 39
SWIDTH 191 0
DWIDTH 3 0
BBX 2 3 2 8
BITMAP
40
40
80
ENDCHAR
STARTCHAR parenleft
ENCODING 40
SWIDTH 333 0
DWIDTH 5 0
BBX 5 14 1 -3
BITMAP
08
10
20
20
40
40
80
80
80
80
80
80
40
40
ENDCHAR
STARTCHAR parenright
ENCODING 41
SWIDTH 333 0
DWIDTH 5 0
BBX 5 14 0 -3
BITMAP
10
10
08
08
08
08
08
08
10
10
20
20
40
80
ENDCHAR
STARTCHAR asterisk
ENCODING 42
SWIDTH 389 0
DWIDTH 8 0
BBX 6 5 3 6
BITMAP
10
54
78
A8
20
ENDCHAR
STARTCHAR plus
ENCODING 43
SWIDTH 584 0
DWIDTH 9 0
BBX 7 7 1 1
BITMAP
08
08
10
FE
10
20
20
ENDCHAR
STARTCHAR comma
ENCODING 44
SWIDTH 278 0
DWIDTH 3 0
BBX 2 4 0 -2
BITMAP
40
40
40
80
ENDCHAR
STARTCHAR minus
ENCODING 45
SWIDTH 584 0
DWIDTH 9 0
BBX 7 1 1 4
BITMAP
FE
ENDCHAR
STARTCHAR period
ENCODING 46
SWIDTH 278 0
DWIDTH 3 0
BBX 1 2 1 0
BITMAP
80
80
ENDCHAR
STARTCHAR slash
ENCODING 47
SWIDTH 278 0
DWIDTH 4 0
BBX 5 11 0 0
BITMAP
08
08
10
10
20
20
20
40
40
80
80
ENDCHAR
STARTCHAR zero
ENCODING 48
SWIDTH 556 0
DWIDTH 8 0
BBX 9 10 0 0
BITMAP
0F00
1080
2100
2100
4200
4200
4200
8400
8400
7800
ENDCHAR
STARTCHAR one
ENCODING 49
SWIDTH 556 0
DWIDTH 8 0
BBX 4 10 3 0
BITMAP
10
F0
20
20
40
40
40
80
80
80
ENDCHAR
STARTCHAR two
ENCODING 50
SWIDTH 556 0
DWIDTH 8 0
BBX 8 10 0 0
BITMAP
1E
21
21
02
0C
10
60
80
80
FC
ENDCHAR
STARTCHAR three
ENCODING 51
SWIDTH 556 0
DWIDTH 8 0
BBX 8 10 0 0
BITMAP
1E
21
01
02
1C
02
02
84
84
78
ENDCHAR
STARTCHAR four
ENCODING 52
SWIDTH 556 0
DWIDTH 8 0
BBX 7 10 1 0
BITMAP
06
0A
14
24
48
88
FC
10
20
20
ENDCHAR
STARTCHAR five
ENCODING 53
SWIDTH 556 0
DWIDTH 8 0
BBX 8 10 0 0
BITMAP
1F
10
20
3C
02
02
02
84
84
78
ENDCHAR
STARTCHAR six
ENCODING 54
SWIDTH 556 0
DWIDTH 8 0
BBX 8 10 0 0
BITMAP
0F
11
20
20
5C
62
42
82
84
78
ENDCHAR
STARTCHAR seven
ENCODING 55
SWIDTH 556 0
DWIDTH 8 0
BBX 7 10 2 0
BITMAP
7E
04
08
10
20
20
40
40
80
80
ENDCHAR
STARTCHAR eight
ENCODING 56
SWIDTH 556 0
DWIDTH 8 0
BBX 8 10 0 0
BITMAP
1E
21
21
12
3C
42
82
82
84
78
ENDCHAR
STARTCHAR nine
ENCODING 57
SWIDTH 556 0
DWIDTH 8 0
BBX 8 10 0 0
BITMAP
0E
11
21
21
22
1E
02
84
84
78
ENDCHAR
STARTCHAR colon
ENCODING 58
SWIDTH 278 0
DWIDTH 4 0
BBX 3 8 1 0
BITMAP
20
20
00
00
00
00
80
80
ENDCHAR
STARTCHAR semicolon
ENCODING 59
SWIDTH 278 0
DWIDTH 4 0
BBX 4 10 0 -2
BITMAP
10
10
00
00
00
00
40
40
40
80
ENDCHAR
STARTCHAR less
ENCODING 60
SWIDTH 584 0
DWIDTH 9 0
BBX 7 5 1 2
BITMAP
06
38
C0
30
0C
ENDCHAR
STARTCHAR equal
ENCODING 61
SWIDTH 584 0
DWIDTH 9 0
BBX 7 3 1 3
BITMAP
7E
00
FC
ENDCHAR
STARTCHAR greater
ENCODING 62
SWIDTH 584 0
DWIDTH 9 0
BBX 7 5 1 2
BITMAP
60
18
06
38
C0
ENDCHAR
STARTCHAR question
ENCODING 63
SWIDTH 556 0
DWIDTH 8 0
BBX 6 11 2 0
BITMAP
38
44
84
84
08
10
20
40
00
80
80
ENDCHAR
STARTCHAR at
ENCODING 64
SWIDTH 1015 0
DWIDTH 13 0
BBX 12 12 1 -1
BITMAP
07C0
1820
2010
4750
4890
9120
9120
9340
9D80
8000
4000
3F00
ENDCHAR
STARTCHAR A
ENCODING 65
SWIDTH 667 0
DWIDTH 11 0
BBX 9 11 1 0
BITMAP
0200
0500
0900
0900
1100
1100
2100
7F80
4080
8080
8080
ENDCHAR
STARTCHAR B
ENCODING 66
SWIDTH 667 0
DWIDTH 10 0
BBX 9 11 1 0
BITMAP
1F00
1080
2080
2080
2100
7E00
4100
4100
8100
8200
FC00
ENDCHAR
STARTCHAR C
ENCODING 67
SWIDTH 722 0
DWIDTH 10 0
BBX 9 11 1 0
BITMAP
0F00
1080
2080
4000
4000
8000
8000
8100
8200
C600
3800
ENDCHAR
STARTCHAR D
ENCODING 68
SWIDTH 722 0
DWIDTH 10 0
BBX 9 11 1 0
BITMAP
1E00
1100
2100
2080
2080
4080
4100
4100
8200
8C00
F000
ENDCHAR
STARTCHAR E
ENCODING 69
SWIDTH 667 0
DWIDTH 9 0
BBX 10 11 1 0
BITMAP
1FC0
1000
1000
2000
2000
7E00
4000
4000
8000
8000
FE00
ENDCHAR
STARTCHAR F
ENCODING 70
SWIDTH 611 0
DWIDTH 9 0
BBX 10 11 1 0
BITMAP
1FC0
1000
2000
2000
2000
7E00
4000
4000
8000
8000
8000
ENDCHAR
STARTCHAR G
ENCODING 71
SWIDTH 778 0
DWIDTH 11 0
BBX 10 11 1 0
BITMAP
0780
1840
2040
4000
4000
8780
8080
8100
8100
4700
3900
ENDCHAR
STARTCHAR H
ENCODING 72
SWIDTH 722 0
DWIDTH 11 0
BBX 11 11 1 0
BITMAP
1020
1020
2040
2040
2040
7F80
4080
4080
8100
8100
8100
ENDCHAR
STARTCHAR I
ENCODING 73
SWIDTH 278 0
DWIDTH 5 0
BBX 4 11 1 0
BITMAP
10
10
20
20
20
40
40
40
80
80
80
ENDCHAR
STARTCHAR J
ENCODING 74
SWIDTH 500 0
DWIDTH 9 0
BBX 9 11 1 0
BITMAP
0080
0080
0100
0100
0100
0200
0200
8200
8400
8400
7800
ENDCHAR
STARTCHAR K
ENCODING 75
SWIDTH 667 0
DWIDTH 10 0
BBX 9 11 1 0
BITMAP
1080
1100
2200
2400
2800
7800
4800
4400
8200
8200
8100
ENDCHAR
STARTCHAR L
ENCODING 76
SWIDTH 556 0
DWIDTH 8 0
BBX 6 11 1 0
BITMAP
10
10
20
20
20
40
40
40
80
80
FC
ENDCHAR
STARTCHAR M
ENCODING 77
SWIDTH 833 0
DWIDTH 14 0
BBX 14 11 1 0
BITMAP
180C
1814
2828
2828
2848
4890
4890
4510
8520
8620
8420
ENDCHAR
STARTCHAR N
ENCODING 78
SWIDTH 722 0
DWIDTH 11 0
BBX 11 11 1 0
BITMAP
1820
1820
2840
2440
2440
4480
4480
4480
8500
8300
8300
ENDCHAR
STARTCHAR O
ENCODING 79
SWIDTH 778 0
DWIDTH 11 0
BBX 10 11 1 0
BITMAP
0700
1880
20C0
4040
4040
8080
8080
8180
8200
C600
3800
ENDCHAR
STARTCHAR P
ENCODING 80
SWIDTH 667 0
DWIDTH 9 0
BBX 9 11 1 0
BITMAP
1F00
1080
2080
2080
2100
7E00
4000
4000
8000
8000
8000
ENDCHAR
STARTCHAR Q
ENCODING 81
SWIDTH 778 0
DWIDTH 11 0
BBX 10 11 1 0
BITMAP
0700
1880
20C0
4040
4040
8080
8880
8580
8200
C700
3880
ENDCHAR
STARTCHAR R
ENCODING 82
SWIDTH 722 0
DWIDTH 10 0
BBX 9 11 1 0
BITMAP
1F00
1080
2080
2080
2100
7E00
4100
4100
8100
8200
8200
ENDCHAR
STARTCHAR S
ENCODING 83
SWIDTH 667 0
DWIDTH 9 0
BBX 9 11 0 0
BITMAP
0700
1880
2080
2000
1800
0600
0100
0100
8200
4600
3800
ENDCHAR
STARTCHAR T
ENCODING 84
SWIDTH 611 0
DWIDTH 8 0
BBX 9 11 2 0
BITMAP
FF80
0800
1000
1000
1000
2000
2000
2000
4000
4000
4000
ENDCHAR
STARTCHAR U
ENCODING 85
SWIDTH 722 0
DWIDTH 11 0
BBX 11 11 1 0
BITMAP
1020
1020
2040
2040
2040
4080
4080
4080
8100
C300
7E00
ENDCHAR
STARTCHAR V
ENCODING 86
SWIDTH 667 0
DWIDTH 11 0
BBX 8 11 4 0
BITMAP
81
81
82
82
84
84
88
90
90
60
40
ENDCHAR
STARTCHAR W
ENCODING 87
SWIDTH 944 0
DWIDTH 14 0
BBX 12 11 3 0
BITMAP
8410
8410
8C20
8C20
9440
9440
A480
A480
C300
C300
8200
ENDCHAR
STARTCHAR X
ENCODING 88
SWIDTH 667 0
DWIDTH 10 0
BBX 11 11 0 0
BITMAP
1020
1040
0880
0900
0600
0400
0A00
1200
2100
4100
8080
ENDCHAR
STARTCHAR Y
ENCODING 89
SWIDTH 667 0
DWIDTH 9 0
BBX 9 11 2 0
BITMAP
8080
8100
8200
4200
4400
4800
3000
2000
2000
4000
4000
ENDCHAR
STARTCHAR Z
ENCODING 90
SWIDTH 611 0
DWIDTH 9 0
BBX 10 11 0 0
BITMAP
1FC0
0040
0080
0100
0200
0400
0800
1000
2000
4000
FF00
ENDCHAR
STARTCHAR bracketleft
ENCODING 91
SWIDTH 278 0
DWIDTH 5 0
BBX 7 14 0 -3
BITMAP
0E
08
10
10
10
20
20
20
40
40
40
80
80
E0
ENDCHAR
STARTCHAR backslash
ENCODING 92
SWIDTH 278 0
DWIDTH 6 0
BBX 3 11 2 0
BITMAP
80
80
80
40
40
40
40
20
20
20
20
ENDCHAR
STARTCHAR bracketright
ENCODING 93
SWIDTH 278 0
DWIDTH 5 0
BBX 7 14 -1 -3
BITMAP
0E
02
04
04
04
08
08
08
10
10
10
20
20
E0
ENDCHAR
STARTCHAR asciicircum
ENCODING 94
SWIDTH 469 0
DWIDTH 7 0
BBX 6 5 2 6
BITMAP
08
14
24
44
84
ENDCHAR
STARTCHAR underscore
ENCODING 95
SWIDTH 556 0
DWIDTH 8 0
BBX 8 1 -1 -3
BITMAP
FF
ENDCHAR
STARTCHAR grave
ENCODING 96
SWIDTH 333 0
DWIDTH 4 0
BBX 2 2 3 9
BITMAP
80
40
ENDCHAR
STARTCHAR a
ENCODING 97
SWIDTH 556 0
DWIDTH 8 0
BBX 7 8 0 0
BITMAP
1C
22
02
3C
44
88
98
EC
ENDCHAR
STARTCHAR b
ENCODING 98
SWIDTH 556 0
DWIDTH 8 0
BBX 7 11 0 0
BITMAP
10
10
20
2C
32
42
42
42
84
C4
B8
ENDCHAR
STARTCHAR c
ENCODING 99
SWIDTH 500 0
DWIDTH 7 0
BBX 7 8 0 0
BITMAP
1C
22
40
40
80
84
88
70
ENDCHAR
STARTCHAR d
ENCODING 100
SWIDTH 556 0
DWIDTH 8 0
BBX 9 11 0 0
BITMAP
0080
0080
0100
1D00
2500
4200
4200
8200
8400
8C00
7400
ENDCHAR
STARTCHAR e
ENCODING 101
SWIDTH 556 0
DWIDTH 8 0
BBX 7 8 0 0
BITMAP
1C
22
42
7E
80
80
8C
70
ENDCHAR
STARTCHAR f
ENCODING 102
SWIDTH 278 0
DWIDTH 4 0
BBX 7 11 0 0
BITMAP
0E
10
20
F8
20
40
40
40
80
80
80
ENDCHAR
STARTCHAR g
ENCODING 103
SWIDTH 556 0
DWIDTH 8 0
BBX 9 11 -1 -3
BITMAP
0E80
1180
2100
2100
4100
4200
4600
3A00
0400
8400
7800
ENDCHAR
STARTCHAR h
ENCODING 104
SWIDTH 556 0
DWIDTH 8 0
BBX 7 11 0 0
BITMAP
10
10
20
2C
32
42
44
44
84
88
88
ENDCHAR
STARTCHAR i
ENCODING 105
SWIDTH 222 0
DWIDTH 4 0
BBX 4 11 0 0
BITMAP
10
10
00
20
20
40
40
40
80
80
80
ENDCHAR
STARTCHAR j
ENCODING 106
SWIDTH 222 0
DWIDTH 3 0
BBX 7 14 -3 -3
BITMAP
02
02
00
04
04
08
08
08
10
10
10
10
20
C0
ENDCHAR
STARTCHAR k
ENCODING 107
SWIDTH 500 0
DWIDTH 7 0
BBX 7 11 0 0
BITMAP
10
10
20
22
24
58
60
50
90
88
84
ENDCHAR
STARTCHAR l
ENCODING 108
SWIDTH 222 0
DWIDTH 3 0
BBX 4 11 0 0
BITMAP
10
10
20
20
20
40
40
40
80
80
80
ENDCHAR
STARTCHAR m
ENCODING 109
SWIDTH 833 0
DWIDTH 11 0
BBX 11 8 0 0
BITMAP
2CC0
3320
4420
4440
4440
8880
8880
8880
ENDCHAR
STARTCHAR n
ENCODING 110
SWIDTH 556 0
DWIDTH 8 0
BBX 7 8 0 0
BITMAP
2C
32
42
44
44
84
88
88
ENDCHAR
STARTCHAR o
ENCODING 111
SWIDTH 556 0
DWIDTH 8 0
BBX 7 8 0 0
BITMAP
1C
22
42
42
84
84
88
70
ENDCHAR
STARTCHAR p
ENCODING 112
SWIDTH 556 0
DWIDTH 8 0
BBX 8 11 -1 -3
BITMAP
16
19
21
21
21
42
62
5C
40
80
80
ENDCHAR
STARTCHAR q
ENCODING 113
SWIDTH 556 0
DWIDTH 8 0
BBX 8 11 0 -3
BITMAP
1D
23
42
42
82
84
8C
74
04
08
08
ENDCHAR
STARTCHAR r
ENCODING 114
SWIDTH 333 0
DWIDTH 5 0
BBX 6 8 0 0
BITMAP
2C
30
40
40
40
80
80
80
ENDCHAR
STARTCHAR s
ENCODING 115
SWIDTH 500 0
DWIDTH 7 0
BBX 7 8 0 0
BITMAP
1C
22
40
38
04
84
88
70
ENDCHAR
STARTCHAR t
ENCODING 116
SWIDTH 278 0
DWIDTH 4 0
BBX 5 10 0 0
BITMAP
10
10
78
20
40
40
40
80
80
60
ENDCHAR
STARTCHAR u
ENCODING 117
SWIDTH 556 0
DWIDTH 8 0
BBX 7 8 0 0
BITMAP
22
22
42
44
44
84
98
68
ENDCHAR
STARTCHAR v
ENCODING 118
SWIDTH 500 0
DWIDTH 7 0
BBX 6 8 1 0
BITMAP
84
88
88
90
90
A0
A0
C0
ENDCHAR
STARTCHAR w
ENCODING 119
SWIDTH 722 0
DWIDTH 10 0
BBX 9 8 1 0
BITMAP
8880
8880
9900
9900
AA00
AA00
CC00
8800
ENDCHAR
STARTCHAR x
ENCODING 120
SWIDTH 500 0
DWIDTH 7 0
BBX 8 8 -1 0
BITMAP
21
12
14
08
18
24
44
82
ENDCHAR
STARTCHAR y
ENCODING 121
SWIDTH 500 0
DWIDTH 7 0
BBX 7 11 0 -3
BITMAP
42
44
44
48
48
50
70
20
40
40
80
ENDCHAR
STARTCHAR z
ENCODING 122
SWIDTH 500 0
DWIDTH 7 0
BBX 8 8 -1 0
BITMAP
3F
01
06
08
30
40
80
FC
ENDCHAR
STARTCHAR braceleft
ENCODING 123
SWIDTH 334 0
DWIDTH 5 0
BBX 6 14 1 -3
BITMAP
0C
10
20
20
20
40
80
40
40
40
80
80
80
60
ENDCHAR
STARTCHAR bar
ENCODING 124
SWIDTH 260 0
DWIDTH 3 0
BBX 5 14 0 -3
BITMAP
08
08
10
10
10
20
20
20
40
40
40
40
80
80
ENDCHAR
STARTCHAR braceright
ENCODING 125
SWIDTH 334 0
DWIDTH 5 0
BBX 6 14 -1 -3
BITMAP
18
04
04
08
08
08
04
08
10
10
10
20
20
C0
ENDCHAR
STARTCHAR asciitilde
ENCODING 126
SWIDTH 584 0
DWIDTH 8 0
BBX 6 3 2 3
BITMAP
64
B4
98
ENDCHAR
STARTCHAR afii10051
ENCODING 128
SWIDTH 891 0
DWIDTH 13 0
BBX 10 11 2 0
BITMAP
FF80
0800
1000
1000
1000
3F80
20C0
2040
40C0
4180
4600
ENDCHAR
STARTCHAR afii10052
ENCODING 129
SWIDTH 617 0
DWIDTH 9 0
BBX 10 14 1 0
BITMAP
0100
0200
0000
1FC0
1000
2000
2000
2000
4000
4000
4000
8000
8000
8000
ENDCHAR
STARTCHAR quotesinglbase
ENCODING 130
SWIDTH 222 0
DWIDTH 4 0
BBX 2 3 1 -2
BITMAP
C0
40
80
ENDCHAR
STARTCHAR afii10100
ENCODING 131
SWIDTH 411 0
DWIDTH 6 0
BBX 7 11 0 0
BITMAP
04
08
00
3E
20
40
40
40
80
80
80
ENDCHAR
STARTCHAR quotedblbase
ENCODING 132
SWIDTH 333 0
DWIDTH 7 0
BBX 5 3 1 -2
BITMAP
D8
48
90
ENDCHAR
STARTCHAR ellipsis
ENCODING 133
SWIDTH 1000 0
DWIDTH 15 0
BBX 9 2 3 0
BITMAP
8880
8880
ENDCHAR
STARTCHAR dagger
ENCODING 134
SWIDTH 556 0
DWIDTH 8 0
BBX 7 14 2 -3
BITMAP
08
08
10
10
FE
20
20
20
40
40
40
40
80
80
ENDCHAR
STARTCHAR daggerdbl
ENCODING 135
SWIDTH 556 0
DWIDTH 8 0
BBX 9 14 0 -3
BITMAP
0200
0200
0400
0400
3F80
0800
0800
0800
1000
FE00
1000
1000
2000
2000
ENDCHAR
STARTCHAR Euro
ENCODING 136
SWIDTH 685 0
DWIDTH 10 0
BBX 10 11 0 0
BITMAP
0780
0840
1040
2000
7E00
4000
FC00
4080
4100
6300
1C00
ENDCHAR
STARTCHAR perthousand
ENCODING 137
SWIDTH 1000 0
DWIDTH 14 0
BBX 11 11 1 0
BITMAP
0040
3080
4900
4A00
3400
0400
0800
16C0
2920
4920
86C0
ENDCHAR
STARTCHAR afii10058
ENCODING 138
SWIDTH 1028 0
DWIDTH 15 0
BBX 14 11 0 0
BITMAP
07E0
0420
0840
0840
0840
10F8
1084
1084
2104
4108
81F0
ENDCHAR
STARTCHAR guilsinglleft
ENCODING 139
SWIDTH 333 0
DWIDTH 5 0
BBX 3 4 1 2
BITMAP
20
40
80
40
ENDCHAR
STARTCHAR afii10059
ENCODING 140
SWIDTH 1028 0
DWIDTH 15 0
BBX 13 11 1 0
BITMAP
1040
1040
2080
2080
2080
7FF0
4108
4108
8208
8210
83E0
ENDCHAR
STARTCHAR afii10061
ENCODING 141
SWIDTH 685 0
DWIDTH 10 0
BBX 9 14 1 0
BITMAP
0100
0200
0000
1080
1100
2200
2400
2800
7800
4800
4400
8200
8200
8100
ENDCHAR
STARTCHAR afii10060
ENCODING 142
SWIDTH 891 0
DWIDTH 13 0
BBX 10 11 2 0
BITMAP
FF80
0800
1000
1000
1000
3F80
20C0
2040
4040
4080
4080
ENDCHAR
STARTCHAR afii10145
ENCODING 143
SWIDTH 754 0
DWIDTH 11 0
BBX 11 13 1 -2
BITMAP
1020
1020
2040
2040
2040
4080
4080
4080
8100
8100
FF00
1000
1000
ENDCHAR
STARTCHAR afii10099
ENCODING 144
SWIDTH 548 0
DWIDTH 8 0
BBX 7 13 0 -2
BITMAP
10
7E
20
2C
32
42
44
44
84
88
88
08
30
ENDCHAR
STARTCHAR quoteleft
ENCODING 145
SWIDTH 222 0
DWIDTH 3 0
BBX 2 3 2 8
BITMAP
40
80
C0
ENDCHAR
STARTCHAR quoteright
ENCODING 146
SWIDTH 222 0
DWIDTH 3 0
BBX 2 3 3 8
BITMAP
C0
40
80
ENDCHAR
STARTCHAR quotedblleft
ENCODING 147
SWIDTH 333 0
DWIDTH 6 0
BBX 5 3 2 8
BITMAP
48
90
D8
ENDCHAR
STARTCHAR quotedblright
ENCODING 148
SWIDTH 333 0
DWIDTH 6 0
BBX 5 3 3 8
BITMAP
D8
48
90
ENDCHAR
STARTCHAR bullet
ENCODING 149
SWIDTH 350 0
DWIDTH 6 0
BBX 4 4 2 3
BITMAP
60
F0
F0
60
ENDCHAR
STARTCHAR endash
ENCODING 150
SWIDTH 556 0
DWIDTH 8 0
BBX 8 1 0 4
BITMAP
FF
ENDCHAR
STARTCHAR emdash
ENCODING 151
SWIDTH 1000 0
DWIDTH 14 0
BBX 14 1 0 4
BITMAP
FFFC
ENDCHAR
STARTCHAR trademark
ENCODING 153
SWIDTH 1000 0
DWIDTH 13 0
BBX 11 6 3 5
BITMAP
FA20
2360
22A0
4540
4540
4540
ENDCHAR
STARTCHAR afii10106
ENCODING 154
SWIDTH 754 0
DWIDTH 11 0
BBX 11 8 -1 0
BITMAP
0F00
0900
1100
13C0
1220
2220
4440
8780
ENDCHAR
STARTCHAR guilsinglright
ENCODING 155
SWIDTH 333 0
DWIDTH 5 0
BBX 3 4 1 2
BITMAP
40
20
40
80
ENDCHAR
STARTCHAR afii10107
ENCODING 156
SWIDTH 754 0
DWIDTH 11 0
BBX 10 8 0 0
BITMAP
2200
2200
4200
7F80
4440
8440
8880
8F00
ENDCHAR
STARTCHAR afii10109
ENCODING 157
SWIDTH 480 0
DWIDTH 7 0
BBX 7 11 0 0
BITMAP
04
08
00
22
24
58
60
50
90
88
84
ENDCHAR
STARTCHAR afii10108
ENCODING 158
SWIDTH 548 0
DWIDTH 8 0
BBX 7 11 0 0
BITMAP
10
7E
20
2C
32
42
44
44
84
88
88
ENDCHAR
STARTCHAR afii10193
ENCODING 159
SWIDTH 548 0
DWIDTH 8 0
BBX 7 10 0 -2
BITMAP
22
22
42
44
44
84
88
F8
20
20
ENDCHAR
STARTCHAR space
ENCODING 160
SWIDTH 278 0
DWIDTH 4 0
BBX 0 0 0 0
BITMAP
ENDCHAR
STARTCHAR afii10062
ENCODING 161
SWIDTH 754 0
DWIDTH 11 0
BBX 8 14 4 0
BITMAP
22
3C
00
81
81
82
82
44
44
48
50
30
20
C0
ENDCHAR
STARTCHAR afii10110
ENCODING 162
SWIDTH 480 0
DWIDTH 7 0
BBX 7 14 0 -3
BITMAP
14
18
00
42
44
44
48
48
50
70
20
40
40
80
ENDCHAR
STARTCHAR afii10057
ENCODING 163
SWIDTH 500 0
DWIDTH 9 0
BBX 9 11 1 0
BITMAP
0080
0080
0100
0100
0100
0200
0200
8200
8400
8400
7800
ENDCHAR
STARTCHAR currency
ENCODING 164
SWIDTH 556 0
DWIDTH 8 0
BBX 7 6 1 2
BITMAP
42
3C
48
48
78
84
ENDCHAR
STARTCHAR afii10050
ENCODING 165
SWIDTH 617 0
DWIDTH 9 0
BBX 11 13 1 0
BITMAP
0020
0040
1FC0
1000
2000
2000
2000
4000
4000
4000
8000
8000
8000
ENDCHAR
STARTCHAR brokenbar
ENCODING 166
SWIDTH 260 0
DWIDTH 3 0
BBX 4 12 0 -1
BITMAP
10
10
10
20
20
00
00
40
40
80
80
80
ENDCHAR
STARTCHAR section
ENCODING 167
SWIDTH 556 0
DWIDTH 8 0
BBX 8 14 0 -3
BITMAP
0E
11
11
08
1C
26
42
42
64
38
10
88
88
70
ENDCHAR
STARTCHAR afii10023
ENCODING 168
SWIDTH 667 0
DWIDTH 9 0
BBX 10 13 1 0
BITMAP
06C0
0000
1FC0
1000
1000
2000
2000
7E00
4000
4000
8000
8000
FE00
ENDCHAR
STARTCHAR copyright
ENCODING 169
SWIDTH 737 0
DWIDTH 12 0
BBX 11 10 1 0
BITMAP
0F00
30C0
4640
4920
9020
9020
9240
4C40
6180
1E00
ENDCHAR
STARTCHAR afii10053
ENCODING 170
SWIDTH 685 0
DWIDTH 10 0
BBX 9 11 1 0
BITMAP
0F00
1080
2080
4000
4000
F800
8000
8100
8200
C600
3800
ENDCHAR
STARTCHAR guillemotleft
ENCODING 171
SWIDTH 556 0
DWIDTH 8 0
BBX 6 4 1 2
BITMAP
24
48
90
48
ENDCHAR
STARTCHAR logicalnot
ENCODING 172
SWIDTH 584 0
DWIDTH 9 0
BBX 7 4 1 2
BITMAP
FE
02
04
04
ENDCHAR
STARTCHAR hyphen
ENCODING 173
SWIDTH 333 0
DWIDTH 6 0
BBX 5 1 1 4
BITMAP
F8
ENDCHAR
STARTCHAR registered
ENCODING 174
SWIDTH 737 0
DWIDTH 12 0
BBX 11 10 1 0
BITMAP
0F00
30C0
4E40
4920
8920
9E20
9440
5240
6180
1E00
ENDCHAR
STARTCHAR afii10056
ENCODING 175
SWIDTH 278 0
DWIDTH 5 0
BBX 6 13 1 0
BITMAP
6C
00
10
10
20
20
20
40
40
40
80
80
80
ENDCHAR
STARTCHAR degree
ENCODING 176
SWIDTH 400 0
DWIDTH 6 0
BBX 4 4 2 6
BITMAP
60
90
90
60
ENDCHAR
STARTCHAR plusminus
ENCODING 177
SWIDTH 584 0
DWIDTH 9 0
BBX 8 9 0 0
BITMAP
04
04
08
7F
08
10
10
00
FE
ENDCHAR
STARTCHAR afii10055
ENCODING 178
SWIDTH 278 0
DWIDTH 5 0
BBX 4 11 1 0
BITMAP
10
10
20
20
20
40
40
40
80
80
80
ENDCHAR
STARTCHAR afii10103
ENCODING 179
SWIDTH 222 0
DWIDTH 4 0
BBX 4 11 0 0
BITMAP
10
10
00
20
20
40
40
40
80
80
80
ENDCHAR
STARTCHAR afii10098
ENCODING 180
SWIDTH 411 0
DWIDTH 6 0
BBX 8 10 0 0
BITMAP
01
02
3E
20
40
40
40
80
80
80
ENDCHAR
STARTCHAR mu
ENCODING 181
SWIDTH 556 0
DWIDTH 8 0
BBX 8 11 -1 -3
BITMAP
11
11
21
22
22
42
4C
74
80
80
80
ENDCHAR
STARTCHAR paragraph
ENCODING 182
SWIDTH 537 0
DWIDTH 8 0
BBX 8 14 2 -3
BITMAP
1F
7A
F4
F4
F4
E8
68
28
50
50
50
A0
A0
A0
ENDCHAR
STARTCHAR periodcentered
ENCODING 183
SWIDTH 278 0
DWIDTH 4 0
BBX 2 1 1 4
BITMAP
C0
ENDCHAR
STARTCHAR afii10071
ENCODING 184
SWIDTH 556 0
DWIDTH 8 0
BBX 7 10 0 0
BITMAP
36
00
1C
22
42
7E
80
80
8C
70
ENDCHAR
STARTCHAR afii61352
ENCODING 185
SWIDTH 1028 0
DWIDTH 15 0
BBX 14 11 1 0
BITMAP
1820
1820
2840
2440
2458
44A4
44A4
4498
8500
8378
8300
ENDCHAR
STARTCHAR afii10101
ENCODING 186
SWIDTH 480 0
DWIDTH 7 0
BBX 7 8 0 0
BITMAP
1C
22
40
70
80
84
88
70
ENDCHAR
STARTCHAR guillemotright
ENCODING 187
SWIDTH 556 0
DWIDTH 8 0
BBX 6 4 1 2
BITMAP
48
24
48
90
ENDCHAR
STARTCHAR afii10105
ENCODING 188
SWIDTH 222 0
DWIDTH 3 0
BBX 7 14 -3 -3
BITMAP
02
02
00
04
04
08
08
08
10
10
10
10
20
C0
ENDCHAR
STARTCHAR afii10054
ENCODING 189
SWIDTH 667 0
DWIDTH 9 0
BBX 9 11 0 0
BITMAP
0700
1880
2080
2000
1800
0600
0100
0100
8200
4600
3800
ENDCHAR
STARTCHAR afii10102
ENCODING 190
SWIDTH 500 0
DWIDTH 7 0
BBX 7 8 0 0
BITMAP
1C
22
40
38
04
84
88
70
ENDCHAR
STARTCHAR afii10104
ENCODING 191
SWIDTH 278 0
DWIDTH 3 0
BBX 5 10 0 0
BITMAP
D8
00
20
20
40
40
40
80
80
80
ENDCHAR
STARTCHAR afii10017
ENCODING 192
SWIDTH 754 0
DWIDTH 11 0
BBX 9 11 1 0
BITMAP
0200
0500
0900
0900
1100
1100
2100
7F80
4080
8080
8080
ENDCHAR
STARTCHAR afii10018
ENCODING 193
SWIDTH 685 0
DWIDTH 10 0
BBX 10 11 1 0
BITMAP
1FC0
1000
2000
2000
2000
7E00
4100
4100
8100
8200
FC00
ENDCHAR
STARTCHAR afii10019
ENCODING 194
SWIDTH 685 0
DWIDTH 10 0
BBX 9 11 1 0
BITMAP
1F00
1080
2080
2080
2100
7E00
4100
4100
8100
8200
FC00
ENDCHAR
STARTCHAR afii10020
ENCODING 195
SWIDTH 617 0
DWIDTH 9 0
BBX 10 11 1 0
BITMAP
1FC0
1000
2000
2000
2000
4000
4000
4000
8000
8000
8000
ENDCHAR
STARTCHAR afii10021
ENCODING 196
SWIDTH 754 0
DWIDTH 11 0
BBX 13 13 -1 -2
BITMAP
03F8
0208
0410
0410
0410
0820
0820
0820
1040
2040
7FE0
8040
8040
ENDCHAR
STARTCHAR afii10022
ENCODING 197
SWIDTH 617 0
DWIDTH 9 0
BBX 10 11 1 0
BITMAP
1FC0
1000
1000
2000
2000
7E00
4000
4000
8000
8000
FE00
ENDCHAR
STARTCHAR afii10024
ENCODING 198
SWIDTH 960 0
DWIDTH 14 0
BBX 15 11 0 0
BITMAP
0842
0844
0888
0490
04A0
07C0
0D40
1120
2210
4210
8208
ENDCHAR
STARTCHAR afii10025
ENCODING 199
SWIDTH 685 0
DWIDTH 10 0
BBX 9 11 1 0
BITMAP
0F00
1080
0080
0080
0100
1E00
0100
0100
8100
8200
7C00
ENDCHAR
STARTCHAR afii10026
ENCODING 200
SWIDTH 754 0
DWIDTH 11 0
BBX 11 11 1 0
BITMAP
1060
10A0
2140
2140
2240
4480
4880
5080
9100
A100
C100
ENDCHAR
STARTCHAR afii10027
ENCODING 201
SWIDTH 754 0
DWIDTH 11 0
BBX 11 14 1 0
BITMAP
0440
0780
0000
1060
10A0
2140
2140
2240
4480
4880
5080
9100
A100
C100
ENDCHAR
STARTCHAR afii10028
ENCODING 202
SWIDTH 685 0
DWIDTH 10 0
BBX 9 11 1 0
BITMAP
1080
1100
2200
2400
2800
7800
4800
4400
8200
8200
8100
ENDCHAR
STARTCHAR afii10029
ENCODING 203
SWIDTH 754 0
DWIDTH 11 0
BBX 12 11 0 0
BITMAP
07F0
0410
0820
0820
0820
1040
1040
1040
2080
4080
8080
ENDCHAR
STARTCHAR afii10030
ENCODING 204
SWIDTH 960 0
DWIDTH 14 0
BBX 14 11 1 0
BITMAP
180C
1814
2828
2828
2848
4890
4890
4510
8520
8620
8420
ENDCHAR
STARTCHAR afii10031
ENCODING 205
SWIDTH 754 0
DWIDTH 11 0
BBX 11 11 1 0
BITMAP
1020
1020
2040
2040
2040
7F80
4080
4080
8100
8100
8100
ENDCHAR
STARTCHAR afii10032
ENCODING 206
SWIDTH 754 0
DWIDTH 11 0
BBX 10 11 1 0
BITMAP
0700
1880
20C0
4040
4040
8080
8080
8180
8200
C600
3800
ENDCHAR
STARTCHAR afii10033
ENCODING 207
SWIDTH 754 0
DWIDTH 11 0
BBX 11 11 1 0
BITMAP
1FE0
1020
2040
2040
2040
4080
4080
4080
8100
8100
8100
ENDCHAR
STARTCHAR afii10034
ENCODING 208
SWIDTH 617 0
DWIDTH 9 0
BBX 9 11 1 0
BITMAP
1F00
1080
2080
2080
2100
7E00
4000
4000
8000
8000
8000
ENDCHAR
STARTCHAR afii10035
ENCODING 209
SWIDTH 685 0
DWIDTH 10 0
BBX 9 11 1 0
BITMAP
0F00
1080
2080
4000
4000
8000
8000
8100
8200
C600
3800
ENDCHAR
STARTCHAR afii10036
ENCODING 210
SWIDTH 548 0
DWIDTH 8 0
BBX 9 11 2 0
BITMAP
FF80
0800
1000
1000
1000
2000
2000
2000
4000
4000
4000
ENDCHAR
STARTCHAR afii10037
ENCODING 211
SWIDTH 754 0
DWIDTH 11 0
BBX 8 11 4 0
BITMAP
81
81
82
82
44
44
48
50
30
20
C0
ENDCHAR
STARTCHAR afii10038
ENCODING 212
SWIDTH 754 0
DWIDTH 11 0
BBX 10 11 1 0
BITMAP
0200
1F80
6440
4440
8440
8840
8880
C980
7E00
1000
1000
ENDCHAR
STARTCHAR afii10039
ENCODING 213
SWIDTH 685 0
DWIDTH 10 0
BBX 11 11 0 0
BITMAP
1020
1040
0880
0900
0600
0400
0A00
1200
2100
4100
8080
ENDCHAR
STARTCHAR afii10040
ENCODING 214
SWIDTH 754 0
DWIDTH 11 0
BBX 11 13 1 -2
BITMAP
1020
1020
2040
2040
2040
4080
4080
4080
8100
8100
FF80
0100
0100
ENDCHAR
STARTCHAR afii10041
ENCODING 215
SWIDTH 754 0
DWIDTH 11 0
BBX 9 11 3 0
BITMAP
4080
4080
8100
8100
C100
7E00
0200
0200
0400
0400
0400
ENDCHAR
STARTCHAR afii10042
ENCODING 216
SWIDTH 960 0
DWIDTH 14 0
BBX 14 11 1 0
BITMAP
1084
1084
2108
2108
2108
4210
4210
4210
8420
8420
FFE0
ENDCHAR
STARTCHAR afii10043
ENCODING 217
SWIDTH 960 0
DWIDTH 14 0
BBX 14 13 1 -2
BITMAP
1084
1084
2108
2108
2108
4210
4210
4210
8420
8420
FFF0
0020
0020
ENDCHAR
STARTCHAR afii10044
ENCODING 218
SWIDTH 685 0
DWIDTH 10 0
BBX 8 11 1 0
BITMAP
70
10
20
20
20
7E
41
41
81
82
FC
ENDCHAR
STARTCHAR afii10045
ENCODING 219
SWIDTH 960 0
DWIDTH 14 0
BBX 14 11 1 0
BITMAP
1004
1004
2008
2008
2008
7E10
4110
4110
8120
8220
FC20
ENDCHAR
STARTCHAR afii10046
ENCODING 220
SWIDTH 685 0
DWIDTH 10 0
BBX 8 11 1 0
BITMAP
10
10
20
20
20
7E
41
41
81
82
FC
ENDCHAR
STARTCHAR afii10047
ENCODING 221
SWIDTH 754 0
DWIDTH 11 0
BBX 10 11 1 0
BITMAP
0F00
1080
2040
0040
0040
0F80
0080
8180
8200
C600
3800
ENDCHAR
STARTCHAR afii10048
ENCODING 222
SWIDTH 1028 0
DWIDTH 15 0
BBX 14 11 1 0
BITMAP
1070
1188
220C
2404
2404
7808
4808
4818
8820
8C60
8380
ENDCHAR
STARTCHAR afii10049
ENCODING 223
SWIDTH 685 0
DWIDTH 10 0
BBX 10 11 1 0
BITMAP
0FC0
1040
2080
2080
1080
1F00
2100
2100
4200
8200
8200
ENDCHAR
STARTCHAR afii10065
ENCODING 224
SWIDTH 548 0
DWIDTH 8 0
BBX 7 8 0 0
BITMAP
1C
22
02
3C
44
88
98
EC
ENDCHAR
STARTCHAR afii10066
ENCODING 225
SWIDTH 548 0
DWIDTH 8 0
BBX 9 12 0 0
BITMAP
0080
0700
0800
1000
2C00
3200
4200
4200
8400
8400
8800
7000
ENDCHAR
STARTCHAR afii10067
ENCODING 226
SWIDTH 480 0
DWIDTH 7 0
BBX 7 8 0 0
BITMAP
3C
22
44
78
44
84
88
F0
ENDCHAR
STARTCHAR afii10068
ENCODING 227
SWIDTH 411 0
DWIDTH 6 0
BBX 7 8 0 0
BITMAP
3E
20
40
40
40
80
80
80
ENDCHAR
STARTCHAR afii10069
ENCODING 228
SWIDTH 548 0
DWIDTH 8 0
BBX 9 10 -2 -2
BITMAP
0780
0480
0880
0900
0900
1100
2200
7F00
8200
8200
ENDCHAR
STARTCHAR afii10070
ENCODING 229
SWIDTH 548 0
DWIDTH 8 0
BBX 7 8 0 0
BITMAP
1C
22
42
7E
80
80
8C
70
ENDCHAR
STARTCHAR afii10072
ENCODING 230
SWIDTH 754 0
DWIDTH 11 0
BBX 12 8 -1 0
BITMAP
1110
0920
0AC0
0700
0A80
3480
4440
8420
ENDCHAR
STARTCHAR afii10073
ENCODING 231
SWIDTH 480 0
DWIDTH 7 0
BBX 7 8 0 0
BITMAP
1C
22
04
18
04
84
88
70
ENDCHAR
STARTCHAR afii10074
ENCODING 232
SWIDTH 548 0
DWIDTH 8 0
BBX 7 8 0 0
BITMAP
22
26
4A
54
54
A4
C8
88
ENDCHAR
STARTCHAR afii10075
ENCODING 233
SWIDTH 548 0
DWIDTH 8 0
BBX 7 11 0 0
BITMAP
0A
0C
00
22
26
4A
54
54
A4
C8
88
ENDCHAR
STARTCHAR afii10076
ENCODING 234
SWIDTH 480 0
DWIDTH 7 0
BBX 7 8 0 0
BITMAP
22
24
58
60
50
90
88
84
ENDCHAR
STARTCHAR afii10077
ENCODING 235
SWIDTH 548 0
DWIDTH 8 0
BBX 8 8 -1 0
BITMAP
0F
09
11
12
12
22
44
84
ENDCHAR
STARTCHAR afii10078
ENCODING 236
SWIDTH 754 0
DWIDTH 11 0
BBX 11 8 0 0
BITMAP
2020
2060
50C0
5140
5140
9280
8C80
8880
ENDCHAR
STARTCHAR afii10079
ENCODING 237
SWIDTH 548 0
DWIDTH 8 0
BBX 7 8 0 0
BITMAP
22
22
42
7C
44
84
88
88
ENDCHAR
STARTCHAR afii10080
ENCODING 238
SWIDTH 548 0
DWIDTH 8 0
BBX 7 8 0 0
BITMAP
1C
22
42
42
84
84
88
70
ENDCHAR
STARTCHAR afii10081
ENCODING 239
SWIDTH 548 0
DWIDTH 8 0
BBX 7 8 0 0
BITMAP
3E
22
42
44
44
84
88
88
ENDCHAR
STARTCHAR afii10082
ENCODING 240
SWIDTH 548 0
DWIDTH 8 0
BBX 8 11 -1 -3
BITMAP
16
19
21
21
21
42
62
5C
40
80
80
ENDCHAR
STARTCHAR afii10083
ENCODING 241
SWIDTH 480 0
DWIDTH 7 0
BBX 7 8 0 0
BITMAP
1C
22
40
40
80
84
88
70
ENDCHAR
STARTCHAR afii10084
ENCODING 242
SWIDTH 274 0
DWIDTH 4 0
BBX 5 8 0 0
BITMAP
F8
20
40
40
40
80
80
80
ENDCHAR
STARTCHAR afii10085
ENCODING 243
SWIDTH 480 0
DWIDTH 7 0
BBX 7 11 0 -3
BITMAP
42
44
44
48
48
50
70
20
40
40
80
ENDCHAR
STARTCHAR afii10086
ENCODING 244
SWIDTH 685 0
DWIDTH 10 0
BBX 9 14 0 -3
BITMAP
0200
0200
0400
1F00
2480
4880
4880
8900
9100
9200
7C00
1000
2000
2000
ENDCHAR
STARTCHAR afii10087
ENCODING 245
SWIDTH 480 0
DWIDTH 7 0
BBX 8 8 -1 0
BITMAP
21
12
14
08
18
24
44
82
ENDCHAR
STARTCHAR afii10088
ENCODING 246
SWIDTH 548 0
DWIDTH 8 0
BBX 7 10 0 -2
BITMAP
22
22
42
44
44
84
88
FC
08
08
ENDCHAR
STARTCHAR afii10089
ENCODING 247
SWIDTH 548 0
DWIDTH 8 0
BBX 6 8 1 0
BITMAP
44
44
84
98
68
08
10
10
ENDCHAR
STARTCHAR afii10090
ENCODING 248
SWIDTH 754 0
DWIDTH 11 0
BBX 11 8 0 0
BITMAP
2220
2220
4440
4440
4440
8880
8880
FF80
ENDCHAR
STARTCHAR afii10091
ENCODING 249
SWIDTH 754 0
DWIDTH 11 0
BBX 11 10 0 -2
BITMAP
2220
2220
4440
4440
4440
8880
8880
FFC0
0080
0080
ENDCHAR
STARTCHAR afii10092
ENCODING 250
SWIDTH 548 0
DWIDTH 8 0
BBX 6 8 1 0
BITMAP
E0
20
40
78
44
84
88
F0
ENDCHAR
STARTCHAR afii10093
ENCODING 251
SWIDTH 685 0
DWIDTH 10 0
BBX 10 8 0 0
BITMAP
2040
2040
4080
7880
4480
8500
8900
F100
ENDCHAR
STARTCHAR afii10094
ENCODING 252
SWIDTH 480 0
DWIDTH 7 0
BBX 6 8 0 0
BITMAP
20
20
40
78
44
84
88
F0
ENDCHAR
STARTCHAR afii10095
ENCODING 253
SWIDTH 548 0
DWIDTH 8 0
BBX 7 8 0 0
BITMAP
1C
22
02
1E
04
84
88
70
ENDCHAR
STARTCHAR afii10096
ENCODING 254
SWIDTH 822 0
DWIDTH 12 0
BBX 11 8 0 0
BITMAP
21C0
2220
2420
7C20
4840
4840
8880
8700
ENDCHAR
STARTCHAR afii10097
ENCODING 255
SWIDTH 548 0
DWIDTH 8 0
BBX 7 8 0 0
BITMAP
1E
22
42
44
3C
24
48
88
ENDCHAR
STARTCHAR Lslash
ENCODING -1
SWIDTH 556 0
DWIDTH 9 0
BBX 7 11 1 0
BITMAP
08
08
10
14
18
60
A0
20
40
40
7E
ENDCHAR
STARTCHAR OE
ENCODING -1
SWIDTH 1000 0
DWIDTH 15 0
BBX 16 11 1 0
BITMAP
077F
18C0
2080
4080
4100
81F8
8100
8100
8200
C600
3BF8
ENDCHAR
STARTCHAR Scaron
ENCODING -1
SWIDTH 667 0
DWIDTH 9 0
BBX 9 14 0 0
BITMAP
0500
0200
0000
0700
1880
2080
2000
1800
0600
0100
0100
8200
4600
3800
ENDCHAR
STARTCHAR Ydieresis
ENCODING -1
SWIDTH 667 0
DWIDTH 9 0
BBX 9 12 2 0
BITMAP
3600
8080
8100
8200
4200
4400
4800
3000
2000
2000
4000
4000
ENDCHAR
STARTCHAR Zcaron
ENCODING -1
SWIDTH 611 0
DWIDTH 9 0
BBX 10 14 0 0
BITMAP
0500
0200
0000
1FC0
0040
0080
0100
0200
0400
0800
1000
2000
4000
FF00
ENDCHAR
STARTCHAR breve
ENCODING -1
SWIDTH 333 0
DWIDTH 5 0
BBX 5 2 2 9
BITMAP
88
70
ENDCHAR
STARTCHAR caron
ENCODING -1
SWIDTH 333 0
DWIDTH 4 0
BBX 3 2 3 9
BITMAP
A0
40
ENDCHAR
STARTCHAR circumflex
ENCODING -1
SWIDTH 333 0
DWIDTH 4 0
BBX 3 2 3 9
BITMAP
40
A0
ENDCHAR
STARTCHAR dotaccent
ENCODING -1
SWIDTH 333 0
DWIDTH 3 0
BBX 2 1 3 9
BITMAP
C0
ENDCHAR
STARTCHAR dotlessi
ENCODING -1
SWIDTH 278 0
DWIDTH 4 0
BBX 3 8 0 0
BITMAP
20
20
40
40
40
80
80
80
ENDCHAR
STARTCHAR fi
ENCODING -1
SWIDTH 500 0
DWIDTH 7 0
BBX 9 11 0 0
BITMAP
0E80
1000
2000
FA00
2200
4400
4400
4400
8800
8800
8800
ENDCHAR
STARTCHAR fl
ENCODING -1
SWIDTH 500 0
DWIDTH 7 0
BBX 8 11 0 0
BITMAP
0D
11
22
7A
22
44
44
44
88
88
88
ENDCHAR
STARTCHAR florin
ENCODING -1
SWIDTH 556 0
DWIDTH 8 0
BBX 10 13 -2 -3
BITMAP
01C0
0200
0200
0F80
0400
0400
0800
0800
1000
1000
2000
2000
C000
ENDCHAR
STARTCHAR fraction
ENCODING -1
SWIDTH 167 0
DWIDTH 5 0
BBX 10 10 -2 0
BITMAP
0040
0080
0100
0200
0400
0800
1000
2000
4000
8000
ENDCHAR
STARTCHAR hungarumlaut
ENCODING -1
SWIDTH 333 0
DWIDTH 3 0
BBX 4 2 2 9
BITMAP
50
A0
ENDCHAR
STARTCHAR lslash
ENCODING -1
SWIDTH 222 0
DWIDTH 3 0
BBX 4 11 0 0
BITMAP
10
10
20
20
30
C0
40
40
80
80
80
ENDCHAR
STARTCHAR oe
ENCODING -1
SWIDTH 944 0
DWIDTH 13 0
BBX 12 8 0 0
BITMAP
1CE0
2310
4210
43F0
8600
8400
8C60
7380
ENDCHAR
STARTCHAR ogonek
ENCODING -1
SWIDTH 333 0
DWIDTH 3 0
BBX 3 3 -1 -3
BITMAP
60
80
E0
ENDCHAR
STARTCHAR ring
ENCODING -1
SWIDTH 333 0
DWIDTH 3 0
BBX 3 3 2 9
BITMAP
60
A0
C0
ENDCHAR
STARTCHAR scaron
ENCODING -1
SWIDTH 500 0
DWIDTH 7 0
BBX 7 11 0 0
BITMAP
14
08
00
1C
22
40
38
04
84
88
70
ENDCHAR
STARTCHAR tilde
ENCODING -1
SWIDTH 333 0
DWIDTH 4 0
BBX 5 2 2 9
BITMAP
68
B0
ENDCHAR
STARTCHAR zcaron
ENCODING -1
SWIDTH 500 0
DWIDTH 7 0
BBX 8 11 -1 0
BITMAP
0A
04
00
3F
01
06
08
30
40
80
FC
ENDCHAR
ENDFONT
