STARTFONT 2.1
COMMENT $XConsortium: luBIS18.bdf,v 1.7 94/04/02 15:58:34 gildea Exp $
COMMENT  (c) Copyright Bigelow & Holmes 1986, 1985. Lucida is a registered
COMMENT  trademark of Bigelow & Holmes. See LEGAL NOTICE file for terms 
COMMENT  of the license. 
COMMENT GRID 0018 0018 0200 0200
FONT -RFX-Serene-Bold-I-Normal-Sans-18-180-75-75-P-119-windows-1251
SIZE 18 72 72
FONTBOUNDINGBOX 27 19 -2 -3
STARTPROPERTIES 24
FONTNAME_REGISTRY ""
FOUNDRY "RFX"
FAMILY_NAME "Serene"
WEIGHT_NAME "Bold"
SLANT "I"
SETWIDTH_NAME "Normal"
ADD_STYLE_NAME "Sans"
PIXEL_SIZE 18
POINT_SIZE 180
RESOLUTION_X 75
RESOLUTION_Y 75
SPACING "P"
AVERAGE_WIDTH 119
CHARSET_REGISTRY "windows"
CHARSET_ENCODING "1251"
FONT_ASCENT 16
FONT_DESCENT 3
DEFAULT_CHAR 32
COPYRIGHT "Copyright Bigelow & Holmes 1986, 1985."
FACE_NAME "Lucida Sans Bold Italic"
COPYRIGHT2 "Cyrillic and Euro glyphs copyright 2000 Dmitry Yu. Bolkhovityanov, bolkhov@inp.nsk.su"
SOURCEDATE "Mon Jul 24 21:19:13 2000"
PKGVERSION "1.1"
ASSEMBLER "cvtbdf.pl (Linux)"
ENDPROPERTIES
CHARS 244
STARTCHAR space
ENCODING 32
SWIDTH 343 0
DWIDTH 5 0
BBX 0 0 0 0
BITMAP
ENDCHAR
STARTCHAR exclam
ENCODING 33
SWIDTH 343 0
DWIDTH 5 0
BBX 5 13 1 0
BITMAP
38
38
38
38
70
70
70
60
60
00
00
E0
E0
ENDCHAR
STARTCHAR quotedbl
ENCODING 34
SWIDTH 530 0
DWIDTH 10 0
BBX 6 4 3 10
BITMAP
CC
CC
CC
88
ENDCHAR
STARTCHAR numbersign
ENCODING 35
SWIDTH 687 0
DWIDTH 13 0
BBX 12 13 1 0
BITMAP
0660
0660
0660
7FF0
7FF0
1980
1980
1980
FFE0
FFE0
6600
6600
6600
ENDCHAR
STARTCHAR dollar
ENCODING 36
SWIDTH 687 0
DWIDTH 13 0
BBX 11 15 2 -1
BITMAP
0100
0FC0
1FE0
3960
3B00
3A00
3E00
1F00
0F80
0B80
1B80
D380
FF00
7E00
1000
ENDCHAR
STARTCHAR percent
ENCODING 37
SWIDTH 908 0
DWIDTH 17 0
BBX 16 13 1 0
BITMAP
3C06
7E0C
EE18
C630
EE60
FCC0
799E
033F
0677
0C63
1877
307E
603C
ENDCHAR
STARTCHAR ampersand
ENCODING 38
SWIDTH 816 0
DWIDTH 15 0
BBX 13 13 2 0
BITMAP
0F80
1FC0
39C0
39C0
3F80
1F00
3E38
7F38
E7B0
E3E0
F3C0
FFF0
7C70
ENDCHAR
STARTCHAR quotesingle
ENCODING 39
SWIDTH 265 0
DWIDTH 5 0
BBX 2 4 3 10
BITMAP
C0
C0
C0
80
ENDCHAR
STARTCHAR parenleft
ENCODING 40
SWIDTH 386 0
DWIDTH 7 0
BBX 7 16 2 -2
BITMAP
0E
1C
38
30
70
70
E0
E0
E0
E0
E0
E0
E0
E0
70
38
ENDCHAR
STARTCHAR parenright
ENCODING 41
SWIDTH 386 0
DWIDTH 7 0
BBX 7 16 0 -2
BITMAP
38
1C
0E
0E
0E
0E
0E
0E
0E
0E
1C
1C
18
38
70
E0
ENDCHAR
STARTCHAR asterisk
ENCODING 42
SWIDTH 464 0
DWIDTH 9 0
BBX 8 7 1 6
BITMAP
18
18
DB
E7
18
EC
EC
ENDCHAR
STARTCHAR plus
ENCODING 43
SWIDTH 687 0
DWIDTH 13 0
BBX 12 12 1 0
BITMAP
0300
0300
0300
0600
0600
FFF0
FFF0
0600
0600
0C00
0C00
0C00
ENDCHAR
STARTCHAR comma
ENCODING 44
SWIDTH 343 0
DWIDTH 5 0
BBX 4 4 0 -2
BITMAP
70
70
60
C0
ENDCHAR
STARTCHAR minus
ENCODING 45
SWIDTH 687 0
DWIDTH 13 0
BBX 11 2 2 5
BITMAP
FFE0
FFE0
ENDCHAR
STARTCHAR period
ENCODING 46
SWIDTH 343 0
DWIDTH 5 0
BBX 3 2 1 0
BITMAP
E0
E0
ENDCHAR
STARTCHAR slash
ENCODING 47
SWIDTH 596 0
DWIDTH 11 0
BBX 11 16 0 -2
BITMAP
0060
00E0
01C0
0180
0380
0700
0600
0E00
0C00
1C00
3800
3000
7000
6000
E000
C000
ENDCHAR
STARTCHAR zero
ENCODING 48
SWIDTH 687 0
DWIDTH 13 0
BBX 11 13 2 0
BITMAP
0780
1FC0
39E0
70E0
70E0
E0E0
E0E0
E0E0
E1C0
E1C0
F380
7F00
3C00
ENDCHAR
STARTCHAR one
ENCODING 49
SWIDTH 687 0
DWIDTH 13 0
BBX 6 13 4 0
BITMAP
1C
FC
FC
1C
1C
38
38
38
38
70
70
70
70
ENDCHAR
STARTCHAR two
ENCODING 50
SWIDTH 687 0
DWIDTH 13 0
BBX 10 13 2 0
BITMAP
1F80
3FC0
31C0
01C0
03C0
0780
0F00
1E00
3800
7000
FF80
FF80
FF80
ENDCHAR
STARTCHAR three
ENCODING 51
SWIDTH 687 0
DWIDTH 13 0
BBX 10 13 2 0
BITMAP
1F80
3FC0
31C0
01C0
0380
1F00
1E00
0700
0380
0380
C780
FF00
7C00
ENDCHAR
STARTCHAR four
ENCODING 52
SWIDTH 687 0
DWIDTH 13 0
BBX 10 13 2 0
BITMAP
01C0
03C0
07C0
0DC0
19C0
3380
6380
FFC0
FFC0
0700
0700
0700
0700
ENDCHAR
STARTCHAR five
ENCODING 53
SWIDTH 687 0
DWIDTH 13 0
BBX 11 13 2 0
BITMAP
1FE0
1FE0
1FE0
3000
3000
3E00
3F00
0780
0380
0380
C780
FF00
7C00
ENDCHAR
STARTCHAR six
ENCODING 54
SWIDTH 687 0
DWIDTH 13 0
BBX 11 13 2 0
BITMAP
07C0
1FE0
3C60
7000
7000
EF00
FF80
F1C0
E1C0
E1C0
E380
7F80
3E00
ENDCHAR
STARTCHAR seven
ENCODING 55
SWIDTH 687 0
DWIDTH 13 0
BBX 10 13 3 0
BITMAP
7FC0
7FC0
7FC0
0180
0300
0600
0C00
1C00
3800
7000
7000
E000
E000
ENDCHAR
STARTCHAR eight
ENCODING 56
SWIDTH 687 0
DWIDTH 13 0
BBX 11 13 2 0
BITMAP
07C0
1FE0
38E0
38E0
3DC0
1F00
0F80
3F80
73C0
E1C0
F1C0
FF80
7E00
ENDCHAR
STARTCHAR nine
ENCODING 57
SWIDTH 687 0
DWIDTH 13 0
BBX 10 13 2 0
BITMAP
1F00
7F80
71C0
E1C0
E1C0
E3C0
7FC0
3DC0
0380
0380
C700
FE00
7800
ENDCHAR
STARTCHAR colon
ENCODING 58
SWIDTH 343 0
DWIDTH 5 0
BBX 5 10 1 0
BITMAP
38
38
00
00
00
00
00
00
E0
E0
ENDCHAR
STARTCHAR semicolon
ENCODING 59
SWIDTH 343 0
DWIDTH 5 0
BBX 6 12 0 -2
BITMAP
1C
1C
00
00
00
00
00
00
70
70
60
C0
ENDCHAR
STARTCHAR less
ENCODING 60
SWIDTH 687 0
DWIDTH 13 0
BBX 11 9 2 2
BITMAP
00E0
03C0
0F00
3C00
F000
F000
3C00
0F00
0380
ENDCHAR
STARTCHAR equal
ENCODING 61
SWIDTH 687 0
DWIDTH 13 0
BBX 12 6 1 3
BITMAP
7FF0
7FF0
0000
0000
FFE0
FFE0
ENDCHAR
STARTCHAR greater
ENCODING 62
SWIDTH 687 0
DWIDTH 13 0
BBX 11 9 1 2
BITMAP
3800
1E00
0780
01E0
01E0
0780
1E00
7800
E000
ENDCHAR
STARTCHAR question
ENCODING 63
SWIDTH 539 0
DWIDTH 10 0
BBX 8 13 2 0
BITMAP
7E
FF
C7
07
0E
1C
38
70
60
00
00
E0
E0
ENDCHAR
STARTCHAR at
ENCODING 64
SWIDTH 833 0
DWIDTH 16 0
BBX 16 13 1 0
BITMAP
07F0
1FFE
3806
71F3
67F3
C673
CE63
CEE6
CFFC
C678
6000
7FC0
0FC0
ENDCHAR
STARTCHAR A
ENCODING 65
SWIDTH 771 0
DWIDTH 14 0
BBX 12 13 1 0
BITMAP
01C0
03C0
03C0
06E0
0CE0
0CE0
18E0
18E0
3FF0
7FF0
6070
E070
E070
ENDCHAR
STARTCHAR B
ENCODING 66
SWIDTH 660 0
DWIDTH 13 0
BBX 11 13 2 0
BITMAP
3FC0
3FE0
38E0
38E0
71C0
7F80
7F00
7380
E1C0
E1C0
E3C0
FF80
FE00
ENDCHAR
STARTCHAR C
ENCODING 67
SWIDTH 737 0
DWIDTH 14 0
BBX 13 13 2 0
BITMAP
07E0
1FF8
3C38
7000
7000
E000
E000
E000
E000
E000
7060
7FE0
1F80
ENDCHAR
STARTCHAR D
ENCODING 68
SWIDTH 822 0
DWIDTH 15 0
BBX 13 13 2 0
BITMAP
3FC0
3FF0
3870
3838
7038
7038
7038
7038
E070
E070
E1E0
FFC0
FF00
ENDCHAR
STARTCHAR E
ENCODING 69
SWIDTH 642 0
DWIDTH 12 0
BBX 10 13 2 0
BITMAP
3FC0
3FC0
3800
3800
7000
7F00
7F00
7000
E000
E000
E000
FF00
FF00
ENDCHAR
STARTCHAR F
ENCODING 70
SWIDTH 614 0
DWIDTH 12 0
BBX 11 13 2 0
BITMAP
3FE0
3FE0
3800
3800
7000
7F80
7F80
7000
7000
E000
E000
E000
E000
ENDCHAR
STARTCHAR G
ENCODING 71
SWIDTH 755 0
DWIDTH 14 0
BBX 13 13 2 0
BITMAP
07E0
1FF8
3C38
7000
7000
E000
E000
E070
E070
E070
70E0
7FE0
1FE0
ENDCHAR
STARTCHAR H
ENCODING 72
SWIDTH 813 0
DWIDTH 15 0
BBX 13 13 2 0
BITMAP
3838
3838
3838
3838
7070
7FF0
7FF0
7070
E0E0
E0E0
E0E0
E0E0
E0E0
ENDCHAR
STARTCHAR I
ENCODING 73
SWIDTH 361 0
DWIDTH 7 0
BBX 5 13 2 0
BITMAP
38
38
38
38
70
70
70
70
E0
E0
E0
E0
E0
ENDCHAR
STARTCHAR J
ENCODING 74
SWIDTH 502 0
DWIDTH 9 0
BBX 10 15 -1 -2
BITMAP
01C0
01C0
01C0
01C0
0380
0380
0380
0380
0380
0700
0700
0700
CE00
FE00
7800
ENDCHAR
STARTCHAR K
ENCODING 75
SWIDTH 753 0
DWIDTH 14 0
BBX 12 13 2 0
BITMAP
3870
38E0
39C0
3980
7300
7600
7C00
7E00
EF00
E780
E3C0
E1E0
E0E0
ENDCHAR
STARTCHAR L
ENCODING 76
SWIDTH 623 0
DWIDTH 11 0
BBX 9 13 2 0
BITMAP
3800
3800
3800
3800
7000
7000
7000
7000
E000
E000
E000
FF80
FF80
ENDCHAR
STARTCHAR M
ENCODING 77
SWIDTH 940 0
DWIDTH 18 0
BBX 16 13 2 0
BITMAP
3E0F
3E1F
3E1F
3737
3766
676E
67CE
678E
678E
C71C
C71C
C01C
C01C
ENDCHAR
STARTCHAR N
ENCODING 78
SWIDTH 789 0
DWIDTH 15 0
BBX 13 13 2 0
BITMAP
3818
3C18
3C18
3E18
3E18
6730
6730
63B0
63F0
C1E0
C1E0
C0E0
C0E0
ENDCHAR
STARTCHAR O
ENCODING 79
SWIDTH 855 0
DWIDTH 16 0
BBX 14 13 2 0
BITMAP
07E0
1FF8
3C38
701C
701C
E01C
E01C
E01C
E038
E038
70F0
7FE0
1F80
ENDCHAR
STARTCHAR P
ENCODING 80
SWIDTH 645 0
DWIDTH 13 0
BBX 11 13 2 0
BITMAP
3FC0
3FE0
38E0
38E0
70E0
71C0
7F80
7E00
E000
E000
E000
E000
E000
ENDCHAR
STARTCHAR Q
ENCODING 81
SWIDTH 855 0
DWIDTH 15 0
BBX 14 16 1 -3
BITMAP
07E0
1FF8
3C38
701C
701C
E01C
E01C
E01C
E038
E038
70F0
7FE0
1F80
01E0
00FC
0038
ENDCHAR
STARTCHAR R
ENCODING 82
SWIDTH 708 0
DWIDTH 13 0
BBX 11 13 2 0
BITMAP
3FC0
3FE0
38E0
38E0
71C0
7F80
7E00
7700
E700
E380
E380
E1C0
E1C0
ENDCHAR
STARTCHAR S
ENCODING 83
SWIDTH 639 0
DWIDTH 12 0
BBX 11 13 1 0
BITMAP
07C0
1FE0
3C60
3800
3C00
1E00
0F00
0780
0380
0380
C780
FF00
7C00
ENDCHAR
STARTCHAR T
ENCODING 84
SWIDTH 747 0
DWIDTH 14 0
BBX 13 13 2 0
BITMAP
FFF8
FFF8
0700
0700
0E00
0E00
0E00
0E00
1C00
1C00
1C00
1C00
1C00
ENDCHAR
STARTCHAR U
ENCODING 85
SWIDTH 759 0
DWIDTH 14 0
BBX 13 13 2 0
BITMAP
3818
3818
3818
3818
7030
7030
7030
7060
E060
E0E0
F1C0
7F80
3E00
ENDCHAR
STARTCHAR V
ENCODING 86
SWIDTH 765 0
DWIDTH 14 0
BBX 11 13 4 0
BITMAP
E0E0
E0E0
E0C0
E1C0
E180
E380
7300
7700
7600
7600
7C00
3800
3800
ENDCHAR
STARTCHAR W
ENCODING 87
SWIDTH 991 0
DWIDTH 18 0
BBX 16 13 3 0
BITMAP
E1C7
E1C7
E3C7
E3C6
E7CE
E7CC
EDD8
E9D8
F9F0
F1E0
F1E0
E1C0
E1C0
ENDCHAR
STARTCHAR X
ENCODING 88
SWIDTH 696 0
DWIDTH 13 0
BBX 13 13 1 0
BITMAP
1C38
1C38
1C70
0E60
0EC0
0F80
0700
0F00
1B80
3380
71C0
E1C0
E1C0
ENDCHAR
STARTCHAR Y
ENCODING 89
SWIDTH 681 0
DWIDTH 12 0
BBX 11 13 3 0
BITMAP
E0E0
E0E0
E1C0
F380
7300
7600
3C00
3800
3800
7000
7000
7000
7000
ENDCHAR
STARTCHAR Z
ENCODING 90
SWIDTH 687 0
DWIDTH 13 0
BBX 12 13 1 0
BITMAP
3FF0
3FF0
00F0
01E0
03C0
0780
0F00
1E00
3C00
7800
F000
FFC0
FFC0
ENDCHAR
STARTCHAR bracketleft
ENCODING 91
SWIDTH 386 0
DWIDTH 7 0
BBX 8 16 1 -2
BITMAP
1F
1F
1C
1C
38
38
38
38
70
70
70
70
E0
E0
F8
F8
ENDCHAR
STARTCHAR backslash
ENCODING 92
SWIDTH 566 0
DWIDTH 10 0
BBX 9 16 1 -2
BITMAP
E000
E000
7000
7000
3800
3800
1800
1C00
1C00
0E00
0E00
0600
0700
0700
0380
0380
ENDCHAR
STARTCHAR bracketright
ENCODING 93
SWIDTH 386 0
DWIDTH 7 0
BBX 8 16 0 -2
BITMAP
1F
1F
07
07
0E
0E
0E
0E
1C
1C
1C
1C
38
38
F8
F8
ENDCHAR
STARTCHAR asciicircum
ENCODING 94
SWIDTH 687 0
DWIDTH 13 0
BBX 9 10 2 2
BITMAP
0180
0380
0780
0D80
1980
3180
6180
6180
C180
C180
ENDCHAR
STARTCHAR underscore
ENCODING 95
SWIDTH 500 0
DWIDTH 14 0
BBX 12 2 1 -2
BITMAP
FFF0
FFF0
ENDCHAR
STARTCHAR grave
ENCODING 96
SWIDTH 663 0
DWIDTH 12 0
BBX 5 2 5 11
BITMAP
F0
38
ENDCHAR
STARTCHAR a
ENCODING 97
SWIDTH 681 0
DWIDTH 13 0
BBX 12 10 1 0
BITMAP
07F0
1FF0
3870
70E0
70E0
E1E0
E3C0
E7C0
FDC0
79C0
ENDCHAR
STARTCHAR b
ENCODING 98
SWIDTH 681 0
DWIDTH 13 0
BBX 12 14 1 0
BITMAP
1C00
1C00
1C00
1C00
39E0
3BF0
3E70
7C70
7870
70E0
70E0
E1C0
FF80
FE00
ENDCHAR
STARTCHAR c
ENCODING 99
SWIDTH 548 0
DWIDTH 11 0
BBX 10 10 1 0
BITMAP
0780
1FC0
38C0
7000
7000
E000
E000
E180
FF80
7E00
ENDCHAR
STARTCHAR d
ENCODING 100
SWIDTH 681 0
DWIDTH 13 0
BBX 13 14 1 0
BITMAP
0038
0038
0038
0038
07F0
1FF0
3870
70E0
70E0
E1E0
E3C0
E7C0
FDC0
79C0
ENDCHAR
STARTCHAR e
ENCODING 101
SWIDTH 612 0
DWIDTH 11 0
BBX 10 10 1 0
BITMAP
0780
1FC0
39C0
71C0
7F80
FE00
E000
E180
FF80
7E00
ENDCHAR
STARTCHAR f
ENCODING 102
SWIDTH 464 0
DWIDTH 10 0
BBX 12 17 1 -3
BITMAP
03E0
07F0
0E30
0E00
3FC0
3FC0
1C00
1C00
3800
3800
3800
7000
7000
7000
E000
E000
E000
ENDCHAR
STARTCHAR g
ENCODING 103
SWIDTH 674 0
DWIDTH 13 0
BBX 13 13 0 -3
BITMAP
03F8
0FF8
1C38
3870
3870
70F0
71F0
7F60
3CE0
00E0
E1C0
FFC0
3F00
ENDCHAR
STARTCHAR h
ENCODING 104
SWIDTH 675 0
DWIDTH 13 0
BBX 12 14 1 0
BITMAP
1C00
1C00
1C00
1C00
39E0
3BF0
3E70
7C70
78E0
70E0
70E0
E1C0
E1C0
E1C0
ENDCHAR
STARTCHAR i
ENCODING 105
SWIDTH 343 0
DWIDTH 6 0
BBX 7 14 1 0
BITMAP
0E
1C
00
00
38
38
38
70
70
70
70
E0
E0
E0
ENDCHAR
STARTCHAR j
ENCODING 106
SWIDTH 407 0
DWIDTH 7 0
BBX 11 17 -2 -3
BITMAP
00E0
01C0
0000
0000
0380
0380
0380
0700
0700
0700
0700
0E00
0E00
0E00
DC00
FC00
7000
ENDCHAR
STARTCHAR k
ENCODING 107
SWIDTH 666 0
DWIDTH 12 0
BBX 11 14 1 0
BITMAP
1C00
1C00
1C00
1C00
38E0
38E0
39C0
7300
7E00
7E00
7700
E780
E3C0
E1C0
ENDCHAR
STARTCHAR l
ENCODING 108
SWIDTH 343 0
DWIDTH 6 0
BBX 6 14 1 0
BITMAP
1C
1C
1C
1C
38
38
38
70
70
70
70
E0
E0
E0
ENDCHAR
STARTCHAR m
ENCODING 109
SWIDTH 991 0
DWIDTH 18 0
BBX 17 10 1 0
BITMAP
39C700
3BEF80
3EFB80
7CF380
79E700
71C700
71C700
E38E00
E38E00
E38E00
ENDCHAR
STARTCHAR n
ENCODING 110
SWIDTH 675 0
DWIDTH 13 0
BBX 12 10 1 0
BITMAP
39E0
3BF0
3E70
3C70
78E0
70E0
70E0
E1C0
E1C0
E1C0
ENDCHAR
STARTCHAR o
ENCODING 111
SWIDTH 663 0
DWIDTH 12 0
BBX 11 10 1 0
BITMAP
07C0
1FE0
38E0
70E0
70E0
E1C0
E1C0
E380
FF00
7C00
ENDCHAR
STARTCHAR p
ENCODING 112
SWIDTH 681 0
DWIDTH 13 0
BBX 13 13 0 -3
BITMAP
1CF0
1DF8
1F38
1E38
3C38
3870
3870
70E0
7FC0
7F00
E000
E000
E000
ENDCHAR
STARTCHAR q
ENCODING 113
SWIDTH 681 0
DWIDTH 13 0
BBX 12 13 1 -3
BITMAP
07F0
1FF0
3870
70E0
70E0
E1E0
E3E0
E6C0
FDC0
79C0
0380
0380
0380
ENDCHAR
STARTCHAR r
ENCODING 114
SWIDTH 542 0
DWIDTH 10 0
BBX 9 10 1 0
BITMAP
3980
3B80
3F80
7C00
7800
7000
7000
E000
E000
E000
ENDCHAR
STARTCHAR s
ENCODING 115
SWIDTH 527 0
DWIDTH 11 0
BBX 10 10 1 0
BITMAP
1F80
3FC0
70C0
7800
3E00
1F00
0780
C380
FF00
7E00
ENDCHAR
STARTCHAR t
ENCODING 116
SWIDTH 437 0
DWIDTH 8 0
BBX 7 12 2 0
BITMAP
18
38
FE
FE
70
70
70
E0
E0
E0
F8
78
ENDCHAR
STARTCHAR u
ENCODING 117
SWIDTH 675 0
DWIDTH 13 0
BBX 12 10 1 0
BITMAP
3870
3870
3870
70E0
70E0
71E0
E3C0
E7C0
FDC0
79C0
ENDCHAR
STARTCHAR v
ENCODING 118
SWIDTH 630 0
DWIDTH 12 0
BBX 10 10 3 0
BITMAP
E1C0
E1C0
E380
E300
E700
E600
EC00
F800
F000
E000
ENDCHAR
STARTCHAR w
ENCODING 119
SWIDTH 878 0
DWIDTH 16 0
BBX 15 10 2 0
BITMAP
E00E
E38E
E38E
E79C
E798
EFB0
FBE0
F3C0
E380
C300
ENDCHAR
STARTCHAR x
ENCODING 120
SWIDTH 563 0
DWIDTH 11 0
BBX 11 10 0 0
BITMAP
1CE0
1CE0
1CC0
0F80
0F00
1F00
3700
6380
E380
E380
ENDCHAR
STARTCHAR y
ENCODING 121
SWIDTH 633 0
DWIDTH 12 0
BBX 13 13 0 -3
BITMAP
1C38
1C38
1C70
1C60
1CE0
1CC0
1D80
1F00
1E00
1C00
3800
F000
E000
ENDCHAR
STARTCHAR z
ENCODING 122
SWIDTH 630 0
DWIDTH 12 0
BBX 11 10 1 0
BITMAP
7FE0
7FE0
03C0
0780
0F00
1E00
3C00
7800
FFC0
FFC0
ENDCHAR
STARTCHAR braceleft
ENCODING 123
SWIDTH 386 0
DWIDTH 7 0
BBX 8 16 1 -2
BITMAP
07
0F
1C
1C
1C
1C
18
F0
E0
30
70
70
E0
E0
F0
70
ENDCHAR
STARTCHAR bar
ENCODING 124
SWIDTH 259 0
DWIDTH 7 0
BBX 5 16 2 -2
BITMAP
38
38
38
38
30
70
70
70
70
70
70
60
E0
E0
E0
E0
ENDCHAR
STARTCHAR braceright
ENCODING 125
SWIDTH 386 0
DWIDTH 7 0
BBX 8 16 0 -2
BITMAP
0E
0F
07
07
0E
0E
0C
07
0F
18
38
38
38
38
F0
E0
ENDCHAR
STARTCHAR asciitilde
ENCODING 126
SWIDTH 687 0
DWIDTH 13 0
BBX 10 3 2 5
BITMAP
78C0
FFC0
C780
ENDCHAR
STARTCHAR afii10051
ENCODING 128
SWIDTH 944 0
DWIDTH 17 0
BBX 15 13 2 0
BITMAP
FFF8
FFF8
0700
0700
0EF8
0FFC
0F1E
0E0E
1C0E
1C1C
1C3C
1CF8
1CE0
ENDCHAR
STARTCHAR afii10052
ENCODING 129
SWIDTH 666 0
DWIDTH 12 0
BBX 11 16 2 0
BITMAP
0780
0E00
0000
3FE0
3FE0
3800
3800
7000
7000
7000
7000
7000
E000
E000
E000
E000
ENDCHAR
STARTCHAR quotesinglbase
ENCODING 130
SWIDTH 265 0
DWIDTH 5 0
BBX 4 4 0 -2
BITMAP
70
70
60
C0
ENDCHAR
STARTCHAR afii10100
ENCODING 131
SWIDTH 611 0
DWIDTH 11 0
BBX 10 10 1 0
BITMAP
0F80
3FC0
31C0
03C0
1F80
7E00
F000
E180
FF80
7E00
ENDCHAR
STARTCHAR quotedblbase
ENCODING 132
SWIDTH 530 0
DWIDTH 10 0
BBX 8 4 1 -2
BITMAP
77
77
66
CC
ENDCHAR
STARTCHAR ellipsis
ENCODING 133
SWIDTH 1000 0
DWIDTH 12 0
BBX 8 2 3 0
BITMAP
C3
C3
ENDCHAR
STARTCHAR dagger
ENCODING 134
SWIDTH 687 0
DWIDTH 13 0
BBX 10 15 2 -2
BITMAP
0E00
0E00
0E00
0E00
FFC0
FFC0
1C00
1C00
3800
3800
3800
7800
7000
7000
7000
ENDCHAR
STARTCHAR daggerdbl
ENCODING 135
SWIDTH 687 0
DWIDTH 13 0
BBX 11 15 2 -2
BITMAP
0700
0700
0700
0E00
7FE0
7FE0
0E00
1C00
1C00
FFC0
FFC0
1C00
3800
3800
3800
ENDCHAR
STARTCHAR Euro
ENCODING 136
SWIDTH 777 0
DWIDTH 14 0
BBX 14 13 1 0
BITMAP
03F0
0FFC
1E1C
3800
3800
7FE0
7000
FF80
7000
7000
3830
3FF0
0FC0
ENDCHAR
STARTCHAR perthousand
ENCODING 137
SWIDTH 1332 0
DWIDTH 25 0
BBX 24 13 1 0
BITMAP
3C0600
7E0C00
EE1800
C63000
EE6000
FCC000
799E1E
033F3F
067777
0C6363
187777
307F7E
603C3C
ENDCHAR
STARTCHAR afii10058
ENCODING 138
SWIDTH 1166 0
DWIDTH 21 0
BBX 20 13 0 0
BITMAP
07FE00
07FE00
070E00
070E00
0E1C00
0E1F80
0E1FE0
0E1CE0
1C3870
1C3870
3838F0
F83FE0
E03F80
ENDCHAR
STARTCHAR guilsinglleft
ENCODING 139
SWIDTH 386 0
DWIDTH 7 0
BBX 6 8 1 2
BITMAP
08
1C
38
70
E0
70
38
10
ENDCHAR
STARTCHAR afii10059
ENCODING 140
SWIDTH 1166 0
DWIDTH 21 0
BBX 18 13 2 0
BITMAP
383800
383800
383800
383800
707000
7FFE00
7FFF80
707380
E0E1C0
E0E1C0
E0E3C0
E0FF80
E0FE00
ENDCHAR
STARTCHAR afii10061
ENCODING 141
SWIDTH 777 0
DWIDTH 14 0
BBX 12 16 2 0
BITMAP
01E0
0380
0000
3870
38E0
39C0
3980
7300
7600
7C00
7E00
EF00
E780
E3C0
E1E0
E0E0
ENDCHAR
STARTCHAR afii10060
ENCODING 142
SWIDTH 944 0
DWIDTH 17 0
BBX 15 13 2 0
BITMAP
FFF8
FFF8
0700
0700
0EF8
0FFC
0F1E
0E0E
1C0E
1C1C
1C1C
1C1C
1C1C
ENDCHAR
STARTCHAR afii10145
ENCODING 143
SWIDTH 833 0
DWIDTH 15 0
BBX 13 16 2 -3
BITMAP
3838
3838
3838
3838
7070
7070
7070
7070
E0E0
E0E0
E0E0
FFE0
FFE0
1C00
1C00
1C00
ENDCHAR
STARTCHAR afii10099
ENCODING 144
SWIDTH 722 0
DWIDTH 13 0
BBX 12 17 1 -3
BITMAP
1C00
3FC0
3FC0
1C00
39E0
3BF0
3E70
7C70
78E0
70E0
70E0
E1C0
E1C0
E380
0380
0F00
0E00
ENDCHAR
STARTCHAR quoteleft
ENCODING 145
SWIDTH 265 0
DWIDTH 5 0
BBX 4 4 3 10
BITMAP
30
60
E0
E0
ENDCHAR
STARTCHAR quoteright
ENCODING 146
SWIDTH 265 0
DWIDTH 5 0
BBX 4 4 2 10
BITMAP
70
70
60
C0
ENDCHAR
STARTCHAR quotedblleft
ENCODING 147
SWIDTH 530 0
DWIDTH 10 0
BBX 8 4 3 10
BITMAP
33
66
EE
EE
ENDCHAR
STARTCHAR quotedblright
ENCODING 148
SWIDTH 530 0
DWIDTH 10 0
BBX 8 4 2 10
BITMAP
77
77
66
CC
ENDCHAR
STARTCHAR bullet
ENCODING 149
SWIDTH 687 0
DWIDTH 13 0
BBX 6 6 4 2
BITMAP
FC
FC
FC
FC
FC
FC
ENDCHAR
STARTCHAR endash
ENCODING 150
SWIDTH 500 0
DWIDTH 10 0
BBX 9 2 1 4
BITMAP
FF80
FF80
ENDCHAR
STARTCHAR emdash
ENCODING 151
SWIDTH 1000 0
DWIDTH 19 0
BBX 18 2 1 4
BITMAP
FFFFC0
FFFFC0
ENDCHAR
STARTCHAR trademark
ENCODING 153
SWIDTH 901 0
DWIDTH 17 0
BBX 15 6 2 7
BITMAP
FDC6
FDCE
31FE
6376
636C
630C
ENDCHAR
STARTCHAR afii10106
ENCODING 154
SWIDTH 722 0
DWIDTH 13 0
BBX 18 10 0 0
BITMAP
0FF800
0FF800
0E3B80
0E77C0
1C79C0
1C71C0
1CE380
38E780
F8FF00
E07C00
ENDCHAR
STARTCHAR guilsinglright
ENCODING 155
SWIDTH 386 0
DWIDTH 7 0
BBX 6 8 1 2
BITMAP
20
70
38
1C
38
70
E0
40
ENDCHAR
STARTCHAR afii10107
ENCODING 156
SWIDTH 1000 0
DWIDTH 18 0
BBX 17 10 1 0
BITMAP
387000
387000
387700
70EF80
7FF380
7FE380
71C700
E1CF00
E1FE00
E0F800
ENDCHAR
STARTCHAR afii10109
ENCODING 157
SWIDTH 666 0
DWIDTH 12 0
BBX 11 13 1 0
BITMAP
03C0
0700
0000
38E0
38E0
39C0
7300
7E00
7E00
7700
E780
E3C0
E1C0
ENDCHAR
STARTCHAR afii10108
ENCODING 158
SWIDTH 722 0
DWIDTH 13 0
BBX 12 14 1 0
BITMAP
1C00
3FC0
3FC0
1C00
39E0
3BF0
3E70
7C70
78E0
70E0
70E0
E1C0
E1C0
E1C0
ENDCHAR
STARTCHAR afii10193
ENCODING 159
SWIDTH 722 0
DWIDTH 13 0
BBX 12 12 1 -2
BITMAP
3870
3870
3870
70E0
70E0
71E0
E3C0
E7C0
FDC0
7DC0
3800
3800
ENDCHAR
STARTCHAR space
ENCODING 160
SWIDTH 343 0
DWIDTH 5 0
BBX 0 0 0 0
BITMAP
ENDCHAR
STARTCHAR afii10062
ENCODING 161
SWIDTH 777 0
DWIDTH 14 0
BBX 12 16 3 0
BITMAP
0CC0
0780
0000
7070
7070
7060
70E0
39C0
3980
3B80
1F00
1E00
0E00
1C00
F800
E000
ENDCHAR
STARTCHAR afii10110
ENCODING 162
SWIDTH 666 0
DWIDTH 12 0
BBX 13 16 0 -3
BITMAP
0360
01C0
0000
1C38
1C38
1C70
1C60
1CE0
1CC0
1D80
1F00
1E00
1C00
3800
F000
E000
ENDCHAR
STARTCHAR afii10057
ENCODING 163
SWIDTH 502 0
DWIDTH 9 0
BBX 10 15 -1 -2
BITMAP
01C0
01C0
01C0
01C0
0380
0380
0380
0380
0380
0700
0700
0700
CE00
FE00
7800
ENDCHAR
STARTCHAR currency
ENCODING 164
SWIDTH 687 0
DWIDTH 13 0
BBX 14 12 1 0
BITMAP
300C
1818
0FE0
1FF0
1C70
3870
3870
38E0
3FE0
1FC0
6060
C030
ENDCHAR
STARTCHAR afii10050
ENCODING 165
SWIDTH 666 0
DWIDTH 12 0
BBX 12 16 2 0
BITMAP
0070
0070
0070
3FE0
3FE0
3800
3800
7000
7000
7000
7000
7000
E000
E000
E000
E000
ENDCHAR
STARTCHAR brokenbar
ENCODING 166
SWIDTH 259 0
DWIDTH 5 0
BBX 5 16 1 -2
BITMAP
38
38
38
38
30
30
00
00
00
00
60
60
E0
E0
E0
E0
ENDCHAR
STARTCHAR section
ENCODING 167
SWIDTH 687 0
DWIDTH 13 0
BBX 10 15 2 -2
BITMAP
0780
1FC0
38C0
3800
3C00
6E00
6700
7380
3980
1D80
0F00
0700
C700
FE00
7800
ENDCHAR
STARTCHAR afii10023
ENCODING 168
SWIDTH 642 0
DWIDTH 12 0
BBX 10 16 2 0
BITMAP
1980
1980
0000
3FC0
3FC0
3800
3800
7000
7F00
7F00
7000
E000
E000
E000
FF00
FF00
ENDCHAR
STARTCHAR copyright
ENCODING 169
SWIDTH 834 0
DWIDTH 16 0
BBX 14 13 2 0
BITMAP
0FC0
3FF0
7038
6398
C6CC
CC0C
CC0C
CC0C
CE8C
6718
7038
3FF0
0FC0
ENDCHAR
STARTCHAR afii10053
ENCODING 170
SWIDTH 777 0
DWIDTH 14 0
BBX 13 13 2 0
BITMAP
07E0
1FF8
3C38
7000
7000
FF00
FF00
E000
E000
E000
7060
7FE0
1F80
ENDCHAR
STARTCHAR guillemotleft
ENCODING 171
SWIDTH 633 0
DWIDTH 12 0
BBX 11 8 1 2
BITMAP
0840
1CE0
39C0
7380
E700
7380
39C0
1080
ENDCHAR
STARTCHAR logicalnot
ENCODING 172
SWIDTH 687 0
DWIDTH 13 0
BBX 11 6 1 2
BITMAP
FFE0
FFE0
0060
0060
0060
0060
ENDCHAR
STARTCHAR hyphen
ENCODING 173
SWIDTH 289 0
DWIDTH 6 0
BBX 5 2 1 4
BITMAP
F8
F8
ENDCHAR
STARTCHAR registered
ENCODING 174
SWIDTH 691 0
DWIDTH 13 0
BBX 10 10 2 3
BITMAP
1E00
7F80
6180
DEC0
DAC0
DCC0
DAC0
6180
7F80
1E00
ENDCHAR
STARTCHAR afii10056
ENCODING 175
SWIDTH 361 0
DWIDTH 7 0
BBX 6 16 2 0
BITMAP
CC
CC
00
38
38
38
38
70
70
70
70
E0
E0
E0
E0
E0
ENDCHAR
STARTCHAR degree
ENCODING 176
SWIDTH 241 0
DWIDTH 5 0
BBX 5 3 1 10
BITMAP
70
D8
70
ENDCHAR
STARTCHAR plusminus
ENCODING 177
SWIDTH 687 0
DWIDTH 13 0
BBX 11 12 1 0
BITMAP
0300
0300
0300
0600
7FE0
7FE0
0600
0C00
0C00
0000
FFE0
FFE0
ENDCHAR
STARTCHAR afii10055
ENCODING 178
SWIDTH 361 0
DWIDTH 7 0
BBX 5 13 2 0
BITMAP
38
38
38
38
70
70
70
70
E0
E0
E0
E0
E0
ENDCHAR
STARTCHAR afii10103
ENCODING 179
SWIDTH 343 0
DWIDTH 6 0
BBX 7 14 1 0
BITMAP
0E
1C
00
00
38
38
38
70
70
70
70
E0
E0
E0
ENDCHAR
STARTCHAR afii10098
ENCODING 180
SWIDTH 611 0
DWIDTH 11 0
BBX 11 12 1 0
BITMAP
00E0
00E0
3FC0
3FC0
3800
7000
7000
7000
7000
E000
E000
E000
ENDCHAR
STARTCHAR mu
ENCODING 181
SWIDTH 681 0
DWIDTH 13 0
BBX 13 13 0 -3
BITMAP
1C38
1C38
1C38
3870
3870
38F0
71E0
73E0
7EE0
7CE0
E000
E000
E000
ENDCHAR
STARTCHAR paragraph
ENCODING 182
SWIDTH 687 0
DWIDTH 13 0
BBX 9 15 3 -2
BITMAP
3F80
7C80
FD80
FD80
F900
F900
7B00
1B00
1200
1200
3600
3600
2400
2400
2400
ENDCHAR
STARTCHAR periodcentered
ENCODING 183
SWIDTH 343 0
DWIDTH 13 0
BBX 3 3 6 4
BITMAP
E0
E0
E0
ENDCHAR
STARTCHAR afii10071
ENCODING 184
SWIDTH 612 0
DWIDTH 11 0
BBX 10 13 1 0
BITMAP
1980
1980
0000
0780
1FC0
39C0
71C0
7F80
FE00
E000
E180
FF80
7E00
ENDCHAR
STARTCHAR afii61352
ENCODING 185
SWIDTH 1166 0
DWIDTH 21 0
BBX 19 13 2 0
BITMAP
381800
3C1800
3C19C0
3E1BE0
3E1B60
673360
6733E0
63B1C0
63F000
C1E7C0
C1E7C0
C0E000
C0E000
ENDCHAR
STARTCHAR afii10101
ENCODING 186
SWIDTH 611 0
DWIDTH 11 0
BBX 10 10 1 0
BITMAP
0780
1FC0
38C0
7000
7E00
FE00
E000
E180
FF80
7E00
ENDCHAR
STARTCHAR guillemotright
ENCODING 187
SWIDTH 633 0
DWIDTH 12 0
BBX 11 8 1 2
BITMAP
2100
7380
39C0
1CE0
39C0
7380
E700
4200
ENDCHAR
STARTCHAR afii10105
ENCODING 188
SWIDTH 407 0
DWIDTH 7 0
BBX 11 17 -2 -3
BITMAP
00E0
01C0
0000
0000
0380
0380
0380
0700
0700
0700
0700
0E00
0E00
0E00
DC00
FC00
7000
ENDCHAR
STARTCHAR afii10054
ENCODING 189
SWIDTH 639 0
DWIDTH 12 0
BBX 11 13 1 0
BITMAP
07C0
1FE0
3C60
3800
3C00
1E00
0F00
0780
0380
0380
C780
FF00
7C00
ENDCHAR
STARTCHAR afii10102
ENCODING 190
SWIDTH 527 0
DWIDTH 11 0
BBX 10 10 1 0
BITMAP
1F80
3FC0
70C0
7800
3E00
1F00
0780
C380
FF00
7E00
ENDCHAR
STARTCHAR afii10104
ENCODING 191
SWIDTH 343 0
DWIDTH 6 0
BBX 6 13 1 0
BITMAP
CC
CC
00
38
38
38
70
70
70
70
E0
E0
E0
ENDCHAR
STARTCHAR afii10017
ENCODING 192
SWIDTH 777 0
DWIDTH 14 0
BBX 12 13 1 0
BITMAP
01C0
03C0
03C0
06E0
0CE0
0CE0
18E0
18E0
3FF0
7FF0
6070
E070
E070
ENDCHAR
STARTCHAR afii10018
ENCODING 193
SWIDTH 722 0
DWIDTH 13 0
BBX 11 13 2 0
BITMAP
3FE0
3FE0
3800
3800
7000
7E00
7F80
7380
E1C0
E1C0
E3C0
FF80
FE00
ENDCHAR
STARTCHAR afii10019
ENCODING 194
SWIDTH 722 0
DWIDTH 13 0
BBX 11 13 2 0
BITMAP
3FC0
3FE0
38E0
38E0
71C0
7F80
7F00
7380
E1C0
E1C0
E3C0
FF80
FE00
ENDCHAR
STARTCHAR afii10020
ENCODING 195
SWIDTH 666 0
DWIDTH 12 0
BBX 11 13 2 0
BITMAP
3FE0
3FE0
3800
3800
7000
7000
7000
7000
7000
E000
E000
E000
E000
ENDCHAR
STARTCHAR afii10021
ENCODING 196
SWIDTH 833 0
DWIDTH 15 0
BBX 15 16 0 -3
BITMAP
07FE
07FE
070E
070E
0E1C
0E1C
0E1C
0E1C
1C38
1C38
3838
7FFC
7FFC
E038
E038
E038
ENDCHAR
STARTCHAR afii10022
ENCODING 197
SWIDTH 666 0
DWIDTH 12 0
BBX 10 13 2 0
BITMAP
3FC0
3FC0
3800
3800
7000
7F00
7F00
7000
E000
E000
E000
FF00
FF00
ENDCHAR
STARTCHAR afii10024
ENCODING 198
SWIDTH 1111 0
DWIDTH 20 0
BBX 20 13 1 0
BITMAP
1C3870
0E38E0
0E39C0
063980
067300
037600
03FC00
07FE00
0FEF00
1EE780
3CE3C0
78E1E0
F0E0E0
ENDCHAR
STARTCHAR afii10025
ENCODING 199
SWIDTH 666 0
DWIDTH 12 0
BBX 11 13 1 0
BITMAP
0FC0
3FE0
30E0
00E0
01C0
1F80
1F00
0380
01C0
01C0
C3C0
FF80
3E00
ENDCHAR
STARTCHAR afii10026
ENCODING 200
SWIDTH 833 0
DWIDTH 15 0
BBX 13 13 2 0
BITMAP
3038
3078
30F8
31D8
31D8
63B0
6730
6E30
7C30
F860
F860
F060
E060
ENDCHAR
STARTCHAR afii10027
ENCODING 201
SWIDTH 833 0
DWIDTH 15 0
BBX 13 16 2 0
BITMAP
0660
03C0
0000
3038
3078
30F8
31D8
31D8
63B0
6730
6E30
7C30
F860
F860
F060
E060
ENDCHAR
STARTCHAR afii10028
ENCODING 202
SWIDTH 777 0
DWIDTH 14 0
BBX 12 13 2 0
BITMAP
3870
38E0
39C0
3980
7300
7600
7C00
7E00
EF00
E780
E3C0
E1E0
E0E0
ENDCHAR
STARTCHAR afii10029
ENCODING 203
SWIDTH 833 0
DWIDTH 15 0
BBX 15 13 0 0
BITMAP
07FE
07FE
070E
070E
0E1C
0E1C
0E1C
0E1C
1C38
1C38
3838
F838
E038
ENDCHAR
STARTCHAR afii10030
ENCODING 204
SWIDTH 1000 0
DWIDTH 18 0
BBX 16 13 2 0
BITMAP
3E0F
3E1F
3E1F
3737
3766
676E
67CE
678E
678E
C71C
C71C
C01C
C01C
ENDCHAR
STARTCHAR afii10031
ENCODING 205
SWIDTH 833 0
DWIDTH 15 0
BBX 13 13 2 0
BITMAP
3838
3838
3838
3838
7070
7FF0
7FF0
7070
E0E0
E0E0
E0E0
E0E0
E0E0
ENDCHAR
STARTCHAR afii10032
ENCODING 206
SWIDTH 888 0
DWIDTH 16 0
BBX 14 13 2 0
BITMAP
07E0
1FF8
3C38
701C
701C
E01C
E01C
E01C
E038
E038
70F0
7FE0
1F80
ENDCHAR
STARTCHAR afii10033
ENCODING 207
SWIDTH 833 0
DWIDTH 15 0
BBX 13 13 2 0
BITMAP
3FF8
3FF8
3838
3838
7070
7070
7070
7070
E0E0
E0E0
E0E0
E0E0
E0E0
ENDCHAR
STARTCHAR afii10034
ENCODING 208
SWIDTH 722 0
DWIDTH 13 0
BBX 11 13 2 0
BITMAP
3FC0
3FE0
38E0
38E0
70E0
71C0
7F80
7E00
E000
E000
E000
E000
E000
ENDCHAR
STARTCHAR afii10035
ENCODING 209
SWIDTH 777 0
DWIDTH 14 0
BBX 13 13 2 0
BITMAP
07E0
1FF8
3C38
7000
7000
E000
E000
E000
E000
E000
7060
7FE0
1F80
ENDCHAR
STARTCHAR afii10036
ENCODING 210
SWIDTH 777 0
DWIDTH 14 0
BBX 13 13 2 0
BITMAP
FFF8
FFF8
0700
0700
0E00
0E00
0E00
0E00
1C00
1C00
1C00
1C00
1C00
ENDCHAR
STARTCHAR afii10037
ENCODING 211
SWIDTH 777 0
DWIDTH 14 0
BBX 12 13 3 0
BITMAP
7070
7070
7060
70E0
39C0
3980
3B80
1F00
1E00
0E00
1C00
F800
E000
ENDCHAR
STARTCHAR afii10038
ENCODING 212
SWIDTH 944 0
DWIDTH 17 0
BBX 15 13 2 0
BITMAP
01C0
0FF0
3FFC
79DC
718E
E38E
E38E
E31C
773C
7FF8
1FE0
0700
0700
ENDCHAR
STARTCHAR afii10039
ENCODING 213
SWIDTH 722 0
DWIDTH 13 0
BBX 13 13 1 0
BITMAP
1C38
1C38
1C70
0E60
0EC0
0F80
0700
0F00
1B80
3380
71C0
E1C0
E1C0
ENDCHAR
STARTCHAR afii10040
ENCODING 214
SWIDTH 833 0
DWIDTH 15 0
BBX 13 16 2 -3
BITMAP
3838
3838
3838
3838
7070
7070
7070
7070
E0E0
E0E0
E0E0
FFF0
FFF0
00E0
00E0
00E0
ENDCHAR
STARTCHAR afii10041
ENCODING 215
SWIDTH 777 0
DWIDTH 14 0
BBX 12 13 2 0
BITMAP
7070
7070
7070
7070
E0E0
E0E0
F1E0
7FE0
3FC0
01C0
01C0
01C0
01C0
ENDCHAR
STARTCHAR afii10042
ENCODING 216
SWIDTH 1055 0
DWIDTH 19 0
BBX 17 13 2 0
BITMAP
38E380
38E380
38E380
38E380
71C700
71C700
71C700
71C700
E38E00
E38E00
E38E00
FFFE00
FFFE00
ENDCHAR
STARTCHAR afii10043
ENCODING 217
SWIDTH 1055 0
DWIDTH 19 0
BBX 17 16 2 -3
BITMAP
38E380
38E380
38E380
38E380
71C700
71C700
71C700
71C700
E38E00
E38E00
E38E00
FFFF00
FFFF00
000E00
000E00
000E00
ENDCHAR
STARTCHAR afii10044
ENCODING 218
SWIDTH 777 0
DWIDTH 14 0
BBX 10 13 3 0
BITMAP
F800
F800
3800
3800
7000
7E00
7F80
7380
E1C0
E1C0
E3C0
FF80
FE00
ENDCHAR
STARTCHAR afii10045
ENCODING 219
SWIDTH 1055 0
DWIDTH 19 0
BBX 17 13 2 0
BITMAP
380380
380380
380380
380380
700700
7E0700
7F8700
738700
E1CE00
E1CE00
E3CE00
FF8E00
FE0E00
ENDCHAR
STARTCHAR afii10046
ENCODING 220
SWIDTH 722 0
DWIDTH 13 0
BBX 10 13 2 0
BITMAP
3800
3800
3800
3800
7000
7E00
7F80
7380
E1C0
E1C0
E3C0
FF80
FE00
ENDCHAR
STARTCHAR afii10047
ENCODING 221
SWIDTH 777 0
DWIDTH 14 0
BBX 13 13 1 0
BITMAP
0FC0
3FF0
3870
0038
0038
07F8
07F8
0038
0070
0070
C1E0
FFC0
3F00
ENDCHAR
STARTCHAR afii10048
ENCODING 222
SWIDTH 1222 0
DWIDTH 22 0
BBX 20 13 2 0
BITMAP
381F80
387FE0
38F0E0
39C070
71C070
7F8070
7F8070
738070
E380E0
E380E0
E1C3C0
E1FF80
E07E00
ENDCHAR
STARTCHAR afii10049
ENCODING 223
SWIDTH 722 0
DWIDTH 13 0
BBX 12 13 1 0
BITMAP
0FF0
1FF0
3C70
3870
3CE0
1FE0
07E0
0EE0
1DC0
39C0
71C0
E1C0
E1C0
ENDCHAR
STARTCHAR afii10065
ENCODING 224
SWIDTH 722 0
DWIDTH 13 0
BBX 12 10 1 0
BITMAP
07F0
1FF0
3870
70E0
70E0
E1E0
E3C0
E7C0
FDC0
79C0
ENDCHAR
STARTCHAR afii10066
ENCODING 225
SWIDTH 666 0
DWIDTH 12 0
BBX 13 15 1 0
BITMAP
0018
01F8
07E0
0E00
1C00
3BC0
3FE0
7CE0
78E0
70E0
E1C0
E1C0
E380
FF00
7C00
ENDCHAR
STARTCHAR afii10067
ENCODING 226
SWIDTH 666 0
DWIDTH 12 0
BBX 12 14 1 0
BITMAP
01C0
07E0
0E70
1C70
38E0
39C0
73E0
72E0
70E0
E1C0
E1C0
E380
FF00
7C00
ENDCHAR
STARTCHAR afii10068
ENCODING 227
SWIDTH 611 0
DWIDTH 11 0
BBX 10 10 1 0
BITMAP
0F80
3FC0
31C0
03C0
1F80
7E00
F000
E180
FF80
7E00
ENDCHAR
STARTCHAR afii10069
ENCODING 228
SWIDTH 666 0
DWIDTH 12 0
BBX 11 14 1 0
BITMAP
0700
07C0
01C0
00E0
07E0
1FE0
38E0
70E0
70E0
E1C0
E1C0
E380
FF00
7C00
ENDCHAR
STARTCHAR afii10070
ENCODING 229
SWIDTH 611 0
DWIDTH 11 0
BBX 10 10 1 0
BITMAP
0780
1FC0
39C0
71C0
7F80
FE00
E000
E180
FF80
7E00
ENDCHAR
STARTCHAR afii10072
ENCODING 230
SWIDTH 1000 0
DWIDTH 18 0
BBX 18 10 0 0
BITMAP
1C71C0
1C71C0
0C7380
0CE600
07FC00
07FC00
1EEE00
79CF00
F1C780
E1C380
ENDCHAR
STARTCHAR afii10073
ENCODING 231
SWIDTH 611 0
DWIDTH 11 0
BBX 10 10 1 0
BITMAP
1F00
3F80
31C0
01C0
1F80
1F00
0380
C380
FF00
7E00
ENDCHAR
STARTCHAR afii10074
ENCODING 232
SWIDTH 722 0
DWIDTH 13 0
BBX 12 10 1 0
BITMAP
3870
3870
3870
70E0
70E0
71E0
E3C0
E7C0
FDC0
79C0
ENDCHAR
STARTCHAR afii10075
ENCODING 233
SWIDTH 722 0
DWIDTH 13 0
BBX 12 13 1 0
BITMAP
06C0
0380
0000
3870
3870
3870
70E0
70E0
71E0
E3C0
E7C0
FDC0
79C0
ENDCHAR
STARTCHAR afii10076
ENCODING 234
SWIDTH 666 0
DWIDTH 12 0
BBX 11 10 1 0
BITMAP
38E0
38E0
39C0
7300
7E00
7E00
7700
E780
E3C0
E1C0
ENDCHAR
STARTCHAR afii10077
ENCODING 235
SWIDTH 722 0
DWIDTH 13 0
BBX 13 10 0 0
BITMAP
0FF8
0FF8
0E38
0E38
1C70
1C70
1C70
38E0
F8E0
E0E0
ENDCHAR
STARTCHAR afii10078
ENCODING 236
SWIDTH 833 0
DWIDTH 15 0
BBX 14 10 1 0
BITMAP
3C3C
3C7C
3C5C
6EB8
6FB8
6738
6638
C670
C070
C070
ENDCHAR
STARTCHAR afii10079
ENCODING 237
SWIDTH 722 0
DWIDTH 13 0
BBX 12 10 1 0
BITMAP
3870
3870
3870
70E0
7FE0
7FE0
70E0
E1C0
E1C0
E1C0
ENDCHAR
STARTCHAR afii10080
ENCODING 238
SWIDTH 666 0
DWIDTH 12 0
BBX 11 10 1 0
BITMAP
07C0
1FE0
38E0
70E0
70E0
E1C0
E1C0
E380
FF00
7C00
ENDCHAR
STARTCHAR afii10081
ENCODING 239
SWIDTH 722 0
DWIDTH 13 0
BBX 12 10 1 0
BITMAP
39E0
3BF0
3E70
3C70
78E0
70E0
70E0
E1C0
E1C0
E1C0
ENDCHAR
STARTCHAR afii10082
ENCODING 240
SWIDTH 722 0
DWIDTH 13 0
BBX 13 13 0 -3
BITMAP
1CF0
1DF8
1F38
1E38
3C38
3870
3870
70E0
7FC0
7F00
E000
E000
E000
ENDCHAR
STARTCHAR afii10083
ENCODING 241
SWIDTH 611 0
DWIDTH 11 0
BBX 10 10 1 0
BITMAP
0780
1FC0
38C0
7000
7000
E000
E000
E180
FF80
7E00
ENDCHAR
STARTCHAR afii10084
ENCODING 242
SWIDTH 1000 0
DWIDTH 18 0
BBX 17 10 1 0
BITMAP
39C700
3BEF80
3EFB80
7CF380
79E700
71C700
71C700
E38E00
E38E00
E38E00
ENDCHAR
STARTCHAR afii10085
ENCODING 243
SWIDTH 666 0
DWIDTH 12 0
BBX 13 13 0 -3
BITMAP
1C38
1C38
1C70
1C60
1CE0
1CC0
1D80
1F00
1E00
1C00
3800
F000
E000
ENDCHAR
STARTCHAR afii10086
ENCODING 244
SWIDTH 1000 0
DWIDTH 18 0
BBX 17 17 1 -3
BITMAP
007000
007000
007000
00E000
06EF00
1FDF80
39F380
71E380
71C380
E1C700
E3C700
E7CE00
FFFC00
7BB000
070000
070000
070000
ENDCHAR
STARTCHAR afii10087
ENCODING 245
SWIDTH 611 0
DWIDTH 11 0
BBX 11 10 0 0
BITMAP
1CE0
1CE0
1CC0
0F80
0F00
1F00
3700
6380
E380
E380
ENDCHAR
STARTCHAR afii10088
ENCODING 246
SWIDTH 722 0
DWIDTH 13 0
BBX 12 12 1 -2
BITMAP
3870
3870
3870
70E0
70E0
71E0
E3C0
E7C0
FDE0
79E0
01C0
01C0
ENDCHAR
STARTCHAR afii10089
ENCODING 247
SWIDTH 722 0
DWIDTH 13 0
BBX 11 10 2 0
BITMAP
70E0
70E0
70E0
E1C0
E3C0
FFC0
7B80
0380
0380
0380
ENDCHAR
STARTCHAR afii10090
ENCODING 248
SWIDTH 1000 0
DWIDTH 18 0
BBX 17 10 1 0
BITMAP
38E380
38E380
38E380
71C700
71C700
73CF00
E79F00
EFBE00
FBEE00
71CE00
ENDCHAR
STARTCHAR afii10091
ENCODING 249
SWIDTH 1000 0
DWIDTH 18 0
BBX 17 12 1 -2
BITMAP
38E380
38E380
38E380
71C700
71C700
73CF00
E79F00
EFBE00
FBEF00
71CF00
000E00
000E00
ENDCHAR
STARTCHAR afii10092
ENCODING 250
SWIDTH 666 0
DWIDTH 12 0
BBX 10 10 2 0
BITMAP
F800
F800
3B80
77C0
79C0
71C0
E380
E780
FF00
7C00
ENDCHAR
STARTCHAR afii10093
ENCODING 251
SWIDTH 944 0
DWIDTH 17 0
BBX 16 10 1 0
BITMAP
3807
3807
3B87
77CE
79CE
71CE
E38E
E79C
FF1C
7C1C
ENDCHAR
STARTCHAR afii10094
ENCODING 252
SWIDTH 611 0
DWIDTH 11 0
BBX 10 10 1 0
BITMAP
3800
3800
3B80
77C0
79C0
71C0
E380
E780
FF00
7C00
ENDCHAR
STARTCHAR afii10095
ENCODING 253
SWIDTH 611 0
DWIDTH 11 0
BBX 10 10 1 0
BITMAP
1F80
3FC0
31C0
01C0
1FC0
1F80
0380
C700
FE00
7800
ENDCHAR
STARTCHAR afii10096
ENCODING 254
SWIDTH 1000 0
DWIDTH 18 0
BBX 17 10 1 0
BITMAP
381F00
387F80
38E380
71C380
7FC380
7F8700
738700
E38E00
E3FC00
E1F000
ENDCHAR
STARTCHAR afii10097
ENCODING 255
SWIDTH 666 0
DWIDTH 12 0
BBX 12 10 0 0
BITMAP
0FF0
1FF0
3870
38E0
1FE0
0FE0
1CE0
39C0
F1C0
E1C0
ENDCHAR
STARTCHAR fl
ENCODING -1
SWIDTH 695 0
DWIDTH 13 0
BBX 14 17 0 -3
BITMAP
03FC
07FC
0E1C
0E1C
3FB8
3FB8
1C38
1C70
3870
3870
3870
70E0
70E0
70E0
E000
E000
E000
ENDCHAR
STARTCHAR Zcaron
ENCODING -1
SWIDTH 687 0
DWIDTH 13 0
BBX 12 16 1 0
BITMAP
06C0
0380
0000
3FF0
3FF0
00F0
01E0
03C0
0780
0F00
1E00
3C00
7800
F000
FFC0
FFC0
ENDCHAR
STARTCHAR oe
ENCODING -1
SWIDTH 1004 0
DWIDTH 18 0
BBX 17 10 1 0
BITMAP
079F00
1FFF80
38E380
70E380
70FF00
E1FC00
E1C000
E3C300
FFFF00
7CFE00
ENDCHAR
STARTCHAR Ydieresis
ENCODING -1
SWIDTH 681 0
DWIDTH 12 0
BBX 11 16 3 0
BITMAP
1980
1980
0000
E0E0
E0E0
E1C0
F380
7300
7600
3C00
3800
3800
7000
7000
7000
7000
ENDCHAR
STARTCHAR dotlessi
ENCODING -1
SWIDTH 343 0
DWIDTH 6 0
BBX 5 10 1 0
BITMAP
38
38
38
70
70
70
70
E0
E0
E0
ENDCHAR
STARTCHAR lslash
ENCODING -1
SWIDTH 343 0
DWIDTH 7 0
BBX 8 14 0 0
BITMAP
0E
0E
0E
0E
1C
1F
FF
F8
38
38
38
70
70
70
ENDCHAR
STARTCHAR Lslash
ENCODING -1
SWIDTH 623 0
DWIDTH 12 0
BBX 11 13 1 0
BITMAP
0E00
0E00
0E00
0E00
1D80
1F80
FC00
D800
3800
3800
3800
3FE0
3FE0
ENDCHAR
STARTCHAR fi
ENCODING -1
SWIDTH 695 0
DWIDTH 13 0
BBX 13 17 0 -3
BITMAP
03E0
07F8
0E38
0E00
3FF8
3FF8
1C38
1C70
3870
3870
3870
70E0
70E0
70E0
E000
E000
E000
ENDCHAR
STARTCHAR OE
ENCODING -1
SWIDTH 1103 0
DWIDTH 20 0
BBX 18 13 2 0
BITMAP
07FFC0
1FFFC0
3C3800
703800
707000
E07F00
E07F00
E07000
E0E000
E0E000
70E000
7FFF00
1FFF00
ENDCHAR
STARTCHAR caron
ENCODING -1
SWIDTH 663 0
DWIDTH 12 0
BBX 5 2 5 11
BITMAP
D8
70
ENDCHAR
STARTCHAR ogonek
ENCODING -1
SWIDTH 663 0
DWIDTH 12 0
BBX 5 3 2 -3
BITMAP
70
E0
78
ENDCHAR
STARTCHAR hungarumlaut
ENCODING -1
SWIDTH 663 0
DWIDTH 12 0
BBX 5 3 6 11
BITMAP
48
D8
90
ENDCHAR
STARTCHAR dotaccent
ENCODING -1
SWIDTH 663 0
DWIDTH 12 0
BBX 3 2 7 11
BITMAP
E0
E0
ENDCHAR
STARTCHAR breve
ENCODING -1
SWIDTH 663 0
DWIDTH 12 0
BBX 5 3 5 11
BITMAP
88
F8
70
ENDCHAR
STARTCHAR tilde
ENCODING -1
SWIDTH 663 0
DWIDTH 12 0
BBX 6 2 5 11
BITMAP
74
B8
ENDCHAR
STARTCHAR circumflex
ENCODING -1
SWIDTH 663 0
DWIDTH 12 0
BBX 5 2 5 11
BITMAP
70
D8
ENDCHAR
STARTCHAR scaron
ENCODING -1
SWIDTH 527 0
DWIDTH 11 0
BBX 10 13 1 0
BITMAP
1B00
0E00
0000
1F80
3FC0
70C0
7800
3E00
1F00
0780
C380
FF00
7E00
ENDCHAR
STARTCHAR ring
ENCODING -1
SWIDTH 663 0
DWIDTH 12 0
BBX 5 3 6 11
BITMAP
70
D8
70
ENDCHAR
STARTCHAR florin
ENCODING -1
SWIDTH 687 0
DWIDTH 13 0
BBX 12 15 2 -2
BITMAP
01E0
07F0
0E30
0E00
1C00
FFC0
FFC0
3800
3800
7000
7000
7000
E000
E000
E000
ENDCHAR
STARTCHAR fraction
ENCODING -1
SWIDTH 130 0
DWIDTH 6 0
BBX 10 13 -1 0
BITMAP
00C0
01C0
0180
0380
0700
0600
0C00
1C00
3800
3000
7000
E000
C000
ENDCHAR
STARTCHAR Scaron
ENCODING -1
SWIDTH 639 0
DWIDTH 12 0
BBX 11 16 1 0
BITMAP
06C0
0380
0000
07C0
1FE0
3C60
3800
3C00
1E00
0F00
0780
0380
0380
C780
FF00
7C00
ENDCHAR
STARTCHAR zcaron
ENCODING -1
SWIDTH 630 0
DWIDTH 12 0
BBX 11 13 1 0
BITMAP
0D80
0700
0000
7FE0
7FE0
03C0
0780
0F00
1E00
3C00
7800
FFC0
FFC0
ENDCHAR
ENDFONT
