STARTFONT 2.1
COMMENT $XConsortium: luBS24.bdf,v 1.7 94/04/02 15:59:41 gildea Exp $
COMMENT  (c) Copyright Bigelow & Holmes 1986, 1985. Lucida is a registered
COMMENT  trademark of Bigelow & Holmes. See LEGAL NOTICE file for terms 
COMMENT  of the license. 
FONT -RFX-Serene-Bold-R-Normal-Sans-24-240-75-75-P-152-windows-1251
SIZE 24 72 72
FONTBOUNDINGBOX 49 27 -18 -5
STARTPROPERTIES 24
FONTNAME_REGISTRY ""
FOUNDRY "RFX"
FAMILY_NAME "Serene"
WEIGHT_NAME "Bold"
SLANT "R"
SETWIDTH_NAME "Normal"
ADD_STYLE_NAME "Sans"
PIXEL_SIZE 24
POINT_SIZE 240
RESOLUTION_X 75
RESOLUTION_Y 75
SPACING "P"
AVERAGE_WIDTH 152
CHARSET_REGISTRY "windows"
CHARSET_ENCODING "1251"
FONT_ASCENT 22
FONT_DESCENT 5
DEFAULT_CHAR 32
COPYRIGHT "Copyright Bigelow & Holmes 1986, 1985."
FACE_NAME "Lucida Sans Bold"
COPYRIGHT2 "Cyrillic and Euro glyphs copyright 2000 Dmitry Yu. Bolkhovityanov, bolkhov@inp.nsk.su"
SOURCEDATE "Sat Jul 29 13:41:30 2000"
PKGVERSION "1.1"
ASSEMBLER "cvtbdf.pl (Linux)"
ENDPROPERTIES
CHARS 244
STARTCHAR space
ENCODING 32
SWIDTH 343 0
DWIDTH 8 0
BBX 0 0 0 0
BITMAP
ENDCHAR
STARTCHAR exclam
ENCODING 33
SWIDTH 265 0
DWIDTH 8 0
BBX 5 17 2 0
BITMAP
F8
F8
F8
F8
F8
F8
F8
F8
70
70
70
70
00
00
F8
F8
F8
ENDCHAR
STARTCHAR quotedbl
ENCODING 34
SWIDTH 530 0
DWIDTH 13 0
BBX 11 8 1 10
BITMAP
FBE0
FBE0
F3E0
F3E0
71C0
71C0
71C0
71C0
ENDCHAR
STARTCHAR numbersign
ENCODING 35
SWIDTH 687 0
DWIDTH 16 0
BBX 15 17 1 0
BITMAP
0318
0318
0638
0630
7FFE
7FFE
0C60
0C60
0C60
1C60
FFFC
FFF8
18C0
18C0
31C0
3180
3180
ENDCHAR
STARTCHAR dollar
ENCODING 36
SWIDTH 687 0
DWIDTH 16 0
BBX 13 23 2 -3
BITMAP
0700
0700
0700
1FF0
3FF0
7FF0
7B00
7B00
7F00
7F00
3F80
0FC0
07E0
07F0
06F8
0678
8678
FFF0
FFF0
7FC0
0700
0700
0700
ENDCHAR
STARTCHAR percent
ENCODING 37
SWIDTH 898 0
DWIDTH 22 0
BBX 21 17 0 0
BITMAP
3E01E0
7F03C0
FF8380
E38700
E38F00
FF9E00
7F3C00
3E7800
0073E0
00F7F0
01EFF8
03CE38
078E38
070E38
0F0FF8
1E07F0
3C03E0
ENDCHAR
STARTCHAR ampersand
ENCODING 38
SWIDTH 792 0
DWIDTH 19 0
BBX 18 17 0 0
BITMAP
07F000
0FF800
1FFC00
1F3C00
1F3C00
0FF800
0FF000
1FE3C0
3FF3C0
7BF3C0
F9FB80
F8FF80
F8FF00
FC7E00
7FFE00
3FFF00
0FCF80
ENDCHAR
STARTCHAR quotesingle
ENCODING 39
SWIDTH 265 0
DWIDTH 6 0
BBX 5 8 1 10
BITMAP
F8
F8
F8
F8
70
70
70
70
ENDCHAR
STARTCHAR parenleft
ENCODING 40
SWIDTH 386 0
DWIDTH 9 0
BBX 7 23 1 -5
BITMAP
02
06
0E
1E
3C
7C
7C
78
F8
F8
F8
F8
F8
F8
F8
78
7C
7C
3C
1E
0E
06
02
ENDCHAR
STARTCHAR parenright
ENCODING 41
SWIDTH 386 0
DWIDTH 9 0
BBX 7 23 1 -5
BITMAP
80
C0
E0
F0
78
7C
7C
3C
3E
3E
3E
3E
3E
3E
3E
3C
7C
7C
78
F0
E0
C0
80
ENDCHAR
STARTCHAR asterisk
ENCODING 42
SWIDTH 464 0
DWIDTH 11 0
BBX 9 9 1 8
BITMAP
1C00
5D00
4900
F780
E380
1400
7700
7700
2400
ENDCHAR
STARTCHAR plus
ENCODING 43
SWIDTH 687 0
DWIDTH 16 0
BBX 15 14 1 0
BITMAP
0380
0380
0380
0380
0380
FFFE
FFFE
FFFE
0380
0380
0380
0380
0380
0380
ENDCHAR
STARTCHAR comma
ENCODING 44
SWIDTH 343 0
DWIDTH 8 0
BBX 5 9 2 -4
BITMAP
F8
F8
F8
F8
F8
38
70
F0
C0
ENDCHAR
STARTCHAR minus
ENCODING 45
SWIDTH 687 0
DWIDTH 16 0
BBX 14 3 1 6
BITMAP
FFFC
FFFC
FFFC
ENDCHAR
STARTCHAR period
ENCODING 46
SWIDTH 343 0
DWIDTH 8 0
BBX 5 5 2 0
BITMAP
F8
F8
F8
F8
F8
ENDCHAR
STARTCHAR slash
ENCODING 47
SWIDTH 596 0
DWIDTH 14 0
BBX 14 22 0 -4
BITMAP
003C
0038
0078
0070
00F0
00E0
01E0
01C0
01C0
0380
0380
0700
0700
0E00
0E00
1C00
1C00
3800
3800
7800
7000
F000
ENDCHAR
STARTCHAR zero
ENCODING 48
SWIDTH 687 0
DWIDTH 16 0
BBX 15 17 1 0
BITMAP
07C0
1FF0
3FF8
7C7C
783C
F83E
F83E
F83E
F83E
F83E
F83E
F83E
783C
7C7C
3FF8
1FF0
07C0
ENDCHAR
STARTCHAR one
ENCODING 49
SWIDTH 687 0
DWIDTH 16 0
BBX 7 17 4 0
BITMAP
FE
FE
FE
3E
3E
3E
3E
3E
3E
3E
3E
3E
3E
3E
3E
3E
3E
ENDCHAR
STARTCHAR two
ENCODING 50
SWIDTH 687 0
DWIDTH 16 0
BBX 13 17 1 0
BITMAP
3FC0
FFE0
FFF0
C1F8
00F8
00F8
00F8
01F0
03E0
07C0
0F80
1F00
7C00
F800
FFF8
FFF8
FFF8
ENDCHAR
STARTCHAR three
ENCODING 51
SWIDTH 687 0
DWIDTH 16 0
BBX 13 17 2 0
BITMAP
3F80
FFE0
FFF0
83F0
01F0
01F0
03E0
3FC0
3FC0
3FE0
01F0
00F8
00F8
C1F8
FFF0
FFF0
7F80
ENDCHAR
STARTCHAR four
ENCODING 52
SWIDTH 687 0
DWIDTH 16 0
BBX 15 17 1 0
BITMAP
00F8
01F8
03F8
07F8
0FF8
1EF8
3CF8
7CF8
78F8
F0F8
FFFE
FFFE
FFFE
00F8
00F8
00F8
00F8
ENDCHAR
STARTCHAR five
ENCODING 53
SWIDTH 687 0
DWIDTH 16 0
BBX 12 17 3 0
BITMAP
FFF0
FFF0
FFF0
E000
E000
E000
FE00
FFC0
FFE0
07E0
01F0
01F0
01F0
83F0
FFE0
FFC0
7F00
ENDCHAR
STARTCHAR six
ENCODING 54
SWIDTH 687 0
DWIDTH 16 0
BBX 14 17 1 0
BITMAP
07F0
1FF8
3FF8
7E08
7C00
F800
FBE0
FFF8
FFF8
FCFC
F87C
F87C
787C
7CFC
3FF8
1FF0
0FC0
ENDCHAR
STARTCHAR seven
ENCODING 55
SWIDTH 687 0
DWIDTH 16 0
BBX 13 17 3 0
BITMAP
FFF8
FFF8
FFF8
0078
00F0
01E0
03E0
07C0
0780
0F00
1F00
1E00
3E00
3C00
7C00
7C00
7C00
ENDCHAR
STARTCHAR eight
ENCODING 56
SWIDTH 687 0
DWIDTH 16 0
BBX 14 17 1 0
BITMAP
0FC0
3FF0
7FF8
78F8
7878
7C78
3FF0
1FE0
1FF0
3DF8
787C
F83C
F83C
FC7C
FFF8
7FF0
1FC0
ENDCHAR
STARTCHAR nine
ENCODING 57
SWIDTH 687 0
DWIDTH 16 0
BBX 14 17 1 0
BITMAP
0FC0
3FE0
7FF0
FCF8
F878
F87C
F87C
FCFC
7FFC
7FFC
1E7C
007C
00F8
41F8
7FF0
7FE0
3F80
ENDCHAR
STARTCHAR colon
ENCODING 58
SWIDTH 343 0
DWIDTH 8 0
BBX 5 13 2 0
BITMAP
F8
F8
F8
F8
F8
00
00
00
F8
F8
F8
F8
F8
ENDCHAR
STARTCHAR semicolon
ENCODING 59
SWIDTH 343 0
DWIDTH 8 0
BBX 5 17 2 -4
BITMAP
F8
F8
F8
F8
F8
00
00
00
F8
F8
F8
F8
F8
38
70
F0
C0
ENDCHAR
STARTCHAR less
ENCODING 60
SWIDTH 687 0
DWIDTH 16 0
BBX 14 14 1 0
BITMAP
0004
001C
007C
01F8
07E0
1F80
FE00
7E00
1F80
07E0
01F8
007C
001C
0004
ENDCHAR
STARTCHAR equal
ENCODING 61
SWIDTH 687 0
DWIDTH 16 0
BBX 14 9 1 2
BITMAP
FFFC
FFFC
FFFC
0000
0000
0000
FFFC
FFFC
FFFC
ENDCHAR
STARTCHAR greater
ENCODING 62
SWIDTH 687 0
DWIDTH 16 0
BBX 14 14 1 0
BITMAP
8000
E000
F800
7E00
1F80
07E0
01F8
01FC
07E0
1F80
7E00
F800
E000
8000
ENDCHAR
STARTCHAR question
ENCODING 63
SWIDTH 572 0
DWIDTH 14 0
BBX 12 17 1 0
BITMAP
7F80
FFE0
FFF0
83F0
01F0
01F0
01E0
03C0
0780
0F00
1F00
1F00
0000
0000
1F00
1F00
1F00
ENDCHAR
STARTCHAR at
ENCODING 64
SWIDTH 833 0
DWIDTH 20 0
BBX 19 17 2 0
BITMAP
00FC00
03FF00
0F03C0
1C01C0
38FCE0
71FC60
638C60
E70860
CE3860
CE78C0
CFD9C0
CF9F80
E71E00
600000
382000
1FF000
07C000
ENDCHAR
STARTCHAR A
ENCODING 65
SWIDTH 773 0
DWIDTH 19 0
BBX 18 17 0 0
BITMAP
03F000
03F000
03F800
07F800
07F800
07FC00
0E7C00
0E7E00
1E3E00
1C3E00
1FFF00
3FFF00
3FFF80
780F80
700F80
7007C0
E007C0
ENDCHAR
STARTCHAR B
ENCODING 66
SWIDTH 669 0
DWIDTH 16 0
BBX 14 17 2 0
BITMAP
FFE0
FFF0
FFF8
F8F8
F8F8
F8F8
F9F0
FFC0
FFC0
FFF0
F8F8
F87C
F87C
F87C
FFFC
FFF8
FFE0
ENDCHAR
STARTCHAR C
ENCODING 67
SWIDTH 726 0
DWIDTH 17 0
BBX 16 17 1 0
BITMAP
03FE
0FFF
3FFF
7F03
7C00
FC00
F800
F800
F800
F800
F800
FC00
7E00
7F01
3FFF
0FFF
03FC
ENDCHAR
STARTCHAR D
ENCODING 68
SWIDTH 819 0
DWIDTH 20 0
BBX 17 17 2 0
BITMAP
FFF000
FFFC00
FFFE00
F87F00
F81F00
F81F80
F80F80
F80F80
F80F80
F80F80
F80F80
F80F80
F81F00
F83F00
FFFE00
FFFC00
FFF000
ENDCHAR
STARTCHAR E
ENCODING 69
SWIDTH 645 0
DWIDTH 15 0
BBX 13 17 2 0
BITMAP
FFF0
FFF0
FFF0
F800
F800
F800
F800
FFE0
FFE0
FFE0
F800
F800
F800
F800
FFF8
FFF8
FFF8
ENDCHAR
STARTCHAR F
ENCODING 70
SWIDTH 602 0
DWIDTH 14 0
BBX 12 17 2 0
BITMAP
FFF0
FFF0
FFF0
F800
F800
F800
F800
FFE0
FFE0
FFE0
F800
F800
F800
F800
F800
F800
F800
ENDCHAR
STARTCHAR G
ENCODING 71
SWIDTH 759 0
DWIDTH 18 0
BBX 16 17 1 0
BITMAP
03FF
0FFF
3FFF
3F03
7C00
FC00
F800
F800
F81F
F81F
F81F
FC1F
7C1F
7F1F
3FFF
0FFF
03FE
ENDCHAR
STARTCHAR H
ENCODING 72
SWIDTH 813 0
DWIDTH 20 0
BBX 15 17 2 0
BITMAP
F83E
F83E
F83E
F83E
F83E
F83E
F83E
FFFE
FFFE
FFFE
F83E
F83E
F83E
F83E
F83E
F83E
F83E
ENDCHAR
STARTCHAR I
ENCODING 73
SWIDTH 361 0
DWIDTH 9 0
BBX 5 17 2 0
BITMAP
F8
F8
F8
F8
F8
F8
F8
F8
F8
F8
F8
F8
F8
F8
F8
F8
F8
ENDCHAR
STARTCHAR J
ENCODING 74
SWIDTH 501 0
DWIDTH 12 0
BBX 10 21 0 -4
BITMAP
07C0
07C0
07C0
07C0
07C0
07C0
07C0
07C0
07C0
07C0
07C0
07C0
07C0
07C0
07C0
07C0
07C0
87C0
FF80
FF80
7E00
ENDCHAR
STARTCHAR K
ENCODING 75
SWIDTH 753 0
DWIDTH 18 0
BBX 16 17 2 0
BITMAP
F81E
F83C
F878
F8F0
F8E0
F9E0
FBC0
FFC0
FFC0
FFE0
FBF0
FBF0
F9F8
F8FC
F8FE
F87E
F83F
ENDCHAR
STARTCHAR L
ENCODING 76
SWIDTH 620 0
DWIDTH 15 0
BBX 13 17 2 0
BITMAP
F800
F800
F800
F800
F800
F800
F800
F800
F800
F800
F800
F800
F800
F800
FFF8
FFF8
FFF8
ENDCHAR
STARTCHAR M
ENCODING 77
SWIDTH 940 0
DWIDTH 23 0
BBX 18 17 2 0
BITMAP
FC0FC0
FC0FC0
FC1FC0
FE1FC0
FE1FC0
FE3FC0
EF3FC0
EF3FC0
EF7FC0
E7F7C0
E7F7C0
E7F7C0
E7E7C0
E3E7C0
E3E7C0
E3C7C0
E007C0
ENDCHAR
STARTCHAR N
ENCODING 78
SWIDTH 783 0
DWIDTH 19 0
BBX 15 17 2 0
BITMAP
F00E
F80E
FC0E
FE0E
FF0E
FF0E
FF8E
EFCE
EFEE
E7EE
E3FE
E1FE
E1FE
E0FE
E07E
E03E
E01E
ENDCHAR
STARTCHAR O
ENCODING 79
SWIDTH 855 0
DWIDTH 21 0
BBX 19 17 1 0
BITMAP
03F800
0FFE00
3FFF80
7E0FC0
7C07C0
FC07E0
F803E0
F803E0
F803E0
F803E0
F803E0
FC07E0
7C07C0
7E0FC0
3FFF80
0FFE00
03F800
ENDCHAR
STARTCHAR P
ENCODING 80
SWIDTH 657 0
DWIDTH 16 0
BBX 14 17 2 0
BITMAP
FFF0
FFF8
FFFC
F8FC
F87C
F87C
F87C
F8F8
FFF8
FFF0
FFC0
F800
F800
F800
F800
F800
F800
ENDCHAR
STARTCHAR Q
ENCODING 81
SWIDTH 855 0
DWIDTH 21 0
BBX 22 21 1 -4
BITMAP
03F800
0FFE00
3FFF80
7E0FC0
7C07C0
FC07E0
F803E0
F803E0
F803E0
F803E0
F803E0
FC07E0
7C07C0
7E0F80
3FFF80
0FFE00
03FE00
001FFC
0007F8
0003F0
000060
ENDCHAR
STARTCHAR R
ENCODING 82
SWIDTH 734 0
DWIDTH 18 0
BBX 16 17 2 0
BITMAP
FFC0
FFF0
FFF8
F8F8
F8F8
F8F8
F9F8
FFF0
FFE0
FFE0
FBF0
F9F0
F9F8
F8F8
F8FC
F87E
F87F
ENDCHAR
STARTCHAR S
ENCODING 83
SWIDTH 594 0
DWIDTH 14 0
BBX 13 17 1 0
BITMAP
1FF0
7FF0
7FF0
F830
F800
FE00
FF00
7FC0
3FF0
1FF0
07F8
01F8
00F8
C1F8
FFF0
FFE0
FF80
ENDCHAR
STARTCHAR T
ENCODING 84
SWIDTH 735 0
DWIDTH 18 0
BBX 17 17 0 0
BITMAP
FFFF80
FFFF80
FFFF80
03E000
03E000
03E000
03E000
03E000
03E000
03E000
03E000
03E000
03E000
03E000
03E000
03E000
03E000
ENDCHAR
STARTCHAR U
ENCODING 85
SWIDTH 783 0
DWIDTH 19 0
BBX 15 17 2 0
BITMAP
F83E
F83E
F83E
F83E
F83E
F83E
F83E
F83E
F83E
F83E
F83E
F83E
F83E
7C7C
7FFC
3FF8
0FE0
ENDCHAR
STARTCHAR V
ENCODING 86
SWIDTH 735 0
DWIDTH 18 0
BBX 17 17 0 0
BITMAP
F80380
FC0780
7C0700
7C0700
7E0E00
3E0E00
3F0E00
1F1C00
1F1C00
1FBC00
0FB800
0FB800
0FF800
07F000
07F000
03E000
03E000
ENDCHAR
STARTCHAR W
ENCODING 87
SWIDTH 940 0
DWIDTH 23 0
BBX 22 17 0 0
BITMAP
F83C1C
F87C1C
F87C38
FC7C38
7C7E38
7CFE38
7CFE70
7EFE70
3EFE70
3FEF70
3FCFE0
3FCFE0
1FCFE0
1FCFE0
1F87C0
1F87C0
0F87C0
ENDCHAR
STARTCHAR X
ENCODING 88
SWIDTH 699 0
DWIDTH 17 0
BBX 16 17 1 0
BITMAP
FC0F
7E1E
3E3C
3F38
1FF8
1FF0
0FE0
07E0
07E0
07F0
0FF0
0FF8
1EF8
3CFC
387E
787E
F03F
ENDCHAR
STARTCHAR Y
ENCODING 89
SWIDTH 738 0
DWIDTH 18 0
BBX 17 17 0 0
BITMAP
FC0780
7C0700
7E0E00
3F1E00
3F1C00
1FBC00
0FF800
0FF000
07F000
07E000
03E000
03E000
03E000
03E000
03E000
03E000
03E000
ENDCHAR
STARTCHAR Z
ENCODING 90
SWIDTH 675 0
DWIDTH 16 0
BBX 13 17 1 0
BITMAP
FFF8
FFF8
FFF8
01F8
03F0
03F0
07E0
0FC0
1FC0
1F80
3F00
7E00
7E00
FC00
FFF8
FFF8
FFF8
ENDCHAR
STARTCHAR bracketleft
ENCODING 91
SWIDTH 386 0
DWIDTH 9 0
BBX 6 22 2 -4
BITMAP
FC
FC
FC
F0
F0
F0
F0
F0
F0
F0
F0
F0
F0
F0
F0
F0
F0
F0
F0
FC
FC
FC
ENDCHAR
STARTCHAR backslash
ENCODING 92
SWIDTH 596 0
DWIDTH 14 0
BBX 14 22 0 -4
BITMAP
F000
7000
7800
3800
3800
1C00
1C00
0E00
0E00
0700
0700
0380
0380
01C0
01C0
01E0
00E0
00F0
0070
0078
0038
003C
ENDCHAR
STARTCHAR bracketright
ENCODING 93
SWIDTH 386 0
DWIDTH 9 0
BBX 6 22 1 -4
BITMAP
FC
FC
FC
3C
3C
3C
3C
3C
3C
3C
3C
3C
3C
3C
3C
3C
3C
3C
3C
FC
FC
FC
ENDCHAR
STARTCHAR asciicircum
ENCODING 94
SWIDTH 687 0
DWIDTH 16 0
BBX 14 14 1 3
BITMAP
0100
0300
0300
0780
0780
0FC0
0FC0
1CE0
1CE0
3870
3870
7038
7038
E01C
ENDCHAR
STARTCHAR underscore
ENCODING 95
SWIDTH 500 0
DWIDTH 12 0
BBX 11 3 1 -3
BITMAP
FFE0
FFE0
FFE0
ENDCHAR
STARTCHAR grave
ENCODING 96
SWIDTH 675 0
DWIDTH 16 0
BBX 6 3 4 15
BITMAP
F0
38
1C
ENDCHAR
STARTCHAR a
ENCODING 97
SWIDTH 623 0
DWIDTH 15 0
BBX 13 13 1 0
BITMAP
3F80
7FE0
7FF0
41F0
01F0
3FF0
7FF0
FFF0
F9F0
F9F0
FFF8
7FF8
3CF8
ENDCHAR
STARTCHAR b
ENCODING 98
SWIDTH 696 0
DWIDTH 17 0
BBX 14 18 2 0
BITMAP
F800
F800
F800
F800
F800
F9E0
FBF8
FFF8
FCFC
F87C
F87C
F87C
F87C
F87C
FCF8
FFF8
FFF0
F3E0
ENDCHAR
STARTCHAR c
ENCODING 99
SWIDTH 545 0
DWIDTH 13 0
BBX 12 13 1 0
BITMAP
0FE0
3FF0
7FF0
7E10
FC00
F800
F800
F800
FC00
7E10
7FF0
3FF0
0FF0
ENDCHAR
STARTCHAR d
ENCODING 100
SWIDTH 696 0
DWIDTH 17 0
BBX 14 18 1 0
BITMAP
007C
007C
007C
007C
007C
1E7C
3FFC
7FFC
FCFC
F87C
F87C
F87C
F87C
F87C
FCFC
7FFC
7F7C
1E7C
ENDCHAR
STARTCHAR e
ENCODING 101
SWIDTH 614 0
DWIDTH 15 0
BBX 13 13 1 0
BITMAP
0FC0
3FE0
7FF0
78F0
F8F8
FFF8
FFF8
FFF8
F800
7C08
7FF8
3FF8
0FF0
ENDCHAR
STARTCHAR f
ENCODING 102
SWIDTH 461 0
DWIDTH 11 0
BBX 11 18 0 0
BITMAP
0FE0
1FE0
3FE0
3E00
3E00
FFC0
FFC0
FFC0
3E00
3E00
3E00
3E00
3E00
3E00
3E00
3E00
3E00
3E00
ENDCHAR
STARTCHAR g
ENCODING 103
SWIDTH 696 0
DWIDTH 17 0
BBX 14 18 1 -5
BITMAP
1F3C
3FFC
7FFC
7CFC
F87C
F87C
F87C
F87C
F87C
FCFC
7FFC
7F7C
1E7C
007C
20FC
7FF8
7FF0
1FC0
ENDCHAR
STARTCHAR h
ENCODING 104
SWIDTH 693 0
DWIDTH 17 0
BBX 13 18 2 0
BITMAP
F800
F800
F800
F800
F800
F9E0
FBF0
FFF8
FFF8
FCF8
F8F8
F8F8
F8F8
F8F8
F8F8
F8F8
F8F8
F8F8
ENDCHAR
STARTCHAR i
ENCODING 105
SWIDTH 361 0
DWIDTH 9 0
BBX 5 18 2 0
BITMAP
F8
F8
F8
00
00
F8
F8
F8
F8
F8
F8
F8
F8
F8
F8
F8
F8
F8
ENDCHAR
STARTCHAR j
ENCODING 106
SWIDTH 361 0
DWIDTH 9 0
BBX 9 23 -1 -5
BITMAP
0F80
0F80
0F80
0000
0000
0F80
0F80
0F80
0F80
0F80
0F80
0F80
0F80
0F80
0F80
0F80
0F80
0F80
0F80
0F80
FF80
FF00
FE00
ENDCHAR
STARTCHAR k
ENCODING 107
SWIDTH 681 0
DWIDTH 16 0
BBX 14 18 2 0
BITMAP
F800
F800
F800
F800
F800
F878
F8F0
F8E0
F9C0
FBC0
FBC0
FFC0
FFE0
FBF0
FBF0
F9F8
F8F8
F8FC
ENDCHAR
STARTCHAR l
ENCODING 108
SWIDTH 361 0
DWIDTH 9 0
BBX 5 18 2 0
BITMAP
F8
F8
F8
F8
F8
F8
F8
F8
F8
F8
F8
F8
F8
F8
F8
F8
F8
F8
ENDCHAR
STARTCHAR m
ENCODING 109
SWIDTH 1006 0
DWIDTH 24 0
BBX 21 13 2 0
BITMAP
FBE1F0
F7F3F8
FFFFF8
FFFFF8
FCFCF8
F8F8F8
F8F8F8
F8F8F8
F8F8F8
F8F8F8
F8F8F8
F8F8F8
F8F8F8
ENDCHAR
STARTCHAR n
ENCODING 110
SWIDTH 693 0
DWIDTH 17 0
BBX 13 13 2 0
BITMAP
F9E0
FBF0
FFF8
FFF8
FCF8
F8F8
F8F8
F8F8
F8F8
F8F8
F8F8
F8F8
F8F8
ENDCHAR
STARTCHAR o
ENCODING 111
SWIDTH 675 0
DWIDTH 16 0
BBX 14 13 1 0
BITMAP
0FC0
3FF0
7FF8
7CF8
F87C
F87C
F87C
F87C
F87C
7CF8
7FF8
3FF0
0FC0
ENDCHAR
STARTCHAR p
ENCODING 112
SWIDTH 696 0
DWIDTH 17 0
BBX 14 18 2 -5
BITMAP
F9E0
FBF8
FFF8
FCFC
F87C
F87C
F87C
F87C
F87C
FCFC
FFF8
FFF0
F9E0
F800
F800
F800
F800
F800
ENDCHAR
STARTCHAR q
ENCODING 113
SWIDTH 696 0
DWIDTH 17 0
BBX 14 18 1 -5
BITMAP
1F3C
3FFC
7FFC
7CFC
F87C
F87C
F87C
F87C
F87C
FCFC
7FFC
7F7C
1E7C
007C
007C
007C
007C
007C
ENDCHAR
STARTCHAR r
ENCODING 114
SWIDTH 500 0
DWIDTH 12 0
BBX 10 13 2 0
BITMAP
F9C0
FBC0
FFC0
FFC0
FC00
F800
F800
F800
F800
F800
F800
F800
F800
ENDCHAR
STARTCHAR s
ENCODING 115
SWIDTH 622 0
DWIDTH 15 0
BBX 12 13 2 0
BITMAP
3FC0
7FE0
FFE0
F820
F800
FF00
3FC0
0FF0
01F0
C1F0
FFF0
FFE0
7F80
ENDCHAR
STARTCHAR t
ENCODING 116
SWIDTH 436 0
DWIDTH 10 0
BBX 9 16 1 0
BITMAP
3C00
7C00
7C00
FF80
FF80
FF80
7C00
7C00
7C00
7C00
7C00
7C00
7C00
7F80
3F80
1F80
ENDCHAR
STARTCHAR u
ENCODING 117
SWIDTH 693 0
DWIDTH 17 0
BBX 13 13 2 0
BITMAP
F8F8
F8F8
F8F8
F8F8
F8F8
F8F8
F8F8
F8F8
F8F8
F9F8
FFF8
7EF8
3CF8
ENDCHAR
STARTCHAR v
ENCODING 118
SWIDTH 663 0
DWIDTH 16 0
BBX 15 13 0 0
BITMAP
F80E
FC1C
7C1C
7E3C
3E38
3E38
3F78
1F70
1FF0
0FE0
0FE0
0FE0
07C0
ENDCHAR
STARTCHAR w
ENCODING 119
SWIDTH 885 0
DWIDTH 21 0
BBX 20 13 1 0
BITMAP
F0F870
F8F870
78F8E0
79F8E0
79FCE0
7DFDC0
3DFDC0
3F9DC0
3F9FC0
3F9F80
1F1F80
1F0F80
1F0F80
ENDCHAR
STARTCHAR x
ENCODING 120
SWIDTH 568 0
DWIDTH 14 0
BBX 13 13 0 0
BITMAP
FC78
7CF0
3EE0
3FE0
1FC0
1F80
0F80
0FC0
1FC0
3FE0
3BF0
79F0
F0F8
ENDCHAR
STARTCHAR y
ENCODING 121
SWIDTH 645 0
DWIDTH 15 0
BBX 15 18 0 -5
BITMAP
F81E
FC1C
7C3C
7E38
3E38
3E70
3F70
1FE0
1FE0
0FE0
0FC0
0FC0
0780
0780
0F00
0F00
1E00
3E00
ENDCHAR
STARTCHAR z
ENCODING 122
SWIDTH 608 0
DWIDTH 15 0
BBX 12 13 1 0
BITMAP
FFF0
FFF0
FFF0
07F0
0FE0
1FC0
1F80
3F00
7F00
FE00
FFF0
FFF0
FFF0
ENDCHAR
STARTCHAR braceleft
ENCODING 123
SWIDTH 386 0
DWIDTH 9 0
BBX 7 22 1 -4
BITMAP
1E
3E
7E
7C
7C
7C
7C
7C
7C
F8
F0
F0
78
7C
7C
7C
7C
7C
7C
7E
3E
1E
ENDCHAR
STARTCHAR bar
ENCODING 124
SWIDTH 265 0
DWIDTH 6 0
BBX 3 22 2 -4
BITMAP
E0
E0
E0
E0
E0
E0
E0
E0
E0
E0
E0
E0
E0
E0
E0
E0
E0
E0
E0
E0
E0
E0
ENDCHAR
STARTCHAR braceright
ENCODING 125
SWIDTH 386 0
DWIDTH 9 0
BBX 7 22 1 -4
BITMAP
F0
F8
FC
7C
7C
7C
7C
7C
7C
3E
1E
1E
3C
7C
7C
7C
7C
7C
7C
FC
F8
F0
ENDCHAR
STARTCHAR asciitilde
ENCODING 126
SWIDTH 687 0
DWIDTH 16 0
BBX 14 6 1 4
BITMAP
3C1C
7E1C
FF9C
E7FC
E1F8
E0F0
ENDCHAR
STARTCHAR afii10051
ENCODING 128
SWIDTH 958 0
DWIDTH 23 0
BBX 21 17 0 0
BITMAP
FFFF80
FFFF80
FFFF80
03E000
03E000
03E000
03E7C0
03FFF0
03FFF0
03F1F8
03E0F8
03E0F8
03E0F8
03E1F8
03E7F0
03E7F0
03E7C0
ENDCHAR
STARTCHAR afii10052
ENCODING 129
SWIDTH 583 0
DWIDTH 14 0
BBX 12 21 2 0
BITMAP
03C0
0700
0E00
0000
FFF0
FFF0
FFF0
F800
F800
F800
F800
F800
F800
F800
F800
F800
F800
F800
F800
F800
F800
ENDCHAR
STARTCHAR quotesinglbase
ENCODING 130
SWIDTH 265 0
DWIDTH 6 0
BBX 5 9 1 -4
BITMAP
F8
F8
F8
F8
F8
38
70
F0
C0
ENDCHAR
STARTCHAR afii10100
ENCODING 131
SWIDTH 541 0
DWIDTH 13 0
BBX 11 17 2 0
BITMAP
03C0
0700
0E00
0000
FFE0
FFE0
FFE0
F800
F800
F800
F800
F800
F800
F800
F800
F800
F800
ENDCHAR
STARTCHAR quotedblbase
ENCODING 132
SWIDTH 530 0
DWIDTH 13 0
BBX 11 9 1 -4
BITMAP
FBE0
FBE0
FBE0
FBE0
FBE0
38E0
70C0
F3C0
C300
ENDCHAR
STARTCHAR ellipsis
ENCODING 133
SWIDTH 1000 0
DWIDTH 24 0
BBX 19 3 3 0
BITMAP
E0E0E0
E0E0E0
E0E0E0
ENDCHAR
STARTCHAR dagger
ENCODING 134
SWIDTH 693 0
DWIDTH 16 0
BBX 12 21 2 -4
BITMAP
0F00
0F00
0F00
0F00
0F00
0F00
FFF0
FFF0
FFF0
0F00
0F00
0F00
0F00
0F00
0F00
0F00
0F00
0F00
0F00
0F00
0F00
ENDCHAR
STARTCHAR daggerdbl
ENCODING 135
SWIDTH 693 0
DWIDTH 16 0
BBX 12 21 2 -4
BITMAP
0F00
0F00
0F00
0F00
0F00
FFF0
FFF0
FFF0
0F00
0F00
0F00
0F00
FFF0
FFF0
FFF0
0F00
0F00
0F00
0F00
0F00
0F00
ENDCHAR
STARTCHAR Euro
ENCODING 136
SWIDTH 791 0
DWIDTH 19 0
BBX 18 17 1 0
BITMAP
00FF80
03FFC0
0FFFC0
1FC0C0
1F0000
3F0000
7FFE00
FFFC00
3E0000
7FF800
FFF000
3F0000
1F8000
1FC040
0FFFC0
03FFC0
00FF00
ENDCHAR
STARTCHAR perthousand
ENCODING 137
SWIDTH 1313 0
DWIDTH 32 0
BBX 31 17 0 0
BITMAP
3E01E000
7F03C000
FF878000
E3870000
E38F0000
FF9E0000
7F3C0000
3E780000
0073E0F8
00F7F1FC
01EFFBFE
03CE3B8E
078E3B8E
0F0E3B8E
0F0FFBFE
1E07F1FC
3C03E0F8
ENDCHAR
STARTCHAR afii10058
ENCODING 138
SWIDTH 1083 0
DWIDTH 26 0
BBX 26 17 0 0
BITMAP
1FFF8000
1FFF8000
1FFF8000
1F0F8000
1F0F8000
1F0F8000
1F0FFC00
1F0FFF00
1F0FFF80
1F0F8F80
1F0F87C0
1F0F87C0
1F0F87C0
3F0F8FC0
FE0FFFC0
FE0FFF80
F80FFF00
ENDCHAR
STARTCHAR guilsinglleft
ENCODING 139
SWIDTH 361 0
DWIDTH 9 0
BBX 7 11 1 1
BITMAP
04
0E
1C
3C
78
F0
78
3C
1C
0E
04
ENDCHAR
STARTCHAR afii10059
ENCODING 140
SWIDTH 1083 0
DWIDTH 26 0
BBX 24 17 2 0
BITMAP
F83E00
F83E00
F83E00
F83E00
F83E00
F83E00
FFFFF0
FFFFFC
FFFFFE
F83E3E
F83E1F
F83E1F
F83E1F
F83E3F
F83FFF
F83FFE
F83FFC
ENDCHAR
STARTCHAR afii10061
ENCODING 141
SWIDTH 750 0
DWIDTH 18 0
BBX 16 21 2 0
BITMAP
00F0
01C0
0380
0000
F81E
F83C
F878
F8F0
F8E0
F9E0
FBC0
FFC0
FFC0
FFE0
FBF0
FBF0
F9F8
F8FC
F8FE
F87E
F83F
ENDCHAR
STARTCHAR afii10060
ENCODING 142
SWIDTH 958 0
DWIDTH 23 0
BBX 21 17 0 0
BITMAP
FFFF80
FFFF80
FFFF80
03E000
03E000
03E000
03E7C0
03FFF0
03FFF0
03F1F8
03E0F8
03E0F8
03E0F8
03E0F8
03E0F8
03E0F8
03E0F8
ENDCHAR
STARTCHAR afii10145
ENCODING 143
SWIDTH 833 0
DWIDTH 20 0
BBX 15 21 2 -4
BITMAP
F83E
F83E
F83E
F83E
F83E
F83E
F83E
F83E
F83E
F83E
F83E
F83E
F83E
F83E
FFFE
FFFE
FFFE
07C0
07C0
07C0
07C0
ENDCHAR
STARTCHAR afii10099
ENCODING 144
SWIDTH 708 0
DWIDTH 17 0
BBX 15 23 0 -5
BITMAP
3E00
FFF0
FFF0
FFF0
3E00
3E78
3EFC
3FFE
3FFE
3F3E
3E3E
3E3E
3E3E
3E3E
3E3E
3E3E
3E3E
3E3E
003E
007E
01FC
01F8
01E0
ENDCHAR
STARTCHAR quoteleft
ENCODING 145
SWIDTH 265 0
DWIDTH 6 0
BBX 5 8 1 10
BITMAP
18
78
E0
F8
F8
F8
F8
F8
ENDCHAR
STARTCHAR quoteright
ENCODING 146
SWIDTH 265 0
DWIDTH 6 0
BBX 5 8 1 10
BITMAP
F8
F8
F8
F8
F8
38
F0
C0
ENDCHAR
STARTCHAR quotedblleft
ENCODING 147
SWIDTH 530 0
DWIDTH 13 0
BBX 11 8 1 10
BITMAP
1860
79E0
E380
FBE0
FBE0
FBE0
FBE0
FBE0
ENDCHAR
STARTCHAR quotedblright
ENCODING 148
SWIDTH 530 0
DWIDTH 13 0
BBX 11 8 1 10
BITMAP
FBE0
FBE0
FBE0
FBE0
FBE0
38E0
F3C0
C300
ENDCHAR
STARTCHAR bullet
ENCODING 149
SWIDTH 687 0
DWIDTH 16 0
BBX 9 9 4 3
BITMAP
FF80
FF80
FF80
FF80
FF80
FF80
FF80
FF80
FF80
ENDCHAR
STARTCHAR endash
ENCODING 150
SWIDTH 500 0
DWIDTH 12 0
BBX 10 3 1 6
BITMAP
FFC0
FFC0
FFC0
ENDCHAR
STARTCHAR emdash
ENCODING 151
SWIDTH 1000 0
DWIDTH 24 0
BBX 23 2 1 6
BITMAP
FFFFFE
FFFFFE
ENDCHAR
STARTCHAR trademark
ENCODING 153
SWIDTH 901 0
DWIDTH 22 0
BBX 21 9 0 8
BITMAP
FFFE78
FFFE78
FFFEF8
1F1FF8
1F1FF8
1F1FF8
1F1FF8
1F1FF8
1F1CF8
ENDCHAR
STARTCHAR afii10106
ENCODING 154
SWIDTH 1041 0
DWIDTH 25 0
BBX 24 13 0 0
BITMAP
1FFF00
1FFF00
1FFF00
1F1F00
1F1F00
1F1FF8
1F1FFE
1F1FFE
1F1F1F
3F1F1F
FE1FFF
FE1FFE
F81FFC
ENDCHAR
STARTCHAR guilsinglright
ENCODING 155
SWIDTH 361 0
DWIDTH 9 0
BBX 7 11 1 1
BITMAP
40
E0
70
78
3C
1E
3C
78
70
E0
40
ENDCHAR
STARTCHAR afii10107
ENCODING 156
SWIDTH 1000 0
DWIDTH 24 0
BBX 21 13 2 0
BITMAP
F8F800
F8F800
F8F800
F8F800
F8F800
FFFFC0
FFFFF0
FFFFF0
F8F8F8
F8F8F8
F8FFF8
F8FFF0
F8FFE0
ENDCHAR
STARTCHAR afii10109
ENCODING 157
SWIDTH 666 0
DWIDTH 16 0
BBX 14 17 2 0
BITMAP
01E0
0380
0700
0000
F878
F8F0
F8E0
F9C0
FBC0
FBC0
FFC0
FFE0
FBF0
FBF0
F9F8
F8F8
F8FC
ENDCHAR
STARTCHAR afii10108
ENCODING 158
SWIDTH 708 0
DWIDTH 17 0
BBX 15 18 0 0
BITMAP
3E00
FFF0
FFF0
FFF0
3E00
3E78
3EFC
3FFE
3FFE
3F3E
3E3E
3E3E
3E3E
3E3E
3E3E
3E3E
3E3E
3E3E
ENDCHAR
STARTCHAR afii10193
ENCODING 159
SWIDTH 708 0
DWIDTH 17 0
BBX 13 16 2 -3
BITMAP
F8F8
F8F8
F8F8
F8F8
F8F8
F8F8
F8F8
F8F8
F8F8
F8F8
FFF8
FFF8
FFF8
0F80
0F80
0F80
ENDCHAR
STARTCHAR space
ENCODING 160
SWIDTH 343 0
DWIDTH 8 0
BBX 0 0 0 0
BITMAP
ENDCHAR
STARTCHAR afii10062
ENCODING 161
SWIDTH 750 0
DWIDTH 18 0
BBX 17 21 0 0
BITMAP
0E1C00
07F800
01E000
000000
FC0780
7C0700
7E0F00
3E0E00
3F1E00
1F1C00
1FBC00
0FB800
0FF800
07F000
07F000
03E000
03E000
03C000
3FC000
3F8000
3E0000
ENDCHAR
STARTCHAR afii10110
ENCODING 162
SWIDTH 625 0
DWIDTH 15 0
BBX 15 22 0 -5
BITMAP
1C70
0FE0
0380
0000
F81E
FC1C
7C3C
7E38
3E38
3E70
3F70
1FE0
1FE0
0FE0
0FC0
0FC0
0780
0780
0F00
0F00
1E00
3E00
ENDCHAR
STARTCHAR afii10057
ENCODING 163
SWIDTH 501 0
DWIDTH 12 0
BBX 10 21 0 -4
BITMAP
07C0
07C0
07C0
07C0
07C0
07C0
07C0
07C0
07C0
07C0
07C0
07C0
07C0
07C0
07C0
07C0
07C0
87C0
FF80
FF80
7E00
ENDCHAR
STARTCHAR currency
ENCODING 164
SWIDTH 687 0
DWIDTH 16 0
BBX 16 17 0 0
BITMAP
6006
E007
F00F
7BDE
3FFC
1FF8
1E78
1C38
1C38
1C38
1E78
1FF8
3FFC
7BDE
F00F
E007
4002
ENDCHAR
STARTCHAR afii10050
ENCODING 165
SWIDTH 583 0
DWIDTH 14 0
BBX 12 21 2 0
BITMAP
01F0
01F0
01F0
01F0
FFF0
FFF0
FFF0
F800
F800
F800
F800
F800
F800
F800
F800
F800
F800
F800
F800
F800
F800
ENDCHAR
STARTCHAR brokenbar
ENCODING 166
SWIDTH 265 0
DWIDTH 6 0
BBX 3 22 2 -4
BITMAP
E0
E0
E0
E0
E0
E0
E0
E0
E0
00
00
00
00
E0
E0
E0
E0
E0
E0
E0
E0
E0
ENDCHAR
STARTCHAR section
ENCODING 167
SWIDTH 693 0
DWIDTH 16 0
BBX 12 22 2 -5
BITMAP
3FE0
7FE0
FFE0
F020
F800
FF00
7FC0
3FE0
7FF0
EFF0
F1F0
FC70
FF70
7FE0
7FC0
1FE0
07F0
01F0
C1F0
FFF0
FFE0
FF80
ENDCHAR
STARTCHAR afii10023
ENCODING 168
SWIDTH 645 0
DWIDTH 15 0
BBX 13 21 2 0
BITMAP
39C0
39C0
39C0
0000
FFF0
FFF0
FFF0
F800
F800
F800
F800
FFE0
FFE0
FFE0
F800
F800
F800
F800
FFF8
FFF8
FFF8
ENDCHAR
STARTCHAR copyright
ENCODING 169
SWIDTH 825 0
DWIDTH 20 0
BBX 18 17 1 0
BITMAP
03F000
0FFC00
1C0E00
380700
71F380
67F980
CF08C0
CE00C0
CE00C0
CE00C0
CF00C0
67F980
71FB80
380700
1C0E00
0FFC00
03F000
ENDCHAR
STARTCHAR afii10053
ENCODING 170
SWIDTH 708 0
DWIDTH 17 0
BBX 16 17 1 0
BITMAP
03FE
0FFF
3FFF
7F03
7C00
FC00
F800
FFF0
FFF0
FFF0
F800
FC00
7E00
7F01
3FFF
0FFF
03FC
ENDCHAR
STARTCHAR guillemotleft
ENCODING 171
SWIDTH 614 0
DWIDTH 15 0
BBX 13 11 1 1
BITMAP
0410
0E38
1C70
3CF0
79E0
F3C0
79E0
3CF0
1C70
0E38
0410
ENDCHAR
STARTCHAR logicalnot
ENCODING 172
SWIDTH 687 0
DWIDTH 16 0
BBX 14 9 1 2
BITMAP
FFFC
FFFC
FFFC
001C
001C
001C
001C
001C
001C
ENDCHAR
STARTCHAR hyphen
ENCODING 173
SWIDTH 289 0
DWIDTH 7 0
BBX 5 3 1 6
BITMAP
F8
F8
F8
ENDCHAR
STARTCHAR registered
ENCODING 174
SWIDTH 687 0
DWIDTH 16 0
BBX 13 12 2 5
BITMAP
0F80
3FE0
7070
6FB0
CF98
CD98
CF18
CF18
6DB0
7070
3FE0
0F80
ENDCHAR
STARTCHAR afii10056
ENCODING 175
SWIDTH 375 0
DWIDTH 9 0
BBX 9 21 0 0
BITMAP
E380
E380
E380
0000
3E00
3E00
3E00
3E00
3E00
3E00
3E00
3E00
3E00
3E00
3E00
3E00
3E00
3E00
3E00
3E00
3E00
ENDCHAR
STARTCHAR degree
ENCODING 176
SWIDTH 241 0
DWIDTH 6 0
BBX 4 4 1 13
BITMAP
60
90
90
60
ENDCHAR
STARTCHAR plusminus
ENCODING 177
SWIDTH 687 0
DWIDTH 16 0
BBX 15 14 1 0
BITMAP
0380
0380
0380
FFFE
FFFE
FFFE
0380
0380
0380
0380
0000
FFFE
FFFE
FFFE
ENDCHAR
STARTCHAR afii10055
ENCODING 178
SWIDTH 361 0
DWIDTH 9 0
BBX 5 17 2 0
BITMAP
F8
F8
F8
F8
F8
F8
F8
F8
F8
F8
F8
F8
F8
F8
F8
F8
F8
ENDCHAR
STARTCHAR afii10103
ENCODING 179
SWIDTH 361 0
DWIDTH 9 0
BBX 5 18 2 0
BITMAP
F8
F8
F8
00
00
F8
F8
F8
F8
F8
F8
F8
F8
F8
F8
F8
F8
F8
ENDCHAR
STARTCHAR afii10098
ENCODING 180
SWIDTH 541 0
DWIDTH 13 0
BBX 11 16 2 0
BITMAP
03E0
03E0
03E0
FFE0
FFE0
FFE0
F800
F800
F800
F800
F800
F800
F800
F800
F800
F800
ENDCHAR
STARTCHAR mu
ENCODING 181
SWIDTH 699 0
DWIDTH 17 0
BBX 13 17 2 -4
BITMAP
F8F8
F8F8
F8F8
F8F8
F8F8
F8F8
F8F8
F8F8
F8F8
F9F8
FFF8
FFF8
FEF8
F800
F800
F800
F800
ENDCHAR
STARTCHAR paragraph
ENCODING 182
SWIDTH 693 0
DWIDTH 16 0
BBX 10 21 2 -4
BITMAP
3FC0
7FC0
FFC0
FFC0
FFC0
FFC0
FFC0
7FC0
1FC0
0FC0
0FC0
0FC0
0FC0
0FC0
0FC0
0FC0
0FC0
0FC0
0FC0
0FC0
0FC0
ENDCHAR
STARTCHAR periodcentered
ENCODING 183
SWIDTH 343 0
DWIDTH 16 0
BBX 3 3 7 6
BITMAP
E0
E0
E0
ENDCHAR
STARTCHAR afii10071
ENCODING 184
SWIDTH 614 0
DWIDTH 15 0
BBX 13 17 1 0
BITMAP
1CE0
1CE0
1CE0
0000
0FC0
3FE0
7FF0
78F0
F8F8
FFF8
FFF8
FFF8
F800
7C08
7FF8
3FF8
0FF0
ENDCHAR
STARTCHAR afii61352
ENCODING 185
SWIDTH 1208 0
DWIDTH 29 0
BBX 26 17 2 0
BITMAP
F00E0000
F80E0000
FC0E0000
FE0E1F00
FF0E3F80
FF0E7BC0
FF8E71C0
EFCE71C0
EFEE71C0
E7EE7BC0
E3FE3F80
E1FE1F00
E1FE0000
E0FE0000
E07E7FC0
E03E7FC0
E01E0000
ENDCHAR
STARTCHAR afii10101
ENCODING 186
SWIDTH 541 0
DWIDTH 13 0
BBX 12 13 1 0
BITMAP
0FE0
3FF0
7FF0
7E10
FC00
FF80
FF80
FF80
FC00
7E10
7FF0
3FF0
0FF0
ENDCHAR
STARTCHAR guillemotright
ENCODING 187
SWIDTH 614 0
DWIDTH 15 0
BBX 13 11 1 1
BITMAP
4100
E380
71C0
79E0
3CF0
1E78
3CF0
79E0
71C0
E380
4100
ENDCHAR
STARTCHAR afii10105
ENCODING 188
SWIDTH 361 0
DWIDTH 9 0
BBX 9 23 -1 -5
BITMAP
0F80
0F80
0F80
0000
0000
0F80
0F80
0F80
0F80
0F80
0F80
0F80
0F80
0F80
0F80
0F80
0F80
0F80
0F80
0F80
FF80
FF00
FE00
ENDCHAR
STARTCHAR afii10054
ENCODING 189
SWIDTH 594 0
DWIDTH 14 0
BBX 13 17 1 0
BITMAP
1FF0
7FF0
7FF0
F830
F800
FE00
FF00
7FC0
3FF0
1FF0
07F8
01F8
00F8
C1F8
FFF0
FFE0
FF80
ENDCHAR
STARTCHAR afii10102
ENCODING 190
SWIDTH 622 0
DWIDTH 15 0
BBX 12 13 2 0
BITMAP
3FC0
7FE0
FFE0
F820
F800
FF00
3FC0
0FF0
01F0
C1F0
FFF0
FFE0
7F80
ENDCHAR
STARTCHAR afii10104
ENCODING 191
SWIDTH 375 0
DWIDTH 9 0
BBX 9 18 0 0
BITMAP
E380
E380
E380
0000
0000
3E00
3E00
3E00
3E00
3E00
3E00
3E00
3E00
3E00
3E00
3E00
3E00
3E00
ENDCHAR
STARTCHAR afii10017
ENCODING 192
SWIDTH 791 0
DWIDTH 19 0
BBX 18 17 0 0
BITMAP
03F000
03F000
03F800
07F800
07F800
07FC00
0E7C00
0E7E00
1E3E00
1C3E00
1FFF00
3FFF00
3FFF80
780F80
700F80
7007C0
E007C0
ENDCHAR
STARTCHAR afii10018
ENCODING 193
SWIDTH 666 0
DWIDTH 16 0
BBX 14 17 2 0
BITMAP
FFF8
FFF8
FFF8
F800
F800
F800
FFC0
FFF0
FFF8
F8F8
F87C
F87C
F87C
F8FC
FFFC
FFF8
FFF0
ENDCHAR
STARTCHAR afii10019
ENCODING 194
SWIDTH 666 0
DWIDTH 16 0
BBX 14 17 2 0
BITMAP
FFE0
FFF0
FFF8
F8F8
F8F8
F8F8
F9F0
FFC0
FFC0
FFF0
F8F8
F87C
F87C
F87C
FFFC
FFF8
FFE0
ENDCHAR
STARTCHAR afii10020
ENCODING 195
SWIDTH 583 0
DWIDTH 14 0
BBX 12 17 2 0
BITMAP
FFF0
FFF0
FFF0
F800
F800
F800
F800
F800
F800
F800
F800
F800
F800
F800
F800
F800
F800
ENDCHAR
STARTCHAR afii10021
ENCODING 196
SWIDTH 833 0
DWIDTH 20 0
BBX 19 21 0 -4
BITMAP
0FFF80
0FFF80
0FFF80
0F8F80
0F8F80
0F8F80
0F8F80
0F8F80
1F0F80
1F0F80
1F0F80
1F0F80
3E0F80
3E0F80
FFFFE0
FFFFE0
FFFFE0
F803E0
F803E0
F803E0
F803E0
ENDCHAR
STARTCHAR afii10022
ENCODING 197
SWIDTH 625 0
DWIDTH 15 0
BBX 13 17 2 0
BITMAP
FFF0
FFF0
FFF0
F800
F800
F800
F800
FFE0
FFE0
FFE0
F800
F800
F800
F800
FFF8
FFF8
FFF8
ENDCHAR
STARTCHAR afii10024
ENCODING 198
SWIDTH 1125 0
DWIDTH 27 0
BBX 27 17 0 0
BITMAP
781F03C0
3C1F0780
1E1F0F00
0F1F1E00
071F1C00
079F3C00
03DF7800
03FFF800
03FFF800
07FFFC00
0FDF7E00
0FDF7E00
1F9F3F00
3F1F1F80
7F1F1FC0
7E1F0FC0
FC1F07E0
ENDCHAR
STARTCHAR afii10025
ENCODING 199
SWIDTH 583 0
DWIDTH 14 0
BBX 13 17 1 0
BITMAP
7FC0
FFE0
FFF0
C1F0
01F0
01F0
03E0
1F80
1F80
1FE0
01F0
00F8
00F8
81F8
FFF8
FFF0
3FC0
ENDCHAR
STARTCHAR afii10026
ENCODING 200
SWIDTH 791 0
DWIDTH 19 0
BBX 15 17 2 0
BITMAP
E01E
E03E
E07E
E0FE
E1FE
E1FE
E3FE
E7EE
EFEE
EFCE
FF8E
FF0E
FF0E
FE0E
FC0E
F80E
F00E
ENDCHAR
STARTCHAR afii10027
ENCODING 201
SWIDTH 791 0
DWIDTH 19 0
BBX 15 21 2 0
BITMAP
1C70
0FE0
0380
0000
E01E
E03E
E07E
E0FE
E1FE
E1FE
E3FE
E7EE
EFEE
EFCE
FF8E
FF0E
FF0E
FE0E
FC0E
F80E
F00E
ENDCHAR
STARTCHAR afii10028
ENCODING 202
SWIDTH 750 0
DWIDTH 18 0
BBX 16 17 2 0
BITMAP
F81E
F83C
F878
F8F0
F8E0
F9E0
FBC0
FFC0
FFC0
FFE0
FBF0
FBF0
F9F8
F8FC
F8FE
F87E
F83F
ENDCHAR
STARTCHAR afii10029
ENCODING 203
SWIDTH 833 0
DWIDTH 20 0
BBX 17 17 0 0
BITMAP
1FFF80
1FFF80
1FFF80
1F0F80
1F0F80
1F0F80
1F0F80
1F0F80
1F0F80
1F0F80
1F0F80
1F0F80
1F0F80
3F0F80
FE0F80
FE0F80
F80F80
ENDCHAR
STARTCHAR afii10030
ENCODING 204
SWIDTH 958 0
DWIDTH 23 0
BBX 18 17 2 0
BITMAP
FC0FC0
FC0FC0
FC1FC0
FE1FC0
FE1FC0
FE3FC0
EF3FC0
EF3FC0
EF7FC0
E7F7C0
E7F7C0
E7F7C0
E7E7C0
E3E7C0
E3E7C0
E3C7C0
E007C0
ENDCHAR
STARTCHAR afii10031
ENCODING 205
SWIDTH 833 0
DWIDTH 20 0
BBX 15 17 2 0
BITMAP
F83E
F83E
F83E
F83E
F83E
F83E
F83E
FFFE
FFFE
FFFE
F83E
F83E
F83E
F83E
F83E
F83E
F83E
ENDCHAR
STARTCHAR afii10032
ENCODING 206
SWIDTH 875 0
DWIDTH 21 0
BBX 19 17 1 0
BITMAP
03F800
0FFE00
3FFF80
7E0FC0
7C07C0
FC07E0
F803E0
F803E0
F803E0
F803E0
F803E0
FC07E0
7C07C0
7E0FC0
3FFF80
0FFE00
03F800
ENDCHAR
STARTCHAR afii10033
ENCODING 207
SWIDTH 833 0
DWIDTH 20 0
BBX 15 17 2 0
BITMAP
FFFE
FFFE
FFFE
F83E
F83E
F83E
F83E
F83E
F83E
F83E
F83E
F83E
F83E
F83E
F83E
F83E
F83E
ENDCHAR
STARTCHAR afii10034
ENCODING 208
SWIDTH 666 0
DWIDTH 16 0
BBX 14 17 2 0
BITMAP
FFF0
FFF8
FFFC
F8FC
F87C
F87C
F87C
F8F8
FFF8
FFF0
FFC0
F800
F800
F800
F800
F800
F800
ENDCHAR
STARTCHAR afii10035
ENCODING 209
SWIDTH 708 0
DWIDTH 17 0
BBX 16 17 1 0
BITMAP
03FE
0FFF
3FFF
7F03
7C00
FC00
F800
F800
F800
F800
F800
FC00
7E00
7F01
3FFF
0FFF
03FC
ENDCHAR
STARTCHAR afii10036
ENCODING 210
SWIDTH 750 0
DWIDTH 18 0
BBX 17 17 0 0
BITMAP
FFFF80
FFFF80
FFFF80
03E000
03E000
03E000
03E000
03E000
03E000
03E000
03E000
03E000
03E000
03E000
03E000
03E000
03E000
ENDCHAR
STARTCHAR afii10037
ENCODING 211
SWIDTH 750 0
DWIDTH 18 0
BBX 17 17 0 0
BITMAP
FC0780
7C0700
7E0F00
3E0E00
3F1E00
1F1C00
1FBC00
0FB800
0FF800
07F000
07F000
03E000
03E000
03C000
3FC000
3F8000
3E0000
ENDCHAR
STARTCHAR afii10038
ENCODING 212
SWIDTH 958 0
DWIDTH 23 0
BBX 21 17 1 0
BITMAP
00F800
00F800
0FFF80
3FFFE0
7FFFF0
7CF9F0
F8F8F8
F8F8F8
F8F8F8
F8F8F8
F8F8F8
7CF9F0
7FFFF0
3FFFE0
0FFF80
00F800
00F800
ENDCHAR
STARTCHAR afii10039
ENCODING 213
SWIDTH 708 0
DWIDTH 17 0
BBX 16 17 1 0
BITMAP
FC0F
7E1E
3E3C
3F38
1FF8
1FF0
0FE0
07E0
07E0
07F0
0FF0
0FF8
1EF8
3CFC
387E
787E
F03F
ENDCHAR
STARTCHAR afii10040
ENCODING 214
SWIDTH 833 0
DWIDTH 20 0
BBX 17 21 2 -4
BITMAP
F83E00
F83E00
F83E00
F83E00
F83E00
F83E00
F83E00
F83E00
F83E00
F83E00
F83E00
F83E00
F83E00
F83E00
FFFF80
FFFF80
FFFF80
000F80
000F80
000F80
000F80
ENDCHAR
STARTCHAR afii10041
ENCODING 215
SWIDTH 791 0
DWIDTH 19 0
BBX 15 17 1 0
BITMAP
F83E
F83E
F83E
F83E
F83E
F83E
F83E
FC7E
7FFE
7FFE
1F3E
003E
003E
003E
003E
003E
003E
ENDCHAR
STARTCHAR afii10042
ENCODING 216
SWIDTH 1166 0
DWIDTH 28 0
BBX 23 17 2 0
BITMAP
F87C3E
F87C3E
F87C3E
F87C3E
F87C3E
F87C3E
F87C3E
F87C3E
F87C3E
F87C3E
F87C3E
F87C3E
F87C3E
F87C3E
FFFFFE
FFFFFE
FFFFFE
ENDCHAR
STARTCHAR afii10043
ENCODING 217
SWIDTH 1166 0
DWIDTH 28 0
BBX 25 21 2 -4
BITMAP
F87C3E00
F87C3E00
F87C3E00
F87C3E00
F87C3E00
F87C3E00
F87C3E00
F87C3E00
F87C3E00
F87C3E00
F87C3E00
F87C3E00
F87C3E00
F87C3E00
FFFFFF80
FFFFFF80
FFFFFF80
00000F80
00000F80
00000F80
00000F80
ENDCHAR
STARTCHAR afii10044
ENCODING 218
SWIDTH 708 0
DWIDTH 17 0
BBX 17 17 0 0
BITMAP
FF0000
FF0000
FF0000
1F0000
1F0000
1F0000
1FF800
1FFE00
1FFF00
1F1F00
1F0F80
1F0F80
1F0F80
1F1F80
1FFF80
1FFF00
1FFE00
ENDCHAR
STARTCHAR afii10045
ENCODING 219
SWIDTH 1083 0
DWIDTH 26 0
BBX 22 17 2 0
BITMAP
F8007C
F8007C
F8007C
F8007C
F8007C
F8007C
FFC07C
FFF07C
FFF87C
F8F87C
F87C7C
F87C7C
F87C7C
F8FC7C
FFFC7C
FFF87C
FFF07C
ENDCHAR
STARTCHAR afii10046
ENCODING 220
SWIDTH 666 0
DWIDTH 16 0
BBX 14 17 2 0
BITMAP
F800
F800
F800
F800
F800
F800
FFC0
FFF0
FFF8
F8F8
F87C
F87C
F87C
F8FC
FFFC
FFF8
FFF0
ENDCHAR
STARTCHAR afii10047
ENCODING 221
SWIDTH 708 0
DWIDTH 17 0
BBX 16 17 1 0
BITMAP
7FC0
FFF0
FFFC
C0FE
003E
003F
001F
0FFF
0FFF
0FFF
001F
003F
007E
80FE
FFFC
FFF0
3FC0
ENDCHAR
STARTCHAR afii10048
ENCODING 222
SWIDTH 1166 0
DWIDTH 28 0
BBX 25 17 2 0
BITMAP
F807E000
F81FF800
F87FFE00
F8FC3F00
F8F81F00
F9F81F80
F9F00F80
FFF00F80
FFF00F80
FFF00F80
F9F00F80
F9F81F80
F8F81F00
F8FC3F00
F87FFE00
F81FF800
F807E000
ENDCHAR
STARTCHAR afii10049
ENCODING 223
SWIDTH 750 0
DWIDTH 18 0
BBX 16 17 0 0
BITMAP
03FF
0FFF
1FFF
1F1F
1F1F
1F1F
1F9F
0FFF
07FF
07FF
0FDF
0F9F
1F9F
1F1F
3F1F
7E1F
FE1F
ENDCHAR
STARTCHAR afii10065
ENCODING 224
SWIDTH 625 0
DWIDTH 15 0
BBX 13 13 1 0
BITMAP
3F80
7FE0
7FF0
41F0
01F0
3FF0
7FF0
FFF0
F9F0
F9F0
FFF8
7FF8
3CF8
ENDCHAR
STARTCHAR afii10066
ENCODING 225
SWIDTH 666 0
DWIDTH 16 0
BBX 14 18 1 0
BITMAP
0FF8
3FF8
7FF0
7C00
F800
FBC0
FFF0
FFF8
FCF8
F87C
F87C
F87C
F87C
F87C
7CF8
7FF8
3FF0
0FC0
ENDCHAR
STARTCHAR afii10067
ENCODING 226
SWIDTH 666 0
DWIDTH 16 0
BBX 13 13 2 0
BITMAP
FFC0
FFE0
FFF0
F9F0
F9E0
FFC0
FFE0
FFF0
F8F8
F8F8
FFF8
FFF0
FFE0
ENDCHAR
STARTCHAR afii10068
ENCODING 227
SWIDTH 541 0
DWIDTH 13 0
BBX 11 13 2 0
BITMAP
FFE0
FFE0
FFE0
F800
F800
F800
F800
F800
F800
F800
F800
F800
F800
ENDCHAR
STARTCHAR afii10069
ENCODING 228
SWIDTH 750 0
DWIDTH 18 0
BBX 18 16 0 -3
BITMAP
0FFF00
0FFF00
0FFF00
0F9F00
0F9F00
0F9F00
1F1F00
1F1F00
1F1F00
3E1F00
FFFFC0
FFFFC0
FFFFC0
F807C0
F807C0
F807C0
ENDCHAR
STARTCHAR afii10070
ENCODING 229
SWIDTH 625 0
DWIDTH 15 0
BBX 13 13 1 0
BITMAP
0FC0
3FE0
7FF0
78F0
F8F8
FFF8
FFF8
FFF8
F800
7C08
7FF8
3FF8
0FF0
ENDCHAR
STARTCHAR afii10072
ENCODING 230
SWIDTH 958 0
DWIDTH 23 0
BBX 23 13 0 0
BITMAP
787C3C
3C7C78
1C7C70
0E7CE0
0F7DE0
0F7DE0
0FFFE0
1FFFF0
3F7DF8
3F7DF8
7E7CFC
7C7C7C
FC7C7E
ENDCHAR
STARTCHAR afii10073
ENCODING 231
SWIDTH 583 0
DWIDTH 14 0
BBX 12 13 1 0
BITMAP
7F80
FFC0
FFE0
83E0
03C0
1F80
1FC0
1FE0
01F0
81F0
FFF0
FFE0
FFC0
ENDCHAR
STARTCHAR afii10074
ENCODING 232
SWIDTH 708 0
DWIDTH 17 0
BBX 13 13 2 0
BITMAP
E078
E0F8
E1F8
E3F8
E3F8
E7F8
EFB8
FF38
FE38
FE38
FC38
F838
F038
ENDCHAR
STARTCHAR afii10075
ENCODING 233
SWIDTH 708 0
DWIDTH 17 0
BBX 13 17 2 0
BITMAP
38E0
1FC0
0700
0000
E078
E0F8
E1F8
E3F8
E3F8
E7F8
EFB8
FF38
FE38
FE38
FC38
F838
F038
ENDCHAR
STARTCHAR afii10076
ENCODING 234
SWIDTH 666 0
DWIDTH 16 0
BBX 14 13 2 0
BITMAP
F878
F8F0
F8E0
F9C0
FBC0
FBC0
FFC0
FFE0
FBF0
FBF0
F9F8
F8F8
F8FC
ENDCHAR
STARTCHAR afii10077
ENCODING 235
SWIDTH 750 0
DWIDTH 18 0
BBX 16 13 0 0
BITMAP
1FFF
1FFF
1FFF
1F1F
1F1F
1F1F
1F1F
1F1F
1F1F
3F1F
FE1F
FE1F
F81F
ENDCHAR
STARTCHAR afii10078
ENCODING 236
SWIDTH 833 0
DWIDTH 20 0
BBX 16 13 2 0
BITMAP
FC3F
FC3F
FC7F
FE7F
FEFF
FEFF
EFFF
EFDF
EFDF
E79F
E79F
E31F
E01F
ENDCHAR
STARTCHAR afii10079
ENCODING 237
SWIDTH 708 0
DWIDTH 17 0
BBX 13 13 2 0
BITMAP
F8F8
F8F8
F8F8
F8F8
F8F8
FFF8
FFF8
FFF8
F8F8
F8F8
F8F8
F8F8
F8F8
ENDCHAR
STARTCHAR afii10080
ENCODING 238
SWIDTH 666 0
DWIDTH 16 0
BBX 14 13 1 0
BITMAP
0FC0
3FF0
7FF8
7CF8
F87C
F87C
F87C
F87C
F87C
7CF8
7FF8
3FF0
0FC0
ENDCHAR
STARTCHAR afii10081
ENCODING 239
SWIDTH 708 0
DWIDTH 17 0
BBX 13 13 2 0
BITMAP
FFF8
FFF8
FFF8
F8F8
F8F8
F8F8
F8F8
F8F8
F8F8
F8F8
F8F8
F8F8
F8F8
ENDCHAR
STARTCHAR afii10082
ENCODING 240
SWIDTH 708 0
DWIDTH 17 0
BBX 14 18 2 -5
BITMAP
F9E0
FBF8
FFF8
FCFC
F87C
F87C
F87C
F87C
F87C
FCFC
FFF8
FFF0
F9E0
F800
F800
F800
F800
F800
ENDCHAR
STARTCHAR afii10083
ENCODING 241
SWIDTH 541 0
DWIDTH 13 0
BBX 12 13 1 0
BITMAP
0FE0
3FF0
7FF0
7E10
FC00
F800
F800
F800
FC00
7E10
7FF0
3FF0
0FF0
ENDCHAR
STARTCHAR afii10084
ENCODING 242
SWIDTH 541 0
DWIDTH 13 0
BBX 13 13 0 0
BITMAP
FFF8
FFF8
FFF8
0F80
0F80
0F80
0F80
0F80
0F80
0F80
0F80
0F80
0F80
ENDCHAR
STARTCHAR afii10085
ENCODING 243
SWIDTH 625 0
DWIDTH 15 0
BBX 15 18 0 -5
BITMAP
F81E
FC1C
7C3C
7E38
3E38
3E70
3F70
1FE0
1FE0
0FE0
0FC0
0FC0
0780
0780
0F00
0F00
1E00
3E00
ENDCHAR
STARTCHAR afii10086
ENCODING 244
SWIDTH 958 0
DWIDTH 23 0
BBX 21 23 1 -5
BITMAP
00F800
00F800
00F800
00F800
00F800
1EFBC0
7FFFF0
7FFFF0
FDFDF8
F8F8F8
F8F8F8
F8F8F8
F8F8F8
F8F8F8
FDFDF8
7FFFF0
7FFFF0
1EFBC0
00F800
00F800
00F800
00F800
00F800
ENDCHAR
STARTCHAR afii10087
ENCODING 245
SWIDTH 583 0
DWIDTH 14 0
BBX 13 13 0 0
BITMAP
FC78
7CF0
3EE0
3FE0
1FC0
1F80
0F80
0FC0
1FC0
3FE0
3BF0
79F0
F0F8
ENDCHAR
STARTCHAR afii10088
ENCODING 246
SWIDTH 708 0
DWIDTH 17 0
BBX 15 16 2 -3
BITMAP
F8F8
F8F8
F8F8
F8F8
F8F8
F8F8
F8F8
F8F8
F8F8
F8F8
FFFE
FFFE
FFFE
003E
003E
003E
ENDCHAR
STARTCHAR afii10089
ENCODING 247
SWIDTH 708 0
DWIDTH 17 0
BBX 13 13 2 0
BITMAP
F8F8
F8F8
F8F8
F8F8
F8F8
F9F8
FFF8
7FF8
3CF8
00F8
00F8
00F8
00F8
ENDCHAR
STARTCHAR afii10090
ENCODING 248
SWIDTH 1041 0
DWIDTH 25 0
BBX 21 13 2 0
BITMAP
F8F8F8
F8F8F8
F8F8F8
F8F8F8
F8F8F8
F8F8F8
F8F8F8
F8F8F8
F8F8F8
F8F8F8
FFFFF8
FFFFF8
FFFFF8
ENDCHAR
STARTCHAR afii10091
ENCODING 249
SWIDTH 1041 0
DWIDTH 25 0
BBX 23 16 2 -3
BITMAP
F8F8F8
F8F8F8
F8F8F8
F8F8F8
F8F8F8
F8F8F8
F8F8F8
F8F8F8
F8F8F8
F8F8F8
FFFFFE
FFFFFE
FFFFFE
00003E
00003E
00003E
ENDCHAR
STARTCHAR afii10092
ENCODING 250
SWIDTH 750 0
DWIDTH 18 0
BBX 16 13 1 0
BITMAP
FF00
FF00
FF00
1F00
1F00
1FF8
1FFE
1FFE
1F1F
1F1F
1FFF
1FFE
1FFC
ENDCHAR
STARTCHAR afii10093
ENCODING 251
SWIDTH 1000 0
DWIDTH 24 0
BBX 20 13 2 0
BITMAP
F801F0
F801F0
F801F0
F801F0
F801F0
FFC1F0
FFF1F0
FFF1F0
F8F9F0
F8F9F0
FFF9F0
FFF1F0
FFE1F0
ENDCHAR
STARTCHAR afii10094
ENCODING 252
SWIDTH 666 0
DWIDTH 16 0
BBX 13 13 2 0
BITMAP
F800
F800
F800
F800
F800
FFC0
FFF0
FFF0
F8F8
F8F8
FFF8
FFF0
FFE0
ENDCHAR
STARTCHAR afii10095
ENCODING 253
SWIDTH 583 0
DWIDTH 14 0
BBX 12 13 1 0
BITMAP
7F00
FFC0
FFE0
87E0
03F0
1FF0
1FF0
1FF0
03F0
87E0
FFE0
FFC0
FF00
ENDCHAR
STARTCHAR afii10096
ENCODING 254
SWIDTH 1000 0
DWIDTH 24 0
BBX 21 13 2 0
BITMAP
F81F80
F87FE0
F8FFF0
F8F9F0
F9F0F8
FFF0F8
FFF0F8
FFF0F8
F9F0F8
F8F9F0
F8FFF0
F87FE0
F81F80
ENDCHAR
STARTCHAR afii10097
ENCODING 255
SWIDTH 708 0
DWIDTH 17 0
BBX 15 13 0 0
BITMAP
0FFE
1FFE
3FFE
3E3E
3E3E
1FFE
0FFE
0FFE
1F3E
3E3E
3E3E
7C3E
FC3E
ENDCHAR
STARTCHAR fl
ENCODING -1
SWIDTH 711 0
DWIDTH 17 0
BBX 15 18 0 0
BITMAP
0FFE
1FFE
3FFE
3E3E
3E3E
FFBE
FFBE
FFBE
3E3E
3E3E
3E3E
3E3E
3E3E
3E3E
3E3E
3E3E
3E3E
3E3E
ENDCHAR
STARTCHAR Zcaron
ENCODING -1
SWIDTH 675 0
DWIDTH 16 0
BBX 13 21 1 0
BITMAP
1C70
0FE0
07C0
0000
FFF8
FFF8
FFF8
01F8
03F0
03F0
07E0
0FC0
1FC0
1F80
3F00
7E00
7E00
FC00
FFF8
FFF8
FFF8
ENDCHAR
STARTCHAR oe
ENCODING -1
SWIDTH 990 0
DWIDTH 24 0
BBX 22 13 1 0
BITMAP
0F83C0
3FE7F0
7FFFF8
7CFC78
F87C7C
F87FFC
F87FFC
F87FFC
F87C00
7CFE04
7FFFFC
3FFFFC
0FC7F8
ENDCHAR
STARTCHAR Ydieresis
ENCODING -1
SWIDTH 738 0
DWIDTH 18 0
BBX 17 21 0 0
BITMAP
073800
073800
073800
000000
FC0780
7C0700
7E0E00
3F1E00
3F1C00
1FBC00
0FF800
0FF000
07F000
07E000
03E000
03E000
03E000
03E000
03E000
03E000
03E000
ENDCHAR
STARTCHAR dotlessi
ENCODING -1
SWIDTH 361 0
DWIDTH 9 0
BBX 5 13 2 0
BITMAP
F8
F8
F8
F8
F8
F8
F8
F8
F8
F8
F8
F8
F8
ENDCHAR
STARTCHAR lslash
ENCODING -1
SWIDTH 361 0
DWIDTH 9 0
BBX 9 18 0 0
BITMAP
3E00
3E00
3E00
3E00
3E00
3E80
3F80
3F80
3F00
FE00
FE00
FE00
BE00
3E00
3E00
3E00
3E00
3E00
ENDCHAR
STARTCHAR Lslash
ENCODING -1
SWIDTH 620 0
DWIDTH 15 0
BBX 15 17 0 0
BITMAP
3E00
3E00
3E00
3E00
3E80
3F80
3F80
3F00
7E00
FE00
FE00
BE00
3E00
3E00
3FFE
3FFE
3FFE
ENDCHAR
STARTCHAR fi
ENCODING -1
SWIDTH 711 0
DWIDTH 17 0
BBX 15 18 0 0
BITMAP
0FE0
1FE0
3FE0
3E00
3E00
FFFE
FFFE
FFFE
3E3E
3E3E
3E3E
3E3E
3E3E
3E3E
3E3E
3E3E
3E3E
3E3E
ENDCHAR
STARTCHAR OE
ENCODING -1
SWIDTH 1102 0
DWIDTH 26 0
BBX 25 17 1 0
BITMAP
03FFFF00
0FFFFF00
3FFFFF00
7E1F8000
7C0F8000
FC0F8000
F80F8000
F80FFE00
F80FFE00
F80FFE00
F80F8000
FC0F8000
7C0F8000
7E1F8000
3FFFFF80
0FFFFF80
03FFFF80
ENDCHAR
STARTCHAR caron
ENCODING -1
SWIDTH 675 0
DWIDTH 16 0
BBX 9 3 4 15
BITMAP
E380
7F00
3E00
ENDCHAR
STARTCHAR ogonek
ENCODING -1
SWIDTH 675 0
DWIDTH 16 0
BBX 5 3 6 -4
BITMAP
70
E0
78
ENDCHAR
STARTCHAR hungarumlaut
ENCODING -1
SWIDTH 675 0
DWIDTH 16 0
BBX 9 3 5 15
BITMAP
3B80
7600
EC00
ENDCHAR
STARTCHAR dotaccent
ENCODING -1
SWIDTH 675 0
DWIDTH 16 0
BBX 3 3 7 15
BITMAP
E0
E0
E0
ENDCHAR
STARTCHAR breve
ENCODING -1
SWIDTH 675 0
DWIDTH 16 0
BBX 9 3 4 15
BITMAP
E380
7F00
3E00
ENDCHAR
STARTCHAR tilde
ENCODING -1
SWIDTH 675 0
DWIDTH 16 0
BBX 9 3 4 15
BITMAP
7B80
FF80
EF00
ENDCHAR
STARTCHAR circumflex
ENCODING -1
SWIDTH 675 0
DWIDTH 16 0
BBX 9 3 4 15
BITMAP
3E00
7F00
E380
ENDCHAR
STARTCHAR scaron
ENCODING -1
SWIDTH 622 0
DWIDTH 15 0
BBX 12 17 2 0
BITMAP
38E0
1FC0
0F80
0000
3FC0
7FE0
FFE0
F820
F800
FF00
3FC0
0FF0
01F0
C1F0
FFF0
FFE0
7F80
ENDCHAR
STARTCHAR ring
ENCODING -1
SWIDTH 675 0
DWIDTH 16 0
BBX 4 4 6 14
BITMAP
60
90
90
60
ENDCHAR
STARTCHAR florin
ENCODING -1
SWIDTH 687 0
DWIDTH 16 0
BBX 13 21 3 -4
BITMAP
01F8
07F8
07F8
0F00
0F00
1F00
1E00
7F80
7F80
7F80
3E00
3E00
3C00
3C00
7C00
7C00
7C00
7800
7800
F800
F800
ENDCHAR
STARTCHAR fraction
ENCODING -1
SWIDTH 93 0
DWIDTH 2 0
BBX 17 17 -7 0
BITMAP
000780
000F00
001E00
003C00
003800
007800
00F000
01E000
01C000
03C000
078000
0F0000
1E0000
1C0000
3C0000
780000
F00000
ENDCHAR
STARTCHAR Scaron
ENCODING -1
SWIDTH 594 0
DWIDTH 14 0
BBX 13 21 1 0
BITMAP
38E0
1FC0
0F80
0000
1FF0
7FF0
7FF0
F830
F800
FE00
FF00
7FC0
3FF0
1FF0
07F8
01F8
00F8
C1F8
FFF0
FFE0
FF80
ENDCHAR
STARTCHAR zcaron
ENCODING -1
SWIDTH 608 0
DWIDTH 15 0
BBX 12 17 1 0
BITMAP
38E0
1FC0
0F80
0000
FFF0
FFF0
FFF0
07F0
0FE0
1FC0
1F80
3F00
7F00
FE00
FFF0
FFF0
FFF0
ENDCHAR
ENDFONT
