STARTFONT 2.1
COMMENT $XConsortium: luIS18.bdf,v 1.7 94/04/02 15:59:54 gildea Exp $
COMMENT  (c) Copyright Bigelow & Holmes 1986, 1985. Lucida is a registered
COMMENT  trademark of Bigelow & Holmes. See LEGAL NOTICE file for terms 
COMMENT  of the license. 
COMMENT GRID 0018 0018 0200 0200
FONT -RFX-Serene-Medium-I-Normal-Sans-18-180-75-75-P-105-windows-1251
SIZE 18 72 72
FONTBOUNDINGBOX 24 19 -3 -3
STARTPROPERTIES 24
FONTNAME_REGISTRY ""
FOUNDRY "RFX"
FAMILY_NAME "Serene"
WEIGHT_NAME "Medium"
SLANT "I"
SETWIDTH_NAME "Normal"
ADD_STYLE_NAME "Sans"
PIXEL_SIZE 18
POINT_SIZE 180
RESOLUTION_X 75
RESOLUTION_Y 75
SPACING "P"
AVERAGE_WIDTH 105
CHARSET_REGISTRY "windows"
CHARSET_ENCODING "1251"
FONT_ASCENT 16
FONT_DESCENT 3
DEFAULT_CHAR 32
COPYRIGHT "Copyright Bigelow & Holmes 1986, 1985."
FACE_NAME "Lucida Sans Italic"
COPYRIGHT2 "Cyrillic and Euro glyphs copyright 2000 Dmitry Yu. Bolkhovityanov, bolkhov@inp.nsk.su"
SOURCEDATE "Wed Jul 26 20:33:50 2000"
PKGVERSION "1.1"
ASSEMBLER "cvtbdf.pl (Linux)"
ENDPROPERTIES
CHARS 244
STARTCHAR space
ENCODING 32
SWIDTH 316 0
DWIDTH 5 0
BBX 0 0 0 0
BITMAP
ENDCHAR
STARTCHAR exclam
ENCODING 33
SWIDTH 193 0
DWIDTH 4 0
BBX 4 13 1 0
BITMAP
30
30
30
30
60
60
60
40
40
00
00
C0
C0
ENDCHAR
STARTCHAR quotedbl
ENCODING 34
SWIDTH 361 0
DWIDTH 7 0
BBX 5 4 2 10
BITMAP
D8
D8
90
90
ENDCHAR
STARTCHAR numbersign
ENCODING 35
SWIDTH 633 0
DWIDTH 12 0
BBX 11 13 1 0
BITMAP
0660
0660
0CC0
7FE0
1980
1980
3300
3300
FFC0
6600
6600
CC00
CC00
ENDCHAR
STARTCHAR dollar
ENCODING 36
SWIDTH 633 0
DWIDTH 12 0
BBX 10 15 1 -1
BITMAP
0100
0F80
1140
3100
3200
3A00
1E00
0F00
0B80
0980
0980
1180
D300
7E00
1000
ENDCHAR
STARTCHAR percent
ENCODING 37
SWIDTH 741 0
DWIDTH 14 0
BBX 13 13 1 0
BITMAP
3818
4C30
CC60
CCC0
CD80
C900
7270
0498
0D98
1998
3198
6190
C0E0
ENDCHAR
STARTCHAR ampersand
ENCODING 38
SWIDTH 701 0
DWIDTH 13 0
BBX 11 13 1 0
BITMAP
0780
18C0
18C0
1980
0E00
1C00
6660
4660
C340
C380
C180
E2C0
7CC0
ENDCHAR
STARTCHAR quotesingle
ENCODING 39
SWIDTH 217 0
DWIDTH 4 0
BBX 2 4 2 10
BITMAP
C0
C0
80
80
ENDCHAR
STARTCHAR parenleft
ENCODING 40
SWIDTH 325 0
DWIDTH 6 0
BBX 5 16 2 -2
BITMAP
08
10
30
20
60
60
C0
C0
C0
C0
C0
C0
C0
C0
40
20
ENDCHAR
STARTCHAR parenright
ENCODING 41
SWIDTH 325 0
DWIDTH 6 0
BBX 5 16 0 -2
BITMAP
20
10
18
18
18
18
18
18
18
18
30
30
20
60
40
80
ENDCHAR
STARTCHAR asterisk
ENCODING 42
SWIDTH 470 0
DWIDTH 9 0
BBX 6 7 2 6
BITMAP
10
10
94
CC
30
50
D8
ENDCHAR
STARTCHAR plus
ENCODING 43
SWIDTH 633 0
DWIDTH 12 0
BBX 9 9 2 1
BITMAP
0400
0400
0800
0800
FF80
0800
0800
1000
1000
ENDCHAR
STARTCHAR comma
ENCODING 44
SWIDTH 316 0
DWIDTH 4 0
BBX 3 4 0 -2
BITMAP
60
60
40
80
ENDCHAR
STARTCHAR minus
ENCODING 45
SWIDTH 633 0
DWIDTH 12 0
BBX 9 1 2 5
BITMAP
FF80
ENDCHAR
STARTCHAR period
ENCODING 46
SWIDTH 316 0
DWIDTH 4 0
BBX 2 2 1 0
BITMAP
C0
C0
ENDCHAR
STARTCHAR slash
ENCODING 47
SWIDTH 482 0
DWIDTH 9 0
BBX 11 16 -1 -2
BITMAP
0060
00C0
00C0
0180
0380
0300
0600
0600
0C00
0C00
1800
3800
3000
6000
6000
C000
ENDCHAR
STARTCHAR zero
ENCODING 48
SWIDTH 633 0
DWIDTH 12 0
BBX 10 13 2 0
BITMAP
0700
1980
30C0
60C0
60C0
C0C0
C0C0
C0C0
C180
C180
C300
6600
3800
ENDCHAR
STARTCHAR one
ENCODING 49
SWIDTH 633 0
DWIDTH 12 0
BBX 4 13 5 0
BITMAP
30
F0
30
30
30
60
60
60
60
C0
C0
C0
C0
ENDCHAR
STARTCHAR two
ENCODING 50
SWIDTH 633 0
DWIDTH 12 0
BBX 10 13 2 0
BITMAP
1F80
31C0
00C0
00C0
00C0
0180
0300
0E00
1800
3000
6000
FF80
FF80
ENDCHAR
STARTCHAR three
ENCODING 51
SWIDTH 633 0
DWIDTH 12 0
BBX 10 13 2 0
BITMAP
1F80
31C0
00C0
00C0
0180
0300
1E00
0300
0180
0180
0180
C300
7E00
ENDCHAR
STARTCHAR four
ENCODING 52
SWIDTH 633 0
DWIDTH 12 0
BBX 9 13 2 0
BITMAP
0180
0380
0580
0980
1180
2300
4300
FF80
FF80
0600
0600
0600
0600
ENDCHAR
STARTCHAR five
ENCODING 53
SWIDTH 633 0
DWIDTH 12 0
BBX 10 13 2 0
BITMAP
1FC0
1FC0
1000
2000
2000
3C00
0600
0300
0300
0300
0300
C600
7C00
ENDCHAR
STARTCHAR six
ENCODING 54
SWIDTH 633 0
DWIDTH 12 0
BBX 10 13 2 0
BITMAP
0780
18C0
3000
6000
6000
CE00
D300
E180
C180
C180
C300
6300
3C00
ENDCHAR
STARTCHAR seven
ENCODING 55
SWIDTH 633 0
DWIDTH 12 0
BBX 10 13 3 0
BITMAP
7FC0
7FC0
0180
0300
0600
0C00
1800
3000
6000
6000
C000
C000
C000
ENDCHAR
STARTCHAR eight
ENCODING 56
SWIDTH 633 0
DWIDTH 12 0
BBX 10 13 2 0
BITMAP
0780
19C0
30C0
30C0
3980
1E00
0F00
3300
6180
C180
C180
E300
7C00
ENDCHAR
STARTCHAR nine
ENCODING 57
SWIDTH 633 0
DWIDTH 12 0
BBX 9 13 3 0
BITMAP
1E00
6300
6180
C180
C180
C380
6580
3980
0300
0300
0600
CC00
7000
ENDCHAR
STARTCHAR colon
ENCODING 58
SWIDTH 316 0
DWIDTH 4 0
BBX 4 10 0 0
BITMAP
30
30
00
00
00
00
00
00
C0
C0
ENDCHAR
STARTCHAR semicolon
ENCODING 59
SWIDTH 316 0
DWIDTH 4 0
BBX 5 12 -1 -2
BITMAP
18
18
00
00
00
00
00
00
60
60
40
80
ENDCHAR
STARTCHAR less
ENCODING 60
SWIDTH 633 0
DWIDTH 12 0
BBX 9 9 2 1
BITMAP
0080
0300
0C00
3000
C000
6000
3000
0C00
0200
ENDCHAR
STARTCHAR equal
ENCODING 61
SWIDTH 633 0
DWIDTH 12 0
BBX 10 5 1 3
BITMAP
7FC0
0000
0000
0000
FF80
ENDCHAR
STARTCHAR greater
ENCODING 62
SWIDTH 633 0
DWIDTH 12 0
BBX 9 9 2 1
BITMAP
2000
1800
0600
0300
0180
0600
1800
6000
8000
ENDCHAR
STARTCHAR question
ENCODING 63
SWIDTH 464 0
DWIDTH 9 0
BBX 7 13 2 0
BITMAP
7C
CE
06
06
0C
18
30
60
40
00
00
C0
C0
ENDCHAR
STARTCHAR at
ENCODING 64
SWIDTH 858 0
DWIDTH 16 0
BBX 14 13 2 0
BITMAP
07E0
1C38
3008
63EC
4C64
CC64
98C4
99C4
DEC8
4CF0
6000
3800
0F80
ENDCHAR
STARTCHAR A
ENCODING 65
SWIDTH 687 0
DWIDTH 12 0
BBX 10 13 1 0
BITMAP
0300
0300
0500
0D80
0980
1980
1180
3180
3FC0
60C0
60C0
C0C0
C0C0
ENDCHAR
STARTCHAR B
ENCODING 66
SWIDTH 593 0
DWIDTH 11 0
BBX 10 13 1 0
BITMAP
3F80
31C0
30C0
30C0
6180
6300
7E00
6300
6180
C180
C180
C300
FC00
ENDCHAR
STARTCHAR C
ENCODING 67
SWIDTH 679 0
DWIDTH 12 0
BBX 12 13 1 0
BITMAP
07E0
1830
3000
6000
6000
C000
C000
C000
C000
C000
6000
7040
1F80
ENDCHAR
STARTCHAR D
ENCODING 68
SWIDTH 743 0
DWIDTH 14 0
BBX 12 13 2 0
BITMAP
3F80
30E0
3060
3030
6030
6030
6030
6030
6060
C060
C0C0
C180
FE00
ENDCHAR
STARTCHAR E
ENCODING 69
SWIDTH 547 0
DWIDTH 10 0
BBX 9 13 2 0
BITMAP
3F80
3000
3000
3000
6000
6000
7E00
6000
6000
C000
C000
C000
FE00
ENDCHAR
STARTCHAR F
ENCODING 70
SWIDTH 536 0
DWIDTH 10 0
BBX 9 13 2 0
BITMAP
3F80
3000
3000
3000
6000
6000
7E00
6000
6000
C000
C000
C000
C000
ENDCHAR
STARTCHAR G
ENCODING 71
SWIDTH 702 0
DWIDTH 13 0
BBX 12 13 1 0
BITMAP
07E0
1830
3000
6000
6000
C000
C000
C060
C060
C060
60C0
70C0
1FC0
ENDCHAR
STARTCHAR H
ENCODING 72
SWIDTH 735 0
DWIDTH 14 0
BBX 12 13 2 0
BITMAP
3030
3030
3030
3030
6060
6060
7FE0
6060
6060
C0C0
C0C0
C0C0
C0C0
ENDCHAR
STARTCHAR I
ENCODING 73
SWIDTH 289 0
DWIDTH 6 0
BBX 4 13 1 0
BITMAP
30
30
30
30
60
60
60
60
60
C0
C0
C0
C0
ENDCHAR
STARTCHAR J
ENCODING 74
SWIDTH 408 0
DWIDTH 8 0
BBX 8 15 -1 -2
BITMAP
03
03
03
03
06
06
06
06
06
0C
0C
0C
08
18
F0
ENDCHAR
STARTCHAR K
ENCODING 75
SWIDTH 635 0
DWIDTH 12 0
BBX 10 13 2 0
BITMAP
30C0
30C0
3180
3300
6600
6C00
7800
6C00
6600
C600
C300
C180
C180
ENDCHAR
STARTCHAR L
ENCODING 76
SWIDTH 545 0
DWIDTH 10 0
BBX 8 13 2 0
BITMAP
30
30
30
30
60
60
60
60
60
C0
C0
C0
FF
ENDCHAR
STARTCHAR M
ENCODING 77
SWIDTH 828 0
DWIDTH 16 0
BBX 14 13 2 0
BITMAP
381C
381C
282C
2C2C
2C4C
4C98
4C98
4D18
4718
8630
8630
8030
8030
ENDCHAR
STARTCHAR N
ENCODING 78
SWIDTH 741 0
DWIDTH 14 0
BBX 11 13 2 0
BITMAP
3820
3820
2C20
2C20
2C60
6640
4640
4340
4340
C380
8180
8180
8180
ENDCHAR
STARTCHAR O
ENCODING 79
SWIDTH 777 0
DWIDTH 14 0
BBX 13 13 1 0
BITMAP
07C0
1870
3030
6018
6018
C018
C018
C018
C030
C030
6060
70C0
1F00
ENDCHAR
STARTCHAR P
ENCODING 80
SWIDTH 575 0
DWIDTH 11 0
BBX 10 13 1 0
BITMAP
3F80
31C0
30C0
30C0
60C0
6180
6300
7C00
6000
C000
C000
C000
C000
ENDCHAR
STARTCHAR Q
ENCODING 81
SWIDTH 777 0
DWIDTH 14 0
BBX 13 16 1 -3
BITMAP
07C0
1870
3030
6018
6018
C018
C018
C018
C030
C030
6060
70C0
1F00
0180
00E0
0038
ENDCHAR
STARTCHAR R
ENCODING 82
SWIDTH 632 0
DWIDTH 12 0
BBX 10 13 2 0
BITMAP
3F80
31C0
30C0
30C0
6180
6300
7C00
6600
6600
C300
C300
C180
C1C0
ENDCHAR
STARTCHAR S
ENCODING 83
SWIDTH 553 0
DWIDTH 10 0
BBX 9 13 1 0
BITMAP
1F00
3980
3000
3000
1800
1C00
0E00
0600
0300
0300
0300
C600
7C00
ENDCHAR
STARTCHAR T
ENCODING 84
SWIDTH 623 0
DWIDTH 12 0
BBX 12 13 1 0
BITMAP
FFF0
0600
0600
0600
0C00
0C00
0C00
0C00
0C00
1800
1800
1800
1800
ENDCHAR
STARTCHAR U
ENCODING 85
SWIDTH 693 0
DWIDTH 13 0
BBX 12 13 1 0
BITMAP
3030
3030
3030
3030
6020
6060
6060
6060
C040
C0C0
C080
6180
3E00
ENDCHAR
STARTCHAR V
ENCODING 86
SWIDTH 687 0
DWIDTH 12 0
BBX 10 13 3 0
BITMAP
C0C0
C0C0
C180
C180
C300
C300
C600
C600
CC00
4800
7800
7000
6000
ENDCHAR
STARTCHAR W
ENCODING 87
SWIDTH 886 0
DWIDTH 16 0
BBX 15 13 2 0
BITMAP
C186
C186
C38C
C38C
C598
CD98
C9B0
D1A0
F1E0
E1C0
C180
C180
8100
ENDCHAR
STARTCHAR X
ENCODING 88
SWIDTH 620 0
DWIDTH 12 0
BBX 11 13 1 0
BITMAP
3060
3060
18C0
1980
0D00
0E00
0E00
1E00
3300
6300
6180
C180
C180
ENDCHAR
STARTCHAR Y
ENCODING 89
SWIDTH 608 0
DWIDTH 11 0
BBX 11 13 2 0
BITMAP
C060
C060
60C0
6180
3300
3600
1C00
1800
1800
3000
3000
3000
3000
ENDCHAR
STARTCHAR Z
ENCODING 90
SWIDTH 578 0
DWIDTH 11 0
BBX 11 13 1 0
BITMAP
3FE0
0060
00E0
01C0
0380
0700
0E00
1C00
3800
7000
E000
C000
FF80
ENDCHAR
STARTCHAR bracketleft
ENCODING 91
SWIDTH 325 0
DWIDTH 6 0
BBX 6 16 1 -2
BITMAP
1C
18
18
18
30
30
30
30
60
60
60
60
C0
C0
C0
E0
ENDCHAR
STARTCHAR backslash
ENCODING 92
SWIDTH 482 0
DWIDTH 9 0
BBX 7 16 1 -2
BITMAP
C0
C0
60
60
60
30
30
30
18
18
18
0C
0C
0C
06
06
ENDCHAR
STARTCHAR bracketright
ENCODING 93
SWIDTH 325 0
DWIDTH 6 0
BBX 6 16 0 -2
BITMAP
1C
0C
0C
0C
18
18
18
18
30
30
30
30
60
60
60
E0
ENDCHAR
STARTCHAR asciicircum
ENCODING 94
SWIDTH 633 0
DWIDTH 12 0
BBX 8 10 2 2
BITMAP
06
0E
1A
12
32
62
63
C3
C3
C3
ENDCHAR
STARTCHAR underscore
ENCODING 95
SWIDTH 500 0
DWIDTH 12 0
BBX 10 1 1 -1
BITMAP
FFC0
ENDCHAR
STARTCHAR grave
ENCODING 96
SWIDTH 572 0
DWIDTH 11 0
BBX 4 2 5 11
BITMAP
E0
30
ENDCHAR
STARTCHAR a
ENCODING 97
SWIDTH 608 0
DWIDTH 11 0
BBX 10 10 1 0
BITMAP
0FC0
31C0
60C0
6180
C180
C380
C580
CB00
FB00
7300
ENDCHAR
STARTCHAR b
ENCODING 98
SWIDTH 608 0
DWIDTH 11 0
BBX 10 14 1 0
BITMAP
1800
1800
1800
1800
3380
37C0
34C0
68C0
70C0
60C0
6180
C180
E300
FC00
ENDCHAR
STARTCHAR c
ENCODING 99
SWIDTH 503 0
DWIDTH 9 0
BBX 8 10 1 0
BITMAP
0E
33
60
60
C0
C0
C0
C0
E4
78
ENDCHAR
STARTCHAR d
ENCODING 100
SWIDTH 608 0
DWIDTH 11 0
BBX 11 14 1 0
BITMAP
0060
0060
0060
0060
0FC0
31C0
60C0
6180
C180
C380
C580
CB00
FB00
7300
ENDCHAR
STARTCHAR e
ENCODING 101
SWIDTH 529 0
DWIDTH 10 0
BBX 8 10 1 0
BITMAP
0E
33
63
63
C6
F8
C0
C0
E2
7C
ENDCHAR
STARTCHAR f
ENCODING 102
SWIDTH 383 0
DWIDTH 7 0
BBX 9 17 0 -3
BITMAP
0380
0400
0C00
0C00
3F00
1800
1800
3000
3000
3000
3000
6000
6000
6000
C000
C000
C000
ENDCHAR
STARTCHAR g
ENCODING 103
SWIDTH 608 0
DWIDTH 11 0
BBX 11 13 0 -3
BITMAP
07E0
18E0
3060
30C0
60C0
61C0
62C0
6580
7D80
3980
0100
C300
7C00
ENDCHAR
STARTCHAR h
ENCODING 104
SWIDTH 620 0
DWIDTH 12 0
BBX 10 14 1 0
BITMAP
1800
1800
1800
1800
3380
37C0
34C0
68C0
7180
6180
6180
C300
C300
C300
ENDCHAR
STARTCHAR i
ENCODING 105
SWIDTH 289 0
DWIDTH 6 0
BBX 6 14 1 0
BITMAP
0C
18
00
00
30
30
30
60
60
60
60
C0
C0
C0
ENDCHAR
STARTCHAR j
ENCODING 106
SWIDTH 325 0
DWIDTH 6 0
BBX 10 17 -3 -3
BITMAP
00C0
0180
0000
0000
0300
0300
0300
0600
0600
0600
0600
0C00
0C00
0C00
0C00
1800
F000
ENDCHAR
STARTCHAR k
ENCODING 107
SWIDTH 572 0
DWIDTH 10 0
BBX 9 14 1 0
BITMAP
1800
1800
1800
1800
3180
3180
3300
6400
7800
7800
6C00
CE00
C700
C380
ENDCHAR
STARTCHAR l
ENCODING 108
SWIDTH 289 0
DWIDTH 6 0
BBX 5 14 1 0
BITMAP
18
18
18
18
30
30
30
60
60
60
60
C0
C0
C0
ENDCHAR
STARTCHAR m
ENCODING 109
SWIDTH 934 0
DWIDTH 18 0
BBX 16 10 1 0
BITMAP
338E
37DF
34D3
68E3
71C6
6186
6186
C30C
C30C
C30C
ENDCHAR
STARTCHAR n
ENCODING 110
SWIDTH 620 0
DWIDTH 12 0
BBX 10 10 1 0
BITMAP
3380
37C0
34C0
68C0
7180
6180
6180
C300
C300
C300
ENDCHAR
STARTCHAR o
ENCODING 111
SWIDTH 566 0
DWIDTH 11 0
BBX 9 10 1 0
BITMAP
0F00
3380
6180
6180
C180
C180
C300
C300
E600
7800
ENDCHAR
STARTCHAR p
ENCODING 112
SWIDTH 608 0
DWIDTH 11 0
BBX 11 13 0 -3
BITMAP
19C0
1BE0
1A60
3460
3860
3060
30C0
60C0
7180
7E00
C000
C000
C000
ENDCHAR
STARTCHAR q
ENCODING 113
SWIDTH 608 0
DWIDTH 11 0
BBX 10 13 1 -3
BITMAP
0FC0
31C0
60C0
6180
C180
C380
C580
CB00
FB00
7300
0600
0600
0600
ENDCHAR
STARTCHAR r
ENCODING 114
SWIDTH 478 0
DWIDTH 9 0
BBX 8 10 1 0
BITMAP
33
37
34
68
70
60
60
C0
C0
C0
ENDCHAR
STARTCHAR s
ENCODING 115
SWIDTH 489 0
DWIDTH 9 0
BBX 8 10 1 0
BITMAP
1E
23
60
70
38
1C
0E
06
C4
78
ENDCHAR
STARTCHAR t
ENCODING 116
SWIDTH 383 0
DWIDTH 7 0
BBX 6 12 1 0
BITMAP
10
30
7C
30
60
60
60
60
C0
C0
C0
70
ENDCHAR
STARTCHAR u
ENCODING 117
SWIDTH 620 0
DWIDTH 11 0
BBX 10 10 1 0
BITMAP
30C0
30C0
30C0
6180
6180
6380
C580
CB00
FB00
7300
ENDCHAR
STARTCHAR v
ENCODING 118
SWIDTH 545 0
DWIDTH 10 0
BBX 8 10 2 0
BITMAP
C3
C3
C3
C2
C6
C4
C8
D0
E0
C0
ENDCHAR
STARTCHAR w
ENCODING 119
SWIDTH 795 0
DWIDTH 15 0
BBX 13 10 2 0
BITMAP
C018
C618
C630
CE30
CE60
D640
D6C0
E680
E700
C600
ENDCHAR
STARTCHAR x
ENCODING 120
SWIDTH 541 0
DWIDTH 10 0
BBX 9 10 1 0
BITMAP
3180
3180
1900
1A00
0C00
1800
2C00
4C00
C600
C600
ENDCHAR
STARTCHAR y
ENCODING 121
SWIDTH 548 0
DWIDTH 10 0
BBX 10 13 0 -3
BITMAP
30C0
30C0
30C0
3080
3180
3100
3200
3400
3800
3000
6000
C000
C000
ENDCHAR
STARTCHAR z
ENCODING 122
SWIDTH 536 0
DWIDTH 10 0
BBX 9 10 1 0
BITMAP
7F80
0380
0700
0E00
1C00
1800
3800
7000
E000
FF00
ENDCHAR
STARTCHAR braceleft
ENCODING 123
SWIDTH 325 0
DWIDTH 6 0
BBX 7 16 1 -2
BITMAP
06
08
18
18
18
18
10
20
C0
20
60
60
C0
C0
C0
60
ENDCHAR
STARTCHAR bar
ENCODING 124
SWIDTH 233 0
DWIDTH 5 0
BBX 4 16 1 -2
BITMAP
30
30
30
30
30
60
60
60
60
60
60
C0
C0
C0
C0
C0
ENDCHAR
STARTCHAR braceright
ENCODING 125
SWIDTH 325 0
DWIDTH 6 0
BBX 7 16 -1 -2
BITMAP
0C
06
06
06
0C
0C
08
06
08
10
30
30
30
30
20
C0
ENDCHAR
STARTCHAR asciitilde
ENCODING 126
SWIDTH 633 0
DWIDTH 12 0
BBX 10 3 2 4
BITMAP
7840
CCC0
8780
ENDCHAR
STARTCHAR afii10051
ENCODING 128
SWIDTH 777 0
DWIDTH 14 0
BBX 13 13 1 0
BITMAP
FFF0
0600
0600
0600
0C00
0DE0
0E30
0C18
0C18
1818
1830
1870
19C0
ENDCHAR
STARTCHAR afii10052
ENCODING 129
SWIDTH 555 0
DWIDTH 10 0
BBX 9 16 2 0
BITMAP
0700
0C00
0000
3F80
3000
3000
3000
6000
6000
6000
6000
6000
C000
C000
C000
C000
ENDCHAR
STARTCHAR quotesinglbase
ENCODING 130
SWIDTH 217 0
DWIDTH 4 0
BBX 3 4 1 -2
BITMAP
60
60
40
80
ENDCHAR
STARTCHAR afii10100
ENCODING 131
SWIDTH 555 0
DWIDTH 10 0
BBX 8 13 1 0
BITMAP
07
0C
00
1E
27
03
03
0E
70
C0
C0
E2
7C
ENDCHAR
STARTCHAR quotedblbase
ENCODING 132
SWIDTH 361 0
DWIDTH 7 0
BBX 6 4 0 -2
BITMAP
6C
6C
48
90
ENDCHAR
STARTCHAR ellipsis
ENCODING 133
SWIDTH 1000 0
DWIDTH 12 0
BBX 8 2 2 0
BITMAP
C3
C3
ENDCHAR
STARTCHAR dagger
ENCODING 134
SWIDTH 633 0
DWIDTH 12 0
BBX 9 15 2 -2
BITMAP
0C00
0C00
0C00
0C00
FF80
1800
1800
1800
1800
1800
3000
3000
3000
3000
3000
ENDCHAR
STARTCHAR daggerdbl
ENCODING 135
SWIDTH 633 0
DWIDTH 12 0
BBX 10 15 1 -2
BITMAP
0600
0600
0600
0600
7FC0
0C00
0C00
0C00
0C00
0C00
FF80
1800
1800
1800
1800
ENDCHAR
STARTCHAR Euro
ENCODING 136
SWIDTH 722 0
DWIDTH 13 0
BBX 13 13 1 0
BITMAP
03F0
0C18
1800
3000
3000
7FC0
6000
FF00
6000
6000
3000
3820
0FC0
ENDCHAR
STARTCHAR perthousand
ENCODING 137
SWIDTH 1027 0
DWIDTH 20 0
BBX 20 13 1 0
BITMAP
381800
4C3000
CC6000
CCC000
CD8000
C90000
7270E0
049930
0D9B30
199B30
319B30
619320
C0E1C0
ENDCHAR
STARTCHAR afii10058
ENCODING 138
SWIDTH 1055 0
DWIDTH 19 0
BBX 18 13 0 0
BITMAP
07F800
061800
061800
061800
0C3000
0C3F00
0C3180
0C30C0
1830C0
1860C0
3061C0
606380
C07F00
ENDCHAR
STARTCHAR guilsinglleft
ENCODING 139
SWIDTH 328 0
DWIDTH 6 0
BBX 5 8 0 1
BITMAP
08
10
20
40
C0
60
30
10
ENDCHAR
STARTCHAR afii10059
ENCODING 140
SWIDTH 1055 0
DWIDTH 19 0
BBX 16 13 2 0
BITMAP
3060
3060
3060
3060
60C0
7FFC
60C6
60C3
60C3
C183
C187
C18E
C1FC
ENDCHAR
STARTCHAR afii10061
ENCODING 141
SWIDTH 666 0
DWIDTH 12 0
BBX 10 16 2 0
BITMAP
0380
0600
0000
30C0
30C0
3180
3300
6600
6C00
7800
6C00
6600
C600
C300
C180
C180
ENDCHAR
STARTCHAR afii10060
ENCODING 142
SWIDTH 777 0
DWIDTH 14 0
BBX 13 13 1 0
BITMAP
FFF0
0600
0600
0600
0C00
0DE0
0E30
0C18
0C18
1818
1830
1830
1830
ENDCHAR
STARTCHAR afii10145
ENCODING 143
SWIDTH 777 0
DWIDTH 14 0
BBX 12 16 2 -3
BITMAP
3030
3030
3030
3030
6060
6060
6060
6060
6060
C0C0
C0C0
C0C0
FFC0
1800
1800
1800
ENDCHAR
STARTCHAR afii10099
ENCODING 144
SWIDTH 666 0
DWIDTH 12 0
BBX 10 17 1 -3
BITMAP
1800
1800
3F80
1800
3380
37C0
34C0
68C0
7180
6180
6180
C300
C300
C600
0600
0C00
3800
ENDCHAR
STARTCHAR quoteleft
ENCODING 145
SWIDTH 217 0
DWIDTH 4 0
BBX 3 4 2 10
BITMAP
20
40
C0
C0
ENDCHAR
STARTCHAR quoteright
ENCODING 146
SWIDTH 217 0
DWIDTH 4 0
BBX 3 4 2 10
BITMAP
60
60
40
80
ENDCHAR
STARTCHAR quotedblleft
ENCODING 147
SWIDTH 361 0
DWIDTH 7 0
BBX 6 4 2 10
BITMAP
24
48
D8
D8
ENDCHAR
STARTCHAR quotedblright
ENCODING 148
SWIDTH 361 0
DWIDTH 7 0
BBX 6 4 2 10
BITMAP
6C
6C
48
90
ENDCHAR
STARTCHAR bullet
ENCODING 149
SWIDTH 633 0
DWIDTH 12 0
BBX 5 5 4 3
BITMAP
F8
F8
F8
F8
F8
ENDCHAR
STARTCHAR endash
ENCODING 150
SWIDTH 500 0
DWIDTH 10 0
BBX 9 1 1 5
BITMAP
FF80
ENDCHAR
STARTCHAR emdash
ENCODING 151
SWIDTH 1000 0
DWIDTH 19 0
BBX 18 1 1 5
BITMAP
FFFFC0
ENDCHAR
STARTCHAR trademark
ENCODING 153
SWIDTH 801 0
DWIDTH 15 0
BBX 15 6 0 7
BITMAP
FEC6
18CE
18FE
316C
316C
310C
ENDCHAR
STARTCHAR afii10106
ENCODING 154
SWIDTH 888 0
DWIDTH 16 0
BBX 15 10 0 0
BITMAP
0FE0
0C60
0C6C
18DE
18E6
18C6
3186
318C
61D8
C0F0
ENDCHAR
STARTCHAR guilsinglright
ENCODING 155
SWIDTH 328 0
DWIDTH 6 0
BBX 5 8 1 1
BITMAP
40
60
30
18
10
20
40
80
ENDCHAR
STARTCHAR afii10107
ENCODING 156
SWIDTH 888 0
DWIDTH 16 0
BBX 14 10 1 0
BITMAP
30C0
30C0
30D8
61BC
7FCC
618C
630C
C318
C3B0
C1E0
ENDCHAR
STARTCHAR afii10109
ENCODING 157
SWIDTH 555 0
DWIDTH 10 0
BBX 9 13 1 0
BITMAP
0380
0600
0000
3180
3180
3300
6400
7800
7800
6C00
CE00
C700
C380
ENDCHAR
STARTCHAR afii10108
ENCODING 158
SWIDTH 666 0
DWIDTH 12 0
BBX 10 14 1 0
BITMAP
1800
1800
3F80
1800
3380
37C0
34C0
68C0
7180
6180
6180
C300
C300
C300
ENDCHAR
STARTCHAR afii10193
ENCODING 159
SWIDTH 611 0
DWIDTH 11 0
BBX 10 12 1 -2
BITMAP
30C0
30C0
30C0
6180
6180
6380
C580
CB00
FB00
7B00
3000
3000
ENDCHAR
STARTCHAR space
ENCODING 160
SWIDTH 316 0
DWIDTH 5 0
BBX 0 0 0 0
BITMAP
ENDCHAR
STARTCHAR afii10062
ENCODING 161
SWIDTH 666 0
DWIDTH 12 0
BBX 11 16 2 0
BITMAP
1980
0F00
0000
6060
6060
60C0
3080
3180
3100
1B00
1E00
0C00
0C00
1800
3000
E000
ENDCHAR
STARTCHAR afii10110
ENCODING 162
SWIDTH 555 0
DWIDTH 10 0
BBX 10 16 0 -3
BITMAP
0D80
0700
0000
30C0
30C0
30C0
3080
3180
3100
3200
3400
3800
3000
6000
C000
C000
ENDCHAR
STARTCHAR afii10057
ENCODING 163
SWIDTH 408 0
DWIDTH 8 0
BBX 8 15 -1 -2
BITMAP
03
03
03
03
06
06
06
06
06
0C
0C
0C
08
18
F0
ENDCHAR
STARTCHAR currency
ENCODING 164
SWIDTH 633 0
DWIDTH 11 0
BBX 13 11 0 1
BITMAP
4008
2390
1CE0
1860
1860
3060
30C0
30C0
39C0
4E20
8010
ENDCHAR
STARTCHAR afii10050
ENCODING 165
SWIDTH 555 0
DWIDTH 10 0
BBX 10 16 2 0
BITMAP
00C0
00C0
00C0
3F80
3000
3000
3000
6000
6000
6000
6000
6000
C000
C000
C000
C000
ENDCHAR
STARTCHAR brokenbar
ENCODING 166
SWIDTH 233 0
DWIDTH 5 0
BBX 4 16 1 -2
BITMAP
30
30
30
30
30
30
00
00
00
00
C0
C0
C0
C0
C0
C0
ENDCHAR
STARTCHAR section
ENCODING 167
SWIDTH 633 0
DWIDTH 12 0
BBX 10 15 1 -2
BITMAP
0F80
10C0
3000
3800
1E00
2700
6380
7180
3900
1E00
0700
0300
0300
C600
7C00
ENDCHAR
STARTCHAR afii10023
ENCODING 168
SWIDTH 547 0
DWIDTH 10 0
BBX 9 16 2 0
BITMAP
0900
0900
0000
3F80
3000
3000
3000
6000
6000
7E00
6000
6000
C000
C000
C000
FE00
ENDCHAR
STARTCHAR copyright
ENCODING 169
SWIDTH 858 0
DWIDTH 16 0
BBX 13 13 2 0
BITMAP
0F80
3060
4010
4390
8E48
8C08
9808
9808
9888
4F10
4010
3060
0F80
ENDCHAR
STARTCHAR afii10053
ENCODING 170
SWIDTH 666 0
DWIDTH 12 0
BBX 12 13 1 0
BITMAP
07E0
1830
3000
6000
6000
C000
FE00
C000
C000
C000
6000
7040
1F80
ENDCHAR
STARTCHAR guillemotleft
ENCODING 171
SWIDTH 527 0
DWIDTH 10 0
BBX 9 8 0 1
BITMAP
0880
1100
2200
4400
CC00
6600
3300
1100
ENDCHAR
STARTCHAR logicalnot
ENCODING 172
SWIDTH 633 0
DWIDTH 12 0
BBX 9 5 2 1
BITMAP
FF80
0080
0080
0080
0080
ENDCHAR
STARTCHAR hyphen
ENCODING 173
SWIDTH 313 0
DWIDTH 6 0
BBX 5 1 1 5
BITMAP
F8
ENDCHAR
STARTCHAR registered
ENCODING 174
SWIDTH 633 0
DWIDTH 12 0
BBX 8 8 3 5
BITMAP
3C
42
BD
A5
B9
A5
42
3C
ENDCHAR
STARTCHAR afii10056
ENCODING 175
SWIDTH 289 0
DWIDTH 6 0
BBX 5 16 1 0
BITMAP
48
48
00
30
30
30
30
60
60
60
60
60
C0
C0
C0
C0
ENDCHAR
STARTCHAR degree
ENCODING 176
SWIDTH 269 0
DWIDTH 5 0
BBX 4 4 1 9
BITMAP
60
90
90
60
ENDCHAR
STARTCHAR plusminus
ENCODING 177
SWIDTH 633 0
DWIDTH 12 0
BBX 9 10 2 1
BITMAP
0400
0400
0400
0400
7F80
0800
0800
0800
0000
FF00
ENDCHAR
STARTCHAR afii10055
ENCODING 178
SWIDTH 289 0
DWIDTH 6 0
BBX 4 13 1 0
BITMAP
30
30
30
30
60
60
60
60
60
C0
C0
C0
C0
ENDCHAR
STARTCHAR afii10103
ENCODING 179
SWIDTH 289 0
DWIDTH 6 0
BBX 6 14 1 0
BITMAP
0C
18
00
00
30
30
30
60
60
60
60
C0
C0
C0
ENDCHAR
STARTCHAR afii10098
ENCODING 180
SWIDTH 444 0
DWIDTH 8 0
BBX 9 12 1 0
BITMAP
0180
0180
3F00
3000
3000
6000
6000
6000
6000
C000
C000
C000
ENDCHAR
STARTCHAR mu
ENCODING 181
SWIDTH 627 0
DWIDTH 11 0
BBX 11 13 0 -3
BITMAP
1860
1860
1860
30C0
30C0
31C0
62C0
6580
7D80
7980
C000
C000
C000
ENDCHAR
STARTCHAR paragraph
ENCODING 182
SWIDTH 633 0
DWIDTH 12 0
BBX 8 15 2 -2
BITMAP
7F
F9
F9
F9
F9
7B
12
12
12
12
36
24
24
24
24
ENDCHAR
STARTCHAR periodcentered
ENCODING 183
SWIDTH 316 0
DWIDTH 12 0
BBX 3 3 5 4
BITMAP
E0
E0
E0
ENDCHAR
STARTCHAR afii10071
ENCODING 184
SWIDTH 529 0
DWIDTH 10 0
BBX 8 13 1 0
BITMAP
12
12
00
0E
33
63
63
C6
F8
C0
C0
E2
7C
ENDCHAR
STARTCHAR afii61352
ENCODING 185
SWIDTH 944 0
DWIDTH 17 0
BBX 15 13 2 0
BITMAP
3820
3820
2C20
2C20
2C60
664C
4652
4352
434C
C380
81BC
8180
8180
ENDCHAR
STARTCHAR afii10101
ENCODING 186
SWIDTH 500 0
DWIDTH 9 0
BBX 8 10 1 0
BITMAP
0E
33
60
60
F8
C0
C0
C0
E4
78
ENDCHAR
STARTCHAR guillemotright
ENCODING 187
SWIDTH 527 0
DWIDTH 10 0
BBX 9 8 1 1
BITMAP
4400
6600
3300
1980
1100
2200
4400
8800
ENDCHAR
STARTCHAR afii10105
ENCODING 188
SWIDTH 325 0
DWIDTH 6 0
BBX 10 17 -3 -3
BITMAP
00C0
0180
0000
0000
0300
0300
0300
0600
0600
0600
0600
0C00
0C00
0C00
0C00
1800
F000
ENDCHAR
STARTCHAR afii10054
ENCODING 189
SWIDTH 553 0
DWIDTH 10 0
BBX 9 13 1 0
BITMAP
1F00
3980
3000
3000
1800
1C00
0E00
0600
0300
0300
0300
C600
7C00
ENDCHAR
STARTCHAR afii10102
ENCODING 190
SWIDTH 489 0
DWIDTH 9 0
BBX 8 10 1 0
BITMAP
1E
23
60
70
38
1C
0E
06
C4
78
ENDCHAR
STARTCHAR afii10104
ENCODING 191
SWIDTH 289 0
DWIDTH 6 0
BBX 5 13 1 0
BITMAP
48
48
00
30
30
30
60
60
60
60
C0
C0
C0
ENDCHAR
STARTCHAR afii10017
ENCODING 192
SWIDTH 666 0
DWIDTH 12 0
BBX 10 13 1 0
BITMAP
0300
0300
0500
0D80
0980
1980
1180
3180
3FC0
60C0
60C0
C0C0
C0C0
ENDCHAR
STARTCHAR afii10018
ENCODING 193
SWIDTH 611 0
DWIDTH 11 0
BBX 10 13 1 0
BITMAP
3FC0
3000
3000
3000
6000
7E00
6300
6180
6180
C180
C380
C700
FE00
ENDCHAR
STARTCHAR afii10019
ENCODING 194
SWIDTH 611 0
DWIDTH 11 0
BBX 10 13 1 0
BITMAP
3F80
31C0
30C0
30C0
6180
6300
7E00
6300
6180
C180
C180
C300
FC00
ENDCHAR
STARTCHAR afii10020
ENCODING 195
SWIDTH 555 0
DWIDTH 10 0
BBX 9 13 2 0
BITMAP
3F80
3000
3000
3000
6000
6000
6000
6000
6000
C000
C000
C000
C000
ENDCHAR
STARTCHAR afii10021
ENCODING 196
SWIDTH 722 0
DWIDTH 13 0
BBX 13 16 0 -3
BITMAP
07F8
0618
0618
0618
0C30
0C30
0C30
0C30
1830
1860
3060
3060
7FF0
C060
C060
C060
ENDCHAR
STARTCHAR afii10022
ENCODING 197
SWIDTH 555 0
DWIDTH 10 0
BBX 9 13 2 0
BITMAP
3F80
3000
3000
3000
6000
6000
7E00
6000
6000
C000
C000
C000
FE00
ENDCHAR
STARTCHAR afii10024
ENCODING 198
SWIDTH 1000 0
DWIDTH 18 0
BBX 17 13 1 0
BITMAP
186180
186180
0C6300
0C6600
06CC00
06D800
03F000
06D800
0CCC00
198C00
318600
618300
C18300
ENDCHAR
STARTCHAR afii10025
ENCODING 199
SWIDTH 611 0
DWIDTH 11 0
BBX 10 13 1 0
BITMAP
1F80
31C0
00C0
00C0
0180
0300
1E00
0300
0180
0180
0180
C300
7C00
ENDCHAR
STARTCHAR afii10026
ENCODING 200
SWIDTH 777 0
DWIDTH 14 0
BBX 11 13 2 0
BITMAP
2060
20E0
21E0
21A0
6320
4640
4640
4C40
5840
B080
F080
E080
C080
ENDCHAR
STARTCHAR afii10027
ENCODING 201
SWIDTH 777 0
DWIDTH 14 0
BBX 11 16 2 0
BITMAP
0CC0
0780
0000
2060
20E0
21E0
21A0
6320
4640
4640
4C40
5840
B080
F080
E080
C080
ENDCHAR
STARTCHAR afii10028
ENCODING 202
SWIDTH 666 0
DWIDTH 12 0
BBX 10 13 2 0
BITMAP
30C0
30C0
3180
3300
6600
6C00
7800
6C00
6600
C600
C300
C180
C180
ENDCHAR
STARTCHAR afii10029
ENCODING 203
SWIDTH 722 0
DWIDTH 13 0
BBX 13 13 0 0
BITMAP
07F8
0618
0618
0618
0C30
0C30
0C30
0C30
1830
1860
3060
6060
C060
ENDCHAR
STARTCHAR afii10030
ENCODING 204
SWIDTH 888 0
DWIDTH 16 0
BBX 14 13 2 0
BITMAP
381C
381C
282C
2C2C
2C4C
4C98
4C98
4D18
4718
8630
8630
8030
8030
ENDCHAR
STARTCHAR afii10031
ENCODING 205
SWIDTH 777 0
DWIDTH 14 0
BBX 12 13 2 0
BITMAP
3030
3030
3030
3030
6060
6060
7FE0
6060
6060
C0C0
C0C0
C0C0
C0C0
ENDCHAR
STARTCHAR afii10032
ENCODING 206
SWIDTH 777 0
DWIDTH 14 0
BBX 13 13 1 0
BITMAP
07C0
1870
3030
6018
6018
C018
C018
C018
C030
C030
6060
70C0
1F00
ENDCHAR
STARTCHAR afii10033
ENCODING 207
SWIDTH 777 0
DWIDTH 14 0
BBX 12 13 2 0
BITMAP
3FF0
3030
3030
3030
6060
6060
6060
6060
6060
C0C0
C0C0
C0C0
C0C0
ENDCHAR
STARTCHAR afii10034
ENCODING 208
SWIDTH 611 0
DWIDTH 11 0
BBX 10 13 1 0
BITMAP
3F80
31C0
30C0
30C0
60C0
6180
6300
7C00
6000
C000
C000
C000
C000
ENDCHAR
STARTCHAR afii10035
ENCODING 209
SWIDTH 666 0
DWIDTH 12 0
BBX 12 13 1 0
BITMAP
07E0
1830
3000
6000
6000
C000
C000
C000
C000
C000
6000
7040
1F80
ENDCHAR
STARTCHAR afii10036
ENCODING 210
SWIDTH 666 0
DWIDTH 12 0
BBX 12 13 1 0
BITMAP
FFF0
0600
0600
0600
0C00
0C00
0C00
0C00
0C00
1800
1800
1800
1800
ENDCHAR
STARTCHAR afii10037
ENCODING 211
SWIDTH 666 0
DWIDTH 12 0
BBX 11 13 2 0
BITMAP
6060
6060
60C0
3080
3180
3100
1B00
1E00
0C00
0C00
1800
3000
E000
ENDCHAR
STARTCHAR afii10038
ENCODING 212
SWIDTH 833 0
DWIDTH 15 0
BBX 14 13 1 0
BITMAP
0180
0FF0
3198
618C
630C
C30C
C30C
C318
C318
6630
3FC0
0600
0600
ENDCHAR
STARTCHAR afii10039
ENCODING 213
SWIDTH 666 0
DWIDTH 12 0
BBX 11 13 1 0
BITMAP
3060
3060
18C0
1980
0D00
0E00
0E00
1E00
3300
6300
6180
C180
C180
ENDCHAR
STARTCHAR afii10040
ENCODING 214
SWIDTH 777 0
DWIDTH 14 0
BBX 12 16 2 -3
BITMAP
3030
3030
3030
3030
6060
6060
6060
6060
6060
C0C0
C0C0
C0C0
FFE0
00C0
00C0
00C0
ENDCHAR
STARTCHAR afii10041
ENCODING 215
SWIDTH 666 0
DWIDTH 12 0
BBX 10 13 2 0
BITMAP
60C0
60C0
60C0
C0C0
C180
C180
6380
3D80
0180
0300
0300
0300
0300
ENDCHAR
STARTCHAR afii10042
ENCODING 216
SWIDTH 944 0
DWIDTH 17 0
BBX 16 13 1 0
BITMAP
30C3
30C3
30C3
30C3
6186
6186
6186
6186
6186
C30C
C30C
C30C
FFFC
ENDCHAR
STARTCHAR afii10043
ENCODING 217
SWIDTH 944 0
DWIDTH 17 0
BBX 16 16 1 -3
BITMAP
30C3
30C3
30C3
30C3
6186
6186
6186
6186
6186
C30C
C30C
C30C
FFFE
000C
000C
000C
ENDCHAR
STARTCHAR afii10044
ENCODING 218
SWIDTH 666 0
DWIDTH 12 0
BBX 9 13 2 0
BITMAP
F000
3000
3000
3000
6000
7E00
6300
6180
6180
C180
C380
C700
FE00
ENDCHAR
STARTCHAR afii10045
ENCODING 219
SWIDTH 888 0
DWIDTH 16 0
BBX 15 13 1 0
BITMAP
3006
3006
3006
3006
600C
7E0C
630C
618C
618C
C198
C398
C718
FE18
ENDCHAR
STARTCHAR afii10046
ENCODING 220
SWIDTH 611 0
DWIDTH 11 0
BBX 9 13 1 0
BITMAP
3000
3000
3000
3000
6000
7E00
6300
6180
6180
C180
C380
C700
FE00
ENDCHAR
STARTCHAR afii10047
ENCODING 221
SWIDTH 666 0
DWIDTH 12 0
BBX 11 13 1 0
BITMAP
1F00
31C0
00C0
0060
0060
0060
0FE0
0060
00C0
00C0
0180
8300
7C00
ENDCHAR
STARTCHAR afii10048
ENCODING 222
SWIDTH 1055 0
DWIDTH 19 0
BBX 18 13 1 0
BITMAP
303E00
30C380
318180
3300C0
6300C0
6600C0
7E00C0
6600C0
660180
C60180
C30300
C38600
C0F800
ENDCHAR
STARTCHAR afii10049
ENCODING 223
SWIDTH 666 0
DWIDTH 12 0
BBX 11 13 1 0
BITMAP
0FE0
1C60
3860
3060
30C0
18C0
07C0
0CC0
18C0
1980
3180
6180
E180
ENDCHAR
STARTCHAR afii10065
ENCODING 224
SWIDTH 611 0
DWIDTH 11 0
BBX 10 10 1 0
BITMAP
0FC0
31C0
60C0
6180
C180
C380
C580
CB00
FB00
7300
ENDCHAR
STARTCHAR afii10066
ENCODING 225
SWIDTH 611 0
DWIDTH 11 0
BBX 10 14 1 0
BITMAP
03C0
0C00
1800
3000
3700
6B80
7180
6180
C180
C180
C300
C300
E600
7800
ENDCHAR
STARTCHAR afii10067
ENCODING 226
SWIDTH 611 0
DWIDTH 11 0
BBX 10 14 1 0
BITMAP
0780
0CC0
18C0
3180
3300
6700
6B80
6180
C180
C180
C300
C300
E600
7800
ENDCHAR
STARTCHAR afii10068
ENCODING 227
SWIDTH 555 0
DWIDTH 10 0
BBX 8 10 1 0
BITMAP
1E
27
03
03
0E
70
C0
C0
E2
7C
ENDCHAR
STARTCHAR afii10069
ENCODING 228
SWIDTH 611 0
DWIDTH 11 0
BBX 9 14 1 0
BITMAP
1C00
0700
0300
0180
0D80
3380
6180
6180
C180
C180
C300
C300
E600
7800
ENDCHAR
STARTCHAR afii10070
ENCODING 229
SWIDTH 555 0
DWIDTH 10 0
BBX 8 10 1 0
BITMAP
0E
33
63
63
C6
F8
C0
C0
E2
7C
ENDCHAR
STARTCHAR afii10072
ENCODING 230
SWIDTH 833 0
DWIDTH 15 0
BBX 15 10 0 0
BITMAP
18C6
18C6
08CC
0990
07E0
0FE0
1DB0
3B38
731C
E30E
ENDCHAR
STARTCHAR afii10073
ENCODING 231
SWIDTH 555 0
DWIDTH 10 0
BBX 8 10 1 0
BITMAP
1E
27
03
06
1C
0E
06
06
CC
78
ENDCHAR
STARTCHAR afii10074
ENCODING 232
SWIDTH 611 0
DWIDTH 11 0
BBX 10 10 1 0
BITMAP
30C0
30C0
30C0
6180
6180
6380
C580
CB00
FB00
7300
ENDCHAR
STARTCHAR afii10075
ENCODING 233
SWIDTH 611 0
DWIDTH 11 0
BBX 10 13 1 0
BITMAP
0D80
0700
0000
30C0
30C0
30C0
6180
6180
6380
C580
CB00
FB00
7300
ENDCHAR
STARTCHAR afii10076
ENCODING 234
SWIDTH 555 0
DWIDTH 10 0
BBX 9 10 1 0
BITMAP
3180
3180
3300
6400
7800
7800
6C00
CE00
C700
C380
ENDCHAR
STARTCHAR afii10077
ENCODING 235
SWIDTH 666 0
DWIDTH 12 0
BBX 11 10 0 0
BITMAP
0FE0
0C60
0C60
18C0
18C0
18C0
30C0
3180
6180
C180
ENDCHAR
STARTCHAR afii10078
ENCODING 236
SWIDTH 777 0
DWIDTH 14 0
BBX 12 10 1 0
BITMAP
3870
3870
28B0
4D60
4D60
4E60
4C60
8CC0
80C0
80C0
ENDCHAR
STARTCHAR afii10079
ENCODING 237
SWIDTH 666 0
DWIDTH 12 0
BBX 10 10 1 0
BITMAP
30C0
30C0
30C0
6180
7F80
6180
6180
C300
C300
C300
ENDCHAR
STARTCHAR afii10080
ENCODING 238
SWIDTH 611 0
DWIDTH 11 0
BBX 9 10 1 0
BITMAP
0F00
3380
6180
6180
C180
C180
C300
C300
E600
7800
ENDCHAR
STARTCHAR afii10081
ENCODING 239
SWIDTH 666 0
DWIDTH 12 0
BBX 10 10 1 0
BITMAP
3380
37C0
34C0
68C0
7180
6180
6180
C300
C300
C300
ENDCHAR
STARTCHAR afii10082
ENCODING 240
SWIDTH 611 0
DWIDTH 11 0
BBX 11 13 0 -3
BITMAP
19C0
1BE0
1A60
3460
3860
3060
30C0
60C0
7180
7E00
C000
C000
C000
ENDCHAR
STARTCHAR afii10083
ENCODING 241
SWIDTH 500 0
DWIDTH 9 0
BBX 8 10 1 0
BITMAP
0E
33
60
60
C0
C0
C0
C0
E4
78
ENDCHAR
STARTCHAR afii10084
ENCODING 242
SWIDTH 1000 0
DWIDTH 18 0
BBX 16 10 1 0
BITMAP
338E
37DF
34D3
68E3
71C6
6186
6186
C30C
C30C
C30C
ENDCHAR
STARTCHAR afii10085
ENCODING 243
SWIDTH 555 0
DWIDTH 10 0
BBX 10 13 0 -3
BITMAP
30C0
30C0
30C0
3080
3180
3100
3200
3400
3800
3000
6000
C000
C000
ENDCHAR
STARTCHAR afii10086
ENCODING 244
SWIDTH 833 0
DWIDTH 15 0
BBX 14 17 1 -3
BITMAP
00C0
00C0
00C0
00C0
0DB8
33CC
618C
630C
C30C
C30C
C318
C618
EF30
76C0
0C00
0C00
0C00
ENDCHAR
STARTCHAR afii10087
ENCODING 245
SWIDTH 555 0
DWIDTH 10 0
BBX 9 10 1 0
BITMAP
3180
3180
1900
1A00
0C00
1800
2C00
4C00
C600
C600
ENDCHAR
STARTCHAR afii10088
ENCODING 246
SWIDTH 611 0
DWIDTH 11 0
BBX 10 12 1 -2
BITMAP
30C0
30C0
30C0
6180
6180
6380
C580
CB00
FB80
7380
0300
0300
ENDCHAR
STARTCHAR afii10089
ENCODING 247
SWIDTH 611 0
DWIDTH 11 0
BBX 9 10 2 0
BITMAP
6180
6180
6180
C300
C700
FB00
7300
0600
0600
0600
ENDCHAR
STARTCHAR afii10090
ENCODING 248
SWIDTH 1000 0
DWIDTH 18 0
BBX 16 10 1 0
BITMAP
30C3
30C3
30C3
6186
6186
638E
C716
CB2C
FBEC
71CC
ENDCHAR
STARTCHAR afii10091
ENCODING 249
SWIDTH 1000 0
DWIDTH 18 0
BBX 16 12 1 -2
BITMAP
30C3
30C3
30C3
6186
6186
638E
C716
CB2C
FBEE
71CE
000C
000C
ENDCHAR
STARTCHAR afii10092
ENCODING 250
SWIDTH 555 0
DWIDTH 10 0
BBX 8 10 1 0
BITMAP
F0
30
36
6F
73
63
C3
C6
EC
78
ENDCHAR
STARTCHAR afii10093
ENCODING 251
SWIDTH 833 0
DWIDTH 15 0
BBX 13 10 1 0
BITMAP
3018
3018
3618
6F30
7330
6330
C330
C660
EC60
7860
ENDCHAR
STARTCHAR afii10094
ENCODING 252
SWIDTH 555 0
DWIDTH 10 0
BBX 8 10 1 0
BITMAP
30
30
36
6F
73
63
C3
C6
EC
78
ENDCHAR
STARTCHAR afii10095
ENCODING 253
SWIDTH 500 0
DWIDTH 9 0
BBX 8 10 0 0
BITMAP
1E
27
03
03
1F
03
06
06
CC
70
ENDCHAR
STARTCHAR afii10096
ENCODING 254
SWIDTH 888 0
DWIDTH 16 0
BBX 14 10 1 0
BITMAP
3078
319C
330C
630C
7E0C
660C
6618
C618
C730
C3C0
ENDCHAR
STARTCHAR afii10097
ENCODING 255
SWIDTH 611 0
DWIDTH 11 0
BBX 10 10 0 0
BITMAP
0FC0
18C0
30C0
3180
3980
1F80
1980
3300
6300
C300
ENDCHAR
STARTCHAR fl
ENCODING -1
SWIDTH 639 0
DWIDTH 12 0
BBX 12 17 0 -3
BITMAP
03F0
0430
0C30
0C30
3E60
1860
1860
30C0
30C0
30C0
30C0
6180
6180
6180
C000
C000
C000
ENDCHAR
STARTCHAR Zcaron
ENCODING -1
SWIDTH 578 0
DWIDTH 11 0
BBX 11 16 1 0
BITMAP
0580
0300
0000
3FE0
0060
00E0
01C0
0380
0700
0E00
1C00
3800
7000
E000
C000
FF80
ENDCHAR
STARTCHAR oe
ENCODING -1
SWIDTH 899 0
DWIDTH 17 0
BBX 15 10 1 0
BITMAP
0F3C
33E6
61C6
61C6
C18C
C1F0
C380
C380
E7C4
78F8
ENDCHAR
STARTCHAR Ydieresis
ENCODING -1
SWIDTH 608 0
DWIDTH 11 0
BBX 11 16 2 0
BITMAP
0900
0900
0000
C060
C060
60C0
6180
3300
3600
1C00
1800
1800
3000
3000
3000
3000
ENDCHAR
STARTCHAR dotlessi
ENCODING -1
SWIDTH 289 0
DWIDTH 6 0
BBX 4 10 1 0
BITMAP
30
30
30
60
60
60
60
C0
C0
C0
ENDCHAR
STARTCHAR lslash
ENCODING -1
SWIDTH 289 0
DWIDTH 6 0
BBX 7 14 0 0
BITMAP
0C
0C
0C
0C
18
18
1E
F0
30
30
30
60
60
60
ENDCHAR
STARTCHAR Lslash
ENCODING -1
SWIDTH 545 0
DWIDTH 10 0
BBX 9 13 1 0
BITMAP
1800
1800
1800
1800
3000
3C00
F000
3000
3000
6000
6000
6000
7F80
ENDCHAR
STARTCHAR fi
ENCODING -1
SWIDTH 639 0
DWIDTH 12 0
BBX 13 17 0 -3
BITMAP
0398
0430
0C00
0C00
3FE0
1860
1860
30C0
30C0
30C0
30C0
6180
6180
6180
C000
C000
C000
ENDCHAR
STARTCHAR OE
ENCODING -1
SWIDTH 1005 0
DWIDTH 19 0
BBX 17 13 2 0
BITMAP
07FF80
187000
303000
603000
606000
C06000
C07E00
C06000
C06000
C0C000
60C000
71C000
1FFE00
ENDCHAR
STARTCHAR caron
ENCODING -1
SWIDTH 568 0
DWIDTH 11 0
BBX 4 2 5 11
BITMAP
B0
60
ENDCHAR
STARTCHAR ogonek
ENCODING -1
SWIDTH 566 0
DWIDTH 11 0
BBX 4 3 3 -3
BITMAP
60
C0
70
ENDCHAR
STARTCHAR hungarumlaut
ENCODING -1
SWIDTH 566 0
DWIDTH 11 0
BBX 5 2 5 11
BITMAP
D8
90
ENDCHAR
STARTCHAR dotaccent
ENCODING -1
SWIDTH 566 0
DWIDTH 11 0
BBX 2 2 6 11
BITMAP
C0
C0
ENDCHAR
STARTCHAR breve
ENCODING -1
SWIDTH 566 0
DWIDTH 11 0
BBX 5 2 4 11
BITMAP
88
70
ENDCHAR
STARTCHAR tilde
ENCODING -1
SWIDTH 566 0
DWIDTH 11 0
BBX 5 2 5 11
BITMAP
68
B0
ENDCHAR
STARTCHAR circumflex
ENCODING -1
SWIDTH 566 0
DWIDTH 11 0
BBX 4 2 5 11
BITMAP
60
B0
ENDCHAR
STARTCHAR scaron
ENCODING -1
SWIDTH 489 0
DWIDTH 9 0
BBX 8 13 1 0
BITMAP
16
0C
00
1E
23
60
70
38
1C
0E
06
C4
78
ENDCHAR
STARTCHAR ring
ENCODING -1
SWIDTH 567 0
DWIDTH 11 0
BBX 5 3 5 10
BITMAP
70
98
70
ENDCHAR
STARTCHAR florin
ENCODING -1
SWIDTH 633 0
DWIDTH 12 0
BBX 10 15 3 -2
BITMAP
0780
0CC0
1800
1800
3000
3000
FE00
3000
6000
6000
6000
6000
C000
C000
C000
ENDCHAR
STARTCHAR fraction
ENCODING -1
SWIDTH 117 0
DWIDTH 5 0
BBX 9 13 -1 0
BITMAP
0180
0180
0300
0700
0600
0C00
1C00
1800
3000
7000
6000
C000
C000
ENDCHAR
STARTCHAR Scaron
ENCODING -1
SWIDTH 553 0
DWIDTH 10 0
BBX 9 16 1 0
BITMAP
0B00
0600
0000
1F00
3980
3000
3000
1800
1C00
0E00
0600
0300
0300
0300
C600
7C00
ENDCHAR
STARTCHAR zcaron
ENCODING -1
SWIDTH 536 0
DWIDTH 10 0
BBX 9 13 1 0
BITMAP
1600
0C00
0000
7F80
0380
0700
0E00
1C00
1800
3800
7000
E000
FF00
ENDCHAR
ENDFONT
