STARTFONT 2.1
COMMENT $XConsortium: luRS18.bdf,v 1.7 94/04/02 16:00:11 gildea Exp $
COMMENT  (c) Copyright Bigelow & Holmes 1986, 1985. Lucida is a registered
COMMENT  trademark of Bigelow & Holmes. See LEGAL NOTICE file for terms 
COMMENT  of the license. 
COMMENT GRID 0018 0018 0200 0200
FONT -RFX-Serene-Medium-R-Normal-Sans-18-180-75-75-P-106-windows-1251
SIZE 18 72 72
FONTBOUNDINGBOX 19 19 -1 -3
STARTPROPERTIES 24
FONTNAME_REGISTRY ""
FOUNDRY "RFX"
FAMILY_NAME "Serene"
WEIGHT_NAME "Medium"
SLANT "R"
SETWIDTH_NAME "Normal"
ADD_STYLE_NAME "Sans"
PIXEL_SIZE 18
POINT_SIZE 180
RESOLUTION_X 75
RESOLUTION_Y 75
SPACING "P"
AVERAGE_WIDTH 106
CHARSET_REGISTRY "windows"
CHARSET_ENCODING "1251"
FONT_ASCENT 16
FONT_DESCENT 3
DEFAULT_CHAR 32
COPYRIGHT "Copyright Bigelow & Holmes 1986, 1985."
FACE_NAME "Lucida Sans"
COPYRIGHT2 "Cyrillic and Euro glyphs copyright 2000 Dmitry Yu. Bolkhovityanov, bolkhov@inp.nsk.su"
SOURCEDATE "Mon Jul 24 19:35:54 2000"
PKGVERSION "1.1"
ASSEMBLER "cvtbdf.pl (Linux)"
ENDPROPERTIES
CHARS 244
STARTCHAR space
ENCODING 32
SWIDTH 316 0
DWIDTH 5 0
BBX 0 0 0 0
BITMAP
ENDCHAR
STARTCHAR exclam
ENCODING 33
SWIDTH 205 0
DWIDTH 4 0
BBX 2 13 1 0
BITMAP
C0
C0
C0
C0
C0
C0
C0
C0
40
00
00
C0
C0
ENDCHAR
STARTCHAR quotedbl
ENCODING 34
SWIDTH 373 0
DWIDTH 7 0
BBX 5 4 1 10
BITMAP
D8
D8
90
90
ENDCHAR
STARTCHAR numbersign
ENCODING 35
SWIDTH 633 0
DWIDTH 12 0
BBX 11 13 1 0
BITMAP
0CC0
0CC0
0CC0
0880
7FE0
1100
3300
3300
FFC0
2200
6600
6600
6600
ENDCHAR
STARTCHAR dollar
ENCODING 36
SWIDTH 633 0
DWIDTH 12 0
BBX 8 15 3 -1
BITMAP
08
3E
4B
C8
C8
E8
78
3C
1E
17
13
13
D2
7C
10
ENDCHAR
STARTCHAR percent
ENCODING 37
SWIDTH 669 0
DWIDTH 13 0
BBX 11 13 1 0
BITMAP
7000
D840
88C0
8980
8900
DA00
75C0
0B60
1220
3220
6220
4360
01C0
ENDCHAR
STARTCHAR ampersand
ENCODING 38
SWIDTH 697 0
DWIDTH 13 0
BBX 12 13 1 0
BITMAP
3E00
6300
6300
6200
3400
1800
2C60
6660
C340
C180
C1C0
6360
3C30
ENDCHAR
STARTCHAR quotesingle
ENCODING 39
SWIDTH 229 0
DWIDTH 4 0
BBX 2 4 1 10
BITMAP
C0
C0
80
80
ENDCHAR
STARTCHAR parenleft
ENCODING 40
SWIDTH 325 0
DWIDTH 6 0
BBX 4 16 1 -2
BITMAP
10
20
60
40
C0
C0
C0
C0
C0
C0
C0
C0
40
60
20
10
ENDCHAR
STARTCHAR parenright
ENCODING 41
SWIDTH 325 0
DWIDTH 6 0
BBX 4 16 1 -2
BITMAP
80
40
60
20
30
30
30
30
30
30
30
30
20
60
40
80
ENDCHAR
STARTCHAR asterisk
ENCODING 42
SWIDTH 482 0
DWIDTH 9 0
BBX 7 7 1 6
BITMAP
10
10
92
EE
10
6C
44
ENDCHAR
STARTCHAR plus
ENCODING 43
SWIDTH 633 0
DWIDTH 12 0
BBX 9 9 2 1
BITMAP
0800
0800
0800
0800
FF80
0800
0800
0800
0800
ENDCHAR
STARTCHAR comma
ENCODING 44
SWIDTH 316 0
DWIDTH 4 0
BBX 2 4 1 -2
BITMAP
C0
C0
40
80
ENDCHAR
STARTCHAR minus
ENCODING 45
SWIDTH 633 0
DWIDTH 12 0
BBX 9 1 2 5
BITMAP
FF80
ENDCHAR
STARTCHAR period
ENCODING 46
SWIDTH 316 0
DWIDTH 4 0
BBX 2 2 1 0
BITMAP
C0
C0
ENDCHAR
STARTCHAR slash
ENCODING 47
SWIDTH 494 0
DWIDTH 9 0
BBX 7 16 1 -2
BITMAP
02
02
06
04
0C
08
08
18
10
30
20
60
40
C0
80
80
ENDCHAR
STARTCHAR zero
ENCODING 48
SWIDTH 633 0
DWIDTH 12 0
BBX 9 13 2 0
BITMAP
3E00
6300
4100
C180
C180
C180
C180
C180
C180
C180
4100
6300
3E00
ENDCHAR
STARTCHAR one
ENCODING 49
SWIDTH 633 0
DWIDTH 12 0
BBX 5 13 3 0
BITMAP
18
F8
18
18
18
18
18
18
18
18
18
18
18
ENDCHAR
STARTCHAR two
ENCODING 50
SWIDTH 633 0
DWIDTH 12 0
BBX 8 13 2 0
BITMAP
7E
C7
03
03
03
06
0C
18
30
60
C0
FF
FF
ENDCHAR
STARTCHAR three
ENCODING 51
SWIDTH 633 0
DWIDTH 11 0
BBX 8 13 1 0
BITMAP
7E
C7
03
03
06
3C
06
03
03
03
03
C7
7E
ENDCHAR
STARTCHAR four
ENCODING 52
SWIDTH 633 0
DWIDTH 12 0
BBX 11 13 1 0
BITMAP
0180
0380
0780
0D80
0980
1180
3180
6180
C180
FFE0
0180
0180
0180
ENDCHAR
STARTCHAR five
ENCODING 53
SWIDTH 633 0
DWIDTH 12 0
BBX 8 13 3 0
BITMAP
FF
FF
80
80
80
F8
1E
07
03
03
03
C7
7E
ENDCHAR
STARTCHAR six
ENCODING 54
SWIDTH 633 0
DWIDTH 12 0
BBX 9 13 2 0
BITMAP
1E00
7300
6000
C000
C000
DE00
E300
C180
C180
C180
C180
6300
3E00
ENDCHAR
STARTCHAR seven
ENCODING 55
SWIDTH 633 0
DWIDTH 12 0
BBX 9 13 2 0
BITMAP
FF80
FF80
0180
0300
0600
0600
0C00
1800
1800
3000
3000
6000
6000
ENDCHAR
STARTCHAR eight
ENCODING 56
SWIDTH 633 0
DWIDTH 12 0
BBX 9 13 2 0
BITMAP
3E00
6300
C180
C180
E100
7A00
3E00
6700
C380
C180
C180
6300
3E00
ENDCHAR
STARTCHAR nine
ENCODING 57
SWIDTH 633 0
DWIDTH 12 0
BBX 9 13 2 0
BITMAP
3E00
6300
C180
C180
C180
C180
6380
3D80
0180
0100
0300
C600
7C00
ENDCHAR
STARTCHAR colon
ENCODING 58
SWIDTH 316 0
DWIDTH 4 0
BBX 2 10 1 0
BITMAP
C0
C0
00
00
00
00
00
00
C0
C0
ENDCHAR
STARTCHAR semicolon
ENCODING 59
SWIDTH 316 0
DWIDTH 4 0
BBX 2 12 1 -2
BITMAP
C0
C0
00
00
00
00
00
00
C0
C0
40
80
ENDCHAR
STARTCHAR less
ENCODING 60
SWIDTH 633 0
DWIDTH 12 0
BBX 10 9 1 1
BITMAP
00C0
0380
0E00
3800
E000
3800
0E00
0380
00C0
ENDCHAR
STARTCHAR equal
ENCODING 61
SWIDTH 633 0
DWIDTH 12 0
BBX 9 4 2 3
BITMAP
FF80
0000
0000
FF80
ENDCHAR
STARTCHAR greater
ENCODING 62
SWIDTH 633 0
DWIDTH 12 0
BBX 10 9 1 1
BITMAP
C000
7000
1C00
0700
01C0
0700
1C00
7000
C000
ENDCHAR
STARTCHAR question
ENCODING 63
SWIDTH 422 0
DWIDTH 8 0
BBX 7 13 1 0
BITMAP
7C
CE
06
06
0C
30
60
60
60
00
00
60
60
ENDCHAR
STARTCHAR at
ENCODING 64
SWIDTH 858 0
DWIDTH 16 0
BBX 14 13 1 0
BITMAP
07E0
1C38
3008
63EC
4464
C864
98C4
99CC
DAD8
4CF0
6000
3800
0FC0
ENDCHAR
STARTCHAR A
ENCODING 65
SWIDTH 690 0
DWIDTH 13 0
BBX 11 13 1 0
BITMAP
0600
0600
0F00
0B00
1980
1180
3180
20C0
7FC0
60C0
4060
C060
C060
ENDCHAR
STARTCHAR B
ENCODING 66
SWIDTH 575 0
DWIDTH 11 0
BBX 8 13 2 0
BITMAP
FE
C7
C3
C3
C3
C6
FC
C6
C3
C3
C3
C7
FE
ENDCHAR
STARTCHAR C
ENCODING 67
SWIDTH 692 0
DWIDTH 13 0
BBX 11 13 1 0
BITMAP
0FC0
38E0
6000
6000
C000
C000
C000
C000
C000
6000
7000
38E0
0FC0
ENDCHAR
STARTCHAR D
ENCODING 68
SWIDTH 749 0
DWIDTH 14 0
BBX 11 13 2 0
BITMAP
FF00
C1C0
C0C0
C060
C060
C060
C060
C060
C060
C0C0
C0C0
C380
FE00
ENDCHAR
STARTCHAR E
ENCODING 69
SWIDTH 542 0
DWIDTH 10 0
BBX 7 13 2 0
BITMAP
FE
C0
C0
C0
C0
C0
FC
C0
C0
C0
C0
C0
FE
ENDCHAR
STARTCHAR F
ENCODING 70
SWIDTH 536 0
DWIDTH 10 0
BBX 7 13 2 0
BITMAP
FE
C0
C0
C0
C0
C0
FC
C0
C0
C0
C0
C0
C0
ENDCHAR
STARTCHAR G
ENCODING 71
SWIDTH 723 0
DWIDTH 13 0
BBX 11 13 1 0
BITMAP
0FC0
38E0
6000
6000
C000
C000
C000
C060
C060
6060
7060
3860
0FE0
ENDCHAR
STARTCHAR H
ENCODING 72
SWIDTH 735 0
DWIDTH 14 0
BBX 10 13 2 0
BITMAP
C0C0
C0C0
C0C0
C0C0
C0C0
C0C0
FFC0
C0C0
C0C0
C0C0
C0C0
C0C0
C0C0
ENDCHAR
STARTCHAR I
ENCODING 73
SWIDTH 288 0
DWIDTH 6 0
BBX 2 13 2 0
BITMAP
C0
C0
C0
C0
C0
C0
C0
C0
C0
C0
C0
C0
C0
ENDCHAR
STARTCHAR J
ENCODING 74
SWIDTH 311 0
DWIDTH 6 0
BBX 5 15 -1 -2
BITMAP
18
18
18
18
18
18
18
18
18
18
18
18
18
30
E0
ENDCHAR
STARTCHAR K
ENCODING 75
SWIDTH 653 0
DWIDTH 12 0
BBX 10 13 2 0
BITMAP
C180
C300
C600
CC00
D800
F000
F000
D800
CC00
C600
C300
C180
C0C0
ENDCHAR
STARTCHAR L
ENCODING 76
SWIDTH 533 0
DWIDTH 10 0
BBX 7 13 2 0
BITMAP
C0
C0
C0
C0
C0
C0
C0
C0
C0
C0
C0
C0
FE
ENDCHAR
STARTCHAR M
ENCODING 77
SWIDTH 861 0
DWIDTH 16 0
BBX 12 13 2 0
BITMAP
E070
E070
B0B0
B0B0
B0B0
9930
9930
9930
8E30
8E30
8430
8430
8030
ENDCHAR
STARTCHAR N
ENCODING 78
SWIDTH 741 0
DWIDTH 14 0
BBX 10 13 2 0
BITMAP
C040
E040
F040
B040
9840
9C40
8C40
8640
8740
8340
81C0
81C0
80C0
ENDCHAR
STARTCHAR O
ENCODING 79
SWIDTH 777 0
DWIDTH 14 0
BBX 12 13 1 0
BITMAP
0F00
39C0
6060
6060
C030
C030
C030
C030
C030
6060
6060
39C0
0F00
ENDCHAR
STARTCHAR P
ENCODING 80
SWIDTH 553 0
DWIDTH 11 0
BBX 8 13 2 0
BITMAP
FE
C7
C3
C3
C3
C3
C6
F8
C0
C0
C0
C0
C0
ENDCHAR
STARTCHAR Q
ENCODING 81
SWIDTH 777 0
DWIDTH 14 0
BBX 13 16 1 -3
BITMAP
0F00
39C0
6060
6060
C030
C030
C030
C030
C030
6060
6060
39C0
0F00
01C0
0070
0038
ENDCHAR
STARTCHAR R
ENCODING 82
SWIDTH 633 0
DWIDTH 12 0
BBX 9 13 2 0
BITMAP
FE00
C700
C300
C300
C300
C600
F800
CC00
C600
C600
C300
C180
C180
ENDCHAR
STARTCHAR S
ENCODING 83
SWIDTH 539 0
DWIDTH 10 0
BBX 8 13 1 0
BITMAP
3E
67
C0
C0
E0
78
1E
07
03
03
03
E6
7C
ENDCHAR
STARTCHAR T
ENCODING 84
SWIDTH 633 0
DWIDTH 12 0
BBX 12 13 0 0
BITMAP
FFF0
0600
0600
0600
0600
0600
0600
0600
0600
0600
0600
0600
0600
ENDCHAR
STARTCHAR U
ENCODING 85
SWIDTH 693 0
DWIDTH 13 0
BBX 9 13 2 0
BITMAP
C180
C180
C180
C180
C180
C180
C180
C180
C180
C180
6300
7700
1C00
ENDCHAR
STARTCHAR V
ENCODING 86
SWIDTH 654 0
DWIDTH 12 0
BBX 10 13 1 0
BITMAP
C0C0
C0C0
C0C0
6080
6180
6180
3100
3300
3300
1A00
1E00
0C00
0C00
ENDCHAR
STARTCHAR W
ENCODING 87
SWIDTH 855 0
DWIDTH 16 0
BBX 14 13 1 0
BITMAP
C00C
C30C
C30C
C78C
C598
6598
6CD8
68D0
68D0
38F0
3060
3060
3060
ENDCHAR
STARTCHAR X
ENCODING 88
SWIDTH 626 0
DWIDTH 11 0
BBX 9 13 1 0
BITMAP
C180
C180
6180
6300
3200
1C00
1C00
1C00
2600
6300
C300
C180
C180
ENDCHAR
STARTCHAR Y
ENCODING 89
SWIDTH 623 0
DWIDTH 12 0
BBX 10 13 1 0
BITMAP
C0C0
C0C0
6180
3100
3300
1E00
0C00
0C00
0C00
0C00
0C00
0C00
0C00
ENDCHAR
STARTCHAR Z
ENCODING 90
SWIDTH 605 0
DWIDTH 11 0
BBX 9 13 1 0
BITMAP
FF80
FF80
0180
0300
0600
0C00
1C00
1800
3000
6000
C000
FF80
FF80
ENDCHAR
STARTCHAR bracketleft
ENCODING 91
SWIDTH 325 0
DWIDTH 6 0
BBX 4 16 1 -2
BITMAP
F0
C0
C0
C0
C0
C0
C0
C0
C0
C0
C0
C0
C0
C0
C0
F0
ENDCHAR
STARTCHAR backslash
ENCODING 92
SWIDTH 494 0
DWIDTH 9 0
BBX 7 16 1 -2
BITMAP
80
80
C0
40
60
20
30
10
10
18
08
0C
04
06
02
02
ENDCHAR
STARTCHAR bracketright
ENCODING 93
SWIDTH 325 0
DWIDTH 6 0
BBX 4 16 1 -2
BITMAP
F0
30
30
30
30
30
30
30
30
30
30
30
30
30
30
F0
ENDCHAR
STARTCHAR asciicircum
ENCODING 94
SWIDTH 633 0
DWIDTH 12 0
BBX 9 10 2 2
BITMAP
0800
1C00
1400
3600
2200
6300
6300
C180
C180
C180
ENDCHAR
STARTCHAR underscore
ENCODING 95
SWIDTH 500 0
DWIDTH 12 0
BBX 10 1 1 -1
BITMAP
FFC0
ENDCHAR
STARTCHAR grave
ENCODING 96
SWIDTH 614 0
DWIDTH 11 0
BBX 4 2 3 11
BITMAP
E0
30
ENDCHAR
STARTCHAR a
ENCODING 97
SWIDTH 552 0
DWIDTH 10 0
BBX 9 10 1 0
BITMAP
3E00
6700
0300
0300
3F00
6300
C300
C300
E700
7980
ENDCHAR
STARTCHAR b
ENCODING 98
SWIDTH 630 0
DWIDTH 12 0
BBX 9 14 2 0
BITMAP
C000
C000
C000
C000
DC00
E700
C300
C180
C180
C180
C180
C300
E700
DC00
ENDCHAR
STARTCHAR c
ENCODING 99
SWIDTH 518 0
DWIDTH 10 0
BBX 8 10 1 0
BITMAP
1E
73
60
C0
C0
C0
C0
60
73
1E
ENDCHAR
STARTCHAR d
ENCODING 100
SWIDTH 630 0
DWIDTH 12 0
BBX 9 14 1 0
BITMAP
0180
0180
0180
0180
1D80
7380
6180
C180
C180
C180
C180
6180
7380
1D80
ENDCHAR
STARTCHAR e
ENCODING 101
SWIDTH 557 0
DWIDTH 10 0
BBX 8 10 1 0
BITMAP
3C
66
C3
C3
FF
C0
C0
E0
73
3E
ENDCHAR
STARTCHAR f
ENCODING 102
SWIDTH 367 0
DWIDTH 7 0
BBX 6 14 1 0
BITMAP
1C
30
60
60
FC
60
60
60
60
60
60
60
60
60
ENDCHAR
STARTCHAR g
ENCODING 103
SWIDTH 623 0
DWIDTH 12 0
BBX 9 13 1 -3
BITMAP
1D80
7380
6180
C180
C180
C180
C180
6380
3D80
0180
0180
6300
3E00
ENDCHAR
STARTCHAR h
ENCODING 104
SWIDTH 620 0
DWIDTH 12 0
BBX 8 14 2 0
BITMAP
C0
C0
C0
C0
DE
E7
C3
C3
C3
C3
C3
C3
C3
C3
ENDCHAR
STARTCHAR i
ENCODING 105
SWIDTH 289 0
DWIDTH 6 0
BBX 2 14 2 0
BITMAP
C0
C0
00
00
C0
C0
C0
C0
C0
C0
C0
C0
C0
C0
ENDCHAR
STARTCHAR j
ENCODING 106
SWIDTH 304 0
DWIDTH 6 0
BBX 4 17 0 -3
BITMAP
30
30
00
00
30
30
30
30
30
30
30
30
30
30
30
60
C0
ENDCHAR
STARTCHAR k
ENCODING 107
SWIDTH 585 0
DWIDTH 11 0
BBX 9 14 2 0
BITMAP
C000
C000
C000
C000
C300
C600
CC00
D800
F000
D800
CC00
C600
C300
C180
ENDCHAR
STARTCHAR l
ENCODING 108
SWIDTH 289 0
DWIDTH 6 0
BBX 2 14 2 0
BITMAP
C0
C0
C0
C0
C0
C0
C0
C0
C0
C0
C0
C0
C0
C0
ENDCHAR
STARTCHAR m
ENCODING 109
SWIDTH 934 0
DWIDTH 18 0
BBX 14 10 2 0
BITMAP
DE78
E79C
C30C
C30C
C30C
C30C
C30C
C30C
C30C
C30C
ENDCHAR
STARTCHAR n
ENCODING 110
SWIDTH 620 0
DWIDTH 12 0
BBX 8 10 2 0
BITMAP
DE
E7
C3
C3
C3
C3
C3
C3
C3
C3
ENDCHAR
STARTCHAR o
ENCODING 111
SWIDTH 614 0
DWIDTH 11 0
BBX 9 10 1 0
BITMAP
1C00
7700
6300
C180
C180
C180
C180
6300
7700
1C00
ENDCHAR
STARTCHAR p
ENCODING 112
SWIDTH 630 0
DWIDTH 12 0
BBX 9 13 2 -3
BITMAP
DC00
E700
C300
C180
C180
C180
C180
C300
E700
DC00
C000
C000
C000
ENDCHAR
STARTCHAR q
ENCODING 113
SWIDTH 630 0
DWIDTH 12 0
BBX 9 13 1 -3
BITMAP
1D80
7380
6180
C180
C180
C180
C180
6180
7380
1D80
0180
0180
0180
ENDCHAR
STARTCHAR r
ENCODING 114
SWIDTH 409 0
DWIDTH 8 0
BBX 6 10 2 0
BITMAP
CC
DC
E0
C0
C0
C0
C0
C0
C0
C0
ENDCHAR
STARTCHAR s
ENCODING 115
SWIDTH 510 0
DWIDTH 9 0
BBX 7 10 1 0
BITMAP
7C
C6
C0
E0
70
1C
0E
06
C6
7C
ENDCHAR
STARTCHAR t
ENCODING 116
SWIDTH 374 0
DWIDTH 7 0
BBX 5 12 1 0
BITMAP
60
60
F8
60
60
60
60
60
60
60
60
38
ENDCHAR
STARTCHAR u
ENCODING 117
SWIDTH 620 0
DWIDTH 12 0
BBX 8 10 2 0
BITMAP
C3
C3
C3
C3
C3
C3
C3
C3
E7
7B
ENDCHAR
STARTCHAR v
ENCODING 118
SWIDTH 572 0
DWIDTH 10 0
BBX 8 10 1 0
BITMAP
C3
C3
C3
62
66
66
34
34
18
18
ENDCHAR
STARTCHAR w
ENCODING 119
SWIDTH 840 0
DWIDTH 16 0
BBX 14 10 1 0
BITMAP
C00C
C30C
C30C
6318
6598
6590
68D0
38F0
3060
3060
ENDCHAR
STARTCHAR x
ENCODING 120
SWIDTH 613 0
DWIDTH 11 0
BBX 8 10 2 0
BITMAP
C3
C3
66
34
38
1C
2C
66
C3
C3
ENDCHAR
STARTCHAR y
ENCODING 121
SWIDTH 568 0
DWIDTH 10 0
BBX 8 13 1 -3
BITMAP
C3
C3
C3
62
66
66
34
3C
18
18
10
30
30
ENDCHAR
STARTCHAR z
ENCODING 122
SWIDTH 573 0
DWIDTH 10 0
BBX 8 10 1 0
BITMAP
FF
03
07
0E
1C
38
70
E0
C0
FF
ENDCHAR
STARTCHAR braceleft
ENCODING 123
SWIDTH 325 0
DWIDTH 6 0
BBX 4 16 1 -2
BITMAP
70
C0
C0
40
60
20
20
C0
20
20
60
40
C0
C0
C0
70
ENDCHAR
STARTCHAR bar
ENCODING 124
SWIDTH 265 0
DWIDTH 4 0
BBX 2 16 1 -2
BITMAP
C0
C0
C0
C0
C0
C0
C0
C0
C0
C0
C0
C0
C0
C0
C0
C0
ENDCHAR
STARTCHAR braceright
ENCODING 125
SWIDTH 325 0
DWIDTH 6 0
BBX 4 16 1 -2
BITMAP
E0
30
30
20
60
40
40
30
40
40
60
20
30
30
30
E0
ENDCHAR
STARTCHAR asciitilde
ENCODING 126
SWIDTH 633 0
DWIDTH 12 0
BBX 9 3 2 4
BITMAP
7080
9C80
8700
ENDCHAR
STARTCHAR afii10051
ENCODING 128
SWIDTH 833 0
DWIDTH 15 0
BBX 14 13 0 0
BITMAP
FFF0
0600
0600
0600
0600
06F8
071C
060C
060C
060C
060C
061C
0678
ENDCHAR
STARTCHAR afii10052
ENCODING 129
SWIDTH 555 0
DWIDTH 10 0
BBX 7 16 2 0
BITMAP
1C
30
00
FE
C0
C0
C0
C0
C0
C0
C0
C0
C0
C0
C0
C0
ENDCHAR
STARTCHAR quotesinglbase
ENCODING 130
SWIDTH 229 0
DWIDTH 4 0
BBX 2 4 1 -2
BITMAP
C0
C0
40
80
ENDCHAR
STARTCHAR afii10100
ENCODING 131
SWIDTH 500 0
DWIDTH 9 0
BBX 7 13 2 0
BITMAP
1C
30
00
FE
C0
C0
C0
C0
C0
C0
C0
C0
C0
ENDCHAR
STARTCHAR quotedblbase
ENCODING 132
SWIDTH 373 0
DWIDTH 7 0
BBX 5 4 1 -2
BITMAP
D8
D8
48
90
ENDCHAR
STARTCHAR ellipsis
ENCODING 133
SWIDTH 1000 0
DWIDTH 12 0
BBX 8 2 2 0
BITMAP
C3
C3
ENDCHAR
STARTCHAR dagger
ENCODING 134
SWIDTH 633 0
DWIDTH 12 0
BBX 8 15 2 -2
BITMAP
18
18
18
18
FF
18
18
18
18
18
18
18
18
18
18
ENDCHAR
STARTCHAR daggerdbl
ENCODING 135
SWIDTH 633 0
DWIDTH 12 0
BBX 8 15 2 -2
BITMAP
18
18
18
18
FF
18
18
18
18
18
FF
18
18
18
18
ENDCHAR
STARTCHAR Euro
ENCODING 136
SWIDTH 777 0
DWIDTH 14 0
BBX 12 13 1 0
BITMAP
07E0
1C70
3000
3000
6000
FF80
6000
FF00
6000
3000
3800
1C70
07E0
ENDCHAR
STARTCHAR perthousand
ENCODING 137
SWIDTH 1012 0
DWIDTH 19 0
BBX 17 13 1 0
BITMAP
700000
D84000
88C000
898000
890000
DA0000
75C700
0B6D80
122880
322880
622880
436D80
01C700
ENDCHAR
STARTCHAR afii10058
ENCODING 138
SWIDTH 1000 0
DWIDTH 18 0
BBX 16 13 1 0
BITMAP
3FC0
30C0
30C0
30C0
30C0
30F8
30C6
30C3
30C3
30C3
60C3
60C7
C0FE
ENDCHAR
STARTCHAR guilsinglleft
ENCODING 139
SWIDTH 331 0
DWIDTH 6 0
BBX 5 8 0 1
BITMAP
18
30
60
C0
C0
60
30
18
ENDCHAR
STARTCHAR afii10059
ENCODING 140
SWIDTH 1000 0
DWIDTH 18 0
BBX 15 13 2 0
BITMAP
C180
C180
C180
C180
C180
FFF0
C18C
C186
C186
C186
C186
C18E
C1FC
ENDCHAR
STARTCHAR afii10061
ENCODING 141
SWIDTH 666 0
DWIDTH 12 0
BBX 10 16 2 0
BITMAP
0E00
1800
0000
C180
C300
C600
CC00
D800
F000
F000
D800
CC00
C600
C300
C180
C0C0
ENDCHAR
STARTCHAR afii10060
ENCODING 142
SWIDTH 833 0
DWIDTH 15 0
BBX 14 13 0 0
BITMAP
FFF0
0600
0600
0600
0600
06F8
071C
060C
060C
060C
060C
060C
060C
ENDCHAR
STARTCHAR afii10145
ENCODING 143
SWIDTH 777 0
DWIDTH 14 0
BBX 10 16 2 -3
BITMAP
C0C0
C0C0
C0C0
C0C0
C0C0
C0C0
C0C0
C0C0
C0C0
C0C0
C0C0
C0C0
FFC0
0C00
0C00
0C00
ENDCHAR
STARTCHAR afii10099
ENCODING 144
SWIDTH 666 0
DWIDTH 12 0
BBX 9 17 1 -3
BITMAP
6000
6000
FE00
6000
6F00
7380
6180
6180
6180
6180
6180
6180
6180
6180
0180
0300
0E00
ENDCHAR
STARTCHAR quoteleft
ENCODING 145
SWIDTH 229 0
DWIDTH 4 0
BBX 2 4 1 10
BITMAP
40
80
C0
C0
ENDCHAR
STARTCHAR quoteright
ENCODING 146
SWIDTH 229 0
DWIDTH 4 0
BBX 2 4 1 10
BITMAP
C0
C0
40
80
ENDCHAR
STARTCHAR quotedblleft
ENCODING 147
SWIDTH 373 0
DWIDTH 7 0
BBX 5 4 1 10
BITMAP
48
90
D8
D8
ENDCHAR
STARTCHAR quotedblright
ENCODING 148
SWIDTH 373 0
DWIDTH 7 0
BBX 5 4 1 10
BITMAP
D8
D8
48
90
ENDCHAR
STARTCHAR bullet
ENCODING 149
SWIDTH 633 0
DWIDTH 12 0
BBX 5 5 4 3
BITMAP
F8
F8
F8
F8
F8
ENDCHAR
STARTCHAR endash
ENCODING 150
SWIDTH 500 0
DWIDTH 10 0
BBX 8 1 1 5
BITMAP
FF
ENDCHAR
STARTCHAR emdash
ENCODING 151
SWIDTH 1000 0
DWIDTH 19 0
BBX 17 1 1 5
BITMAP
FFFF80
ENDCHAR
STARTCHAR trademark
ENCODING 153
SWIDTH 807 0
DWIDTH 15 0
BBX 12 6 2 7
BITMAP
FF30
2330
22D0
22D0
22D0
2210
ENDCHAR
STARTCHAR afii10106
ENCODING 154
SWIDTH 944 0
DWIDTH 17 0
BBX 15 10 1 0
BITMAP
3F80
3180
3180
3180
31F8
318C
3186
6186
618E
C1FC
ENDCHAR
STARTCHAR guilsinglright
ENCODING 155
SWIDTH 331 0
DWIDTH 6 0
BBX 5 8 1 1
BITMAP
C0
60
30
18
18
30
60
C0
ENDCHAR
STARTCHAR afii10107
ENCODING 156
SWIDTH 944 0
DWIDTH 17 0
BBX 14 10 2 0
BITMAP
C300
C300
C300
C300
FFF0
C318
C30C
C30C
C31C
C3F8
ENDCHAR
STARTCHAR afii10109
ENCODING 157
SWIDTH 611 0
DWIDTH 11 0
BBX 9 13 2 0
BITMAP
0E00
1800
0000
C300
C600
CC00
D800
F000
D800
CC00
C600
C300
C180
ENDCHAR
STARTCHAR afii10108
ENCODING 158
SWIDTH 666 0
DWIDTH 12 0
BBX 9 14 1 0
BITMAP
6000
6000
FE00
6000
6F00
7380
6180
6180
6180
6180
6180
6180
6180
6180
ENDCHAR
STARTCHAR afii10193
ENCODING 159
SWIDTH 666 0
DWIDTH 12 0
BBX 8 12 2 -2
BITMAP
C3
C3
C3
C3
C3
C3
C3
C3
C3
FF
18
18
ENDCHAR
STARTCHAR space
ENCODING 160
SWIDTH 316 0
DWIDTH 5 0
BBX 0 0 0 0
BITMAP
ENDCHAR
STARTCHAR afii10062
ENCODING 161
SWIDTH 666 0
DWIDTH 12 0
BBX 10 16 1 0
BITMAP
3300
1E00
0000
C0C0
C0C0
6080
6180
3100
3300
1A00
1E00
0C00
0C00
1800
3000
6000
ENDCHAR
STARTCHAR afii10110
ENCODING 162
SWIDTH 555 0
DWIDTH 10 0
BBX 8 16 1 -3
BITMAP
66
3C
00
C3
C3
C3
62
66
66
34
3C
18
18
10
30
30
ENDCHAR
STARTCHAR afii10057
ENCODING 163
SWIDTH 311 0
DWIDTH 6 0
BBX 5 15 -1 -2
BITMAP
18
18
18
18
18
18
18
18
18
18
18
18
18
30
E0
ENDCHAR
STARTCHAR currency
ENCODING 164
SWIDTH 633 0
DWIDTH 12 0
BBX 11 11 1 1
BITMAP
8020
4040
3F80
3180
60C0
60C0
60C0
3180
3F80
4040
8020
ENDCHAR
STARTCHAR afii10050
ENCODING 165
SWIDTH 555 0
DWIDTH 10 0
BBX 7 16 2 0
BITMAP
06
06
06
FE
C0
C0
C0
C0
C0
C0
C0
C0
C0
C0
C0
C0
ENDCHAR
STARTCHAR brokenbar
ENCODING 166
SWIDTH 265 0
DWIDTH 4 0
BBX 2 16 1 -2
BITMAP
C0
C0
C0
C0
C0
C0
00
00
00
00
C0
C0
C0
C0
C0
C0
ENDCHAR
STARTCHAR section
ENCODING 167
SWIDTH 633 0
DWIDTH 12 0
BBX 8 15 2 -2
BITMAP
7E
E3
C0
E0
78
5E
C7
C3
E3
7A
1E
07
03
C7
7E
ENDCHAR
STARTCHAR afii10023
ENCODING 168
SWIDTH 542 0
DWIDTH 10 0
BBX 7 16 2 0
BITMAP
66
66
00
FE
C0
C0
C0
C0
C0
FC
C0
C0
C0
C0
C0
FE
ENDCHAR
STARTCHAR copyright
ENCODING 169
SWIDTH 855 0
DWIDTH 16 0
BBX 13 13 2 0
BITMAP
0F80
3060
4010
4390
8408
8C08
8C08
8C08
8608
4390
4010
3060
0F80
ENDCHAR
STARTCHAR afii10053
ENCODING 170
SWIDTH 722 0
DWIDTH 13 0
BBX 11 13 1 0
BITMAP
0FC0
38E0
6000
6000
C000
C000
FF00
C000
C000
6000
7000
38E0
0FC0
ENDCHAR
STARTCHAR guillemotleft
ENCODING 171
SWIDTH 524 0
DWIDTH 10 0
BBX 9 8 0 1
BITMAP
1980
3300
6600
CC00
CC00
6600
3300
1980
ENDCHAR
STARTCHAR logicalnot
ENCODING 172
SWIDTH 633 0
DWIDTH 12 0
BBX 9 5 2 1
BITMAP
FF80
0080
0080
0080
0080
ENDCHAR
STARTCHAR hyphen
ENCODING 173
SWIDTH 325 0
DWIDTH 6 0
BBX 4 1 1 5
BITMAP
F0
ENDCHAR
STARTCHAR registered
ENCODING 174
SWIDTH 633 0
DWIDTH 12 0
BBX 8 8 2 5
BITMAP
3C
42
B9
A5
B9
A5
42
3C
ENDCHAR
STARTCHAR afii10056
ENCODING 175
SWIDTH 288 0
DWIDTH 6 0
BBX 6 16 0 0
BITMAP
CC
CC
00
30
30
30
30
30
30
30
30
30
30
30
30
30
ENDCHAR
STARTCHAR degree
ENCODING 176
SWIDTH 277 0
DWIDTH 5 0
BBX 4 4 1 10
BITMAP
60
90
90
60
ENDCHAR
STARTCHAR plusminus
ENCODING 177
SWIDTH 633 0
DWIDTH 12 0
BBX 9 8 2 2
BITMAP
0800
0800
0800
FF80
0800
0800
0000
FF80
ENDCHAR
STARTCHAR afii10055
ENCODING 178
SWIDTH 288 0
DWIDTH 6 0
BBX 2 13 2 0
BITMAP
C0
C0
C0
C0
C0
C0
C0
C0
C0
C0
C0
C0
C0
ENDCHAR
STARTCHAR afii10103
ENCODING 179
SWIDTH 289 0
DWIDTH 6 0
BBX 2 14 2 0
BITMAP
C0
C0
00
00
C0
C0
C0
C0
C0
C0
C0
C0
C0
C0
ENDCHAR
STARTCHAR afii10098
ENCODING 180
SWIDTH 500 0
DWIDTH 9 0
BBX 7 12 2 0
BITMAP
06
06
FE
C0
C0
C0
C0
C0
C0
C0
C0
C0
ENDCHAR
STARTCHAR mu
ENCODING 181
SWIDTH 627 0
DWIDTH 12 0
BBX 8 13 2 -3
BITMAP
C3
C3
C3
C3
C3
C3
C3
C3
E7
FB
C0
C0
C0
ENDCHAR
STARTCHAR paragraph
ENCODING 182
SWIDTH 633 0
DWIDTH 12 0
BBX 8 15 2 -2
BITMAP
7F
F9
F9
F9
79
39
09
09
09
09
09
09
09
09
09
ENDCHAR
STARTCHAR periodcentered
ENCODING 183
SWIDTH 316 0
DWIDTH 12 0
BBX 3 3 5 4
BITMAP
E0
E0
E0
ENDCHAR
STARTCHAR afii10071
ENCODING 184
SWIDTH 557 0
DWIDTH 10 0
BBX 8 13 1 0
BITMAP
66
66
00
3C
66
C3
C3
FF
C0
C0
E0
73
3E
ENDCHAR
STARTCHAR afii61352
ENCODING 185
SWIDTH 1000 0
DWIDTH 18 0
BBX 15 13 2 0
BITMAP
C040
E040
F040
B040
984C
9C52
8C52
8652
874C
8340
81DE
81C0
80C0
ENDCHAR
STARTCHAR afii10101
ENCODING 186
SWIDTH 555 0
DWIDTH 10 0
BBX 8 10 1 0
BITMAP
1E
73
60
C0
FC
C0
C0
60
73
1E
ENDCHAR
STARTCHAR guillemotright
ENCODING 187
SWIDTH 524 0
DWIDTH 10 0
BBX 9 8 1 1
BITMAP
CC00
6600
3300
1980
1980
3300
6600
CC00
ENDCHAR
STARTCHAR afii10105
ENCODING 188
SWIDTH 304 0
DWIDTH 6 0
BBX 4 17 0 -3
BITMAP
30
30
00
00
30
30
30
30
30
30
30
30
30
30
30
60
C0
ENDCHAR
STARTCHAR afii10054
ENCODING 189
SWIDTH 539 0
DWIDTH 10 0
BBX 8 13 1 0
BITMAP
3E
67
C0
C0
E0
78
1E
07
03
03
03
E6
7C
ENDCHAR
STARTCHAR afii10102
ENCODING 190
SWIDTH 510 0
DWIDTH 9 0
BBX 7 10 1 0
BITMAP
7C
C6
C0
E0
70
1C
0E
06
C6
7C
ENDCHAR
STARTCHAR afii10104
ENCODING 191
SWIDTH 289 0
DWIDTH 6 0
BBX 6 13 0 0
BITMAP
CC
CC
00
30
30
30
30
30
30
30
30
30
30
ENDCHAR
STARTCHAR afii10017
ENCODING 192
SWIDTH 722 0
DWIDTH 13 0
BBX 11 13 1 0
BITMAP
0600
0600
0F00
0B00
1980
1180
3180
20C0
7FC0
60C0
4060
C060
C060
ENDCHAR
STARTCHAR afii10018
ENCODING 193
SWIDTH 611 0
DWIDTH 11 0
BBX 8 13 2 0
BITMAP
FF
C0
C0
C0
C0
F8
C6
C3
C3
C3
C3
C7
FE
ENDCHAR
STARTCHAR afii10019
ENCODING 194
SWIDTH 611 0
DWIDTH 11 0
BBX 8 13 2 0
BITMAP
FE
C7
C3
C3
C3
C6
FC
C6
C3
C3
C3
C7
FE
ENDCHAR
STARTCHAR afii10020
ENCODING 195
SWIDTH 555 0
DWIDTH 10 0
BBX 7 13 2 0
BITMAP
FE
C0
C0
C0
C0
C0
C0
C0
C0
C0
C0
C0
C0
ENDCHAR
STARTCHAR afii10021
ENCODING 196
SWIDTH 722 0
DWIDTH 13 0
BBX 11 16 1 -3
BITMAP
3FC0
30C0
30C0
30C0
30C0
30C0
30C0
30C0
30C0
60C0
60C0
60C0
FFE0
C060
C060
C060
ENDCHAR
STARTCHAR afii10022
ENCODING 197
SWIDTH 555 0
DWIDTH 10 0
BBX 7 13 2 0
BITMAP
FE
C0
C0
C0
C0
C0
FC
C0
C0
C0
C0
C0
FE
ENDCHAR
STARTCHAR afii10024
ENCODING 198
SWIDTH 1000 0
DWIDTH 18 0
BBX 18 13 0 0
BITMAP
60C180
30C300
18C600
0CCC00
06D800
03F000
03F000
06D800
0CCC00
18C600
30C300
60C180
C0C0C0
ENDCHAR
STARTCHAR afii10025
ENCODING 199
SWIDTH 555 0
DWIDTH 10 0
BBX 8 13 1 0
BITMAP
7E
C7
03
03
03
06
3C
06
03
03
03
C7
7E
ENDCHAR
STARTCHAR afii10026
ENCODING 200
SWIDTH 777 0
DWIDTH 14 0
BBX 10 13 2 0
BITMAP
80C0
81C0
83C0
8340
8640
8E40
8C40
9840
B840
B040
E040
E040
C040
ENDCHAR
STARTCHAR afii10027
ENCODING 201
SWIDTH 777 0
DWIDTH 14 0
BBX 10 16 2 0
BITMAP
3300
1E00
0000
80C0
81C0
83C0
8340
8640
8E40
8C40
9840
B840
B040
E040
E040
C040
ENDCHAR
STARTCHAR afii10028
ENCODING 202
SWIDTH 666 0
DWIDTH 12 0
BBX 10 13 2 0
BITMAP
C180
C300
C600
CC00
D800
F000
F000
D800
CC00
C600
C300
C180
C0C0
ENDCHAR
STARTCHAR afii10029
ENCODING 203
SWIDTH 722 0
DWIDTH 13 0
BBX 10 13 1 0
BITMAP
3FC0
30C0
30C0
30C0
30C0
30C0
30C0
30C0
30C0
30C0
60C0
60C0
C0C0
ENDCHAR
STARTCHAR afii10030
ENCODING 204
SWIDTH 888 0
DWIDTH 16 0
BBX 12 13 2 0
BITMAP
E070
E070
B0B0
B0B0
B0B0
9930
9930
9930
8E30
8E30
8430
8430
8030
ENDCHAR
STARTCHAR afii10031
ENCODING 205
SWIDTH 777 0
DWIDTH 14 0
BBX 10 13 2 0
BITMAP
C0C0
C0C0
C0C0
C0C0
C0C0
C0C0
FFC0
C0C0
C0C0
C0C0
C0C0
C0C0
C0C0
ENDCHAR
STARTCHAR afii10032
ENCODING 206
SWIDTH 777 0
DWIDTH 14 0
BBX 12 13 1 0
BITMAP
0F00
39C0
6060
6060
C030
C030
C030
C030
C030
6060
6060
39C0
0F00
ENDCHAR
STARTCHAR afii10033
ENCODING 207
SWIDTH 777 0
DWIDTH 14 0
BBX 10 13 2 0
BITMAP
FFC0
C0C0
C0C0
C0C0
C0C0
C0C0
C0C0
C0C0
C0C0
C0C0
C0C0
C0C0
C0C0
ENDCHAR
STARTCHAR afii10034
ENCODING 208
SWIDTH 611 0
DWIDTH 11 0
BBX 8 13 2 0
BITMAP
FE
C7
C3
C3
C3
C3
C6
F8
C0
C0
C0
C0
C0
ENDCHAR
STARTCHAR afii10035
ENCODING 209
SWIDTH 722 0
DWIDTH 13 0
BBX 11 13 1 0
BITMAP
0FC0
38E0
6000
6000
C000
C000
C000
C000
C000
6000
7000
38E0
0FC0
ENDCHAR
STARTCHAR afii10036
ENCODING 210
SWIDTH 666 0
DWIDTH 12 0
BBX 12 13 0 0
BITMAP
FFF0
0600
0600
0600
0600
0600
0600
0600
0600
0600
0600
0600
0600
ENDCHAR
STARTCHAR afii10037
ENCODING 211
SWIDTH 666 0
DWIDTH 12 0
BBX 10 13 1 0
BITMAP
C0C0
C0C0
6080
6180
3100
3300
1A00
1E00
0C00
0C00
1800
3000
6000
ENDCHAR
STARTCHAR afii10038
ENCODING 212
SWIDTH 888 0
DWIDTH 16 0
BBX 14 13 1 0
BITMAP
0300
1FE0
7338
6318
C30C
C30C
C30C
C30C
6318
7338
1FE0
0300
0300
ENDCHAR
STARTCHAR afii10039
ENCODING 213
SWIDTH 611 0
DWIDTH 11 0
BBX 9 13 1 0
BITMAP
C180
C180
6180
6300
3200
1C00
1C00
1C00
2600
6300
C300
C180
C180
ENDCHAR
STARTCHAR afii10040
ENCODING 214
SWIDTH 777 0
DWIDTH 14 0
BBX 11 16 2 -3
BITMAP
C0C0
C0C0
C0C0
C0C0
C0C0
C0C0
C0C0
C0C0
C0C0
C0C0
C0C0
C0C0
FFE0
0060
0060
0060
ENDCHAR
STARTCHAR afii10041
ENCODING 215
SWIDTH 666 0
DWIDTH 12 0
BBX 9 13 1 0
BITMAP
C180
C180
C180
C180
C180
C180
E380
7D80
0180
0180
0180
0180
0180
ENDCHAR
STARTCHAR afii10042
ENCODING 216
SWIDTH 1000 0
DWIDTH 18 0
BBX 14 13 2 0
BITMAP
C30C
C30C
C30C
C30C
C30C
C30C
C30C
C30C
C30C
C30C
C30C
C30C
FFFC
ENDCHAR
STARTCHAR afii10043
ENCODING 217
SWIDTH 1000 0
DWIDTH 18 0
BBX 15 16 2 -3
BITMAP
C30C
C30C
C30C
C30C
C30C
C30C
C30C
C30C
C30C
C30C
C30C
C30C
FFFE
0006
0006
0006
ENDCHAR
STARTCHAR afii10044
ENCODING 218
SWIDTH 611 0
DWIDTH 11 0
BBX 10 13 0 0
BITMAP
F000
3000
3000
3000
3000
3E00
3180
30C0
30C0
30C0
30C0
31C0
3F80
ENDCHAR
STARTCHAR afii10045
ENCODING 219
SWIDTH 888 0
DWIDTH 16 0
BBX 12 13 2 0
BITMAP
C030
C030
C030
C030
C030
F830
C630
C330
C330
C330
C330
C730
FE30
ENDCHAR
STARTCHAR afii10046
ENCODING 220
SWIDTH 611 0
DWIDTH 11 0
BBX 8 13 2 0
BITMAP
C0
C0
C0
C0
C0
F8
C6
C3
C3
C3
C3
C7
FE
ENDCHAR
STARTCHAR afii10047
ENCODING 221
SWIDTH 722 0
DWIDTH 13 0
BBX 11 13 1 0
BITMAP
7E00
E380
00C0
00C0
0060
0060
1FE0
0060
0060
00C0
01C0
E380
7E00
ENDCHAR
STARTCHAR afii10048
ENCODING 222
SWIDTH 1055 0
DWIDTH 19 0
BBX 16 13 2 0
BITMAP
C0F0
C39C
C606
C606
CC03
CC03
FC03
CC03
CC03
C606
C606
C39C
C0F0
ENDCHAR
STARTCHAR afii10049
ENCODING 223
SWIDTH 666 0
DWIDTH 12 0
BBX 9 13 1 0
BITMAP
3F80
7180
6180
6180
6180
3180
0F80
1980
3180
3180
6180
C180
C180
ENDCHAR
STARTCHAR afii10065
ENCODING 224
SWIDTH 555 0
DWIDTH 10 0
BBX 9 10 1 0
BITMAP
3E00
6700
0300
0300
3F00
6300
C300
C300
E700
7980
ENDCHAR
STARTCHAR afii10066
ENCODING 225
SWIDTH 611 0
DWIDTH 11 0
BBX 9 14 1 0
BITMAP
1F80
7000
6000
C000
DC00
F700
E300
C180
C180
C180
C180
6300
7700
1C00
ENDCHAR
STARTCHAR afii10067
ENCODING 226
SWIDTH 611 0
DWIDTH 11 0
BBX 8 10 2 0
BITMAP
FE
C7
C3
C6
FC
C6
C3
C3
C7
FE
ENDCHAR
STARTCHAR afii10068
ENCODING 227
SWIDTH 500 0
DWIDTH 9 0
BBX 7 10 2 0
BITMAP
FE
C0
C0
C0
C0
C0
C0
C0
C0
C0
ENDCHAR
STARTCHAR afii10069
ENCODING 228
SWIDTH 666 0
DWIDTH 12 0
BBX 10 12 1 -2
BITMAP
3F80
3180
3180
3180
3180
3180
6180
6180
6180
FFC0
C0C0
C0C0
ENDCHAR
STARTCHAR afii10070
ENCODING 229
SWIDTH 555 0
DWIDTH 10 0
BBX 8 10 1 0
BITMAP
3C
66
C3
C3
FF
C0
C0
E0
73
3E
ENDCHAR
STARTCHAR afii10072
ENCODING 230
SWIDTH 888 0
DWIDTH 16 0
BBX 16 10 0 0
BITMAP
6186
318C
1998
0DB0
07E0
0DB0
1998
318C
6186
C183
ENDCHAR
STARTCHAR afii10073
ENCODING 231
SWIDTH 555 0
DWIDTH 10 0
BBX 8 10 1 0
BITMAP
7E
C7
03
06
3C
06
03
03
C7
7E
ENDCHAR
STARTCHAR afii10074
ENCODING 232
SWIDTH 666 0
DWIDTH 12 0
BBX 8 10 2 0
BITMAP
83
87
8D
8D
99
99
B1
B1
E1
C1
ENDCHAR
STARTCHAR afii10075
ENCODING 233
SWIDTH 666 0
DWIDTH 12 0
BBX 8 13 2 0
BITMAP
6C
38
00
83
87
8D
8D
99
99
B1
B1
E1
C1
ENDCHAR
STARTCHAR afii10076
ENCODING 234
SWIDTH 611 0
DWIDTH 11 0
BBX 9 10 2 0
BITMAP
C300
C600
CC00
D800
F000
D800
CC00
C600
C300
C180
ENDCHAR
STARTCHAR afii10077
ENCODING 235
SWIDTH 666 0
DWIDTH 12 0
BBX 9 10 1 0
BITMAP
3F80
3180
3180
3180
3180
3180
3180
6180
6180
C180
ENDCHAR
STARTCHAR afii10078
ENCODING 236
SWIDTH 777 0
DWIDTH 14 0
BBX 10 10 2 0
BITMAP
E1C0
E1C0
B2C0
B2C0
B2C0
9CC0
9CC0
88C0
88C0
80C0
ENDCHAR
STARTCHAR afii10079
ENCODING 237
SWIDTH 666 0
DWIDTH 12 0
BBX 8 10 2 0
BITMAP
C3
C3
C3
C3
FF
C3
C3
C3
C3
C3
ENDCHAR
STARTCHAR afii10080
ENCODING 238
SWIDTH 611 0
DWIDTH 11 0
BBX 9 10 1 0
BITMAP
1C00
7700
6300
C180
C180
C180
C180
6300
7700
1C00
ENDCHAR
STARTCHAR afii10081
ENCODING 239
SWIDTH 666 0
DWIDTH 12 0
BBX 8 10 2 0
BITMAP
FF
C3
C3
C3
C3
C3
C3
C3
C3
C3
ENDCHAR
STARTCHAR afii10082
ENCODING 240
SWIDTH 666 0
DWIDTH 12 0
BBX 9 13 2 -3
BITMAP
DC00
E700
C300
C180
C180
C180
C180
C300
E700
DC00
C000
C000
C000
ENDCHAR
STARTCHAR afii10083
ENCODING 241
SWIDTH 555 0
DWIDTH 10 0
BBX 8 10 1 0
BITMAP
1E
73
60
C0
C0
C0
C0
60
73
1E
ENDCHAR
STARTCHAR afii10084
ENCODING 242
SWIDTH 444 0
DWIDTH 8 0
BBX 8 10 0 0
BITMAP
FF
18
18
18
18
18
18
18
18
18
ENDCHAR
STARTCHAR afii10085
ENCODING 243
SWIDTH 555 0
DWIDTH 10 0
BBX 8 13 1 -3
BITMAP
C3
C3
C3
62
66
66
34
3C
18
18
10
30
30
ENDCHAR
STARTCHAR afii10086
ENCODING 244
SWIDTH 888 0
DWIDTH 16 0
BBX 14 17 1 -3
BITMAP
0300
0300
0300
0300
1B60
77B8
6318
C30C
C30C
C30C
C30C
6318
77B8
1B60
0300
0300
0300
ENDCHAR
STARTCHAR afii10087
ENCODING 245
SWIDTH 611 0
DWIDTH 11 0
BBX 8 10 2 0
BITMAP
C3
C3
66
34
38
1C
2C
66
C3
C3
ENDCHAR
STARTCHAR afii10088
ENCODING 246
SWIDTH 666 0
DWIDTH 12 0
BBX 9 12 2 -2
BITMAP
C300
C300
C300
C300
C300
C300
C300
C300
C300
FF80
0180
0180
ENDCHAR
STARTCHAR afii10089
ENCODING 247
SWIDTH 611 0
DWIDTH 11 0
BBX 8 10 1 0
BITMAP
C3
C3
C3
C3
C3
E7
7B
03
03
03
ENDCHAR
STARTCHAR afii10090
ENCODING 248
SWIDTH 1000 0
DWIDTH 18 0
BBX 14 10 2 0
BITMAP
C30C
C30C
C30C
C30C
C30C
C30C
C30C
C30C
C30C
FFFC
ENDCHAR
STARTCHAR afii10091
ENCODING 249
SWIDTH 1000 0
DWIDTH 18 0
BBX 15 12 2 -2
BITMAP
C30C
C30C
C30C
C30C
C30C
C30C
C30C
C30C
C30C
FFFE
0006
0006
ENDCHAR
STARTCHAR afii10092
ENCODING 250
SWIDTH 611 0
DWIDTH 11 0
BBX 10 10 0 0
BITMAP
F000
3000
3000
3000
3F00
3180
30C0
30C0
31C0
3F80
ENDCHAR
STARTCHAR afii10093
ENCODING 251
SWIDTH 888 0
DWIDTH 16 0
BBX 12 10 2 0
BITMAP
C030
C030
C030
C030
FC30
C630
C330
C330
C730
FE30
ENDCHAR
STARTCHAR afii10094
ENCODING 252
SWIDTH 611 0
DWIDTH 11 0
BBX 8 10 2 0
BITMAP
C0
C0
C0
C0
FC
C6
C3
C3
C7
FE
ENDCHAR
STARTCHAR afii10095
ENCODING 253
SWIDTH 555 0
DWIDTH 10 0
BBX 8 10 1 0
BITMAP
78
CE
06
03
3F
03
03
06
CE
78
ENDCHAR
STARTCHAR afii10096
ENCODING 254
SWIDTH 888 0
DWIDTH 16 0
BBX 13 10 2 0
BITMAP
C1C0
C770
C630
CC18
FC18
CC18
CC18
C630
C770
C1C0
ENDCHAR
STARTCHAR afii10097
ENCODING 255
SWIDTH 666 0
DWIDTH 12 0
BBX 9 10 1 0
BITMAP
3F80
7180
6180
6180
3180
1F80
3180
6180
C180
C180
ENDCHAR
STARTCHAR fl
ENCODING -1
SWIDTH 645 0
DWIDTH 12 0
BBX 9 14 1 0
BITMAP
1F80
3180
6180
6180
FD80
6180
6180
6180
6180
6180
6180
6180
6180
6180
ENDCHAR
STARTCHAR Zcaron
ENCODING -1
SWIDTH 605 0
DWIDTH 11 0
BBX 9 16 1 0
BITMAP
3600
1C00
0000
FF80
FF80
0180
0300
0600
0C00
1C00
1800
3000
6000
C000
FF80
FF80
ENDCHAR
STARTCHAR oe
ENCODING -1
SWIDTH 930 0
DWIDTH 17 0
BBX 15 10 1 0
BITMAP
1C78
77CC
6386
C186
C1FE
C180
C180
63C0
76E6
1C7C
ENDCHAR
STARTCHAR Ydieresis
ENCODING -1
SWIDTH 623 0
DWIDTH 12 0
BBX 10 16 1 0
BITMAP
3300
3300
0000
C0C0
C0C0
6180
3100
3300
1E00
0C00
0C00
0C00
0C00
0C00
0C00
0C00
ENDCHAR
STARTCHAR dotlessi
ENCODING -1
SWIDTH 289 0
DWIDTH 6 0
BBX 2 10 2 0
BITMAP
C0
C0
C0
C0
C0
C0
C0
C0
C0
C0
ENDCHAR
STARTCHAR lslash
ENCODING -1
SWIDTH 289 0
DWIDTH 6 0
BBX 6 14 0 0
BITMAP
30
30
30
30
30
3C
F0
30
30
30
30
30
30
30
ENDCHAR
STARTCHAR Lslash
ENCODING -1
SWIDTH 533 0
DWIDTH 10 0
BBX 9 13 0 0
BITMAP
3000
3000
3000
3000
3000
3C00
F000
3000
3000
3000
3000
3000
3F80
ENDCHAR
STARTCHAR fi
ENCODING -1
SWIDTH 645 0
DWIDTH 12 0
BBX 9 14 1 0
BITMAP
1D80
3180
6000
6000
FF80
6180
6180
6180
6180
6180
6180
6180
6180
6180
ENDCHAR
STARTCHAR OE
ENCODING -1
SWIDTH 1000 0
DWIDTH 18 0
BBX 16 13 1 0
BITMAP
0F7F
38E0
6060
6060
C060
C060
C07E
C060
C060
6060
6060
38E0
0F7F
ENDCHAR
STARTCHAR caron
ENCODING -1
SWIDTH 614 0
DWIDTH 11 0
BBX 5 2 3 11
BITMAP
D8
70
ENDCHAR
STARTCHAR ogonek
ENCODING -1
SWIDTH 614 0
DWIDTH 11 0
BBX 4 3 4 -3
BITMAP
60
C0
70
ENDCHAR
STARTCHAR hungarumlaut
ENCODING -1
SWIDTH 614 0
DWIDTH 11 0
BBX 5 3 3 11
BITMAP
48
D8
90
ENDCHAR
STARTCHAR dotaccent
ENCODING -1
SWIDTH 614 0
DWIDTH 11 0
BBX 2 2 5 11
BITMAP
C0
C0
ENDCHAR
STARTCHAR breve
ENCODING -1
SWIDTH 614 0
DWIDTH 11 0
BBX 5 3 3 11
BITMAP
88
F8
70
ENDCHAR
STARTCHAR tilde
ENCODING -1
SWIDTH 614 0
DWIDTH 11 0
BBX 6 2 2 11
BITMAP
74
B8
ENDCHAR
STARTCHAR circumflex
ENCODING -1
SWIDTH 614 0
DWIDTH 11 0
BBX 5 2 3 11
BITMAP
70
D8
ENDCHAR
STARTCHAR scaron
ENCODING -1
SWIDTH 510 0
DWIDTH 9 0
BBX 7 13 1 0
BITMAP
6C
38
00
7C
C6
C0
E0
70
1C
0E
06
C6
7C
ENDCHAR
STARTCHAR ring
ENCODING -1
SWIDTH 614 0
DWIDTH 11 0
BBX 5 3 3 10
BITMAP
70
98
70
ENDCHAR
STARTCHAR florin
ENCODING -1
SWIDTH 633 0
DWIDTH 12 0
BBX 10 15 2 -2
BITMAP
0F80
18C0
1800
3000
3000
3000
FE00
6000
6000
6000
6000
C000
C000
C000
C000
ENDCHAR
STARTCHAR fraction
ENCODING -1
SWIDTH 36 0
DWIDTH 5 0
BBX 6 13 0 0
BITMAP
04
04
0C
08
18
10
30
20
60
40
C0
80
80
ENDCHAR
STARTCHAR Scaron
ENCODING -1
SWIDTH 539 0
DWIDTH 10 0
BBX 8 16 1 0
BITMAP
36
1C
00
3E
67
C0
C0
E0
78
1E
07
03
03
03
E6
7C
ENDCHAR
STARTCHAR zcaron
ENCODING -1
SWIDTH 573 0
DWIDTH 10 0
BBX 8 13 1 0
BITMAP
36
1C
00
FF
03
07
0E
1C
38
70
E0
C0
FF
ENDCHAR
ENDFONT
