STARTFONT 2.1
COMMENT $XConsortium: lutRS12.bdf,v 1.9 94/04/02 16:11:24 gildea Exp $
COMMENT  (c) Copyright Bigelow & Holmes 1986, 1985. Lucida is a registered
COMMENT  trademark of Bigelow & Holmes. See LEGAL NOTICE file for terms 
COMMENT  of the license. 
COMMENT GRID 0012 0012 0200 0200
FONT -RFX-SereneTypewriter-Medium-R-Normal-Sans-12-120-75-75-M-70-windows-1251
SIZE 12 72 72
FONTBOUNDINGBOX 7 13 0 -2
STARTPROPERTIES 24
FONTNAME_REGISTRY ""
FOUNDRY "RFX"
FAMILY_NAME "SereneTypewriter"
WEIGHT_NAME "Medium"
SLANT "R"
SETWIDTH_NAME "Normal"
ADD_STYLE_NAME "Sans"
PIXEL_SIZE 12
POINT_SIZE 120
RESOLUTION_X 75
RESOLUTION_Y 75
SPACING "M"
AVERAGE_WIDTH 70
CHARSET_REGISTRY "windows"
CHARSET_ENCODING "1251"
FONT_ASCENT 11
FONT_DESCENT 2
DEFAULT_CHAR 0
COPYRIGHT "Copyright Bigelow & Holmes 1986, 1985."
FACE_NAME "Lucida Sans Typewriter"
COPYRIGHT2 "Cyrillic, Euro and line drawing glyphs copyright 2000 Dmitry Yu. Bolkhovityanov, bolkhov@inp.nsk.su"
SOURCEDATE "Mon May 29 11:28:17 2000"
PKGVERSION "1.1"
ASSEMBLER "cvtbdf.pl (Linux)"
ENDPROPERTIES
CHARS 276
STARTCHAR null
ENCODING 0
SWIDTH 602 0
DWIDTH 7 0
BBX 5 9 1 0
BITMAP
F8
F8
F8
F8
F8
F8
F8
F8
F8
ENDCHAR
STARTCHAR ctrlA
ENCODING 1
SWIDTH 602 0
DWIDTH 7 0
BBX 7 8 0 0
BITMAP
40
A0
00
08
14
14
3E
22
ENDCHAR
STARTCHAR ctrlB
ENCODING 2
SWIDTH 602 0
DWIDTH 7 0
BBX 7 8 0 0
BITMAP
40
A0
00
3C
22
3C
22
3C
ENDCHAR
STARTCHAR ctrlC
ENCODING 3
SWIDTH 602 0
DWIDTH 7 0
BBX 7 8 0 0
BITMAP
40
A0
00
1E
20
20
20
1E
ENDCHAR
STARTCHAR ctrlD
ENCODING 4
SWIDTH 602 0
DWIDTH 7 0
BBX 7 8 0 0
BITMAP
40
A0
00
38
24
22
24
38
ENDCHAR
STARTCHAR ctrlE
ENCODING 5
SWIDTH 602 0
DWIDTH 7 0
BBX 7 8 0 0
BITMAP
40
A0
00
3E
20
3C
20
3E
ENDCHAR
STARTCHAR ctrlF
ENCODING 6
SWIDTH 602 0
DWIDTH 7 0
BBX 7 8 0 0
BITMAP
40
A0
00
3E
20
3E
20
20
ENDCHAR
STARTCHAR ctrlG
ENCODING 7
SWIDTH 602 0
DWIDTH 7 0
BBX 7 8 0 0
BITMAP
40
A0
00
1E
20
22
22
1E
ENDCHAR
STARTCHAR ctrlH
ENCODING 8
SWIDTH 602 0
DWIDTH 7 0
BBX 7 8 0 0
BITMAP
40
A0
00
22
22
3E
22
22
ENDCHAR
STARTCHAR ctrlI
ENCODING 9
SWIDTH 602 0
DWIDTH 7 0
BBX 6 8 0 0
BITMAP
40
A0
00
1C
08
08
08
1C
ENDCHAR
STARTCHAR ctrlJ
ENCODING 10
SWIDTH 602 0
DWIDTH 7 0
BBX 7 8 0 0
BITMAP
40
A0
00
0E
04
04
04
38
ENDCHAR
STARTCHAR ldcornsqlr
ENCODING 11
SWIDTH 602 0
DWIDTH 7 0
BBX 4 7 0 4
BITMAP
10
10
10
10
10
10
F0
ENDCHAR
STARTCHAR ldcornsqur
ENCODING 12
SWIDTH 602 0
DWIDTH 7 0
BBX 4 7 0 -2
BITMAP
F0
10
10
10
10
10
10
ENDCHAR
STARTCHAR ldcornsqul
ENCODING 13
SWIDTH 602 0
DWIDTH 7 0
BBX 4 7 3 -2
BITMAP
F0
80
80
80
80
80
80
ENDCHAR
STARTCHAR ldcornsqll
ENCODING 14
SWIDTH 602 0
DWIDTH 7 0
BBX 4 7 3 4
BITMAP
80
80
80
80
80
80
F0
ENDCHAR
STARTCHAR ldcross
ENCODING 15
SWIDTH 602 0
DWIDTH 7 0
BBX 7 13 0 -2
BITMAP
10
10
10
10
10
10
FE
10
10
10
10
10
10
ENDCHAR
STARTCHAR ctrlP
ENCODING 16
SWIDTH 602 0
DWIDTH 7 0
BBX 7 8 0 0
BITMAP
40
A0
00
3C
22
3C
20
20
ENDCHAR
STARTCHAR ctrlQ
ENCODING 17
SWIDTH 602 0
DWIDTH 7 0
BBX 7 9 0 -1
BITMAP
40
A0
00
1C
22
22
22
1C
06
ENDCHAR
STARTCHAR ldhorizontal
ENCODING 18
SWIDTH 602 0
DWIDTH 7 0
BBX 7 1 0 4
BITMAP
FE
ENDCHAR
STARTCHAR ctrlS
ENCODING 19
SWIDTH 602 0
DWIDTH 7 0
BBX 7 8 0 0
BITMAP
40
A0
00
1E
20
1C
02
3C
ENDCHAR
STARTCHAR ctrlT
ENCODING 20
SWIDTH 602 0
DWIDTH 7 0
BBX 7 8 0 0
BITMAP
40
A0
00
3E
08
08
08
08
ENDCHAR
STARTCHAR ldteelft
ENCODING 21
SWIDTH 602 0
DWIDTH 7 0
BBX 4 13 3 -2
BITMAP
80
80
80
80
80
80
F0
80
80
80
80
80
80
ENDCHAR
STARTCHAR ldteert
ENCODING 22
SWIDTH 602 0
DWIDTH 7 0
BBX 4 13 0 -2
BITMAP
10
10
10
10
10
10
F0
10
10
10
10
10
10
ENDCHAR
STARTCHAR ldteebt
ENCODING 23
SWIDTH 602 0
DWIDTH 7 0
BBX 7 7 0 4
BITMAP
10
10
10
10
10
10
FE
ENDCHAR
STARTCHAR ldteetp
ENCODING 24
SWIDTH 602 0
DWIDTH 7 0
BBX 7 7 0 -2
BITMAP
FE
10
10
10
10
10
10
ENDCHAR
STARTCHAR ldvertical
ENCODING 25
SWIDTH 602 0
DWIDTH 7 0
BBX 1 13 3 -2
BITMAP
80
80
80
80
80
80
80
80
80
80
80
80
80
ENDCHAR
STARTCHAR ctrlZ
ENCODING 26
SWIDTH 602 0
DWIDTH 7 0
BBX 7 8 0 0
BITMAP
40
A0
00
3E
04
08
10
3E
ENDCHAR
STARTCHAR ctrlBRL
ENCODING 27
SWIDTH 602 0
DWIDTH 7 0
BBX 6 8 0 0
BITMAP
40
A0
00
1C
10
10
10
1C
ENDCHAR
STARTCHAR ctrlBSLASH
ENCODING 28
SWIDTH 602 0
DWIDTH 7 0
BBX 7 8 0 0
BITMAP
40
A0
00
20
10
08
04
02
ENDCHAR
STARTCHAR ctrlBRR
ENCODING 29
SWIDTH 602 0
DWIDTH 7 0
BBX 6 8 0 0
BITMAP
40
A0
00
1C
04
04
04
1C
ENDCHAR
STARTCHAR ctrlCARET
ENCODING 30
SWIDTH 602 0
DWIDTH 7 0
BBX 7 6 0 2
BITMAP
40
A0
00
08
14
22
ENDCHAR
STARTCHAR ctrlUND
ENCODING 31
SWIDTH 602 0
DWIDTH 7 0
BBX 7 8 0 0
BITMAP
40
A0
00
00
00
00
00
3E
ENDCHAR
STARTCHAR space
ENCODING 32
SWIDTH 602 0
DWIDTH 7 0
BBX 0 0 0 0
BITMAP
ENDCHAR
STARTCHAR exclam
ENCODING 33
SWIDTH 602 0
DWIDTH 7 0
BBX 2 9 3 0
BITMAP
C0
C0
C0
C0
C0
80
00
C0
C0
ENDCHAR
STARTCHAR quotedbl
ENCODING 34
SWIDTH 602 0
DWIDTH 7 0
BBX 3 3 2 7
BITMAP
A0
A0
A0
ENDCHAR
STARTCHAR numbersign
ENCODING 35
SWIDTH 602 0
DWIDTH 7 0
BBX 6 9 1 0
BITMAP
48
48
FC
48
48
FC
48
48
48
ENDCHAR
STARTCHAR dollar
ENCODING 36
SWIDTH 602 0
DWIDTH 7 0
BBX 5 11 1 -1
BITMAP
20
70
A8
A0
60
30
28
28
A8
70
20
ENDCHAR
STARTCHAR percent
ENCODING 37
SWIDTH 602 0
DWIDTH 7 0
BBX 7 9 0 0
BITMAP
60
92
94
68
10
2C
52
92
0C
ENDCHAR
STARTCHAR ampersand
ENCODING 38
SWIDTH 602 0
DWIDTH 7 0
BBX 6 9 1 0
BITMAP
30
48
48
30
64
94
88
88
74
ENDCHAR
STARTCHAR quotesingle
ENCODING 39
SWIDTH 602 0
DWIDTH 7 0
BBX 1 3 3 7
BITMAP
80
80
80
ENDCHAR
STARTCHAR parenleft
ENCODING 40
SWIDTH 602 0
DWIDTH 7 0
BBX 4 11 2 -1
BITMAP
30
40
40
80
80
80
80
80
40
40
30
ENDCHAR
STARTCHAR parenright
ENCODING 41
SWIDTH 602 0
DWIDTH 7 0
BBX 4 11 1 -1
BITMAP
C0
20
20
10
10
10
10
10
20
20
C0
ENDCHAR
STARTCHAR asterisk
ENCODING 42
SWIDTH 602 0
DWIDTH 7 0
BBX 5 5 1 4
BITMAP
20
A8
50
A8
20
ENDCHAR
STARTCHAR plus
ENCODING 43
SWIDTH 602 0
DWIDTH 7 0
BBX 7 7 0 1
BITMAP
10
10
10
FE
10
10
10
ENDCHAR
STARTCHAR comma
ENCODING 44
SWIDTH 602 0
DWIDTH 7 0
BBX 3 3 2 -1
BITMAP
60
60
C0
ENDCHAR
STARTCHAR minus
ENCODING 45
SWIDTH 602 0
DWIDTH 7 0
BBX 7 1 0 4
BITMAP
FE
ENDCHAR
STARTCHAR period
ENCODING 46
SWIDTH 602 0
DWIDTH 7 0
BBX 2 2 2 0
BITMAP
C0
C0
ENDCHAR
STARTCHAR slash
ENCODING 47
SWIDTH 602 0
DWIDTH 7 0
BBX 5 11 1 -1
BITMAP
08
08
10
10
20
20
20
40
40
80
80
ENDCHAR
STARTCHAR zero
ENCODING 48
SWIDTH 602 0
DWIDTH 7 0
BBX 5 9 1 0
BITMAP
70
88
88
88
88
88
88
88
70
ENDCHAR
STARTCHAR one
ENCODING 49
SWIDTH 602 0
DWIDTH 7 0
BBX 3 9 1 0
BITMAP
20
60
A0
20
20
20
20
20
20
ENDCHAR
STARTCHAR two
ENCODING 50
SWIDTH 602 0
DWIDTH 7 0
BBX 5 9 1 0
BITMAP
70
88
08
08
10
20
40
80
F8
ENDCHAR
STARTCHAR three
ENCODING 51
SWIDTH 602 0
DWIDTH 7 0
BBX 5 9 1 0
BITMAP
70
88
08
08
30
08
08
88
70
ENDCHAR
STARTCHAR four
ENCODING 52
SWIDTH 602 0
DWIDTH 7 0
BBX 6 9 0 0
BITMAP
08
18
28
48
88
FC
08
08
08
ENDCHAR
STARTCHAR five
ENCODING 53
SWIDTH 602 0
DWIDTH 7 0
BBX 5 9 1 0
BITMAP
F8
80
80
F0
08
08
08
88
70
ENDCHAR
STARTCHAR six
ENCODING 54
SWIDTH 602 0
DWIDTH 7 0
BBX 5 9 1 0
BITMAP
70
88
80
80
F0
88
88
88
70
ENDCHAR
STARTCHAR seven
ENCODING 55
SWIDTH 602 0
DWIDTH 7 0
BBX 5 9 1 0
BITMAP
F8
08
08
10
20
20
40
40
40
ENDCHAR
STARTCHAR eight
ENCODING 56
SWIDTH 602 0
DWIDTH 7 0
BBX 5 9 1 0
BITMAP
70
88
88
88
70
88
88
88
70
ENDCHAR
STARTCHAR nine
ENCODING 57
SWIDTH 602 0
DWIDTH 7 0
BBX 5 9 1 0
BITMAP
70
88
88
88
78
08
08
88
70
ENDCHAR
STARTCHAR colon
ENCODING 58
SWIDTH 602 0
DWIDTH 7 0
BBX 2 7 2 0
BITMAP
C0
C0
00
00
00
C0
C0
ENDCHAR
STARTCHAR semicolon
ENCODING 59
SWIDTH 602 0
DWIDTH 7 0
BBX 3 8 1 -1
BITMAP
60
60
00
00
00
60
60
C0
ENDCHAR
STARTCHAR less
ENCODING 60
SWIDTH 602 0
DWIDTH 7 0
BBX 4 7 2 1
BITMAP
10
20
40
80
40
20
10
ENDCHAR
STARTCHAR equal
ENCODING 61
SWIDTH 602 0
DWIDTH 7 0
BBX 7 3 0 3
BITMAP
FE
00
FE
ENDCHAR
STARTCHAR greater
ENCODING 62
SWIDTH 602 0
DWIDTH 7 0
BBX 4 7 2 1
BITMAP
80
40
20
10
20
40
80
ENDCHAR
STARTCHAR question
ENCODING 63
SWIDTH 602 0
DWIDTH 7 0
BBX 5 9 1 0
BITMAP
F0
08
08
08
70
40
00
40
40
ENDCHAR
STARTCHAR at
ENCODING 64
SWIDTH 602 0
DWIDTH 7 0
BBX 7 9 0 0
BITMAP
38
44
9C
A4
A4
AC
92
40
38
ENDCHAR
STARTCHAR A
ENCODING 65
SWIDTH 602 0
DWIDTH 7 0
BBX 6 9 1 0
BITMAP
30
30
48
48
48
FC
84
84
84
ENDCHAR
STARTCHAR B
ENCODING 66
SWIDTH 602 0
DWIDTH 7 0
BBX 5 9 1 0
BITMAP
F0
88
88
88
F0
88
88
88
F0
ENDCHAR
STARTCHAR C
ENCODING 67
SWIDTH 602 0
DWIDTH 7 0
BBX 5 9 1 0
BITMAP
38
48
80
80
80
80
80
40
38
ENDCHAR
STARTCHAR D
ENCODING 68
SWIDTH 602 0
DWIDTH 7 0
BBX 5 9 1 0
BITMAP
E0
90
88
88
88
88
88
90
E0
ENDCHAR
STARTCHAR E
ENCODING 69
SWIDTH 602 0
DWIDTH 7 0
BBX 5 9 1 0
BITMAP
F8
80
80
80
F0
80
80
80
F8
ENDCHAR
STARTCHAR F
ENCODING 70
SWIDTH 602 0
DWIDTH 7 0
BBX 4 9 2 0
BITMAP
F0
80
80
80
F0
80
80
80
80
ENDCHAR
STARTCHAR G
ENCODING 71
SWIDTH 602 0
DWIDTH 7 0
BBX 5 9 1 0
BITMAP
38
48
80
80
80
88
88
48
38
ENDCHAR
STARTCHAR H
ENCODING 72
SWIDTH 602 0
DWIDTH 7 0
BBX 5 9 1 0
BITMAP
88
88
88
88
F8
88
88
88
88
ENDCHAR
STARTCHAR I
ENCODING 73
SWIDTH 602 0
DWIDTH 7 0
BBX 5 9 1 0
BITMAP
F8
20
20
20
20
20
20
20
F8
ENDCHAR
STARTCHAR J
ENCODING 74
SWIDTH 602 0
DWIDTH 7 0
BBX 6 9 0 0
BITMAP
7C
10
10
10
10
10
10
10
E0
ENDCHAR
STARTCHAR K
ENCODING 75
SWIDTH 602 0
DWIDTH 7 0
BBX 6 9 1 0
BITMAP
84
88
90
A0
E0
90
88
84
84
ENDCHAR
STARTCHAR L
ENCODING 76
SWIDTH 602 0
DWIDTH 7 0
BBX 4 9 2 0
BITMAP
80
80
80
80
80
80
80
80
F0
ENDCHAR
STARTCHAR M
ENCODING 77
SWIDTH 602 0
DWIDTH 7 0
BBX 6 9 1 0
BITMAP
84
CC
CC
B4
B4
B4
84
84
84
ENDCHAR
STARTCHAR N
ENCODING 78
SWIDTH 602 0
DWIDTH 7 0
BBX 5 9 1 0
BITMAP
88
C8
C8
A8
A8
98
98
88
88
ENDCHAR
STARTCHAR O
ENCODING 79
SWIDTH 602 0
DWIDTH 7 0
BBX 6 9 1 0
BITMAP
30
48
84
84
84
84
84
48
30
ENDCHAR
STARTCHAR P
ENCODING 80
SWIDTH 602 0
DWIDTH 7 0
BBX 5 9 1 0
BITMAP
F0
88
88
88
88
F0
80
80
80
ENDCHAR
STARTCHAR Q
ENCODING 81
SWIDTH 602 0
DWIDTH 7 0
BBX 6 11 1 -2
BITMAP
30
48
84
84
84
84
84
48
30
18
0C
ENDCHAR
STARTCHAR R
ENCODING 82
SWIDTH 602 0
DWIDTH 7 0
BBX 5 9 1 0
BITMAP
F0
88
88
88
F0
90
88
88
88
ENDCHAR
STARTCHAR S
ENCODING 83
SWIDTH 602 0
DWIDTH 7 0
BBX 5 9 1 0
BITMAP
78
80
80
C0
70
18
08
08
F0
ENDCHAR
STARTCHAR T
ENCODING 84
SWIDTH 602 0
DWIDTH 7 0
BBX 7 9 0 0
BITMAP
FE
10
10
10
10
10
10
10
10
ENDCHAR
STARTCHAR U
ENCODING 85
SWIDTH 602 0
DWIDTH 7 0
BBX 5 9 1 0
BITMAP
88
88
88
88
88
88
88
88
70
ENDCHAR
STARTCHAR V
ENCODING 86
SWIDTH 602 0
DWIDTH 7 0
BBX 6 9 1 0
BITMAP
84
84
84
84
48
48
48
30
30
ENDCHAR
STARTCHAR W
ENCODING 87
SWIDTH 602 0
DWIDTH 7 0
BBX 7 9 0 0
BITMAP
82
92
92
92
AA
6C
44
44
44
ENDCHAR
STARTCHAR X
ENCODING 88
SWIDTH 602 0
DWIDTH 7 0
BBX 5 9 1 0
BITMAP
88
88
50
50
20
50
50
88
88
ENDCHAR
STARTCHAR Y
ENCODING 89
SWIDTH 602 0
DWIDTH 7 0
BBX 5 9 1 0
BITMAP
88
88
88
50
50
20
20
20
20
ENDCHAR
STARTCHAR Z
ENCODING 90
SWIDTH 602 0
DWIDTH 7 0
BBX 5 9 1 0
BITMAP
F8
08
10
10
20
40
40
80
F8
ENDCHAR
STARTCHAR bracketleft
ENCODING 91
SWIDTH 602 0
DWIDTH 7 0
BBX 3 11 3 -1
BITMAP
E0
80
80
80
80
80
80
80
80
80
E0
ENDCHAR
STARTCHAR backslash
ENCODING 92
SWIDTH 602 0
DWIDTH 7 0
BBX 5 11 1 -1
BITMAP
80
80
40
40
20
20
20
10
10
08
08
ENDCHAR
STARTCHAR bracketright
ENCODING 93
SWIDTH 602 0
DWIDTH 7 0
BBX 3 11 1 -1
BITMAP
E0
20
20
20
20
20
20
20
20
20
E0
ENDCHAR
STARTCHAR asciicircum
ENCODING 94
SWIDTH 602 0
DWIDTH 7 0
BBX 5 6 1 3
BITMAP
20
20
50
50
88
88
ENDCHAR
STARTCHAR underscore
ENCODING 95
SWIDTH 602 0
DWIDTH 7 0
BBX 7 1 0 -1
BITMAP
FE
ENDCHAR
STARTCHAR grave
ENCODING 96
SWIDTH 602 0
DWIDTH 7 0
BBX 2 2 3 8
BITMAP
80
40
ENDCHAR
STARTCHAR a
ENCODING 97
SWIDTH 602 0
DWIDTH 7 0
BBX 6 7 1 0
BITMAP
70
88
08
78
88
88
74
ENDCHAR
STARTCHAR b
ENCODING 98
SWIDTH 602 0
DWIDTH 7 0
BBX 5 10 1 0
BITMAP
80
80
80
B0
C8
88
88
88
88
F0
ENDCHAR
STARTCHAR c
ENCODING 99
SWIDTH 602 0
DWIDTH 7 0
BBX 5 7 1 0
BITMAP
38
40
80
80
80
40
38
ENDCHAR
STARTCHAR d
ENCODING 100
SWIDTH 602 0
DWIDTH 7 0
BBX 5 10 1 0
BITMAP
08
08
08
78
88
88
88
88
98
68
ENDCHAR
STARTCHAR e
ENCODING 101
SWIDTH 602 0
DWIDTH 7 0
BBX 5 7 1 0
BITMAP
70
88
88
F8
80
88
70
ENDCHAR
STARTCHAR f
ENCODING 102
SWIDTH 602 0
DWIDTH 7 0
BBX 5 10 1 0
BITMAP
38
40
40
F8
40
40
40
40
40
40
ENDCHAR
STARTCHAR g
ENCODING 103
SWIDTH 602 0
DWIDTH 7 0
BBX 5 9 1 -2
BITMAP
78
88
88
88
98
68
08
08
70
ENDCHAR
STARTCHAR h
ENCODING 104
SWIDTH 602 0
DWIDTH 7 0
BBX 5 10 1 0
BITMAP
80
80
80
B0
C8
88
88
88
88
88
ENDCHAR
STARTCHAR i
ENCODING 105
SWIDTH 602 0
DWIDTH 7 0
BBX 3 10 1 0
BITMAP
20
20
00
E0
20
20
20
20
20
20
ENDCHAR
STARTCHAR j
ENCODING 106
SWIDTH 602 0
DWIDTH 7 0
BBX 4 12 1 -2
BITMAP
10
10
00
F0
10
10
10
10
10
10
10
E0
ENDCHAR
STARTCHAR k
ENCODING 107
SWIDTH 602 0
DWIDTH 7 0
BBX 6 10 1 0
BITMAP
80
80
80
88
90
A0
E0
90
88
84
ENDCHAR
STARTCHAR l
ENCODING 108
SWIDTH 602 0
DWIDTH 7 0
BBX 3 10 1 0
BITMAP
E0
20
20
20
20
20
20
20
20
20
ENDCHAR
STARTCHAR m
ENCODING 109
SWIDTH 602 0
DWIDTH 7 0
BBX 7 7 0 0
BITMAP
A4
DA
92
92
92
92
92
ENDCHAR
STARTCHAR n
ENCODING 110
SWIDTH 602 0
DWIDTH 7 0
BBX 5 7 1 0
BITMAP
B0
C8
88
88
88
88
88
ENDCHAR
STARTCHAR o
ENCODING 111
SWIDTH 602 0
DWIDTH 7 0
BBX 5 7 1 0
BITMAP
70
88
88
88
88
88
70
ENDCHAR
STARTCHAR p
ENCODING 112
SWIDTH 602 0
DWIDTH 7 0
BBX 5 9 1 -2
BITMAP
B0
C8
88
88
88
88
F0
80
80
ENDCHAR
STARTCHAR q
ENCODING 113
SWIDTH 602 0
DWIDTH 7 0
BBX 5 9 1 -2
BITMAP
78
88
88
88
88
98
68
08
08
ENDCHAR
STARTCHAR r
ENCODING 114
SWIDTH 602 0
DWIDTH 7 0
BBX 4 7 2 0
BITMAP
B0
C0
80
80
80
80
80
ENDCHAR
STARTCHAR s
ENCODING 115
SWIDTH 602 0
DWIDTH 7 0
BBX 5 7 1 0
BITMAP
78
80
80
70
08
08
F0
ENDCHAR
STARTCHAR t
ENCODING 116
SWIDTH 602 0
DWIDTH 7 0
BBX 5 9 1 0
BITMAP
40
40
F8
40
40
40
40
40
38
ENDCHAR
STARTCHAR u
ENCODING 117
SWIDTH 602 0
DWIDTH 7 0
BBX 5 7 1 0
BITMAP
88
88
88
88
88
98
68
ENDCHAR
STARTCHAR v
ENCODING 118
SWIDTH 602 0
DWIDTH 7 0
BBX 5 7 1 0
BITMAP
88
88
88
50
50
20
20
ENDCHAR
STARTCHAR w
ENCODING 119
SWIDTH 602 0
DWIDTH 7 0
BBX 7 7 0 0
BITMAP
82
92
92
AA
44
44
44
ENDCHAR
STARTCHAR x
ENCODING 120
SWIDTH 602 0
DWIDTH 7 0
BBX 5 7 1 0
BITMAP
88
88
50
20
50
88
88
ENDCHAR
STARTCHAR y
ENCODING 121
SWIDTH 602 0
DWIDTH 7 0
BBX 5 9 1 -2
BITMAP
88
88
88
50
50
20
20
40
C0
ENDCHAR
STARTCHAR z
ENCODING 122
SWIDTH 602 0
DWIDTH 7 0
BBX 5 7 1 0
BITMAP
F8
08
10
20
40
80
F8
ENDCHAR
STARTCHAR braceleft
ENCODING 123
SWIDTH 602 0
DWIDTH 7 0
BBX 4 11 2 -1
BITMAP
30
40
40
40
20
C0
20
40
40
40
30
ENDCHAR
STARTCHAR bar
ENCODING 124
SWIDTH 602 0
DWIDTH 7 0
BBX 1 11 3 -1
BITMAP
80
80
80
80
80
80
80
80
80
80
80
ENDCHAR
STARTCHAR braceright
ENCODING 125
SWIDTH 602 0
DWIDTH 7 0
BBX 4 11 1 -1
BITMAP
C0
20
20
20
40
30
40
20
20
20
C0
ENDCHAR
STARTCHAR asciitilde
ENCODING 126
SWIDTH 602 0
DWIDTH 7 0
BBX 7 2 0 4
BITMAP
72
9C
ENDCHAR
STARTCHAR afii10051
ENCODING 128
SWIDTH 602 0
DWIDTH 7 0
BBX 7 9 0 0
BITMAP
FE
20
20
3C
22
22
22
22
2C
ENDCHAR
STARTCHAR afii10052
ENCODING 129
SWIDTH 602 0
DWIDTH 7 0
BBX 5 11 1 0
BITMAP
10
20
00
F8
80
80
80
80
80
80
80
ENDCHAR
STARTCHAR quotesinglbase
ENCODING 130
SWIDTH 602 0
DWIDTH 7 0
BBX 3 3 2 -1
BITMAP
60
60
C0
ENDCHAR
STARTCHAR afii10100
ENCODING 131
SWIDTH 602 0
DWIDTH 7 0
BBX 5 10 1 0
BITMAP
10
20
00
F8
80
80
80
80
80
80
ENDCHAR
STARTCHAR quotedblbase
ENCODING 132
SWIDTH 602 0
DWIDTH 7 0
BBX 4 3 1 -1
BITMAP
50
50
A0
ENDCHAR
STARTCHAR ellipsis
ENCODING 133
SWIDTH 602 0
DWIDTH 7 0
BBX 5 2 1 0
BITMAP
88
88
ENDCHAR
STARTCHAR dagger
ENCODING 134
SWIDTH 602 0
DWIDTH 7 0
BBX 5 10 1 -1
BITMAP
20
20
20
F8
20
20
20
20
20
20
ENDCHAR
STARTCHAR daggerdbl
ENCODING 135
SWIDTH 602 0
DWIDTH 7 0
BBX 5 10 1 -1
BITMAP
20
20
20
F8
20
20
F8
20
20
20
ENDCHAR
STARTCHAR Euro
ENCODING 136
SWIDTH 602 0
DWIDTH 7 0
BBX 6 9 0 0
BITMAP
1C
24
40
F8
40
F0
40
20
1C
ENDCHAR
STARTCHAR perthousand
ENCODING 137
SWIDTH 602 0
DWIDTH 7 0
BBX 7 10 0 0
BITMAP
40
A0
A4
48
30
40
94
2A
2A
14
ENDCHAR
STARTCHAR afii10058
ENCODING 138
SWIDTH 602 0
DWIDTH 7 0
BBX 7 9 0 0
BITMAP
30
50
50
5C
52
52
52
52
9C
ENDCHAR
STARTCHAR guilsinglleft
ENCODING 139
SWIDTH 602 0
DWIDTH 7 0
BBX 3 5 2 1
BITMAP
20
40
80
40
20
ENDCHAR
STARTCHAR afii10059
ENCODING 140
SWIDTH 602 0
DWIDTH 7 0
BBX 7 9 0 0
BITMAP
90
90
90
FC
92
92
92
92
9C
ENDCHAR
STARTCHAR afii10061
ENCODING 141
SWIDTH 602 0
DWIDTH 7 0
BBX 6 11 1 0
BITMAP
10
20
84
88
90
A0
E0
90
88
84
84
ENDCHAR
STARTCHAR afii10060
ENCODING 142
SWIDTH 602 0
DWIDTH 7 0
BBX 7 9 0 0
BITMAP
FE
20
20
3C
22
22
22
22
22
ENDCHAR
STARTCHAR afii10145
ENCODING 143
SWIDTH 602 0
DWIDTH 7 0
BBX 5 11 1 -2
BITMAP
88
88
88
88
88
88
88
88
F8
20
20
ENDCHAR
STARTCHAR afii10099
ENCODING 144
SWIDTH 602 0
DWIDTH 7 0
BBX 6 12 0 -2
BITMAP
40
F0
40
58
64
44
44
44
44
44
04
18
ENDCHAR
STARTCHAR quoteleft
ENCODING 145
SWIDTH 602 0
DWIDTH 7 0
BBX 3 3 2 7
BITMAP
60
C0
C0
ENDCHAR
STARTCHAR quoteright
ENCODING 146
SWIDTH 602 0
DWIDTH 7 0
BBX 3 3 2 7
BITMAP
60
60
C0
ENDCHAR
STARTCHAR quotedblleft
ENCODING 147
SWIDTH 602 0
DWIDTH 7 0
BBX 4 3 2 7
BITMAP
50
A0
A0
ENDCHAR
STARTCHAR quotedblright
ENCODING 148
SWIDTH 602 0
DWIDTH 7 0
BBX 4 3 1 7
BITMAP
50
50
A0
ENDCHAR
STARTCHAR bullet
ENCODING 149
SWIDTH 602 0
DWIDTH 7 0
BBX 3 3 2 3
BITMAP
E0
E0
E0
ENDCHAR
STARTCHAR endash
ENCODING 150
SWIDTH 602 0
DWIDTH 7 0
BBX 5 1 1 4
BITMAP
F8
ENDCHAR
STARTCHAR emdash
ENCODING 151
SWIDTH 602 0
DWIDTH 7 0
BBX 5 1 1 4
BITMAP
F8
ENDCHAR
STARTCHAR trademark
ENCODING 153
SWIDTH 602 0
DWIDTH 7 0
BBX 7 3 0 6
BITMAP
FE
5E
52
ENDCHAR
STARTCHAR afii10106
ENCODING 154
SWIDTH 602 0
DWIDTH 7 0
BBX 7 7 0 0
BITMAP
30
50
50
5C
52
52
9C
ENDCHAR
STARTCHAR guilsinglright
ENCODING 155
SWIDTH 602 0
DWIDTH 7 0
BBX 3 5 2 1
BITMAP
80
40
20
40
80
ENDCHAR
STARTCHAR afii10107
ENCODING 156
SWIDTH 602 0
DWIDTH 7 0
BBX 7 7 0 0
BITMAP
90
90
90
FC
92
92
9C
ENDCHAR
STARTCHAR afii10109
ENCODING 157
SWIDTH 602 0
DWIDTH 7 0
BBX 5 10 1 0
BITMAP
10
20
00
88
90
A0
E0
90
88
88
ENDCHAR
STARTCHAR afii10108
ENCODING 158
SWIDTH 602 0
DWIDTH 7 0
BBX 6 10 0 0
BITMAP
40
F0
40
58
64
44
44
44
44
44
ENDCHAR
STARTCHAR afii10193
ENCODING 159
SWIDTH 602 0
DWIDTH 7 0
BBX 5 9 1 -2
BITMAP
88
88
88
88
88
88
F8
20
20
ENDCHAR
STARTCHAR space
ENCODING 160
SWIDTH 602 0
DWIDTH 7 0
BBX 0 0 0 0
BITMAP
ENDCHAR
STARTCHAR afii10062
ENCODING 161
SWIDTH 602 0
DWIDTH 7 0
BBX 5 11 1 0
BITMAP
70
00
88
88
88
50
50
20
20
40
80
ENDCHAR
STARTCHAR afii10110
ENCODING 162
SWIDTH 602 0
DWIDTH 7 0
BBX 5 11 1 -2
BITMAP
70
00
88
88
88
50
50
20
20
40
C0
ENDCHAR
STARTCHAR afii10057
ENCODING 163
SWIDTH 602 0
DWIDTH 7 0
BBX 6 9 0 0
BITMAP
7C
10
10
10
10
10
10
10
E0
ENDCHAR
STARTCHAR currency
ENCODING 164
SWIDTH 602 0
DWIDTH 7 0
BBX 7 7 0 1
BITMAP
82
7C
44
44
44
7C
82
ENDCHAR
STARTCHAR afii10050
ENCODING 165
SWIDTH 602 0
DWIDTH 7 0
BBX 5 10 1 0
BITMAP
08
F8
80
80
80
80
80
80
80
80
ENDCHAR
STARTCHAR brokenbar
ENCODING 166
SWIDTH 602 0
DWIDTH 7 0
BBX 1 11 3 -1
BITMAP
80
80
80
80
00
00
80
80
80
80
80
ENDCHAR
STARTCHAR section
ENCODING 167
SWIDTH 602 0
DWIDTH 7 0
BBX 5 10 1 -1
BITMAP
30
48
40
A0
90
48
28
10
90
60
ENDCHAR
STARTCHAR afii10023
ENCODING 168
SWIDTH 602 0
DWIDTH 7 0
BBX 5 11 1 0
BITMAP
50
50
00
F8
80
80
F0
80
80
80
F8
ENDCHAR
STARTCHAR copyright
ENCODING 169
SWIDTH 602 0
DWIDTH 7 0
BBX 7 9 0 0
BITMAP
38
44
9A
A2
A2
A2
9A
44
38
ENDCHAR
STARTCHAR afii10053
ENCODING 170
SWIDTH 602 0
DWIDTH 7 0
BBX 5 9 1 0
BITMAP
38
48
80
80
F0
80
80
40
38
ENDCHAR
STARTCHAR guillemotleft
ENCODING 171
SWIDTH 602 0
DWIDTH 7 0
BBX 6 5 0 1
BITMAP
24
48
90
48
24
ENDCHAR
STARTCHAR logicalnot
ENCODING 172
SWIDTH 602 0
DWIDTH 7 0
BBX 7 4 0 2
BITMAP
FE
02
02
02
ENDCHAR
STARTCHAR hyphen
ENCODING 173
SWIDTH 602 0
DWIDTH 7 0
BBX 3 1 2 4
BITMAP
E0
ENDCHAR
STARTCHAR registered
ENCODING 174
SWIDTH 602 0
DWIDTH 7 0
BBX 7 7 0 2
BITMAP
38
44
BA
B2
AA
44
38
ENDCHAR
STARTCHAR afii10056
ENCODING 175
SWIDTH 602 0
DWIDTH 7 0
BBX 5 11 1 0
BITMAP
50
50
00
F8
20
20
20
20
20
20
F8
ENDCHAR
STARTCHAR degree
ENCODING 176
SWIDTH 602 0
DWIDTH 7 0
BBX 4 3 1 6
BITMAP
60
90
60
ENDCHAR
STARTCHAR plusminus
ENCODING 177
SWIDTH 602 0
DWIDTH 7 0
BBX 7 7 0 1
BITMAP
10
10
FE
10
10
00
FE
ENDCHAR
STARTCHAR afii10055
ENCODING 178
SWIDTH 602 0
DWIDTH 7 0
BBX 5 9 1 0
BITMAP
F8
20
20
20
20
20
20
20
F8
ENDCHAR
STARTCHAR afii10103
ENCODING 179
SWIDTH 602 0
DWIDTH 7 0
BBX 3 10 1 0
BITMAP
20
20
00
E0
20
20
20
20
20
20
ENDCHAR
STARTCHAR afii10098
ENCODING 180
SWIDTH 602 0
DWIDTH 7 0
BBX 5 8 1 0
BITMAP
08
F8
80
80
80
80
80
80
ENDCHAR
STARTCHAR mu
ENCODING 181
SWIDTH 602 0
DWIDTH 7 0
BBX 5 9 1 -2
BITMAP
88
88
88
88
88
D8
A8
80
80
ENDCHAR
STARTCHAR paragraph
ENCODING 182
SWIDTH 602 0
DWIDTH 7 0
BBX 5 10 1 -1
BITMAP
78
E8
E8
E8
68
28
28
28
28
28
ENDCHAR
STARTCHAR periodcentered
ENCODING 183
SWIDTH 602 0
DWIDTH 7 0
BBX 3 3 2 3
BITMAP
E0
E0
E0
ENDCHAR
STARTCHAR afii10071
ENCODING 184
SWIDTH 602 0
DWIDTH 7 0
BBX 5 10 1 0
BITMAP
50
50
00
70
88
88
F8
80
88
70
ENDCHAR
STARTCHAR afii61352
ENCODING 185
SWIDTH 602 0
DWIDTH 7 0
BBX 7 9 0 0
BITMAP
90
90
D0
D4
BA
BA
94
90
9E
ENDCHAR
STARTCHAR afii10101
ENCODING 186
SWIDTH 602 0
DWIDTH 7 0
BBX 5 7 1 0
BITMAP
38
40
80
F0
80
40
38
ENDCHAR
STARTCHAR guillemotright
ENCODING 187
SWIDTH 602 0
DWIDTH 7 0
BBX 6 5 1 1
BITMAP
90
48
24
48
90
ENDCHAR
STARTCHAR afii10105
ENCODING 188
SWIDTH 602 0
DWIDTH 7 0
BBX 4 12 1 -2
BITMAP
10
10
00
F0
10
10
10
10
10
10
10
E0
ENDCHAR
STARTCHAR afii10054
ENCODING 189
SWIDTH 602 0
DWIDTH 7 0
BBX 5 9 1 0
BITMAP
78
80
80
C0
70
18
08
08
F0
ENDCHAR
STARTCHAR afii10102
ENCODING 190
SWIDTH 602 0
DWIDTH 7 0
BBX 5 7 1 0
BITMAP
78
80
80
70
08
08
F0
ENDCHAR
STARTCHAR afii10104
ENCODING 191
SWIDTH 602 0
DWIDTH 7 0
BBX 4 10 1 0
BITMAP
50
50
00
E0
20
20
20
20
20
20
ENDCHAR
STARTCHAR afii10017
ENCODING 192
SWIDTH 602 0
DWIDTH 7 0
BBX 6 9 1 0
BITMAP
30
30
48
48
48
FC
84
84
84
ENDCHAR
STARTCHAR afii10018
ENCODING 193
SWIDTH 602 0
DWIDTH 7 0
BBX 5 9 1 0
BITMAP
F8
80
80
80
F0
88
88
88
F0
ENDCHAR
STARTCHAR afii10019
ENCODING 194
SWIDTH 602 0
DWIDTH 7 0
BBX 5 9 1 0
BITMAP
F0
88
88
88
F0
88
88
88
F0
ENDCHAR
STARTCHAR afii10020
ENCODING 195
SWIDTH 602 0
DWIDTH 7 0
BBX 5 9 1 0
BITMAP
F8
80
80
80
80
80
80
80
80
ENDCHAR
STARTCHAR afii10021
ENCODING 196
SWIDTH 602 0
DWIDTH 7 0
BBX 6 10 1 -1
BITMAP
78
48
48
48
48
48
48
48
FC
84
ENDCHAR
STARTCHAR afii10022
ENCODING 197
SWIDTH 602 0
DWIDTH 7 0
BBX 5 9 1 0
BITMAP
F8
80
80
80
F0
80
80
80
F8
ENDCHAR
STARTCHAR afii10024
ENCODING 198
SWIDTH 602 0
DWIDTH 7 0
BBX 5 9 1 0
BITMAP
A8
A8
A8
70
20
70
A8
A8
A8
ENDCHAR
STARTCHAR afii10025
ENCODING 199
SWIDTH 602 0
DWIDTH 7 0
BBX 5 9 1 0
BITMAP
F0
88
08
08
70
08
08
88
70
ENDCHAR
STARTCHAR afii10026
ENCODING 200
SWIDTH 602 0
DWIDTH 7 0
BBX 5 9 1 0
BITMAP
88
98
98
A8
A8
C8
C8
88
88
ENDCHAR
STARTCHAR afii10027
ENCODING 201
SWIDTH 602 0
DWIDTH 7 0
BBX 5 11 1 0
BITMAP
70
00
88
98
98
A8
A8
C8
C8
88
88
ENDCHAR
STARTCHAR afii10028
ENCODING 202
SWIDTH 602 0
DWIDTH 7 0
BBX 6 9 1 0
BITMAP
84
88
90
A0
E0
90
88
84
84
ENDCHAR
STARTCHAR afii10029
ENCODING 203
SWIDTH 602 0
DWIDTH 7 0
BBX 6 9 1 0
BITMAP
7C
44
44
44
44
44
44
44
84
ENDCHAR
STARTCHAR afii10030
ENCODING 204
SWIDTH 602 0
DWIDTH 7 0
BBX 6 9 1 0
BITMAP
84
CC
CC
B4
B4
B4
84
84
84
ENDCHAR
STARTCHAR afii10031
ENCODING 205
SWIDTH 602 0
DWIDTH 7 0
BBX 5 9 1 0
BITMAP
88
88
88
88
F8
88
88
88
88
ENDCHAR
STARTCHAR afii10032
ENCODING 206
SWIDTH 602 0
DWIDTH 7 0
BBX 6 9 1 0
BITMAP
30
48
84
84
84
84
84
48
30
ENDCHAR
STARTCHAR afii10033
ENCODING 207
SWIDTH 602 0
DWIDTH 7 0
BBX 5 9 1 0
BITMAP
F8
88
88
88
88
88
88
88
88
ENDCHAR
STARTCHAR afii10034
ENCODING 208
SWIDTH 602 0
DWIDTH 7 0
BBX 5 9 1 0
BITMAP
F0
88
88
88
88
F0
80
80
80
ENDCHAR
STARTCHAR afii10035
ENCODING 209
SWIDTH 602 0
DWIDTH 7 0
BBX 5 9 1 0
BITMAP
38
48
80
80
80
80
80
40
38
ENDCHAR
STARTCHAR afii10036
ENCODING 210
SWIDTH 602 0
DWIDTH 7 0
BBX 7 9 0 0
BITMAP
FE
10
10
10
10
10
10
10
10
ENDCHAR
STARTCHAR afii10037
ENCODING 211
SWIDTH 602 0
DWIDTH 7 0
BBX 5 9 1 0
BITMAP
88
88
88
50
50
20
20
40
80
ENDCHAR
STARTCHAR afii10038
ENCODING 212
SWIDTH 602 0
DWIDTH 7 0
BBX 5 9 1 0
BITMAP
20
70
A8
A8
A8
A8
A8
70
20
ENDCHAR
STARTCHAR afii10039
ENCODING 213
SWIDTH 602 0
DWIDTH 7 0
BBX 5 9 1 0
BITMAP
88
88
50
50
20
50
50
88
88
ENDCHAR
STARTCHAR afii10040
ENCODING 214
SWIDTH 602 0
DWIDTH 7 0
BBX 6 10 1 -1
BITMAP
88
88
88
88
88
88
88
88
FC
04
ENDCHAR
STARTCHAR afii10041
ENCODING 215
SWIDTH 602 0
DWIDTH 7 0
BBX 5 9 1 0
BITMAP
88
88
88
88
78
08
08
08
08
ENDCHAR
STARTCHAR afii10042
ENCODING 216
SWIDTH 602 0
DWIDTH 7 0
BBX 5 9 1 0
BITMAP
A8
A8
A8
A8
A8
A8
A8
A8
F8
ENDCHAR
STARTCHAR afii10043
ENCODING 217
SWIDTH 602 0
DWIDTH 7 0
BBX 6 10 1 -1
BITMAP
A8
A8
A8
A8
A8
A8
A8
A8
FC
04
ENDCHAR
STARTCHAR afii10044
ENCODING 218
SWIDTH 602 0
DWIDTH 7 0
BBX 6 9 0 0
BITMAP
E0
20
20
38
24
24
24
24
38
ENDCHAR
STARTCHAR afii10045
ENCODING 219
SWIDTH 602 0
DWIDTH 7 0
BBX 6 9 1 0
BITMAP
84
84
84
E4
94
94
94
94
E4
ENDCHAR
STARTCHAR afii10046
ENCODING 220
SWIDTH 602 0
DWIDTH 7 0
BBX 5 9 1 0
BITMAP
80
80
80
F0
88
88
88
88
F0
ENDCHAR
STARTCHAR afii10047
ENCODING 221
SWIDTH 602 0
DWIDTH 7 0
BBX 5 9 1 0
BITMAP
E0
90
08
08
78
08
08
10
E0
ENDCHAR
STARTCHAR afii10048
ENCODING 222
SWIDTH 602 0
DWIDTH 7 0
BBX 6 9 1 0
BITMAP
98
A4
A4
A4
E4
A4
A4
A4
98
ENDCHAR
STARTCHAR afii10049
ENCODING 223
SWIDTH 602 0
DWIDTH 7 0
BBX 5 9 1 0
BITMAP
78
88
88
88
78
48
88
88
88
ENDCHAR
STARTCHAR afii10065
ENCODING 224
SWIDTH 602 0
DWIDTH 7 0
BBX 6 7 1 0
BITMAP
70
88
08
78
88
88
74
ENDCHAR
STARTCHAR afii10066
ENCODING 225
SWIDTH 602 0
DWIDTH 7 0
BBX 5 10 1 0
BITMAP
38
40
80
B0
C8
88
88
88
88
70
ENDCHAR
STARTCHAR afii10067
ENCODING 226
SWIDTH 602 0
DWIDTH 7 0
BBX 5 7 1 0
BITMAP
F0
88
88
F0
88
88
F0
ENDCHAR
STARTCHAR afii10068
ENCODING 227
SWIDTH 602 0
DWIDTH 7 0
BBX 5 7 1 0
BITMAP
F8
80
80
80
80
80
80
ENDCHAR
STARTCHAR afii10069
ENCODING 228
SWIDTH 602 0
DWIDTH 7 0
BBX 6 8 1 -1
BITMAP
78
48
48
48
48
48
FC
84
ENDCHAR
STARTCHAR afii10070
ENCODING 229
SWIDTH 602 0
DWIDTH 7 0
BBX 5 7 1 0
BITMAP
70
88
88
F8
80
88
70
ENDCHAR
STARTCHAR afii10072
ENCODING 230
SWIDTH 602 0
DWIDTH 7 0
BBX 5 7 1 0
BITMAP
A8
A8
70
20
70
A8
A8
ENDCHAR
STARTCHAR afii10073
ENCODING 231
SWIDTH 602 0
DWIDTH 7 0
BBX 5 7 1 0
BITMAP
F0
08
08
70
08
08
F0
ENDCHAR
STARTCHAR afii10074
ENCODING 232
SWIDTH 602 0
DWIDTH 7 0
BBX 5 7 1 0
BITMAP
88
88
98
A8
C8
88
88
ENDCHAR
STARTCHAR afii10075
ENCODING 233
SWIDTH 602 0
DWIDTH 7 0
BBX 5 9 1 0
BITMAP
70
00
88
88
98
A8
C8
88
88
ENDCHAR
STARTCHAR afii10076
ENCODING 234
SWIDTH 602 0
DWIDTH 7 0
BBX 5 7 1 0
BITMAP
88
90
A0
E0
90
88
88
ENDCHAR
STARTCHAR afii10077
ENCODING 235
SWIDTH 602 0
DWIDTH 7 0
BBX 5 7 1 0
BITMAP
78
48
48
48
48
48
88
ENDCHAR
STARTCHAR afii10078
ENCODING 236
SWIDTH 602 0
DWIDTH 7 0
BBX 6 7 1 0
BITMAP
84
CC
CC
B4
B4
84
84
ENDCHAR
STARTCHAR afii10079
ENCODING 237
SWIDTH 602 0
DWIDTH 7 0
BBX 5 7 1 0
BITMAP
88
88
88
F8
88
88
88
ENDCHAR
STARTCHAR afii10080
ENCODING 238
SWIDTH 602 0
DWIDTH 7 0
BBX 5 7 1 0
BITMAP
70
88
88
88
88
88
70
ENDCHAR
STARTCHAR afii10081
ENCODING 239
SWIDTH 602 0
DWIDTH 7 0
BBX 5 7 1 0
BITMAP
F8
88
88
88
88
88
88
ENDCHAR
STARTCHAR afii10082
ENCODING 240
SWIDTH 602 0
DWIDTH 7 0
BBX 5 9 1 -2
BITMAP
B0
C8
88
88
88
88
F0
80
80
ENDCHAR
STARTCHAR afii10083
ENCODING 241
SWIDTH 602 0
DWIDTH 7 0
BBX 5 7 1 0
BITMAP
38
40
80
80
80
40
38
ENDCHAR
STARTCHAR afii10084
ENCODING 242
SWIDTH 602 0
DWIDTH 7 0
BBX 5 7 1 0
BITMAP
F8
20
20
20
20
20
20
ENDCHAR
STARTCHAR afii10085
ENCODING 243
SWIDTH 602 0
DWIDTH 7 0
BBX 5 9 1 -2
BITMAP
88
88
88
50
50
20
20
40
C0
ENDCHAR
STARTCHAR afii10086
ENCODING 244
SWIDTH 602 0
DWIDTH 7 0
BBX 5 12 1 -2
BITMAP
20
20
20
70
A8
A8
A8
A8
A8
70
20
20
ENDCHAR
STARTCHAR afii10087
ENCODING 245
SWIDTH 602 0
DWIDTH 7 0
BBX 5 7 1 0
BITMAP
88
88
50
20
50
88
88
ENDCHAR
STARTCHAR afii10088
ENCODING 246
SWIDTH 602 0
DWIDTH 7 0
BBX 5 8 1 -1
BITMAP
90
90
90
90
90
90
F8
08
ENDCHAR
STARTCHAR afii10089
ENCODING 247
SWIDTH 602 0
DWIDTH 7 0
BBX 5 7 1 0
BITMAP
88
88
88
78
08
08
08
ENDCHAR
STARTCHAR afii10090
ENCODING 248
SWIDTH 602 0
DWIDTH 7 0
BBX 5 7 1 0
BITMAP
A8
A8
A8
A8
A8
A8
F8
ENDCHAR
STARTCHAR afii10091
ENCODING 249
SWIDTH 602 0
DWIDTH 7 0
BBX 6 8 1 -1
BITMAP
A8
A8
A8
A8
A8
A8
FC
04
ENDCHAR
STARTCHAR afii10092
ENCODING 250
SWIDTH 602 0
DWIDTH 7 0
BBX 6 7 0 0
BITMAP
E0
20
20
38
24
24
38
ENDCHAR
STARTCHAR afii10093
ENCODING 251
SWIDTH 602 0
DWIDTH 7 0
BBX 6 7 1 0
BITMAP
84
84
84
E4
94
94
E4
ENDCHAR
STARTCHAR afii10094
ENCODING 252
SWIDTH 602 0
DWIDTH 7 0
BBX 5 7 1 0
BITMAP
80
80
80
F0
88
88
F0
ENDCHAR
STARTCHAR afii10095
ENCODING 253
SWIDTH 602 0
DWIDTH 7 0
BBX 5 7 1 0
BITMAP
E0
10
08
78
08
10
E0
ENDCHAR
STARTCHAR afii10096
ENCODING 254
SWIDTH 602 0
DWIDTH 7 0
BBX 6 7 1 0
BITMAP
98
A4
A4
E4
A4
A4
98
ENDCHAR
STARTCHAR afii10097
ENCODING 255
SWIDTH 602 0
DWIDTH 7 0
BBX 5 7 1 0
BITMAP
78
88
88
78
48
88
88
ENDCHAR
STARTCHAR fl
ENCODING -1
SWIDTH 602 0
DWIDTH 7 0
BBX 6 10 0 0
BITMAP
3C
44
44
F4
44
44
44
44
44
44
ENDCHAR
STARTCHAR Zcaron
ENCODING -1
SWIDTH 602 0
DWIDTH 7 0
BBX 5 11 1 0
BITMAP
50
20
00
F8
08
10
20
20
40
80
F8
ENDCHAR
STARTCHAR oe
ENCODING -1
SWIDTH 602 0
DWIDTH 7 0
BBX 7 7 0 0
BITMAP
6C
92
92
9E
90
90
6E
ENDCHAR
STARTCHAR Ydieresis
ENCODING -1
SWIDTH 602 0
DWIDTH 7 0
BBX 5 11 1 0
BITMAP
50
50
00
88
88
50
50
20
20
20
20
ENDCHAR
STARTCHAR dotlessi
ENCODING -1
SWIDTH 602 0
DWIDTH 7 0
BBX 3 7 1 0
BITMAP
E0
20
20
20
20
20
20
ENDCHAR
STARTCHAR lslash
ENCODING -1
SWIDTH 602 0
DWIDTH 7 0
BBX 5 10 1 0
BITMAP
E0
20
20
38
E0
20
20
20
20
20
ENDCHAR
STARTCHAR Lslash
ENCODING -1
SWIDTH 602 0
DWIDTH 7 0
BBX 6 9 0 0
BITMAP
20
20
20
38
E0
20
20
20
3C
ENDCHAR
STARTCHAR fi
ENCODING -1
SWIDTH 602 0
DWIDTH 7 0
BBX 6 10 0 0
BITMAP
34
44
40
FC
44
44
44
44
44
44
ENDCHAR
STARTCHAR OE
ENCODING -1
SWIDTH 602 0
DWIDTH 7 0
BBX 7 9 0 0
BITMAP
7E
90
90
90
9C
90
90
90
7E
ENDCHAR
STARTCHAR caron
ENCODING -1
SWIDTH 602 0
DWIDTH 7 0
BBX 3 2 3 8
BITMAP
A0
40
ENDCHAR
STARTCHAR ogonek
ENCODING -1
SWIDTH 602 0
DWIDTH 7 0
BBX 3 2 3 -2
BITMAP
80
60
ENDCHAR
STARTCHAR hungarumlaut
ENCODING -1
SWIDTH 602 0
DWIDTH 7 0
BBX 5 2 2 8
BITMAP
48
90
ENDCHAR
STARTCHAR dotaccent
ENCODING -1
SWIDTH 602 0
DWIDTH 7 0
BBX 2 2 3 8
BITMAP
C0
C0
ENDCHAR
STARTCHAR breve
ENCODING -1
SWIDTH 602 0
DWIDTH 7 0
BBX 4 2 2 8
BITMAP
90
60
ENDCHAR
STARTCHAR tilde
ENCODING -1
SWIDTH 602 0
DWIDTH 7 0
BBX 4 2 2 8
BITMAP
50
A0
ENDCHAR
STARTCHAR circumflex
ENCODING -1
SWIDTH 602 0
DWIDTH 7 0
BBX 3 2 3 8
BITMAP
40
A0
ENDCHAR
STARTCHAR scaron
ENCODING -1
SWIDTH 602 0
DWIDTH 7 0
BBX 5 10 1 0
BITMAP
50
20
00
78
80
80
70
08
08
F0
ENDCHAR
STARTCHAR ring
ENCODING -1
SWIDTH 602 0
DWIDTH 7 0
BBX 4 3 2 7
BITMAP
60
90
60
ENDCHAR
STARTCHAR florin
ENCODING -1
SWIDTH 602 0
DWIDTH 7 0
BBX 6 10 1 -1
BITMAP
18
24
20
40
F8
40
40
80
80
80
ENDCHAR
STARTCHAR fraction
ENCODING -1
SWIDTH 602 0
DWIDTH 7 0
BBX 7 9 0 0
BITMAP
02
04
08
08
10
20
20
40
80
ENDCHAR
STARTCHAR Scaron
ENCODING -1
SWIDTH 602 0
DWIDTH 7 0
BBX 5 11 1 0
BITMAP
50
20
00
78
80
C0
70
18
08
08
F0
ENDCHAR
STARTCHAR zcaron
ENCODING -1
SWIDTH 602 0
DWIDTH 7 0
BBX 5 10 1 0
BITMAP
50
20
00
F8
08
10
20
40
80
F8
ENDCHAR
ENDFONT
