STARTFONT 2.1
FONT -Adobe-Times-Bold-R-Normal--18-180-75-75-P-99-windows-1251
SIZE 18 75 75
FONTBOUNDINGBOX 21 21 -2 -4
COMMENT $XConsortium: timB18.bdf,v 1.14 95/01/26 18:05:57 gildea Exp $
COMMENT 
COMMENT +
COMMENT  Copyright 1984-1989, 1994 Adobe Systems Incorporated.
COMMENT  Copyright 1988, 1994 Digital Equipment Corporation.
COMMENT
COMMENT  Adobe is a trademark of Adobe Systems Incorporated which may be
COMMENT  registered in certain jurisdictions.
COMMENT  Permission to use these trademarks is hereby granted only in
COMMENT  association with the images described in this file.
COMMENT
COMMENT  Permission to use, copy, modify, distribute and sell this software
COMMENT  and its documentation for any purpose and without fee is hereby
COMMENT  granted, provided that the above copyright notices appear in all
COMMENT  copies and that both those copyright notices and this permission
COMMENT  notice appear in supporting documentation, and that the names of
COMMENT  Adobe Systems and Digital Equipment Corporation not be used in
COMMENT  advertising or publicity pertaining to distribution of the software
COMMENT  without specific, written prior permission.  Adobe Systems and
COMMENT  Digital Equipment Corporation make no representations about the
COMMENT  suitability of this software for any purpose.  It is provided "as
COMMENT  is" without express or implied warranty.
COMMENT -
STARTPROPERTIES 32
FOUNDRY "Adobe"
FAMILY_NAME "Times"
WEIGHT_NAME "Bold"
SLANT "R"
SETWIDTH_NAME "Normal"
ADD_STYLE_NAME ""
PIXEL_SIZE 18
POINT_SIZE 180
RESOLUTION_X 75
RESOLUTION_Y 75
SPACING "P"
AVERAGE_WIDTH 99
CHARSET_REGISTRY "windows"
CHARSET_ENCODING "1251"
CAP_HEIGHT 13
X_HEIGHT 9
FONT_ASCENT 15
FONT_DESCENT 4
FACE_NAME "Times Bold"
COPYRIGHT "Copyright (c) 1984, 1987 Adobe Systems Incorporated. All Rights Reserved. Copyright (c) 1988, 1991 Digital Equipment Corporation. All Rights Reserved."
NOTICE "Times is a trademark of Linotype-Hell AG and/or its subsidiaries."
_DEC_DEVICE_FONTNAMES "PS=Times-Bold"
_DEC_PRODUCTINFO "DECwindows Fonts V2.2-1, 22-Nov-1991"
DEFAULT_CHAR 32
RELATIVE_SETWIDTH 50
RELATIVE_WEIGHT 70
CHARSET_COLLECTIONS "ASCII ISO8859-1 ADOBE-STANDARD"
FULL_NAME "Times Bold"
COPYRIGHT2 "Cyrillic and Euro glyphs copyright 2000 Dmitry Yu. Bolkhovityanov, bolkhov@inp.nsk.su"
SOURCEDATE "Wed Aug  9 11:35:57 2000"
PKGVERSION "1.1"
ASSEMBLER "cvtbdf.pl (Linux)"
ENDPROPERTIES
CHARS 244
STARTCHAR space
ENCODING 32
SWIDTH 250 0
DWIDTH 4 0
BBX 0 0 0 0
BITMAP
ENDCHAR
STARTCHAR exclam
ENCODING 33
SWIDTH 333 0
DWIDTH 6 0
BBX 3 13 1 0
BITMAP
40
E0
E0
E0
E0
E0
E0
40
40
00
E0
E0
E0
ENDCHAR
STARTCHAR quotedbl
ENCODING 34
SWIDTH 555 0
DWIDTH 10 0
BBX 6 6 2 7
BITMAP
CC
CC
CC
CC
88
88
ENDCHAR
STARTCHAR numbersign
ENCODING 35
SWIDTH 500 0
DWIDTH 9 0
BBX 10 14 -1 -1
BITMAP
0D80
0D80
0D80
0D80
7FC0
7FC0
1B00
1B00
FF80
FF80
3600
3600
3600
3600
ENDCHAR
STARTCHAR dollar
ENCODING 36
SWIDTH 500 0
DWIDTH 9 0
BBX 8 16 0 -2
BITMAP
18
7E
DB
DB
D8
F8
7C
3E
1F
1F
1B
DB
DB
7E
18
18
ENDCHAR
STARTCHAR percent
ENCODING 37
SWIDTH 1000 0
DWIDTH 18 0
BBX 14 13 1 0
BITMAP
3C18
77F0
E260
C240
C4C0
ED80
7378
06EC
06C4
0D84
1988
31D8
30E0
ENDCHAR
STARTCHAR ampersand
ENCODING 38
SWIDTH 833 0
DWIDTH 16 0
BBX 13 13 2 0
BITMAP
1E00
3300
3300
3300
3A00
1CF0
3C60
5E40
CF80
C780
E3C0
FFF8
78F0
ENDCHAR
STARTCHAR quotesingle
ENCODING 39
SWIDTH 278 0
DWIDTH 5 0
BBX 3 6 1 7
BITMAP
E0
E0
C0
C0
80
80
ENDCHAR
STARTCHAR parenleft
ENCODING 40
SWIDTH 333 0
DWIDTH 6 0
BBX 5 17 1 -4
BITMAP
08
10
30
60
60
E0
C0
C0
C0
C0
C0
E0
60
60
30
10
08
ENDCHAR
STARTCHAR parenright
ENCODING 41
SWIDTH 333 0
DWIDTH 6 0
BBX 5 17 0 -4
BITMAP
80
40
60
30
30
38
18
18
18
18
18
38
30
20
60
40
80
ENDCHAR
STARTCHAR asterisk
ENCODING 42
SWIDTH 500 0
DWIDTH 9 0
BBX 8 9 0 4
BITMAP
18
18
DB
FF
3C
FF
DB
18
18
ENDCHAR
STARTCHAR plus
ENCODING 43
SWIDTH 570 0
DWIDTH 11 0
BBX 10 10 1 0
BITMAP
0C00
0C00
0C00
0C00
FFC0
FFC0
0C00
0C00
0C00
0C00
ENDCHAR
STARTCHAR comma
ENCODING 44
SWIDTH 250 0
DWIDTH 5 0
BBX 4 6 0 -3
BITMAP
70
70
70
30
60
C0
ENDCHAR
STARTCHAR minus
ENCODING 45
SWIDTH 570 0
DWIDTH 11 0
BBX 9 2 1 4
BITMAP
FF80
FF80
ENDCHAR
STARTCHAR period
ENCODING 46
SWIDTH 250 0
DWIDTH 5 0
BBX 3 3 1 0
BITMAP
E0
E0
E0
ENDCHAR
STARTCHAR slash
ENCODING 47
SWIDTH 278 0
DWIDTH 6 0
BBX 5 13 0 0
BITMAP
18
18
18
30
30
30
20
60
60
60
C0
C0
C0
ENDCHAR
STARTCHAR zero
ENCODING 48
SWIDTH 500 0
DWIDTH 9 0
BBX 8 13 0 0
BITMAP
3C
66
67
E7
E7
E7
E7
E7
E7
E7
66
66
3C
ENDCHAR
STARTCHAR one
ENCODING 49
SWIDTH 500 0
DWIDTH 9 0
BBX 8 13 0 0
BITMAP
1C
3C
FC
1C
1C
1C
1C
1C
1C
1C
1C
1C
7F
ENDCHAR
STARTCHAR two
ENCODING 50
SWIDTH 500 0
DWIDTH 9 0
BBX 8 13 0 0
BITMAP
3C
7E
CF
87
07
07
06
0C
18
31
63
FF
FF
ENDCHAR
STARTCHAR three
ENCODING 51
SWIDTH 500 0
DWIDTH 9 0
BBX 8 13 0 0
BITMAP
3C
7E
8F
07
0E
3C
3E
0F
07
03
C3
E6
7C
ENDCHAR
STARTCHAR four
ENCODING 52
SWIDTH 500 0
DWIDTH 9 0
BBX 8 13 0 0
BITMAP
0E
1E
1E
2E
2E
4E
CE
8E
FF
FF
0E
0E
0E
ENDCHAR
STARTCHAR five
ENCODING 53
SWIDTH 500 0
DWIDTH 9 0
BBX 8 13 0 0
BITMAP
3F
7E
40
40
78
7E
0F
07
07
07
C7
EE
F8
ENDCHAR
STARTCHAR six
ENCODING 54
SWIDTH 500 0
DWIDTH 9 0
BBX 8 13 0 0
BITMAP
07
1C
30
60
60
FC
E6
E7
E7
E7
E7
66
3C
ENDCHAR
STARTCHAR seven
ENCODING 55
SWIDTH 500 0
DWIDTH 9 0
BBX 8 13 0 0
BITMAP
FF
FF
FE
86
0C
0C
0C
18
18
38
30
30
70
ENDCHAR
STARTCHAR eight
ENCODING 56
SWIDTH 500 0
DWIDTH 9 0
BBX 9 13 0 0
BITMAP
3E00
6700
E300
E300
F300
7E00
3E00
5F00
C780
C380
C380
6300
3C00
ENDCHAR
STARTCHAR nine
ENCODING 57
SWIDTH 500 0
DWIDTH 9 0
BBX 8 13 0 0
BITMAP
3C
66
E7
E7
E7
E7
67
3F
07
06
06
1C
F0
ENDCHAR
STARTCHAR colon
ENCODING 58
SWIDTH 333 0
DWIDTH 5 0
BBX 3 9 1 0
BITMAP
E0
E0
E0
00
00
00
E0
E0
E0
ENDCHAR
STARTCHAR semicolon
ENCODING 59
SWIDTH 333 0
DWIDTH 5 0
BBX 4 12 0 -3
BITMAP
70
70
70
00
00
00
70
70
70
30
60
C0
ENDCHAR
STARTCHAR less
ENCODING 60
SWIDTH 570 0
DWIDTH 11 0
BBX 9 9 1 0
BITMAP
0380
0F00
3C00
F000
C000
F000
3C00
0F00
0380
ENDCHAR
STARTCHAR equal
ENCODING 61
SWIDTH 570 0
DWIDTH 11 0
BBX 9 6 1 2
BITMAP
FF80
FF80
0000
0000
FF80
FF80
ENDCHAR
STARTCHAR greater
ENCODING 62
SWIDTH 570 0
DWIDTH 11 0
BBX 9 9 1 0
BITMAP
E000
7800
1E00
0780
0180
0780
1E00
7800
E000
ENDCHAR
STARTCHAR question
ENCODING 63
SWIDTH 500 0
DWIDTH 9 0
BBX 7 13 1 0
BITMAP
7C
CE
EE
EE
4E
0C
18
10
10
00
38
38
38
ENDCHAR
STARTCHAR at
ENCODING 64
SWIDTH 930 0
DWIDTH 17 0
BBX 15 16 1 -3
BITMAP
03E0
0F38
380C
3004
73B6
6776
E776
EE66
EE66
EEEC
EFFC
67B8
7000
3800
1E00
07F0
ENDCHAR
STARTCHAR A
ENCODING 65
SWIDTH 722 0
DWIDTH 13 0
BBX 15 13 -1 0
BITMAP
0300
0380
0780
05C0
0DC0
08C0
18E0
1060
1FF0
3070
2038
6038
F8FE
ENDCHAR
STARTCHAR B
ENCODING 66
SWIDTH 667 0
DWIDTH 12 0
BBX 11 13 1 0
BITMAP
FF00
7380
71C0
71C0
71C0
7380
7F00
71C0
70E0
70E0
70E0
71C0
FF00
ENDCHAR
STARTCHAR C
ENCODING 67
SWIDTH 722 0
DWIDTH 13 0
BBX 12 13 1 0
BITMAP
0FB0
38F0
7030
7010
E000
E000
E000
E000
E000
7000
7030
3CE0
0F80
ENDCHAR
STARTCHAR D
ENCODING 68
SWIDTH 722 0
DWIDTH 14 0
BBX 12 13 1 0
BITMAP
FF00
71C0
70E0
7060
7070
7070
7070
7070
7070
7060
70E0
71C0
FF00
ENDCHAR
STARTCHAR E
ENCODING 69
SWIDTH 667 0
DWIDTH 12 0
BBX 10 13 1 0
BITMAP
FFC0
70C0
7040
7000
7000
7100
7F00
7100
7000
7000
7040
70C0
FFC0
ENDCHAR
STARTCHAR F
ENCODING 70
SWIDTH 611 0
DWIDTH 11 0
BBX 10 13 1 0
BITMAP
FFC0
70C0
7040
7000
7000
7100
7F00
7100
7000
7000
7000
7000
F800
ENDCHAR
STARTCHAR G
ENCODING 71
SWIDTH 778 0
DWIDTH 15 0
BBX 13 13 1 0
BITMAP
0FB0
3870
7030
7010
E000
E000
E000
E0F8
E070
7070
7070
38F0
0FC0
ENDCHAR
STARTCHAR H
ENCODING 72
SWIDTH 778 0
DWIDTH 15 0
BBX 13 13 1 0
BITMAP
F8F8
7070
7070
7070
7070
7070
7FF0
7070
7070
7070
7070
7070
F8F8
ENDCHAR
STARTCHAR I
ENCODING 73
SWIDTH 389 0
DWIDTH 7 0
BBX 5 13 1 0
BITMAP
F8
70
70
70
70
70
70
70
70
70
70
70
F8
ENDCHAR
STARTCHAR J
ENCODING 74
SWIDTH 500 0
DWIDTH 9 0
BBX 8 15 0 -2
BITMAP
1F
0E
0E
0E
0E
0E
0E
0E
0E
0E
0E
0E
EE
EC
78
ENDCHAR
STARTCHAR K
ENCODING 75
SWIDTH 778 0
DWIDTH 15 0
BBX 13 13 2 0
BITMAP
F9F0
70C0
7180
7300
7600
7C00
7C00
7E00
7700
7380
71C0
71E0
F8F8
ENDCHAR
STARTCHAR L
ENCODING 76
SWIDTH 667 0
DWIDTH 12 0
BBX 10 13 1 0
BITMAP
F800
7000
7000
7000
7000
7000
7000
7000
7000
7040
7040
70C0
FFC0
ENDCHAR
STARTCHAR M
ENCODING 77
SWIDTH 944 0
DWIDTH 17 0
BBX 15 13 1 0
BITMAP
F01E
701C
783C
783C
7C5C
5C5C
5EDC
4E9C
4F9C
471C
471C
431C
E23E
ENDCHAR
STARTCHAR N
ENCODING 78
SWIDTH 722 0
DWIDTH 14 0
BBX 12 13 1 0
BITMAP
F070
7820
7820
7C20
5E20
4E20
4F20
47A0
43A0
43E0
41E0
40E0
E060
ENDCHAR
STARTCHAR O
ENCODING 79
SWIDTH 778 0
DWIDTH 15 0
BBX 13 13 1 0
BITMAP
0F80
38E0
7070
6030
E038
E038
E038
E038
E038
6030
7070
38E0
0F80
ENDCHAR
STARTCHAR P
ENCODING 80
SWIDTH 611 0
DWIDTH 11 0
BBX 10 13 1 0
BITMAP
FF00
7380
71C0
71C0
71C0
7380
7F00
7000
7000
7000
7000
7000
F800
ENDCHAR
STARTCHAR Q
ENCODING 81
SWIDTH 778 0
DWIDTH 15 0
BBX 13 17 1 -4
BITMAP
0F80
38E0
7070
7070
E038
E038
E038
E038
E038
7070
7070
38E0
0F80
0F00
0780
03E0
00F8
ENDCHAR
STARTCHAR R
ENCODING 82
SWIDTH 722 0
DWIDTH 13 0
BBX 12 13 1 0
BITMAP
FF00
7380
71C0
71C0
71C0
7380
7F00
7700
7380
71C0
71C0
70E0
F8F0
ENDCHAR
STARTCHAR S
ENCODING 83
SWIDTH 556 0
DWIDTH 11 0
BBX 9 13 1 0
BITMAP
3D00
7380
E180
E080
F000
7C00
3F00
0F80
0380
8180
C180
E300
BE00
ENDCHAR
STARTCHAR T
ENCODING 84
SWIDTH 667 0
DWIDTH 12 0
BBX 11 13 0 0
BITMAP
FFE0
CE60
8E20
8E20
0E00
0E00
0E00
0E00
0E00
0E00
0E00
0E00
3F80
ENDCHAR
STARTCHAR U
ENCODING 85
SWIDTH 722 0
DWIDTH 13 0
BBX 12 13 1 0
BITMAP
F8F0
7020
7020
7020
7020
7020
7020
7020
7020
7020
7060
38C0
1F80
ENDCHAR
STARTCHAR V
ENCODING 86
SWIDTH 722 0
DWIDTH 14 0
BBX 14 13 0 0
BITMAP
FC7C
7818
3810
3C30
1C20
1E60
1E40
0EC0
0F80
0780
0700
0300
0200
ENDCHAR
STARTCHAR W
ENCODING 87
SWIDTH 1000 0
DWIDTH 18 0
BBX 18 13 0 0
BITMAP
FDF7C0
79E180
38E100
3CE300
3CE200
1C7200
1E7600
0E7400
0EBC00
0F3C00
073C00
061800
061800
ENDCHAR
STARTCHAR X
ENCODING 88
SWIDTH 722 0
DWIDTH 13 0
BBX 14 13 0 0
BITMAP
F8F8
7070
3860
38C0
1D80
0F00
0700
0780
0FC0
19C0
30E0
70F0
F9FC
ENDCHAR
STARTCHAR Y
ENCODING 89
SWIDTH 722 0
DWIDTH 13 0
BBX 13 13 0 0
BITMAP
FC78
7830
3860
3C40
1EC0
0E80
0F80
0700
0700
0700
0700
0700
1FC0
ENDCHAR
STARTCHAR Z
ENCODING 90
SWIDTH 667 0
DWIDTH 12 0
BBX 10 13 1 0
BITMAP
FFC0
C3C0
8380
0780
0F00
0E00
1E00
3C00
3800
7840
F040
E0C0
FFC0
ENDCHAR
STARTCHAR bracketleft
ENCODING 91
SWIDTH 333 0
DWIDTH 6 0
BBX 4 16 1 -3
BITMAP
F0
C0
C0
C0
C0
C0
C0
C0
C0
C0
C0
C0
C0
C0
C0
F0
ENDCHAR
STARTCHAR backslash
ENCODING 92
SWIDTH 278 0
DWIDTH 5 0
BBX 5 13 0 0
BITMAP
C0
C0
C0
60
60
60
20
30
30
30
18
18
18
ENDCHAR
STARTCHAR bracketright
ENCODING 93
SWIDTH 333 0
DWIDTH 6 0
BBX 4 16 1 -3
BITMAP
F0
30
30
30
30
30
30
30
30
30
30
30
30
30
30
F0
ENDCHAR
STARTCHAR asciicircum
ENCODING 94
SWIDTH 581 0
DWIDTH 11 0
BBX 8 7 1 6
BITMAP
18
18
3C
24
66
C3
C3
ENDCHAR
STARTCHAR underscore
ENCODING 95
SWIDTH 500 0
DWIDTH 9 0
BBX 9 2 0 -4
BITMAP
FF80
FF80
ENDCHAR
STARTCHAR grave
ENCODING 96
SWIDTH 333 0
DWIDTH 6 0
BBX 4 3 1 10
BITMAP
C0
60
10
ENDCHAR
STARTCHAR a
ENCODING 97
SWIDTH 500 0
DWIDTH 9 0
BBX 9 9 0 0
BITMAP
3E00
E700
E700
0F00
7700
E700
E700
FF00
3B80
ENDCHAR
STARTCHAR b
ENCODING 98
SWIDTH 556 0
DWIDTH 9 0
BBX 9 13 -1 0
BITMAP
F000
7000
7000
7000
7600
7F00
7380
7380
7380
7380
7380
7300
6E00
ENDCHAR
STARTCHAR c
ENCODING 99
SWIDTH 444 0
DWIDTH 8 0
BBX 7 9 0 0
BITMAP
3E
76
E6
E0
E0
E0
E0
76
3C
ENDCHAR
STARTCHAR d
ENCODING 100
SWIDTH 556 0
DWIDTH 10 0
BBX 9 13 0 0
BITMAP
0F00
0700
0700
0700
3700
7F00
E700
E700
E700
E700
E700
7700
3B80
ENDCHAR
STARTCHAR e
ENCODING 101
SWIDTH 444 0
DWIDTH 8 0
BBX 8 9 0 0
BITMAP
3C
66
E7
FF
E0
E0
E0
73
3E
ENDCHAR
STARTCHAR f
ENCODING 102
SWIDTH 333 0
DWIDTH 6 0
BBX 7 13 0 0
BITMAP
3E
76
70
70
FC
70
70
70
70
70
70
70
F8
ENDCHAR
STARTCHAR g
ENCODING 103
SWIDTH 500 0
DWIDTH 9 0
BBX 9 13 0 -4
BITMAP
3F80
E700
E700
E700
E600
7800
3000
7F00
7F80
E380
C180
E700
7E00
ENDCHAR
STARTCHAR h
ENCODING 104
SWIDTH 556 0
DWIDTH 11 0
BBX 10 13 0 0
BITMAP
F000
7000
7000
7000
7700
7F80
7380
7380
7380
7380
7380
7380
FBC0
ENDCHAR
STARTCHAR i
ENCODING 105
SWIDTH 278 0
DWIDTH 5 0
BBX 5 13 -1 0
BITMAP
70
70
70
00
F0
70
70
70
70
70
70
70
F8
ENDCHAR
STARTCHAR j
ENCODING 106
SWIDTH 333 0
DWIDTH 5 0
BBX 6 17 -2 -4
BITMAP
1C
1C
1C
00
3C
1C
1C
1C
1C
1C
1C
1C
1C
1C
DC
D8
70
ENDCHAR
STARTCHAR k
ENCODING 107
SWIDTH 556 0
DWIDTH 10 0
BBX 10 13 0 0
BITMAP
F000
7000
7000
7000
7380
7300
7600
7C00
7C00
7E00
7700
7380
F7C0
ENDCHAR
STARTCHAR l
ENCODING 108
SWIDTH 278 0
DWIDTH 6 0
BBX 5 13 0 0
BITMAP
F0
70
70
70
70
70
70
70
70
70
70
70
F8
ENDCHAR
STARTCHAR m
ENCODING 109
SWIDTH 833 0
DWIDTH 16 0
BBX 15 9 0 0
BITMAP
F738
7BDC
739C
739C
739C
739C
739C
739C
FBDE
ENDCHAR
STARTCHAR n
ENCODING 110
SWIDTH 556 0
DWIDTH 11 0
BBX 10 9 0 0
BITMAP
E700
7F80
7380
7380
7380
7380
7380
7380
FBC0
ENDCHAR
STARTCHAR o
ENCODING 111
SWIDTH 500 0
DWIDTH 9 0
BBX 8 9 0 0
BITMAP
3C
66
E7
E7
E7
E7
E7
66
3C
ENDCHAR
STARTCHAR p
ENCODING 112
SWIDTH 556 0
DWIDTH 10 0
BBX 9 13 0 -4
BITMAP
E600
7F00
7380
7380
7380
7380
7380
7B00
7600
7000
7000
7000
F800
ENDCHAR
STARTCHAR q
ENCODING 113
SWIDTH 556 0
DWIDTH 9 0
BBX 9 13 0 -4
BITMAP
3900
7700
E700
E700
E700
E700
E700
7F00
3700
0700
0700
0700
0F80
ENDCHAR
STARTCHAR r
ENCODING 114
SWIDTH 444 0
DWIDTH 8 0
BBX 7 9 0 0
BITMAP
EE
76
70
70
70
70
70
70
F8
ENDCHAR
STARTCHAR s
ENCODING 115
SWIDTH 389 0
DWIDTH 7 0
BBX 6 9 0 0
BITMAP
7C
CC
E4
F0
78
3C
9C
CC
F8
ENDCHAR
STARTCHAR t
ENCODING 116
SWIDTH 333 0
DWIDTH 7 0
BBX 6 11 0 0
BITMAP
10
30
FC
70
70
70
70
70
70
74
38
ENDCHAR
STARTCHAR u
ENCODING 117
SWIDTH 556 0
DWIDTH 11 0
BBX 10 9 0 0
BITMAP
F780
7380
7380
7380
7380
7380
7380
7F80
3DC0
ENDCHAR
STARTCHAR v
ENCODING 118
SWIDTH 500 0
DWIDTH 9 0
BBX 10 9 -1 0
BITMAP
FBC0
7180
7900
3B00
3B00
1E00
1E00
0C00
0C00
ENDCHAR
STARTCHAR w
ENCODING 119
SWIDTH 722 0
DWIDTH 12 0
BBX 14 9 -1 0
BITMAP
F79C
7718
7390
3BB0
39A0
1DE0
1FC0
0CC0
0CC0
ENDCHAR
STARTCHAR x
ENCODING 120
SWIDTH 500 0
DWIDTH 9 0
BBX 9 9 0 0
BITMAP
F380
7300
7A00
3C00
1C00
1E00
3700
6780
E380
ENDCHAR
STARTCHAR y
ENCODING 121
SWIDTH 500 0
DWIDTH 9 0
BBX 10 13 -1 -4
BITMAP
FBC0
7180
7900
3B00
3A00
1E00
1E00
0C00
0C00
0C00
C800
D800
F000
ENDCHAR
STARTCHAR z
ENCODING 122
SWIDTH 444 0
DWIDTH 8 0
BBX 7 9 0 0
BITMAP
FE
CE
8E
1C
38
70
72
E6
FE
ENDCHAR
STARTCHAR braceleft
ENCODING 123
SWIDTH 394 0
DWIDTH 8 0
BBX 7 17 0 -4
BITMAP
1E
38
30
30
30
30
30
60
C0
60
30
30
30
30
30
38
1E
ENDCHAR
STARTCHAR bar
ENCODING 124
SWIDTH 220 0
DWIDTH 4 0
BBX 2 17 1 -4
BITMAP
C0
C0
C0
C0
C0
C0
C0
C0
C0
C0
C0
C0
C0
C0
C0
C0
C0
ENDCHAR
STARTCHAR braceright
ENCODING 125
SWIDTH 394 0
DWIDTH 8 0
BBX 7 17 1 -4
BITMAP
F0
38
18
18
18
18
18
0C
06
0C
18
18
18
18
18
38
F0
ENDCHAR
STARTCHAR asciitilde
ENCODING 126
SWIDTH 520 0
DWIDTH 10 0
BBX 8 4 1 3
BITMAP
70
F9
9F
0E
ENDCHAR
STARTCHAR afii10051
ENCODING 128
SWIDTH 853 0
DWIDTH 16 0
BBX 15 17 0 -4
BITMAP
FFE0
CE60
8E20
8E20
0E00
0EF8
0F1C
0E0E
0E0E
0E0E
0E0E
0E0E
1F0E
000E
001C
001C
00F0
ENDCHAR
STARTCHAR afii10052
ENCODING 129
SWIDTH 586 0
DWIDTH 11 0
BBX 10 17 1 0
BITMAP
0300
0600
0800
0000
FFC0
70C0
7040
7040
7000
7000
7000
7000
7000
7000
7000
7000
F800
ENDCHAR
STARTCHAR quotesinglbase
ENCODING 130
SWIDTH 333 0
DWIDTH 6 0
BBX 4 6 1 -3
BITMAP
70
70
70
30
60
C0
ENDCHAR
STARTCHAR afii10100
ENCODING 131
SWIDTH 426 0
DWIDTH 8 0
BBX 8 13 0 0
BITMAP
06
0C
10
00
FF
73
71
70
70
70
70
70
F8
ENDCHAR
STARTCHAR quotedblbase
ENCODING 132
SWIDTH 500 0
DWIDTH 9 0
BBX 8 6 0 -3
BITMAP
77
77
77
33
66
CC
ENDCHAR
STARTCHAR ellipsis
ENCODING 133
SWIDTH 1000 0
DWIDTH 19 0
BBX 15 3 2 0
BITMAP
E38E
E38E
E38E
ENDCHAR
STARTCHAR dagger
ENCODING 134
SWIDTH 500 0
DWIDTH 9 0
BBX 9 16 0 -3
BITMAP
0800
1C00
1C00
0800
6B00
FF80
6B00
0800
1C00
1C00
1C00
0800
0800
0800
0800
0800
ENDCHAR
STARTCHAR daggerdbl
ENCODING 135
SWIDTH 500 0
DWIDTH 11 0
BBX 11 16 0 -3
BITMAP
0400
0E00
0E00
0400
64C0
FFE0
64C0
0E00
0E00
0E00
64C0
FFE0
64C0
0E00
0E00
0400
ENDCHAR
STARTCHAR Euro
ENCODING 136
SWIDTH 746 0
DWIDTH 14 0
BBX 13 13 1 0
BITMAP
07D8
1C78
3818
3808
7000
FFC0
7000
FF80
7000
3800
3818
1E70
07C0
ENDCHAR
STARTCHAR perthousand
ENCODING 137
SWIDTH 1000 0
DWIDTH 20 0
BBX 19 13 0 0
BITMAP
383000
6FE000
C4C000
C48000
E98000
730000
060000
0CE1C0
0DB360
1B1620
331620
63A740
61C380
ENDCHAR
STARTCHAR afii10058
ENCODING 138
SWIDTH 1013 0
DWIDTH 19 0
BBX 19 13 0 0
BITMAP
3FF800
087000
087000
087000
087000
087000
087F00
0871C0
1070E0
1070E0
D070E0
D071C0
60FF00
ENDCHAR
STARTCHAR guilsinglleft
ENCODING 139
SWIDTH 333 0
DWIDTH 7 0
BBX 5 7 1 1
BITMAP
18
30
60
C0
60
30
18
ENDCHAR
STARTCHAR afii10059
ENCODING 140
SWIDTH 1013 0
DWIDTH 19 0
BBX 18 13 1 0
BITMAP
F9F000
70E000
70E000
70E000
70E000
70E000
7FFE00
70E380
70E1C0
70E1C0
70E1C0
70E380
F9FE00
ENDCHAR
STARTCHAR afii10061
ENCODING 141
SWIDTH 800 0
DWIDTH 15 0
BBX 13 17 2 0
BITMAP
00C0
0180
0200
0000
F9F0
70C0
7180
7300
7600
7C00
7C00
7E00
7700
7380
71C0
71E0
F8F8
ENDCHAR
STARTCHAR afii10060
ENCODING 142
SWIDTH 906 0
DWIDTH 17 0
BBX 16 13 0 0
BITMAP
FFE0
CE60
8E20
8E20
0E00
0EF8
0F1C
0E0E
0E0E
0E0E
0E0E
0E0E
1F1F
ENDCHAR
STARTCHAR afii10145
ENCODING 143
SWIDTH 800 0
DWIDTH 15 0
BBX 13 16 1 -3
BITMAP
F8F8
7070
7070
7070
7070
7070
7070
7070
7070
7070
7070
7070
FFF8
0700
0200
0200
ENDCHAR
STARTCHAR afii10099
ENCODING 144
SWIDTH 533 0
DWIDTH 10 0
BBX 9 17 0 -4
BITMAP
F000
7000
FC00
7000
7700
7F80
7380
7380
7380
7380
7380
7380
FB80
0380
0300
0700
1E00
ENDCHAR
STARTCHAR quoteleft
ENCODING 145
SWIDTH 333 0
DWIDTH 6 0
BBX 4 6 1 7
BITMAP
30
60
C0
E0
E0
E0
ENDCHAR
STARTCHAR quoteright
ENCODING 146
SWIDTH 333 0
DWIDTH 6 0
BBX 4 6 1 7
BITMAP
70
70
70
30
60
C0
ENDCHAR
STARTCHAR quotedblleft
ENCODING 147
SWIDTH 500 0
DWIDTH 9 0
BBX 8 6 1 7
BITMAP
33
66
CC
EE
EE
EE
ENDCHAR
STARTCHAR quotedblright
ENCODING 148
SWIDTH 500 0
DWIDTH 9 0
BBX 8 6 0 7
BITMAP
77
77
77
33
66
CC
ENDCHAR
STARTCHAR bullet
ENCODING 149
SWIDTH 350 0
DWIDTH 7 0
BBX 5 5 1 3
BITMAP
70
F8
F8
F8
70
ENDCHAR
STARTCHAR endash
ENCODING 150
SWIDTH 500 0
DWIDTH 9 0
BBX 9 2 0 4
BITMAP
FF80
FF80
ENDCHAR
STARTCHAR emdash
ENCODING 151
SWIDTH 1000 0
DWIDTH 19 0
BBX 19 2 0 4
BITMAP
FFFFE0
FFFFE0
ENDCHAR
STARTCHAR trademark
ENCODING 153
SWIDTH 1000 0
DWIDTH 19 0
BBX 17 7 1 6
BITMAP
FEC180
926300
106300
105500
105D00
104900
38C980
ENDCHAR
STARTCHAR afii10106
ENCODING 154
SWIDTH 800 0
DWIDTH 15 0
BBX 14 9 0 0
BITMAP
3FC0
1380
1380
1380
13F8
139C
D39C
D39C
67F8
ENDCHAR
STARTCHAR guilsinglright
ENCODING 155
SWIDTH 333 0
DWIDTH 7 0
BBX 5 7 1 1
BITMAP
C0
60
30
18
30
60
C0
ENDCHAR
STARTCHAR afii10107
ENCODING 156
SWIDTH 800 0
DWIDTH 15 0
BBX 14 9 0 0
BITMAP
F7C0
7380
7380
7380
7FF8
739C
739C
739C
FBF8
ENDCHAR
STARTCHAR afii10109
ENCODING 157
SWIDTH 533 0
DWIDTH 10 0
BBX 10 13 0 0
BITMAP
0300
0600
0800
0000
FB80
7300
7600
7C00
7C00
7E00
7700
7380
F7C0
ENDCHAR
STARTCHAR afii10108
ENCODING 158
SWIDTH 586 0
DWIDTH 11 0
BBX 10 13 0 0
BITMAP
F000
7000
FC00
7000
7700
7F80
7380
7380
7380
7380
7380
7380
FBC0
ENDCHAR
STARTCHAR afii10193
ENCODING 159
SWIDTH 586 0
DWIDTH 11 0
BBX 10 12 0 -3
BITMAP
F7C0
7380
7380
7380
7380
7380
7380
7380
FFC0
0E00
0400
0400
ENDCHAR
STARTCHAR space
ENCODING 160
SWIDTH 250 0
DWIDTH 4 0
BBX 0 0 0 0
BITMAP
ENDCHAR
STARTCHAR afii10062
ENCODING 161
SWIDTH 746 0
DWIDTH 14 0
BBX 14 17 0 0
BITMAP
0C60
0C60
07C0
0000
FC7C
7818
3830
1C20
1C60
0E40
0EC0
0780
0300
0300
3200
3600
1C00
ENDCHAR
STARTCHAR afii10110
ENCODING 162
SWIDTH 480 0
DWIDTH 9 0
BBX 10 17 -1 -4
BITMAP
3300
3300
1E00
0000
FBC0
7180
7900
3B00
3A00
1E00
1E00
0C00
0C00
0C00
C800
D800
F000
ENDCHAR
STARTCHAR afii10057
ENCODING 163
SWIDTH 500 0
DWIDTH 9 0
BBX 8 15 0 -2
BITMAP
1F
0E
0E
0E
0E
0E
0E
0E
0E
0E
0E
0E
EE
EC
78
ENDCHAR
STARTCHAR currency
ENCODING 164
SWIDTH 500 0
DWIDTH 9 0
BBX 8 8 0 2
BITMAP
DB
FF
66
C3
C3
66
FF
DB
ENDCHAR
STARTCHAR afii10050
ENCODING 165
SWIDTH 586 0
DWIDTH 11 0
BBX 10 16 1 0
BITMAP
0040
0040
00C0
FFC0
7000
7000
7000
7000
7000
7000
7000
7000
7000
7000
7000
F800
ENDCHAR
STARTCHAR brokenbar
ENCODING 166
SWIDTH 220 0
DWIDTH 4 0
BBX 2 17 1 -3
BITMAP
C0
C0
C0
C0
C0
C0
C0
00
00
00
C0
C0
C0
C0
C0
C0
C0
ENDCHAR
STARTCHAR section
ENCODING 167
SWIDTH 500 0
DWIDTH 9 0
BBX 7 16 1 -3
BITMAP
3C
66
46
60
30
78
DC
CE
E6
76
3C
1C
0C
C4
CC
78
ENDCHAR
STARTCHAR afii10023
ENCODING 168
SWIDTH 667 0
DWIDTH 12 0
BBX 10 16 1 0
BITMAP
3300
3300
0000
FFC0
70C0
7040
7000
7000
7100
7F00
7100
7000
7000
7040
70C0
FFC0
ENDCHAR
STARTCHAR copyright
ENCODING 169
SWIDTH 747 0
DWIDTH 15 0
BBX 13 13 1 0
BITMAP
0F80
38E0
6030
4FD0
DCD8
9848
9808
9808
DCD8
4F90
6030
38E0
0F80
ENDCHAR
STARTCHAR afii10053
ENCODING 170
SWIDTH 693 0
DWIDTH 13 0
BBX 12 13 1 0
BITMAP
0FB0
38F0
7030
7010
E000
E000
FF00
E000
E000
7000
7030
3CE0
0F80
ENDCHAR
STARTCHAR guillemotleft
ENCODING 171
SWIDTH 500 0
DWIDTH 11 0
BBX 9 7 1 1
BITMAP
1980
3300
6600
CC00
6600
3300
1980
ENDCHAR
STARTCHAR logicalnot
ENCODING 172
SWIDTH 570 0
DWIDTH 11 0
BBX 9 6 1 2
BITMAP
FF80
FF80
0180
0180
0180
0180
ENDCHAR
STARTCHAR hyphen
ENCODING 173
SWIDTH 333 0
DWIDTH 6 0
BBX 4 2 1 4
BITMAP
F0
F0
ENDCHAR
STARTCHAR registered
ENCODING 174
SWIDTH 747 0
DWIDTH 15 0
BBX 13 13 1 0
BITMAP
0F80
38E0
6030
5F90
CCD8
8CC8
8F88
8D88
CCD8
5EF0
6030
38E0
0F80
ENDCHAR
STARTCHAR afii10056
ENCODING 175
SWIDTH 389 0
DWIDTH 7 0
BBX 6 16 1 0
BITMAP
CC
CC
00
F8
70
70
70
70
70
70
70
70
70
70
70
F8
ENDCHAR
STARTCHAR degree
ENCODING 176
SWIDTH 400 0
DWIDTH 7 0
BBX 6 5 0 8
BITMAP
78
CC
CC
CC
78
ENDCHAR
STARTCHAR plusminus
ENCODING 177
SWIDTH 570 0
DWIDTH 11 0
BBX 8 11 1 0
BITMAP
18
18
18
FF
FF
18
18
18
00
FF
FF
ENDCHAR
STARTCHAR afii10055
ENCODING 178
SWIDTH 389 0
DWIDTH 7 0
BBX 5 13 1 0
BITMAP
F8
70
70
70
70
70
70
70
70
70
70
70
F8
ENDCHAR
STARTCHAR afii10103
ENCODING 179
SWIDTH 278 0
DWIDTH 5 0
BBX 5 13 -1 0
BITMAP
70
70
70
00
F0
70
70
70
70
70
70
70
F8
ENDCHAR
STARTCHAR afii10098
ENCODING 180
SWIDTH 426 0
DWIDTH 8 0
BBX 8 11 0 0
BITMAP
01
03
FF
70
70
70
70
70
70
70
F8
ENDCHAR
STARTCHAR mu
ENCODING 181
SWIDTH 556 0
DWIDTH 11 0
BBX 10 13 0 -4
BITMAP
F780
7380
7380
7380
7380
7380
7380
7F80
7DC0
6000
6000
7000
7000
ENDCHAR
STARTCHAR paragraph
ENCODING 182
SWIDTH 540 0
DWIDTH 10 0
BBX 9 17 0 -4
BITMAP
3F80
7F80
FB00
FB00
FB00
FB00
7B00
3B00
1B00
1B00
1B00
1B00
1B00
1B00
1B00
1B00
1B00
ENDCHAR
STARTCHAR periodcentered
ENCODING 183
SWIDTH 250 0
DWIDTH 5 0
BBX 3 3 1 4
BITMAP
E0
E0
E0
ENDCHAR
STARTCHAR afii10071
ENCODING 184
SWIDTH 426 0
DWIDTH 8 0
BBX 8 12 0 0
BITMAP
66
66
00
3C
66
E7
FF
E0
E0
E0
73
3E
ENDCHAR
STARTCHAR afii61352
ENCODING 185
SWIDTH 1013 0
DWIDTH 19 0
BBX 18 13 0 0
BITMAP
780C00
3C1C00
3C1000
3E1000
2F1000
271000
279380
23D6C0
21D6C0
21F6C0
20F380
E07000
C037C0
ENDCHAR
STARTCHAR afii10101
ENCODING 186
SWIDTH 426 0
DWIDTH 8 0
BBX 7 9 0 0
BITMAP
3E
76
E6
E0
F8
E0
E0
76
3C
ENDCHAR
STARTCHAR guillemotright
ENCODING 187
SWIDTH 500 0
DWIDTH 11 0
BBX 9 7 1 1
BITMAP
CC00
6600
3300
1980
3300
6600
CC00
ENDCHAR
STARTCHAR afii10105
ENCODING 188
SWIDTH 333 0
DWIDTH 5 0
BBX 6 17 -2 -4
BITMAP
1C
1C
1C
00
3C
1C
1C
1C
1C
1C
1C
1C
1C
1C
DC
D8
70
ENDCHAR
STARTCHAR afii10054
ENCODING 189
SWIDTH 556 0
DWIDTH 11 0
BBX 9 13 1 0
BITMAP
3D00
7380
E180
E080
F000
7C00
3F00
0F80
0380
8180
C180
E300
BE00
ENDCHAR
STARTCHAR afii10102
ENCODING 190
SWIDTH 389 0
DWIDTH 7 0
BBX 6 9 0 0
BITMAP
7C
CC
E4
F0
78
3C
9C
CC
F8
ENDCHAR
STARTCHAR afii10104
ENCODING 191
SWIDTH 278 0
DWIDTH 5 0
BBX 6 12 0 0
BITMAP
CC
CC
00
F0
70
70
70
70
70
70
70
F8
ENDCHAR
STARTCHAR afii10017
ENCODING 192
SWIDTH 693 0
DWIDTH 13 0
BBX 15 13 -1 0
BITMAP
0300
0380
0780
05C0
0DC0
08C0
18E0
1060
1FF0
3070
2038
6038
F8FE
ENDCHAR
STARTCHAR afii10018
ENCODING 193
SWIDTH 640 0
DWIDTH 12 0
BBX 11 13 1 0
BITMAP
FFC0
70C0
7040
7000
7000
7000
7F00
71C0
70E0
70E0
70E0
71C0
FF00
ENDCHAR
STARTCHAR afii10019
ENCODING 194
SWIDTH 640 0
DWIDTH 12 0
BBX 11 13 1 0
BITMAP
FF00
7380
71C0
71C0
71C0
7380
7F00
71C0
70E0
70E0
70E0
71C0
FF00
ENDCHAR
STARTCHAR afii10020
ENCODING 195
SWIDTH 586 0
DWIDTH 11 0
BBX 10 13 1 0
BITMAP
FFC0
70C0
7040
7040
7000
7000
7000
7000
7000
7000
7000
7000
F800
ENDCHAR
STARTCHAR afii10021
ENCODING 196
SWIDTH 746 0
DWIDTH 14 0
BBX 12 16 1 -3
BITMAP
7FF0
10E0
10E0
10E0
10E0
10E0
10E0
10E0
20E0
20E0
20E0
40E0
FFF0
C030
8010
8010
ENDCHAR
STARTCHAR afii10022
ENCODING 197
SWIDTH 640 0
DWIDTH 12 0
BBX 10 13 1 0
BITMAP
FFC0
70C0
7040
7000
7000
7100
7F00
7100
7000
7000
7040
70C0
FFC0
ENDCHAR
STARTCHAR afii10024
ENCODING 198
SWIDTH 960 0
DWIDTH 18 0
BBX 19 13 0 0
BITMAP
7DF7C0
18E300
0CE600
04E400
06EC00
03F800
03F800
07FC00
0EEE00
0EEE00
1CE700
38E380
F9F3E0
ENDCHAR
STARTCHAR afii10025
ENCODING 199
SWIDTH 586 0
DWIDTH 11 0
BBX 11 13 0 0
BITMAP
DF00
F380
C1C0
81C0
01C0
0380
0F00
01C0
00E0
00E0
C0E0
71C0
1F00
ENDCHAR
STARTCHAR afii10026
ENCODING 200
SWIDTH 800 0
DWIDTH 15 0
BBX 13 13 1 0
BITMAP
F8F8
7070
7070
70F0
7170
7170
7270
7470
7470
7870
7070
7070
F8F8
ENDCHAR
STARTCHAR afii10027
ENCODING 201
SWIDTH 800 0
DWIDTH 15 0
BBX 13 17 1 0
BITMAP
18C0
18C0
0F80
0000
F8F8
7070
7070
70F0
7170
7170
7270
7470
7470
7870
7070
7070
F8F8
ENDCHAR
STARTCHAR afii10028
ENCODING 202
SWIDTH 800 0
DWIDTH 15 0
BBX 13 13 2 0
BITMAP
F9F0
70C0
7180
7300
7600
7C00
7C00
7E00
7700
7380
71C0
71E0
F8F8
ENDCHAR
STARTCHAR afii10029
ENCODING 203
SWIDTH 746 0
DWIDTH 14 0
BBX 13 13 0 0
BITMAP
3FF8
0870
0870
0870
0870
0870
0870
0870
1070
1070
D070
D070
60F8
ENDCHAR
STARTCHAR afii10030
ENCODING 204
SWIDTH 906 0
DWIDTH 17 0
BBX 15 13 1 0
BITMAP
F01E
701C
783C
783C
7C5C
5C5C
5EDC
4E9C
4F9C
471C
471C
431C
E23E
ENDCHAR
STARTCHAR afii10031
ENCODING 205
SWIDTH 800 0
DWIDTH 15 0
BBX 13 13 1 0
BITMAP
F8F8
7070
7070
7070
7070
7070
7FF0
7070
7070
7070
7070
7070
F8F8
ENDCHAR
STARTCHAR afii10032
ENCODING 206
SWIDTH 800 0
DWIDTH 15 0
BBX 13 13 1 0
BITMAP
0F80
38E0
7070
6030
E038
E038
E038
E038
E038
6030
7070
38E0
0F80
ENDCHAR
STARTCHAR afii10033
ENCODING 207
SWIDTH 800 0
DWIDTH 15 0
BBX 13 13 1 0
BITMAP
FFF8
7070
7070
7070
7070
7070
7070
7070
7070
7070
7070
7070
F8F8
ENDCHAR
STARTCHAR afii10034
ENCODING 208
SWIDTH 586 0
DWIDTH 11 0
BBX 10 13 1 0
BITMAP
FF00
7380
71C0
71C0
71C0
7380
7F00
7000
7000
7000
7000
7000
F800
ENDCHAR
STARTCHAR afii10035
ENCODING 209
SWIDTH 693 0
DWIDTH 13 0
BBX 12 13 1 0
BITMAP
0FB0
38F0
7030
7010
E000
E000
E000
E000
E000
7000
7030
3CE0
0F80
ENDCHAR
STARTCHAR afii10036
ENCODING 210
SWIDTH 640 0
DWIDTH 12 0
BBX 11 13 0 0
BITMAP
FFE0
CE60
8E20
8E20
0E00
0E00
0E00
0E00
0E00
0E00
0E00
0E00
3F80
ENDCHAR
STARTCHAR afii10037
ENCODING 211
SWIDTH 746 0
DWIDTH 14 0
BBX 14 13 0 0
BITMAP
FC7C
7818
3830
3C20
1C60
0E40
0EC0
0780
0300
0300
3200
3600
1C00
ENDCHAR
STARTCHAR afii10038
ENCODING 212
SWIDTH 853 0
DWIDTH 16 0
BBX 15 13 1 0
BITMAP
07C0
0380
1FF0
739C
E38E
E38E
E38E
E38E
E38E
739C
1FF0
0380
07C0
ENDCHAR
STARTCHAR afii10039
ENCODING 213
SWIDTH 693 0
DWIDTH 13 0
BBX 14 13 0 0
BITMAP
F8F8
7070
3860
38C0
1D80
0F00
0700
0780
0FC0
19C0
30E0
70F0
F9FC
ENDCHAR
STARTCHAR afii10040
ENCODING 214
SWIDTH 800 0
DWIDTH 15 0
BBX 13 16 1 -3
BITMAP
F8F8
7070
7070
7070
7070
7070
7070
7070
7070
7070
7070
7070
FFF8
0018
0008
0008
ENDCHAR
STARTCHAR afii10041
ENCODING 215
SWIDTH 800 0
DWIDTH 15 0
BBX 13 13 1 0
BITMAP
F8F8
7070
7070
7070
7070
7070
38F0
1F70
0070
0070
0070
0070
00F8
ENDCHAR
STARTCHAR afii10042
ENCODING 216
SWIDTH 1013 0
DWIDTH 19 0
BBX 17 13 1 0
BITMAP
FBEF80
71C700
71C700
71C700
71C700
71C700
71C700
71C700
71C700
71C700
71C700
71C700
FFFF80
ENDCHAR
STARTCHAR afii10043
ENCODING 217
SWIDTH 1013 0
DWIDTH 19 0
BBX 17 16 1 -3
BITMAP
FBEF80
71C700
71C700
71C700
71C700
71C700
71C700
71C700
71C700
71C700
71C700
71C700
FFFF80
000180
000080
000080
ENDCHAR
STARTCHAR afii10044
ENCODING 218
SWIDTH 746 0
DWIDTH 14 0
BBX 14 13 0 0
BITMAP
FF00
CE00
8E00
8E00
0E00
0E00
0FE0
0E38
0E1C
0E1C
0E1C
0E38
1FE0
ENDCHAR
STARTCHAR afii10045
ENCODING 219
SWIDTH 1013 0
DWIDTH 19 0
BBX 17 13 1 0
BITMAP
F80F80
700700
700700
700700
700700
700700
7F0700
71C700
70E700
70E700
70E700
71C700
FF0F80
ENDCHAR
STARTCHAR afii10046
ENCODING 220
SWIDTH 640 0
DWIDTH 12 0
BBX 11 13 1 0
BITMAP
F800
7000
7000
7000
7000
7000
7F00
71C0
70E0
70E0
70E0
71C0
FF00
ENDCHAR
STARTCHAR afii10047
ENCODING 221
SWIDTH 746 0
DWIDTH 14 0
BBX 12 13 1 0
BITMAP
DF00
F1C0
C0E0
80E0
0070
0070
0FF0
0070
0070
00E0
C0E0
73C0
1F00
ENDCHAR
STARTCHAR afii10048
ENCODING 222
SWIDTH 1066 0
DWIDTH 20 0
BBX 19 13 0 0
BITMAP
F83E00
70E380
71C1C0
7180C0
7380E0
7380E0
7F80E0
7380E0
7380E0
7180C0
71C1C0
70E380
F83E00
ENDCHAR
STARTCHAR afii10049
ENCODING 223
SWIDTH 693 0
DWIDTH 13 0
BBX 12 13 0 0
BITMAP
0FF0
1CE0
38E0
38E0
38E0
1CE0
0FE0
0EE0
1CE0
38E0
38E0
70E0
F1F0
ENDCHAR
STARTCHAR afii10065
ENCODING 224
SWIDTH 480 0
DWIDTH 9 0
BBX 9 9 0 0
BITMAP
3E00
E700
E700
0F00
7700
E700
E700
FF00
3B80
ENDCHAR
STARTCHAR afii10066
ENCODING 225
SWIDTH 480 0
DWIDTH 9 0
BBX 8 13 0 0
BITMAP
01
1E
7C
60
DC
E6
E7
E7
E7
E7
E7
66
3C
ENDCHAR
STARTCHAR afii10067
ENCODING 226
SWIDTH 533 0
DWIDTH 10 0
BBX 9 9 0 0
BITMAP
FE00
7700
7300
7700
7F00
7380
7380
7380
FF00
ENDCHAR
STARTCHAR afii10068
ENCODING 227
SWIDTH 426 0
DWIDTH 8 0
BBX 8 9 0 0
BITMAP
FF
73
71
70
70
70
70
70
F8
ENDCHAR
STARTCHAR afii10069
ENCODING 228
SWIDTH 586 0
DWIDTH 11 0
BBX 10 12 0 -3
BITMAP
7FC0
1380
1380
1380
1380
2380
2380
4380
FFC0
C0C0
8040
8040
ENDCHAR
STARTCHAR afii10070
ENCODING 229
SWIDTH 426 0
DWIDTH 8 0
BBX 8 9 0 0
BITMAP
3C
66
E7
FF
E0
E0
E0
73
3E
ENDCHAR
STARTCHAR afii10072
ENCODING 230
SWIDTH 800 0
DWIDTH 15 0
BBX 15 9 0 0
BITMAP
77DC
3398
1BB0
0FE0
0FE0
1FF0
3BB8
739C
F7DE
ENDCHAR
STARTCHAR afii10073
ENCODING 231
SWIDTH 480 0
DWIDTH 9 0
BBX 8 9 0 0
BITMAP
FC
CE
86
0E
3E
07
07
C7
7E
ENDCHAR
STARTCHAR afii10074
ENCODING 232
SWIDTH 640 0
DWIDTH 12 0
BBX 11 9 0 0
BITMAP
FBE0
71C0
71C0
73C0
75C0
79C0
71C0
71C0
FBE0
ENDCHAR
STARTCHAR afii10075
ENCODING 233
SWIDTH 640 0
DWIDTH 12 0
BBX 11 13 0 0
BITMAP
1B00
1B00
0E00
0000
FBE0
71C0
71C0
73C0
75C0
79C0
71C0
71C0
FBE0
ENDCHAR
STARTCHAR afii10076
ENCODING 234
SWIDTH 533 0
DWIDTH 10 0
BBX 10 9 0 0
BITMAP
FB80
7300
7600
7C00
7C00
7E00
7700
7380
F7C0
ENDCHAR
STARTCHAR afii10077
ENCODING 235
SWIDTH 586 0
DWIDTH 11 0
BBX 10 9 0 0
BITMAP
3FC0
1380
1380
1380
1380
1380
D380
D380
67C0
ENDCHAR
STARTCHAR afii10078
ENCODING 236
SWIDTH 693 0
DWIDTH 13 0
BBX 12 9 0 0
BITMAP
F0F0
71E0
79E0
7BE0
7AE0
5EE0
5CE0
4CE0
E9F0
ENDCHAR
STARTCHAR afii10079
ENCODING 237
SWIDTH 586 0
DWIDTH 11 0
BBX 10 9 0 0
BITMAP
F7C0
7380
7380
7380
7F80
7380
7380
7380
FBC0
ENDCHAR
STARTCHAR afii10080
ENCODING 238
SWIDTH 480 0
DWIDTH 9 0
BBX 8 9 0 0
BITMAP
3C
66
E7
E7
E7
E7
E7
66
3C
ENDCHAR
STARTCHAR afii10081
ENCODING 239
SWIDTH 586 0
DWIDTH 11 0
BBX 10 9 0 0
BITMAP
FFC0
7380
7380
7380
7380
7380
7380
7380
FBC0
ENDCHAR
STARTCHAR afii10082
ENCODING 240
SWIDTH 533 0
DWIDTH 10 0
BBX 9 13 0 -4
BITMAP
E600
7F00
7380
7380
7380
7380
7380
7B00
7600
7000
7000
7000
F800
ENDCHAR
STARTCHAR afii10083
ENCODING 241
SWIDTH 426 0
DWIDTH 8 0
BBX 7 9 0 0
BITMAP
3E
76
E6
E0
E0
E0
E0
76
3C
ENDCHAR
STARTCHAR afii10084
ENCODING 242
SWIDTH 480 0
DWIDTH 9 0
BBX 9 9 0 0
BITMAP
FF80
DD80
9C80
1C00
1C00
1C00
1C00
1C00
3E00
ENDCHAR
STARTCHAR afii10085
ENCODING 243
SWIDTH 480 0
DWIDTH 9 0
BBX 10 13 -1 -4
BITMAP
FBC0
7180
7900
3B00
3A00
1E00
1E00
0C00
0C00
0C00
C800
D800
F000
ENDCHAR
STARTCHAR afii10086
ENCODING 244
SWIDTH 746 0
DWIDTH 14 0
BBX 13 17 0 -4
BITMAP
0F00
0700
0700
0700
3760
6FB0
E738
E738
E738
E738
E738
6FB0
3760
0700
0700
0700
0F80
ENDCHAR
STARTCHAR afii10087
ENCODING 245
SWIDTH 480 0
DWIDTH 9 0
BBX 9 9 0 0
BITMAP
F380
7300
7A00
3C00
1C00
1E00
3700
6780
E380
ENDCHAR
STARTCHAR afii10088
ENCODING 246
SWIDTH 586 0
DWIDTH 11 0
BBX 10 12 0 -3
BITMAP
F7C0
7380
7380
7380
7380
7380
7380
7380
FFC0
00C0
0040
0040
ENDCHAR
STARTCHAR afii10089
ENCODING 247
SWIDTH 586 0
DWIDTH 11 0
BBX 10 9 0 0
BITMAP
F7C0
7380
7380
7380
7780
3B80
0380
0380
07C0
ENDCHAR
STARTCHAR afii10090
ENCODING 248
SWIDTH 853 0
DWIDTH 16 0
BBX 15 9 0 0
BITMAP
F7BE
739C
739C
739C
739C
739C
739C
739C
FFFE
ENDCHAR
STARTCHAR afii10091
ENCODING 249
SWIDTH 853 0
DWIDTH 16 0
BBX 15 12 0 -3
BITMAP
F7BE
739C
739C
739C
739C
739C
739C
739C
FFFE
0006
0002
0002
ENDCHAR
STARTCHAR afii10092
ENCODING 250
SWIDTH 640 0
DWIDTH 12 0
BBX 11 9 0 0
BITMAP
FE00
DC00
9C00
9C00
1FC0
1CE0
1CE0
1CE0
3FC0
ENDCHAR
STARTCHAR afii10093
ENCODING 251
SWIDTH 853 0
DWIDTH 16 0
BBX 15 9 0 0
BITMAP
F83E
701C
701C
701C
7F1C
739C
739C
739C
FF3E
ENDCHAR
STARTCHAR afii10094
ENCODING 252
SWIDTH 533 0
DWIDTH 10 0
BBX 9 9 0 0
BITMAP
F800
7000
7000
7000
7F00
7380
7380
7380
FF00
ENDCHAR
STARTCHAR afii10095
ENCODING 253
SWIDTH 426 0
DWIDTH 8 0
BBX 7 9 0 0
BITMAP
F8
DC
8E
0E
3E
0E
0E
DC
78
ENDCHAR
STARTCHAR afii10096
ENCODING 254
SWIDTH 800 0
DWIDTH 15 0
BBX 14 9 0 0
BITMAP
F8F0
7198
739C
739C
7F9C
739C
739C
7198
F8F0
ENDCHAR
STARTCHAR afii10097
ENCODING 255
SWIDTH 586 0
DWIDTH 11 0
BBX 10 9 0 0
BITMAP
3FC0
7380
7380
7380
3F80
1B80
3B80
7380
F7C0
ENDCHAR
STARTCHAR Lslash
ENCODING -1
SWIDTH 667 0
DWIDTH 12 0
BBX 11 13 0 0
BITMAP
7C00
3800
3A00
3E00
3C00
3800
7800
F800
B800
3800
3820
3860
7FE0
ENDCHAR
STARTCHAR OE
ENCODING -1
SWIDTH 1000 0
DWIDTH 19 0
BBX 16 13 1 0
BITMAP
0FFF
39C3
71C1
71C0
E1C0
E1C4
E1FC
E1C4
E1C0
71C0
71C1
39C3
0FFF
ENDCHAR
STARTCHAR Scaron
ENCODING -1
SWIDTH 556 0
DWIDTH 11 0
BBX 9 17 1 0
BITMAP
2100
1E00
0C00
0000
3D00
7380
E180
E080
F000
7C00
3F00
0F80
0380
8180
C180
E300
BE00
ENDCHAR
STARTCHAR Ydieresis
ENCODING -1
SWIDTH 722 0
DWIDTH 13 0
BBX 13 16 0 0
BITMAP
0CC0
0CC0
0000
FC78
7830
3860
3C40
1EC0
0E80
0F80
0700
0700
0700
0700
0700
1FC0
ENDCHAR
STARTCHAR Zcaron
ENCODING -1
SWIDTH 667 0
DWIDTH 12 0
BBX 10 17 1 0
BITMAP
2100
1E00
0C00
0000
FFC0
C3C0
8380
0780
0F00
0E00
1E00
3C00
3800
7840
F040
E0C0
FFC0
ENDCHAR
STARTCHAR breve
ENCODING -1
SWIDTH 333 0
DWIDTH 6 0
BBX 5 3 0 10
BITMAP
88
F8
70
ENDCHAR
STARTCHAR caron
ENCODING -1
SWIDTH 333 0
DWIDTH 6 0
BBX 6 3 0 10
BITMAP
84
78
30
ENDCHAR
STARTCHAR circumflex
ENCODING -1
SWIDTH 333 0
DWIDTH 6 0
BBX 6 3 0 10
BITMAP
30
78
84
ENDCHAR
STARTCHAR dotaccent
ENCODING -1
SWIDTH 333 0
DWIDTH 6 0
BBX 2 2 2 10
BITMAP
C0
C0
ENDCHAR
STARTCHAR dotlessi
ENCODING -1
SWIDTH 278 0
DWIDTH 5 0
BBX 5 9 0 0
BITMAP
F0
70
70
70
70
70
70
70
F8
ENDCHAR
STARTCHAR fi
ENCODING -1
SWIDTH 556 0
DWIDTH 10 0
BBX 10 13 0 0
BITMAP
0F00
3F80
7380
7000
FF80
7380
7380
7380
7380
7380
7380
7380
FFC0
ENDCHAR
STARTCHAR fl
ENCODING -1
SWIDTH 556 0
DWIDTH 10 0
BBX 10 13 0 0
BITMAP
0F00
3F80
7380
7380
FF80
7380
7380
7380
7380
7380
7380
7380
FFC0
ENDCHAR
STARTCHAR florin
ENCODING -1
SWIDTH 500 0
DWIDTH 9 0
BBX 10 17 -1 -4
BITMAP
07C0
0EC0
1C00
1C00
1C00
7F80
1C00
1C00
1C00
1C00
1C00
1C00
1C00
1800
D800
D800
7000
ENDCHAR
STARTCHAR fraction
ENCODING -1
SWIDTH 167 0
DWIDTH 6 0
BBX 8 13 -1 0
BITMAP
03
03
06
06
0C
0C
18
18
30
30
60
60
C0
ENDCHAR
STARTCHAR hungarumlaut
ENCODING -1
SWIDTH 333 0
DWIDTH 6 0
BBX 9 3 -1 10
BITMAP
3B80
6600
8800
ENDCHAR
STARTCHAR lslash
ENCODING -1
SWIDTH 278 0
DWIDTH 6 0
BBX 7 13 -1 0
BITMAP
78
38
3A
3E
3C
38
38
78
F8
B8
38
38
7C
ENDCHAR
STARTCHAR oe
ENCODING -1
SWIDTH 722 0
DWIDTH 13 0
BBX 12 9 0 0
BITMAP
38E0
77B0
E730
E7F0
E700
E700
E700
77B0
39E0
ENDCHAR
STARTCHAR ogonek
ENCODING -1
SWIDTH 333 0
DWIDTH 6 0
BBX 4 4 2 -4
BITMAP
40
90
F0
60
ENDCHAR
STARTCHAR ring
ENCODING -1
SWIDTH 333 0
DWIDTH 6 0
BBX 4 4 1 10
BITMAP
60
90
90
60
ENDCHAR
STARTCHAR scaron
ENCODING -1
SWIDTH 389 0
DWIDTH 7 0
BBX 6 13 0 0
BITMAP
84
78
30
00
7C
CC
E4
F0
78
3C
9C
CC
F8
ENDCHAR
STARTCHAR tilde
ENCODING -1
SWIDTH 333 0
DWIDTH 6 0
BBX 6 2 0 10
BITMAP
74
B8
ENDCHAR
STARTCHAR zcaron
ENCODING -1
SWIDTH 444 0
DWIDTH 8 0
BBX 7 13 0 0
BITMAP
84
78
30
00
FE
CE
8E
1C
38
70
72
E6
FE
ENDCHAR
ENDFONT
