STARTFONT 2.1
FONT -Adobe-Times-Bold-R-Normal--10-100-75-75-P-57-windows-1251
SIZE 10 75 75
FONTBOUNDINGBOX 12 13 -1 -3
COMMENT $XConsortium: timB10.bdf,v 1.14 95/01/26 18:05:42 gildea Exp $
COMMENT 
COMMENT +
COMMENT  Copyright 1984-1989, 1994 Adobe Systems Incorporated.
COMMENT  Copyright 1988, 1994 Digital Equipment Corporation.
COMMENT
COMMENT  Adobe is a trademark of Adobe Systems Incorporated which may be
COMMENT  registered in certain jurisdictions.
COMMENT  Permission to use these trademarks is hereby granted only in
COMMENT  association with the images described in this file.
COMMENT
COMMENT  Permission to use, copy, modify, distribute and sell this software
COMMENT  and its documentation for any purpose and without fee is hereby
COMMENT  granted, provided that the above copyright notices appear in all
COMMENT  copies and that both those copyright notices and this permission
COMMENT  notice appear in supporting documentation, and that the names of
COMMENT  Adobe Systems and Digital Equipment Corporation not be used in
COMMENT  advertising or publicity pertaining to distribution of the software
COMMENT  without specific, written prior permission.  Adobe Systems and
COMMENT  Digital Equipment Corporation make no representations about the
COMMENT  suitability of this software for any purpose.  It is provided "as
COMMENT  is" without express or implied warranty.
COMMENT -
STARTPROPERTIES 32
FOUNDRY "Adobe"
FAMILY_NAME "Times"
WEIGHT_NAME "Bold"
SLANT "R"
SETWIDTH_NAME "Normal"
ADD_STYLE_NAME ""
PIXEL_SIZE 10
POINT_SIZE 100
RESOLUTION_X 75
RESOLUTION_Y 75
SPACING "P"
AVERAGE_WIDTH 57
CHARSET_REGISTRY "windows"
CHARSET_ENCODING "1251"
CAP_HEIGHT 7
X_HEIGHT 5
FONT_ASCENT 9
FONT_DESCENT 3
FACE_NAME "Times Bold"
COPYRIGHT "Copyright (c) 1984, 1987 Adobe Systems Incorporated. All Rights Reserved. Copyright (c) 1988, 1991 Digital Equipment Corporation. All Rights Reserved."
NOTICE "Times is a trademark of Linotype-Hell AG and/or its subsidiaries."
_DEC_DEVICE_FONTNAMES "PS=Times-Bold"
_DEC_PRODUCTINFO "DECwindows Fonts V2.2, 07-Nov-1991"
DEFAULT_CHAR 32
RELATIVE_SETWIDTH 50
RELATIVE_WEIGHT 70
CHARSET_COLLECTIONS "ASCII ISO8859-1 ADOBE-STANDARD"
FULL_NAME "Times Bold"
COPYRIGHT2 "Cyrillic and Euro glyphs copyright 2000 Dmitry Yu. Bolkhovityanov, bolkhov@inp.nsk.su"
SOURCEDATE "Wed Aug  9 11:30:18 2000"
PKGVERSION "1.1"
ASSEMBLER "cvtbdf.pl (Linux)"
ENDPROPERTIES
CHARS 244
STARTCHAR space
ENCODING 32
SWIDTH 192 0
DWIDTH 2 0
BBX 0 0 0 0
BITMAP
ENDCHAR
STARTCHAR exclam
ENCODING 33
SWIDTH 384 0
DWIDTH 4 0
BBX 2 7 1 0
BITMAP
C0
C0
C0
C0
00
C0
C0
ENDCHAR
STARTCHAR quotedbl
ENCODING 34
SWIDTH 480 0
DWIDTH 5 0
BBX 3 3 1 4
BITMAP
A0
A0
A0
ENDCHAR
STARTCHAR numbersign
ENCODING 35
SWIDTH 576 0
DWIDTH 6 0
BBX 5 7 0 0
BITMAP
50
50
F8
50
F8
50
50
ENDCHAR
STARTCHAR dollar
ENCODING 36
SWIDTH 480 0
DWIDTH 5 0
BBX 5 9 0 -1
BITMAP
20
70
A8
E0
70
38
A8
F0
20
ENDCHAR
STARTCHAR percent
ENCODING 37
SWIDTH 864 0
DWIDTH 9 0
BBX 7 7 0 0
BITMAP
76
DC
E8
10
2E
5A
9C
ENDCHAR
STARTCHAR ampersand
ENCODING 38
SWIDTH 864 0
DWIDTH 9 0
BBX 7 7 1 0
BITMAP
30
68
68
76
DC
CC
76
ENDCHAR
STARTCHAR quotesingle
ENCODING 39
SWIDTH 288 0
DWIDTH 3 0
BBX 1 3 0 4
BITMAP
80
80
80
ENDCHAR
STARTCHAR parenleft
ENCODING 40
SWIDTH 384 0
DWIDTH 4 0
BBX 3 10 0 -3
BITMAP
20
60
40
C0
C0
C0
C0
40
60
20
ENDCHAR
STARTCHAR parenright
ENCODING 41
SWIDTH 384 0
DWIDTH 4 0
BBX 3 10 0 -3
BITMAP
80
C0
40
60
60
60
60
40
C0
80
ENDCHAR
STARTCHAR asterisk
ENCODING 42
SWIDTH 576 0
DWIDTH 6 0
BBX 5 5 0 2
BITMAP
20
F8
70
F8
20
ENDCHAR
STARTCHAR plus
ENCODING 43
SWIDTH 576 0
DWIDTH 6 0
BBX 5 5 0 0
BITMAP
20
20
F8
20
20
ENDCHAR
STARTCHAR comma
ENCODING 44
SWIDTH 384 0
DWIDTH 4 0
BBX 2 3 0 -1
BITMAP
C0
C0
40
ENDCHAR
STARTCHAR minus
ENCODING 45
SWIDTH 672 0
DWIDTH 7 0
BBX 4 1 1 2
BITMAP
F0
ENDCHAR
STARTCHAR period
ENCODING 46
SWIDTH 288 0
DWIDTH 3 0
BBX 2 2 0 0
BITMAP
C0
C0
ENDCHAR
STARTCHAR slash
ENCODING 47
SWIDTH 288 0
DWIDTH 3 0
BBX 3 7 0 0
BITMAP
20
20
60
40
C0
80
80
ENDCHAR
STARTCHAR zero
ENCODING 48
SWIDTH 480 0
DWIDTH 5 0
BBX 4 7 0 0
BITMAP
60
D0
D0
D0
D0
D0
60
ENDCHAR
STARTCHAR one
ENCODING 49
SWIDTH 480 0
DWIDTH 5 0
BBX 4 7 0 0
BITMAP
60
E0
60
60
60
60
F0
ENDCHAR
STARTCHAR two
ENCODING 50
SWIDTH 480 0
DWIDTH 5 0
BBX 4 7 0 0
BITMAP
60
F0
30
20
40
F0
F0
ENDCHAR
STARTCHAR three
ENCODING 51
SWIDTH 480 0
DWIDTH 5 0
BBX 4 7 0 0
BITMAP
60
B0
30
60
30
B0
E0
ENDCHAR
STARTCHAR four
ENCODING 52
SWIDTH 480 0
DWIDTH 5 0
BBX 5 7 0 0
BITMAP
10
30
50
90
F8
30
30
ENDCHAR
STARTCHAR five
ENCODING 53
SWIDTH 480 0
DWIDTH 5 0
BBX 4 7 0 0
BITMAP
E0
E0
80
E0
30
B0
E0
ENDCHAR
STARTCHAR six
ENCODING 54
SWIDTH 480 0
DWIDTH 5 0
BBX 4 7 0 0
BITMAP
30
60
C0
F0
D0
D0
60
ENDCHAR
STARTCHAR seven
ENCODING 55
SWIDTH 480 0
DWIDTH 5 0
BBX 5 7 0 0
BITMAP
78
F0
90
30
20
60
60
ENDCHAR
STARTCHAR eight
ENCODING 56
SWIDTH 480 0
DWIDTH 5 0
BBX 4 7 0 0
BITMAP
60
D0
D0
60
B0
B0
60
ENDCHAR
STARTCHAR nine
ENCODING 57
SWIDTH 480 0
DWIDTH 5 0
BBX 4 7 0 0
BITMAP
60
B0
B0
B0
70
20
C0
ENDCHAR
STARTCHAR colon
ENCODING 58
SWIDTH 384 0
DWIDTH 4 0
BBX 2 5 1 0
BITMAP
C0
C0
00
C0
C0
ENDCHAR
STARTCHAR semicolon
ENCODING 59
SWIDTH 384 0
DWIDTH 4 0
BBX 2 6 1 -1
BITMAP
C0
C0
00
C0
C0
40
ENDCHAR
STARTCHAR less
ENCODING 60
SWIDTH 576 0
DWIDTH 6 0
BBX 5 5 0 0
BITMAP
18
70
C0
70
18
ENDCHAR
STARTCHAR equal
ENCODING 61
SWIDTH 576 0
DWIDTH 6 0
BBX 5 3 0 1
BITMAP
F8
00
F8
ENDCHAR
STARTCHAR greater
ENCODING 62
SWIDTH 576 0
DWIDTH 6 0
BBX 5 5 0 0
BITMAP
C0
70
18
70
C0
ENDCHAR
STARTCHAR question
ENCODING 63
SWIDTH 576 0
DWIDTH 6 0
BBX 4 7 1 0
BITMAP
60
B0
B0
20
00
60
60
ENDCHAR
STARTCHAR at
ENCODING 64
SWIDTH 1056 0
DWIDTH 11 0
BBX 11 9 0 -2
BITMAP
0F80
30C0
6D60
DA60
D260
D240
CD80
6000
3E00
ENDCHAR
STARTCHAR A
ENCODING 65
SWIDTH 672 0
DWIDTH 7 0
BBX 8 7 -1 0
BITMAP
10
18
38
2C
7C
4E
EF
ENDCHAR
STARTCHAR B
ENCODING 66
SWIDTH 672 0
DWIDTH 7 0
BBX 6 7 0 0
BITMAP
F8
6C
6C
78
6C
6C
F8
ENDCHAR
STARTCHAR C
ENCODING 67
SWIDTH 672 0
DWIDTH 7 0
BBX 6 7 0 0
BITMAP
7C
CC
C0
C0
C0
EC
78
ENDCHAR
STARTCHAR D
ENCODING 68
SWIDTH 768 0
DWIDTH 8 0
BBX 7 7 0 0
BITMAP
FC
66
66
66
66
66
FC
ENDCHAR
STARTCHAR E
ENCODING 69
SWIDTH 672 0
DWIDTH 7 0
BBX 6 7 0 0
BITMAP
FC
64
60
70
60
64
FC
ENDCHAR
STARTCHAR F
ENCODING 70
SWIDTH 672 0
DWIDTH 7 0
BBX 6 7 0 0
BITMAP
FC
64
68
78
68
60
F0
ENDCHAR
STARTCHAR G
ENCODING 71
SWIDTH 672 0
DWIDTH 7 0
BBX 6 7 0 0
BITMAP
7C
CC
C0
DC
CC
CC
78
ENDCHAR
STARTCHAR H
ENCODING 72
SWIDTH 864 0
DWIDTH 9 0
BBX 8 7 0 0
BITMAP
E7
66
66
7E
66
66
E7
ENDCHAR
STARTCHAR I
ENCODING 73
SWIDTH 480 0
DWIDTH 5 0
BBX 4 7 0 0
BITMAP
F0
60
60
60
60
60
F0
ENDCHAR
STARTCHAR J
ENCODING 74
SWIDTH 480 0
DWIDTH 5 0
BBX 4 8 0 -1
BITMAP
F0
60
60
60
60
60
60
C0
ENDCHAR
STARTCHAR K
ENCODING 75
SWIDTH 768 0
DWIDTH 8 0
BBX 8 7 0 0
BITMAP
EE
64
68
78
6C
6E
E7
ENDCHAR
STARTCHAR L
ENCODING 76
SWIDTH 672 0
DWIDTH 7 0
BBX 6 7 0 0
BITMAP
F0
60
60
60
64
6C
FC
ENDCHAR
STARTCHAR M
ENCODING 77
SWIDTH 960 0
DWIDTH 10 0
BBX 9 7 0 0
BITMAP
E380
7300
7700
5B00
5B00
4B00
E380
ENDCHAR
STARTCHAR N
ENCODING 78
SWIDTH 768 0
DWIDTH 8 0
BBX 7 7 0 0
BITMAP
EE
64
74
54
5C
4C
E4
ENDCHAR
STARTCHAR O
ENCODING 79
SWIDTH 672 0
DWIDTH 7 0
BBX 6 7 0 0
BITMAP
78
CC
CC
CC
CC
CC
78
ENDCHAR
STARTCHAR P
ENCODING 80
SWIDTH 576 0
DWIDTH 6 0
BBX 6 7 0 0
BITMAP
F8
6C
6C
78
60
60
F0
ENDCHAR
STARTCHAR Q
ENCODING 81
SWIDTH 672 0
DWIDTH 7 0
BBX 6 9 0 -2
BITMAP
78
CC
CC
CC
CC
CC
78
30
1C
ENDCHAR
STARTCHAR R
ENCODING 82
SWIDTH 672 0
DWIDTH 7 0
BBX 7 7 0 0
BITMAP
F8
6C
6C
78
68
6C
EE
ENDCHAR
STARTCHAR S
ENCODING 83
SWIDTH 576 0
DWIDTH 6 0
BBX 5 7 0 0
BITMAP
78
C8
E0
70
38
98
F0
ENDCHAR
STARTCHAR T
ENCODING 84
SWIDTH 672 0
DWIDTH 7 0
BBX 6 7 0 0
BITMAP
FC
B4
30
30
30
30
78
ENDCHAR
STARTCHAR U
ENCODING 85
SWIDTH 672 0
DWIDTH 7 0
BBX 7 7 0 0
BITMAP
F6
64
64
64
64
64
38
ENDCHAR
STARTCHAR V
ENCODING 86
SWIDTH 768 0
DWIDTH 8 0
BBX 8 7 0 0
BITMAP
F3
62
74
34
38
18
10
ENDCHAR
STARTCHAR W
ENCODING 87
SWIDTH 960 0
DWIDTH 10 0
BBX 10 7 0 0
BITMAP
EEC0
6C80
6D80
6D00
3700
3600
1200
ENDCHAR
STARTCHAR X
ENCODING 88
SWIDTH 672 0
DWIDTH 7 0
BBX 7 7 0 0
BITMAP
E6
64
38
38
2C
46
CE
ENDCHAR
STARTCHAR Y
ENCODING 89
SWIDTH 768 0
DWIDTH 8 0
BBX 8 7 0 0
BITMAP
F7
62
34
38
18
18
3C
ENDCHAR
STARTCHAR Z
ENCODING 90
SWIDTH 672 0
DWIDTH 7 0
BBX 6 7 0 0
BITMAP
FC
CC
98
30
64
CC
FC
ENDCHAR
STARTCHAR bracketleft
ENCODING 91
SWIDTH 384 0
DWIDTH 4 0
BBX 3 10 0 -3
BITMAP
E0
C0
C0
C0
C0
C0
C0
C0
C0
E0
ENDCHAR
STARTCHAR backslash
ENCODING 92
SWIDTH 288 0
DWIDTH 3 0
BBX 3 7 0 0
BITMAP
80
80
C0
40
60
20
20
ENDCHAR
STARTCHAR bracketright
ENCODING 93
SWIDTH 384 0
DWIDTH 4 0
BBX 3 10 0 -3
BITMAP
E0
60
60
60
60
60
60
60
60
E0
ENDCHAR
STARTCHAR asciicircum
ENCODING 94
SWIDTH 576 0
DWIDTH 6 0
BBX 5 4 0 3
BITMAP
20
70
D8
88
ENDCHAR
STARTCHAR underscore
ENCODING 95
SWIDTH 480 0
DWIDTH 5 0
BBX 5 1 0 -3
BITMAP
F8
ENDCHAR
STARTCHAR grave
ENCODING 96
SWIDTH 384 0
DWIDTH 4 0
BBX 2 2 1 6
BITMAP
80
40
ENDCHAR
STARTCHAR a
ENCODING 97
SWIDTH 480 0
DWIDTH 5 0
BBX 5 5 0 0
BITMAP
60
B0
70
90
F8
ENDCHAR
STARTCHAR b
ENCODING 98
SWIDTH 480 0
DWIDTH 5 0
BBX 4 7 0 0
BITMAP
C0
C0
E0
D0
D0
D0
E0
ENDCHAR
STARTCHAR c
ENCODING 99
SWIDTH 480 0
DWIDTH 5 0
BBX 4 5 0 0
BITMAP
70
D0
C0
D0
70
ENDCHAR
STARTCHAR d
ENCODING 100
SWIDTH 576 0
DWIDTH 6 0
BBX 6 7 0 0
BITMAP
38
18
78
D8
D8
D8
6C
ENDCHAR
STARTCHAR e
ENCODING 101
SWIDTH 480 0
DWIDTH 5 0
BBX 4 5 0 0
BITMAP
70
D0
F0
C0
70
ENDCHAR
STARTCHAR f
ENCODING 102
SWIDTH 288 0
DWIDTH 3 0
BBX 3 7 0 0
BITMAP
60
C0
E0
C0
C0
C0
E0
ENDCHAR
STARTCHAR g
ENCODING 103
SWIDTH 480 0
DWIDTH 5 0
BBX 5 8 0 -3
BITMAP
78
D0
D0
70
C0
F0
90
F0
ENDCHAR
STARTCHAR h
ENCODING 104
SWIDTH 480 0
DWIDTH 5 0
BBX 5 7 0 0
BITMAP
C0
C0
F0
D0
D0
D0
D8
ENDCHAR
STARTCHAR i
ENCODING 105
SWIDTH 288 0
DWIDTH 3 0
BBX 2 8 0 0
BITMAP
C0
C0
00
C0
C0
C0
C0
C0
ENDCHAR
STARTCHAR j
ENCODING 106
SWIDTH 384 0
DWIDTH 4 0
BBX 3 10 0 -2
BITMAP
60
60
00
60
60
60
60
60
60
C0
ENDCHAR
STARTCHAR k
ENCODING 107
SWIDTH 480 0
DWIDTH 5 0
BBX 5 7 0 0
BITMAP
C0
C0
D8
D0
E0
D0
D8
ENDCHAR
STARTCHAR l
ENCODING 108
SWIDTH 288 0
DWIDTH 3 0
BBX 2 7 0 0
BITMAP
C0
C0
C0
C0
C0
C0
C0
ENDCHAR
STARTCHAR m
ENCODING 109
SWIDTH 768 0
DWIDTH 8 0
BBX 8 5 0 0
BITMAP
AC
FE
D6
D6
D7
ENDCHAR
STARTCHAR n
ENCODING 110
SWIDTH 576 0
DWIDTH 6 0
BBX 6 5 0 0
BITMAP
B0
D8
D8
D8
DC
ENDCHAR
STARTCHAR o
ENCODING 111
SWIDTH 576 0
DWIDTH 6 0
BBX 5 5 0 0
BITMAP
70
D8
D8
D8
70
ENDCHAR
STARTCHAR p
ENCODING 112
SWIDTH 480 0
DWIDTH 5 0
BBX 4 7 0 -2
BITMAP
E0
D0
D0
D0
E0
C0
E0
ENDCHAR
STARTCHAR q
ENCODING 113
SWIDTH 480 0
DWIDTH 5 0
BBX 5 7 0 -2
BITMAP
70
D0
D0
D0
70
30
38
ENDCHAR
STARTCHAR r
ENCODING 114
SWIDTH 384 0
DWIDTH 4 0
BBX 4 5 0 0
BITMAP
D0
F0
C0
C0
C0
ENDCHAR
STARTCHAR s
ENCODING 115
SWIDTH 384 0
DWIDTH 4 0
BBX 3 5 0 0
BITMAP
60
C0
E0
60
E0
ENDCHAR
STARTCHAR t
ENCODING 116
SWIDTH 384 0
DWIDTH 4 0
BBX 3 7 0 0
BITMAP
40
C0
E0
C0
C0
C0
60
ENDCHAR
STARTCHAR u
ENCODING 117
SWIDTH 480 0
DWIDTH 5 0
BBX 5 5 0 0
BITMAP
D8
D0
D0
D0
70
ENDCHAR
STARTCHAR v
ENCODING 118
SWIDTH 480 0
DWIDTH 5 0
BBX 5 5 0 0
BITMAP
D8
D0
70
60
20
ENDCHAR
STARTCHAR w
ENCODING 119
SWIDTH 576 0
DWIDTH 6 0
BBX 6 5 0 0
BITMAP
AC
A8
B8
F0
50
ENDCHAR
STARTCHAR x
ENCODING 120
SWIDTH 480 0
DWIDTH 5 0
BBX 4 5 0 0
BITMAP
D0
F0
60
F0
B0
ENDCHAR
STARTCHAR y
ENCODING 121
SWIDTH 480 0
DWIDTH 5 0
BBX 5 7 0 -2
BITMAP
D8
D8
70
70
20
A0
E0
ENDCHAR
STARTCHAR z
ENCODING 122
SWIDTH 480 0
DWIDTH 5 0
BBX 4 5 0 0
BITMAP
F0
B0
60
D0
F0
ENDCHAR
STARTCHAR braceleft
ENCODING 123
SWIDTH 384 0
DWIDTH 4 0
BBX 4 10 0 -3
BITMAP
30
60
60
40
C0
C0
40
60
60
30
ENDCHAR
STARTCHAR bar
ENCODING 124
SWIDTH 288 0
DWIDTH 3 0
BBX 1 9 1 -2
BITMAP
80
80
80
80
80
80
80
80
80
ENDCHAR
STARTCHAR braceright
ENCODING 125
SWIDTH 384 0
DWIDTH 4 0
BBX 4 10 -1 -3
BITMAP
C0
60
60
20
30
30
20
60
60
C0
ENDCHAR
STARTCHAR asciitilde
ENCODING 126
SWIDTH 576 0
DWIDTH 6 0
BBX 5 2 0 2
BITMAP
68
B0
ENDCHAR
STARTCHAR afii10051
ENCODING 128
SWIDTH 864 0
DWIDTH 9 0
BBX 8 9 0 -2
BITMAP
FC
B4
30
3E
33
33
73
03
06
ENDCHAR
STARTCHAR afii10052
ENCODING 129
SWIDTH 672 0
DWIDTH 7 0
BBX 6 10 0 0
BITMAP
08
10
00
FC
6C
64
60
60
60
F0
ENDCHAR
STARTCHAR quotesinglbase
ENCODING 130
SWIDTH 384 0
DWIDTH 4 0
BBX 2 3 1 -1
BITMAP
C0
C0
40
ENDCHAR
STARTCHAR afii10100
ENCODING 131
SWIDTH 384 0
DWIDTH 4 0
BBX 4 8 0 0
BITMAP
20
40
00
F0
D0
C0
C0
C0
ENDCHAR
STARTCHAR quotedblbase
ENCODING 132
SWIDTH 672 0
DWIDTH 7 0
BBX 5 3 1 -1
BITMAP
D8
D8
48
ENDCHAR
STARTCHAR ellipsis
ENCODING 133
SWIDTH 960 0
DWIDTH 10 0
BBX 8 2 1 0
BITMAP
DB
DB
ENDCHAR
STARTCHAR dagger
ENCODING 134
SWIDTH 480 0
DWIDTH 5 0
BBX 5 9 0 -2
BITMAP
20
20
F8
20
20
20
20
20
20
ENDCHAR
STARTCHAR daggerdbl
ENCODING 135
SWIDTH 480 0
DWIDTH 5 0
BBX 5 9 0 -2
BITMAP
20
20
F8
20
20
20
F8
20
20
ENDCHAR
STARTCHAR Euro
ENCODING 136
SWIDTH 768 0
DWIDTH 8 0
BBX 7 7 0 0
BITMAP
3E
62
F8
60
F8
62
3C
ENDCHAR
STARTCHAR perthousand
ENCODING 137
SWIDTH 1056 0
DWIDTH 11 0
BBX 11 7 0 0
BITMAP
7600
DC00
6800
1000
2CC0
5BA0
8CC0
ENDCHAR
STARTCHAR afii10058
ENCODING 138
SWIDTH 1056 0
DWIDTH 11 0
BBX 10 7 0 0
BITMAP
7F00
2600
2600
2780
26C0
A6C0
C780
ENDCHAR
STARTCHAR guilsinglleft
ENCODING 139
SWIDTH 384 0
DWIDTH 4 0
BBX 3 5 0 0
BITMAP
20
40
80
40
20
ENDCHAR
STARTCHAR afii10059
ENCODING 140
SWIDTH 1056 0
DWIDTH 11 0
BBX 10 7 0 0
BITMAP
E700
6600
6600
7F80
66C0
66C0
E780
ENDCHAR
STARTCHAR afii10061
ENCODING 141
SWIDTH 768 0
DWIDTH 8 0
BBX 8 10 0 0
BITMAP
08
10
00
EE
64
68
78
6C
6E
E7
ENDCHAR
STARTCHAR afii10060
ENCODING 142
SWIDTH 960 0
DWIDTH 10 0
BBX 9 7 0 0
BITMAP
FC00
B400
3000
3E00
3300
3300
7380
ENDCHAR
STARTCHAR afii10145
ENCODING 143
SWIDTH 864 0
DWIDTH 9 0
BBX 8 8 0 -1
BITMAP
E7
66
66
66
66
66
FF
08
ENDCHAR
STARTCHAR afii10099
ENCODING 144
SWIDTH 480 0
DWIDTH 5 0
BBX 4 9 0 -2
BITMAP
C0
E0
C0
F0
D0
D0
D0
10
20
ENDCHAR
STARTCHAR quoteleft
ENCODING 145
SWIDTH 384 0
DWIDTH 4 0
BBX 2 3 1 4
BITMAP
80
C0
C0
ENDCHAR
STARTCHAR quoteright
ENCODING 146
SWIDTH 384 0
DWIDTH 4 0
BBX 2 3 1 4
BITMAP
C0
C0
40
ENDCHAR
STARTCHAR quotedblleft
ENCODING 147
SWIDTH 672 0
DWIDTH 7 0
BBX 5 3 1 4
BITMAP
90
D8
D8
ENDCHAR
STARTCHAR quotedblright
ENCODING 148
SWIDTH 672 0
DWIDTH 7 0
BBX 5 3 0 4
BITMAP
D8
D8
48
ENDCHAR
STARTCHAR bullet
ENCODING 149
SWIDTH 384 0
DWIDTH 4 0
BBX 3 4 0 1
BITMAP
40
E0
E0
40
ENDCHAR
STARTCHAR endash
ENCODING 150
SWIDTH 480 0
DWIDTH 5 0
BBX 5 1 0 2
BITMAP
F8
ENDCHAR
STARTCHAR emdash
ENCODING 151
SWIDTH 960 0
DWIDTH 10 0
BBX 10 1 0 2
BITMAP
FFC0
ENDCHAR
STARTCHAR trademark
ENCODING 153
SWIDTH 1056 0
DWIDTH 11 0
BBX 9 4 0 3
BITMAP
E880
4D80
4A80
4A80
ENDCHAR
STARTCHAR afii10106
ENCODING 154
SWIDTH 864 0
DWIDTH 9 0
BBX 8 5 0 0
BITMAP
7C
58
5E
5B
9E
ENDCHAR
STARTCHAR guilsinglright
ENCODING 155
SWIDTH 384 0
DWIDTH 4 0
BBX 3 5 0 0
BITMAP
80
40
20
40
80
ENDCHAR
STARTCHAR afii10107
ENCODING 156
SWIDTH 864 0
DWIDTH 9 0
BBX 8 5 0 0
BITMAP
D8
D8
FE
DB
DE
ENDCHAR
STARTCHAR afii10109
ENCODING 157
SWIDTH 480 0
DWIDTH 5 0
BBX 5 8 0 0
BITMAP
10
20
00
D8
D0
E0
D0
D8
ENDCHAR
STARTCHAR afii10108
ENCODING 158
SWIDTH 480 0
DWIDTH 5 0
BBX 5 7 0 0
BITMAP
C0
E0
C0
F0
D0
D0
D8
ENDCHAR
STARTCHAR afii10193
ENCODING 159
SWIDTH 576 0
DWIDTH 6 0
BBX 5 6 0 -1
BITMAP
D8
D8
D8
D8
F8
20
ENDCHAR
STARTCHAR space
ENCODING 160
SWIDTH 192 0
DWIDTH 2 0
BBX 0 0 0 0
BITMAP
ENDCHAR
STARTCHAR afii10062
ENCODING 161
SWIDTH 768 0
DWIDTH 8 0
BBX 8 10 0 0
BITMAP
24
3C
00
F3
62
34
1C
08
58
30
ENDCHAR
STARTCHAR afii10110
ENCODING 162
SWIDTH 480 0
DWIDTH 5 0
BBX 5 9 0 -2
BITMAP
70
00
D8
D8
70
70
20
A0
E0
ENDCHAR
STARTCHAR afii10057
ENCODING 163
SWIDTH 480 0
DWIDTH 5 0
BBX 4 8 0 -1
BITMAP
F0
60
60
60
60
60
60
C0
ENDCHAR
STARTCHAR currency
ENCODING 164
SWIDTH 576 0
DWIDTH 6 0
BBX 5 5 0 1
BITMAP
88
70
50
70
88
ENDCHAR
STARTCHAR afii10050
ENCODING 165
SWIDTH 672 0
DWIDTH 7 0
BBX 6 9 0 0
BITMAP
04
0C
FC
60
60
60
60
60
F0
ENDCHAR
STARTCHAR brokenbar
ENCODING 166
SWIDTH 288 0
DWIDTH 3 0
BBX 1 9 1 -2
BITMAP
80
80
80
80
00
80
80
80
80
ENDCHAR
STARTCHAR section
ENCODING 167
SWIDTH 480 0
DWIDTH 5 0
BBX 4 9 0 -2
BITMAP
60
B0
C0
A0
D0
70
30
D0
60
ENDCHAR
STARTCHAR afii10023
ENCODING 168
SWIDTH 667 0
DWIDTH 7 0
BBX 6 10 0 0
BITMAP
28
28
00
FC
64
60
70
60
64
FC
ENDCHAR
STARTCHAR copyright
ENCODING 169
SWIDTH 864 0
DWIDTH 9 0
BBX 7 7 1 0
BITMAP
38
44
9A
A2
9A
44
38
ENDCHAR
STARTCHAR afii10053
ENCODING 170
SWIDTH 672 0
DWIDTH 7 0
BBX 6 7 0 0
BITMAP
7C
CC
C0
F0
C0
EC
78
ENDCHAR
STARTCHAR guillemotleft
ENCODING 171
SWIDTH 576 0
DWIDTH 6 0
BBX 5 5 0 0
BITMAP
28
50
A0
50
28
ENDCHAR
STARTCHAR logicalnot
ENCODING 172
SWIDTH 672 0
DWIDTH 7 0
BBX 5 3 1 2
BITMAP
F8
08
08
ENDCHAR
STARTCHAR hyphen
ENCODING 173
SWIDTH 288 0
DWIDTH 3 0
BBX 3 1 0 2
BITMAP
E0
ENDCHAR
STARTCHAR registered
ENCODING 174
SWIDTH 864 0
DWIDTH 9 0
BBX 7 7 1 0
BITMAP
38
44
BA
B2
AA
44
38
ENDCHAR
STARTCHAR afii10056
ENCODING 175
SWIDTH 389 0
DWIDTH 5 0
BBX 4 10 0 0
BITMAP
A0
A0
00
F0
60
60
60
60
60
F0
ENDCHAR
STARTCHAR degree
ENCODING 176
SWIDTH 384 0
DWIDTH 4 0
BBX 3 3 0 4
BITMAP
60
A0
C0
ENDCHAR
STARTCHAR plusminus
ENCODING 177
SWIDTH 576 0
DWIDTH 6 0
BBX 5 7 0 0
BITMAP
20
20
F8
20
20
00
F8
ENDCHAR
STARTCHAR afii10055
ENCODING 178
SWIDTH 480 0
DWIDTH 5 0
BBX 4 7 0 0
BITMAP
F0
60
60
60
60
60
F0
ENDCHAR
STARTCHAR afii10103
ENCODING 179
SWIDTH 288 0
DWIDTH 3 0
BBX 2 8 0 0
BITMAP
C0
C0
00
C0
C0
C0
C0
C0
ENDCHAR
STARTCHAR afii10098
ENCODING 180
SWIDTH 384 0
DWIDTH 4 0
BBX 4 6 0 0
BITMAP
10
F0
C0
C0
C0
C0
ENDCHAR
STARTCHAR mu
ENCODING 181
SWIDTH 480 0
DWIDTH 5 0
BBX 5 8 0 -3
BITMAP
D8
D0
D0
D0
F0
80
C0
C0
ENDCHAR
STARTCHAR paragraph
ENCODING 182
SWIDTH 576 0
DWIDTH 6 0
BBX 6 10 0 -3
BITMAP
7C
E8
E8
E8
68
28
28
28
28
28
ENDCHAR
STARTCHAR periodcentered
ENCODING 183
SWIDTH 288 0
DWIDTH 3 0
BBX 1 2 1 2
BITMAP
80
80
ENDCHAR
STARTCHAR afii10071
ENCODING 184
SWIDTH 444 0
DWIDTH 5 0
BBX 4 8 0 0
BITMAP
50
50
00
70
D0
F0
C0
70
ENDCHAR
STARTCHAR afii61352
ENCODING 185
SWIDTH 1056 0
DWIDTH 11 0
BBX 10 7 0 0
BITMAP
E600
6400
7480
5540
5C80
4C00
C5C0
ENDCHAR
STARTCHAR afii10101
ENCODING 186
SWIDTH 480 0
DWIDTH 5 0
BBX 4 5 0 0
BITMAP
70
C0
E0
C0
70
ENDCHAR
STARTCHAR guillemotright
ENCODING 187
SWIDTH 576 0
DWIDTH 6 0
BBX 5 5 0 0
BITMAP
A0
50
28
50
A0
ENDCHAR
STARTCHAR afii10105
ENCODING 188
SWIDTH 384 0
DWIDTH 4 0
BBX 3 10 0 -2
BITMAP
60
60
00
60
60
60
60
60
60
C0
ENDCHAR
STARTCHAR afii10054
ENCODING 189
SWIDTH 576 0
DWIDTH 6 0
BBX 5 7 0 0
BITMAP
78
C8
E0
70
38
98
F0
ENDCHAR
STARTCHAR afii10102
ENCODING 190
SWIDTH 384 0
DWIDTH 4 0
BBX 3 5 0 0
BITMAP
60
C0
E0
60
E0
ENDCHAR
STARTCHAR afii10104
ENCODING 191
SWIDTH 278 0
DWIDTH 3 0
BBX 3 8 -1 0
BITMAP
A0
A0
00
60
60
60
60
60
ENDCHAR
STARTCHAR afii10017
ENCODING 192
SWIDTH 672 0
DWIDTH 7 0
BBX 8 7 -1 0
BITMAP
10
18
38
2C
7C
4E
EF
ENDCHAR
STARTCHAR afii10018
ENCODING 193
SWIDTH 672 0
DWIDTH 7 0
BBX 6 7 0 0
BITMAP
FC
64
60
78
6C
6C
F8
ENDCHAR
STARTCHAR afii10019
ENCODING 194
SWIDTH 672 0
DWIDTH 7 0
BBX 6 7 0 0
BITMAP
F8
6C
6C
78
6C
6C
F8
ENDCHAR
STARTCHAR afii10020
ENCODING 195
SWIDTH 672 0
DWIDTH 7 0
BBX 6 7 0 0
BITMAP
FC
6C
64
60
60
60
F0
ENDCHAR
STARTCHAR afii10021
ENCODING 196
SWIDTH 864 0
DWIDTH 9 0
BBX 8 8 0 -1
BITMAP
7F
26
26
26
26
46
FF
81
ENDCHAR
STARTCHAR afii10022
ENCODING 197
SWIDTH 672 0
DWIDTH 7 0
BBX 6 7 0 0
BITMAP
FC
64
60
70
60
64
FC
ENDCHAR
STARTCHAR afii10024
ENCODING 198
SWIDTH 960 0
DWIDTH 10 0
BBX 10 7 0 0
BITMAP
CCC0
4C80
2D00
1E00
3F00
6D80
EDC0
ENDCHAR
STARTCHAR afii10025
ENCODING 199
SWIDTH 672 0
DWIDTH 7 0
BBX 6 7 0 0
BITMAP
F8
CC
0C
38
0C
CC
78
ENDCHAR
STARTCHAR afii10026
ENCODING 200
SWIDTH 864 0
DWIDTH 9 0
BBX 8 7 0 0
BITMAP
E7
66
6E
6E
76
66
E7
ENDCHAR
STARTCHAR afii10027
ENCODING 201
SWIDTH 864 0
DWIDTH 9 0
BBX 8 10 0 0
BITMAP
24
3C
00
E7
66
6E
6E
76
66
E7
ENDCHAR
STARTCHAR afii10028
ENCODING 202
SWIDTH 768 0
DWIDTH 8 0
BBX 8 7 0 0
BITMAP
EE
64
68
78
6C
6E
E7
ENDCHAR
STARTCHAR afii10029
ENCODING 203
SWIDTH 864 0
DWIDTH 9 0
BBX 8 7 0 0
BITMAP
7F
26
26
26
26
A6
C7
ENDCHAR
STARTCHAR afii10030
ENCODING 204
SWIDTH 960 0
DWIDTH 10 0
BBX 9 7 0 0
BITMAP
E380
7300
7700
5B00
5B00
4B00
E380
ENDCHAR
STARTCHAR afii10031
ENCODING 205
SWIDTH 864 0
DWIDTH 9 0
BBX 8 7 0 0
BITMAP
E7
66
66
7E
66
66
E7
ENDCHAR
STARTCHAR afii10032
ENCODING 206
SWIDTH 672 0
DWIDTH 7 0
BBX 6 7 0 0
BITMAP
78
CC
CC
CC
CC
CC
78
ENDCHAR
STARTCHAR afii10033
ENCODING 207
SWIDTH 864 0
DWIDTH 9 0
BBX 8 7 0 0
BITMAP
FF
66
66
66
66
66
E7
ENDCHAR
STARTCHAR afii10034
ENCODING 208
SWIDTH 576 0
DWIDTH 6 0
BBX 6 7 0 0
BITMAP
F8
6C
6C
78
60
60
F0
ENDCHAR
STARTCHAR afii10035
ENCODING 209
SWIDTH 672 0
DWIDTH 7 0
BBX 6 7 0 0
BITMAP
7C
CC
C0
C0
C0
EC
78
ENDCHAR
STARTCHAR afii10036
ENCODING 210
SWIDTH 672 0
DWIDTH 7 0
BBX 6 7 0 0
BITMAP
FC
B4
30
30
30
30
78
ENDCHAR
STARTCHAR afii10037
ENCODING 211
SWIDTH 768 0
DWIDTH 8 0
BBX 8 7 0 0
BITMAP
F3
62
34
1C
08
58
30
ENDCHAR
STARTCHAR afii10038
ENCODING 212
SWIDTH 768 0
DWIDTH 8 0
BBX 7 7 0 0
BITMAP
10
7C
D6
D6
D6
7C
10
ENDCHAR
STARTCHAR afii10039
ENCODING 213
SWIDTH 672 0
DWIDTH 7 0
BBX 7 7 0 0
BITMAP
E6
64
38
38
2C
46
CE
ENDCHAR
STARTCHAR afii10040
ENCODING 214
SWIDTH 864 0
DWIDTH 9 0
BBX 8 8 0 -1
BITMAP
E7
66
66
66
66
66
FF
01
ENDCHAR
STARTCHAR afii10041
ENCODING 215
SWIDTH 864 0
DWIDTH 9 0
BBX 8 7 0 0
BITMAP
E7
66
66
3E
06
06
0F
ENDCHAR
STARTCHAR afii10042
ENCODING 216
SWIDTH 960 0
DWIDTH 10 0
BBX 9 7 0 0
BITMAP
EB80
6B00
6B00
6B00
6B00
6B00
FF80
ENDCHAR
STARTCHAR afii10043
ENCODING 217
SWIDTH 960 0
DWIDTH 10 0
BBX 9 8 0 -1
BITMAP
EB80
6B00
6B00
6B00
6B00
6B00
FF80
0080
ENDCHAR
STARTCHAR afii10044
ENCODING 218
SWIDTH 768 0
DWIDTH 8 0
BBX 7 7 0 0
BITMAP
F8
B0
30
3C
36
36
7C
ENDCHAR
STARTCHAR afii10045
ENCODING 219
SWIDTH 1056 0
DWIDTH 11 0
BBX 10 7 0 0
BITMAP
F3C0
6180
6180
7980
6D80
6D80
FBC0
ENDCHAR
STARTCHAR afii10046
ENCODING 220
SWIDTH 672 0
DWIDTH 7 0
BBX 6 7 0 0
BITMAP
F0
60
60
78
6C
6C
F8
ENDCHAR
STARTCHAR afii10047
ENCODING 221
SWIDTH 672 0
DWIDTH 7 0
BBX 6 7 0 0
BITMAP
F8
CC
0C
3C
0C
DC
78
ENDCHAR
STARTCHAR afii10048
ENCODING 222
SWIDTH 960 0
DWIDTH 10 0
BBX 9 7 0 0
BITMAP
F700
6D80
6D80
7D80
6D80
6D80
F700
ENDCHAR
STARTCHAR afii10049
ENCODING 223
SWIDTH 768 0
DWIDTH 8 0
BBX 7 7 0 0
BITMAP
3E
6C
6C
3C
2C
6C
EE
ENDCHAR
STARTCHAR afii10065
ENCODING 224
SWIDTH 480 0
DWIDTH 5 0
BBX 5 5 0 0
BITMAP
60
B0
70
90
F8
ENDCHAR
STARTCHAR afii10066
ENCODING 225
SWIDTH 576 0
DWIDTH 6 0
BBX 5 7 0 0
BITMAP
78
C0
F0
D8
D8
D8
70
ENDCHAR
STARTCHAR afii10067
ENCODING 226
SWIDTH 576 0
DWIDTH 6 0
BBX 5 5 0 0
BITMAP
F0
D8
F0
D8
F0
ENDCHAR
STARTCHAR afii10068
ENCODING 227
SWIDTH 384 0
DWIDTH 4 0
BBX 4 5 0 0
BITMAP
F0
D0
C0
C0
C0
ENDCHAR
STARTCHAR afii10069
ENCODING 228
SWIDTH 576 0
DWIDTH 6 0
BBX 6 6 0 -1
BITMAP
7C
58
58
58
FC
84
ENDCHAR
STARTCHAR afii10070
ENCODING 229
SWIDTH 480 0
DWIDTH 5 0
BBX 4 5 0 0
BITMAP
70
D0
F0
C0
70
ENDCHAR
STARTCHAR afii10072
ENCODING 230
SWIDTH 768 0
DWIDTH 8 0
BBX 8 5 0 0
BITMAP
DB
5A
3C
5A
DB
ENDCHAR
STARTCHAR afii10073
ENCODING 231
SWIDTH 576 0
DWIDTH 6 0
BBX 5 5 0 0
BITMAP
70
98
30
98
70
ENDCHAR
STARTCHAR afii10074
ENCODING 232
SWIDTH 672 0
DWIDTH 7 0
BBX 6 5 0 0
BITMAP
CC
CC
DC
EC
CC
ENDCHAR
STARTCHAR afii10075
ENCODING 233
SWIDTH 672 0
DWIDTH 7 0
BBX 6 7 0 0
BITMAP
30
00
CC
CC
DC
EC
CC
ENDCHAR
STARTCHAR afii10076
ENCODING 234
SWIDTH 480 0
DWIDTH 5 0
BBX 5 5 0 0
BITMAP
D8
D0
E0
D0
D8
ENDCHAR
STARTCHAR afii10077
ENCODING 235
SWIDTH 576 0
DWIDTH 6 0
BBX 6 5 0 0
BITMAP
7C
58
58
58
9C
ENDCHAR
STARTCHAR afii10078
ENCODING 236
SWIDTH 672 0
DWIDTH 7 0
BBX 8 5 -1 0
BITMAP
C7
6E
76
56
47
ENDCHAR
STARTCHAR afii10079
ENCODING 237
SWIDTH 576 0
DWIDTH 6 0
BBX 5 5 0 0
BITMAP
D8
D8
F8
D8
D8
ENDCHAR
STARTCHAR afii10080
ENCODING 238
SWIDTH 576 0
DWIDTH 6 0
BBX 5 5 0 0
BITMAP
70
D8
D8
D8
70
ENDCHAR
STARTCHAR afii10081
ENCODING 239
SWIDTH 576 0
DWIDTH 6 0
BBX 5 5 0 0
BITMAP
F8
D8
D8
D8
D8
ENDCHAR
STARTCHAR afii10082
ENCODING 240
SWIDTH 480 0
DWIDTH 5 0
BBX 4 7 0 -2
BITMAP
E0
D0
D0
D0
E0
C0
E0
ENDCHAR
STARTCHAR afii10083
ENCODING 241
SWIDTH 480 0
DWIDTH 5 0
BBX 4 5 0 0
BITMAP
70
D0
C0
D0
70
ENDCHAR
STARTCHAR afii10084
ENCODING 242
SWIDTH 384 0
DWIDTH 4 0
BBX 4 5 0 0
BITMAP
F0
60
60
60
60
ENDCHAR
STARTCHAR afii10085
ENCODING 243
SWIDTH 480 0
DWIDTH 5 0
BBX 5 7 0 -2
BITMAP
D8
D8
70
70
20
A0
E0
ENDCHAR
STARTCHAR afii10086
ENCODING 244
SWIDTH 672 0
DWIDTH 7 0
BBX 6 9 0 -2
BITMAP
30
30
78
B4
B4
B4
78
30
30
ENDCHAR
STARTCHAR afii10087
ENCODING 245
SWIDTH 480 0
DWIDTH 5 0
BBX 4 5 0 0
BITMAP
D0
F0
60
F0
B0
ENDCHAR
STARTCHAR afii10088
ENCODING 246
SWIDTH 576 0
DWIDTH 6 0
BBX 6 6 0 -1
BITMAP
DC
D8
D8
D8
FC
04
ENDCHAR
STARTCHAR afii10089
ENCODING 247
SWIDTH 576 0
DWIDTH 6 0
BBX 5 5 0 0
BITMAP
D8
D8
78
18
18
ENDCHAR
STARTCHAR afii10090
ENCODING 248
SWIDTH 768 0
DWIDTH 8 0
BBX 8 5 0 0
BITMAP
D7
D6
D6
D6
FE
ENDCHAR
STARTCHAR afii10091
ENCODING 249
SWIDTH 768 0
DWIDTH 8 0
BBX 8 6 0 -1
BITMAP
D7
D6
D6
D6
FF
01
ENDCHAR
STARTCHAR afii10092
ENCODING 250
SWIDTH 672 0
DWIDTH 7 0
BBX 6 5 0 0
BITMAP
E0
60
78
6C
78
ENDCHAR
STARTCHAR afii10093
ENCODING 251
SWIDTH 768 0
DWIDTH 8 0
BBX 7 5 0 0
BITMAP
C6
C6
F6
DA
F6
ENDCHAR
STARTCHAR afii10094
ENCODING 252
SWIDTH 576 0
DWIDTH 6 0
BBX 5 5 0 0
BITMAP
C0
C0
F0
D8
F0
ENDCHAR
STARTCHAR afii10095
ENCODING 253
SWIDTH 480 0
DWIDTH 5 0
BBX 4 5 0 0
BITMAP
E0
30
70
30
E0
ENDCHAR
STARTCHAR afii10096
ENCODING 254
SWIDTH 768 0
DWIDTH 8 0
BBX 7 5 0 0
BITMAP
9C
B6
F6
B6
DC
ENDCHAR
STARTCHAR afii10097
ENCODING 255
SWIDTH 576 0
DWIDTH 6 0
BBX 6 5 0 0
BITMAP
78
D8
78
58
9C
ENDCHAR
STARTCHAR Lslash
ENCODING -1
SWIDTH 672 0
DWIDTH 7 0
BBX 6 7 0 0
BITMAP
F0
60
70
60
E4
6C
FC
ENDCHAR
STARTCHAR OE
ENCODING -1
SWIDTH 864 0
DWIDTH 9 0
BBX 8 7 0 0
BITMAP
7F
D9
D8
DE
D8
D9
7F
ENDCHAR
STARTCHAR Scaron
ENCODING -1
SWIDTH 576 0
DWIDTH 6 0
BBX 5 10 0 0
BITMAP
50
20
00
78
C8
E0
70
38
98
F0
ENDCHAR
STARTCHAR Ydieresis
ENCODING -1
SWIDTH 768 0
DWIDTH 8 0
BBX 8 10 0 0
BITMAP
14
14
00
F7
62
34
38
18
18
3C
ENDCHAR
STARTCHAR Zcaron
ENCODING -1
SWIDTH 672 0
DWIDTH 7 0
BBX 6 10 0 0
BITMAP
28
10
00
FC
CC
98
30
64
CC
FC
ENDCHAR
STARTCHAR breve
ENCODING -1
SWIDTH 384 0
DWIDTH 4 0
BBX 3 2 0 6
BITMAP
A0
E0
ENDCHAR
STARTCHAR caron
ENCODING -1
SWIDTH 384 0
DWIDTH 4 0
BBX 3 2 0 6
BITMAP
A0
40
ENDCHAR
STARTCHAR circumflex
ENCODING -1
SWIDTH 480 0
DWIDTH 5 0
BBX 3 2 1 6
BITMAP
40
A0
ENDCHAR
STARTCHAR dotaccent
ENCODING -1
SWIDTH 384 0
DWIDTH 4 0
BBX 1 2 1 6
BITMAP
80
80
ENDCHAR
STARTCHAR dotlessi
ENCODING -1
SWIDTH 288 0
DWIDTH 3 0
BBX 2 5 0 0
BITMAP
C0
C0
C0
C0
C0
ENDCHAR
STARTCHAR fi
ENCODING -1
SWIDTH 576 0
DWIDTH 6 0
BBX 5 7 0 0
BITMAP
70
C0
F8
D8
D8
D8
F8
ENDCHAR
STARTCHAR fl
ENCODING -1
SWIDTH 576 0
DWIDTH 6 0
BBX 5 7 0 0
BITMAP
78
D8
F8
D8
D8
D8
F8
ENDCHAR
STARTCHAR florin
ENCODING -1
SWIDTH 480 0
DWIDTH 5 0
BBX 6 9 -1 -2
BITMAP
18
34
30
7C
30
30
30
B0
E0
ENDCHAR
STARTCHAR fraction
ENCODING -1
SWIDTH 384 0
DWIDTH 4 0
BBX 5 7 -1 0
BITMAP
08
10
10
20
40
40
80
ENDCHAR
STARTCHAR hungarumlaut
ENCODING -1
SWIDTH 384 0
DWIDTH 4 0
BBX 5 2 0 6
BITMAP
48
90
ENDCHAR
STARTCHAR lslash
ENCODING -1
SWIDTH 384 0
DWIDTH 4 0
BBX 4 7 0 0
BITMAP
E0
60
70
60
E0
60
60
ENDCHAR
STARTCHAR oe
ENCODING -1
SWIDTH 768 0
DWIDTH 8 0
BBX 7 5 0 0
BITMAP
7E
DA
DE
D8
7E
ENDCHAR
STARTCHAR ogonek
ENCODING -1
SWIDTH 288 0
DWIDTH 3 0
BBX 3 3 0 -3
BITMAP
40
80
60
ENDCHAR
STARTCHAR ring
ENCODING -1
SWIDTH 384 0
DWIDTH 4 0
BBX 3 3 0 5
BITMAP
40
A0
40
ENDCHAR
STARTCHAR scaron
ENCODING -1
SWIDTH 384 0
DWIDTH 4 0
BBX 3 8 0 0
BITMAP
A0
40
00
60
C0
E0
60
E0
ENDCHAR
STARTCHAR tilde
ENCODING -1
SWIDTH 480 0
DWIDTH 5 0
BBX 5 2 0 6
BITMAP
68
B0
ENDCHAR
STARTCHAR zcaron
ENCODING -1
SWIDTH 480 0
DWIDTH 5 0
BBX 4 8 0 0
BITMAP
A0
40
00
F0
B0
60
D0
F0
ENDCHAR
ENDFONT
