STARTFONT 2.1
FONT -Adobe-Times-Medium-I-Normal--18-180-75-75-P-94-windows-1251
SIZE 18 75 75
FONTBOUNDINGBOX 21 22 -2 -5
COMMENT $XConsortium: timI18.bdf,v 1.14 95/01/26 18:06:56 gildea Exp $
COMMENT 
COMMENT +
COMMENT  Copyright 1984-1989, 1994 Adobe Systems Incorporated.
COMMENT  Copyright 1988, 1994 Digital Equipment Corporation.
COMMENT
COMMENT  Adobe is a trademark of Adobe Systems Incorporated which may be
COMMENT  registered in certain jurisdictions.
COMMENT  Permission to use these trademarks is hereby granted only in
COMMENT  association with the images described in this file.
COMMENT
COMMENT  Permission to use, copy, modify, distribute and sell this software
COMMENT  and its documentation for any purpose and without fee is hereby
COMMENT  granted, provided that the above copyright notices appear in all
COMMENT  copies and that both those copyright notices and this permission
COMMENT  notice appear in supporting documentation, and that the names of
COMMENT  Adobe Systems and Digital Equipment Corporation not be used in
COMMENT  advertising or publicity pertaining to distribution of the software
COMMENT  without specific, written prior permission.  Adobe Systems and
COMMENT  Digital Equipment Corporation make no representations about the
COMMENT  suitability of this software for any purpose.  It is provided "as
COMMENT  is" without express or implied warranty.
COMMENT -
STARTPROPERTIES 32
FOUNDRY "Adobe"
FAMILY_NAME "Times"
WEIGHT_NAME "Medium"
SLANT "I"
SETWIDTH_NAME "Normal"
ADD_STYLE_NAME ""
PIXEL_SIZE 18
POINT_SIZE 180
RESOLUTION_X 75
RESOLUTION_Y 75
SPACING "P"
AVERAGE_WIDTH 94
CHARSET_REGISTRY "windows"
CHARSET_ENCODING "1251"
CAP_HEIGHT 13
X_HEIGHT 8
FONT_ASCENT 15
FONT_DESCENT 4
FACE_NAME "Times Italic"
COPYRIGHT "Copyright (c) 1984, 1987 Adobe Systems Incorporated. All Rights Reserved. Copyright (c) 1988, 1991 Digital Equipment Corporation. All Rights Reserved."
NOTICE "Times is a trademark of Linotype-Hell AG and/or its subsidiaries."
_DEC_DEVICE_FONTNAMES "PS=Times-Italic"
_DEC_PRODUCTINFO "DECwindows Fonts V2.2-1, 22-Nov-1991"
DEFAULT_CHAR 32
RELATIVE_SETWIDTH 50
RELATIVE_WEIGHT 50
CHARSET_COLLECTIONS "ASCII ISO8859-1 ADOBE-STANDARD"
FULL_NAME "Times Italic"
COPYRIGHT2 "Cyrillic and Euro glyphs copyright 2000 Dmitry Yu. Bolkhovityanov, bolkhov@inp.nsk.su"
SOURCEDATE "Wed Aug  9 11:55:38 2000"
PKGVERSION "1.1"
ASSEMBLER "cvtbdf.pl (Linux)"
ENDPROPERTIES
CHARS 244
STARTCHAR space
ENCODING 32
SWIDTH 250 0
DWIDTH 4 0
BBX 0 0 0 0
BITMAP
ENDCHAR
STARTCHAR exclam
ENCODING 33
SWIDTH 333 0
DWIDTH 6 0
BBX 5 13 1 0
BITMAP
18
18
18
30
30
30
20
60
40
40
00
C0
C0
ENDCHAR
STARTCHAR quotedbl
ENCODING 34
SWIDTH 420 0
DWIDTH 8 0
BBX 6 4 2 9
BITMAP
CC
CC
CC
88
ENDCHAR
STARTCHAR numbersign
ENCODING 35
SWIDTH 500 0
DWIDTH 9 0
BBX 10 13 0 0
BITMAP
0900
0900
0900
0900
7FC0
1200
1200
1200
FF80
2400
2400
2400
2400
ENDCHAR
STARTCHAR dollar
ENCODING 36
SWIDTH 500 0
DWIDTH 9 0
BBX 9 16 1 -2
BITMAP
0200
0200
1F00
3580
3480
3C00
1C00
0E00
0F00
0B00
1300
9300
D600
7C00
2000
2000
ENDCHAR
STARTCHAR percent
ENCODING 37
SWIDTH 833 0
DWIDTH 15 0
BBX 14 13 1 0
BITMAP
3830
77F0
E460
C4C0
C580
C900
7338
0674
04E4
0CC4
18C4
10C8
3070
ENDCHAR
STARTCHAR ampersand
ENCODING 38
SWIDTH 778 0
DWIDTH 14 0
BBX 12 13 1 0
BITMAP
0300
0780
0480
0500
0700
0C00
1CF0
3660
62C0
C300
C300
E7B0
7CE0
ENDCHAR
STARTCHAR quotesingle
ENCODING 39
SWIDTH 214 0
DWIDTH 4 0
BBX 2 4 3 9
BITMAP
C0
C0
C0
80
ENDCHAR
STARTCHAR parenleft
ENCODING 40
SWIDTH 333 0
DWIDTH 6 0
BBX 5 17 2 -4
BITMAP
08
10
30
20
60
60
C0
C0
C0
80
80
80
C0
C0
40
40
20
ENDCHAR
STARTCHAR parenright
ENCODING 41
SWIDTH 333 0
DWIDTH 6 0
BBX 5 17 0 -4
BITMAP
20
10
10
18
18
08
08
08
18
18
10
30
30
20
60
40
80
ENDCHAR
STARTCHAR asterisk
ENCODING 42
SWIDTH 500 0
DWIDTH 9 0
BBX 7 8 2 5
BITMAP
10
10
D6
7C
7C
D6
10
10
ENDCHAR
STARTCHAR plus
ENCODING 43
SWIDTH 675 0
DWIDTH 13 0
BBX 9 9 2 0
BITMAP
0800
0800
0800
0800
FF80
0800
0800
0800
0800
ENDCHAR
STARTCHAR comma
ENCODING 44
SWIDTH 250 0
DWIDTH 4 0
BBX 3 4 0 -2
BITMAP
60
60
60
C0
ENDCHAR
STARTCHAR minus
ENCODING 45
SWIDTH 675 0
DWIDTH 11 0
BBX 9 1 1 4
BITMAP
FF80
ENDCHAR
STARTCHAR period
ENCODING 46
SWIDTH 250 0
DWIDTH 4 0
BBX 2 2 1 0
BITMAP
C0
C0
ENDCHAR
STARTCHAR slash
ENCODING 47
SWIDTH 278 0
DWIDTH 5 0
BBX 5 13 1 0
BITMAP
08
08
18
10
10
30
20
60
60
40
C0
80
80
ENDCHAR
STARTCHAR zero
ENCODING 48
SWIDTH 500 0
DWIDTH 9 0
BBX 9 13 1 0
BITMAP
0E00
1B00
3180
2180
6180
6180
C180
C300
C300
C200
C600
6C00
3800
ENDCHAR
STARTCHAR one
ENCODING 49
SWIDTH 500 0
DWIDTH 9 0
BBX 6 13 2 0
BITMAP
3C
0C
0C
0C
18
18
18
18
30
30
30
30
FC
ENDCHAR
STARTCHAR two
ENCODING 50
SWIDTH 500 0
DWIDTH 9 0
BBX 8 13 1 0
BITMAP
1E
3F
47
03
03
06
04
0C
18
21
43
FE
FE
ENDCHAR
STARTCHAR three
ENCODING 51
SWIDTH 500 0
DWIDTH 9 0
BBX 9 13 0 0
BITMAP
0F00
1980
0180
0180
0300
1C00
0600
0300
0300
0300
0700
CE00
7800
ENDCHAR
STARTCHAR four
ENCODING 52
SWIDTH 500 0
DWIDTH 9 0
BBX 9 13 1 0
BITMAP
0180
0280
0580
0900
1100
2300
4200
8600
FF80
FF00
0400
0C00
0C00
ENDCHAR
STARTCHAR five
ENCODING 53
SWIDTH 500 0
DWIDTH 9 0
BBX 9 13 1 0
BITMAP
1F80
1F00
3000
3000
3C00
0E00
0300
0300
0300
0300
0600
CC00
F800
ENDCHAR
STARTCHAR six
ENCODING 54
SWIDTH 500 0
DWIDTH 9 0
BBX 10 13 1 0
BITMAP
01C0
0700
0C00
1800
3000
7E00
6300
C180
C180
C180
C300
6700
3C00
ENDCHAR
STARTCHAR seven
ENCODING 55
SWIDTH 500 0
DWIDTH 9 0
BBX 8 13 2 0
BITMAP
FF
FF
86
06
0C
0C
18
18
30
60
60
C0
C0
ENDCHAR
STARTCHAR eight
ENCODING 56
SWIDTH 500 0
DWIDTH 9 0
BBX 9 13 1 0
BITMAP
1F00
3180
3180
3180
1B00
0C00
3E00
6600
C300
C300
C300
C600
7C00
ENDCHAR
STARTCHAR nine
ENCODING 57
SWIDTH 500 0
DWIDTH 9 0
BBX 9 13 1 0
BITMAP
0E00
3B00
3180
6180
6180
6180
6180
7300
3F00
0600
0C00
3800
E000
ENDCHAR
STARTCHAR colon
ENCODING 58
SWIDTH 333 0
DWIDTH 6 0
BBX 3 8 2 0
BITMAP
60
60
00
00
00
00
C0
C0
ENDCHAR
STARTCHAR semicolon
ENCODING 59
SWIDTH 333 0
DWIDTH 6 0
BBX 4 10 1 -2
BITMAP
30
30
00
00
00
00
60
60
60
C0
ENDCHAR
STARTCHAR less
ENCODING 60
SWIDTH 675 0
DWIDTH 13 0
BBX 8 8 2 0
BITMAP
03
0E
38
E0
E0
38
0E
03
ENDCHAR
STARTCHAR equal
ENCODING 61
SWIDTH 675 0
DWIDTH 13 0
BBX 10 4 1 2
BITMAP
FFC0
0000
0000
FFC0
ENDCHAR
STARTCHAR greater
ENCODING 62
SWIDTH 675 0
DWIDTH 13 0
BBX 8 8 3 0
BITMAP
C0
70
1C
07
07
1C
70
C0
ENDCHAR
STARTCHAR question
ENCODING 63
SWIDTH 500 0
DWIDTH 9 0
BBX 6 13 2 0
BITMAP
38
6C
64
0C
0C
18
30
60
60
40
00
C0
C0
ENDCHAR
STARTCHAR at
ENCODING 64
SWIDTH 920 0
DWIDTH 17 0
BBX 15 15 1 -3
BITMAP
03F0
0E18
1804
3006
61B2
6362
C662
CC62
CCC6
CCC4
CDD8
E770
6000
3818
0FE0
ENDCHAR
STARTCHAR A
ENCODING 65
SWIDTH 611 0
DWIDTH 11 0
BBX 11 13 0 0
BITMAP
00C0
01C0
01C0
02C0
06C0
04C0
0CC0
08C0
1FC0
10C0
20C0
60C0
F1E0
ENDCHAR
STARTCHAR B
ENCODING 66
SWIDTH 611 0
DWIDTH 12 0
BBX 11 13 1 0
BITMAP
3F80
18E0
1860
1860
3060
31C0
3F00
3180
60C0
60C0
61C0
6380
FE00
ENDCHAR
STARTCHAR C
ENCODING 67
SWIDTH 667 0
DWIDTH 12 0
BBX 12 13 2 0
BITMAP
03D0
0C70
3820
3020
6000
E000
C000
C000
C000
C000
C040
6180
3E00
ENDCHAR
STARTCHAR D
ENCODING 68
SWIDTH 722 0
DWIDTH 14 0
BBX 13 13 1 0
BITMAP
3FC0
1870
1830
1818
3018
3018
3018
3030
6030
6060
60E0
6380
FE00
ENDCHAR
STARTCHAR E
ENCODING 69
SWIDTH 611 0
DWIDTH 11 0
BBX 10 13 1 0
BITMAP
3FC0
18C0
1840
1840
3100
3100
3E00
3200
6200
6040
6040
6180
FF80
ENDCHAR
STARTCHAR F
ENCODING 70
SWIDTH 611 0
DWIDTH 11 0
BBX 11 13 1 0
BITMAP
3FE0
1860
1820
1820
3080
3080
3F00
3100
6100
6000
6000
6000
F000
ENDCHAR
STARTCHAR G
ENCODING 71
SWIDTH 722 0
DWIDTH 14 0
BBX 12 13 2 0
BITMAP
03D0
0C70
3820
3020
6000
6000
E000
C1F0
C0C0
C0C0
4180
6180
3F00
ENDCHAR
STARTCHAR H
ENCODING 72
SWIDTH 722 0
DWIDTH 13 0
BBX 13 13 1 0
BITMAP
3C78
1830
1830
1830
3060
3060
3FE0
3060
60C0
60C0
60C0
60C0
F1E0
ENDCHAR
STARTCHAR I
ENCODING 73
SWIDTH 333 0
DWIDTH 6 0
BBX 6 13 1 0
BITMAP
3C
18
18
18
30
30
30
30
60
60
60
60
F0
ENDCHAR
STARTCHAR J
ENCODING 74
SWIDTH 444 0
DWIDTH 7 0
BBX 8 13 0 0
BITMAP
0F
06
06
06
0C
0C
0C
0C
18
18
D8
D8
70
ENDCHAR
STARTCHAR K
ENCODING 75
SWIDTH 667 0
DWIDTH 13 0
BBX 12 13 2 0
BITMAP
3CF0
1860
18C0
1980
3200
3400
3C00
3600
6300
6300
6180
61C0
F3E0
ENDCHAR
STARTCHAR L
ENCODING 76
SWIDTH 556 0
DWIDTH 10 0
BBX 10 13 1 0
BITMAP
3C00
1800
1800
1800
3000
3000
3000
3000
6000
6040
6040
6180
FF80
ENDCHAR
STARTCHAR M
ENCODING 77
SWIDTH 833 0
DWIDTH 16 0
BBX 16 13 1 0
BITMAP
3C07
1C0E
1C1E
1416
1424
266C
264C
26CC
268C
2718
4718
4618
E43C
ENDCHAR
STARTCHAR N
ENCODING 78
SWIDTH 667 0
DWIDTH 12 0
BBX 14 13 0 0
BITMAP
3C3C
0C08
1E08
1618
1710
1310
3330
31B0
21A0
21E0
60E0
60C0
F040
ENDCHAR
STARTCHAR O
ENCODING 79
SWIDTH 722 0
DWIDTH 14 0
BBX 12 13 2 0
BITMAP
03C0
0C60
3830
3030
7030
6030
E070
C060
C0E0
C0C0
41C0
6380
3E00
ENDCHAR
STARTCHAR P
ENCODING 80
SWIDTH 611 0
DWIDTH 11 0
BBX 11 13 1 0
BITMAP
3FC0
18E0
1860
1860
3060
30C0
3F00
3000
6000
6000
6000
6000
F000
ENDCHAR
STARTCHAR Q
ENCODING 81
SWIDTH 722 0
DWIDTH 14 0
BBX 13 17 1 -4
BITMAP
01E0
0630
1C18
1818
3818
3018
7038
6030
6070
6060
20E0
31C0
1F00
1800
3020
7FC0
E780
ENDCHAR
STARTCHAR R
ENCODING 82
SWIDTH 611 0
DWIDTH 12 0
BBX 11 13 1 0
BITMAP
3FC0
18E0
1860
1860
30E0
31C0
3F00
3600
6300
6380
6180
61C0
F0E0
ENDCHAR
STARTCHAR S
ENCODING 83
SWIDTH 500 0
DWIDTH 9 0
BBX 9 13 1 0
BITMAP
0F80
1980
3080
3080
3800
1C00
0E00
0F00
0700
8300
8300
C600
FC00
ENDCHAR
STARTCHAR T
ENCODING 84
SWIDTH 556 0
DWIDTH 10 0
BBX 11 13 1 0
BITMAP
7FE0
C660
8620
0600
0C00
0C00
0C00
0C00
1800
1800
1800
1800
3C00
ENDCHAR
STARTCHAR U
ENCODING 85
SWIDTH 722 0
DWIDTH 14 0
BBX 13 13 2 0
BITMAP
7C78
3030
3020
3020
6060
6040
6040
E0C0
C080
C180
C180
E300
7E00
ENDCHAR
STARTCHAR V
ENCODING 86
SWIDTH 611 0
DWIDTH 11 0
BBX 11 13 2 0
BITMAP
F1E0
60C0
6080
6100
6200
6200
6400
6400
6800
7000
7000
6000
4000
ENDCHAR
STARTCHAR W
ENCODING 87
SWIDTH 833 0
DWIDTH 15 0
BBX 15 13 2 0
BITMAP
F3CE
6184
638C
6388
6598
6590
65A0
69A0
69C0
71C0
6180
6180
4100
ENDCHAR
STARTCHAR X
ENCODING 88
SWIDTH 611 0
DWIDTH 11 0
BBX 14 13 -1 0
BITMAP
3F7C
0C30
0E60
0640
0780
0300
0300
0780
0580
08C0
10C0
30E0
FBF0
ENDCHAR
STARTCHAR Y
ENCODING 89
SWIDTH 556 0
DWIDTH 11 0
BBX 11 13 2 0
BITMAP
F9E0
60C0
7180
3300
3600
1C00
1800
1800
1800
3000
3000
3000
FC00
ENDCHAR
STARTCHAR Z
ENCODING 90
SWIDTH 556 0
DWIDTH 10 0
BBX 12 13 0 0
BITMAP
3FF0
60E0
40C0
0180
0380
0700
0E00
1C00
1C00
3800
7020
60E0
FFC0
ENDCHAR
STARTCHAR bracketleft
ENCODING 91
SWIDTH 389 0
DWIDTH 7 0
BBX 8 16 1 -3
BITMAP
0F
0C
18
18
18
18
30
30
30
30
60
60
60
60
C0
F0
ENDCHAR
STARTCHAR backslash
ENCODING 92
SWIDTH 278 0
DWIDTH 5 0
BBX 5 13 0 0
BITMAP
80
C0
40
40
60
20
20
30
10
10
18
18
08
ENDCHAR
STARTCHAR bracketright
ENCODING 93
SWIDTH 389 0
DWIDTH 7 0
BBX 8 16 -1 -3
BITMAP
0F
03
06
06
06
06
0C
0C
0C
0C
18
18
18
18
30
F0
ENDCHAR
STARTCHAR asciicircum
ENCODING 94
SWIDTH 422 0
DWIDTH 8 0
BBX 7 7 1 6
BITMAP
08
1C
34
26
46
C2
82
ENDCHAR
STARTCHAR underscore
ENCODING 95
SWIDTH 500 0
DWIDTH 9 0
BBX 10 1 -1 -5
BITMAP
FFC0
ENDCHAR
STARTCHAR grave
ENCODING 96
SWIDTH 333 0
DWIDTH 6 0
BBX 4 3 3 10
BITMAP
C0
60
10
ENDCHAR
STARTCHAR a
ENCODING 97
SWIDTH 500 0
DWIDTH 10 0
BBX 9 8 1 0
BITMAP
1E80
6700
4300
C300
C600
C600
EE80
3300
ENDCHAR
STARTCHAR b
ENCODING 98
SWIDTH 500 0
DWIDTH 9 0
BBX 9 13 0 0
BITMAP
3800
1800
1800
1000
3000
3700
3980
3180
3180
6180
6300
6200
BC00
ENDCHAR
STARTCHAR c
ENCODING 99
SWIDTH 444 0
DWIDTH 8 0
BBX 7 8 1 0
BITMAP
1E
72
40
C0
C0
C0
E4
78
ENDCHAR
STARTCHAR d
ENCODING 100
SWIDTH 500 0
DWIDTH 10 0
BBX 9 13 1 0
BITMAP
0380
0180
0180
0180
0100
1D00
6700
4300
C200
C600
C600
EE80
3300
ENDCHAR
STARTCHAR e
ENCODING 101
SWIDTH 444 0
DWIDTH 8 0
BBX 7 8 1 0
BITMAP
1C
66
46
CC
F0
C2
E4
78
ENDCHAR
STARTCHAR f
ENCODING 102
SWIDTH 278 0
DWIDTH 5 0
BBX 9 17 -1 -4
BITMAP
0700
0D80
0C00
1800
1800
7E00
1800
1800
1800
1000
3000
3000
3000
2000
2000
E000
C000
ENDCHAR
STARTCHAR g
ENCODING 103
SWIDTH 500 0
DWIDTH 8 0
BBX 10 12 -1 -4
BITMAP
0FC0
1300
3180
3180
3B00
1E00
1000
3F00
6380
C180
E300
7C00
ENDCHAR
STARTCHAR h
ENCODING 104
SWIDTH 500 0
DWIDTH 10 0
BBX 9 13 1 0
BITMAP
7000
3000
3000
2000
6000
6600
6F00
7300
6300
C600
C600
C680
C700
ENDCHAR
STARTCHAR i
ENCODING 105
SWIDTH 278 0
DWIDTH 5 0
BBX 4 13 1 0
BITMAP
30
30
00
00
00
E0
60
60
40
C0
C0
D0
E0
ENDCHAR
STARTCHAR j
ENCODING 106
SWIDTH 278 0
DWIDTH 5 0
BBX 7 16 -2 -3
BITMAP
06
06
00
00
00
1C
0C
0C
0C
0C
18
18
18
18
D0
E0
ENDCHAR
STARTCHAR k
ENCODING 107
SWIDTH 444 0
DWIDTH 8 0
BBX 8 13 1 0
BITMAP
70
30
30
20
60
67
66
68
70
F0
D8
DE
CC
ENDCHAR
STARTCHAR l
ENCODING 108
SWIDTH 278 0
DWIDTH 5 0
BBX 4 13 1 0
BITMAP
70
30
30
20
60
60
60
60
60
C0
C0
D0
E0
ENDCHAR
STARTCHAR m
ENCODING 109
SWIDTH 722 0
DWIDTH 15 0
BBX 14 8 1 0
BITMAP
E660
6EF8
7398
6318
C630
C630
C634
C638
ENDCHAR
STARTCHAR n
ENCODING 110
SWIDTH 500 0
DWIDTH 10 0
BBX 9 8 1 0
BITMAP
E600
6F00
7300
6300
C600
C600
C680
C700
ENDCHAR
STARTCHAR o
ENCODING 111
SWIDTH 500 0
DWIDTH 9 0
BBX 8 8 1 0
BITMAP
1E
67
43
C3
C3
C2
E6
78
ENDCHAR
STARTCHAR p
ENCODING 112
SWIDTH 500 0
DWIDTH 9 0
BBX 10 12 -1 -4
BITMAP
3B80
1CC0
18C0
18C0
30C0
3180
3100
3E00
6000
6000
6000
F000
ENDCHAR
STARTCHAR q
ENCODING 113
SWIDTH 500 0
DWIDTH 9 0
BBX 8 12 1 -4
BITMAP
1F
63
43
C3
C6
C6
EE
36
04
0C
0C
1E
ENDCHAR
STARTCHAR r
ENCODING 114
SWIDTH 389 0
DWIDTH 6 0
BBX 6 8 1 0
BITMAP
EC
6C
70
60
C0
C0
C0
C0
ENDCHAR
STARTCHAR s
ENCODING 115
SWIDTH 389 0
DWIDTH 8 0
BBX 6 8 1 0
BITMAP
3C
64
60
30
18
8C
CC
F8
ENDCHAR
STARTCHAR t
ENCODING 116
SWIDTH 278 0
DWIDTH 5 0
BBX 5 10 1 0
BITMAP
10
30
F8
60
60
40
C0
C0
D0
60
ENDCHAR
STARTCHAR u
ENCODING 117
SWIDTH 500 0
DWIDTH 9 0
BBX 8 8 1 0
BITMAP
E3
63
63
46
C6
CE
F7
66
ENDCHAR
STARTCHAR v
ENCODING 118
SWIDTH 444 0
DWIDTH 8 0
BBX 8 8 0 0
BITMAP
E3
63
62
24
34
38
38
30
ENDCHAR
STARTCHAR w
ENCODING 119
SWIDTH 667 0
DWIDTH 13 0
BBX 13 8 0 0
BITMAP
E318
6318
6310
2530
35A0
39C0
3180
2100
ENDCHAR
STARTCHAR x
ENCODING 120
SWIDTH 444 0
DWIDTH 8 0
BBX 8 8 0 0
BITMAP
73
36
3C
18
38
2C
6F
C6
ENDCHAR
STARTCHAR y
ENCODING 121
SWIDTH 444 0
DWIDTH 8 0
BBX 9 12 -1 -4
BITMAP
7180
3180
3100
1200
1A00
1C00
1C00
0800
1800
1000
3000
E000
ENDCHAR
STARTCHAR z
ENCODING 122
SWIDTH 389 0
DWIDTH 7 0
BBX 7 8 0 0
BITMAP
7E
46
0C
18
30
60
C4
FC
ENDCHAR
STARTCHAR braceleft
ENCODING 123
SWIDTH 400 0
DWIDTH 8 0
BBX 7 17 2 -4
BITMAP
06
08
18
18
18
10
30
60
C0
60
20
20
60
60
60
60
30
ENDCHAR
STARTCHAR bar
ENCODING 124
SWIDTH 275 0
DWIDTH 5 0
BBX 5 17 0 -4
BITMAP
08
08
08
10
10
10
20
20
20
40
40
40
40
80
80
80
80
ENDCHAR
STARTCHAR braceright
ENCODING 125
SWIDTH 400 0
DWIDTH 8 0
BBX 7 17 0 -4
BITMAP
18
0C
0C
0C
0C
08
08
0C
06
0C
18
10
30
30
30
20
C0
ENDCHAR
STARTCHAR asciitilde
ENCODING 126
SWIDTH 541 0
DWIDTH 10 0
BBX 9 3 1 3
BITMAP
3080
7F00
8600
ENDCHAR
STARTCHAR afii10051
ENCODING 128
SWIDTH 800 0
DWIDTH 15 0
BBX 12 17 3 -4
BITMAP
7FC0
CCC0
8C40
0C00
1800
1BE0
1C70
1830
3030
3060
3060
3060
78C0
00C0
0180
0300
0C00
ENDCHAR
STARTCHAR afii10052
ENCODING 129
SWIDTH 586 0
DWIDTH 11 0
BBX 11 17 1 0
BITMAP
01C0
0380
0400
0000
3FE0
1860
1820
1820
3000
3000
3000
3000
6000
6000
6000
6000
F000
ENDCHAR
STARTCHAR quotesinglbase
ENCODING 130
SWIDTH 333 0
DWIDTH 6 0
BBX 2 4 2 -2
BITMAP
C0
C0
40
80
ENDCHAR
STARTCHAR afii10100
ENCODING 131
SWIDTH 426 0
DWIDTH 8 0
BBX 8 12 1 0
BITMAP
07
0E
10
00
1C
26
06
1C
70
C2
E4
78
ENDCHAR
STARTCHAR quotedblbase
ENCODING 132
SWIDTH 556 0
DWIDTH 10 0
BBX 6 4 2 -2
BITMAP
CC
CC
44
88
ENDCHAR
STARTCHAR ellipsis
ENCODING 133
SWIDTH 889 0
DWIDTH 17 0
BBX 14 2 1 0
BITMAP
C30C
C30C
ENDCHAR
STARTCHAR dagger
ENCODING 134
SWIDTH 500 0
DWIDTH 9 0
BBX 7 16 2 -2
BITMAP
08
08
08
08
FE
10
10
10
30
20
20
20
60
40
40
40
ENDCHAR
STARTCHAR daggerdbl
ENCODING 135
SWIDTH 500 0
DWIDTH 8 0
BBX 8 16 0 -2
BITMAP
04
04
04
04
7F
08
08
08
18
10
10
FE
20
20
20
20
ENDCHAR
STARTCHAR Euro
ENCODING 136
SWIDTH 693 0
DWIDTH 13 0
BBX 13 13 2 0
BITMAP
01E8
0638
1C10
1810
3000
FFC0
6000
FF00
6000
6000
6020
30C0
1F00
ENDCHAR
STARTCHAR perthousand
ENCODING 137
SWIDTH 1000 0
DWIDTH 19 0
BBX 19 13 0 0
BITMAP
386000
67E000
C4C000
C58000
CB0000
720000
060000
0CE1C0
099320
1B1620
331620
232640
61C380
ENDCHAR
STARTCHAR afii10058
ENCODING 138
SWIDTH 1013 0
DWIDTH 19 0
BBX 18 13 0 0
BITMAP
07FC00
021800
021800
021800
043000
043000
043F00
083180
0860C0
0860C0
D061C0
D06380
60FE00
ENDCHAR
STARTCHAR guilsinglleft
ENCODING 139
SWIDTH 333 0
DWIDTH 7 0
BBX 5 6 1 2
BITMAP
18
30
60
C0
60
30
ENDCHAR
STARTCHAR afii10059
ENCODING 140
SWIDTH 960 0
DWIDTH 18 0
BBX 16 13 1 0
BITMAP
3CF0
1860
1860
1860
30C0
30C0
3FFC
30C6
6183
6183
6187
618E
F3F8
ENDCHAR
STARTCHAR afii10061
ENCODING 141
SWIDTH 693 0
DWIDTH 13 0
BBX 12 17 2 0
BITMAP
00E0
01C0
0200
0000
3CF0
1860
18C0
1980
3200
3400
3C00
3600
6300
6300
6180
61C0
F3E0
ENDCHAR
STARTCHAR afii10060
ENCODING 142
SWIDTH 853 0
DWIDTH 16 0
BBX 12 13 3 0
BITMAP
7FC0
CCC0
8C40
0C00
1800
1BE0
1C70
1830
3030
3060
3060
3060
78F0
ENDCHAR
STARTCHAR afii10145
ENCODING 143
SWIDTH 693 0
DWIDTH 13 0
BBX 13 16 1 -3
BITMAP
3C78
1830
1830
1830
3060
3060
3060
3060
60C0
60C0
60C0
60C0
FFE0
0C00
0800
0800
ENDCHAR
STARTCHAR afii10099
ENCODING 144
SWIDTH 480 0
DWIDTH 9 0
BBX 8 17 1 -4
BITMAP
70
30
30
FC
60
66
6F
73
63
C6
C6
C6
CC
0C
18
30
60
ENDCHAR
STARTCHAR quoteleft
ENCODING 145
SWIDTH 333 0
DWIDTH 6 0
BBX 2 4 4 9
BITMAP
40
80
C0
C0
ENDCHAR
STARTCHAR quoteright
ENCODING 146
SWIDTH 333 0
DWIDTH 6 0
BBX 2 4 3 9
BITMAP
C0
C0
40
80
ENDCHAR
STARTCHAR quotedblleft
ENCODING 147
SWIDTH 556 0
DWIDTH 10 0
BBX 6 4 4 9
BITMAP
44
88
CC
CC
ENDCHAR
STARTCHAR quotedblright
ENCODING 148
SWIDTH 556 0
DWIDTH 10 0
BBX 6 4 3 9
BITMAP
CC
CC
44
88
ENDCHAR
STARTCHAR bullet
ENCODING 149
SWIDTH 350 0
DWIDTH 7 0
BBX 5 5 2 3
BITMAP
70
F8
F8
F8
70
ENDCHAR
STARTCHAR endash
ENCODING 150
SWIDTH 500 0
DWIDTH 9 0
BBX 10 1 0 4
BITMAP
FFC0
ENDCHAR
STARTCHAR emdash
ENCODING 151
SWIDTH 889 0
DWIDTH 17 0
BBX 19 1 -1 4
BITMAP
FFFFE0
ENDCHAR
STARTCHAR trademark
ENCODING 153
SWIDTH 980 0
DWIDTH 17 0
BBX 15 7 2 6
BITMAP
FB8E
A98C
2154
2154
2154
2124
73AE
ENDCHAR
STARTCHAR afii10106
ENCODING 154
SWIDTH 640 0
DWIDTH 12 0
BBX 12 8 0 0
BITMAP
0600
0F00
0B60
13B0
1630
2630
A660
C380
ENDCHAR
STARTCHAR guilsinglright
ENCODING 155
SWIDTH 333 0
DWIDTH 7 0
BBX 5 6 1 2
BITMAP
60
30
18
30
60
C0
ENDCHAR
STARTCHAR afii10107
ENCODING 156
SWIDTH 693 0
DWIDTH 13 0
BBX 12 8 1 0
BITMAP
E300
6300
6360
7FB0
C630
C630
C660
C380
ENDCHAR
STARTCHAR afii10109
ENCODING 157
SWIDTH 426 0
DWIDTH 8 0
BBX 8 12 1 0
BITMAP
07
0E
10
00
E7
66
68
70
F0
D8
DE
CC
ENDCHAR
STARTCHAR afii10108
ENCODING 158
SWIDTH 533 0
DWIDTH 10 0
BBX 9 13 1 0
BITMAP
7000
3000
3000
FC00
6000
6600
6F00
7300
6300
C600
C600
C680
C700
ENDCHAR
STARTCHAR afii10193
ENCODING 159
SWIDTH 480 0
DWIDTH 9 0
BBX 8 11 1 -3
BITMAP
E3
63
63
46
C6
CE
F7
66
30
30
60
ENDCHAR
STARTCHAR space
ENCODING 160
SWIDTH 250 0
DWIDTH 4 0
BBX 0 0 0 0
BITMAP
ENDCHAR
STARTCHAR afii10062
ENCODING 161
SWIDTH 640 0
DWIDTH 12 0
BBX 13 16 1 0
BITMAP
06C0
0780
0000
7878
3030
3820
1840
1C80
0C80
0D00
0E00
0600
0400
C800
D000
6000
ENDCHAR
STARTCHAR afii10110
ENCODING 162
SWIDTH 426 0
DWIDTH 8 0
BBX 9 15 -1 -4
BITMAP
0D00
0E00
0000
7180
3180
3100
1200
1A00
1C00
1C00
0800
1800
1000
3000
E000
ENDCHAR
STARTCHAR afii10057
ENCODING 163
SWIDTH 444 0
DWIDTH 7 0
BBX 8 13 0 0
BITMAP
0F
06
06
06
0C
0C
0C
0C
18
18
D8
D8
70
ENDCHAR
STARTCHAR currency
ENCODING 164
SWIDTH 500 0
DWIDTH 9 0
BBX 8 7 1 3
BITMAP
81
7E
66
42
66
7E
81
ENDCHAR
STARTCHAR afii10050
ENCODING 165
SWIDTH 586 0
DWIDTH 11 0
BBX 12 16 1 0
BITMAP
0010
0030
0060
3FE0
1800
1800
1800
3000
3000
3000
3000
6000
6000
6000
6000
F000
ENDCHAR
STARTCHAR brokenbar
ENCODING 166
SWIDTH 275 0
DWIDTH 5 0
BBX 5 17 0 -4
BITMAP
08
08
08
08
10
10
10
00
00
00
40
40
40
80
80
80
80
ENDCHAR
STARTCHAR section
ENCODING 167
SWIDTH 500 0
DWIDTH 9 0
BBX 8 16 1 -2
BITMAP
0E
13
23
30
38
3C
4E
46
62
72
3C
1C
0C
C4
C8
70
ENDCHAR
STARTCHAR afii10023
ENCODING 168
SWIDTH 611 0
DWIDTH 11 0
BBX 10 16 1 0
BITMAP
0CC0
0CC0
0000
3FC0
18C0
1840
1840
3100
3100
3E00
3200
6200
6040
6040
6180
FF80
ENDCHAR
STARTCHAR copyright
ENCODING 169
SWIDTH 760 0
DWIDTH 15 0
BBX 13 13 1 0
BITMAP
0F80
3060
4010
4790
8888
9008
9008
9008
8888
4710
4010
3060
0F80
ENDCHAR
STARTCHAR afii10053
ENCODING 170
SWIDTH 640 0
DWIDTH 12 0
BBX 12 13 2 0
BITMAP
03D0
0C70
3820
3020
6000
E000
FE00
C000
C000
C000
C040
6180
3E00
ENDCHAR
STARTCHAR guillemotleft
ENCODING 171
SWIDTH 500 0
DWIDTH 10 0
BBX 9 6 0 2
BITMAP
1980
3300
6600
CC00
6600
3300
ENDCHAR
STARTCHAR logicalnot
ENCODING 172
SWIDTH 675 0
DWIDTH 11 0
BBX 9 5 1 1
BITMAP
FF80
0080
0080
0080
0080
ENDCHAR
STARTCHAR hyphen
ENCODING 173
SWIDTH 333 0
DWIDTH 6 0
BBX 4 2 1 3
BITMAP
F0
F0
ENDCHAR
STARTCHAR registered
ENCODING 174
SWIDTH 760 0
DWIDTH 15 0
BBX 13 13 1 0
BITMAP
0F80
3060
4010
5F10
8888
8888
8F08
8908
8888
5CD0
4010
3060
0F80
ENDCHAR
STARTCHAR afii10056
ENCODING 175
SWIDTH 333 0
DWIDTH 6 0
BBX 7 16 1 0
BITMAP
36
36
00
3C
18
18
18
30
30
30
30
60
60
60
60
F0
ENDCHAR
STARTCHAR degree
ENCODING 176
SWIDTH 400 0
DWIDTH 7 0
BBX 6 6 2 7
BITMAP
78
CC
84
84
CC
78
ENDCHAR
STARTCHAR plusminus
ENCODING 177
SWIDTH 675 0
DWIDTH 13 0
BBX 9 11 2 0
BITMAP
0800
0800
0800
0800
FF80
0800
0800
0800
0800
0000
FF80
ENDCHAR
STARTCHAR afii10055
ENCODING 178
SWIDTH 333 0
DWIDTH 6 0
BBX 6 13 1 0
BITMAP
3C
18
18
18
30
30
30
30
60
60
60
60
F0
ENDCHAR
STARTCHAR afii10103
ENCODING 179
SWIDTH 278 0
DWIDTH 5 0
BBX 4 13 1 0
BITMAP
30
30
00
00
00
E0
60
60
40
C0
C0
D0
E0
ENDCHAR
STARTCHAR afii10098
ENCODING 180
SWIDTH 320 0
DWIDTH 6 0
BBX 7 10 1 0
BITMAP
02
06
FC
60
60
40
C0
C0
D0
E0
ENDCHAR
STARTCHAR mu
ENCODING 181
SWIDTH 500 0
DWIDTH 9 0
BBX 10 12 -1 -4
BITMAP
38C0
18C0
18C0
1180
3180
3380
3DC0
7980
4000
C000
E000
4000
ENDCHAR
STARTCHAR paragraph
ENCODING 182
SWIDTH 523 0
DWIDTH 10 0
BBX 8 17 2 -4
BITMAP
1F
7A
FA
F4
F4
F4
F4
68
28
28
50
50
50
50
A0
A0
A0
ENDCHAR
STARTCHAR periodcentered
ENCODING 183
SWIDTH 250 0
DWIDTH 5 0
BBX 2 2 2 4
BITMAP
C0
C0
ENDCHAR
STARTCHAR afii10071
ENCODING 184
SWIDTH 444 0
DWIDTH 8 0
BBX 7 11 1 0
BITMAP
36
36
00
1C
66
46
CC
F0
C2
E4
78
ENDCHAR
STARTCHAR afii61352
ENCODING 185
SWIDTH 960 0
DWIDTH 18 0
BBX 18 13 0 0
BITMAP
1E0600
060A00
0F0800
0B1800
0B1000
0B9000
19B180
19B240
11A440
10E480
30E300
A0C000
C04F00
ENDCHAR
STARTCHAR afii10101
ENCODING 186
SWIDTH 426 0
DWIDTH 8 0
BBX 7 8 1 0
BITMAP
1E
72
40
F8
C0
C0
E4
78
ENDCHAR
STARTCHAR guillemotright
ENCODING 187
SWIDTH 500 0
DWIDTH 10 0
BBX 9 6 1 2
BITMAP
6600
3300
1980
3300
6600
CC00
ENDCHAR
STARTCHAR afii10105
ENCODING 188
SWIDTH 278 0
DWIDTH 5 0
BBX 7 16 -2 -3
BITMAP
06
06
00
00
00
1C
0C
0C
0C
0C
18
18
18
18
D0
E0
ENDCHAR
STARTCHAR afii10054
ENCODING 189
SWIDTH 500 0
DWIDTH 9 0
BBX 9 13 1 0
BITMAP
0F80
1980
3080
3080
3800
1C00
0E00
0F00
0700
8300
8300
C600
FC00
ENDCHAR
STARTCHAR afii10102
ENCODING 190
SWIDTH 389 0
DWIDTH 8 0
BBX 6 8 1 0
BITMAP
3C
64
60
30
18
8C
CC
F8
ENDCHAR
STARTCHAR afii10104
ENCODING 191
SWIDTH 278 0
DWIDTH 5 0
BBX 5 11 1 0
BITMAP
D8
D8
00
60
E0
60
40
C0
C0
D0
E0
ENDCHAR
STARTCHAR afii10017
ENCODING 192
SWIDTH 586 0
DWIDTH 11 0
BBX 11 13 0 0
BITMAP
00C0
01C0
01C0
02C0
06C0
04C0
0CC0
08C0
1FC0
10C0
20C0
60C0
F1E0
ENDCHAR
STARTCHAR afii10018
ENCODING 193
SWIDTH 640 0
DWIDTH 12 0
BBX 11 13 1 0
BITMAP
3FE0
1860
1820
1820
3000
3000
3F00
3180
60C0
60C0
61C0
6380
FE00
ENDCHAR
STARTCHAR afii10019
ENCODING 194
SWIDTH 640 0
DWIDTH 12 0
BBX 11 13 1 0
BITMAP
3F80
18E0
1860
1860
3060
31C0
3F00
3180
60C0
60C0
61C0
6380
FE00
ENDCHAR
STARTCHAR afii10020
ENCODING 195
SWIDTH 586 0
DWIDTH 11 0
BBX 11 13 1 0
BITMAP
3FE0
1860
1820
1820
3000
3000
3000
3000
6000
6000
6000
6000
F000
ENDCHAR
STARTCHAR afii10021
ENCODING 196
SWIDTH 693 0
DWIDTH 13 0
BBX 14 16 0 -3
BITMAP
07FC
0218
0218
0218
0430
0430
0430
0830
0860
0860
1060
1060
7FF0
6030
C010
8010
ENDCHAR
STARTCHAR afii10022
ENCODING 197
SWIDTH 586 0
DWIDTH 11 0
BBX 10 13 1 0
BITMAP
3FC0
18C0
1840
1840
3100
3100
3E00
3200
6200
6040
6040
6180
FF80
ENDCHAR
STARTCHAR afii10024
ENCODING 198
SWIDTH 853 0
DWIDTH 16 0
BBX 17 13 0 0
BITMAP
1EF780
0C6300
046600
046400
02C800
02D000
01E000
02D000
0D9800
199800
398C00
718E00
E3C700
ENDCHAR
STARTCHAR afii10025
ENCODING 199
SWIDTH 640 0
DWIDTH 12 0
BBX 11 13 1 0
BITMAP
1780
18E0
1060
0060
0060
01C0
0F00
0180
00C0
00C0
81C0
6380
3E00
ENDCHAR
STARTCHAR afii10026
ENCODING 200
SWIDTH 693 0
DWIDTH 13 0
BBX 13 13 1 0
BITMAP
3C78
1830
1870
18B0
3160
3160
3260
3460
64C0
68C0
70C0
60C0
F1E0
ENDCHAR
STARTCHAR afii10027
ENCODING 201
SWIDTH 693 0
DWIDTH 13 0
BBX 13 16 1 0
BITMAP
0360
03C0
0000
3C78
1830
1870
18B0
3160
3160
3260
3460
64C0
68C0
70C0
60C0
F1E0
ENDCHAR
STARTCHAR afii10028
ENCODING 202
SWIDTH 693 0
DWIDTH 13 0
BBX 12 13 2 0
BITMAP
3CF0
1860
18C0
1980
3200
3400
3C00
3600
6300
6300
6180
61C0
F3E0
ENDCHAR
STARTCHAR afii10029
ENCODING 203
SWIDTH 693 0
DWIDTH 13 0
BBX 14 13 0 0
BITMAP
07FC
0218
0218
0218
0430
0430
0430
0830
0860
0860
D060
D060
60F0
ENDCHAR
STARTCHAR afii10030
ENCODING 204
SWIDTH 853 0
DWIDTH 16 0
BBX 16 13 1 0
BITMAP
3C07
1C0E
1C1E
1416
1424
266C
264C
26CC
268C
2718
4718
4618
E43C
ENDCHAR
STARTCHAR afii10031
ENCODING 205
SWIDTH 693 0
DWIDTH 13 0
BBX 13 13 1 0
BITMAP
3C78
1830
1830
1830
3060
3060
3FE0
3060
60C0
60C0
60C0
60C0
F1E0
ENDCHAR
STARTCHAR afii10032
ENCODING 206
SWIDTH 746 0
DWIDTH 14 0
BBX 12 13 2 0
BITMAP
03C0
0C60
3830
3030
7030
6030
E070
C060
C0E0
C0C0
41C0
6380
3E00
ENDCHAR
STARTCHAR afii10033
ENCODING 207
SWIDTH 693 0
DWIDTH 13 0
BBX 13 13 1 0
BITMAP
3FF8
1830
1830
1830
3060
3060
3060
3060
60C0
60C0
60C0
60C0
F1E0
ENDCHAR
STARTCHAR afii10034
ENCODING 208
SWIDTH 586 0
DWIDTH 11 0
BBX 11 13 1 0
BITMAP
3FC0
18E0
1860
1860
3060
30C0
3F00
3000
6000
6000
6000
6000
F000
ENDCHAR
STARTCHAR afii10035
ENCODING 209
SWIDTH 640 0
DWIDTH 12 0
BBX 12 13 2 0
BITMAP
03D0
0C70
3820
3020
6000
E000
C000
C000
C000
C000
C040
6180
3E00
ENDCHAR
STARTCHAR afii10036
ENCODING 210
SWIDTH 533 0
DWIDTH 10 0
BBX 11 13 1 0
BITMAP
7FE0
C660
8620
0600
0C00
0C00
0C00
0C00
1800
1800
1800
1800
3C00
ENDCHAR
STARTCHAR afii10037
ENCODING 211
SWIDTH 640 0
DWIDTH 12 0
BBX 13 13 1 0
BITMAP
7878
3030
3820
1840
1C80
0C80
0D00
0E00
0600
0400
C800
D000
6000
ENDCHAR
STARTCHAR afii10038
ENCODING 212
SWIDTH 746 0
DWIDTH 14 0
BBX 12 13 2 0
BITMAP
0780
0300
1FC0
6260
4630
C630
C630
C630
C420
6C60
3F80
0C00
1E00
ENDCHAR
STARTCHAR afii10039
ENCODING 213
SWIDTH 586 0
DWIDTH 11 0
BBX 14 13 -1 0
BITMAP
3F7C
0C30
0E60
0640
0780
0300
0300
0780
0580
08C0
10C0
30E0
FBF0
ENDCHAR
STARTCHAR afii10040
ENCODING 214
SWIDTH 693 0
DWIDTH 13 0
BBX 13 16 1 -3
BITMAP
3C78
1830
1830
1830
3060
3060
3060
3060
60C0
60C0
60C0
60C0
FFE0
0060
0020
0020
ENDCHAR
STARTCHAR afii10041
ENCODING 215
SWIDTH 693 0
DWIDTH 13 0
BBX 11 13 3 0
BITMAP
F1E0
60C0
60C0
60C0
C180
C180
E380
7D80
0300
0300
0300
0300
0780
ENDCHAR
STARTCHAR afii10042
ENCODING 216
SWIDTH 960 0
DWIDTH 18 0
BBX 18 13 1 0
BITMAP
3CF3C0
186180
186180
186180
30C300
30C300
30C300
30C300
618600
618600
618600
618600
FFFF00
ENDCHAR
STARTCHAR afii10043
ENCODING 217
SWIDTH 960 0
DWIDTH 18 0
BBX 18 16 1 -3
BITMAP
3CF3C0
186180
186180
186180
30C300
30C300
30C300
30C300
618600
618600
618600
618600
FFFF00
000300
000100
000100
ENDCHAR
STARTCHAR afii10044
ENCODING 218
SWIDTH 746 0
DWIDTH 14 0
BBX 10 13 3 0
BITMAP
7C00
D800
9800
1800
3000
3000
3F00
3180
60C0
60C0
61C0
6380
FE00
ENDCHAR
STARTCHAR afii10045
ENCODING 219
SWIDTH 960 0
DWIDTH 18 0
BBX 18 13 1 0
BITMAP
3C03C0
180180
180180
180180
300300
300300
3F0300
318300
60C600
60C600
61C600
638600
FE0F00
ENDCHAR
STARTCHAR afii10046
ENCODING 220
SWIDTH 640 0
DWIDTH 12 0
BBX 10 13 1 0
BITMAP
3C00
1800
1800
1800
3000
3000
3F00
3180
60C0
60C0
61C0
6380
FE00
ENDCHAR
STARTCHAR afii10047
ENCODING 221
SWIDTH 640 0
DWIDTH 12 0
BBX 11 13 1 0
BITMAP
1780
18C0
3060
2060
0060
0060
0FE0
00C0
01C0
0180
8380
4700
3C00
ENDCHAR
STARTCHAR afii10048
ENCODING 222
SWIDTH 1013 0
DWIDTH 19 0
BBX 18 13 1 0
BITMAP
3C0F00
183180
18E0C0
18C0C0
31C0C0
3180C0
3F81C0
330180
630380
630300
610700
618E00
F0F800
ENDCHAR
STARTCHAR afii10049
ENCODING 223
SWIDTH 640 0
DWIDTH 12 0
BBX 13 13 0 0
BITMAP
03F8
0E30
1C30
1830
1830
0C60
07E0
0660
0C60
18C0
38C0
70C0
E1E0
ENDCHAR
STARTCHAR afii10065
ENCODING 224
SWIDTH 533 0
DWIDTH 10 0
BBX 9 8 1 0
BITMAP
1E80
6700
4300
C300
C600
C600
EE80
3300
ENDCHAR
STARTCHAR afii10066
ENCODING 225
SWIDTH 480 0
DWIDTH 9 0
BBX 9 13 1 0
BITMAP
0080
0700
1E00
3000
2000
5E00
6700
4300
C300
C300
C200
E600
7800
ENDCHAR
STARTCHAR afii10067
ENCODING 226
SWIDTH 426 0
DWIDTH 8 0
BBX 7 8 1 0
BITMAP
1C
66
46
DC
E6
C6
E4
78
ENDCHAR
STARTCHAR afii10068
ENCODING 227
SWIDTH 426 0
DWIDTH 8 0
BBX 7 8 1 0
BITMAP
1C
26
06
1C
70
C2
E4
78
ENDCHAR
STARTCHAR afii10069
ENCODING 228
SWIDTH 480 0
DWIDTH 9 0
BBX 8 13 1 0
BITMAP
10
0C
06
06
03
1B
67
43
C3
C3
C2
E6
78
ENDCHAR
STARTCHAR afii10070
ENCODING 229
SWIDTH 426 0
DWIDTH 8 0
BBX 7 8 1 0
BITMAP
1C
66
46
CC
F0
C2
E4
78
ENDCHAR
STARTCHAR afii10072
ENCODING 230
SWIDTH 800 0
DWIDTH 15 0
BBX 15 8 0 0
BITMAP
399C
5DB2
0DA0
0FE0
0D60
0B60
9B74
7338
ENDCHAR
STARTCHAR afii10073
ENCODING 231
SWIDTH 426 0
DWIDTH 8 0
BBX 7 8 1 0
BITMAP
3C
46
06
1C
06
06
8C
78
ENDCHAR
STARTCHAR afii10074
ENCODING 232
SWIDTH 480 0
DWIDTH 9 0
BBX 8 8 1 0
BITMAP
E3
63
63
46
C6
CE
F7
66
ENDCHAR
STARTCHAR afii10075
ENCODING 233
SWIDTH 480 0
DWIDTH 9 0
BBX 8 11 1 0
BITMAP
1A
1C
00
E3
63
63
46
C6
CE
F7
66
ENDCHAR
STARTCHAR afii10076
ENCODING 234
SWIDTH 426 0
DWIDTH 8 0
BBX 8 8 1 0
BITMAP
E7
66
68
70
F0
D8
DE
CC
ENDCHAR
STARTCHAR afii10077
ENCODING 235
SWIDTH 480 0
DWIDTH 9 0
BBX 9 8 0 0
BITMAP
0600
0F00
0B00
1300
1600
2600
A680
C700
ENDCHAR
STARTCHAR afii10078
ENCODING 236
SWIDTH 693 0
DWIDTH 13 0
BBX 13 8 0 0
BITMAP
0630
0670
0E70
0EA0
1760
1760
A668
C470
ENDCHAR
STARTCHAR afii10079
ENCODING 237
SWIDTH 533 0
DWIDTH 10 0
BBX 9 8 1 0
BITMAP
E300
6300
6300
7F00
C600
C600
C680
C700
ENDCHAR
STARTCHAR afii10080
ENCODING 238
SWIDTH 480 0
DWIDTH 9 0
BBX 8 8 1 0
BITMAP
1E
67
43
C3
C3
C2
E6
78
ENDCHAR
STARTCHAR afii10081
ENCODING 239
SWIDTH 533 0
DWIDTH 10 0
BBX 9 8 1 0
BITMAP
E600
6F00
7300
6300
C600
C600
C680
C700
ENDCHAR
STARTCHAR afii10082
ENCODING 240
SWIDTH 480 0
DWIDTH 9 0
BBX 10 12 -1 -4
BITMAP
3B80
1CC0
18C0
18C0
30C0
3180
3100
3E00
6000
6000
6000
F000
ENDCHAR
STARTCHAR afii10083
ENCODING 241
SWIDTH 426 0
DWIDTH 8 0
BBX 7 8 1 0
BITMAP
1E
72
40
C0
C0
C0
E4
78
ENDCHAR
STARTCHAR afii10084
ENCODING 242
SWIDTH 800 0
DWIDTH 15 0
BBX 14 8 1 0
BITMAP
E660
6EF8
7398
6318
C630
C630
C634
C638
ENDCHAR
STARTCHAR afii10085
ENCODING 243
SWIDTH 426 0
DWIDTH 8 0
BBX 9 12 -1 -4
BITMAP
7180
3180
3100
1200
1A00
1C00
1C00
0800
1800
1000
3000
E000
ENDCHAR
STARTCHAR afii10086
ENCODING 244
SWIDTH 746 0
DWIDTH 14 0
BBX 13 17 1 -4
BITMAP
0060
0080
0180
0100
0300
1B70
6798
4318
C318
C618
C630
EF20
36C0
0400
0C00
0800
3000
ENDCHAR
STARTCHAR afii10087
ENCODING 245
SWIDTH 426 0
DWIDTH 8 0
BBX 8 8 0 0
BITMAP
73
36
3C
18
38
2C
6F
C6
ENDCHAR
STARTCHAR afii10088
ENCODING 246
SWIDTH 480 0
DWIDTH 9 0
BBX 8 11 1 -3
BITMAP
E3
63
63
46
C6
CE
F7
66
06
06
0C
ENDCHAR
STARTCHAR afii10089
ENCODING 247
SWIDTH 480 0
DWIDTH 9 0
BBX 8 8 1 0
BITMAP
E3
63
63
C6
FE
36
07
06
ENDCHAR
STARTCHAR afii10090
ENCODING 248
SWIDTH 746 0
DWIDTH 14 0
BBX 13 8 1 0
BITMAP
E318
6318
6318
4230
C630
CE70
FBB8
3330
ENDCHAR
STARTCHAR afii10091
ENCODING 249
SWIDTH 746 0
DWIDTH 14 0
BBX 13 11 1 -3
BITMAP
E318
6318
6318
4230
C630
CE70
FBB8
3330
0030
0030
0060
ENDCHAR
STARTCHAR afii10092
ENCODING 250
SWIDTH 533 0
DWIDTH 10 0
BBX 10 8 0 0
BITMAP
6C00
BC00
8D80
0EC0
18C0
18C0
1980
0E00
ENDCHAR
STARTCHAR afii10093
ENCODING 251
SWIDTH 693 0
DWIDTH 13 0
BBX 12 8 1 0
BITMAP
E0E0
6060
6C60
7640
C6C0
C6C0
CCD0
70E0
ENDCHAR
STARTCHAR afii10094
ENCODING 252
SWIDTH 426 0
DWIDTH 8 0
BBX 7 8 1 0
BITMAP
E0
60
6C
76
C6
C6
CC
70
ENDCHAR
STARTCHAR afii10095
ENCODING 253
SWIDTH 426 0
DWIDTH 8 0
BBX 7 8 1 0
BITMAP
3C
4E
06
3E
06
0C
9C
70
ENDCHAR
STARTCHAR afii10096
ENCODING 254
SWIDTH 693 0
DWIDTH 13 0
BBX 12 8 1 0
BITMAP
E1E0
6670
6430
7C30
CC30
CC20
CE60
C780
ENDCHAR
STARTCHAR afii10097
ENCODING 255
SWIDTH 480 0
DWIDTH 9 0
BBX 9 8 0 0
BITMAP
1F00
2300
6300
6700
1E00
2600
A680
C700
ENDCHAR
STARTCHAR Lslash
ENCODING -1
SWIDTH 556 0
DWIDTH 10 0
BBX 10 13 1 0
BITMAP
3C00
1800
1800
1800
3200
3C00
3000
6000
E000
6040
6040
6180
FF80
ENDCHAR
STARTCHAR OE
ENCODING -1
SWIDTH 944 0
DWIDTH 18 0
BBX 16 13 2 0
BITMAP
03FF
0C63
3861
3061
70C4
60CC
E0F8
C0C8
C188
C182
4182
638C
3FFC
ENDCHAR
STARTCHAR Scaron
ENCODING -1
SWIDTH 500 0
DWIDTH 9 0
BBX 9 17 1 0
BITMAP
0880
0F00
0600
0000
0F80
1980
3080
3080
3800
1C00
0E00
0F00
0700
8300
8300
C600
FC00
ENDCHAR
STARTCHAR Ydieresis
ENCODING -1
SWIDTH 556 0
DWIDTH 11 0
BBX 11 16 2 0
BITMAP
1980
1980
0000
F9E0
60C0
7180
3300
3600
1C00
1800
1800
1800
3000
3000
3000
FC00
ENDCHAR
STARTCHAR Zcaron
ENCODING -1
SWIDTH 556 0
DWIDTH 10 0
BBX 12 17 0 0
BITMAP
0440
0780
0300
0000
3FF0
60E0
40C0
0180
0380
0700
0E00
1C00
1C00
3800
7020
60E0
FFC0
ENDCHAR
STARTCHAR breve
ENCODING -1
SWIDTH 333 0
DWIDTH 6 0
BBX 6 3 2 9
BITMAP
84
F8
70
ENDCHAR
STARTCHAR caron
ENCODING -1
SWIDTH 333 0
DWIDTH 6 0
BBX 5 3 2 9
BITMAP
88
F0
60
ENDCHAR
STARTCHAR circumflex
ENCODING -1
SWIDTH 333 0
DWIDTH 6 0
BBX 5 3 2 9
BITMAP
30
78
88
ENDCHAR
STARTCHAR dotaccent
ENCODING -1
SWIDTH 333 0
DWIDTH 6 0
BBX 2 2 3 9
BITMAP
C0
C0
ENDCHAR
STARTCHAR dotlessi
ENCODING -1
SWIDTH 278 0
DWIDTH 5 0
BBX 4 8 1 0
BITMAP
E0
60
60
40
C0
C0
D0
E0
ENDCHAR
STARTCHAR fi
ENCODING -1
SWIDTH 500 0
DWIDTH 9 0
BBX 10 17 -1 -4
BITMAP
0700
0D80
0C00
1800
1800
7F80
1980
1980
1900
1300
3300
3340
3380
2000
2000
E000
C000
ENDCHAR
STARTCHAR fl
ENCODING -1
SWIDTH 500 0
DWIDTH 9 0
BBX 10 17 -1 -4
BITMAP
07C0
0CC0
0CC0
18C0
1980
7F80
1980
1980
1980
1300
3300
3340
3380
2000
2000
E000
C000
ENDCHAR
STARTCHAR florin
ENCODING -1
SWIDTH 500 0
DWIDTH 9 0
BBX 10 17 0 -4
BITMAP
0380
06C0
0400
0C00
0C00
3F00
0C00
0C00
0C00
0C00
1800
1800
1800
1800
1000
F000
E000
ENDCHAR
STARTCHAR fraction
ENCODING -1
SWIDTH 167 0
DWIDTH 6 0
BBX 10 13 -1 0
BITMAP
00C0
0080
0180
0300
0200
0600
0C00
0800
1800
3000
2000
6000
C000
ENDCHAR
STARTCHAR hungarumlaut
ENCODING -1
SWIDTH 333 0
DWIDTH 6 0
BBX 7 3 1 9
BITMAP
36
6C
90
ENDCHAR
STARTCHAR lslash
ENCODING -1
SWIDTH 278 0
DWIDTH 5 0
BBX 7 13 0 0
BITMAP
38
18
18
1A
3C
30
70
B0
30
60
60
68
70
ENDCHAR
STARTCHAR oe
ENCODING -1
SWIDTH 667 0
DWIDTH 13 0
BBX 13 8 0 0
BITMAP
1C70
6798
4318
C330
C3C0
C308
E790
7DE0
ENDCHAR
STARTCHAR ogonek
ENCODING -1
SWIDTH 333 0
DWIDTH 6 0
BBX 5 4 2 -4
BITMAP
60
C0
C8
70
ENDCHAR
STARTCHAR ring
ENCODING -1
SWIDTH 333 0
DWIDTH 6 0
BBX 4 4 3 9
BITMAP
60
90
90
60
ENDCHAR
STARTCHAR scaron
ENCODING -1
SWIDTH 389 0
DWIDTH 8 0
BBX 7 12 1 0
BITMAP
22
3C
18
00
3C
64
60
30
18
8C
CC
F8
ENDCHAR
STARTCHAR tilde
ENCODING -1
SWIDTH 333 0
DWIDTH 6 0
BBX 6 2 2 9
BITMAP
74
B8
ENDCHAR
STARTCHAR zcaron
ENCODING -1
SWIDTH 389 0
DWIDTH 7 0
BBX 8 12 0 0
BITMAP
11
1E
0C
00
7E
46
0C
18
30
60
C4
FC
ENDCHAR
ENDFONT
