STARTFONT 2.1
COMMENT Copyright (c) 1991  X Consortium
COMMENT 
COMMENT Permission is hereby granted, free of charge, to any person obtaining a copy
COMMENT of this software and associated documentation files (the "Software"), to deal
COMMENT in the Software without restriction, including without limitation the rights
COMMENT to use, copy, modify, merge, publish, distribute, sublicense, and/or sell
COMMENT copies of the Software, and to permit persons to whom the Software is
COMMENT furnished to do so, subject to the following conditions:
COMMENT 
COMMENT The above copyright notice and this permission notice shall be included in
COMMENT all copies or substantial portions of the Software.
COMMENT 
COMMENT THE SOFTWARE IS PROVIDED "AS IS", WITHOUT WARRANTY OF ANY KIND, EXPRESS OR
COMMENT IMPLIED, INCLUDING BUT NOT LIMITED TO THE WARRANTIES OF MERCHANTABILITY,
COMMENT FITNESS FOR A PARTICULAR PURPOSE AND NONINFRINGEMENT.  IN NO EVENT SHALL THE
COMMENT X CONSORTIUM BE LIABLE FOR ANY CLAIM, DAMAGES OR OTHER LIABILITY, WHETHER IN
COMMENT AN ACTION OF CONTRACT, TORT OR OTHERWISE, ARISING FROM, OUT OF OR IN
COMMENT CONNECTION WITH THE SOFTWARE OR THE USE OR OTHER DEALINGS IN THE SOFTWARE.
COMMENT 
COMMENT Except as contained in this notice, the name of the X Consortium shall not be
COMMENT used in advertising or otherwise to promote the sale, use or other dealings
COMMENT in this Software without prior written authorization from the X Consortium.
COMMENT  
COMMENT  Author:  Stephen Gildea, MIT X Consortium, June 1991
COMMENT  
FONT -Misc-Fixed-Medium-R-Normal--7-70-75-75-C-50-windows-1251
SIZE 7 75 75
FONTBOUNDINGBOX 5 7 0 -1
STARTPROPERTIES 25
FONTNAME_REGISTRY ""
FOUNDRY "Misc"
FAMILY_NAME "Fixed"
WEIGHT_NAME "Medium"
SLANT "R"
SETWIDTH_NAME "Normal"
ADD_STYLE_NAME ""
PIXEL_SIZE 7
POINT_SIZE 70
RESOLUTION_X 75
RESOLUTION_Y 75
SPACING "C"
AVERAGE_WIDTH 50
CHARSET_REGISTRY "windows"
CHARSET_ENCODING "1251"
FONT_ASCENT 6
FONT_DESCENT 1
UNDERLINE_POSITION 0
DESTINATION 1
DEFAULT_CHAR 0
COPYRIGHT "Copyright 1991 X Consortium"
COPYRIGHT2 "Cyrillic, Euro and special glyphs copyright 2000 Dmitry Yu. Bolkhovityanov, bolkhov@inp.nsk.su"
SOURCEDATE "Tue Aug  1 20:08:45 2000"
PKGVERSION "1.1"
ASSEMBLER "cvtbdf.pl (Linux)"
ENDPROPERTIES
CHARS 265
STARTCHAR null
ENCODING 0
SWIDTH 686 0
DWIDTH 5 0
BBX 6 7 0 -1
BITMAP
F0
F0
F0
F0
F0
F0
00
ENDCHAR
STARTCHAR ctrlA
ENCODING 1
SWIDTH 686 0
DWIDTH 5 0
BBX 6 7 0 -1
BITMAP
00
20
70
F8
70
20
00
ENDCHAR
STARTCHAR ctrlB
ENCODING 2
SWIDTH 686 0
DWIDTH 5 0
BBX 6 7 0 -1
BITMAP
50
A0
50
A0
50
A0
00
ENDCHAR
STARTCHAR ctrlC
ENCODING 3
SWIDTH 686 0
DWIDTH 5 0
BBX 6 7 0 -1
BITMAP
A0
E0
A0
A0
70
20
20
ENDCHAR
STARTCHAR ctrlD
ENCODING 4
SWIDTH 686 0
DWIDTH 5 0
BBX 6 7 0 -1
BITMAP
C0
80
C0
B0
20
30
20
ENDCHAR
STARTCHAR ctrlE
ENCODING 5
SWIDTH 686 0
DWIDTH 5 0
BBX 6 7 0 -1
BITMAP
C0
80
C0
60
50
60
50
ENDCHAR
STARTCHAR ctrlF
ENCODING 6
SWIDTH 686 0
DWIDTH 5 0
BBX 6 7 0 -1
BITMAP
80
80
C0
30
20
30
20
ENDCHAR
STARTCHAR ctrlG
ENCODING 7
SWIDTH 686 0
DWIDTH 5 0
BBX 6 7 0 -1
BITMAP
20
50
20
00
00
00
00
ENDCHAR
STARTCHAR ctrlH
ENCODING 8
SWIDTH 686 0
DWIDTH 5 0
BBX 6 7 0 -1
BITMAP
20
70
20
00
70
00
00
ENDCHAR
STARTCHAR ctrlI
ENCODING 9
SWIDTH 686 0
DWIDTH 5 0
BBX 6 7 0 -1
BITMAP
90
D0
B0
90
20
20
30
ENDCHAR
STARTCHAR ctrlJ
ENCODING 10
SWIDTH 686 0
DWIDTH 5 0
BBX 6 7 0 -1
BITMAP
A0
A0
A0
40
70
20
20
ENDCHAR
STARTCHAR ldcornsqlr
ENCODING 11
SWIDTH 686 0
DWIDTH 5 0
BBX 6 7 0 -1
BITMAP
20
20
20
E0
00
00
00
ENDCHAR
STARTCHAR ldcornsqur
ENCODING 12
SWIDTH 686 0
DWIDTH 5 0
BBX 6 7 0 -1
BITMAP
00
00
00
E0
20
20
20
ENDCHAR
STARTCHAR ldcornsqul
ENCODING 13
SWIDTH 686 0
DWIDTH 5 0
BBX 6 7 0 -1
BITMAP
00
00
00
38
20
20
20
ENDCHAR
STARTCHAR ldcornsqll
ENCODING 14
SWIDTH 686 0
DWIDTH 5 0
BBX 6 7 0 -1
BITMAP
20
20
20
38
00
00
00
ENDCHAR
STARTCHAR ldcross
ENCODING 15
SWIDTH 686 0
DWIDTH 5 0
BBX 6 7 0 -1
BITMAP
20
20
20
F8
20
20
20
ENDCHAR
STARTCHAR ctrlP
ENCODING 16
SWIDTH 686 0
DWIDTH 5 0
BBX 6 7 0 -1
BITMAP
00
F8
00
00
00
00
00
ENDCHAR
STARTCHAR ctrlQ
ENCODING 17
SWIDTH 686 0
DWIDTH 5 0
BBX 6 7 0 -1
BITMAP
00
00
F8
00
00
00
00
ENDCHAR
STARTCHAR ldhorizontal
ENCODING 18
SWIDTH 686 0
DWIDTH 5 0
BBX 6 7 0 -1
BITMAP
00
00
00
F8
00
00
00
ENDCHAR
STARTCHAR ctrlS
ENCODING 19
SWIDTH 686 0
DWIDTH 5 0
BBX 6 7 0 -1
BITMAP
00
00
00
00
F8
00
00
ENDCHAR
STARTCHAR ctrlT
ENCODING 20
SWIDTH 686 0
DWIDTH 5 0
BBX 6 7 0 -1
BITMAP
00
00
00
00
00
F8
00
ENDCHAR
STARTCHAR ldteelft
ENCODING 21
SWIDTH 686 0
DWIDTH 5 0
BBX 6 7 0 -1
BITMAP
20
20
20
38
20
20
20
ENDCHAR
STARTCHAR ldteert
ENCODING 22
SWIDTH 686 0
DWIDTH 5 0
BBX 6 7 0 -1
BITMAP
20
20
20
E0
20
20
20
ENDCHAR
STARTCHAR ldteebt
ENCODING 23
SWIDTH 686 0
DWIDTH 5 0
BBX 6 7 0 -1
BITMAP
20
20
20
F8
00
00
00
ENDCHAR
STARTCHAR ldteetp
ENCODING 24
SWIDTH 686 0
DWIDTH 5 0
BBX 6 7 0 -1
BITMAP
00
00
00
F8
20
20
20
ENDCHAR
STARTCHAR ldvertical
ENCODING 25
SWIDTH 686 0
DWIDTH 5 0
BBX 6 7 0 -1
BITMAP
20
20
20
20
20
20
20
ENDCHAR
STARTCHAR ctrlZ
ENCODING 26
SWIDTH 686 0
DWIDTH 5 0
BBX 6 7 0 -1
BITMAP
10
20
40
20
10
70
00
ENDCHAR
STARTCHAR ctrlBRL
ENCODING 27
SWIDTH 686 0
DWIDTH 5 0
BBX 6 7 0 -1
BITMAP
40
20
10
20
40
70
00
ENDCHAR
STARTCHAR ctrlBSLASH
ENCODING 28
SWIDTH 686 0
DWIDTH 5 0
BBX 6 7 0 -1
BITMAP
00
00
70
50
50
50
00
ENDCHAR
STARTCHAR ctrlBRR
ENCODING 29
SWIDTH 686 0
DWIDTH 5 0
BBX 6 7 0 -1
BITMAP
00
10
70
20
70
40
00
ENDCHAR
STARTCHAR ctrlCARET
ENCODING 30
SWIDTH 686 0
DWIDTH 5 0
BBX 6 7 0 -1
BITMAP
00
30
40
E0
40
B0
00
ENDCHAR
STARTCHAR ctrlUND
ENCODING 31
SWIDTH 686 0
DWIDTH 5 0
BBX 6 7 0 -1
BITMAP
00
00
00
20
00
00
00
ENDCHAR
STARTCHAR space
ENCODING 32
SWIDTH 686 0
DWIDTH 5 0
BBX 6 7 0 -1
BITMAP
00
00
00
00
00
00
00
ENDCHAR
STARTCHAR exclam
ENCODING 33
SWIDTH 686 0
DWIDTH 5 0
BBX 6 7 0 -1
BITMAP
20
20
20
20
00
20
00
ENDCHAR
STARTCHAR quotedbl
ENCODING 34
SWIDTH 686 0
DWIDTH 5 0
BBX 6 7 0 -1
BITMAP
50
50
50
00
00
00
00
ENDCHAR
STARTCHAR numbersign
ENCODING 35
SWIDTH 686 0
DWIDTH 5 0
BBX 6 7 0 -1
BITMAP
00
50
F8
50
F8
50
00
ENDCHAR
STARTCHAR dollar
ENCODING 36
SWIDTH 686 0
DWIDTH 5 0
BBX 6 7 0 -1
BITMAP
00
70
A0
70
28
70
00
ENDCHAR
STARTCHAR percent
ENCODING 37
SWIDTH 686 0
DWIDTH 5 0
BBX 6 7 0 -1
BITMAP
80
90
20
40
90
10
00
ENDCHAR
STARTCHAR ampersand
ENCODING 38
SWIDTH 686 0
DWIDTH 5 0
BBX 6 7 0 -1
BITMAP
00
40
A0
40
A0
50
00
ENDCHAR
STARTCHAR quotesingle
ENCODING 39
SWIDTH 686 0
DWIDTH 5 0
BBX 6 7 0 -1
BITMAP
20
20
20
00
00
00
00
ENDCHAR
STARTCHAR parenleft
ENCODING 40
SWIDTH 686 0
DWIDTH 5 0
BBX 6 7 0 -1
BITMAP
20
40
40
40
40
20
00
ENDCHAR
STARTCHAR parenright
ENCODING 41
SWIDTH 686 0
DWIDTH 5 0
BBX 6 7 0 -1
BITMAP
40
20
20
20
20
40
00
ENDCHAR
STARTCHAR asterisk
ENCODING 42
SWIDTH 686 0
DWIDTH 5 0
BBX 6 7 0 -1
BITMAP
00
A0
40
E0
40
A0
00
ENDCHAR
STARTCHAR plus
ENCODING 43
SWIDTH 686 0
DWIDTH 5 0
BBX 6 7 0 -1
BITMAP
00
20
20
F8
20
20
00
ENDCHAR
STARTCHAR comma
ENCODING 44
SWIDTH 686 0
DWIDTH 5 0
BBX 6 7 0 -1
BITMAP
00
00
00
00
60
40
80
ENDCHAR
STARTCHAR minus
ENCODING 45
SWIDTH 686 0
DWIDTH 5 0
BBX 6 7 0 -1
BITMAP
00
00
00
F0
00
00
00
ENDCHAR
STARTCHAR period
ENCODING 46
SWIDTH 686 0
DWIDTH 5 0
BBX 6 7 0 -1
BITMAP
00
00
00
00
60
60
00
ENDCHAR
STARTCHAR slash
ENCODING 47
SWIDTH 686 0
DWIDTH 5 0
BBX 6 7 0 -1
BITMAP
00
10
20
40
80
00
00
ENDCHAR
STARTCHAR zero
ENCODING 48
SWIDTH 686 0
DWIDTH 5 0
BBX 6 7 0 -1
BITMAP
40
A0
A0
A0
A0
40
00
ENDCHAR
STARTCHAR one
ENCODING 49
SWIDTH 686 0
DWIDTH 5 0
BBX 6 7 0 -1
BITMAP
40
C0
40
40
40
E0
00
ENDCHAR
STARTCHAR two
ENCODING 50
SWIDTH 686 0
DWIDTH 5 0
BBX 6 7 0 -1
BITMAP
60
90
10
20
40
F0
00
ENDCHAR
STARTCHAR three
ENCODING 51
SWIDTH 686 0
DWIDTH 5 0
BBX 6 7 0 -1
BITMAP
F0
10
60
10
90
60
00
ENDCHAR
STARTCHAR four
ENCODING 52
SWIDTH 686 0
DWIDTH 5 0
BBX 6 7 0 -1
BITMAP
20
60
A0
F0
20
20
00
ENDCHAR
STARTCHAR five
ENCODING 53
SWIDTH 686 0
DWIDTH 5 0
BBX 6 7 0 -1
BITMAP
F0
80
E0
10
90
60
00
ENDCHAR
STARTCHAR six
ENCODING 54
SWIDTH 686 0
DWIDTH 5 0
BBX 6 7 0 -1
BITMAP
60
80
E0
90
90
60
00
ENDCHAR
STARTCHAR seven
ENCODING 55
SWIDTH 686 0
DWIDTH 5 0
BBX 6 7 0 -1
BITMAP
F0
10
20
20
40
40
00
ENDCHAR
STARTCHAR eight
ENCODING 56
SWIDTH 686 0
DWIDTH 5 0
BBX 6 7 0 -1
BITMAP
60
90
60
90
90
60
00
ENDCHAR
STARTCHAR nine
ENCODING 57
SWIDTH 686 0
DWIDTH 5 0
BBX 6 7 0 -1
BITMAP
60
90
90
70
10
60
00
ENDCHAR
STARTCHAR colon
ENCODING 58
SWIDTH 686 0
DWIDTH 5 0
BBX 6 7 0 -1
BITMAP
00
60
60
00
60
60
00
ENDCHAR
STARTCHAR semicolon
ENCODING 59
SWIDTH 686 0
DWIDTH 5 0
BBX 6 7 0 -1
BITMAP
00
60
60
00
60
40
80
ENDCHAR
STARTCHAR less
ENCODING 60
SWIDTH 686 0
DWIDTH 5 0
BBX 6 7 0 -1
BITMAP
00
20
40
80
40
20
00
ENDCHAR
STARTCHAR equal
ENCODING 61
SWIDTH 686 0
DWIDTH 5 0
BBX 6 7 0 -1
BITMAP
00
00
F0
00
F0
00
00
ENDCHAR
STARTCHAR greater
ENCODING 62
SWIDTH 686 0
DWIDTH 5 0
BBX 6 7 0 -1
BITMAP
00
80
40
20
40
80
00
ENDCHAR
STARTCHAR question
ENCODING 63
SWIDTH 686 0
DWIDTH 5 0
BBX 6 7 0 -1
BITMAP
40
A0
20
40
00
40
00
ENDCHAR
STARTCHAR at
ENCODING 64
SWIDTH 686 0
DWIDTH 5 0
BBX 6 7 0 -1
BITMAP
60
90
B0
B0
80
60
00
ENDCHAR
STARTCHAR A
ENCODING 65
SWIDTH 686 0
DWIDTH 5 0
BBX 6 7 0 -1
BITMAP
60
90
90
F0
90
90
00
ENDCHAR
STARTCHAR B
ENCODING 66
SWIDTH 686 0
DWIDTH 5 0
BBX 6 7 0 -1
BITMAP
E0
90
E0
90
90
E0
00
ENDCHAR
STARTCHAR C
ENCODING 67
SWIDTH 686 0
DWIDTH 5 0
BBX 6 7 0 -1
BITMAP
60
90
80
80
90
60
00
ENDCHAR
STARTCHAR D
ENCODING 68
SWIDTH 686 0
DWIDTH 5 0
BBX 6 7 0 -1
BITMAP
E0
90
90
90
90
E0
00
ENDCHAR
STARTCHAR E
ENCODING 69
SWIDTH 686 0
DWIDTH 5 0
BBX 6 7 0 -1
BITMAP
F0
80
E0
80
80
F0
00
ENDCHAR
STARTCHAR F
ENCODING 70
SWIDTH 686 0
DWIDTH 5 0
BBX 6 7 0 -1
BITMAP
F0
80
E0
80
80
80
00
ENDCHAR
STARTCHAR G
ENCODING 71
SWIDTH 686 0
DWIDTH 5 0
BBX 6 7 0 -1
BITMAP
60
90
80
B0
90
70
00
ENDCHAR
STARTCHAR H
ENCODING 72
SWIDTH 686 0
DWIDTH 5 0
BBX 6 7 0 -1
BITMAP
90
90
F0
90
90
90
00
ENDCHAR
STARTCHAR I
ENCODING 73
SWIDTH 686 0
DWIDTH 5 0
BBX 6 7 0 -1
BITMAP
E0
40
40
40
40
E0
00
ENDCHAR
STARTCHAR J
ENCODING 74
SWIDTH 686 0
DWIDTH 5 0
BBX 6 7 0 -1
BITMAP
10
10
10
10
90
60
00
ENDCHAR
STARTCHAR K
ENCODING 75
SWIDTH 686 0
DWIDTH 5 0
BBX 6 7 0 -1
BITMAP
90
A0
C0
C0
A0
90
00
ENDCHAR
STARTCHAR L
ENCODING 76
SWIDTH 686 0
DWIDTH 5 0
BBX 6 7 0 -1
BITMAP
80
80
80
80
80
F0
00
ENDCHAR
STARTCHAR M
ENCODING 77
SWIDTH 686 0
DWIDTH 5 0
BBX 6 7 0 -1
BITMAP
90
F0
F0
90
90
90
00
ENDCHAR
STARTCHAR N
ENCODING 78
SWIDTH 686 0
DWIDTH 5 0
BBX 6 7 0 -1
BITMAP
90
D0
D0
B0
B0
90
00
ENDCHAR
STARTCHAR O
ENCODING 79
SWIDTH 686 0
DWIDTH 5 0
BBX 6 7 0 -1
BITMAP
60
90
90
90
90
60
00
ENDCHAR
STARTCHAR P
ENCODING 80
SWIDTH 686 0
DWIDTH 5 0
BBX 6 7 0 -1
BITMAP
E0
90
90
E0
80
80
00
ENDCHAR
STARTCHAR Q
ENCODING 81
SWIDTH 686 0
DWIDTH 5 0
BBX 6 7 0 -1
BITMAP
60
90
90
90
D0
60
10
ENDCHAR
STARTCHAR R
ENCODING 82
SWIDTH 686 0
DWIDTH 5 0
BBX 6 7 0 -1
BITMAP
E0
90
90
E0
A0
90
00
ENDCHAR
STARTCHAR S
ENCODING 83
SWIDTH 686 0
DWIDTH 5 0
BBX 6 7 0 -1
BITMAP
60
90
40
20
90
60
00
ENDCHAR
STARTCHAR T
ENCODING 84
SWIDTH 686 0
DWIDTH 5 0
BBX 6 7 0 -1
BITMAP
E0
40
40
40
40
40
00
ENDCHAR
STARTCHAR U
ENCODING 85
SWIDTH 686 0
DWIDTH 5 0
BBX 6 7 0 -1
BITMAP
90
90
90
90
90
60
00
ENDCHAR
STARTCHAR V
ENCODING 86
SWIDTH 686 0
DWIDTH 5 0
BBX 6 7 0 -1
BITMAP
90
90
90
90
60
60
00
ENDCHAR
STARTCHAR W
ENCODING 87
SWIDTH 686 0
DWIDTH 5 0
BBX 6 7 0 -1
BITMAP
90
90
90
F0
F0
90
00
ENDCHAR
STARTCHAR X
ENCODING 88
SWIDTH 686 0
DWIDTH 5 0
BBX 6 7 0 -1
BITMAP
90
90
60
60
90
90
00
ENDCHAR
STARTCHAR Y
ENCODING 89
SWIDTH 686 0
DWIDTH 5 0
BBX 6 7 0 -1
BITMAP
A0
A0
A0
40
40
40
00
ENDCHAR
STARTCHAR Z
ENCODING 90
SWIDTH 686 0
DWIDTH 5 0
BBX 6 7 0 -1
BITMAP
F0
10
20
40
80
F0
00
ENDCHAR
STARTCHAR bracketleft
ENCODING 91
SWIDTH 686 0
DWIDTH 5 0
BBX 6 7 0 -1
BITMAP
E0
80
80
80
80
E0
00
ENDCHAR
STARTCHAR backslash
ENCODING 92
SWIDTH 686 0
DWIDTH 5 0
BBX 6 7 0 -1
BITMAP
00
80
40
20
10
00
00
ENDCHAR
STARTCHAR bracketright
ENCODING 93
SWIDTH 686 0
DWIDTH 5 0
BBX 6 7 0 -1
BITMAP
E0
20
20
20
20
E0
00
ENDCHAR
STARTCHAR asciicircum
ENCODING 94
SWIDTH 686 0
DWIDTH 5 0
BBX 6 7 0 -1
BITMAP
40
A0
00
00
00
00
00
ENDCHAR
STARTCHAR underscore
ENCODING 95
SWIDTH 686 0
DWIDTH 5 0
BBX 6 7 0 -1
BITMAP
00
00
00
00
00
F0
00
ENDCHAR
STARTCHAR grave
ENCODING 96
SWIDTH 686 0
DWIDTH 5 0
BBX 6 7 0 -1
BITMAP
40
20
00
00
00
00
00
ENDCHAR
STARTCHAR a
ENCODING 97
SWIDTH 686 0
DWIDTH 5 0
BBX 6 7 0 -1
BITMAP
00
00
70
90
B0
50
00
ENDCHAR
STARTCHAR b
ENCODING 98
SWIDTH 686 0
DWIDTH 5 0
BBX 6 7 0 -1
BITMAP
80
80
E0
90
90
E0
00
ENDCHAR
STARTCHAR c
ENCODING 99
SWIDTH 686 0
DWIDTH 5 0
BBX 6 7 0 -1
BITMAP
00
00
60
80
80
60
00
ENDCHAR
STARTCHAR d
ENCODING 100
SWIDTH 686 0
DWIDTH 5 0
BBX 6 7 0 -1
BITMAP
10
10
70
90
90
70
00
ENDCHAR
STARTCHAR e
ENCODING 101
SWIDTH 686 0
DWIDTH 5 0
BBX 6 7 0 -1
BITMAP
00
00
60
B0
C0
60
00
ENDCHAR
STARTCHAR f
ENCODING 102
SWIDTH 686 0
DWIDTH 5 0
BBX 6 7 0 -1
BITMAP
20
50
40
E0
40
40
00
ENDCHAR
STARTCHAR g
ENCODING 103
SWIDTH 686 0
DWIDTH 5 0
BBX 6 7 0 -1
BITMAP
00
00
70
90
60
80
70
ENDCHAR
STARTCHAR h
ENCODING 104
SWIDTH 686 0
DWIDTH 5 0
BBX 6 7 0 -1
BITMAP
80
80
E0
90
90
90
00
ENDCHAR
STARTCHAR i
ENCODING 105
SWIDTH 686 0
DWIDTH 5 0
BBX 6 7 0 -1
BITMAP
40
00
C0
40
40
E0
00
ENDCHAR
STARTCHAR j
ENCODING 106
SWIDTH 686 0
DWIDTH 5 0
BBX 6 7 0 -1
BITMAP
20
00
20
20
20
A0
40
ENDCHAR
STARTCHAR k
ENCODING 107
SWIDTH 686 0
DWIDTH 5 0
BBX 6 7 0 -1
BITMAP
80
80
A0
C0
A0
90
00
ENDCHAR
STARTCHAR l
ENCODING 108
SWIDTH 686 0
DWIDTH 5 0
BBX 6 7 0 -1
BITMAP
C0
40
40
40
40
E0
00
ENDCHAR
STARTCHAR m
ENCODING 109
SWIDTH 686 0
DWIDTH 5 0
BBX 6 7 0 -1
BITMAP
00
00
A0
F0
90
90
00
ENDCHAR
STARTCHAR n
ENCODING 110
SWIDTH 686 0
DWIDTH 5 0
BBX 6 7 0 -1
BITMAP
00
00
E0
90
90
90
00
ENDCHAR
STARTCHAR o
ENCODING 111
SWIDTH 686 0
DWIDTH 5 0
BBX 6 7 0 -1
BITMAP
00
00
60
90
90
60
00
ENDCHAR
STARTCHAR p
ENCODING 112
SWIDTH 686 0
DWIDTH 5 0
BBX 6 7 0 -1
BITMAP
00
00
E0
90
90
E0
80
ENDCHAR
STARTCHAR q
ENCODING 113
SWIDTH 686 0
DWIDTH 5 0
BBX 6 7 0 -1
BITMAP
00
00
70
90
90
70
10
ENDCHAR
STARTCHAR r
ENCODING 114
SWIDTH 686 0
DWIDTH 5 0
BBX 6 7 0 -1
BITMAP
00
00
E0
90
80
80
00
ENDCHAR
STARTCHAR s
ENCODING 115
SWIDTH 686 0
DWIDTH 5 0
BBX 6 7 0 -1
BITMAP
00
00
70
C0
30
E0
00
ENDCHAR
STARTCHAR t
ENCODING 116
SWIDTH 686 0
DWIDTH 5 0
BBX 6 7 0 -1
BITMAP
40
40
E0
40
40
30
00
ENDCHAR
STARTCHAR u
ENCODING 117
SWIDTH 686 0
DWIDTH 5 0
BBX 6 7 0 -1
BITMAP
00
00
90
90
90
70
00
ENDCHAR
STARTCHAR v
ENCODING 118
SWIDTH 686 0
DWIDTH 5 0
BBX 6 7 0 -1
BITMAP
00
00
A0
A0
A0
40
00
ENDCHAR
STARTCHAR w
ENCODING 119
SWIDTH 686 0
DWIDTH 5 0
BBX 6 7 0 -1
BITMAP
00
00
90
90
F0
F0
00
ENDCHAR
STARTCHAR x
ENCODING 120
SWIDTH 686 0
DWIDTH 5 0
BBX 6 7 0 -1
BITMAP
00
00
90
60
60
90
00
ENDCHAR
STARTCHAR y
ENCODING 121
SWIDTH 686 0
DWIDTH 5 0
BBX 6 7 0 -1
BITMAP
00
00
90
90
50
20
40
ENDCHAR
STARTCHAR z
ENCODING 122
SWIDTH 686 0
DWIDTH 5 0
BBX 6 7 0 -1
BITMAP
00
00
F0
20
40
F0
00
ENDCHAR
STARTCHAR braceleft
ENCODING 123
SWIDTH 686 0
DWIDTH 5 0
BBX 6 7 0 -1
BITMAP
20
40
C0
40
40
20
00
ENDCHAR
STARTCHAR bar
ENCODING 124
SWIDTH 686 0
DWIDTH 5 0
BBX 6 7 0 -1
BITMAP
40
40
40
40
40
40
00
ENDCHAR
STARTCHAR braceright
ENCODING 125
SWIDTH 686 0
DWIDTH 5 0
BBX 6 7 0 -1
BITMAP
80
40
60
40
40
80
00
ENDCHAR
STARTCHAR asciitilde
ENCODING 126
SWIDTH 686 0
DWIDTH 5 0
BBX 6 7 0 -1
BITMAP
50
A0
00
00
00
00
00
ENDCHAR
STARTCHAR delete
ENCODING 127
SWIDTH 686 0
DWIDTH 5 0
BBX 6 7 0 -1
BITMAP
00
00
00
00
00
00
00
ENDCHAR
STARTCHAR afii10051
ENCODING 128
SWIDTH 686 0
DWIDTH 5 0
BBX 6 7 0 -1
BITMAP
E0
80
E0
90
90
A0
00
ENDCHAR
STARTCHAR afii10052
ENCODING 129
SWIDTH 686 0
DWIDTH 5 0
BBX 6 7 0 -1
BITMAP
40
F0
80
80
80
80
00
ENDCHAR
STARTCHAR quotesinglbase
ENCODING 130
SWIDTH 686 0
DWIDTH 5 0
BBX 6 7 0 -1
BITMAP
00
00
00
00
20
20
40
ENDCHAR
STARTCHAR afii10100
ENCODING 131
SWIDTH 686 0
DWIDTH 5 0
BBX 6 7 0 -1
BITMAP
20
40
F0
80
80
80
00
ENDCHAR
STARTCHAR quotedblbase
ENCODING 132
SWIDTH 686 0
DWIDTH 5 0
BBX 6 7 0 -1
BITMAP
00
00
00
00
50
50
A0
ENDCHAR
STARTCHAR ellipsis
ENCODING 133
SWIDTH 686 0
DWIDTH 5 0
BBX 6 7 0 -1
BITMAP
00
00
00
00
A0
A0
00
ENDCHAR
STARTCHAR dagger
ENCODING 134
SWIDTH 686 0
DWIDTH 5 0
BBX 6 7 0 -1
BITMAP
40
E0
40
40
40
40
00
ENDCHAR
STARTCHAR daggerdbl
ENCODING 135
SWIDTH 686 0
DWIDTH 5 0
BBX 6 7 0 -1
BITMAP
40
E0
40
40
E0
40
00
ENDCHAR
STARTCHAR Euro
ENCODING 136
SWIDTH 686 0
DWIDTH 5 0
BBX 6 7 0 -1
BITMAP
30
40
E0
E0
40
30
00
ENDCHAR
STARTCHAR perthousand
ENCODING 137
SWIDTH 686 0
DWIDTH 5 0
BBX 6 7 0 -1
BITMAP
80
90
20
40
A8
28
00
ENDCHAR
STARTCHAR afii10058
ENCODING 138
SWIDTH 686 0
DWIDTH 5 0
BBX 6 7 0 -1
BITMAP
60
A0
B0
B0
B0
B0
00
ENDCHAR
STARTCHAR guilsinglleft
ENCODING 139
SWIDTH 686 0
DWIDTH 5 0
BBX 6 7 0 -1
BITMAP
00
00
20
40
20
00
00
ENDCHAR
STARTCHAR afii10059
ENCODING 140
SWIDTH 686 0
DWIDTH 5 0
BBX 6 7 0 -1
BITMAP
A0
A0
F0
B0
B0
B0
00
ENDCHAR
STARTCHAR afii10061
ENCODING 141
SWIDTH 686 0
DWIDTH 5 0
BBX 6 7 0 -1
BITMAP
40
90
A0
C0
A0
90
00
ENDCHAR
STARTCHAR afii10060
ENCODING 142
SWIDTH 686 0
DWIDTH 5 0
BBX 6 7 0 -1
BITMAP
E0
80
E0
90
90
90
00
ENDCHAR
STARTCHAR afii10145
ENCODING 143
SWIDTH 686 0
DWIDTH 5 0
BBX 6 7 0 -1
BITMAP
90
90
90
90
90
F0
20
ENDCHAR
STARTCHAR afii10099
ENCODING 144
SWIDTH 686 0
DWIDTH 5 0
BBX 6 7 0 -1
BITMAP
40
E0
40
60
50
50
30
ENDCHAR
STARTCHAR quoteleft
ENCODING 145
SWIDTH 686 0
DWIDTH 5 0
BBX 6 7 0 -1
BITMAP
C0
40
20
00
00
00
00
ENDCHAR
STARTCHAR quoteright
ENCODING 146
SWIDTH 686 0
DWIDTH 5 0
BBX 6 7 0 -1
BITMAP
60
40
80
00
00
00
00
ENDCHAR
STARTCHAR quotedblleft
ENCODING 147
SWIDTH 686 0
DWIDTH 5 0
BBX 6 7 0 -1
BITMAP
50
A0
A0
00
00
00
00
ENDCHAR
STARTCHAR quotedblright
ENCODING 148
SWIDTH 686 0
DWIDTH 5 0
BBX 6 7 0 -1
BITMAP
50
50
A0
00
00
00
00
ENDCHAR
STARTCHAR bullet
ENCODING 149
SWIDTH 686 0
DWIDTH 5 0
BBX 6 7 0 -1
BITMAP
00
60
F0
F0
60
00
00
ENDCHAR
STARTCHAR endash
ENCODING 150
SWIDTH 686 0
DWIDTH 5 0
BBX 6 7 0 -1
BITMAP
00
00
00
F0
00
00
00
ENDCHAR
STARTCHAR emdash
ENCODING 151
SWIDTH 686 0
DWIDTH 5 0
BBX 6 7 0 -1
BITMAP
00
00
00
F8
00
00
00
ENDCHAR
STARTCHAR trademark
ENCODING 153
SWIDTH 686 0
DWIDTH 5 0
BBX 6 7 0 -1
BITMAP
F8
58
58
58
00
00
00
ENDCHAR
STARTCHAR afii10106
ENCODING 154
SWIDTH 686 0
DWIDTH 5 0
BBX 6 7 0 -1
BITMAP
00
00
60
B0
B0
B0
00
ENDCHAR
STARTCHAR guilsinglright
ENCODING 155
SWIDTH 686 0
DWIDTH 5 0
BBX 6 7 0 -1
BITMAP
00
00
40
20
40
00
00
ENDCHAR
STARTCHAR afii10107
ENCODING 156
SWIDTH 686 0
DWIDTH 5 0
BBX 6 7 0 -1
BITMAP
00
00
A0
F0
B0
B0
00
ENDCHAR
STARTCHAR afii10109
ENCODING 157
SWIDTH 686 0
DWIDTH 5 0
BBX 6 7 0 -1
BITMAP
20
40
A0
C0
A0
90
00
ENDCHAR
STARTCHAR afii10108
ENCODING 158
SWIDTH 686 0
DWIDTH 5 0
BBX 6 7 0 -1
BITMAP
40
E0
40
60
50
50
00
ENDCHAR
STARTCHAR afii10193
ENCODING 159
SWIDTH 686 0
DWIDTH 5 0
BBX 6 7 0 -1
BITMAP
00
00
90
90
90
F0
20
ENDCHAR
STARTCHAR space
ENCODING 160
SWIDTH 686 0
DWIDTH 5 0
BBX 6 7 0 -1
BITMAP
00
00
00
00
00
00
00
ENDCHAR
STARTCHAR afii10062
ENCODING 161
SWIDTH 686 0
DWIDTH 5 0
BBX 6 7 0 -1
BITMAP
60
90
90
60
20
40
00
ENDCHAR
STARTCHAR afii10110
ENCODING 162
SWIDTH 686 0
DWIDTH 5 0
BBX 6 7 0 -1
BITMAP
00
60
90
90
50
20
40
ENDCHAR
STARTCHAR afii10057
ENCODING 163
SWIDTH 686 0
DWIDTH 5 0
BBX 6 7 0 -1
BITMAP
10
10
10
10
90
60
00
ENDCHAR
STARTCHAR currency
ENCODING 164
SWIDTH 686 0
DWIDTH 5 0
BBX 6 7 0 -1
BITMAP
00
88
70
50
70
88
00
ENDCHAR
STARTCHAR afii10050
ENCODING 165
SWIDTH 686 0
DWIDTH 5 0
BBX 6 7 0 -1
BITMAP
10
F0
80
80
80
80
00
ENDCHAR
STARTCHAR brokenbar
ENCODING 166
SWIDTH 686 0
DWIDTH 5 0
BBX 6 7 0 -1
BITMAP
00
20
20
00
20
20
00
ENDCHAR
STARTCHAR section
ENCODING 167
SWIDTH 686 0
DWIDTH 5 0
BBX 6 7 0 -1
BITMAP
30
40
60
50
30
10
60
ENDCHAR
STARTCHAR afii10023
ENCODING 168
SWIDTH 686 0
DWIDTH 5 0
BBX 5 7 0 -1
BITMAP
f0
80
e0
80
80
f0
00
ENDCHAR
STARTCHAR copyright
ENCODING 169
SWIDTH 686 0
DWIDTH 5 0
BBX 6 7 0 -1
BITMAP
70
88
A8
C8
A8
88
70
ENDCHAR
STARTCHAR afii10053
ENCODING 170
SWIDTH 686 0
DWIDTH 5 0
BBX 6 7 0 -1
BITMAP
60
90
C0
80
90
60
00
ENDCHAR
STARTCHAR guillemotleft
ENCODING 171
SWIDTH 686 0
DWIDTH 5 0
BBX 6 7 0 -1
BITMAP
00
00
48
90
48
00
00
ENDCHAR
STARTCHAR logicalnot
ENCODING 172
SWIDTH 686 0
DWIDTH 5 0
BBX 6 7 0 -1
BITMAP
00
00
F0
10
00
00
00
ENDCHAR
STARTCHAR hyphen
ENCODING 173
SWIDTH 686 0
DWIDTH 5 0
BBX 6 7 0 -1
BITMAP
00
00
00
F0
00
00
00
ENDCHAR
STARTCHAR registered
ENCODING 174
SWIDTH 686 0
DWIDTH 5 0
BBX 6 7 0 -1
BITMAP
70
88
E8
C8
C8
88
70
ENDCHAR
STARTCHAR afii10056
ENCODING 175
SWIDTH 686 0
DWIDTH 5 0
BBX 5 7 0 -1
BITMAP
e0
40
40
40
40
e0
00
ENDCHAR
STARTCHAR degree
ENCODING 176
SWIDTH 686 0
DWIDTH 5 0
BBX 6 7 0 -1
BITMAP
20
50
20
00
00
00
00
ENDCHAR
STARTCHAR plusminus
ENCODING 177
SWIDTH 686 0
DWIDTH 5 0
BBX 6 7 0 -1
BITMAP
20
20
F8
20
20
F8
00
ENDCHAR
STARTCHAR afii10055
ENCODING 178
SWIDTH 686 0
DWIDTH 5 0
BBX 6 7 0 -1
BITMAP
E0
40
40
40
40
E0
00
ENDCHAR
STARTCHAR afii10103
ENCODING 179
SWIDTH 686 0
DWIDTH 5 0
BBX 6 7 0 -1
BITMAP
40
00
C0
40
40
E0
00
ENDCHAR
STARTCHAR afii10098
ENCODING 180
SWIDTH 686 0
DWIDTH 5 0
BBX 6 7 0 -1
BITMAP
00
10
F0
80
80
80
00
ENDCHAR
STARTCHAR mu
ENCODING 181
SWIDTH 686 0
DWIDTH 5 0
BBX 6 7 0 -1
BITMAP
00
00
90
90
90
E0
80
ENDCHAR
STARTCHAR paragraph
ENCODING 182
SWIDTH 686 0
DWIDTH 5 0
BBX 6 7 0 -1
BITMAP
70
D0
D0
50
50
50
00
ENDCHAR
STARTCHAR periodcentered
ENCODING 183
SWIDTH 686 0
DWIDTH 5 0
BBX 6 7 0 -1
BITMAP
00
60
60
00
00
00
00
ENDCHAR
STARTCHAR afii10071
ENCODING 184
SWIDTH 686 0
DWIDTH 5 0
BBX 5 7 0 -1
BITMAP
a0
00
60
b0
c0
60
00
ENDCHAR
STARTCHAR afii61352
ENCODING 185
SWIDTH 686 0
DWIDTH 5 0
BBX 6 7 0 -1
BITMAP
A0
E0
F0
F0
A0
B0
00
ENDCHAR
STARTCHAR afii10101
ENCODING 186
SWIDTH 686 0
DWIDTH 5 0
BBX 6 7 0 -1
BITMAP
00
00
60
C0
80
60
00
ENDCHAR
STARTCHAR guillemotright
ENCODING 187
SWIDTH 686 0
DWIDTH 5 0
BBX 6 7 0 -1
BITMAP
00
00
90
48
90
00
00
ENDCHAR
STARTCHAR afii10105
ENCODING 188
SWIDTH 686 0
DWIDTH 5 0
BBX 6 7 0 -1
BITMAP
20
00
20
20
20
A0
40
ENDCHAR
STARTCHAR afii10054
ENCODING 189
SWIDTH 686 0
DWIDTH 5 0
BBX 6 7 0 -1
BITMAP
60
90
40
20
90
60
00
ENDCHAR
STARTCHAR afii10102
ENCODING 190
SWIDTH 686 0
DWIDTH 5 0
BBX 6 7 0 -1
BITMAP
00
00
70
C0
30
E0
00
ENDCHAR
STARTCHAR afii10104
ENCODING 191
SWIDTH 686 0
DWIDTH 5 0
BBX 5 7 0 -1
BITMAP
a0
00
c0
40
40
e0
00
ENDCHAR
STARTCHAR afii10017
ENCODING 192
SWIDTH 686 0
DWIDTH 5 0
BBX 6 7 0 -1
BITMAP
60
90
90
F0
90
90
00
ENDCHAR
STARTCHAR afii10018
ENCODING 193
SWIDTH 686 0
DWIDTH 5 0
BBX 6 7 0 -1
BITMAP
F0
80
E0
90
90
E0
00
ENDCHAR
STARTCHAR afii10019
ENCODING 194
SWIDTH 686 0
DWIDTH 5 0
BBX 6 7 0 -1
BITMAP
E0
90
E0
90
90
E0
00
ENDCHAR
STARTCHAR afii10020
ENCODING 195
SWIDTH 686 0
DWIDTH 5 0
BBX 6 7 0 -1
BITMAP
F0
80
80
80
80
80
00
ENDCHAR
STARTCHAR afii10021
ENCODING 196
SWIDTH 686 0
DWIDTH 5 0
BBX 6 7 0 -1
BITMAP
70
50
50
50
50
F0
90
ENDCHAR
STARTCHAR afii10022
ENCODING 197
SWIDTH 686 0
DWIDTH 5 0
BBX 6 7 0 -1
BITMAP
F0
80
E0
80
80
F0
00
ENDCHAR
STARTCHAR afii10024
ENCODING 198
SWIDTH 686 0
DWIDTH 5 0
BBX 6 7 0 -1
BITMAP
F0
F0
60
F0
F0
F0
00
ENDCHAR
STARTCHAR afii10025
ENCODING 199
SWIDTH 686 0
DWIDTH 5 0
BBX 6 7 0 -1
BITMAP
60
90
20
10
90
60
00
ENDCHAR
STARTCHAR afii10026
ENCODING 200
SWIDTH 686 0
DWIDTH 5 0
BBX 6 7 0 -1
BITMAP
90
B0
B0
D0
D0
90
00
ENDCHAR
STARTCHAR afii10027
ENCODING 201
SWIDTH 686 0
DWIDTH 5 0
BBX 6 7 0 -1
BITMAP
60
90
B0
B0
D0
D0
00
ENDCHAR
STARTCHAR afii10028
ENCODING 202
SWIDTH 686 0
DWIDTH 5 0
BBX 6 7 0 -1
BITMAP
90
A0
C0
C0
A0
90
00
ENDCHAR
STARTCHAR afii10029
ENCODING 203
SWIDTH 686 0
DWIDTH 5 0
BBX 6 7 0 -1
BITMAP
30
50
50
50
50
90
00
ENDCHAR
STARTCHAR afii10030
ENCODING 204
SWIDTH 686 0
DWIDTH 5 0
BBX 6 7 0 -1
BITMAP
90
F0
F0
90
90
90
00
ENDCHAR
STARTCHAR afii10031
ENCODING 205
SWIDTH 686 0
DWIDTH 5 0
BBX 6 7 0 -1
BITMAP
90
90
F0
90
90
90
00
ENDCHAR
STARTCHAR afii10032
ENCODING 206
SWIDTH 686 0
DWIDTH 5 0
BBX 6 7 0 -1
BITMAP
60
90
90
90
90
60
00
ENDCHAR
STARTCHAR afii10033
ENCODING 207
SWIDTH 686 0
DWIDTH 5 0
BBX 6 7 0 -1
BITMAP
F0
90
90
90
90
90
00
ENDCHAR
STARTCHAR afii10034
ENCODING 208
SWIDTH 686 0
DWIDTH 5 0
BBX 6 7 0 -1
BITMAP
E0
90
90
E0
80
80
00
ENDCHAR
STARTCHAR afii10035
ENCODING 209
SWIDTH 686 0
DWIDTH 5 0
BBX 6 7 0 -1
BITMAP
60
90
80
80
90
60
00
ENDCHAR
STARTCHAR afii10036
ENCODING 210
SWIDTH 686 0
DWIDTH 5 0
BBX 6 7 0 -1
BITMAP
E0
40
40
40
40
40
00
ENDCHAR
STARTCHAR afii10037
ENCODING 211
SWIDTH 686 0
DWIDTH 5 0
BBX 6 7 0 -1
BITMAP
90
90
90
60
20
40
00
ENDCHAR
STARTCHAR afii10038
ENCODING 212
SWIDTH 686 0
DWIDTH 5 0
BBX 6 7 0 -1
BITMAP
60
F0
F0
F0
F0
60
00
ENDCHAR
STARTCHAR afii10039
ENCODING 213
SWIDTH 686 0
DWIDTH 5 0
BBX 6 7 0 -1
BITMAP
90
90
60
60
90
90
00
ENDCHAR
STARTCHAR afii10040
ENCODING 214
SWIDTH 686 0
DWIDTH 5 0
BBX 6 7 0 -1
BITMAP
A0
A0
A0
A0
A0
F0
10
ENDCHAR
STARTCHAR afii10041
ENCODING 215
SWIDTH 686 0
DWIDTH 5 0
BBX 6 7 0 -1
BITMAP
90
90
90
70
10
10
00
ENDCHAR
STARTCHAR afii10042
ENCODING 216
SWIDTH 686 0
DWIDTH 5 0
BBX 6 7 0 -1
BITMAP
90
F0
F0
F0
F0
F0
00
ENDCHAR
STARTCHAR afii10043
ENCODING 217
SWIDTH 686 0
DWIDTH 5 0
BBX 6 7 0 -1
BITMAP
90
F0
F0
F0
F0
F0
10
ENDCHAR
STARTCHAR afii10044
ENCODING 218
SWIDTH 686 0
DWIDTH 5 0
BBX 6 7 0 -1
BITMAP
C0
40
60
50
50
60
00
ENDCHAR
STARTCHAR afii10045
ENCODING 219
SWIDTH 686 0
DWIDTH 5 0
BBX 6 7 0 -1
BITMAP
90
90
D0
B0
B0
D0
00
ENDCHAR
STARTCHAR afii10046
ENCODING 220
SWIDTH 686 0
DWIDTH 5 0
BBX 6 7 0 -1
BITMAP
80
80
E0
90
90
E0
00
ENDCHAR
STARTCHAR afii10047
ENCODING 221
SWIDTH 686 0
DWIDTH 5 0
BBX 6 7 0 -1
BITMAP
60
90
30
10
90
60
00
ENDCHAR
STARTCHAR afii10048
ENCODING 222
SWIDTH 686 0
DWIDTH 5 0
BBX 6 7 0 -1
BITMAP
B0
B0
F0
B0
B0
B0
00
ENDCHAR
STARTCHAR afii10049
ENCODING 223
SWIDTH 686 0
DWIDTH 5 0
BBX 6 7 0 -1
BITMAP
70
90
90
70
50
90
00
ENDCHAR
STARTCHAR afii10065
ENCODING 224
SWIDTH 686 0
DWIDTH 5 0
BBX 6 7 0 -1
BITMAP
00
00
70
90
B0
50
00
ENDCHAR
STARTCHAR afii10066
ENCODING 225
SWIDTH 686 0
DWIDTH 5 0
BBX 6 7 0 -1
BITMAP
70
80
E0
90
90
60
00
ENDCHAR
STARTCHAR afii10067
ENCODING 226
SWIDTH 686 0
DWIDTH 5 0
BBX 6 7 0 -1
BITMAP
00
00
F0
E0
90
E0
00
ENDCHAR
STARTCHAR afii10068
ENCODING 227
SWIDTH 686 0
DWIDTH 5 0
BBX 6 7 0 -1
BITMAP
00
00
F0
80
80
80
00
ENDCHAR
STARTCHAR afii10069
ENCODING 228
SWIDTH 686 0
DWIDTH 5 0
BBX 6 7 0 -1
BITMAP
00
00
70
50
50
F0
90
ENDCHAR
STARTCHAR afii10070
ENCODING 229
SWIDTH 686 0
DWIDTH 5 0
BBX 6 7 0 -1
BITMAP
00
00
60
B0
C0
60
00
ENDCHAR
STARTCHAR afii10072
ENCODING 230
SWIDTH 686 0
DWIDTH 5 0
BBX 6 7 0 -1
BITMAP
00
00
F0
60
F0
F0
00
ENDCHAR
STARTCHAR afii10073
ENCODING 231
SWIDTH 686 0
DWIDTH 5 0
BBX 6 7 0 -1
BITMAP
00
00
F0
60
10
E0
00
ENDCHAR
STARTCHAR afii10074
ENCODING 232
SWIDTH 686 0
DWIDTH 5 0
BBX 6 7 0 -1
BITMAP
00
00
90
B0
D0
90
00
ENDCHAR
STARTCHAR afii10075
ENCODING 233
SWIDTH 686 0
DWIDTH 5 0
BBX 6 7 0 -1
BITMAP
00
60
90
B0
D0
90
00
ENDCHAR
STARTCHAR afii10076
ENCODING 234
SWIDTH 686 0
DWIDTH 5 0
BBX 6 7 0 -1
BITMAP
00
00
A0
C0
A0
90
00
ENDCHAR
STARTCHAR afii10077
ENCODING 235
SWIDTH 686 0
DWIDTH 5 0
BBX 6 7 0 -1
BITMAP
00
00
30
50
50
90
00
ENDCHAR
STARTCHAR afii10078
ENCODING 236
SWIDTH 686 0
DWIDTH 5 0
BBX 6 7 0 -1
BITMAP
00
00
90
F0
F0
90
00
ENDCHAR
STARTCHAR afii10079
ENCODING 237
SWIDTH 686 0
DWIDTH 5 0
BBX 6 7 0 -1
BITMAP
00
00
90
F0
90
90
00
ENDCHAR
STARTCHAR afii10080
ENCODING 238
SWIDTH 686 0
DWIDTH 5 0
BBX 6 7 0 -1
BITMAP
00
00
60
90
90
60
00
ENDCHAR
STARTCHAR afii10081
ENCODING 239
SWIDTH 686 0
DWIDTH 5 0
BBX 6 7 0 -1
BITMAP
00
00
F0
90
90
90
00
ENDCHAR
STARTCHAR afii10082
ENCODING 240
SWIDTH 686 0
DWIDTH 5 0
BBX 6 7 0 -1
BITMAP
00
00
E0
90
90
E0
80
ENDCHAR
STARTCHAR afii10083
ENCODING 241
SWIDTH 686 0
DWIDTH 5 0
BBX 6 7 0 -1
BITMAP
00
00
60
80
80
60
00
ENDCHAR
STARTCHAR afii10084
ENCODING 242
SWIDTH 686 0
DWIDTH 5 0
BBX 6 7 0 -1
BITMAP
00
00
E0
40
40
40
00
ENDCHAR
STARTCHAR afii10085
ENCODING 243
SWIDTH 686 0
DWIDTH 5 0
BBX 6 7 0 -1
BITMAP
00
00
90
90
50
20
40
ENDCHAR
STARTCHAR afii10086
ENCODING 244
SWIDTH 686 0
DWIDTH 5 0
BBX 6 7 0 -1
BITMAP
60
60
F0
F0
F0
F0
60
ENDCHAR
STARTCHAR afii10087
ENCODING 245
SWIDTH 686 0
DWIDTH 5 0
BBX 6 7 0 -1
BITMAP
00
00
90
60
60
90
00
ENDCHAR
STARTCHAR afii10088
ENCODING 246
SWIDTH 686 0
DWIDTH 5 0
BBX 6 7 0 -1
BITMAP
00
00
A0
A0
A0
F0
10
ENDCHAR
STARTCHAR afii10089
ENCODING 247
SWIDTH 686 0
DWIDTH 5 0
BBX 6 7 0 -1
BITMAP
00
00
90
90
70
10
00
ENDCHAR
STARTCHAR afii10090
ENCODING 248
SWIDTH 686 0
DWIDTH 5 0
BBX 6 7 0 -1
BITMAP
00
00
90
F0
F0
F0
00
ENDCHAR
STARTCHAR afii10091
ENCODING 249
SWIDTH 686 0
DWIDTH 5 0
BBX 6 7 0 -1
BITMAP
00
00
90
F0
F0
F0
10
ENDCHAR
STARTCHAR afii10092
ENCODING 250
SWIDTH 686 0
DWIDTH 5 0
BBX 6 7 0 -1
BITMAP
00
00
C0
60
50
60
00
ENDCHAR
STARTCHAR afii10093
ENCODING 251
SWIDTH 686 0
DWIDTH 5 0
BBX 6 7 0 -1
BITMAP
00
00
90
D0
B0
D0
00
ENDCHAR
STARTCHAR afii10094
ENCODING 252
SWIDTH 686 0
DWIDTH 5 0
BBX 6 7 0 -1
BITMAP
00
00
80
E0
90
E0
00
ENDCHAR
STARTCHAR afii10095
ENCODING 253
SWIDTH 686 0
DWIDTH 5 0
BBX 6 7 0 -1
BITMAP
00
00
C0
60
20
C0
00
ENDCHAR
STARTCHAR afii10096
ENCODING 254
SWIDTH 686 0
DWIDTH 5 0
BBX 6 7 0 -1
BITMAP
00
00
B0
F0
B0
B0
00
ENDCHAR
STARTCHAR afii10097
ENCODING 255
SWIDTH 686 0
DWIDTH 5 0
BBX 6 7 0 -1
BITMAP
00
00
70
90
70
90
00
ENDCHAR
STARTCHAR tilde
ENCODING -1
SWIDTH 686 0
DWIDTH 5 0
BBX 6 7 0 -1
BITMAP
50
A0
00
00
00
00
00
ENDCHAR
STARTCHAR florin
ENCODING -1
SWIDTH 686 0
DWIDTH 5 0
BBX 6 7 0 -1
BITMAP
30
40
40
E0
40
40
80
ENDCHAR
STARTCHAR circumflex
ENCODING -1
SWIDTH 686 0
DWIDTH 5 0
BBX 6 7 0 -1
BITMAP
40
A0
00
00
00
00
00
ENDCHAR
STARTCHAR OE
ENCODING -1
SWIDTH 686 0
DWIDTH 5 0
BBX 6 7 0 -1
BITMAP
70
A0
B0
A0
A0
70
00
ENDCHAR
STARTCHAR oe
ENCODING -1
SWIDTH 686 0
DWIDTH 5 0
BBX 6 7 0 -1
BITMAP
00
00
70
B0
A0
70
00
ENDCHAR
STARTCHAR Scaron
ENCODING -1
SWIDTH 686 0
DWIDTH 5 0
BBX 6 7 0 -1
BITMAP
60
90
40
20
90
60
00
ENDCHAR
STARTCHAR scaron
ENCODING -1
SWIDTH 686 0
DWIDTH 5 0
BBX 6 7 0 -1
BITMAP
60
00
70
C0
30
E0
00
ENDCHAR
STARTCHAR Zcaron
ENCODING -1
SWIDTH 686 0
DWIDTH 5 0
BBX 6 7 0 -1
BITMAP
F0
10
20
40
80
F0
00
ENDCHAR
STARTCHAR zcaron
ENCODING -1
SWIDTH 686 0
DWIDTH 5 0
BBX 6 7 0 -1
BITMAP
60
00
F0
20
40
F0
00
ENDCHAR
STARTCHAR Ydieresis
ENCODING -1
SWIDTH 686 0
DWIDTH 5 0
BBX 6 7 0 -1
BITMAP
A0
A0
A0
40
40
40
00
ENDCHAR
ENDFONT
