STARTFONT 2.1
COMMENT $XConsortium: 6x13.bdf,v 1.13 92/04/02 14:24:50 gildea Exp $
COMMENT ""
COMMENT Characters above 127 designed and made by
COMMENT Thomas Bagli (pyramid!pcsbst!tom@uunet.UU.NET)
COMMENT PCS Computer Systeme, West Germany
COMMENT ""
FONT -Misc-Fixed-Medium-R-SemiCondensed--13-120-75-75-C-60-windows-1251
SIZE 13 78 78
FONTBOUNDINGBOX 6 13 0 -2
STARTPROPERTIES 23
FONTNAME_REGISTRY ""
FOUNDRY "Misc"
FAMILY_NAME "Fixed"
WEIGHT_NAME "Medium"
SLANT "R"
SETWIDTH_NAME "SemiCondensed"
ADD_STYLE_NAME ""
PIXEL_SIZE 13
POINT_SIZE 120
RESOLUTION_X 75
RESOLUTION_Y 75
SPACING "C"
AVERAGE_WIDTH 60
CHARSET_REGISTRY "windows"
CHARSET_ENCODING "1251"
DEFAULT_CHAR 0
FONT_DESCENT 2
FONT_ASCENT 11
COPYRIGHT "Public domain font.  Share and enjoy."
COPYRIGHT2 "Cyrillic, Euro and special glyphs copyright 2000 Dmitry Yu. Bolkhovityanov, bolkhov@inp.nsk.su"
SOURCEDATE "Sat Oct  7 19:43:49 2000"
PKGVERSION "1.1"
ASSEMBLER "cvtbdf.pl (Linux)"
ENDPROPERTIES
CHARS 265
STARTCHAR null
ENCODING 0
SWIDTH 461 0
DWIDTH 6 0
BBX 6 13 0 -2
BITMAP
00
78
78
78
78
78
78
78
78
78
78
78
00
ENDCHAR
STARTCHAR ctrlA
ENCODING 1
SWIDTH 461 0
DWIDTH 6 0
BBX 6 13 0 -2
BITMAP
00
00
00
00
00
20
70
F8
70
20
00
00
00
ENDCHAR
STARTCHAR ctrlB
ENCODING 2
SWIDTH 461 0
DWIDTH 6 0
BBX 6 13 0 -2
BITMAP
00
54
A8
54
A8
54
A8
54
A8
54
A8
54
A8
ENDCHAR
STARTCHAR ctrlC
ENCODING 3
SWIDTH 461 0
DWIDTH 6 0
BBX 6 13 0 -2
BITMAP
00
00
00
00
A0
A0
E0
A0
A0
70
20
20
20
ENDCHAR
STARTCHAR ctrlD
ENCODING 4
SWIDTH 461 0
DWIDTH 6 0
BBX 6 13 0 -2
BITMAP
00
00
00
00
E0
80
C0
80
F0
40
60
40
40
ENDCHAR
STARTCHAR ctrlE
ENCODING 5
SWIDTH 461 0
DWIDTH 6 0
BBX 6 13 0 -2
BITMAP
00
00
00
00
70
80
80
70
70
48
70
50
48
ENDCHAR
STARTCHAR ctrlF
ENCODING 6
SWIDTH 461 0
DWIDTH 6 0
BBX 6 13 0 -2
BITMAP
00
00
00
00
80
80
80
E0
70
40
60
40
40
ENDCHAR
STARTCHAR ctrlG
ENCODING 7
SWIDTH 461 0
DWIDTH 6 0
BBX 6 13 0 -2
BITMAP
00
00
60
90
90
60
00
00
00
00
00
00
00
ENDCHAR
STARTCHAR ctrlH
ENCODING 8
SWIDTH 461 0
DWIDTH 6 0
BBX 6 13 0 -2
BITMAP
00
00
00
00
20
20
F8
20
20
00
F8
00
00
ENDCHAR
STARTCHAR ctrlI
ENCODING 9
SWIDTH 461 0
DWIDTH 6 0
BBX 6 13 0 -2
BITMAP
00
00
00
00
88
C8
A8
98
88
40
40
40
78
ENDCHAR
STARTCHAR ctrlJ
ENCODING 10
SWIDTH 461 0
DWIDTH 6 0
BBX 6 13 0 -2
BITMAP
00
00
00
00
88
88
50
20
00
F8
20
20
20
ENDCHAR
STARTCHAR ldcornsqlr
ENCODING 11
SWIDTH 461 0
DWIDTH 6 0
BBX 6 13 0 -2
BITMAP
20
20
20
20
20
20
20
E0
00
00
00
00
00
ENDCHAR
STARTCHAR ldcornsqur
ENCODING 12
SWIDTH 461 0
DWIDTH 6 0
BBX 6 13 0 -2
BITMAP
00
00
00
00
00
00
00
E0
20
20
20
20
20
ENDCHAR
STARTCHAR ldcornsqul
ENCODING 13
SWIDTH 461 0
DWIDTH 6 0
BBX 6 13 0 -2
BITMAP
00
00
00
00
00
00
00
3C
20
20
20
20
20
ENDCHAR
STARTCHAR ldcornsqll
ENCODING 14
SWIDTH 461 0
DWIDTH 6 0
BBX 6 13 0 -2
BITMAP
20
20
20
20
20
20
20
3C
00
00
00
00
00
ENDCHAR
STARTCHAR ldcross
ENCODING 15
SWIDTH 461 0
DWIDTH 6 0
BBX 6 13 0 -2
BITMAP
20
20
20
20
20
20
20
FC
20
20
20
20
20
ENDCHAR
STARTCHAR ctrlP
ENCODING 16
SWIDTH 461 0
DWIDTH 6 0
BBX 6 13 0 -2
BITMAP
00
00
00
FC
00
00
00
00
00
00
00
00
00
ENDCHAR
STARTCHAR ctrlQ
ENCODING 17
SWIDTH 461 0
DWIDTH 6 0
BBX 6 13 0 -2
BITMAP
00
00
00
00
00
FC
00
00
00
00
00
00
00
ENDCHAR
STARTCHAR ldhorizontal
ENCODING 18
SWIDTH 461 0
DWIDTH 6 0
BBX 6 13 0 -2
BITMAP
00
00
00
00
00
00
00
FC
00
00
00
00
00
ENDCHAR
STARTCHAR ctrlS
ENCODING 19
SWIDTH 461 0
DWIDTH 6 0
BBX 6 13 0 -2
BITMAP
00
00
00
00
00
00
00
00
00
FC
00
00
00
ENDCHAR
STARTCHAR ctrlT
ENCODING 20
SWIDTH 461 0
DWIDTH 6 0
BBX 6 13 0 -2
BITMAP
00
00
00
00
00
00
00
00
00
00
00
FC
00
ENDCHAR
STARTCHAR ldteelft
ENCODING 21
SWIDTH 461 0
DWIDTH 6 0
BBX 6 13 0 -2
BITMAP
20
20
20
20
20
20
20
3C
20
20
20
20
20
ENDCHAR
STARTCHAR ldteert
ENCODING 22
SWIDTH 461 0
DWIDTH 6 0
BBX 6 13 0 -2
BITMAP
20
20
20
20
20
20
20
E0
20
20
20
20
20
ENDCHAR
STARTCHAR ldteebt
ENCODING 23
SWIDTH 461 0
DWIDTH 6 0
BBX 6 13 0 -2
BITMAP
20
20
20
20
20
20
20
FC
00
00
00
00
00
ENDCHAR
STARTCHAR ldteetp
ENCODING 24
SWIDTH 461 0
DWIDTH 6 0
BBX 6 13 0 -2
BITMAP
00
00
00
00
00
00
00
FC
20
20
20
20
20
ENDCHAR
STARTCHAR ldvertical
ENCODING 25
SWIDTH 461 0
DWIDTH 6 0
BBX 6 13 0 -2
BITMAP
20
20
20
20
20
20
20
20
20
20
20
20
20
ENDCHAR
STARTCHAR ctrlZ
ENCODING 26
SWIDTH 461 0
DWIDTH 6 0
BBX 6 13 0 -2
BITMAP
00
00
00
08
10
20
40
20
10
08
F8
00
00
ENDCHAR
STARTCHAR ctrlBRL
ENCODING 27
SWIDTH 461 0
DWIDTH 6 0
BBX 6 13 0 -2
BITMAP
00
00
00
80
40
20
10
20
40
80
F8
00
00
ENDCHAR
STARTCHAR ctrlBSLASH
ENCODING 28
SWIDTH 461 0
DWIDTH 6 0
BBX 6 13 0 -2
BITMAP
00
00
00
00
00
F8
50
50
50
50
90
00
00
ENDCHAR
STARTCHAR ctrlBRR
ENCODING 29
SWIDTH 461 0
DWIDTH 6 0
BBX 6 13 0 -2
BITMAP
00
00
00
00
00
08
F8
20
F8
80
00
00
00
ENDCHAR
STARTCHAR ctrlCARET
ENCODING 30
SWIDTH 461 0
DWIDTH 6 0
BBX 6 13 0 -2
BITMAP
00
00
30
48
40
40
E0
40
40
48
B0
00
00
ENDCHAR
STARTCHAR ctrlUND
ENCODING 31
SWIDTH 461 0
DWIDTH 6 0
BBX 6 13 0 -2
BITMAP
00
00
00
00
00
00
00
00
20
00
00
00
00
ENDCHAR
STARTCHAR space
ENCODING 32
SWIDTH 461 0
DWIDTH 6 0
BBX 6 13 0 -2
BITMAP
00
00
00
00
00
00
00
00
00
00
00
00
00
ENDCHAR
STARTCHAR exclam
ENCODING 33
SWIDTH 461 0
DWIDTH 6 0
BBX 6 13 0 -2
BITMAP
00
00
20
20
20
20
20
20
20
00
20
00
00
ENDCHAR
STARTCHAR quotedbl
ENCODING 34
SWIDTH 461 0
DWIDTH 6 0
BBX 6 13 0 -2
BITMAP
00
00
50
50
50
00
00
00
00
00
00
00
00
ENDCHAR
STARTCHAR numbersign
ENCODING 35
SWIDTH 461 0
DWIDTH 6 0
BBX 6 13 0 -2
BITMAP
00
00
00
50
50
F8
50
F8
50
50
00
00
00
ENDCHAR
STARTCHAR dollar
ENCODING 36
SWIDTH 461 0
DWIDTH 6 0
BBX 6 13 0 -2
BITMAP
00
00
20
78
A0
A0
70
28
28
F0
20
00
00
ENDCHAR
STARTCHAR percent
ENCODING 37
SWIDTH 461 0
DWIDTH 6 0
BBX 6 13 0 -2
BITMAP
00
00
48
A8
50
10
20
40
50
A8
90
00
00
ENDCHAR
STARTCHAR ampersand
ENCODING 38
SWIDTH 461 0
DWIDTH 6 0
BBX 6 13 0 -2
BITMAP
00
00
40
A0
A0
40
A0
98
90
68
00
00
00
ENDCHAR
STARTCHAR quotesingle
ENCODING 39
SWIDTH 461 0
DWIDTH 6 0
BBX 6 13 0 -2
BITMAP
00
00
20
20
20
00
00
00
00
00
00
00
00
ENDCHAR
STARTCHAR parenleft
ENCODING 40
SWIDTH 461 0
DWIDTH 6 0
BBX 6 13 0 -2
BITMAP
00
00
10
20
20
40
40
40
20
20
10
00
00
ENDCHAR
STARTCHAR parenright
ENCODING 41
SWIDTH 461 0
DWIDTH 6 0
BBX 6 13 0 -2
BITMAP
00
00
40
20
20
10
10
10
20
20
40
00
00
ENDCHAR
STARTCHAR asterisk
ENCODING 42
SWIDTH 461 0
DWIDTH 6 0
BBX 6 13 0 -2
BITMAP
00
00
00
20
A8
F8
70
F8
A8
20
00
00
00
ENDCHAR
STARTCHAR plus
ENCODING 43
SWIDTH 461 0
DWIDTH 6 0
BBX 6 13 0 -2
BITMAP
00
00
00
00
20
20
F8
20
20
00
00
00
00
ENDCHAR
STARTCHAR comma
ENCODING 44
SWIDTH 461 0
DWIDTH 6 0
BBX 6 13 0 -2
BITMAP
00
00
00
00
00
00
00
00
00
30
20
40
00
ENDCHAR
STARTCHAR minus
ENCODING 45
SWIDTH 461 0
DWIDTH 6 0
BBX 6 13 0 -2
BITMAP
00
00
00
00
00
00
F8
00
00
00
00
00
00
ENDCHAR
STARTCHAR period
ENCODING 46
SWIDTH 461 0
DWIDTH 6 0
BBX 6 13 0 -2
BITMAP
00
00
00
00
00
00
00
00
00
20
70
20
00
ENDCHAR
STARTCHAR slash
ENCODING 47
SWIDTH 461 0
DWIDTH 6 0
BBX 6 13 0 -2
BITMAP
00
00
08
08
10
10
20
40
40
80
80
00
00
ENDCHAR
STARTCHAR zero
ENCODING 48
SWIDTH 461 0
DWIDTH 6 0
BBX 6 13 0 -2
BITMAP
00
00
20
50
88
88
88
88
88
50
20
00
00
ENDCHAR
STARTCHAR one
ENCODING 49
SWIDTH 461 0
DWIDTH 6 0
BBX 6 13 0 -2
BITMAP
00
00
20
60
A0
20
20
20
20
20
F8
00
00
ENDCHAR
STARTCHAR two
ENCODING 50
SWIDTH 461 0
DWIDTH 6 0
BBX 6 13 0 -2
BITMAP
00
00
70
88
88
08
10
20
40
80
F8
00
00
ENDCHAR
STARTCHAR three
ENCODING 51
SWIDTH 461 0
DWIDTH 6 0
BBX 6 13 0 -2
BITMAP
00
00
F8
08
10
20
70
08
08
88
70
00
00
ENDCHAR
STARTCHAR four
ENCODING 52
SWIDTH 461 0
DWIDTH 6 0
BBX 6 13 0 -2
BITMAP
00
00
10
10
30
50
50
90
F8
10
10
00
00
ENDCHAR
STARTCHAR five
ENCODING 53
SWIDTH 461 0
DWIDTH 6 0
BBX 6 13 0 -2
BITMAP
00
00
F8
80
80
B0
C8
08
08
88
70
00
00
ENDCHAR
STARTCHAR six
ENCODING 54
SWIDTH 461 0
DWIDTH 6 0
BBX 6 13 0 -2
BITMAP
00
00
70
88
80
80
F0
88
88
88
70
00
00
ENDCHAR
STARTCHAR seven
ENCODING 55
SWIDTH 461 0
DWIDTH 6 0
BBX 6 13 0 -2
BITMAP
00
00
F8
08
10
10
20
20
40
40
40
00
00
ENDCHAR
STARTCHAR eight
ENCODING 56
SWIDTH 461 0
DWIDTH 6 0
BBX 6 13 0 -2
BITMAP
00
00
70
88
88
88
70
88
88
88
70
00
00
ENDCHAR
STARTCHAR nine
ENCODING 57
SWIDTH 461 0
DWIDTH 6 0
BBX 6 13 0 -2
BITMAP
00
00
70
88
88
88
78
08
08
88
70
00
00
ENDCHAR
STARTCHAR colon
ENCODING 58
SWIDTH 461 0
DWIDTH 6 0
BBX 6 13 0 -2
BITMAP
00
00
00
00
20
70
20
00
00
20
70
20
00
ENDCHAR
STARTCHAR semicolon
ENCODING 59
SWIDTH 461 0
DWIDTH 6 0
BBX 6 13 0 -2
BITMAP
00
00
00
00
20
70
20
00
00
30
20
40
00
ENDCHAR
STARTCHAR less
ENCODING 60
SWIDTH 461 0
DWIDTH 6 0
BBX 6 13 0 -2
BITMAP
00
00
08
10
20
40
80
40
20
10
08
00
00
ENDCHAR
STARTCHAR equal
ENCODING 61
SWIDTH 461 0
DWIDTH 6 0
BBX 6 13 0 -2
BITMAP
00
00
00
00
00
F8
00
00
F8
00
00
00
00
ENDCHAR
STARTCHAR greater
ENCODING 62
SWIDTH 461 0
DWIDTH 6 0
BBX 6 13 0 -2
BITMAP
00
00
80
40
20
10
08
10
20
40
80
00
00
ENDCHAR
STARTCHAR question
ENCODING 63
SWIDTH 461 0
DWIDTH 6 0
BBX 6 13 0 -2
BITMAP
00
00
70
88
88
08
10
20
20
00
20
00
00
ENDCHAR
STARTCHAR at
ENCODING 64
SWIDTH 461 0
DWIDTH 6 0
BBX 6 13 0 -2
BITMAP
00
00
70
88
88
98
A8
A8
B0
80
78
00
00
ENDCHAR
STARTCHAR A
ENCODING 65
SWIDTH 461 0
DWIDTH 6 0
BBX 6 13 0 -2
BITMAP
00
00
20
50
88
88
88
F8
88
88
88
00
00
ENDCHAR
STARTCHAR B
ENCODING 66
SWIDTH 461 0
DWIDTH 6 0
BBX 6 13 0 -2
BITMAP
00
00
F0
48
48
48
70
48
48
48
F0
00
00
ENDCHAR
STARTCHAR C
ENCODING 67
SWIDTH 461 0
DWIDTH 6 0
BBX 6 13 0 -2
BITMAP
00
00
70
88
80
80
80
80
80
88
70
00
00
ENDCHAR
STARTCHAR D
ENCODING 68
SWIDTH 461 0
DWIDTH 6 0
BBX 6 13 0 -2
BITMAP
00
00
F0
48
48
48
48
48
48
48
F0
00
00
ENDCHAR
STARTCHAR E
ENCODING 69
SWIDTH 461 0
DWIDTH 6 0
BBX 6 13 0 -2
BITMAP
00
00
F8
80
80
80
F0
80
80
80
F8
00
00
ENDCHAR
STARTCHAR F
ENCODING 70
SWIDTH 461 0
DWIDTH 6 0
BBX 6 13 0 -2
BITMAP
00
00
F8
80
80
80
F0
80
80
80
80
00
00
ENDCHAR
STARTCHAR G
ENCODING 71
SWIDTH 461 0
DWIDTH 6 0
BBX 6 13 0 -2
BITMAP
00
00
70
88
80
80
80
98
88
88
70
00
00
ENDCHAR
STARTCHAR H
ENCODING 72
SWIDTH 461 0
DWIDTH 6 0
BBX 6 13 0 -2
BITMAP
00
00
88
88
88
88
F8
88
88
88
88
00
00
ENDCHAR
STARTCHAR I
ENCODING 73
SWIDTH 461 0
DWIDTH 6 0
BBX 6 13 0 -2
BITMAP
00
00
70
20
20
20
20
20
20
20
70
00
00
ENDCHAR
STARTCHAR J
ENCODING 74
SWIDTH 461 0
DWIDTH 6 0
BBX 6 13 0 -2
BITMAP
00
00
38
10
10
10
10
10
10
90
60
00
00
ENDCHAR
STARTCHAR K
ENCODING 75
SWIDTH 461 0
DWIDTH 6 0
BBX 6 13 0 -2
BITMAP
00
00
88
88
90
A0
C0
A0
90
88
88
00
00
ENDCHAR
STARTCHAR L
ENCODING 76
SWIDTH 461 0
DWIDTH 6 0
BBX 6 13 0 -2
BITMAP
00
00
80
80
80
80
80
80
80
80
F8
00
00
ENDCHAR
STARTCHAR M
ENCODING 77
SWIDTH 461 0
DWIDTH 6 0
BBX 6 13 0 -2
BITMAP
00
00
88
88
D8
A8
A8
88
88
88
88
00
00
ENDCHAR
STARTCHAR N
ENCODING 78
SWIDTH 461 0
DWIDTH 6 0
BBX 6 13 0 -2
BITMAP
00
00
88
C8
C8
A8
A8
98
98
88
88
00
00
ENDCHAR
STARTCHAR O
ENCODING 79
SWIDTH 461 0
DWIDTH 6 0
BBX 6 13 0 -2
BITMAP
00
00
70
88
88
88
88
88
88
88
70
00
00
ENDCHAR
STARTCHAR P
ENCODING 80
SWIDTH 461 0
DWIDTH 6 0
BBX 6 13 0 -2
BITMAP
00
00
F0
88
88
88
F0
80
80
80
80
00
00
ENDCHAR
STARTCHAR Q
ENCODING 81
SWIDTH 461 0
DWIDTH 6 0
BBX 6 13 0 -2
BITMAP
00
00
70
88
88
88
88
88
88
A8
70
08
00
ENDCHAR
STARTCHAR R
ENCODING 82
SWIDTH 461 0
DWIDTH 6 0
BBX 6 13 0 -2
BITMAP
00
00
F0
88
88
88
F0
A0
90
88
88
00
00
ENDCHAR
STARTCHAR S
ENCODING 83
SWIDTH 461 0
DWIDTH 6 0
BBX 6 13 0 -2
BITMAP
00
00
70
88
80
80
70
08
08
88
70
00
00
ENDCHAR
STARTCHAR T
ENCODING 84
SWIDTH 461 0
DWIDTH 6 0
BBX 6 13 0 -2
BITMAP
00
00
F8
20
20
20
20
20
20
20
20
00
00
ENDCHAR
STARTCHAR U
ENCODING 85
SWIDTH 461 0
DWIDTH 6 0
BBX 6 13 0 -2
BITMAP
00
00
88
88
88
88
88
88
88
88
70
00
00
ENDCHAR
STARTCHAR V
ENCODING 86
SWIDTH 461 0
DWIDTH 6 0
BBX 6 13 0 -2
BITMAP
00
00
88
88
88
88
50
50
50
20
20
00
00
ENDCHAR
STARTCHAR W
ENCODING 87
SWIDTH 461 0
DWIDTH 6 0
BBX 6 13 0 -2
BITMAP
00
00
88
88
88
88
A8
A8
A8
D8
88
00
00
ENDCHAR
STARTCHAR X
ENCODING 88
SWIDTH 461 0
DWIDTH 6 0
BBX 6 13 0 -2
BITMAP
00
00
88
88
50
50
20
50
50
88
88
00
00
ENDCHAR
STARTCHAR Y
ENCODING 89
SWIDTH 461 0
DWIDTH 6 0
BBX 6 13 0 -2
BITMAP
00
00
88
88
50
50
20
20
20
20
20
00
00
ENDCHAR
STARTCHAR Z
ENCODING 90
SWIDTH 461 0
DWIDTH 6 0
BBX 6 13 0 -2
BITMAP
00
00
F8
08
10
10
20
40
40
80
F8
00
00
ENDCHAR
STARTCHAR bracketleft
ENCODING 91
SWIDTH 461 0
DWIDTH 6 0
BBX 6 13 0 -2
BITMAP
00
00
70
40
40
40
40
40
40
40
70
00
00
ENDCHAR
STARTCHAR backslash
ENCODING 92
SWIDTH 461 0
DWIDTH 6 0
BBX 6 13 0 -2
BITMAP
00
00
80
80
40
40
20
10
10
08
08
00
00
ENDCHAR
STARTCHAR bracketright
ENCODING 93
SWIDTH 461 0
DWIDTH 6 0
BBX 6 13 0 -2
BITMAP
00
00
70
10
10
10
10
10
10
10
70
00
00
ENDCHAR
STARTCHAR asciicircum
ENCODING 94
SWIDTH 461 0
DWIDTH 6 0
BBX 6 13 0 -2
BITMAP
00
00
20
50
88
00
00
00
00
00
00
00
00
ENDCHAR
STARTCHAR underscore
ENCODING 95
SWIDTH 461 0
DWIDTH 6 0
BBX 6 13 0 -2
BITMAP
00
00
00
00
00
00
00
00
00
00
00
F8
00
ENDCHAR
STARTCHAR grave
ENCODING 96
SWIDTH 461 0
DWIDTH 6 0
BBX 6 13 0 -2
BITMAP
00
20
10
00
00
00
00
00
00
00
00
00
00
ENDCHAR
STARTCHAR a
ENCODING 97
SWIDTH 461 0
DWIDTH 6 0
BBX 6 13 0 -2
BITMAP
00
00
00
00
00
70
08
78
88
88
78
00
00
ENDCHAR
STARTCHAR b
ENCODING 98
SWIDTH 461 0
DWIDTH 6 0
BBX 6 13 0 -2
BITMAP
00
00
80
80
80
F0
88
88
88
88
F0
00
00
ENDCHAR
STARTCHAR c
ENCODING 99
SWIDTH 461 0
DWIDTH 6 0
BBX 6 13 0 -2
BITMAP
00
00
00
00
00
70
88
80
80
88
70
00
00
ENDCHAR
STARTCHAR d
ENCODING 100
SWIDTH 461 0
DWIDTH 6 0
BBX 6 13 0 -2
BITMAP
00
00
08
08
08
78
88
88
88
88
78
00
00
ENDCHAR
STARTCHAR e
ENCODING 101
SWIDTH 461 0
DWIDTH 6 0
BBX 6 13 0 -2
BITMAP
00
00
00
00
00
70
88
F8
80
88
70
00
00
ENDCHAR
STARTCHAR f
ENCODING 102
SWIDTH 461 0
DWIDTH 6 0
BBX 6 13 0 -2
BITMAP
00
00
30
48
40
40
F0
40
40
40
40
00
00
ENDCHAR
STARTCHAR g
ENCODING 103
SWIDTH 461 0
DWIDTH 6 0
BBX 6 13 0 -2
BITMAP
00
00
00
00
00
70
88
88
88
78
08
88
70
ENDCHAR
STARTCHAR h
ENCODING 104
SWIDTH 461 0
DWIDTH 6 0
BBX 6 13 0 -2
BITMAP
00
00
80
80
80
B0
C8
88
88
88
88
00
00
ENDCHAR
STARTCHAR i
ENCODING 105
SWIDTH 461 0
DWIDTH 6 0
BBX 6 13 0 -2
BITMAP
00
00
00
20
00
60
20
20
20
20
70
00
00
ENDCHAR
STARTCHAR j
ENCODING 106
SWIDTH 461 0
DWIDTH 6 0
BBX 6 13 0 -2
BITMAP
00
00
00
10
00
30
10
10
10
10
90
90
60
ENDCHAR
STARTCHAR k
ENCODING 107
SWIDTH 461 0
DWIDTH 6 0
BBX 6 13 0 -2
BITMAP
00
00
80
80
80
90
A0
C0
A0
90
88
00
00
ENDCHAR
STARTCHAR l
ENCODING 108
SWIDTH 461 0
DWIDTH 6 0
BBX 6 13 0 -2
BITMAP
00
00
60
20
20
20
20
20
20
20
70
00
00
ENDCHAR
STARTCHAR m
ENCODING 109
SWIDTH 461 0
DWIDTH 6 0
BBX 6 13 0 -2
BITMAP
00
00
00
00
00
D0
A8
A8
A8
A8
88
00
00
ENDCHAR
STARTCHAR n
ENCODING 110
SWIDTH 461 0
DWIDTH 6 0
BBX 6 13 0 -2
BITMAP
00
00
00
00
00
B0
C8
88
88
88
88
00
00
ENDCHAR
STARTCHAR o
ENCODING 111
SWIDTH 461 0
DWIDTH 6 0
BBX 6 13 0 -2
BITMAP
00
00
00
00
00
70
88
88
88
88
70
00
00
ENDCHAR
STARTCHAR p
ENCODING 112
SWIDTH 461 0
DWIDTH 6 0
BBX 6 13 0 -2
BITMAP
00
00
00
00
00
F0
88
88
88
F0
80
80
80
ENDCHAR
STARTCHAR q
ENCODING 113
SWIDTH 461 0
DWIDTH 6 0
BBX 6 13 0 -2
BITMAP
00
00
00
00
00
78
88
88
88
78
08
08
08
ENDCHAR
STARTCHAR r
ENCODING 114
SWIDTH 461 0
DWIDTH 6 0
BBX 6 13 0 -2
BITMAP
00
00
00
00
00
B0
C8
80
80
80
80
00
00
ENDCHAR
STARTCHAR s
ENCODING 115
SWIDTH 461 0
DWIDTH 6 0
BBX 6 13 0 -2
BITMAP
00
00
00
00
00
70
88
60
10
88
70
00
00
ENDCHAR
STARTCHAR t
ENCODING 116
SWIDTH 461 0
DWIDTH 6 0
BBX 6 13 0 -2
BITMAP
00
00
00
40
40
F0
40
40
40
48
30
00
00
ENDCHAR
STARTCHAR u
ENCODING 117
SWIDTH 461 0
DWIDTH 6 0
BBX 6 13 0 -2
BITMAP
00
00
00
00
00
88
88
88
88
98
68
00
00
ENDCHAR
STARTCHAR v
ENCODING 118
SWIDTH 461 0
DWIDTH 6 0
BBX 6 13 0 -2
BITMAP
00
00
00
00
00
88
88
88
50
50
20
00
00
ENDCHAR
STARTCHAR w
ENCODING 119
SWIDTH 461 0
DWIDTH 6 0
BBX 6 13 0 -2
BITMAP
00
00
00
00
00
88
88
A8
A8
A8
50
00
00
ENDCHAR
STARTCHAR x
ENCODING 120
SWIDTH 461 0
DWIDTH 6 0
BBX 6 13 0 -2
BITMAP
00
00
00
00
00
88
50
20
20
50
88
00
00
ENDCHAR
STARTCHAR y
ENCODING 121
SWIDTH 461 0
DWIDTH 6 0
BBX 6 13 0 -2
BITMAP
00
00
00
00
00
88
88
88
98
68
08
88
70
ENDCHAR
STARTCHAR z
ENCODING 122
SWIDTH 461 0
DWIDTH 6 0
BBX 6 13 0 -2
BITMAP
00
00
00
00
00
F8
10
20
40
80
F8
00
00
ENDCHAR
STARTCHAR braceleft
ENCODING 123
SWIDTH 461 0
DWIDTH 6 0
BBX 6 13 0 -2
BITMAP
00
00
18
20
20
20
C0
20
20
20
18
00
00
ENDCHAR
STARTCHAR bar
ENCODING 124
SWIDTH 461 0
DWIDTH 6 0
BBX 6 13 0 -2
BITMAP
00
00
20
20
20
20
20
20
20
20
20
00
00
ENDCHAR
STARTCHAR braceright
ENCODING 125
SWIDTH 461 0
DWIDTH 6 0
BBX 6 13 0 -2
BITMAP
00
00
C0
20
20
20
18
20
20
20
C0
00
00
ENDCHAR
STARTCHAR asciitilde
ENCODING 126
SWIDTH 461 0
DWIDTH 6 0
BBX 6 13 0 -2
BITMAP
00
00
48
A8
90
00
00
00
00
00
00
00
00
ENDCHAR
STARTCHAR delete
ENCODING 127
SWIDTH 461 0
DWIDTH 6 0
BBX 6 13 0 -2
BITMAP
00
00
00
00
00
00
00
00
00
00
00
00
00
ENDCHAR
STARTCHAR afii10051
ENCODING 128
SWIDTH 461 0
DWIDTH 6 0
BBX 6 13 0 -2
BITMAP
00
00
F0
80
80
80
F0
88
88
88
B0
00
00
ENDCHAR
STARTCHAR afii10052
ENCODING 129
SWIDTH 461 0
DWIDTH 6 0
BBX 6 13 0 -2
BITMAP
00
10
20
00
F8
80
80
80
80
80
80
00
00
ENDCHAR
STARTCHAR quotesinglbase
ENCODING 130
SWIDTH 461 0
DWIDTH 6 0
BBX 6 13 0 -2
BITMAP
00
00
00
00
00
00
00
00
00
30
20
40
00
ENDCHAR
STARTCHAR afii10100
ENCODING 131
SWIDTH 461 0
DWIDTH 6 0
BBX 6 13 0 -2
BITMAP
00
10
20
00
00
F8
80
80
80
80
80
00
00
ENDCHAR
STARTCHAR quotedblbase
ENCODING 132
SWIDTH 461 0
DWIDTH 6 0
BBX 6 13 0 -2
BITMAP
00
00
00
00
00
00
00
00
00
6C
48
90
00
ENDCHAR
STARTCHAR ellipsis
ENCODING 133
SWIDTH 461 0
DWIDTH 6 0
BBX 6 13 0 -2
BITMAP
00
00
00
00
00
00
00
00
00
A8
A8
00
00
ENDCHAR
STARTCHAR dagger
ENCODING 134
SWIDTH 461 0
DWIDTH 6 0
BBX 6 13 0 -2
BITMAP
00
00
20
20
F8
20
20
20
20
20
20
00
00
ENDCHAR
STARTCHAR daggerdbl
ENCODING 135
SWIDTH 461 0
DWIDTH 6 0
BBX 6 13 0 -2
BITMAP
00
00
20
20
F8
20
20
F8
20
20
20
00
00
ENDCHAR
STARTCHAR Euro
ENCODING 136
SWIDTH 461 0
DWIDTH 6 0
BBX 6 13 0 -2
BITMAP
00
00
30
48
40
F0
40
F0
40
48
30
00
00
ENDCHAR
STARTCHAR perthousand
ENCODING 137
SWIDTH 461 0
DWIDTH 6 0
BBX 6 13 0 -2
BITMAP
00
00
80
80
08
10
20
40
80
28
28
00
00
ENDCHAR
STARTCHAR afii10058
ENCODING 138
SWIDTH 461 0
DWIDTH 6 0
BBX 6 13 0 -2
BITMAP
00
00
60
A0
A0
A0
B0
A8
A8
A8
B0
00
00
ENDCHAR
STARTCHAR guilsinglleft
ENCODING 139
SWIDTH 461 0
DWIDTH 6 0
BBX 6 13 0 -2
BITMAP
00
00
00
00
10
20
40
40
20
10
00
00
00
ENDCHAR
STARTCHAR afii10059
ENCODING 140
SWIDTH 461 0
DWIDTH 6 0
BBX 6 13 0 -2
BITMAP
00
00
A0
A0
A0
A0
F0
A8
A8
A8
B0
00
00
ENDCHAR
STARTCHAR afii10061
ENCODING 141
SWIDTH 461 0
DWIDTH 6 0
BBX 6 13 0 -2
BITMAP
00
10
20
00
88
90
A0
C0
A0
90
88
00
00
ENDCHAR
STARTCHAR afii10060
ENCODING 142
SWIDTH 461 0
DWIDTH 6 0
BBX 6 13 0 -2
BITMAP
00
00
F0
80
80
80
F0
88
88
88
88
00
00
ENDCHAR
STARTCHAR afii10145
ENCODING 143
SWIDTH 461 0
DWIDTH 6 0
BBX 6 13 0 -2
BITMAP
00
00
88
88
88
88
88
88
88
88
F8
20
20
ENDCHAR
STARTCHAR afii10099
ENCODING 144
SWIDTH 461 0
DWIDTH 6 0
BBX 6 13 0 -2
BITMAP
00
00
80
E0
80
B0
C8
88
88
88
88
08
30
ENDCHAR
STARTCHAR quoteleft
ENCODING 145
SWIDTH 461 0
DWIDTH 6 0
BBX 6 13 0 -2
BITMAP
00
00
30
10
08
00
00
00
00
00
00
00
00
ENDCHAR
STARTCHAR quoteright
ENCODING 146
SWIDTH 461 0
DWIDTH 6 0
BBX 6 13 0 -2
BITMAP
00
00
30
20
40
00
00
00
00
00
00
00
00
ENDCHAR
STARTCHAR quotedblleft
ENCODING 147
SWIDTH 461 0
DWIDTH 6 0
BBX 6 13 0 -2
BITMAP
00
00
24
48
D8
00
00
00
00
00
00
00
00
ENDCHAR
STARTCHAR quotedblright
ENCODING 148
SWIDTH 461 0
DWIDTH 6 0
BBX 6 13 0 -2
BITMAP
00
00
6C
48
90
00
00
00
00
00
00
00
00
ENDCHAR
STARTCHAR bullet
ENCODING 149
SWIDTH 461 0
DWIDTH 6 0
BBX 6 13 0 -2
BITMAP
00
00
00
00
00
30
78
78
30
00
00
00
00
ENDCHAR
STARTCHAR endash
ENCODING 150
SWIDTH 461 0
DWIDTH 6 0
BBX 6 13 0 -2
BITMAP
00
00
00
00
00
00
F8
00
00
00
00
00
00
ENDCHAR
STARTCHAR emdash
ENCODING 151
SWIDTH 461 0
DWIDTH 6 0
BBX 6 13 0 -2
BITMAP
00
00
00
00
00
00
FC
00
00
00
00
00
00
ENDCHAR
STARTCHAR trademark
ENCODING 153
SWIDTH 461 0
DWIDTH 6 0
BBX 6 13 0 -2
BITMAP
00
F4
5C
5C
54
54
00
00
00
00
00
00
00
ENDCHAR
STARTCHAR afii10106
ENCODING 154
SWIDTH 461 0
DWIDTH 6 0
BBX 6 13 0 -2
BITMAP
00
00
00
00
00
60
A0
B0
A8
A8
B0
00
00
ENDCHAR
STARTCHAR guilsinglright
ENCODING 155
SWIDTH 461 0
DWIDTH 6 0
BBX 6 13 0 -2
BITMAP
00
00
00
00
40
20
10
10
20
40
00
00
00
ENDCHAR
STARTCHAR afii10107
ENCODING 156
SWIDTH 461 0
DWIDTH 6 0
BBX 6 13 0 -2
BITMAP
00
00
00
00
00
A0
A0
F0
A8
A8
B0
00
00
ENDCHAR
STARTCHAR afii10109
ENCODING 157
SWIDTH 461 0
DWIDTH 6 0
BBX 6 13 0 -2
BITMAP
00
10
20
00
00
90
A0
C0
A0
90
88
00
00
ENDCHAR
STARTCHAR afii10108
ENCODING 158
SWIDTH 461 0
DWIDTH 6 0
BBX 6 13 0 -2
BITMAP
00
00
80
E0
80
B0
C8
88
88
88
88
00
00
ENDCHAR
STARTCHAR afii10193
ENCODING 159
SWIDTH 461 0
DWIDTH 6 0
BBX 6 13 0 -2
BITMAP
00
00
00
00
00
88
88
88
88
88
F8
20
20
ENDCHAR
STARTCHAR space
ENCODING 160
SWIDTH 461 0
DWIDTH 6 0
BBX 6 13 0 -2
BITMAP
00
00
00
00
00
00
00
00
00
00
00
00
00
ENDCHAR
STARTCHAR afii10062
ENCODING 161
SWIDTH 461 0
DWIDTH 6 0
BBX 6 13 0 -2
BITMAP
00
70
00
88
88
88
78
08
08
88
70
00
00
ENDCHAR
STARTCHAR afii10110
ENCODING 162
SWIDTH 461 0
DWIDTH 6 0
BBX 6 13 0 -2
BITMAP
00
00
00
70
00
88
88
88
98
68
08
88
70
ENDCHAR
STARTCHAR afii10057
ENCODING 163
SWIDTH 461 0
DWIDTH 6 0
BBX 6 13 0 -2
BITMAP
00
00
38
10
10
10
10
10
10
90
60
00
00
ENDCHAR
STARTCHAR currency
ENCODING 164
SWIDTH 461 0
DWIDTH 6 0
BBX 6 13 0 -2
BITMAP
00
00
00
00
88
70
50
50
70
88
00
00
00
ENDCHAR
STARTCHAR afii10050
ENCODING 165
SWIDTH 461 0
DWIDTH 6 0
BBX 6 13 0 -2
BITMAP
00
08
F8
80
80
80
80
80
80
80
80
00
00
ENDCHAR
STARTCHAR brokenbar
ENCODING 166
SWIDTH 461 0
DWIDTH 6 0
BBX 6 13 0 -2
BITMAP
00
00
20
20
20
20
00
20
20
20
20
00
00
ENDCHAR
STARTCHAR section
ENCODING 167
SWIDTH 461 0
DWIDTH 6 0
BBX 6 13 0 -2
BITMAP
00
30
48
40
30
48
48
30
08
48
30
00
00
ENDCHAR
STARTCHAR afii10023
ENCODING 168
SWIDTH 461 0
DWIDTH 6 0
BBX 6 13 0 -2
BITMAP
00
50
50
00
f8
80
80
f0
80
80
f8
00
00
ENDCHAR
STARTCHAR copyright
ENCODING 169
SWIDTH 461 0
DWIDTH 6 0
BBX 6 13 0 -2
BITMAP
00
70
88
A8
D8
C8
D8
A8
88
70
00
00
00
ENDCHAR
STARTCHAR afii10053
ENCODING 170
SWIDTH 461 0
DWIDTH 6 0
BBX 6 13 0 -2
BITMAP
00
00
70
88
80
80
E0
80
80
88
70
00
00
ENDCHAR
STARTCHAR guillemotleft
ENCODING 171
SWIDTH 461 0
DWIDTH 6 0
BBX 6 13 0 -2
BITMAP
00
00
00
00
28
50
A0
A0
50
28
00
00
00
ENDCHAR
STARTCHAR logicalnot
ENCODING 172
SWIDTH 461 0
DWIDTH 6 0
BBX 6 13 0 -2
BITMAP
00
00
00
00
00
00
F8
08
08
00
00
00
00
ENDCHAR
STARTCHAR hyphen
ENCODING 173
SWIDTH 461 0
DWIDTH 6 0
BBX 6 13 0 -2
BITMAP
00
00
00
00
00
00
F8
00
00
00
00
00
00
ENDCHAR
STARTCHAR registered
ENCODING 174
SWIDTH 461 0
DWIDTH 6 0
BBX 6 13 0 -2
BITMAP
00
70
88
E8
D8
D8
E8
D8
88
70
00
00
00
ENDCHAR
STARTCHAR afii10056
ENCODING 175
SWIDTH 461 0
DWIDTH 6 0
BBX 6 13 0 -2
BITMAP
00
50
50
00
f8
20
20
20
20
20
f8
00
00
ENDCHAR
STARTCHAR degree
ENCODING 176
SWIDTH 461 0
DWIDTH 6 0
BBX 6 13 0 -2
BITMAP
00
00
30
48
48
30
00
00
00
00
00
00
00
ENDCHAR
STARTCHAR plusminus
ENCODING 177
SWIDTH 461 0
DWIDTH 6 0
BBX 6 13 0 -2
BITMAP
00
00
00
20
20
F8
20
20
00
F8
00
00
00
ENDCHAR
STARTCHAR afii10055
ENCODING 178
SWIDTH 461 0
DWIDTH 6 0
BBX 6 13 0 -2
BITMAP
00
00
70
20
20
20
20
20
20
20
70
00
00
ENDCHAR
STARTCHAR afii10103
ENCODING 179
SWIDTH 461 0
DWIDTH 6 0
BBX 6 13 0 -2
BITMAP
00
00
00
20
00
60
20
20
20
20
70
00
00
ENDCHAR
STARTCHAR afii10098
ENCODING 180
SWIDTH 461 0
DWIDTH 6 0
BBX 6 13 0 -2
BITMAP
00
00
00
00
08
F8
80
80
80
80
80
00
00
ENDCHAR
STARTCHAR mu
ENCODING 181
SWIDTH 461 0
DWIDTH 6 0
BBX 6 13 0 -2
BITMAP
00
00
00
00
00
88
88
88
88
98
E8
80
00
ENDCHAR
STARTCHAR paragraph
ENCODING 182
SWIDTH 461 0
DWIDTH 6 0
BBX 6 13 0 -2
BITMAP
00
00
78
E8
E8
E8
E8
68
28
28
28
00
00
ENDCHAR
STARTCHAR periodcentered
ENCODING 183
SWIDTH 461 0
DWIDTH 6 0
BBX 6 13 0 -2
BITMAP
00
00
00
00
00
00
30
00
00
00
00
00
00
ENDCHAR
STARTCHAR afii10071
ENCODING 184
SWIDTH 461 0
DWIDTH 6 0
BBX 6 13 0 -2
BITMAP
00
50
50
00
00
70
88
f8
80
88
70
00
00
ENDCHAR
STARTCHAR afii61352
ENCODING 185
SWIDTH 461 0
DWIDTH 6 0
BBX 6 13 0 -2
BITMAP
00
00
90
90
D0
D0
BC
BC
90
9C
90
00
00
ENDCHAR
STARTCHAR afii10101
ENCODING 186
SWIDTH 461 0
DWIDTH 6 0
BBX 6 13 0 -2
BITMAP
00
00
00
00
00
70
88
E0
80
88
70
00
00
ENDCHAR
STARTCHAR guillemotright
ENCODING 187
SWIDTH 461 0
DWIDTH 6 0
BBX 6 13 0 -2
BITMAP
00
00
00
00
A0
50
28
28
50
A0
00
00
00
ENDCHAR
STARTCHAR afii10105
ENCODING 188
SWIDTH 461 0
DWIDTH 6 0
BBX 6 13 0 -2
BITMAP
00
00
00
10
00
30
10
10
10
10
90
90
60
ENDCHAR
STARTCHAR afii10054
ENCODING 189
SWIDTH 461 0
DWIDTH 6 0
BBX 6 13 0 -2
BITMAP
00
00
70
88
80
80
70
08
08
88
70
00
00
ENDCHAR
STARTCHAR afii10102
ENCODING 190
SWIDTH 461 0
DWIDTH 6 0
BBX 6 13 0 -2
BITMAP
00
00
00
00
00
70
88
60
10
88
70
00
00
ENDCHAR
STARTCHAR afii10104
ENCODING 191
SWIDTH 461 0
DWIDTH 6 0
BBX 6 13 0 -2
BITMAP
00
50
50
00
00
60
20
20
20
20
f8
00
00
ENDCHAR
STARTCHAR afii10017
ENCODING 192
SWIDTH 461 0
DWIDTH 6 0
BBX 6 13 0 -2
BITMAP
00
00
20
50
88
88
88
F8
88
88
88
00
00
ENDCHAR
STARTCHAR afii10018
ENCODING 193
SWIDTH 461 0
DWIDTH 6 0
BBX 6 13 0 -2
BITMAP
00
00
F8
80
80
80
F0
88
88
88
F0
00
00
ENDCHAR
STARTCHAR afii10019
ENCODING 194
SWIDTH 461 0
DWIDTH 6 0
BBX 6 13 0 -2
BITMAP
00
00
F0
48
48
48
70
48
48
48
F0
00
00
ENDCHAR
STARTCHAR afii10020
ENCODING 195
SWIDTH 461 0
DWIDTH 6 0
BBX 6 13 0 -2
BITMAP
00
00
F8
80
80
80
80
80
80
80
80
00
00
ENDCHAR
STARTCHAR afii10021
ENCODING 196
SWIDTH 461 0
DWIDTH 6 0
BBX 6 13 0 -2
BITMAP
00
00
30
50
50
50
50
50
50
50
F8
88
00
ENDCHAR
STARTCHAR afii10022
ENCODING 197
SWIDTH 461 0
DWIDTH 6 0
BBX 6 13 0 -2
BITMAP
00
00
F8
80
80
80
F0
80
80
80
F8
00
00
ENDCHAR
STARTCHAR afii10024
ENCODING 198
SWIDTH 461 0
DWIDTH 6 0
BBX 6 13 0 -2
BITMAP
00
00
A8
A8
A8
70
20
70
A8
A8
A8
00
00
ENDCHAR
STARTCHAR afii10025
ENCODING 199
SWIDTH 461 0
DWIDTH 6 0
BBX 6 13 0 -2
BITMAP
00
00
70
88
08
08
30
08
08
88
70
00
00
ENDCHAR
STARTCHAR afii10026
ENCODING 200
SWIDTH 461 0
DWIDTH 6 0
BBX 6 13 0 -2
BITMAP
00
00
88
88
98
98
A8
A8
C8
C8
88
00
00
ENDCHAR
STARTCHAR afii10027
ENCODING 201
SWIDTH 461 0
DWIDTH 6 0
BBX 6 13 0 -2
BITMAP
00
70
00
88
98
98
A8
A8
C8
C8
88
00
00
ENDCHAR
STARTCHAR afii10028
ENCODING 202
SWIDTH 461 0
DWIDTH 6 0
BBX 6 13 0 -2
BITMAP
00
00
88
88
90
A0
C0
A0
90
88
88
00
00
ENDCHAR
STARTCHAR afii10029
ENCODING 203
SWIDTH 461 0
DWIDTH 6 0
BBX 6 13 0 -2
BITMAP
00
00
38
48
48
48
48
48
48
48
88
00
00
ENDCHAR
STARTCHAR afii10030
ENCODING 204
SWIDTH 461 0
DWIDTH 6 0
BBX 6 13 0 -2
BITMAP
00
00
88
88
D8
A8
A8
88
88
88
88
00
00
ENDCHAR
STARTCHAR afii10031
ENCODING 205
SWIDTH 461 0
DWIDTH 6 0
BBX 6 13 0 -2
BITMAP
00
00
88
88
88
88
F8
88
88
88
88
00
00
ENDCHAR
STARTCHAR afii10032
ENCODING 206
SWIDTH 461 0
DWIDTH 6 0
BBX 6 13 0 -2
BITMAP
00
00
70
88
88
88
88
88
88
88
70
00
00
ENDCHAR
STARTCHAR afii10033
ENCODING 207
SWIDTH 461 0
DWIDTH 6 0
BBX 6 13 0 -2
BITMAP
00
00
F8
88
88
88
88
88
88
88
88
00
00
ENDCHAR
STARTCHAR afii10034
ENCODING 208
SWIDTH 461 0
DWIDTH 6 0
BBX 6 13 0 -2
BITMAP
00
00
F0
88
88
88
F0
80
80
80
80
00
00
ENDCHAR
STARTCHAR afii10035
ENCODING 209
SWIDTH 461 0
DWIDTH 6 0
BBX 6 13 0 -2
BITMAP
00
00
70
88
80
80
80
80
80
88
70
00
00
ENDCHAR
STARTCHAR afii10036
ENCODING 210
SWIDTH 461 0
DWIDTH 6 0
BBX 6 13 0 -2
BITMAP
00
00
F8
20
20
20
20
20
20
20
20
00
00
ENDCHAR
STARTCHAR afii10037
ENCODING 211
SWIDTH 461 0
DWIDTH 6 0
BBX 6 13 0 -2
BITMAP
00
00
88
88
88
88
78
08
08
88
70
00
00
ENDCHAR
STARTCHAR afii10038
ENCODING 212
SWIDTH 461 0
DWIDTH 6 0
BBX 6 13 0 -2
BITMAP
00
00
20
70
A8
A8
A8
A8
A8
70
20
00
00
ENDCHAR
STARTCHAR afii10039
ENCODING 213
SWIDTH 461 0
DWIDTH 6 0
BBX 6 13 0 -2
BITMAP
00
00
88
88
50
50
20
50
50
88
88
00
00
ENDCHAR
STARTCHAR afii10040
ENCODING 214
SWIDTH 461 0
DWIDTH 6 0
BBX 6 13 0 -2
BITMAP
00
00
90
90
90
90
90
90
90
90
F8
08
00
ENDCHAR
STARTCHAR afii10041
ENCODING 215
SWIDTH 461 0
DWIDTH 6 0
BBX 6 13 0 -2
BITMAP
00
00
88
88
88
88
78
08
08
08
08
00
00
ENDCHAR
STARTCHAR afii10042
ENCODING 216
SWIDTH 461 0
DWIDTH 6 0
BBX 6 13 0 -2
BITMAP
00
00
88
88
A8
A8
A8
A8
A8
A8
F8
00
00
ENDCHAR
STARTCHAR afii10043
ENCODING 217
SWIDTH 461 0
DWIDTH 6 0
BBX 6 13 0 -2
BITMAP
00
00
88
88
A8
A8
A8
A8
A8
A8
FC
04
00
ENDCHAR
STARTCHAR afii10044
ENCODING 218
SWIDTH 461 0
DWIDTH 6 0
BBX 6 13 0 -2
BITMAP
00
00
C0
40
40
40
70
48
48
48
70
00
00
ENDCHAR
STARTCHAR afii10045
ENCODING 219
SWIDTH 461 0
DWIDTH 6 0
BBX 6 13 0 -2
BITMAP
00
00
88
88
88
88
C8
A8
A8
A8
C8
00
00
ENDCHAR
STARTCHAR afii10046
ENCODING 220
SWIDTH 461 0
DWIDTH 6 0
BBX 6 13 0 -2
BITMAP
00
00
80
80
80
80
F0
88
88
88
F0
00
00
ENDCHAR
STARTCHAR afii10047
ENCODING 221
SWIDTH 461 0
DWIDTH 6 0
BBX 6 13 0 -2
BITMAP
00
00
70
88
08
08
38
08
08
88
70
00
00
ENDCHAR
STARTCHAR afii10048
ENCODING 222
SWIDTH 461 0
DWIDTH 6 0
BBX 6 13 0 -2
BITMAP
00
00
90
A8
A8
A8
E8
A8
A8
A8
90
00
00
ENDCHAR
STARTCHAR afii10049
ENCODING 223
SWIDTH 461 0
DWIDTH 6 0
BBX 6 13 0 -2
BITMAP
00
00
78
88
88
88
78
28
48
88
88
00
00
ENDCHAR
STARTCHAR afii10065
ENCODING 224
SWIDTH 461 0
DWIDTH 6 0
BBX 6 13 0 -2
BITMAP
00
00
00
00
00
70
08
78
88
88
78
00
00
ENDCHAR
STARTCHAR afii10066
ENCODING 225
SWIDTH 461 0
DWIDTH 6 0
BBX 6 13 0 -2
BITMAP
00
00
08
70
80
B0
C8
88
88
88
70
00
00
ENDCHAR
STARTCHAR afii10067
ENCODING 226
SWIDTH 461 0
DWIDTH 6 0
BBX 6 13 0 -2
BITMAP
00
00
00
00
00
F0
88
F0
88
88
F0
00
00
ENDCHAR
STARTCHAR afii10068
ENCODING 227
SWIDTH 461 0
DWIDTH 6 0
BBX 6 13 0 -2
BITMAP
00
00
00
00
00
F8
80
80
80
80
80
00
00
ENDCHAR
STARTCHAR afii10069
ENCODING 228
SWIDTH 461 0
DWIDTH 6 0
BBX 6 13 0 -2
BITMAP
00
00
00
00
00
30
50
50
50
50
F8
88
00
ENDCHAR
STARTCHAR afii10070
ENCODING 229
SWIDTH 461 0
DWIDTH 6 0
BBX 6 13 0 -2
BITMAP
00
00
00
00
00
70
88
F8
80
88
70
00
00
ENDCHAR
STARTCHAR afii10072
ENCODING 230
SWIDTH 461 0
DWIDTH 6 0
BBX 6 13 0 -2
BITMAP
00
00
00
00
00
A8
70
20
70
A8
A8
00
00
ENDCHAR
STARTCHAR afii10073
ENCODING 231
SWIDTH 461 0
DWIDTH 6 0
BBX 6 13 0 -2
BITMAP
00
00
00
00
00
F0
08
70
08
08
F0
00
00
ENDCHAR
STARTCHAR afii10074
ENCODING 232
SWIDTH 461 0
DWIDTH 6 0
BBX 6 13 0 -2
BITMAP
00
00
00
00
00
88
88
98
A8
C8
88
00
00
ENDCHAR
STARTCHAR afii10075
ENCODING 233
SWIDTH 461 0
DWIDTH 6 0
BBX 6 13 0 -2
BITMAP
00
00
00
70
00
88
88
98
A8
C8
88
00
00
ENDCHAR
STARTCHAR afii10076
ENCODING 234
SWIDTH 461 0
DWIDTH 6 0
BBX 6 13 0 -2
BITMAP
00
00
00
00
00
90
A0
C0
A0
90
88
00
00
ENDCHAR
STARTCHAR afii10077
ENCODING 235
SWIDTH 461 0
DWIDTH 6 0
BBX 6 13 0 -2
BITMAP
00
00
00
00
00
38
48
48
48
48
88
00
00
ENDCHAR
STARTCHAR afii10078
ENCODING 236
SWIDTH 461 0
DWIDTH 6 0
BBX 6 13 0 -2
BITMAP
00
00
00
00
00
88
D8
A8
A8
88
88
00
00
ENDCHAR
STARTCHAR afii10079
ENCODING 237
SWIDTH 461 0
DWIDTH 6 0
BBX 6 13 0 -2
BITMAP
00
00
00
00
00
88
88
F8
88
88
88
00
00
ENDCHAR
STARTCHAR afii10080
ENCODING 238
SWIDTH 461 0
DWIDTH 6 0
BBX 6 13 0 -2
BITMAP
00
00
00
00
00
70
88
88
88
88
70
00
00
ENDCHAR
STARTCHAR afii10081
ENCODING 239
SWIDTH 461 0
DWIDTH 6 0
BBX 6 13 0 -2
BITMAP
00
00
00
00
00
F8
88
88
88
88
88
00
00
ENDCHAR
STARTCHAR afii10082
ENCODING 240
SWIDTH 461 0
DWIDTH 6 0
BBX 6 13 0 -2
BITMAP
00
00
00
00
00
F0
88
88
88
F0
80
80
80
ENDCHAR
STARTCHAR afii10083
ENCODING 241
SWIDTH 461 0
DWIDTH 6 0
BBX 6 13 0 -2
BITMAP
00
00
00
00
00
70
88
80
80
88
70
00
00
ENDCHAR
STARTCHAR afii10084
ENCODING 242
SWIDTH 461 0
DWIDTH 6 0
BBX 6 13 0 -2
BITMAP
00
00
00
00
00
F8
20
20
20
20
20
00
00
ENDCHAR
STARTCHAR afii10085
ENCODING 243
SWIDTH 461 0
DWIDTH 6 0
BBX 6 13 0 -2
BITMAP
00
00
00
00
00
88
88
88
98
68
08
88
70
ENDCHAR
STARTCHAR afii10086
ENCODING 244
SWIDTH 461 0
DWIDTH 6 0
BBX 6 13 0 -2
BITMAP
00
00
00
00
20
70
A8
A8
A8
70
20
20
20
ENDCHAR
STARTCHAR afii10087
ENCODING 245
SWIDTH 461 0
DWIDTH 6 0
BBX 6 13 0 -2
BITMAP
00
00
00
00
00
88
50
20
20
50
88
00
00
ENDCHAR
STARTCHAR afii10088
ENCODING 246
SWIDTH 461 0
DWIDTH 6 0
BBX 6 13 0 -2
BITMAP
00
00
00
00
00
90
90
90
90
90
F8
08
00
ENDCHAR
STARTCHAR afii10089
ENCODING 247
SWIDTH 461 0
DWIDTH 6 0
BBX 6 13 0 -2
BITMAP
00
00
00
00
00
88
88
88
78
08
08
00
00
ENDCHAR
STARTCHAR afii10090
ENCODING 248
SWIDTH 461 0
DWIDTH 6 0
BBX 6 13 0 -2
BITMAP
00
00
00
00
00
88
A8
A8
A8
A8
F8
00
00
ENDCHAR
STARTCHAR afii10091
ENCODING 249
SWIDTH 461 0
DWIDTH 6 0
BBX 6 13 0 -2
BITMAP
00
00
00
00
00
88
A8
A8
A8
A8
FC
04
00
ENDCHAR
STARTCHAR afii10092
ENCODING 250
SWIDTH 461 0
DWIDTH 6 0
BBX 6 13 0 -2
BITMAP
00
00
00
00
00
C0
40
70
48
48
70
00
00
ENDCHAR
STARTCHAR afii10093
ENCODING 251
SWIDTH 461 0
DWIDTH 6 0
BBX 6 13 0 -2
BITMAP
00
00
00
00
00
88
88
C8
A8
A8
C8
00
00
ENDCHAR
STARTCHAR afii10094
ENCODING 252
SWIDTH 461 0
DWIDTH 6 0
BBX 6 13 0 -2
BITMAP
00
00
00
00
00
80
80
F0
88
88
F0
00
00
ENDCHAR
STARTCHAR afii10095
ENCODING 253
SWIDTH 461 0
DWIDTH 6 0
BBX 6 13 0 -2
BITMAP
00
00
00
00
00
70
88
38
08
88
70
00
00
ENDCHAR
STARTCHAR afii10096
ENCODING 254
SWIDTH 461 0
DWIDTH 6 0
BBX 6 13 0 -2
BITMAP
00
00
00
00
00
90
A8
E8
A8
A8
90
00
00
ENDCHAR
STARTCHAR afii10097
ENCODING 255
SWIDTH 461 0
DWIDTH 6 0
BBX 6 13 0 -2
BITMAP
00
00
00
00
00
78
88
88
78
48
88
00
00
ENDCHAR
STARTCHAR tilde
ENCODING -1
SWIDTH 461 0
DWIDTH 6 0
BBX 6 13 0 -2
BITMAP
00
28
50
00
00
00
00
00
00
00
00
00
00
ENDCHAR
STARTCHAR florin
ENCODING -1
SWIDTH 461 0
DWIDTH 6 0
BBX 6 13 0 -2
BITMAP
00
00
18
20
20
20
F0
40
40
40
40
40
80
ENDCHAR
STARTCHAR circumflex
ENCODING -1
SWIDTH 461 0
DWIDTH 6 0
BBX 6 13 0 -2
BITMAP
00
30
48
00
00
00
00
00
00
00
00
00
00
ENDCHAR
STARTCHAR OE
ENCODING -1
SWIDTH 461 0
DWIDTH 6 0
BBX 6 13 0 -2
BITMAP
00
00
78
A0
A0
A0
B0
A0
A0
A0
78
00
00
ENDCHAR
STARTCHAR oe
ENCODING -1
SWIDTH 461 0
DWIDTH 6 0
BBX 6 13 0 -2
BITMAP
00
00
00
00
00
50
A8
B0
A0
A8
50
00
00
ENDCHAR
STARTCHAR Scaron
ENCODING -1
SWIDTH 461 0
DWIDTH 6 0
BBX 6 13 0 -2
BITMAP
00
50
20
00
70
88
80
70
08
88
70
00
00
ENDCHAR
STARTCHAR scaron
ENCODING -1
SWIDTH 461 0
DWIDTH 6 0
BBX 6 13 0 -2
BITMAP
00
50
20
00
00
70
88
60
10
88
70
00
00
ENDCHAR
STARTCHAR Zcaron
ENCODING -1
SWIDTH 461 0
DWIDTH 6 0
BBX 6 13 0 -2
BITMAP
00
50
20
00
F8
08
10
20
40
80
F8
00
00
ENDCHAR
STARTCHAR zcaron
ENCODING -1
SWIDTH 461 0
DWIDTH 6 0
BBX 6 13 0 -2
BITMAP
00
50
20
00
00
F8
10
20
40
80
F8
00
00
ENDCHAR
STARTCHAR Ydieresis
ENCODING -1
SWIDTH 461 0
DWIDTH 6 0
BBX 6 13 0 -2
BITMAP
00
50
50
00
88
88
50
20
20
20
20
00
00
ENDCHAR
ENDFONT
