STARTFONT 2.1
COMMENT $XConsortium: 7x13.bdf,v 1.11 92/04/02 14:25:38 gildea Exp $
COMMENT  
COMMENT  Copyright (c) 1990 Stephen Gildea
COMMENT  
COMMENT  Permission to use, copy, modify, and distribute this software for
COMMENT  any purpose is hereby granted without fee, provided that the above
COMMENT  copyright notice and this permission notice appear in all copies.
COMMENT  The authors make no representations about the suitability of this
COMMENT  software for any purpose.  It is provided "as is" without express
COMMENT  or implied warranty.
COMMENT  
COMMENT  Designed by Stephen Gildea <gildea@lcs.mit.edu>
COMMENT  Original design November 1989.
COMMENT  Current version June 1990.
COMMENT  
COMMENT  Characters above 127 designed and made by
COMMENT  Thomas Bagli (pyramid!pcsbst!tom@uunet.UU.NET)
COMMENT  PCS Computer Systeme, West Germany
COMMENT  
FONT -Misc-Fixed-Medium-R-Normal--13-120-75-75-C-70-windows-1251
SIZE 13 78 78
FONTBOUNDINGBOX 7 13 0 -2
STARTPROPERTIES 25
FONTNAME_REGISTRY ""
FOUNDRY "Misc"
FAMILY_NAME "Fixed"
WEIGHT_NAME "Medium"
SLANT "R"
SETWIDTH_NAME "Normal"
ADD_STYLE_NAME ""
PIXEL_SIZE 13
POINT_SIZE 120
RESOLUTION_X 75
RESOLUTION_Y 75
SPACING "C"
AVERAGE_WIDTH 70
CHARSET_REGISTRY "windows"
CHARSET_ENCODING "1251"
UNDERLINE_POSITION -1
DESTINATION 1
DEFAULT_CHAR 0
FONT_DESCENT 2
FONT_ASCENT 11
DATE "June 1990"
COPYRIGHT2 "Cyrillic, Euro and special glyphs copyright 2000 Dmitry Yu. Bolkhovityanov, bolkhov@inp.nsk.su"
SOURCEDATE "Tue Aug  1 20:08:26 2000"
PKGVERSION "1.1"
ASSEMBLER "cvtbdf.pl (Linux)"
ENDPROPERTIES
CHARS 265
STARTCHAR null
ENCODING 0
SWIDTH 570 0
DWIDTH 7 0
BBX 7 13 0 -2
BITMAP
00
78
78
78
78
78
78
78
78
78
78
78
00
ENDCHAR
STARTCHAR ctrlA
ENCODING 1
SWIDTH 570 0
DWIDTH 7 0
BBX 7 13 0 -2
BITMAP
00
00
00
00
00
20
70
F8
70
20
00
00
00
ENDCHAR
STARTCHAR ctrlB
ENCODING 2
SWIDTH 570 0
DWIDTH 7 0
BBX 7 13 0 -2
BITMAP
00
A8
54
A8
54
A8
54
A8
54
A8
54
A8
54
ENDCHAR
STARTCHAR ctrlC
ENCODING 3
SWIDTH 570 0
DWIDTH 7 0
BBX 7 13 0 -2
BITMAP
00
00
90
90
F0
90
90
1C
08
08
08
08
00
ENDCHAR
STARTCHAR ctrlD
ENCODING 4
SWIDTH 570 0
DWIDTH 7 0
BBX 7 13 0 -2
BITMAP
00
00
F0
80
E0
80
80
3C
20
38
20
20
00
ENDCHAR
STARTCHAR ctrlE
ENCODING 5
SWIDTH 570 0
DWIDTH 7 0
BBX 7 13 0 -2
BITMAP
00
00
70
80
80
80
70
38
24
38
28
24
00
ENDCHAR
STARTCHAR ctrlF
ENCODING 6
SWIDTH 570 0
DWIDTH 7 0
BBX 7 13 0 -2
BITMAP
00
00
80
80
80
80
F0
3C
20
38
20
20
00
ENDCHAR
STARTCHAR ctrlG
ENCODING 7
SWIDTH 570 0
DWIDTH 7 0
BBX 7 13 0 -2
BITMAP
00
00
70
88
88
70
00
00
00
00
00
00
00
ENDCHAR
STARTCHAR ctrlH
ENCODING 8
SWIDTH 570 0
DWIDTH 7 0
BBX 7 13 0 -2
BITMAP
00
00
00
20
20
F8
20
20
00
F8
00
00
00
ENDCHAR
STARTCHAR ctrlI
ENCODING 9
SWIDTH 570 0
DWIDTH 7 0
BBX 7 13 0 -2
BITMAP
00
00
90
D0
B0
90
90
20
20
20
20
3C
00
ENDCHAR
STARTCHAR ctrlJ
ENCODING 10
SWIDTH 570 0
DWIDTH 7 0
BBX 7 13 0 -2
BITMAP
00
00
88
88
50
50
20
7C
10
10
10
10
00
ENDCHAR
STARTCHAR ldcornsqlr
ENCODING 11
SWIDTH 570 0
DWIDTH 7 0
BBX 7 13 0 -2
BITMAP
10
10
10
10
10
10
F0
00
00
00
00
00
00
ENDCHAR
STARTCHAR ldcornsqur
ENCODING 12
SWIDTH 570 0
DWIDTH 7 0
BBX 7 13 0 -2
BITMAP
00
00
00
00
00
00
F0
10
10
10
10
10
10
ENDCHAR
STARTCHAR ldcornsqul
ENCODING 13
SWIDTH 570 0
DWIDTH 7 0
BBX 7 13 0 -2
BITMAP
00
00
00
00
00
00
1E
10
10
10
10
10
10
ENDCHAR
STARTCHAR ldcornsqll
ENCODING 14
SWIDTH 570 0
DWIDTH 7 0
BBX 7 13 0 -2
BITMAP
10
10
10
10
10
10
1E
00
00
00
00
00
00
ENDCHAR
STARTCHAR ldcross
ENCODING 15
SWIDTH 570 0
DWIDTH 7 0
BBX 7 13 0 -2
BITMAP
10
10
10
10
10
10
FE
10
10
10
10
10
10
ENDCHAR
STARTCHAR ctrlP
ENCODING 16
SWIDTH 570 0
DWIDTH 7 0
BBX 7 13 0 -2
BITMAP
00
00
FE
00
00
00
00
00
00
00
00
00
00
ENDCHAR
STARTCHAR ctrlQ
ENCODING 17
SWIDTH 570 0
DWIDTH 7 0
BBX 7 13 0 -2
BITMAP
00
00
00
00
FE
00
00
00
00
00
00
00
00
ENDCHAR
STARTCHAR ldhorizontal
ENCODING 18
SWIDTH 570 0
DWIDTH 7 0
BBX 7 13 0 -2
BITMAP
00
00
00
00
00
00
FE
00
00
00
00
00
00
ENDCHAR
STARTCHAR ctrlS
ENCODING 19
SWIDTH 570 0
DWIDTH 7 0
BBX 7 13 0 -2
BITMAP
00
00
00
00
00
00
00
00
FE
00
00
00
00
ENDCHAR
STARTCHAR ctrlT
ENCODING 20
SWIDTH 570 0
DWIDTH 7 0
BBX 7 13 0 -2
BITMAP
00
00
00
00
00
00
00
00
00
00
FE
00
00
ENDCHAR
STARTCHAR ldteelft
ENCODING 21
SWIDTH 570 0
DWIDTH 7 0
BBX 7 13 0 -2
BITMAP
10
10
10
10
10
10
1E
10
10
10
10
10
10
ENDCHAR
STARTCHAR ldteert
ENCODING 22
SWIDTH 570 0
DWIDTH 7 0
BBX 7 13 0 -2
BITMAP
10
10
10
10
10
10
F0
10
10
10
10
10
10
ENDCHAR
STARTCHAR ldteebt
ENCODING 23
SWIDTH 570 0
DWIDTH 7 0
BBX 7 13 0 -2
BITMAP
10
10
10
10
10
10
FE
00
00
00
00
00
00
ENDCHAR
STARTCHAR ldteetp
ENCODING 24
SWIDTH 570 0
DWIDTH 7 0
BBX 7 13 0 -2
BITMAP
00
00
00
00
00
00
FE
10
10
10
10
10
10
ENDCHAR
STARTCHAR ldvertical
ENCODING 25
SWIDTH 570 0
DWIDTH 7 0
BBX 7 13 0 -2
BITMAP
10
10
10
10
10
10
10
10
10
10
10
10
10
ENDCHAR
STARTCHAR ctrlZ
ENCODING 26
SWIDTH 570 0
DWIDTH 7 0
BBX 7 13 0 -2
BITMAP
00
00
00
04
18
60
80
60
18
04
FC
00
00
ENDCHAR
STARTCHAR ctrlBRL
ENCODING 27
SWIDTH 570 0
DWIDTH 7 0
BBX 7 13 0 -2
BITMAP
00
00
00
80
60
18
04
18
60
80
FC
00
00
ENDCHAR
STARTCHAR ctrlBSLASH
ENCODING 28
SWIDTH 570 0
DWIDTH 7 0
BBX 7 13 0 -2
BITMAP
00
00
00
00
00
FC
48
48
48
48
88
00
00
ENDCHAR
STARTCHAR ctrlBRR
ENCODING 29
SWIDTH 570 0
DWIDTH 7 0
BBX 7 13 0 -2
BITMAP
00
00
00
04
08
FC
10
20
FC
40
80
00
00
ENDCHAR
STARTCHAR ctrlCARET
ENCODING 30
SWIDTH 570 0
DWIDTH 7 0
BBX 7 13 0 -2
BITMAP
00
00
38
44
40
40
E0
40
40
44
B8
00
00
ENDCHAR
STARTCHAR ctrlUND
ENCODING 31
SWIDTH 570 0
DWIDTH 7 0
BBX 7 13 0 -2
BITMAP
00
00
00
00
00
00
10
00
00
00
00
00
00
ENDCHAR
STARTCHAR space
ENCODING 32
SWIDTH 570 0
DWIDTH 7 0
BBX 7 13 0 -2
BITMAP
00
00
00
00
00
00
00
00
00
00
00
00
00
ENDCHAR
STARTCHAR exclam
ENCODING 33
SWIDTH 570 0
DWIDTH 7 0
BBX 7 13 0 -2
BITMAP
00
00
10
10
10
10
10
10
10
00
10
00
00
ENDCHAR
STARTCHAR quotedbl
ENCODING 34
SWIDTH 570 0
DWIDTH 7 0
BBX 7 13 0 -2
BITMAP
00
00
28
28
28
00
00
00
00
00
00
00
00
ENDCHAR
STARTCHAR numbersign
ENCODING 35
SWIDTH 570 0
DWIDTH 7 0
BBX 7 13 0 -2
BITMAP
00
00
00
28
28
7C
28
7C
28
28
00
00
00
ENDCHAR
STARTCHAR dollar
ENCODING 36
SWIDTH 570 0
DWIDTH 7 0
BBX 7 13 0 -2
BITMAP
00
00
00
10
3C
50
38
14
78
10
00
00
00
ENDCHAR
STARTCHAR percent
ENCODING 37
SWIDTH 570 0
DWIDTH 7 0
BBX 7 13 0 -2
BITMAP
00
00
44
A4
48
10
10
20
48
94
88
00
00
ENDCHAR
STARTCHAR ampersand
ENCODING 38
SWIDTH 570 0
DWIDTH 7 0
BBX 7 13 0 -2
BITMAP
00
00
00
00
60
90
90
60
94
88
74
00
00
ENDCHAR
STARTCHAR quotesingle
ENCODING 39
SWIDTH 570 0
DWIDTH 7 0
BBX 7 13 0 -2
BITMAP
00
00
10
10
10
00
00
00
00
00
00
00
00
ENDCHAR
STARTCHAR parenleft
ENCODING 40
SWIDTH 570 0
DWIDTH 7 0
BBX 7 13 0 -2
BITMAP
00
00
08
10
10
20
20
20
10
10
08
00
00
ENDCHAR
STARTCHAR parenright
ENCODING 41
SWIDTH 570 0
DWIDTH 7 0
BBX 7 13 0 -2
BITMAP
00
00
20
10
10
08
08
08
10
10
20
00
00
ENDCHAR
STARTCHAR asterisk
ENCODING 42
SWIDTH 570 0
DWIDTH 7 0
BBX 7 13 0 -2
BITMAP
00
00
00
00
48
30
FC
30
48
00
00
00
00
ENDCHAR
STARTCHAR plus
ENCODING 43
SWIDTH 570 0
DWIDTH 7 0
BBX 7 13 0 -2
BITMAP
00
00
00
00
10
10
7C
10
10
00
00
00
00
ENDCHAR
STARTCHAR comma
ENCODING 44
SWIDTH 570 0
DWIDTH 7 0
BBX 7 13 0 -2
BITMAP
00
00
00
00
00
00
00
00
00
38
30
40
00
ENDCHAR
STARTCHAR minus
ENCODING 45
SWIDTH 570 0
DWIDTH 7 0
BBX 7 13 0 -2
BITMAP
00
00
00
00
00
00
FC
00
00
00
00
00
00
ENDCHAR
STARTCHAR period
ENCODING 46
SWIDTH 570 0
DWIDTH 7 0
BBX 7 13 0 -2
BITMAP
00
00
00
00
00
00
00
00
00
10
38
10
00
ENDCHAR
STARTCHAR slash
ENCODING 47
SWIDTH 570 0
DWIDTH 7 0
BBX 7 13 0 -2
BITMAP
00
00
04
04
08
08
10
20
20
40
40
00
00
ENDCHAR
STARTCHAR zero
ENCODING 48
SWIDTH 570 0
DWIDTH 7 0
BBX 7 13 0 -2
BITMAP
00
00
30
48
84
84
84
84
84
48
30
00
00
ENDCHAR
STARTCHAR one
ENCODING 49
SWIDTH 570 0
DWIDTH 7 0
BBX 7 13 0 -2
BITMAP
00
00
10
30
50
10
10
10
10
10
7C
00
00
ENDCHAR
STARTCHAR two
ENCODING 50
SWIDTH 570 0
DWIDTH 7 0
BBX 7 13 0 -2
BITMAP
00
00
78
84
84
04
08
30
40
80
FC
00
00
ENDCHAR
STARTCHAR three
ENCODING 51
SWIDTH 570 0
DWIDTH 7 0
BBX 7 13 0 -2
BITMAP
00
00
FC
04
08
10
38
04
04
84
78
00
00
ENDCHAR
STARTCHAR four
ENCODING 52
SWIDTH 570 0
DWIDTH 7 0
BBX 7 13 0 -2
BITMAP
00
00
08
18
28
48
88
88
FC
08
08
00
00
ENDCHAR
STARTCHAR five
ENCODING 53
SWIDTH 570 0
DWIDTH 7 0
BBX 7 13 0 -2
BITMAP
00
00
FC
80
80
B8
C4
04
04
84
78
00
00
ENDCHAR
STARTCHAR six
ENCODING 54
SWIDTH 570 0
DWIDTH 7 0
BBX 7 13 0 -2
BITMAP
00
00
38
40
80
80
B8
C4
84
84
78
00
00
ENDCHAR
STARTCHAR seven
ENCODING 55
SWIDTH 570 0
DWIDTH 7 0
BBX 7 13 0 -2
BITMAP
00
00
FC
04
08
10
10
20
20
40
40
00
00
ENDCHAR
STARTCHAR eight
ENCODING 56
SWIDTH 570 0
DWIDTH 7 0
BBX 7 13 0 -2
BITMAP
00
00
78
84
84
84
78
84
84
84
78
00
00
ENDCHAR
STARTCHAR nine
ENCODING 57
SWIDTH 570 0
DWIDTH 7 0
BBX 7 13 0 -2
BITMAP
00
00
78
84
84
8C
74
04
04
08
70
00
00
ENDCHAR
STARTCHAR colon
ENCODING 58
SWIDTH 570 0
DWIDTH 7 0
BBX 7 13 0 -2
BITMAP
00
00
00
00
10
38
10
00
00
10
38
10
00
ENDCHAR
STARTCHAR semicolon
ENCODING 59
SWIDTH 570 0
DWIDTH 7 0
BBX 7 13 0 -2
BITMAP
00
00
00
00
10
38
10
00
00
38
30
40
00
ENDCHAR
STARTCHAR less
ENCODING 60
SWIDTH 570 0
DWIDTH 7 0
BBX 7 13 0 -2
BITMAP
00
00
04
08
10
20
40
20
10
08
04
00
00
ENDCHAR
STARTCHAR equal
ENCODING 61
SWIDTH 570 0
DWIDTH 7 0
BBX 7 13 0 -2
BITMAP
00
00
00
00
00
FC
00
00
FC
00
00
00
00
ENDCHAR
STARTCHAR greater
ENCODING 62
SWIDTH 570 0
DWIDTH 7 0
BBX 7 13 0 -2
BITMAP
00
00
40
20
10
08
04
08
10
20
40
00
00
ENDCHAR
STARTCHAR question
ENCODING 63
SWIDTH 570 0
DWIDTH 7 0
BBX 7 13 0 -2
BITMAP
00
00
78
84
84
04
08
10
10
00
10
00
00
ENDCHAR
STARTCHAR at
ENCODING 64
SWIDTH 570 0
DWIDTH 7 0
BBX 7 13 0 -2
BITMAP
00
00
78
84
84
9C
A4
AC
94
80
78
00
00
ENDCHAR
STARTCHAR A
ENCODING 65
SWIDTH 570 0
DWIDTH 7 0
BBX 7 13 0 -2
BITMAP
00
00
30
48
84
84
84
FC
84
84
84
00
00
ENDCHAR
STARTCHAR B
ENCODING 66
SWIDTH 570 0
DWIDTH 7 0
BBX 7 13 0 -2
BITMAP
00
00
F8
44
44
44
78
44
44
44
F8
00
00
ENDCHAR
STARTCHAR C
ENCODING 67
SWIDTH 570 0
DWIDTH 7 0
BBX 7 13 0 -2
BITMAP
00
00
78
84
80
80
80
80
80
84
78
00
00
ENDCHAR
STARTCHAR D
ENCODING 68
SWIDTH 570 0
DWIDTH 7 0
BBX 7 13 0 -2
BITMAP
00
00
F8
44
44
44
44
44
44
44
F8
00
00
ENDCHAR
STARTCHAR E
ENCODING 69
SWIDTH 570 0
DWIDTH 7 0
BBX 7 13 0 -2
BITMAP
00
00
FC
80
80
80
F0
80
80
80
FC
00
00
ENDCHAR
STARTCHAR F
ENCODING 70
SWIDTH 570 0
DWIDTH 7 0
BBX 7 13 0 -2
BITMAP
00
00
FC
80
80
80
F0
80
80
80
80
00
00
ENDCHAR
STARTCHAR G
ENCODING 71
SWIDTH 570 0
DWIDTH 7 0
BBX 7 13 0 -2
BITMAP
00
00
78
84
80
80
80
9C
84
8C
74
00
00
ENDCHAR
STARTCHAR H
ENCODING 72
SWIDTH 570 0
DWIDTH 7 0
BBX 7 13 0 -2
BITMAP
00
00
84
84
84
84
FC
84
84
84
84
00
00
ENDCHAR
STARTCHAR I
ENCODING 73
SWIDTH 570 0
DWIDTH 7 0
BBX 7 13 0 -2
BITMAP
00
00
F8
20
20
20
20
20
20
20
F8
00
00
ENDCHAR
STARTCHAR J
ENCODING 74
SWIDTH 570 0
DWIDTH 7 0
BBX 7 13 0 -2
BITMAP
00
00
1C
08
08
08
08
08
08
88
70
00
00
ENDCHAR
STARTCHAR K
ENCODING 75
SWIDTH 570 0
DWIDTH 7 0
BBX 7 13 0 -2
BITMAP
00
00
84
88
90
A0
C0
A0
90
88
84
00
00
ENDCHAR
STARTCHAR L
ENCODING 76
SWIDTH 570 0
DWIDTH 7 0
BBX 7 13 0 -2
BITMAP
00
00
80
80
80
80
80
80
80
80
FC
00
00
ENDCHAR
STARTCHAR M
ENCODING 77
SWIDTH 570 0
DWIDTH 7 0
BBX 7 13 0 -2
BITMAP
00
00
84
CC
CC
B4
B4
84
84
84
84
00
00
ENDCHAR
STARTCHAR N
ENCODING 78
SWIDTH 570 0
DWIDTH 7 0
BBX 7 13 0 -2
BITMAP
00
00
84
84
C4
A4
94
8C
84
84
84
00
00
ENDCHAR
STARTCHAR O
ENCODING 79
SWIDTH 570 0
DWIDTH 7 0
BBX 7 13 0 -2
BITMAP
00
00
78
84
84
84
84
84
84
84
78
00
00
ENDCHAR
STARTCHAR P
ENCODING 80
SWIDTH 570 0
DWIDTH 7 0
BBX 7 13 0 -2
BITMAP
00
00
F8
84
84
84
F8
80
80
80
80
00
00
ENDCHAR
STARTCHAR Q
ENCODING 81
SWIDTH 570 0
DWIDTH 7 0
BBX 7 13 0 -2
BITMAP
00
00
78
84
84
84
84
84
A4
94
78
04
00
ENDCHAR
STARTCHAR R
ENCODING 82
SWIDTH 570 0
DWIDTH 7 0
BBX 7 13 0 -2
BITMAP
00
00
F8
84
84
84
F8
A0
90
88
84
00
00
ENDCHAR
STARTCHAR S
ENCODING 83
SWIDTH 570 0
DWIDTH 7 0
BBX 7 13 0 -2
BITMAP
00
00
78
84
80
80
78
04
04
84
78
00
00
ENDCHAR
STARTCHAR T
ENCODING 84
SWIDTH 570 0
DWIDTH 7 0
BBX 7 13 0 -2
BITMAP
00
00
F8
20
20
20
20
20
20
20
20
00
00
ENDCHAR
STARTCHAR U
ENCODING 85
SWIDTH 570 0
DWIDTH 7 0
BBX 7 13 0 -2
BITMAP
00
00
84
84
84
84
84
84
84
84
78
00
00
ENDCHAR
STARTCHAR V
ENCODING 86
SWIDTH 570 0
DWIDTH 7 0
BBX 7 13 0 -2
BITMAP
00
00
84
84
84
48
48
48
30
30
30
00
00
ENDCHAR
STARTCHAR W
ENCODING 87
SWIDTH 570 0
DWIDTH 7 0
BBX 7 13 0 -2
BITMAP
00
00
84
84
84
84
B4
B4
CC
CC
84
00
00
ENDCHAR
STARTCHAR X
ENCODING 88
SWIDTH 570 0
DWIDTH 7 0
BBX 7 13 0 -2
BITMAP
00
00
84
84
48
48
30
48
48
84
84
00
00
ENDCHAR
STARTCHAR Y
ENCODING 89
SWIDTH 570 0
DWIDTH 7 0
BBX 7 13 0 -2
BITMAP
00
00
88
88
50
50
20
20
20
20
20
00
00
ENDCHAR
STARTCHAR Z
ENCODING 90
SWIDTH 570 0
DWIDTH 7 0
BBX 7 13 0 -2
BITMAP
00
00
FC
04
08
10
30
20
40
80
FC
00
00
ENDCHAR
STARTCHAR bracketleft
ENCODING 91
SWIDTH 570 0
DWIDTH 7 0
BBX 7 13 0 -2
BITMAP
00
00
78
40
40
40
40
40
40
40
78
00
00
ENDCHAR
STARTCHAR backslash
ENCODING 92
SWIDTH 570 0
DWIDTH 7 0
BBX 7 13 0 -2
BITMAP
00
00
40
40
20
20
10
08
08
04
04
00
00
ENDCHAR
STARTCHAR bracketright
ENCODING 93
SWIDTH 570 0
DWIDTH 7 0
BBX 7 13 0 -2
BITMAP
00
00
78
08
08
08
08
08
08
08
78
00
00
ENDCHAR
STARTCHAR asciicircum
ENCODING 94
SWIDTH 570 0
DWIDTH 7 0
BBX 7 13 0 -2
BITMAP
00
00
10
28
44
00
00
00
00
00
00
00
00
ENDCHAR
STARTCHAR underscore
ENCODING 95
SWIDTH 570 0
DWIDTH 7 0
BBX 7 13 0 -2
BITMAP
00
00
00
00
00
00
00
00
00
00
00
FC
00
ENDCHAR
STARTCHAR grave
ENCODING 96
SWIDTH 570 0
DWIDTH 7 0
BBX 7 13 0 -2
BITMAP
00
20
10
00
00
00
00
00
00
00
00
00
00
ENDCHAR
STARTCHAR a
ENCODING 97
SWIDTH 570 0
DWIDTH 7 0
BBX 7 13 0 -2
BITMAP
00
00
00
00
00
78
04
7C
84
8C
74
00
00
ENDCHAR
STARTCHAR b
ENCODING 98
SWIDTH 570 0
DWIDTH 7 0
BBX 7 13 0 -2
BITMAP
00
00
80
80
80
B8
C4
84
84
C4
B8
00
00
ENDCHAR
STARTCHAR c
ENCODING 99
SWIDTH 570 0
DWIDTH 7 0
BBX 7 13 0 -2
BITMAP
00
00
00
00
00
78
84
80
80
84
78
00
00
ENDCHAR
STARTCHAR d
ENCODING 100
SWIDTH 570 0
DWIDTH 7 0
BBX 7 13 0 -2
BITMAP
00
00
04
04
04
74
8C
84
84
8C
74
00
00
ENDCHAR
STARTCHAR e
ENCODING 101
SWIDTH 570 0
DWIDTH 7 0
BBX 7 13 0 -2
BITMAP
00
00
00
00
00
78
84
FC
80
84
78
00
00
ENDCHAR
STARTCHAR f
ENCODING 102
SWIDTH 570 0
DWIDTH 7 0
BBX 7 13 0 -2
BITMAP
00
00
38
44
40
40
F0
40
40
40
40
00
00
ENDCHAR
STARTCHAR g
ENCODING 103
SWIDTH 570 0
DWIDTH 7 0
BBX 7 13 0 -2
BITMAP
00
00
00
00
00
74
88
88
70
80
78
84
78
ENDCHAR
STARTCHAR h
ENCODING 104
SWIDTH 570 0
DWIDTH 7 0
BBX 7 13 0 -2
BITMAP
00
00
80
80
80
B8
C4
84
84
84
84
00
00
ENDCHAR
STARTCHAR i
ENCODING 105
SWIDTH 570 0
DWIDTH 7 0
BBX 7 13 0 -2
BITMAP
00
00
00
20
00
60
20
20
20
20
F8
00
00
ENDCHAR
STARTCHAR j
ENCODING 106
SWIDTH 570 0
DWIDTH 7 0
BBX 7 13 0 -2
BITMAP
00
00
00
08
00
18
08
08
08
08
88
88
70
ENDCHAR
STARTCHAR k
ENCODING 107
SWIDTH 570 0
DWIDTH 7 0
BBX 7 13 0 -2
BITMAP
00
00
80
80
80
88
90
E0
90
88
84
00
00
ENDCHAR
STARTCHAR l
ENCODING 108
SWIDTH 570 0
DWIDTH 7 0
BBX 7 13 0 -2
BITMAP
00
00
60
20
20
20
20
20
20
20
F8
00
00
ENDCHAR
STARTCHAR m
ENCODING 109
SWIDTH 570 0
DWIDTH 7 0
BBX 7 13 0 -2
BITMAP
00
00
00
00
00
D0
A8
A8
A8
A8
88
00
00
ENDCHAR
STARTCHAR n
ENCODING 110
SWIDTH 570 0
DWIDTH 7 0
BBX 7 13 0 -2
BITMAP
00
00
00
00
00
B8
C4
84
84
84
84
00
00
ENDCHAR
STARTCHAR o
ENCODING 111
SWIDTH 570 0
DWIDTH 7 0
BBX 7 13 0 -2
BITMAP
00
00
00
00
00
78
84
84
84
84
78
00
00
ENDCHAR
STARTCHAR p
ENCODING 112
SWIDTH 570 0
DWIDTH 7 0
BBX 7 13 0 -2
BITMAP
00
00
00
00
00
B8
C4
84
C4
B8
80
80
80
ENDCHAR
STARTCHAR q
ENCODING 113
SWIDTH 570 0
DWIDTH 7 0
BBX 7 13 0 -2
BITMAP
00
00
00
00
00
74
8C
84
8C
74
04
04
04
ENDCHAR
STARTCHAR r
ENCODING 114
SWIDTH 570 0
DWIDTH 7 0
BBX 7 13 0 -2
BITMAP
00
00
00
00
00
B8
44
40
40
40
40
00
00
ENDCHAR
STARTCHAR s
ENCODING 115
SWIDTH 570 0
DWIDTH 7 0
BBX 7 13 0 -2
BITMAP
00
00
00
00
00
78
84
60
18
84
78
00
00
ENDCHAR
STARTCHAR t
ENCODING 116
SWIDTH 570 0
DWIDTH 7 0
BBX 7 13 0 -2
BITMAP
00
00
00
40
40
F0
40
40
40
44
38
00
00
ENDCHAR
STARTCHAR u
ENCODING 117
SWIDTH 570 0
DWIDTH 7 0
BBX 7 13 0 -2
BITMAP
00
00
00
00
00
84
84
84
84
8C
74
00
00
ENDCHAR
STARTCHAR v
ENCODING 118
SWIDTH 570 0
DWIDTH 7 0
BBX 7 13 0 -2
BITMAP
00
00
00
00
00
88
88
88
50
50
20
00
00
ENDCHAR
STARTCHAR w
ENCODING 119
SWIDTH 570 0
DWIDTH 7 0
BBX 7 13 0 -2
BITMAP
00
00
00
00
00
88
88
A8
A8
A8
50
00
00
ENDCHAR
STARTCHAR x
ENCODING 120
SWIDTH 570 0
DWIDTH 7 0
BBX 7 13 0 -2
BITMAP
00
00
00
00
00
84
48
30
30
48
84
00
00
ENDCHAR
STARTCHAR y
ENCODING 121
SWIDTH 570 0
DWIDTH 7 0
BBX 7 13 0 -2
BITMAP
00
00
00
00
00
84
84
84
8C
74
04
84
78
ENDCHAR
STARTCHAR z
ENCODING 122
SWIDTH 570 0
DWIDTH 7 0
BBX 7 13 0 -2
BITMAP
00
00
00
00
00
FC
08
10
20
40
FC
00
00
ENDCHAR
STARTCHAR braceleft
ENCODING 123
SWIDTH 570 0
DWIDTH 7 0
BBX 7 13 0 -2
BITMAP
00
00
1C
20
20
10
60
10
20
20
1C
00
00
ENDCHAR
STARTCHAR bar
ENCODING 124
SWIDTH 570 0
DWIDTH 7 0
BBX 7 13 0 -2
BITMAP
00
00
10
10
10
10
10
10
10
10
10
00
00
ENDCHAR
STARTCHAR braceright
ENCODING 125
SWIDTH 570 0
DWIDTH 7 0
BBX 7 13 0 -2
BITMAP
00
00
70
08
08
10
0C
10
08
08
70
00
00
ENDCHAR
STARTCHAR asciitilde
ENCODING 126
SWIDTH 570 0
DWIDTH 7 0
BBX 7 13 0 -2
BITMAP
00
00
24
54
48
00
00
00
00
00
00
00
00
ENDCHAR
STARTCHAR delete
ENCODING 127
SWIDTH 570 0
DWIDTH 7 0
BBX 7 13 0 -2
BITMAP
00
00
00
00
00
00
00
00
00
00
00
00
00
ENDCHAR
STARTCHAR afii10051
ENCODING 128
SWIDTH 570 0
DWIDTH 7 0
BBX 7 13 0 -2
BITMAP
00
00
F0
40
40
40
78
44
44
44
58
00
00
ENDCHAR
STARTCHAR afii10052
ENCODING 129
SWIDTH 570 0
DWIDTH 7 0
BBX 7 13 0 -2
BITMAP
00
10
20
00
FC
80
80
80
80
80
80
00
00
ENDCHAR
STARTCHAR quotesinglbase
ENCODING 130
SWIDTH 570 0
DWIDTH 7 0
BBX 7 13 0 -2
BITMAP
00
00
00
00
00
00
00
00
00
38
30
40
00
ENDCHAR
STARTCHAR afii10100
ENCODING 131
SWIDTH 570 0
DWIDTH 7 0
BBX 7 13 0 -2
BITMAP
00
10
20
00
00
F8
80
80
80
80
80
00
00
ENDCHAR
STARTCHAR quotedblbase
ENCODING 132
SWIDTH 570 0
DWIDTH 7 0
BBX 7 13 0 -2
BITMAP
00
00
00
00
00
00
00
00
00
6C
6C
D8
00
ENDCHAR
STARTCHAR ellipsis
ENCODING 133
SWIDTH 570 0
DWIDTH 7 0
BBX 7 13 0 -2
BITMAP
00
00
00
00
00
00
00
00
00
54
54
00
00
ENDCHAR
STARTCHAR dagger
ENCODING 134
SWIDTH 570 0
DWIDTH 7 0
BBX 7 13 0 -2
BITMAP
00
00
10
10
10
7C
10
10
10
10
10
10
00
ENDCHAR
STARTCHAR daggerdbl
ENCODING 135
SWIDTH 570 0
DWIDTH 7 0
BBX 7 13 0 -2
BITMAP
00
00
10
10
10
7C
10
10
7C
10
10
10
00
ENDCHAR
STARTCHAR Euro
ENCODING 136
SWIDTH 570 0
DWIDTH 7 0
BBX 7 13 0 -2
BITMAP
00
00
3C
42
40
F8
40
F0
40
42
3C
00
00
ENDCHAR
STARTCHAR perthousand
ENCODING 137
SWIDTH 570 0
DWIDTH 7 0
BBX 7 13 0 -2
BITMAP
00
00
40
A4
48
10
20
40
94
2A
14
00
00
ENDCHAR
STARTCHAR afii10058
ENCODING 138
SWIDTH 570 0
DWIDTH 7 0
BBX 7 13 0 -2
BITMAP
00
00
30
50
50
50
58
54
54
54
98
00
00
ENDCHAR
STARTCHAR guilsinglleft
ENCODING 139
SWIDTH 570 0
DWIDTH 7 0
BBX 7 13 0 -2
BITMAP
00
00
00
08
10
20
40
20
10
08
00
00
00
ENDCHAR
STARTCHAR afii10059
ENCODING 140
SWIDTH 570 0
DWIDTH 7 0
BBX 7 13 0 -2
BITMAP
00
00
90
90
90
90
F8
94
94
94
98
00
00
ENDCHAR
STARTCHAR afii10061
ENCODING 141
SWIDTH 570 0
DWIDTH 7 0
BBX 7 13 0 -2
BITMAP
00
10
20
00
84
88
90
E0
90
88
84
00
00
ENDCHAR
STARTCHAR afii10060
ENCODING 142
SWIDTH 570 0
DWIDTH 7 0
BBX 7 13 0 -2
BITMAP
00
00
F0
40
40
40
78
44
44
44
44
00
00
ENDCHAR
STARTCHAR afii10145
ENCODING 143
SWIDTH 570 0
DWIDTH 7 0
BBX 7 13 0 -2
BITMAP
00
00
84
84
84
84
84
84
84
84
FC
10
10
ENDCHAR
STARTCHAR afii10099
ENCODING 144
SWIDTH 570 0
DWIDTH 7 0
BBX 7 13 0 -2
BITMAP
00
00
80
F0
80
B8
C4
84
84
84
84
04
38
ENDCHAR
STARTCHAR quoteleft
ENCODING 145
SWIDTH 570 0
DWIDTH 7 0
BBX 7 13 0 -2
BITMAP
00
00
70
30
08
00
00
00
00
00
00
00
00
ENDCHAR
STARTCHAR quoteright
ENCODING 146
SWIDTH 570 0
DWIDTH 7 0
BBX 7 13 0 -2
BITMAP
00
00
38
30
40
00
00
00
00
00
00
00
00
ENDCHAR
STARTCHAR quotedblleft
ENCODING 147
SWIDTH 570 0
DWIDTH 7 0
BBX 7 13 0 -2
BITMAP
00
00
6C
D8
D8
00
00
00
00
00
00
00
00
ENDCHAR
STARTCHAR quotedblright
ENCODING 148
SWIDTH 570 0
DWIDTH 7 0
BBX 7 13 0 -2
BITMAP
00
00
6C
6C
D8
00
00
00
00
00
00
00
00
ENDCHAR
STARTCHAR bullet
ENCODING 149
SWIDTH 570 0
DWIDTH 7 0
BBX 7 13 0 -2
BITMAP
00
00
00
00
00
30
78
78
30
00
00
00
00
ENDCHAR
STARTCHAR endash
ENCODING 150
SWIDTH 570 0
DWIDTH 7 0
BBX 7 13 0 -2
BITMAP
00
00
00
00
00
00
FC
00
00
00
00
00
00
ENDCHAR
STARTCHAR emdash
ENCODING 151
SWIDTH 570 0
DWIDTH 7 0
BBX 7 13 0 -2
BITMAP
00
00
00
00
00
00
FE
00
00
00
00
00
00
ENDCHAR
STARTCHAR trademark
ENCODING 153
SWIDTH 570 0
DWIDTH 7 0
BBX 7 13 0 -2
BITMAP
00
FE
5E
52
52
00
00
00
00
00
00
00
00
ENDCHAR
STARTCHAR afii10106
ENCODING 154
SWIDTH 570 0
DWIDTH 7 0
BBX 7 13 0 -2
BITMAP
00
00
00
00
00
30
50
58
54
54
98
00
00
ENDCHAR
STARTCHAR guilsinglright
ENCODING 155
SWIDTH 570 0
DWIDTH 7 0
BBX 7 13 0 -2
BITMAP
00
00
00
40
20
10
08
10
20
40
00
00
00
ENDCHAR
STARTCHAR afii10107
ENCODING 156
SWIDTH 570 0
DWIDTH 7 0
BBX 7 13 0 -2
BITMAP
00
00
00
00
00
90
90
F8
94
94
98
00
00
ENDCHAR
STARTCHAR afii10109
ENCODING 157
SWIDTH 570 0
DWIDTH 7 0
BBX 7 13 0 -2
BITMAP
00
10
20
00
00
88
90
E0
90
88
84
00
00
ENDCHAR
STARTCHAR afii10108
ENCODING 158
SWIDTH 570 0
DWIDTH 7 0
BBX 7 13 0 -2
BITMAP
00
00
80
F0
80
B8
C4
84
84
84
84
00
00
ENDCHAR
STARTCHAR afii10193
ENCODING 159
SWIDTH 570 0
DWIDTH 7 0
BBX 7 13 0 -2
BITMAP
00
00
00
00
00
84
84
84
84
84
FC
10
10
ENDCHAR
STARTCHAR space
ENCODING 160
SWIDTH 570 0
DWIDTH 7 0
BBX 7 13 0 -2
BITMAP
00
00
00
00
00
00
00
00
00
00
00
00
00
ENDCHAR
STARTCHAR afii10062
ENCODING 161
SWIDTH 570 0
DWIDTH 7 0
BBX 7 13 0 -2
BITMAP
00
78
00
84
84
84
7C
04
04
84
78
00
00
ENDCHAR
STARTCHAR afii10110
ENCODING 162
SWIDTH 570 0
DWIDTH 7 0
BBX 7 13 0 -2
BITMAP
00
00
00
78
00
84
84
84
8C
74
04
84
78
ENDCHAR
STARTCHAR afii10057
ENCODING 163
SWIDTH 570 0
DWIDTH 7 0
BBX 7 13 0 -2
BITMAP
00
00
1C
08
08
08
08
08
08
88
70
00
00
ENDCHAR
STARTCHAR currency
ENCODING 164
SWIDTH 570 0
DWIDTH 7 0
BBX 7 13 0 -2
BITMAP
00
00
00
00
84
78
48
48
78
84
00
00
00
ENDCHAR
STARTCHAR afii10050
ENCODING 165
SWIDTH 570 0
DWIDTH 7 0
BBX 7 13 0 -2
BITMAP
00
04
FC
80
80
80
80
80
80
80
80
00
00
ENDCHAR
STARTCHAR brokenbar
ENCODING 166
SWIDTH 570 0
DWIDTH 7 0
BBX 7 13 0 -2
BITMAP
00
00
10
10
10
10
00
10
10
10
10
00
00
ENDCHAR
STARTCHAR section
ENCODING 167
SWIDTH 570 0
DWIDTH 7 0
BBX 7 13 0 -2
BITMAP
00
30
48
40
30
48
48
30
08
48
30
00
00
ENDCHAR
STARTCHAR afii10023
ENCODING 168
SWIDTH 666 0
DWIDTH 7 0
BBX 7 13 0 -2
BITMAP
00
48
48
00
fc
80
80
f0
80
80
fc
00
00
ENDCHAR
STARTCHAR copyright
ENCODING 169
SWIDTH 570 0
DWIDTH 7 0
BBX 7 13 0 -2
BITMAP
00
78
84
B4
A4
A4
A4
B4
84
78
00
00
00
ENDCHAR
STARTCHAR afii10053
ENCODING 170
SWIDTH 570 0
DWIDTH 7 0
BBX 7 13 0 -2
BITMAP
00
00
78
84
80
80
F0
80
80
84
78
00
00
ENDCHAR
STARTCHAR guillemotleft
ENCODING 171
SWIDTH 570 0
DWIDTH 7 0
BBX 7 13 0 -2
BITMAP
00
00
00
14
28
50
A0
50
28
14
00
00
00
ENDCHAR
STARTCHAR logicalnot
ENCODING 172
SWIDTH 570 0
DWIDTH 7 0
BBX 7 13 0 -2
BITMAP
00
00
00
00
00
00
7C
04
04
00
00
00
00
ENDCHAR
STARTCHAR hyphen
ENCODING 173
SWIDTH 570 0
DWIDTH 7 0
BBX 7 13 0 -2
BITMAP
00
00
00
00
00
00
7C
00
00
00
00
00
00
ENDCHAR
STARTCHAR registered
ENCODING 174
SWIDTH 570 0
DWIDTH 7 0
BBX 7 13 0 -2
BITMAP
00
78
84
B4
AC
AC
B4
AC
84
78
00
00
00
ENDCHAR
STARTCHAR afii10056
ENCODING 175
SWIDTH 666 0
DWIDTH 7 0
BBX 7 13 0 -2
BITMAP
00
28
28
00
7c
10
10
10
10
10
7c
00
00
ENDCHAR
STARTCHAR degree
ENCODING 176
SWIDTH 570 0
DWIDTH 7 0
BBX 7 13 0 -2
BITMAP
00
00
30
48
48
30
00
00
00
00
00
00
00
ENDCHAR
STARTCHAR plusminus
ENCODING 177
SWIDTH 570 0
DWIDTH 7 0
BBX 7 13 0 -2
BITMAP
00
00
00
10
10
7C
10
10
00
7C
00
00
00
ENDCHAR
STARTCHAR afii10055
ENCODING 178
SWIDTH 570 0
DWIDTH 7 0
BBX 7 13 0 -2
BITMAP
00
00
F8
20
20
20
20
20
20
20
F8
00
00
ENDCHAR
STARTCHAR afii10103
ENCODING 179
SWIDTH 570 0
DWIDTH 7 0
BBX 7 13 0 -2
BITMAP
00
00
00
20
00
60
20
20
20
20
F8
00
00
ENDCHAR
STARTCHAR afii10098
ENCODING 180
SWIDTH 570 0
DWIDTH 7 0
BBX 7 13 0 -2
BITMAP
00
00
00
00
08
F8
80
80
80
80
80
00
00
ENDCHAR
STARTCHAR mu
ENCODING 181
SWIDTH 570 0
DWIDTH 7 0
BBX 7 13 0 -2
BITMAP
00
00
00
00
00
84
84
84
84
CC
B4
80
00
ENDCHAR
STARTCHAR paragraph
ENCODING 182
SWIDTH 570 0
DWIDTH 7 0
BBX 7 13 0 -2
BITMAP
00
00
7C
E8
E8
E8
68
28
28
28
28
00
00
ENDCHAR
STARTCHAR periodcentered
ENCODING 183
SWIDTH 570 0
DWIDTH 7 0
BBX 7 13 0 -2
BITMAP
00
00
00
00
00
00
30
00
00
00
00
00
00
ENDCHAR
STARTCHAR afii10071
ENCODING 184
SWIDTH 666 0
DWIDTH 7 0
BBX 7 13 0 -2
BITMAP
00
48
48
00
00
78
84
fc
80
84
78
00
00
ENDCHAR
STARTCHAR afii61352
ENCODING 185
SWIDTH 570 0
DWIDTH 7 0
BBX 7 13 0 -2
BITMAP
00
00
90
90
D0
D0
B6
B6
90
96
90
00
00
ENDCHAR
STARTCHAR afii10101
ENCODING 186
SWIDTH 570 0
DWIDTH 7 0
BBX 7 13 0 -2
BITMAP
00
00
00
00
00
78
84
F0
80
84
78
00
00
ENDCHAR
STARTCHAR guillemotright
ENCODING 187
SWIDTH 570 0
DWIDTH 7 0
BBX 7 13 0 -2
BITMAP
00
00
00
A0
50
28
14
28
50
A0
00
00
00
ENDCHAR
STARTCHAR afii10105
ENCODING 188
SWIDTH 570 0
DWIDTH 7 0
BBX 7 13 0 -2
BITMAP
00
00
00
08
00
18
08
08
08
08
88
88
70
ENDCHAR
STARTCHAR afii10054
ENCODING 189
SWIDTH 570 0
DWIDTH 7 0
BBX 7 13 0 -2
BITMAP
00
00
78
84
80
80
78
04
04
84
78
00
00
ENDCHAR
STARTCHAR afii10102
ENCODING 190
SWIDTH 570 0
DWIDTH 7 0
BBX 7 13 0 -2
BITMAP
00
00
00
00
00
78
84
60
18
84
78
00
00
ENDCHAR
STARTCHAR afii10104
ENCODING 191
SWIDTH 666 0
DWIDTH 7 0
BBX 7 13 0 -2
BITMAP
00
48
48
00
00
30
10
10
10
10
7c
00
00
ENDCHAR
STARTCHAR afii10017
ENCODING 192
SWIDTH 570 0
DWIDTH 7 0
BBX 7 13 0 -2
BITMAP
00
00
30
48
84
84
84
FC
84
84
84
00
00
ENDCHAR
STARTCHAR afii10018
ENCODING 193
SWIDTH 570 0
DWIDTH 7 0
BBX 7 13 0 -2
BITMAP
00
00
FC
80
80
80
F8
84
84
84
F8
00
00
ENDCHAR
STARTCHAR afii10019
ENCODING 194
SWIDTH 570 0
DWIDTH 7 0
BBX 7 13 0 -2
BITMAP
00
00
F8
44
44
44
78
44
44
44
F8
00
00
ENDCHAR
STARTCHAR afii10020
ENCODING 195
SWIDTH 570 0
DWIDTH 7 0
BBX 7 13 0 -2
BITMAP
00
00
FC
80
80
80
80
80
80
80
80
00
00
ENDCHAR
STARTCHAR afii10021
ENCODING 196
SWIDTH 570 0
DWIDTH 7 0
BBX 7 13 0 -2
BITMAP
00
00
38
48
48
48
48
48
48
48
FC
84
00
ENDCHAR
STARTCHAR afii10022
ENCODING 197
SWIDTH 570 0
DWIDTH 7 0
BBX 7 13 0 -2
BITMAP
00
00
FC
80
80
80
F0
80
80
80
FC
00
00
ENDCHAR
STARTCHAR afii10024
ENCODING 198
SWIDTH 570 0
DWIDTH 7 0
BBX 7 13 0 -2
BITMAP
00
00
92
92
54
38
10
38
54
92
92
00
00
ENDCHAR
STARTCHAR afii10025
ENCODING 199
SWIDTH 570 0
DWIDTH 7 0
BBX 7 13 0 -2
BITMAP
00
00
78
84
04
04
38
04
04
84
78
00
00
ENDCHAR
STARTCHAR afii10026
ENCODING 200
SWIDTH 570 0
DWIDTH 7 0
BBX 7 13 0 -2
BITMAP
00
00
84
84
84
8C
94
A4
C4
84
84
00
00
ENDCHAR
STARTCHAR afii10027
ENCODING 201
SWIDTH 570 0
DWIDTH 7 0
BBX 7 13 0 -2
BITMAP
00
78
00
84
84
8C
94
A4
C4
84
84
00
00
ENDCHAR
STARTCHAR afii10028
ENCODING 202
SWIDTH 570 0
DWIDTH 7 0
BBX 7 13 0 -2
BITMAP
00
00
84
88
90
A0
C0
A0
90
88
84
00
00
ENDCHAR
STARTCHAR afii10029
ENCODING 203
SWIDTH 570 0
DWIDTH 7 0
BBX 7 13 0 -2
BITMAP
00
00
3C
44
44
44
44
44
44
44
84
00
00
ENDCHAR
STARTCHAR afii10030
ENCODING 204
SWIDTH 570 0
DWIDTH 7 0
BBX 7 13 0 -2
BITMAP
00
00
84
CC
CC
B4
B4
84
84
84
84
00
00
ENDCHAR
STARTCHAR afii10031
ENCODING 205
SWIDTH 570 0
DWIDTH 7 0
BBX 7 13 0 -2
BITMAP
00
00
84
84
84
84
FC
84
84
84
84
00
00
ENDCHAR
STARTCHAR afii10032
ENCODING 206
SWIDTH 570 0
DWIDTH 7 0
BBX 7 13 0 -2
BITMAP
00
00
78
84
84
84
84
84
84
84
78
00
00
ENDCHAR
STARTCHAR afii10033
ENCODING 207
SWIDTH 570 0
DWIDTH 7 0
BBX 7 13 0 -2
BITMAP
00
00
FC
84
84
84
84
84
84
84
84
00
00
ENDCHAR
STARTCHAR afii10034
ENCODING 208
SWIDTH 570 0
DWIDTH 7 0
BBX 7 13 0 -2
BITMAP
00
00
F8
84
84
84
F8
80
80
80
80
00
00
ENDCHAR
STARTCHAR afii10035
ENCODING 209
SWIDTH 570 0
DWIDTH 7 0
BBX 7 13 0 -2
BITMAP
00
00
78
84
80
80
80
80
80
84
78
00
00
ENDCHAR
STARTCHAR afii10036
ENCODING 210
SWIDTH 570 0
DWIDTH 7 0
BBX 7 13 0 -2
BITMAP
00
00
F8
20
20
20
20
20
20
20
20
00
00
ENDCHAR
STARTCHAR afii10037
ENCODING 211
SWIDTH 570 0
DWIDTH 7 0
BBX 7 13 0 -2
BITMAP
00
00
84
84
84
84
7C
04
04
84
78
00
00
ENDCHAR
STARTCHAR afii10038
ENCODING 212
SWIDTH 570 0
DWIDTH 7 0
BBX 7 13 0 -2
BITMAP
00
00
10
7C
92
92
92
92
92
7C
10
00
00
ENDCHAR
STARTCHAR afii10039
ENCODING 213
SWIDTH 570 0
DWIDTH 7 0
BBX 7 13 0 -2
BITMAP
00
00
84
84
48
48
30
48
48
84
84
00
00
ENDCHAR
STARTCHAR afii10040
ENCODING 214
SWIDTH 570 0
DWIDTH 7 0
BBX 7 13 0 -2
BITMAP
00
00
88
88
88
88
88
88
88
88
FC
04
00
ENDCHAR
STARTCHAR afii10041
ENCODING 215
SWIDTH 570 0
DWIDTH 7 0
BBX 7 13 0 -2
BITMAP
00
00
84
84
84
84
7C
04
04
04
04
00
00
ENDCHAR
STARTCHAR afii10042
ENCODING 216
SWIDTH 570 0
DWIDTH 7 0
BBX 7 13 0 -2
BITMAP
00
00
44
44
54
54
54
54
54
54
7C
00
00
ENDCHAR
STARTCHAR afii10043
ENCODING 217
SWIDTH 570 0
DWIDTH 7 0
BBX 7 13 0 -2
BITMAP
00
00
88
88
A8
A8
A8
A8
A8
A8
FC
04
00
ENDCHAR
STARTCHAR afii10044
ENCODING 218
SWIDTH 570 0
DWIDTH 7 0
BBX 7 13 0 -2
BITMAP
00
00
C0
40
40
40
78
44
44
44
78
00
00
ENDCHAR
STARTCHAR afii10045
ENCODING 219
SWIDTH 570 0
DWIDTH 7 0
BBX 7 13 0 -2
BITMAP
00
00
84
84
84
84
E4
94
94
94
E4
00
00
ENDCHAR
STARTCHAR afii10046
ENCODING 220
SWIDTH 570 0
DWIDTH 7 0
BBX 7 13 0 -2
BITMAP
00
00
80
80
80
80
F8
84
84
84
F8
00
00
ENDCHAR
STARTCHAR afii10047
ENCODING 221
SWIDTH 570 0
DWIDTH 7 0
BBX 7 13 0 -2
BITMAP
00
00
78
84
04
04
3C
04
04
84
78
00
00
ENDCHAR
STARTCHAR afii10048
ENCODING 222
SWIDTH 570 0
DWIDTH 7 0
BBX 7 13 0 -2
BITMAP
00
00
98
A4
A4
A4
E4
A4
A4
A4
98
00
00
ENDCHAR
STARTCHAR afii10049
ENCODING 223
SWIDTH 570 0
DWIDTH 7 0
BBX 7 13 0 -2
BITMAP
00
00
7C
84
84
84
7C
14
24
44
84
00
00
ENDCHAR
STARTCHAR afii10065
ENCODING 224
SWIDTH 570 0
DWIDTH 7 0
BBX 7 13 0 -2
BITMAP
00
00
00
00
00
78
04
7C
84
8C
74
00
00
ENDCHAR
STARTCHAR afii10066
ENCODING 225
SWIDTH 570 0
DWIDTH 7 0
BBX 7 13 0 -2
BITMAP
00
00
04
78
80
B8
C4
84
84
84
78
00
00
ENDCHAR
STARTCHAR afii10067
ENCODING 226
SWIDTH 570 0
DWIDTH 7 0
BBX 7 13 0 -2
BITMAP
00
00
00
00
00
F8
84
F8
84
84
F8
00
00
ENDCHAR
STARTCHAR afii10068
ENCODING 227
SWIDTH 570 0
DWIDTH 7 0
BBX 7 13 0 -2
BITMAP
00
00
00
00
00
F8
80
80
80
80
80
00
00
ENDCHAR
STARTCHAR afii10069
ENCODING 228
SWIDTH 570 0
DWIDTH 7 0
BBX 7 13 0 -2
BITMAP
00
00
00
00
00
38
48
48
48
48
FC
84
00
ENDCHAR
STARTCHAR afii10070
ENCODING 229
SWIDTH 570 0
DWIDTH 7 0
BBX 7 13 0 -2
BITMAP
00
00
00
00
00
78
84
FC
80
84
78
00
00
ENDCHAR
STARTCHAR afii10072
ENCODING 230
SWIDTH 570 0
DWIDTH 7 0
BBX 7 13 0 -2
BITMAP
00
00
00
00
00
92
54
38
38
54
92
00
00
ENDCHAR
STARTCHAR afii10073
ENCODING 231
SWIDTH 570 0
DWIDTH 7 0
BBX 7 13 0 -2
BITMAP
00
00
00
00
00
78
84
38
04
84
78
00
00
ENDCHAR
STARTCHAR afii10074
ENCODING 232
SWIDTH 570 0
DWIDTH 7 0
BBX 7 13 0 -2
BITMAP
00
00
00
00
00
84
8C
94
A4
C4
84
00
00
ENDCHAR
STARTCHAR afii10075
ENCODING 233
SWIDTH 570 0
DWIDTH 7 0
BBX 7 13 0 -2
BITMAP
00
00
00
78
00
84
8C
94
A4
C4
84
00
00
ENDCHAR
STARTCHAR afii10076
ENCODING 234
SWIDTH 570 0
DWIDTH 7 0
BBX 7 13 0 -2
BITMAP
00
00
00
00
00
88
90
E0
90
88
84
00
00
ENDCHAR
STARTCHAR afii10077
ENCODING 235
SWIDTH 570 0
DWIDTH 7 0
BBX 7 13 0 -2
BITMAP
00
00
00
00
00
3C
44
44
44
44
84
00
00
ENDCHAR
STARTCHAR afii10078
ENCODING 236
SWIDTH 570 0
DWIDTH 7 0
BBX 7 13 0 -2
BITMAP
00
00
00
00
00
84
CC
B4
B4
84
84
00
00
ENDCHAR
STARTCHAR afii10079
ENCODING 237
SWIDTH 570 0
DWIDTH 7 0
BBX 7 13 0 -2
BITMAP
00
00
00
00
00
84
84
FC
84
84
84
00
00
ENDCHAR
STARTCHAR afii10080
ENCODING 238
SWIDTH 570 0
DWIDTH 7 0
BBX 7 13 0 -2
BITMAP
00
00
00
00
00
78
84
84
84
84
78
00
00
ENDCHAR
STARTCHAR afii10081
ENCODING 239
SWIDTH 570 0
DWIDTH 7 0
BBX 7 13 0 -2
BITMAP
00
00
00
00
00
FC
84
84
84
84
84
00
00
ENDCHAR
STARTCHAR afii10082
ENCODING 240
SWIDTH 570 0
DWIDTH 7 0
BBX 7 13 0 -2
BITMAP
00
00
00
00
00
B8
C4
84
C4
B8
80
80
80
ENDCHAR
STARTCHAR afii10083
ENCODING 241
SWIDTH 570 0
DWIDTH 7 0
BBX 7 13 0 -2
BITMAP
00
00
00
00
00
78
84
80
80
84
78
00
00
ENDCHAR
STARTCHAR afii10084
ENCODING 242
SWIDTH 570 0
DWIDTH 7 0
BBX 7 13 0 -2
BITMAP
00
00
00
00
00
F8
20
20
20
20
20
00
00
ENDCHAR
STARTCHAR afii10085
ENCODING 243
SWIDTH 570 0
DWIDTH 7 0
BBX 7 13 0 -2
BITMAP
00
00
00
00
00
84
84
84
8C
74
04
84
78
ENDCHAR
STARTCHAR afii10086
ENCODING 244
SWIDTH 570 0
DWIDTH 7 0
BBX 7 13 0 -2
BITMAP
00
00
00
00
10
7C
92
92
92
7C
10
10
10
ENDCHAR
STARTCHAR afii10087
ENCODING 245
SWIDTH 570 0
DWIDTH 7 0
BBX 7 13 0 -2
BITMAP
00
00
00
00
00
84
48
30
30
48
84
00
00
ENDCHAR
STARTCHAR afii10088
ENCODING 246
SWIDTH 570 0
DWIDTH 7 0
BBX 7 13 0 -2
BITMAP
00
00
00
00
00
88
88
88
88
88
FC
04
00
ENDCHAR
STARTCHAR afii10089
ENCODING 247
SWIDTH 570 0
DWIDTH 7 0
BBX 7 13 0 -2
BITMAP
00
00
00
00
00
84
84
84
7C
04
04
00
00
ENDCHAR
STARTCHAR afii10090
ENCODING 248
SWIDTH 570 0
DWIDTH 7 0
BBX 7 13 0 -2
BITMAP
00
00
00
00
00
44
54
54
54
54
7C
00
00
ENDCHAR
STARTCHAR afii10091
ENCODING 249
SWIDTH 570 0
DWIDTH 7 0
BBX 7 13 0 -2
BITMAP
00
00
00
00
00
88
A8
A8
A8
A8
FC
04
00
ENDCHAR
STARTCHAR afii10092
ENCODING 250
SWIDTH 570 0
DWIDTH 7 0
BBX 7 13 0 -2
BITMAP
00
00
00
00
00
C0
40
78
44
44
78
00
00
ENDCHAR
STARTCHAR afii10093
ENCODING 251
SWIDTH 570 0
DWIDTH 7 0
BBX 7 13 0 -2
BITMAP
00
00
00
00
00
84
84
E4
94
94
E4
00
00
ENDCHAR
STARTCHAR afii10094
ENCODING 252
SWIDTH 570 0
DWIDTH 7 0
BBX 7 13 0 -2
BITMAP
00
00
00
00
00
80
80
F8
84
84
F8
00
00
ENDCHAR
STARTCHAR afii10095
ENCODING 253
SWIDTH 570 0
DWIDTH 7 0
BBX 7 13 0 -2
BITMAP
00
00
00
00
00
78
84
3C
04
84
78
00
00
ENDCHAR
STARTCHAR afii10096
ENCODING 254
SWIDTH 570 0
DWIDTH 7 0
BBX 7 13 0 -2
BITMAP
00
00
00
00
00
98
A4
E4
A4
A4
98
00
00
ENDCHAR
STARTCHAR afii10097
ENCODING 255
SWIDTH 570 0
DWIDTH 7 0
BBX 7 13 0 -2
BITMAP
00
00
00
00
00
7C
84
84
7C
44
84
00
00
ENDCHAR
STARTCHAR tilde
ENCODING -1
SWIDTH 570 0
DWIDTH 7 0
BBX 7 13 0 -2
BITMAP
00
28
50
00
00
00
00
00
00
00
00
00
00
ENDCHAR
STARTCHAR florin
ENCODING -1
SWIDTH 570 0
DWIDTH 7 0
BBX 7 13 0 -2
BITMAP
00
00
18
24
20
20
F0
40
40
40
40
40
80
ENDCHAR
STARTCHAR circumflex
ENCODING -1
SWIDTH 570 0
DWIDTH 7 0
BBX 7 13 0 -2
BITMAP
00
30
48
00
00
00
00
00
00
00
00
00
00
ENDCHAR
STARTCHAR OE
ENCODING -1
SWIDTH 570 0
DWIDTH 7 0
BBX 7 13 0 -2
BITMAP
00
00
7C
90
90
90
98
90
90
90
7C
00
00
ENDCHAR
STARTCHAR oe
ENCODING -1
SWIDTH 570 0
DWIDTH 7 0
BBX 7 13 0 -2
BITMAP
00
00
00
00
00
68
94
9C
90
94
68
00
00
ENDCHAR
STARTCHAR Scaron
ENCODING -1
SWIDTH 570 0
DWIDTH 7 0
BBX 7 13 0 -2
BITMAP
00
48
30
00
78
84
80
78
04
84
78
00
00
ENDCHAR
STARTCHAR scaron
ENCODING -1
SWIDTH 570 0
DWIDTH 7 0
BBX 7 13 0 -2
BITMAP
00
48
30
00
00
78
84
60
18
84
78
00
00
ENDCHAR
STARTCHAR Zcaron
ENCODING -1
SWIDTH 570 0
DWIDTH 7 0
BBX 7 13 0 -2
BITMAP
00
48
30
00
FC
08
10
20
40
80
FC
00
00
ENDCHAR
STARTCHAR zcaron
ENCODING -1
SWIDTH 570 0
DWIDTH 7 0
BBX 7 13 0 -2
BITMAP
00
48
30
00
00
FC
08
10
20
40
FC
00
00
ENDCHAR
STARTCHAR Ydieresis
ENCODING -1
SWIDTH 570 0
DWIDTH 7 0
BBX 7 13 0 -2
BITMAP
00
50
50
00
88
88
50
20
20
20
20
00
00
ENDCHAR
ENDFONT
