STARTFONT 2.1
COMMENT ""
COMMENT Designed by Stephen Gildea <gildea@lcs.mit.edu> from original designs.
COMMENT November 1989
COMMENT ""
COMMENT Characters above 127 designed and made by
COMMENT Thomas Bagli (pyramid!pcsbst!tom@uunet.UU.NET)
COMMENT PCS Computer Systeme, West Germany
COMMENT ""
FONT -Misc-Fixed-Bold-R-Normal--13-120-75-75-C-70-windows-1251
SIZE 13 78 78
FONTBOUNDINGBOX 7 13 0 -2
STARTPROPERTIES 25
FONTNAME_REGISTRY ""
FOUNDRY "Misc"
FAMILY_NAME "Fixed"
WEIGHT_NAME "Bold"
SLANT "R"
SETWIDTH_NAME "Normal"
ADD_STYLE_NAME ""
PIXEL_SIZE 13
POINT_SIZE 120
RESOLUTION_X 75
RESOLUTION_Y 75
SPACING "C"
AVERAGE_WIDTH 70
CHARSET_REGISTRY "windows"
CHARSET_ENCODING "1251"
UNDERLINE_POSITION -1
DESTINATION 1
DEFAULT_CHAR 0
FONT_DESCENT 2
FONT_ASCENT 11
COPYRIGHT "Public domain font.  Share and enjoy."
COPYRIGHT2 "Cyrillic, Euro and special glyphs copyright 2000 Dmitry Yu. Bolkhovityanov, bolkhov@inp.nsk.su"
SOURCEDATE "Tue Aug  1 20:14:10 2000"
PKGVERSION "1.1"
ASSEMBLER "cvtbdf.pl (Linux)"
ENDPROPERTIES
CHARS 265
STARTCHAR null
ENCODING 0
SWIDTH 570 0
DWIDTH 7 0
BBX 7 13 0 -2
BITMAP
00
7C
7C
7C
7C
7C
7C
7C
7C
7C
7C
7C
00
ENDCHAR
STARTCHAR ctrlA
ENCODING 1
SWIDTH 570 0
DWIDTH 7 0
BBX 7 13 0 -2
BITMAP
00
00
00
00
00
30
78
FC
78
30
00
00
00
ENDCHAR
STARTCHAR ctrlB
ENCODING 2
SWIDTH 570 0
DWIDTH 7 0
BBX 7 13 0 -2
BITMAP
00
CC
30
CC
30
CC
30
CC
30
CC
30
CC
00
ENDCHAR
STARTCHAR ctrlC
ENCODING 3
SWIDTH 570 0
DWIDTH 7 0
BBX 7 13 0 -2
BITMAP
00
D8
D8
F8
D8
D8
00
3C
18
18
18
18
00
ENDCHAR
STARTCHAR ctrlD
ENCODING 4
SWIDTH 570 0
DWIDTH 7 0
BBX 7 13 0 -2
BITMAP
00
F0
C0
E0
C0
C0
00
3C
30
38
30
30
00
ENDCHAR
STARTCHAR ctrlE
ENCODING 5
SWIDTH 570 0
DWIDTH 7 0
BBX 7 13 0 -2
BITMAP
00
70
C0
C0
C0
70
00
38
34
38
34
34
00
ENDCHAR
STARTCHAR ctrlF
ENCODING 6
SWIDTH 570 0
DWIDTH 7 0
BBX 7 13 0 -2
BITMAP
00
C0
C0
C0
C0
F0
00
3C
30
38
30
30
00
ENDCHAR
STARTCHAR ctrlG
ENCODING 7
SWIDTH 570 0
DWIDTH 7 0
BBX 7 13 0 -2
BITMAP
00
00
78
CC
CC
78
00
00
00
00
00
00
00
ENDCHAR
STARTCHAR ctrlH
ENCODING 8
SWIDTH 570 0
DWIDTH 7 0
BBX 7 13 0 -2
BITMAP
00
00
30
30
FC
FC
30
30
00
FC
FC
00
00
ENDCHAR
STARTCHAR ctrlI
ENCODING 9
SWIDTH 570 0
DWIDTH 7 0
BBX 7 13 0 -2
BITMAP
00
CC
EC
FC
DC
CC
00
30
30
30
30
3C
00
ENDCHAR
STARTCHAR ctrlJ
ENCODING 10
SWIDTH 570 0
DWIDTH 7 0
BBX 7 13 0 -2
BITMAP
00
CC
CC
48
78
30
00
3C
18
18
18
18
00
ENDCHAR
STARTCHAR ldcornsqlr
ENCODING 11
SWIDTH 570 0
DWIDTH 7 0
BBX 7 13 0 -2
BITMAP
30
30
30
30
30
30
F0
F0
00
00
00
00
00
ENDCHAR
STARTCHAR ldcornsqur
ENCODING 12
SWIDTH 570 0
DWIDTH 7 0
BBX 7 13 0 -2
BITMAP
00
00
00
00
00
00
F0
F0
30
30
30
30
30
ENDCHAR
STARTCHAR ldcornsqul
ENCODING 13
SWIDTH 570 0
DWIDTH 7 0
BBX 7 13 0 -2
BITMAP
00
00
00
00
00
00
3E
3E
30
30
30
30
30
ENDCHAR
STARTCHAR ldcornsqll
ENCODING 14
SWIDTH 570 0
DWIDTH 7 0
BBX 7 13 0 -2
BITMAP
30
30
30
30
30
30
3E
3E
00
00
00
00
00
ENDCHAR
STARTCHAR ldcross
ENCODING 15
SWIDTH 570 0
DWIDTH 7 0
BBX 7 13 0 -2
BITMAP
30
30
30
30
30
30
FE
FE
30
30
30
30
30
ENDCHAR
STARTCHAR ctrlP
ENCODING 16
SWIDTH 570 0
DWIDTH 7 0
BBX 7 13 0 -2
BITMAP
00
00
FE
FE
00
00
00
00
00
00
00
00
00
ENDCHAR
STARTCHAR ctrlQ
ENCODING 17
SWIDTH 570 0
DWIDTH 7 0
BBX 7 13 0 -2
BITMAP
00
00
00
00
FE
FE
00
00
00
00
00
00
00
ENDCHAR
STARTCHAR ldhorizontal
ENCODING 18
SWIDTH 570 0
DWIDTH 7 0
BBX 7 13 0 -2
BITMAP
00
00
00
00
00
00
FE
FE
00
00
00
00
00
ENDCHAR
STARTCHAR ctrlS
ENCODING 19
SWIDTH 570 0
DWIDTH 7 0
BBX 7 13 0 -2
BITMAP
00
00
00
00
00
00
00
00
FE
FE
00
00
00
ENDCHAR
STARTCHAR ctrlT
ENCODING 20
SWIDTH 570 0
DWIDTH 7 0
BBX 7 13 0 -2
BITMAP
00
00
00
00
00
00
00
00
00
00
FE
FE
00
ENDCHAR
STARTCHAR ldteelft
ENCODING 21
SWIDTH 570 0
DWIDTH 7 0
BBX 7 13 0 -2
BITMAP
30
30
30
30
30
30
3E
3E
30
30
30
30
30
ENDCHAR
STARTCHAR ldteert
ENCODING 22
SWIDTH 570 0
DWIDTH 7 0
BBX 7 13 0 -2
BITMAP
30
30
30
30
30
30
F0
F0
30
30
30
30
30
ENDCHAR
STARTCHAR ldteebt
ENCODING 23
SWIDTH 570 0
DWIDTH 7 0
BBX 7 13 0 -2
BITMAP
30
30
30
30
30
30
FE
FE
00
00
00
00
00
ENDCHAR
STARTCHAR ldteetp
ENCODING 24
SWIDTH 570 0
DWIDTH 7 0
BBX 7 13 0 -2
BITMAP
00
00
00
00
00
00
FE
FE
30
30
30
30
30
ENDCHAR
STARTCHAR ldvertical
ENCODING 25
SWIDTH 570 0
DWIDTH 7 0
BBX 7 13 0 -2
BITMAP
30
30
30
30
30
30
30
30
30
30
30
30
30
ENDCHAR
STARTCHAR ctrlZ
ENCODING 26
SWIDTH 570 0
DWIDTH 7 0
BBX 7 13 0 -2
BITMAP
00
00
0C
18
60
C0
60
18
0C
FC
FC
00
00
ENDCHAR
STARTCHAR ctrlBRL
ENCODING 27
SWIDTH 570 0
DWIDTH 7 0
BBX 7 13 0 -2
BITMAP
00
00
C0
60
18
0C
18
60
C0
FC
FC
00
00
ENDCHAR
STARTCHAR ctrlBSLASH
ENCODING 28
SWIDTH 570 0
DWIDTH 7 0
BBX 7 13 0 -2
BITMAP
00
00
00
00
00
FC
6C
6C
6C
EC
CC
00
00
ENDCHAR
STARTCHAR ctrlBRR
ENCODING 29
SWIDTH 570 0
DWIDTH 7 0
BBX 7 13 0 -2
BITMAP
00
00
04
0C
FC
FC
30
FC
FC
C0
80
00
00
ENDCHAR
STARTCHAR ctrlCARET
ENCODING 30
SWIDTH 570 0
DWIDTH 7 0
BBX 7 13 0 -2
BITMAP
00
00
38
6C
60
60
F8
60
60
6C
B8
00
00
ENDCHAR
STARTCHAR ctrlUND
ENCODING 31
SWIDTH 570 0
DWIDTH 7 0
BBX 7 13 0 -2
BITMAP
00
00
00
00
00
00
30
30
00
00
00
00
00
ENDCHAR
STARTCHAR space
ENCODING 32
SWIDTH 570 0
DWIDTH 7 0
BBX 7 13 0 -2
BITMAP
00
00
00
00
00
00
00
00
00
00
00
00
00
ENDCHAR
STARTCHAR exclam
ENCODING 33
SWIDTH 570 0
DWIDTH 7 0
BBX 7 13 0 -2
BITMAP
00
00
30
30
30
30
30
30
00
30
30
00
00
ENDCHAR
STARTCHAR quotedbl
ENCODING 34
SWIDTH 570 0
DWIDTH 7 0
BBX 7 13 0 -2
BITMAP
00
00
6C
6C
6C
00
00
00
00
00
00
00
00
ENDCHAR
STARTCHAR numbersign
ENCODING 35
SWIDTH 570 0
DWIDTH 7 0
BBX 7 13 0 -2
BITMAP
00
00
28
28
7C
7C
28
7C
7C
28
28
00
00
ENDCHAR
STARTCHAR dollar
ENCODING 36
SWIDTH 570 0
DWIDTH 7 0
BBX 7 13 0 -2
BITMAP
00
00
30
78
B4
B0
78
34
B4
78
30
00
00
ENDCHAR
STARTCHAR percent
ENCODING 37
SWIDTH 570 0
DWIDTH 7 0
BBX 7 13 0 -2
BITMAP
00
00
E4
AC
E8
18
30
60
5C
D4
9C
00
00
ENDCHAR
STARTCHAR ampersand
ENCODING 38
SWIDTH 570 0
DWIDTH 7 0
BBX 7 13 0 -2
BITMAP
00
00
70
D8
D8
D8
70
D4
DC
D8
74
00
00
ENDCHAR
STARTCHAR quotesingle
ENCODING 39
SWIDTH 570 0
DWIDTH 7 0
BBX 7 13 0 -2
BITMAP
00
00
18
18
18
00
00
00
00
00
00
00
00
ENDCHAR
STARTCHAR parenleft
ENCODING 40
SWIDTH 570 0
DWIDTH 7 0
BBX 7 13 0 -2
BITMAP
00
00
18
30
30
60
60
60
30
30
18
00
00
ENDCHAR
STARTCHAR parenright
ENCODING 41
SWIDTH 570 0
DWIDTH 7 0
BBX 7 13 0 -2
BITMAP
00
00
60
30
30
18
18
18
30
30
60
00
00
ENDCHAR
STARTCHAR asterisk
ENCODING 42
SWIDTH 570 0
DWIDTH 7 0
BBX 7 13 0 -2
BITMAP
00
00
00
00
48
30
FC
FC
30
48
00
00
00
ENDCHAR
STARTCHAR plus
ENCODING 43
SWIDTH 570 0
DWIDTH 7 0
BBX 7 13 0 -2
BITMAP
00
00
00
00
30
30
FC
FC
30
30
00
00
00
ENDCHAR
STARTCHAR comma
ENCODING 44
SWIDTH 570 0
DWIDTH 7 0
BBX 7 13 0 -2
BITMAP
00
00
00
00
00
00
00
00
38
38
30
60
00
ENDCHAR
STARTCHAR minus
ENCODING 45
SWIDTH 570 0
DWIDTH 7 0
BBX 7 13 0 -2
BITMAP
00
00
00
00
00
00
FC
FC
00
00
00
00
00
ENDCHAR
STARTCHAR period
ENCODING 46
SWIDTH 570 0
DWIDTH 7 0
BBX 7 13 0 -2
BITMAP
00
00
00
00
00
00
00
00
00
30
78
30
00
ENDCHAR
STARTCHAR slash
ENCODING 47
SWIDTH 570 0
DWIDTH 7 0
BBX 7 13 0 -2
BITMAP
00
00
0C
0C
18
18
30
60
60
C0
C0
00
00
ENDCHAR
STARTCHAR zero
ENCODING 48
SWIDTH 570 0
DWIDTH 7 0
BBX 7 13 0 -2
BITMAP
00
00
30
48
CC
CC
CC
CC
CC
48
30
00
00
ENDCHAR
STARTCHAR one
ENCODING 49
SWIDTH 570 0
DWIDTH 7 0
BBX 7 13 0 -2
BITMAP
00
00
30
70
B0
30
30
30
30
30
FC
00
00
ENDCHAR
STARTCHAR two
ENCODING 50
SWIDTH 570 0
DWIDTH 7 0
BBX 7 13 0 -2
BITMAP
00
00
78
CC
CC
0C
38
60
C0
C0
FC
00
00
ENDCHAR
STARTCHAR three
ENCODING 51
SWIDTH 570 0
DWIDTH 7 0
BBX 7 13 0 -2
BITMAP
00
00
FC
0C
18
30
78
0C
0C
CC
78
00
00
ENDCHAR
STARTCHAR four
ENCODING 52
SWIDTH 570 0
DWIDTH 7 0
BBX 7 13 0 -2
BITMAP
00
00
0C
1C
3C
6C
CC
CC
FC
0C
0C
00
00
ENDCHAR
STARTCHAR five
ENCODING 53
SWIDTH 570 0
DWIDTH 7 0
BBX 7 13 0 -2
BITMAP
00
00
FC
C0
C0
F8
CC
0C
0C
CC
78
00
00
ENDCHAR
STARTCHAR six
ENCODING 54
SWIDTH 570 0
DWIDTH 7 0
BBX 7 13 0 -2
BITMAP
00
00
78
CC
C0
C0
F8
CC
CC
CC
78
00
00
ENDCHAR
STARTCHAR seven
ENCODING 55
SWIDTH 570 0
DWIDTH 7 0
BBX 7 13 0 -2
BITMAP
00
00
FC
0C
0C
18
18
30
30
60
60
00
00
ENDCHAR
STARTCHAR eight
ENCODING 56
SWIDTH 570 0
DWIDTH 7 0
BBX 7 13 0 -2
BITMAP
00
00
78
CC
CC
CC
78
CC
CC
CC
78
00
00
ENDCHAR
STARTCHAR nine
ENCODING 57
SWIDTH 570 0
DWIDTH 7 0
BBX 7 13 0 -2
BITMAP
00
00
78
CC
CC
CC
7C
0C
0C
CC
78
00
00
ENDCHAR
STARTCHAR colon
ENCODING 58
SWIDTH 570 0
DWIDTH 7 0
BBX 7 13 0 -2
BITMAP
00
00
00
00
30
78
30
00
00
30
78
30
00
ENDCHAR
STARTCHAR semicolon
ENCODING 59
SWIDTH 570 0
DWIDTH 7 0
BBX 7 13 0 -2
BITMAP
00
00
00
00
30
78
30
00
38
38
30
60
00
ENDCHAR
STARTCHAR less
ENCODING 60
SWIDTH 570 0
DWIDTH 7 0
BBX 7 13 0 -2
BITMAP
00
00
0C
18
30
60
C0
60
30
18
0C
00
00
ENDCHAR
STARTCHAR equal
ENCODING 61
SWIDTH 570 0
DWIDTH 7 0
BBX 7 13 0 -2
BITMAP
00
00
00
00
FC
FC
00
FC
FC
00
00
00
00
ENDCHAR
STARTCHAR greater
ENCODING 62
SWIDTH 570 0
DWIDTH 7 0
BBX 7 13 0 -2
BITMAP
00
00
C0
60
30
18
0C
18
30
60
C0
00
00
ENDCHAR
STARTCHAR question
ENCODING 63
SWIDTH 570 0
DWIDTH 7 0
BBX 7 13 0 -2
BITMAP
00
00
78
CC
CC
0C
38
30
00
30
30
00
00
ENDCHAR
STARTCHAR at
ENCODING 64
SWIDTH 570 0
DWIDTH 7 0
BBX 7 13 0 -2
BITMAP
00
00
78
8C
8C
BC
AC
BC
80
8C
78
00
00
ENDCHAR
STARTCHAR A
ENCODING 65
SWIDTH 570 0
DWIDTH 7 0
BBX 7 13 0 -2
BITMAP
00
00
78
CC
CC
CC
FC
CC
CC
CC
CC
00
00
ENDCHAR
STARTCHAR B
ENCODING 66
SWIDTH 570 0
DWIDTH 7 0
BBX 7 13 0 -2
BITMAP
00
00
F8
CC
CC
CC
F8
CC
CC
CC
F8
00
00
ENDCHAR
STARTCHAR C
ENCODING 67
SWIDTH 570 0
DWIDTH 7 0
BBX 7 13 0 -2
BITMAP
00
00
78
CC
C0
C0
C0
C0
C0
CC
78
00
00
ENDCHAR
STARTCHAR D
ENCODING 68
SWIDTH 570 0
DWIDTH 7 0
BBX 7 13 0 -2
BITMAP
00
00
F8
CC
CC
CC
CC
CC
CC
CC
F8
00
00
ENDCHAR
STARTCHAR E
ENCODING 69
SWIDTH 570 0
DWIDTH 7 0
BBX 7 13 0 -2
BITMAP
00
00
FC
C0
C0
C0
F8
C0
C0
C0
FC
00
00
ENDCHAR
STARTCHAR F
ENCODING 70
SWIDTH 570 0
DWIDTH 7 0
BBX 7 13 0 -2
BITMAP
00
00
FC
C0
C0
C0
F8
C0
C0
C0
C0
00
00
ENDCHAR
STARTCHAR G
ENCODING 71
SWIDTH 570 0
DWIDTH 7 0
BBX 7 13 0 -2
BITMAP
00
00
78
CC
C0
C0
DC
CC
CC
CC
7C
00
00
ENDCHAR
STARTCHAR H
ENCODING 72
SWIDTH 570 0
DWIDTH 7 0
BBX 7 13 0 -2
BITMAP
00
00
CC
CC
CC
CC
FC
CC
CC
CC
CC
00
00
ENDCHAR
STARTCHAR I
ENCODING 73
SWIDTH 570 0
DWIDTH 7 0
BBX 7 13 0 -2
BITMAP
00
00
FC
30
30
30
30
30
30
30
FC
00
00
ENDCHAR
STARTCHAR J
ENCODING 74
SWIDTH 570 0
DWIDTH 7 0
BBX 7 13 0 -2
BITMAP
00
00
0C
0C
0C
0C
0C
0C
0C
CC
78
00
00
ENDCHAR
STARTCHAR K
ENCODING 75
SWIDTH 570 0
DWIDTH 7 0
BBX 7 13 0 -2
BITMAP
00
00
C4
CC
D8
F0
E0
F0
D8
CC
C4
00
00
ENDCHAR
STARTCHAR L
ENCODING 76
SWIDTH 570 0
DWIDTH 7 0
BBX 7 13 0 -2
BITMAP
00
00
C0
C0
C0
C0
C0
C0
C0
C0
FC
00
00
ENDCHAR
STARTCHAR M
ENCODING 77
SWIDTH 570 0
DWIDTH 7 0
BBX 7 13 0 -2
BITMAP
00
00
84
CC
FC
FC
CC
CC
CC
CC
CC
00
00
ENDCHAR
STARTCHAR N
ENCODING 78
SWIDTH 570 0
DWIDTH 7 0
BBX 7 13 0 -2
BITMAP
00
00
CC
CC
EC
EC
FC
DC
DC
CC
CC
00
00
ENDCHAR
STARTCHAR O
ENCODING 79
SWIDTH 570 0
DWIDTH 7 0
BBX 7 13 0 -2
BITMAP
00
00
78
CC
CC
CC
CC
CC
CC
CC
78
00
00
ENDCHAR
STARTCHAR P
ENCODING 80
SWIDTH 570 0
DWIDTH 7 0
BBX 7 13 0 -2
BITMAP
00
00
F8
CC
CC
CC
F8
C0
C0
C0
C0
00
00
ENDCHAR
STARTCHAR Q
ENCODING 81
SWIDTH 570 0
DWIDTH 7 0
BBX 7 13 0 -2
BITMAP
00
00
78
CC
CC
CC
CC
CC
EC
DC
78
0C
00
ENDCHAR
STARTCHAR R
ENCODING 82
SWIDTH 570 0
DWIDTH 7 0
BBX 7 13 0 -2
BITMAP
00
00
F8
CC
CC
CC
F8
F0
D8
CC
C4
00
00
ENDCHAR
STARTCHAR S
ENCODING 83
SWIDTH 570 0
DWIDTH 7 0
BBX 7 13 0 -2
BITMAP
00
00
78
CC
C0
C0
78
0C
0C
CC
78
00
00
ENDCHAR
STARTCHAR T
ENCODING 84
SWIDTH 570 0
DWIDTH 7 0
BBX 7 13 0 -2
BITMAP
00
00
FC
30
30
30
30
30
30
30
30
00
00
ENDCHAR
STARTCHAR U
ENCODING 85
SWIDTH 570 0
DWIDTH 7 0
BBX 7 13 0 -2
BITMAP
00
00
CC
CC
CC
CC
CC
CC
CC
CC
78
00
00
ENDCHAR
STARTCHAR V
ENCODING 86
SWIDTH 570 0
DWIDTH 7 0
BBX 7 13 0 -2
BITMAP
00
00
CC
CC
CC
48
48
78
30
30
30
00
00
ENDCHAR
STARTCHAR W
ENCODING 87
SWIDTH 570 0
DWIDTH 7 0
BBX 7 13 0 -2
BITMAP
00
00
CC
CC
CC
CC
CC
FC
FC
CC
84
00
00
ENDCHAR
STARTCHAR X
ENCODING 88
SWIDTH 570 0
DWIDTH 7 0
BBX 7 13 0 -2
BITMAP
00
00
84
CC
48
78
30
78
48
CC
84
00
00
ENDCHAR
STARTCHAR Y
ENCODING 89
SWIDTH 570 0
DWIDTH 7 0
BBX 7 13 0 -2
BITMAP
00
00
CC
CC
78
78
30
30
30
30
30
00
00
ENDCHAR
STARTCHAR Z
ENCODING 90
SWIDTH 570 0
DWIDTH 7 0
BBX 7 13 0 -2
BITMAP
00
00
FC
0C
0C
18
30
60
C0
C0
FC
00
00
ENDCHAR
STARTCHAR bracketleft
ENCODING 91
SWIDTH 570 0
DWIDTH 7 0
BBX 7 13 0 -2
BITMAP
00
00
78
60
60
60
60
60
60
60
78
00
00
ENDCHAR
STARTCHAR backslash
ENCODING 92
SWIDTH 570 0
DWIDTH 7 0
BBX 7 13 0 -2
BITMAP
00
00
C0
C0
60
60
30
18
18
0C
0C
00
00
ENDCHAR
STARTCHAR bracketright
ENCODING 93
SWIDTH 570 0
DWIDTH 7 0
BBX 7 13 0 -2
BITMAP
00
00
78
18
18
18
18
18
18
18
78
00
00
ENDCHAR
STARTCHAR asciicircum
ENCODING 94
SWIDTH 570 0
DWIDTH 7 0
BBX 7 13 0 -2
BITMAP
00
00
30
78
CC
84
00
00
00
00
00
00
00
ENDCHAR
STARTCHAR underscore
ENCODING 95
SWIDTH 570 0
DWIDTH 7 0
BBX 7 13 0 -2
BITMAP
00
00
00
00
00
00
00
00
00
00
FC
FC
00
ENDCHAR
STARTCHAR grave
ENCODING 96
SWIDTH 570 0
DWIDTH 7 0
BBX 7 13 0 -2
BITMAP
00
60
30
18
00
00
00
00
00
00
00
00
00
ENDCHAR
STARTCHAR a
ENCODING 97
SWIDTH 570 0
DWIDTH 7 0
BBX 7 13 0 -2
BITMAP
00
00
00
00
00
78
0C
7C
CC
CC
7C
00
00
ENDCHAR
STARTCHAR b
ENCODING 98
SWIDTH 570 0
DWIDTH 7 0
BBX 7 13 0 -2
BITMAP
00
00
C0
C0
C0
F8
CC
CC
CC
CC
F8
00
00
ENDCHAR
STARTCHAR c
ENCODING 99
SWIDTH 570 0
DWIDTH 7 0
BBX 7 13 0 -2
BITMAP
00
00
00
00
00
78
CC
C0
C0
CC
78
00
00
ENDCHAR
STARTCHAR d
ENCODING 100
SWIDTH 570 0
DWIDTH 7 0
BBX 7 13 0 -2
BITMAP
00
00
0C
0C
0C
7C
CC
CC
CC
CC
7C
00
00
ENDCHAR
STARTCHAR e
ENCODING 101
SWIDTH 570 0
DWIDTH 7 0
BBX 7 13 0 -2
BITMAP
00
00
00
00
00
78
CC
FC
C0
CC
78
00
00
ENDCHAR
STARTCHAR f
ENCODING 102
SWIDTH 570 0
DWIDTH 7 0
BBX 7 13 0 -2
BITMAP
00
00
38
6C
60
60
F0
60
60
60
60
00
00
ENDCHAR
STARTCHAR g
ENCODING 103
SWIDTH 570 0
DWIDTH 7 0
BBX 7 13 0 -2
BITMAP
00
00
00
00
00
74
CC
CC
78
C0
78
CC
78
ENDCHAR
STARTCHAR h
ENCODING 104
SWIDTH 570 0
DWIDTH 7 0
BBX 7 13 0 -2
BITMAP
00
00
C0
C0
C0
F8
CC
CC
CC
CC
CC
00
00
ENDCHAR
STARTCHAR i
ENCODING 105
SWIDTH 570 0
DWIDTH 7 0
BBX 7 13 0 -2
BITMAP
00
00
30
30
00
70
30
30
30
30
FC
00
00
ENDCHAR
STARTCHAR j
ENCODING 106
SWIDTH 570 0
DWIDTH 7 0
BBX 7 13 0 -2
BITMAP
00
00
0C
0C
00
0C
0C
0C
0C
0C
0C
CC
78
ENDCHAR
STARTCHAR k
ENCODING 107
SWIDTH 570 0
DWIDTH 7 0
BBX 7 13 0 -2
BITMAP
00
00
C0
C0
C0
CC
D8
F0
F0
D8
CC
00
00
ENDCHAR
STARTCHAR l
ENCODING 108
SWIDTH 570 0
DWIDTH 7 0
BBX 7 13 0 -2
BITMAP
00
00
70
30
30
30
30
30
30
30
FC
00
00
ENDCHAR
STARTCHAR m
ENCODING 109
SWIDTH 570 0
DWIDTH 7 0
BBX 7 13 0 -2
BITMAP
00
00
00
00
00
D8
FC
FC
CC
CC
CC
00
00
ENDCHAR
STARTCHAR n
ENCODING 110
SWIDTH 570 0
DWIDTH 7 0
BBX 7 13 0 -2
BITMAP
00
00
00
00
00
F8
CC
CC
CC
CC
CC
00
00
ENDCHAR
STARTCHAR o
ENCODING 111
SWIDTH 570 0
DWIDTH 7 0
BBX 7 13 0 -2
BITMAP
00
00
00
00
00
78
CC
CC
CC
CC
78
00
00
ENDCHAR
STARTCHAR p
ENCODING 112
SWIDTH 570 0
DWIDTH 7 0
BBX 7 13 0 -2
BITMAP
00
00
00
00
00
F8
CC
CC
CC
F8
C0
C0
C0
ENDCHAR
STARTCHAR q
ENCODING 113
SWIDTH 570 0
DWIDTH 7 0
BBX 7 13 0 -2
BITMAP
00
00
00
00
00
7C
CC
CC
CC
7C
0C
0C
0C
ENDCHAR
STARTCHAR r
ENCODING 114
SWIDTH 570 0
DWIDTH 7 0
BBX 7 13 0 -2
BITMAP
00
00
00
00
00
F8
CC
C0
C0
C0
C0
00
00
ENDCHAR
STARTCHAR s
ENCODING 115
SWIDTH 570 0
DWIDTH 7 0
BBX 7 13 0 -2
BITMAP
00
00
00
00
00
78
CC
60
18
CC
78
00
00
ENDCHAR
STARTCHAR t
ENCODING 116
SWIDTH 570 0
DWIDTH 7 0
BBX 7 13 0 -2
BITMAP
00
00
00
60
60
F8
60
60
60
6C
38
00
00
ENDCHAR
STARTCHAR u
ENCODING 117
SWIDTH 570 0
DWIDTH 7 0
BBX 7 13 0 -2
BITMAP
00
00
00
00
00
CC
CC
CC
CC
CC
7C
00
00
ENDCHAR
STARTCHAR v
ENCODING 118
SWIDTH 570 0
DWIDTH 7 0
BBX 7 13 0 -2
BITMAP
00
00
00
00
00
CC
CC
CC
78
78
30
00
00
ENDCHAR
STARTCHAR w
ENCODING 119
SWIDTH 570 0
DWIDTH 7 0
BBX 7 13 0 -2
BITMAP
00
00
00
00
00
CC
CC
CC
FC
FC
48
00
00
ENDCHAR
STARTCHAR x
ENCODING 120
SWIDTH 570 0
DWIDTH 7 0
BBX 7 13 0 -2
BITMAP
00
00
00
00
00
CC
CC
78
78
CC
CC
00
00
ENDCHAR
STARTCHAR y
ENCODING 121
SWIDTH 570 0
DWIDTH 7 0
BBX 7 13 0 -2
BITMAP
00
00
00
00
00
CC
CC
CC
CC
7C
0C
CC
78
ENDCHAR
STARTCHAR z
ENCODING 122
SWIDTH 570 0
DWIDTH 7 0
BBX 7 13 0 -2
BITMAP
00
00
00
00
00
FC
0C
18
60
C0
FC
00
00
ENDCHAR
STARTCHAR braceleft
ENCODING 123
SWIDTH 570 0
DWIDTH 7 0
BBX 7 13 0 -2
BITMAP
00
00
38
60
60
30
60
30
60
60
38
00
00
ENDCHAR
STARTCHAR bar
ENCODING 124
SWIDTH 570 0
DWIDTH 7 0
BBX 7 13 0 -2
BITMAP
00
00
30
30
30
30
30
30
30
30
30
00
00
ENDCHAR
STARTCHAR braceright
ENCODING 125
SWIDTH 570 0
DWIDTH 7 0
BBX 7 13 0 -2
BITMAP
00
00
70
18
18
30
18
30
18
18
70
00
00
ENDCHAR
STARTCHAR asciitilde
ENCODING 126
SWIDTH 570 0
DWIDTH 7 0
BBX 7 13 0 -2
BITMAP
00
00
64
FC
98
00
00
00
00
00
00
00
00
ENDCHAR
STARTCHAR delete
ENCODING 127
SWIDTH 570 0
DWIDTH 7 0
BBX 7 13 0 -2
BITMAP
00
00
00
00
00
00
00
00
00
00
00
00
00
ENDCHAR
STARTCHAR afii10051
ENCODING 128
SWIDTH 570 0
DWIDTH 7 0
BBX 7 13 0 -2
BITMAP
00
00
F0
C0
C0
C0
F8
CC
CC
CC
D8
00
00
ENDCHAR
STARTCHAR afii10052
ENCODING 129
SWIDTH 570 0
DWIDTH 7 0
BBX 7 13 0 -2
BITMAP
00
18
30
00
FC
C0
C0
C0
C0
C0
C0
00
00
ENDCHAR
STARTCHAR quotesinglbase
ENCODING 130
SWIDTH 570 0
DWIDTH 7 0
BBX 7 13 0 -2
BITMAP
00
00
00
00
00
00
00
00
38
38
30
60
00
ENDCHAR
STARTCHAR afii10100
ENCODING 131
SWIDTH 570 0
DWIDTH 7 0
BBX 7 13 0 -2
BITMAP
00
18
30
00
00
FC
C0
C0
C0
C0
C0
00
00
ENDCHAR
STARTCHAR quotedblbase
ENCODING 132
SWIDTH 570 0
DWIDTH 7 0
BBX 7 13 0 -2
BITMAP
00
00
00
00
00
00
00
00
7E
7E
6C
D8
00
ENDCHAR
STARTCHAR ellipsis
ENCODING 133
SWIDTH 570 0
DWIDTH 7 0
BBX 7 13 0 -2
BITMAP
00
00
00
00
00
00
00
00
00
54
54
00
00
ENDCHAR
STARTCHAR dagger
ENCODING 134
SWIDTH 570 0
DWIDTH 7 0
BBX 7 13 0 -2
BITMAP
00
00
30
30
30
FC
30
30
30
30
30
30
00
ENDCHAR
STARTCHAR daggerdbl
ENCODING 135
SWIDTH 570 0
DWIDTH 7 0
BBX 7 13 0 -2
BITMAP
00
00
30
30
30
FC
30
30
FC
30
30
30
00
ENDCHAR
STARTCHAR Euro
ENCODING 136
SWIDTH 570 0
DWIDTH 7 0
BBX 7 13 0 -2
BITMAP
00
00
3C
66
60
FC
60
F8
60
66
3C
00
00
ENDCHAR
STARTCHAR perthousand
ENCODING 137
SWIDTH 570 0
DWIDTH 7 0
BBX 7 13 0 -2
BITMAP
00
00
E0
A0
E6
1C
70
C0
3E
2A
3E
00
00
ENDCHAR
STARTCHAR afii10058
ENCODING 138
SWIDTH 570 0
DWIDTH 7 0
BBX 7 13 0 -2
BITMAP
00
00
70
B0
B0
B0
B8
B4
B4
B4
B8
00
00
ENDCHAR
STARTCHAR guilsinglleft
ENCODING 139
SWIDTH 570 0
DWIDTH 7 0
BBX 7 13 0 -2
BITMAP
00
00
00
0C
18
30
60
30
18
0C
00
00
00
ENDCHAR
STARTCHAR afii10059
ENCODING 140
SWIDTH 570 0
DWIDTH 7 0
BBX 7 13 0 -2
BITMAP
00
00
B0
B0
B0
B0
F8
B4
B4
B4
B8
00
00
ENDCHAR
STARTCHAR afii10061
ENCODING 141
SWIDTH 570 0
DWIDTH 7 0
BBX 7 13 0 -2
BITMAP
00
18
30
00
CC
D8
F0
E0
F0
D8
CC
00
00
ENDCHAR
STARTCHAR afii10060
ENCODING 142
SWIDTH 570 0
DWIDTH 7 0
BBX 7 13 0 -2
BITMAP
00
00
F0
C0
C0
C0
F8
CC
CC
CC
CC
00
00
ENDCHAR
STARTCHAR afii10145
ENCODING 143
SWIDTH 570 0
DWIDTH 7 0
BBX 7 13 0 -2
BITMAP
00
00
CC
CC
CC
CC
CC
CC
CC
CC
FC
30
30
ENDCHAR
STARTCHAR afii10099
ENCODING 144
SWIDTH 570 0
DWIDTH 7 0
BBX 7 13 0 -2
BITMAP
00
00
C0
F0
C0
F8
CC
CC
CC
CC
D8
00
00
ENDCHAR
STARTCHAR quoteleft
ENCODING 145
SWIDTH 570 0
DWIDTH 7 0
BBX 7 13 0 -2
BITMAP
00
00
70
70
30
18
00
00
00
00
00
00
00
ENDCHAR
STARTCHAR quoteright
ENCODING 146
SWIDTH 570 0
DWIDTH 7 0
BBX 7 13 0 -2
BITMAP
00
00
38
38
30
60
00
00
00
00
00
00
00
ENDCHAR
STARTCHAR quotedblleft
ENCODING 147
SWIDTH 570 0
DWIDTH 7 0
BBX 7 13 0 -2
BITMAP
00
00
36
6C
FC
FC
00
00
00
00
00
00
00
ENDCHAR
STARTCHAR quotedblright
ENCODING 148
SWIDTH 570 0
DWIDTH 7 0
BBX 7 13 0 -2
BITMAP
00
00
7E
7E
6C
D8
00
00
00
00
00
00
00
ENDCHAR
STARTCHAR bullet
ENCODING 149
SWIDTH 570 0
DWIDTH 7 0
BBX 7 13 0 -2
BITMAP
00
00
00
00
00
30
78
78
30
00
00
00
00
ENDCHAR
STARTCHAR endash
ENCODING 150
SWIDTH 570 0
DWIDTH 7 0
BBX 7 13 0 -2
BITMAP
00
00
00
00
00
00
FC
00
00
00
00
00
00
ENDCHAR
STARTCHAR emdash
ENCODING 151
SWIDTH 570 0
DWIDTH 7 0
BBX 7 13 0 -2
BITMAP
00
00
00
00
00
00
FE
00
00
00
00
00
00
ENDCHAR
STARTCHAR trademark
ENCODING 153
SWIDTH 570 0
DWIDTH 7 0
BBX 7 13 0 -2
BITMAP
00
FE
5E
52
52
00
00
00
00
00
00
00
00
ENDCHAR
STARTCHAR afii10106
ENCODING 154
SWIDTH 570 0
DWIDTH 7 0
BBX 7 13 0 -2
BITMAP
00
00
00
00
00
70
B0
B8
B4
B4
B8
00
00
ENDCHAR
STARTCHAR guilsinglright
ENCODING 155
SWIDTH 570 0
DWIDTH 7 0
BBX 7 13 0 -2
BITMAP
00
00
00
60
30
18
0C
18
30
60
00
00
00
ENDCHAR
STARTCHAR afii10107
ENCODING 156
SWIDTH 570 0
DWIDTH 7 0
BBX 7 13 0 -2
BITMAP
00
00
00
00
00
B0
B0
F8
B4
B4
B8
00
00
ENDCHAR
STARTCHAR afii10109
ENCODING 157
SWIDTH 570 0
DWIDTH 7 0
BBX 7 13 0 -2
BITMAP
00
18
30
00
00
CC
D8
F0
F0
D8
CC
00
00
ENDCHAR
STARTCHAR afii10108
ENCODING 158
SWIDTH 570 0
DWIDTH 7 0
BBX 7 13 0 -2
BITMAP
00
00
C0
F0
C0
F8
CC
CC
CC
CC
CC
00
00
ENDCHAR
STARTCHAR afii10193
ENCODING 159
SWIDTH 570 0
DWIDTH 7 0
BBX 7 13 0 -2
BITMAP
00
00
00
00
00
CC
CC
CC
CC
CC
FC
30
30
ENDCHAR
STARTCHAR space
ENCODING 160
SWIDTH 570 0
DWIDTH 7 0
BBX 7 13 0 -2
BITMAP
00
00
00
00
00
00
00
00
00
00
00
00
00
ENDCHAR
STARTCHAR afii10062
ENCODING 161
SWIDTH 570 0
DWIDTH 7 0
BBX 7 13 0 -2
BITMAP
00
78
00
CC
CC
CC
7C
0C
0C
CC
78
00
00
ENDCHAR
STARTCHAR afii10110
ENCODING 162
SWIDTH 570 0
DWIDTH 7 0
BBX 7 13 0 -2
BITMAP
00
00
00
78
00
CC
CC
CC
CC
7C
0C
CC
78
ENDCHAR
STARTCHAR afii10057
ENCODING 163
SWIDTH 570 0
DWIDTH 7 0
BBX 7 13 0 -2
BITMAP
00
00
0C
0C
0C
0C
0C
0C
0C
CC
78
00
00
ENDCHAR
STARTCHAR currency
ENCODING 164
SWIDTH 570 0
DWIDTH 7 0
BBX 7 13 0 -2
BITMAP
00
00
00
00
CC
FC
48
48
FC
CC
00
00
00
ENDCHAR
STARTCHAR afii10050
ENCODING 165
SWIDTH 570 0
DWIDTH 7 0
BBX 7 13 0 -2
BITMAP
00
0C
FC
C0
C0
C0
C0
C0
C0
C0
C0
00
00
ENDCHAR
STARTCHAR brokenbar
ENCODING 166
SWIDTH 570 0
DWIDTH 7 0
BBX 7 13 0 -2
BITMAP
00
30
30
30
30
00
00
30
30
30
30
00
00
ENDCHAR
STARTCHAR section
ENCODING 167
SWIDTH 570 0
DWIDTH 7 0
BBX 7 13 0 -2
BITMAP
00
78
CC
C0
78
CC
CC
78
0C
CC
78
00
00
ENDCHAR
STARTCHAR afii10023
ENCODING 168
SWIDTH 666 0
DWIDTH 7 0
BBX 7 13 0 -2
BITMAP
00
cc
cc
00
fc
c0
c0
f0
c0
c0
fc
00
00
ENDCHAR
STARTCHAR copyright
ENCODING 169
SWIDTH 570 0
DWIDTH 7 0
BBX 7 13 0 -2
BITMAP
00
78
CC
84
B4
E4
E4
B4
84
CC
78
00
00
ENDCHAR
STARTCHAR afii10053
ENCODING 170
SWIDTH 570 0
DWIDTH 7 0
BBX 7 13 0 -2
BITMAP
00
00
78
CC
C0
C0
F0
C0
C0
CC
78
00
00
ENDCHAR
STARTCHAR guillemotleft
ENCODING 171
SWIDTH 570 0
DWIDTH 7 0
BBX 7 13 0 -2
BITMAP
00
00
00
34
68
D0
A0
D0
68
34
00
00
00
ENDCHAR
STARTCHAR logicalnot
ENCODING 172
SWIDTH 570 0
DWIDTH 7 0
BBX 7 13 0 -2
BITMAP
00
00
00
00
00
FC
FC
04
04
00
00
00
00
ENDCHAR
STARTCHAR hyphen
ENCODING 173
SWIDTH 570 0
DWIDTH 7 0
BBX 7 13 0 -2
BITMAP
00
00
00
00
00
7C
7C
00
00
00
00
00
00
ENDCHAR
STARTCHAR registered
ENCODING 174
SWIDTH 570 0
DWIDTH 7 0
BBX 7 13 0 -2
BITMAP
00
78
CC
84
BC
AC
BC
B4
AC
CC
78
00
00
ENDCHAR
STARTCHAR afii10056
ENCODING 175
SWIDTH 666 0
DWIDTH 7 0
BBX 7 13 0 -2
BITMAP
00
cc
cc
00
fc
30
30
30
30
30
fc
00
00
ENDCHAR
STARTCHAR degree
ENCODING 176
SWIDTH 570 0
DWIDTH 7 0
BBX 7 13 0 -2
BITMAP
00
00
78
CC
CC
78
00
00
00
00
00
00
00
ENDCHAR
STARTCHAR plusminus
ENCODING 177
SWIDTH 570 0
DWIDTH 7 0
BBX 7 13 0 -2
BITMAP
00
00
30
30
FC
FC
30
30
00
FC
FC
00
00
ENDCHAR
STARTCHAR afii10055
ENCODING 178
SWIDTH 570 0
DWIDTH 7 0
BBX 7 13 0 -2
BITMAP
00
00
FC
30
30
30
30
30
30
30
FC
00
00
ENDCHAR
STARTCHAR afii10103
ENCODING 179
SWIDTH 570 0
DWIDTH 7 0
BBX 7 13 0 -2
BITMAP
00
00
30
30
00
70
30
30
30
30
FC
00
00
ENDCHAR
STARTCHAR afii10098
ENCODING 180
SWIDTH 570 0
DWIDTH 7 0
BBX 7 13 0 -2
BITMAP
00
00
00
00
0C
FC
C0
C0
C0
C0
C0
00
00
ENDCHAR
STARTCHAR mu
ENCODING 181
SWIDTH 570 0
DWIDTH 7 0
BBX 7 13 0 -2
BITMAP
00
00
00
00
00
CC
CC
CC
CC
CC
FC
80
00
ENDCHAR
STARTCHAR paragraph
ENCODING 182
SWIDTH 570 0
DWIDTH 7 0
BBX 7 13 0 -2
BITMAP
00
00
7C
FC
F4
F4
F4
74
34
34
34
00
00
ENDCHAR
STARTCHAR periodcentered
ENCODING 183
SWIDTH 570 0
DWIDTH 7 0
BBX 7 13 0 -2
BITMAP
00
00
00
00
00
30
30
00
00
00
00
00
00
ENDCHAR
STARTCHAR afii10071
ENCODING 184
SWIDTH 666 0
DWIDTH 7 0
BBX 7 13 0 -2
BITMAP
00
6c
6c
00
00
78
cc
fc
c0
cc
78
00
00
ENDCHAR
STARTCHAR afii61352
ENCODING 185
SWIDTH 570 0
DWIDTH 7 0
BBX 7 13 0 -2
BITMAP
00
00
D8
D8
F8
F8
FE
FE
D8
DE
D8
00
00
ENDCHAR
STARTCHAR afii10101
ENCODING 186
SWIDTH 570 0
DWIDTH 7 0
BBX 7 13 0 -2
BITMAP
00
00
00
00
00
78
CC
F0
C0
CC
78
00
00
ENDCHAR
STARTCHAR guillemotright
ENCODING 187
SWIDTH 570 0
DWIDTH 7 0
BBX 7 13 0 -2
BITMAP
00
00
00
B0
58
2C
14
2C
58
B0
00
00
00
ENDCHAR
STARTCHAR afii10105
ENCODING 188
SWIDTH 570 0
DWIDTH 7 0
BBX 7 13 0 -2
BITMAP
00
00
0C
0C
00
0C
0C
0C
0C
0C
0C
CC
78
ENDCHAR
STARTCHAR afii10054
ENCODING 189
SWIDTH 570 0
DWIDTH 7 0
BBX 7 13 0 -2
BITMAP
00
00
78
CC
C0
C0
78
0C
0C
CC
78
00
00
ENDCHAR
STARTCHAR afii10102
ENCODING 190
SWIDTH 570 0
DWIDTH 7 0
BBX 7 13 0 -2
BITMAP
00
00
00
00
00
78
CC
60
18
CC
78
00
00
ENDCHAR
STARTCHAR afii10104
ENCODING 191
SWIDTH 666 0
DWIDTH 7 0
BBX 7 13 0 -2
BITMAP
00
6c
6c
00
00
70
30
30
30
30
78
00
00
ENDCHAR
STARTCHAR afii10017
ENCODING 192
SWIDTH 570 0
DWIDTH 7 0
BBX 7 13 0 -2
BITMAP
00
00
78
CC
CC
CC
FC
CC
CC
CC
CC
00
00
ENDCHAR
STARTCHAR afii10018
ENCODING 193
SWIDTH 570 0
DWIDTH 7 0
BBX 7 13 0 -2
BITMAP
00
00
FC
C0
C0
C0
F8
CC
CC
CC
F8
00
00
ENDCHAR
STARTCHAR afii10019
ENCODING 194
SWIDTH 570 0
DWIDTH 7 0
BBX 7 13 0 -2
BITMAP
00
00
F8
CC
CC
CC
F8
CC
CC
CC
F8
00
00
ENDCHAR
STARTCHAR afii10020
ENCODING 195
SWIDTH 570 0
DWIDTH 7 0
BBX 7 13 0 -2
BITMAP
00
00
FC
C0
C0
C0
C0
C0
C0
C0
C0
00
00
ENDCHAR
STARTCHAR afii10021
ENCODING 196
SWIDTH 570 0
DWIDTH 7 0
BBX 7 13 0 -2
BITMAP
00
00
3C
6C
6C
6C
6C
6C
6C
6C
FE
C6
00
ENDCHAR
STARTCHAR afii10022
ENCODING 197
SWIDTH 570 0
DWIDTH 7 0
BBX 7 13 0 -2
BITMAP
00
00
FC
C0
C0
C0
F8
C0
C0
C0
FC
00
00
ENDCHAR
STARTCHAR afii10024
ENCODING 198
SWIDTH 570 0
DWIDTH 7 0
BBX 7 13 0 -2
BITMAP
00
00
92
D6
54
7C
38
7C
54
D6
92
00
00
ENDCHAR
STARTCHAR afii10025
ENCODING 199
SWIDTH 570 0
DWIDTH 7 0
BBX 7 13 0 -2
BITMAP
00
00
78
CC
0C
0C
38
0C
0C
CC
78
00
00
ENDCHAR
STARTCHAR afii10026
ENCODING 200
SWIDTH 570 0
DWIDTH 7 0
BBX 7 13 0 -2
BITMAP
00
00
CC
CC
DC
DC
FC
EC
EC
CC
CC
00
00
ENDCHAR
STARTCHAR afii10027
ENCODING 201
SWIDTH 570 0
DWIDTH 7 0
BBX 7 13 0 -2
BITMAP
00
78
00
CC
CC
DC
DC
FC
EC
EC
CC
00
00
ENDCHAR
STARTCHAR afii10028
ENCODING 202
SWIDTH 570 0
DWIDTH 7 0
BBX 7 13 0 -2
BITMAP
00
00
C4
CC
D8
F0
E0
F0
D8
CC
C4
00
00
ENDCHAR
STARTCHAR afii10029
ENCODING 203
SWIDTH 570 0
DWIDTH 7 0
BBX 7 13 0 -2
BITMAP
00
00
3C
6C
6C
6C
6C
6C
6C
6C
CC
00
00
ENDCHAR
STARTCHAR afii10030
ENCODING 204
SWIDTH 570 0
DWIDTH 7 0
BBX 7 13 0 -2
BITMAP
00
00
84
CC
FC
FC
CC
CC
CC
CC
CC
00
00
ENDCHAR
STARTCHAR afii10031
ENCODING 205
SWIDTH 570 0
DWIDTH 7 0
BBX 7 13 0 -2
BITMAP
00
00
CC
CC
CC
CC
FC
CC
CC
CC
CC
00
00
ENDCHAR
STARTCHAR afii10032
ENCODING 206
SWIDTH 570 0
DWIDTH 7 0
BBX 7 13 0 -2
BITMAP
00
00
78
CC
CC
CC
CC
CC
CC
CC
78
00
00
ENDCHAR
STARTCHAR afii10033
ENCODING 207
SWIDTH 570 0
DWIDTH 7 0
BBX 7 13 0 -2
BITMAP
00
00
FC
CC
CC
CC
CC
CC
CC
CC
CC
00
00
ENDCHAR
STARTCHAR afii10034
ENCODING 208
SWIDTH 570 0
DWIDTH 7 0
BBX 7 13 0 -2
BITMAP
00
00
F8
CC
CC
CC
F8
C0
C0
C0
C0
00
00
ENDCHAR
STARTCHAR afii10035
ENCODING 209
SWIDTH 570 0
DWIDTH 7 0
BBX 7 13 0 -2
BITMAP
00
00
78
CC
C0
C0
C0
C0
C0
CC
78
00
00
ENDCHAR
STARTCHAR afii10036
ENCODING 210
SWIDTH 570 0
DWIDTH 7 0
BBX 7 13 0 -2
BITMAP
00
00
FC
30
30
30
30
30
30
30
30
00
00
ENDCHAR
STARTCHAR afii10037
ENCODING 211
SWIDTH 570 0
DWIDTH 7 0
BBX 7 13 0 -2
BITMAP
00
00
CC
CC
CC
CC
7C
0C
0C
CC
78
00
00
ENDCHAR
STARTCHAR afii10038
ENCODING 212
SWIDTH 570 0
DWIDTH 7 0
BBX 7 13 0 -2
BITMAP
00
00
10
7C
D6
D6
D6
D6
D6
7C
10
00
00
ENDCHAR
STARTCHAR afii10039
ENCODING 213
SWIDTH 570 0
DWIDTH 7 0
BBX 7 13 0 -2
BITMAP
00
00
84
CC
48
78
30
78
48
CC
84
00
00
ENDCHAR
STARTCHAR afii10040
ENCODING 214
SWIDTH 570 0
DWIDTH 7 0
BBX 7 13 0 -2
BITMAP
00
00
D8
D8
D8
D8
D8
D8
D8
D8
FC
0C
00
ENDCHAR
STARTCHAR afii10041
ENCODING 215
SWIDTH 570 0
DWIDTH 7 0
BBX 7 13 0 -2
BITMAP
00
00
CC
CC
CC
CC
7C
0C
0C
0C
0C
00
00
ENDCHAR
STARTCHAR afii10042
ENCODING 216
SWIDTH 570 0
DWIDTH 7 0
BBX 7 13 0 -2
BITMAP
00
00
C6
C6
D6
D6
D6
D6
D6
D6
FE
00
00
ENDCHAR
STARTCHAR afii10043
ENCODING 217
SWIDTH 570 0
DWIDTH 7 0
BBX 7 13 0 -2
BITMAP
00
00
C6
C6
D6
D6
D6
D6
D6
D6
FE
06
00
ENDCHAR
STARTCHAR afii10044
ENCODING 218
SWIDTH 570 0
DWIDTH 7 0
BBX 7 13 0 -2
BITMAP
00
00
E0
60
60
60
78
6C
6C
6C
78
00
00
ENDCHAR
STARTCHAR afii10045
ENCODING 219
SWIDTH 570 0
DWIDTH 7 0
BBX 7 13 0 -2
BITMAP
00
00
CC
CC
CC
CC
F4
D8
D8
D8
F4
00
00
ENDCHAR
STARTCHAR afii10046
ENCODING 220
SWIDTH 570 0
DWIDTH 7 0
BBX 7 13 0 -2
BITMAP
00
00
C0
C0
C0
C0
F8
CC
CC
CC
F8
00
00
ENDCHAR
STARTCHAR afii10047
ENCODING 221
SWIDTH 570 0
DWIDTH 7 0
BBX 7 13 0 -2
BITMAP
00
00
78
CC
0C
0C
3C
0C
0C
CC
78
00
00
ENDCHAR
STARTCHAR afii10048
ENCODING 222
SWIDTH 570 0
DWIDTH 7 0
BBX 7 13 0 -2
BITMAP
00
00
9C
B6
B6
B6
F6
B6
B6
B6
9C
00
00
ENDCHAR
STARTCHAR afii10049
ENCODING 223
SWIDTH 570 0
DWIDTH 7 0
BBX 7 13 0 -2
BITMAP
00
00
7C
CC
CC
CC
7C
3C
6C
CC
8C
00
00
ENDCHAR
STARTCHAR afii10065
ENCODING 224
SWIDTH 570 0
DWIDTH 7 0
BBX 7 13 0 -2
BITMAP
00
00
00
00
00
78
0C
7C
CC
CC
7C
00
00
ENDCHAR
STARTCHAR afii10066
ENCODING 225
SWIDTH 570 0
DWIDTH 7 0
BBX 7 13 0 -2
BITMAP
00
00
0C
78
C0
F8
CC
CC
CC
CC
78
00
00
ENDCHAR
STARTCHAR afii10067
ENCODING 226
SWIDTH 570 0
DWIDTH 7 0
BBX 7 13 0 -2
BITMAP
00
00
00
00
00
F8
CC
F8
CC
CC
F8
00
00
ENDCHAR
STARTCHAR afii10068
ENCODING 227
SWIDTH 570 0
DWIDTH 7 0
BBX 7 13 0 -2
BITMAP
00
00
00
00
00
FC
C0
C0
C0
C0
C0
00
00
ENDCHAR
STARTCHAR afii10069
ENCODING 228
SWIDTH 570 0
DWIDTH 7 0
BBX 7 13 0 -2
BITMAP
00
00
00
00
00
3C
6C
6C
6C
6C
FE
C6
00
ENDCHAR
STARTCHAR afii10070
ENCODING 229
SWIDTH 570 0
DWIDTH 7 0
BBX 7 13 0 -2
BITMAP
00
00
00
00
00
78
CC
FC
C0
CC
78
00
00
ENDCHAR
STARTCHAR afii10072
ENCODING 230
SWIDTH 570 0
DWIDTH 7 0
BBX 7 13 0 -2
BITMAP
00
00
00
00
00
D6
7C
38
38
7C
D6
00
00
ENDCHAR
STARTCHAR afii10073
ENCODING 231
SWIDTH 570 0
DWIDTH 7 0
BBX 7 13 0 -2
BITMAP
00
00
00
00
00
78
CC
38
0C
CC
78
00
00
ENDCHAR
STARTCHAR afii10074
ENCODING 232
SWIDTH 570 0
DWIDTH 7 0
BBX 7 13 0 -2
BITMAP
00
00
00
00
00
CC
CC
DC
FC
EC
CC
00
00
ENDCHAR
STARTCHAR afii10075
ENCODING 233
SWIDTH 570 0
DWIDTH 7 0
BBX 7 13 0 -2
BITMAP
00
00
00
78
00
CC
CC
DC
FC
EC
CC
00
00
ENDCHAR
STARTCHAR afii10076
ENCODING 234
SWIDTH 570 0
DWIDTH 7 0
BBX 7 13 0 -2
BITMAP
00
00
00
00
00
CC
D8
F0
F0
D8
CC
00
00
ENDCHAR
STARTCHAR afii10077
ENCODING 235
SWIDTH 570 0
DWIDTH 7 0
BBX 7 13 0 -2
BITMAP
00
00
00
00
00
3C
6C
6C
6C
6C
CC
00
00
ENDCHAR
STARTCHAR afii10078
ENCODING 236
SWIDTH 570 0
DWIDTH 7 0
BBX 7 13 0 -2
BITMAP
00
00
00
00
00
84
CC
FC
FC
CC
CC
00
00
ENDCHAR
STARTCHAR afii10079
ENCODING 237
SWIDTH 570 0
DWIDTH 7 0
BBX 7 13 0 -2
BITMAP
00
00
00
00
00
CC
CC
FC
CC
CC
CC
00
00
ENDCHAR
STARTCHAR afii10080
ENCODING 238
SWIDTH 570 0
DWIDTH 7 0
BBX 7 13 0 -2
BITMAP
00
00
00
00
00
78
CC
CC
CC
CC
78
00
00
ENDCHAR
STARTCHAR afii10081
ENCODING 239
SWIDTH 570 0
DWIDTH 7 0
BBX 7 13 0 -2
BITMAP
00
00
00
00
00
FC
CC
CC
CC
CC
CC
00
00
ENDCHAR
STARTCHAR afii10082
ENCODING 240
SWIDTH 570 0
DWIDTH 7 0
BBX 7 13 0 -2
BITMAP
00
00
00
00
00
F8
CC
CC
CC
F8
C0
C0
C0
ENDCHAR
STARTCHAR afii10083
ENCODING 241
SWIDTH 570 0
DWIDTH 7 0
BBX 7 13 0 -2
BITMAP
00
00
00
00
00
78
CC
C0
C0
CC
78
00
00
ENDCHAR
STARTCHAR afii10084
ENCODING 242
SWIDTH 570 0
DWIDTH 7 0
BBX 7 13 0 -2
BITMAP
00
00
00
00
00
FC
30
30
30
30
30
00
00
ENDCHAR
STARTCHAR afii10085
ENCODING 243
SWIDTH 570 0
DWIDTH 7 0
BBX 7 13 0 -2
BITMAP
00
00
00
00
00
CC
CC
CC
CC
7C
0C
CC
78
ENDCHAR
STARTCHAR afii10086
ENCODING 244
SWIDTH 570 0
DWIDTH 7 0
BBX 7 13 0 -2
BITMAP
00
00
00
00
10
7C
D6
D6
D6
7C
10
10
10
ENDCHAR
STARTCHAR afii10087
ENCODING 245
SWIDTH 570 0
DWIDTH 7 0
BBX 7 13 0 -2
BITMAP
00
00
00
00
00
CC
CC
78
78
CC
CC
00
00
ENDCHAR
STARTCHAR afii10088
ENCODING 246
SWIDTH 570 0
DWIDTH 7 0
BBX 7 13 0 -2
BITMAP
00
00
00
00
00
D8
D8
D8
D8
D8
FC
0C
00
ENDCHAR
STARTCHAR afii10089
ENCODING 247
SWIDTH 570 0
DWIDTH 7 0
BBX 7 13 0 -2
BITMAP
00
00
00
00
00
CC
CC
CC
7C
0C
0C
00
00
ENDCHAR
STARTCHAR afii10090
ENCODING 248
SWIDTH 570 0
DWIDTH 7 0
BBX 7 13 0 -2
BITMAP
00
00
00
00
00
C6
D6
D6
D6
D6
FE
00
00
ENDCHAR
STARTCHAR afii10091
ENCODING 249
SWIDTH 570 0
DWIDTH 7 0
BBX 7 13 0 -2
BITMAP
00
00
00
00
00
C6
D6
D6
D6
D6
FE
06
00
ENDCHAR
STARTCHAR afii10092
ENCODING 250
SWIDTH 570 0
DWIDTH 7 0
BBX 7 13 0 -2
BITMAP
00
00
00
00
00
E0
60
78
6C
6C
78
00
00
ENDCHAR
STARTCHAR afii10093
ENCODING 251
SWIDTH 570 0
DWIDTH 7 0
BBX 7 13 0 -2
BITMAP
00
00
00
00
00
CC
CC
F4
D8
D8
F4
00
00
ENDCHAR
STARTCHAR afii10094
ENCODING 252
SWIDTH 570 0
DWIDTH 7 0
BBX 7 13 0 -2
BITMAP
00
00
00
00
00
C0
C0
F8
CC
CC
F8
00
00
ENDCHAR
STARTCHAR afii10095
ENCODING 253
SWIDTH 570 0
DWIDTH 7 0
BBX 7 13 0 -2
BITMAP
00
00
00
00
00
78
CC
3C
0C
CC
78
00
00
ENDCHAR
STARTCHAR afii10096
ENCODING 254
SWIDTH 570 0
DWIDTH 7 0
BBX 7 13 0 -2
BITMAP
00
00
00
00
00
9C
B6
F6
B6
B6
9C
00
00
ENDCHAR
STARTCHAR afii10097
ENCODING 255
SWIDTH 570 0
DWIDTH 7 0
BBX 7 13 0 -2
BITMAP
00
00
00
00
00
7C
CC
CC
7C
6C
CC
00
00
ENDCHAR
STARTCHAR tilde
ENCODING -1
SWIDTH 570 0
DWIDTH 7 0
BBX 7 13 0 -2
BITMAP
00
34
58
00
00
00
00
00
00
00
00
00
00
ENDCHAR
STARTCHAR florin
ENCODING -1
SWIDTH 570 0
DWIDTH 7 0
BBX 7 13 0 -2
BITMAP
00
00
1C
32
30
30
F8
60
60
60
60
60
C0
ENDCHAR
STARTCHAR circumflex
ENCODING -1
SWIDTH 570 0
DWIDTH 7 0
BBX 7 13 0 -2
BITMAP
00
70
D8
00
00
00
00
00
00
00
00
00
00
ENDCHAR
STARTCHAR OE
ENCODING -1
SWIDTH 570 0
DWIDTH 7 0
BBX 7 13 0 -2
BITMAP
00
00
7C
D8
D8
D8
DC
D8
D8
D8
7C
00
00
ENDCHAR
STARTCHAR oe
ENCODING -1
SWIDTH 570 0
DWIDTH 7 0
BBX 7 13 0 -2
BITMAP
00
00
00
00
00
58
B4
BC
B0
B4
68
00
00
ENDCHAR
STARTCHAR Scaron
ENCODING -1
SWIDTH 570 0
DWIDTH 7 0
BBX 7 13 0 -2
BITMAP
00
D8
70
00
78
CC
C0
78
0C
CC
78
00
00
ENDCHAR
STARTCHAR scaron
ENCODING -1
SWIDTH 570 0
DWIDTH 7 0
BBX 7 13 0 -2
BITMAP
00
D8
70
00
00
78
CC
60
18
CC
78
00
00
ENDCHAR
STARTCHAR Zcaron
ENCODING -1
SWIDTH 570 0
DWIDTH 7 0
BBX 7 13 0 -2
BITMAP
00
D8
70
00
FC
0C
18
30
60
C0
FC
00
00
ENDCHAR
STARTCHAR zcaron
ENCODING -1
SWIDTH 570 0
DWIDTH 7 0
BBX 7 13 0 -2
BITMAP
00
D8
70
00
00
FC
0C
18
60
C0
FC
00
00
ENDCHAR
STARTCHAR Ydieresis
ENCODING -1
SWIDTH 570 0
DWIDTH 7 0
BBX 7 13 0 -2
BITMAP
00
CC
CC
00
CC
CC
78
30
30
30
30
00
00
ENDCHAR
ENDFONT
