STARTFONT 2.1
COMMENT 
COMMENT Donated by H. Kagotani <kagotani@cs.titech.ac.jp>; public domain
COMMENT font from Japan
COMMENT 
FONT -Misc-Fixed-Medium-R-Normal--14-130-75-75-C-70-windows-1251
SIZE 7 75 75
FONTBOUNDINGBOX 7 14 0 -2
STARTPROPERTIES 23
FONTNAME_REGISTRY ""
FOUNDRY "Misc"
FAMILY_NAME "Fixed"
WEIGHT_NAME "Medium"
SLANT "R"
SETWIDTH_NAME "Normal"
ADD_STYLE_NAME ""
PIXEL_SIZE 14
POINT_SIZE 130
RESOLUTION_X 75
RESOLUTION_Y 75
SPACING "C"
AVERAGE_WIDTH 70
CHARSET_REGISTRY "windows"
CHARSET_ENCODING "1251"
DEFAULT_CHAR 32
FONT_DESCENT 2
FONT_ASCENT 12
COPYRIGHT "Public domain font.  Share and enjoy."
COPYRIGHT2 "Cyrillic, Euro and special glyphs copyright 2000 Dmitry Yu. Bolkhovityanov, bolkhov@inp.nsk.su"
SOURCEDATE "Sat Oct  7 16:47:43 2000"
PKGVERSION "1.1"
ASSEMBLER "cvtbdf.pl (Linux)"
ENDPROPERTIES
CHARS 251
STARTCHAR null
ENCODING 0
SWIDTH 480 0
DWIDTH 7 0
BBX 7 14 0 -2
BITMAP
00
00
7C
7C
7C
7C
7C
7C
7C
7C
7C
7C
00
00
ENDCHAR
STARTCHAR ctrlA
ENCODING 1
SWIDTH 480 0
DWIDTH 7 0
BBX 7 14 0 -2
BITMAP
00
00
18
18
3C
3C
7E
7E
3C
3C
18
18
00
00
ENDCHAR
STARTCHAR ctrlB
ENCODING 2
SWIDTH 480 0
DWIDTH 7 0
BBX 7 14 0 -2
BITMAP
54
AA
54
AA
54
AA
54
AA
54
AA
54
AA
54
AA
ENDCHAR
STARTCHAR ldcornsqlr
ENCODING 11
SWIDTH 480 0
DWIDTH 7 0
BBX 7 14 0 -2
BITMAP
10
10
10
10
10
10
10
F0
00
00
00
00
00
00
ENDCHAR
STARTCHAR ldcornsqur
ENCODING 12
SWIDTH 480 0
DWIDTH 7 0
BBX 7 14 0 -2
BITMAP
00
00
00
00
00
00
00
F0
10
10
10
10
10
10
ENDCHAR
STARTCHAR ldcornsqul
ENCODING 13
SWIDTH 480 0
DWIDTH 7 0
BBX 7 14 0 -2
BITMAP
00
00
00
00
00
00
00
1E
10
10
10
10
10
10
ENDCHAR
STARTCHAR ldcornsqll
ENCODING 14
SWIDTH 480 0
DWIDTH 7 0
BBX 7 14 0 -2
BITMAP
10
10
10
10
10
10
10
1E
00
00
00
00
00
00
ENDCHAR
STARTCHAR ldcross
ENCODING 15
SWIDTH 480 0
DWIDTH 7 0
BBX 7 14 0 -2
BITMAP
10
10
10
10
10
10
10
FE
10
10
10
10
10
10
ENDCHAR
STARTCHAR ctrlP
ENCODING 16
SWIDTH 480 0
DWIDTH 7 0
BBX 7 14 0 -2
BITMAP
FE
00
00
00
00
00
00
00
00
00
00
00
00
00
ENDCHAR
STARTCHAR ctrlQ
ENCODING 17
SWIDTH 480 0
DWIDTH 7 0
BBX 7 14 0 -2
BITMAP
00
00
00
00
FE
00
00
00
00
00
00
00
00
00
ENDCHAR
STARTCHAR ldhorizontal
ENCODING 18
SWIDTH 480 0
DWIDTH 7 0
BBX 7 14 0 -2
BITMAP
00
00
00
00
00
00
00
FE
00
00
00
00
00
00
ENDCHAR
STARTCHAR ctrlS
ENCODING 19
SWIDTH 480 0
DWIDTH 7 0
BBX 7 14 0 -2
BITMAP
00
00
00
00
00
00
00
00
00
FE
00
00
00
00
ENDCHAR
STARTCHAR ctrlT
ENCODING 20
SWIDTH 480 0
DWIDTH 7 0
BBX 7 14 0 -2
BITMAP
00
00
00
00
00
00
00
00
00
00
00
00
00
FE
ENDCHAR
STARTCHAR ldteelft
ENCODING 21
SWIDTH 480 0
DWIDTH 7 0
BBX 7 14 0 -2
BITMAP
10
10
10
10
10
10
10
1E
10
10
10
10
10
10
ENDCHAR
STARTCHAR ldteert
ENCODING 22
SWIDTH 480 0
DWIDTH 7 0
BBX 7 14 0 -2
BITMAP
10
10
10
10
10
10
10
F0
10
10
10
10
10
10
ENDCHAR
STARTCHAR ldteebt
ENCODING 23
SWIDTH 480 0
DWIDTH 7 0
BBX 7 14 0 -2
BITMAP
10
10
10
10
10
10
10
FE
00
00
00
00
00
00
ENDCHAR
STARTCHAR ldteetp
ENCODING 24
SWIDTH 480 0
DWIDTH 7 0
BBX 7 14 0 -2
BITMAP
00
00
00
00
00
00
00
FE
10
10
10
10
10
10
ENDCHAR
STARTCHAR ldvertical
ENCODING 25
SWIDTH 480 0
DWIDTH 7 0
BBX 7 14 0 -2
BITMAP
10
10
10
10
10
10
10
10
10
10
10
10
10
10
ENDCHAR
STARTCHAR space
ENCODING 32
SWIDTH 480 0
DWIDTH 7 0
BBX 7 14 0 -2
BITMAP
00
00
00
00
00
00
00
00
00
00
00
00
00
00
ENDCHAR
STARTCHAR exclam
ENCODING 33
SWIDTH 480 0
DWIDTH 7 0
BBX 7 14 0 -2
BITMAP
00
00
10
10
10
10
10
10
10
00
10
10
00
00
ENDCHAR
STARTCHAR quotedbl
ENCODING 34
SWIDTH 480 0
DWIDTH 7 0
BBX 7 14 0 -2
BITMAP
00
48
48
48
48
00
00
00
00
00
00
00
00
00
ENDCHAR
STARTCHAR numbersign
ENCODING 35
SWIDTH 480 0
DWIDTH 7 0
BBX 7 14 0 -2
BITMAP
00
00
0A
0A
0A
7E
14
14
7E
28
28
28
00
00
ENDCHAR
STARTCHAR dollar
ENCODING 36
SWIDTH 480 0
DWIDTH 7 0
BBX 7 14 0 -2
BITMAP
00
00
08
3C
4A
4A
28
1C
0A
4A
4A
3C
08
00
ENDCHAR
STARTCHAR percent
ENCODING 37
SWIDTH 480 0
DWIDTH 7 0
BBX 7 14 0 -2
BITMAP
00
00
32
4A
4C
38
08
10
1C
32
52
4C
00
00
ENDCHAR
STARTCHAR ampersand
ENCODING 38
SWIDTH 480 0
DWIDTH 7 0
BBX 7 14 0 -2
BITMAP
00
00
18
24
24
24
18
32
4A
44
4C
32
00
00
ENDCHAR
STARTCHAR quotesingle
ENCODING 39
SWIDTH 480 0
DWIDTH 7 0
BBX 7 14 0 -2
BITMAP
00
10
10
10
10
00
00
00
00
00
00
00
00
00
ENDCHAR
STARTCHAR parenleft
ENCODING 40
SWIDTH 480 0
DWIDTH 7 0
BBX 7 14 0 -2
BITMAP
00
02
04
08
08
10
10
10
10
10
08
08
04
02
ENDCHAR
STARTCHAR parenright
ENCODING 41
SWIDTH 480 0
DWIDTH 7 0
BBX 7 14 0 -2
BITMAP
00
40
20
10
10
08
08
08
08
08
10
10
20
40
ENDCHAR
STARTCHAR asterisk
ENCODING 42
SWIDTH 480 0
DWIDTH 7 0
BBX 7 14 0 -2
BITMAP
00
00
08
2A
1C
08
1C
2A
08
00
00
00
00
00
ENDCHAR
STARTCHAR plus
ENCODING 43
SWIDTH 480 0
DWIDTH 7 0
BBX 7 14 0 -2
BITMAP
00
00
00
00
10
10
10
7C
10
10
10
00
00
00
ENDCHAR
STARTCHAR comma
ENCODING 44
SWIDTH 480 0
DWIDTH 7 0
BBX 7 14 0 -2
BITMAP
00
00
00
00
00
00
00
00
00
00
30
10
10
20
ENDCHAR
STARTCHAR minus
ENCODING 45
SWIDTH 480 0
DWIDTH 7 0
BBX 7 14 0 -2
BITMAP
00
00
00
00
00
00
00
7E
00
00
00
00
00
00
ENDCHAR
STARTCHAR period
ENCODING 46
SWIDTH 480 0
DWIDTH 7 0
BBX 7 14 0 -2
BITMAP
00
00
00
00
00
00
00
00
00
00
08
1C
08
00
ENDCHAR
STARTCHAR slash
ENCODING 47
SWIDTH 480 0
DWIDTH 7 0
BBX 7 14 0 -2
BITMAP
00
02
02
04
04
08
08
08
10
10
20
20
40
40
ENDCHAR
STARTCHAR zero
ENCODING 48
SWIDTH 480 0
DWIDTH 7 0
BBX 7 14 0 -2
BITMAP
00
00
18
24
42
42
42
42
42
42
24
18
00
00
ENDCHAR
STARTCHAR one
ENCODING 49
SWIDTH 480 0
DWIDTH 7 0
BBX 7 14 0 -2
BITMAP
00
00
08
18
28
08
08
08
08
08
08
3E
00
00
ENDCHAR
STARTCHAR two
ENCODING 50
SWIDTH 480 0
DWIDTH 7 0
BBX 7 14 0 -2
BITMAP
00
00
3C
42
42
02
04
04
08
10
20
7E
00
00
ENDCHAR
STARTCHAR three
ENCODING 51
SWIDTH 480 0
DWIDTH 7 0
BBX 7 14 0 -2
BITMAP
00
00
3C
42
42
02
1C
02
02
42
42
3C
00
00
ENDCHAR
STARTCHAR four
ENCODING 52
SWIDTH 480 0
DWIDTH 7 0
BBX 7 14 0 -2
BITMAP
00
00
04
0C
14
14
24
24
44
7E
04
04
00
00
ENDCHAR
STARTCHAR five
ENCODING 53
SWIDTH 480 0
DWIDTH 7 0
BBX 7 14 0 -2
BITMAP
00
00
7E
40
40
7C
42
02
02
42
42
3C
00
00
ENDCHAR
STARTCHAR six
ENCODING 54
SWIDTH 480 0
DWIDTH 7 0
BBX 7 14 0 -2
BITMAP
00
00
1C
22
42
40
5C
62
42
42
42
3C
00
00
ENDCHAR
STARTCHAR seven
ENCODING 55
SWIDTH 480 0
DWIDTH 7 0
BBX 7 14 0 -2
BITMAP
00
00
7E
42
44
04
08
08
08
08
08
08
00
00
ENDCHAR
STARTCHAR eight
ENCODING 56
SWIDTH 480 0
DWIDTH 7 0
BBX 7 14 0 -2
BITMAP
00
00
3C
42
42
24
18
24
42
42
42
3C
00
00
ENDCHAR
STARTCHAR nine
ENCODING 57
SWIDTH 480 0
DWIDTH 7 0
BBX 7 14 0 -2
BITMAP
00
00
3C
42
42
42
46
3A
02
42
44
38
00
00
ENDCHAR
STARTCHAR colon
ENCODING 58
SWIDTH 480 0
DWIDTH 7 0
BBX 7 14 0 -2
BITMAP
00
00
00
00
08
1C
08
00
00
08
1C
08
00
00
ENDCHAR
STARTCHAR semicolon
ENCODING 59
SWIDTH 480 0
DWIDTH 7 0
BBX 7 14 0 -2
BITMAP
00
00
00
00
00
18
18
00
00
18
08
08
10
00
ENDCHAR
STARTCHAR less
ENCODING 60
SWIDTH 480 0
DWIDTH 7 0
BBX 7 14 0 -2
BITMAP
00
00
00
04
08
10
20
40
20
10
08
04
00
00
ENDCHAR
STARTCHAR equal
ENCODING 61
SWIDTH 480 0
DWIDTH 7 0
BBX 7 14 0 -2
BITMAP
00
00
00
00
00
7E
00
00
7E
00
00
00
00
00
ENDCHAR
STARTCHAR greater
ENCODING 62
SWIDTH 480 0
DWIDTH 7 0
BBX 7 14 0 -2
BITMAP
00
00
00
40
20
10
08
04
08
10
20
40
00
00
ENDCHAR
STARTCHAR question
ENCODING 63
SWIDTH 480 0
DWIDTH 7 0
BBX 7 14 0 -2
BITMAP
00
00
3C
42
42
04
08
08
08
00
08
08
00
00
ENDCHAR
STARTCHAR at
ENCODING 64
SWIDTH 480 0
DWIDTH 7 0
BBX 7 14 0 -2
BITMAP
00
00
1C
22
4E
52
52
52
52
4E
20
1E
00
00
ENDCHAR
STARTCHAR A
ENCODING 65
SWIDTH 480 0
DWIDTH 7 0
BBX 7 14 0 -2
BITMAP
00
00
18
24
42
42
42
7E
42
42
42
42
00
00
ENDCHAR
STARTCHAR B
ENCODING 66
SWIDTH 480 0
DWIDTH 7 0
BBX 7 14 0 -2
BITMAP
00
00
7C
22
22
22
3C
22
22
22
22
7C
00
00
ENDCHAR
STARTCHAR C
ENCODING 67
SWIDTH 480 0
DWIDTH 7 0
BBX 7 14 0 -2
BITMAP
00
00
3C
42
42
40
40
40
40
42
42
3C
00
00
ENDCHAR
STARTCHAR D
ENCODING 68
SWIDTH 480 0
DWIDTH 7 0
BBX 7 14 0 -2
BITMAP
00
00
7C
22
22
22
22
22
22
22
22
7C
00
00
ENDCHAR
STARTCHAR E
ENCODING 69
SWIDTH 480 0
DWIDTH 7 0
BBX 7 14 0 -2
BITMAP
00
00
7E
40
40
40
78
40
40
40
40
7E
00
00
ENDCHAR
STARTCHAR F
ENCODING 70
SWIDTH 480 0
DWIDTH 7 0
BBX 7 14 0 -2
BITMAP
00
00
7E
40
40
40
78
40
40
40
40
40
00
00
ENDCHAR
STARTCHAR G
ENCODING 71
SWIDTH 480 0
DWIDTH 7 0
BBX 7 14 0 -2
BITMAP
00
00
3C
42
42
40
40
4E
42
42
46
3A
00
00
ENDCHAR
STARTCHAR H
ENCODING 72
SWIDTH 480 0
DWIDTH 7 0
BBX 7 14 0 -2
BITMAP
00
00
42
42
42
42
7E
42
42
42
42
42
00
00
ENDCHAR
STARTCHAR I
ENCODING 73
SWIDTH 480 0
DWIDTH 7 0
BBX 7 14 0 -2
BITMAP
00
00
3E
08
08
08
08
08
08
08
08
3E
00
00
ENDCHAR
STARTCHAR J
ENCODING 74
SWIDTH 480 0
DWIDTH 7 0
BBX 7 14 0 -2
BITMAP
00
00
0E
04
04
04
04
04
04
44
44
38
00
00
ENDCHAR
STARTCHAR K
ENCODING 75
SWIDTH 480 0
DWIDTH 7 0
BBX 7 14 0 -2
BITMAP
00
00
42
44
48
50
60
50
48
44
42
42
00
00
ENDCHAR
STARTCHAR L
ENCODING 76
SWIDTH 480 0
DWIDTH 7 0
BBX 7 14 0 -2
BITMAP
00
00
40
40
40
40
40
40
40
40
40
7E
00
00
ENDCHAR
STARTCHAR M
ENCODING 77
SWIDTH 480 0
DWIDTH 7 0
BBX 7 14 0 -2
BITMAP
00
00
42
66
66
5A
5A
42
42
42
42
42
00
00
ENDCHAR
STARTCHAR N
ENCODING 78
SWIDTH 480 0
DWIDTH 7 0
BBX 7 14 0 -2
BITMAP
00
00
42
42
62
62
52
4A
46
46
42
42
00
00
ENDCHAR
STARTCHAR O
ENCODING 79
SWIDTH 480 0
DWIDTH 7 0
BBX 7 14 0 -2
BITMAP
00
00
3C
42
42
42
42
42
42
42
42
3C
00
00
ENDCHAR
STARTCHAR P
ENCODING 80
SWIDTH 480 0
DWIDTH 7 0
BBX 7 14 0 -2
BITMAP
00
00
7C
42
42
42
42
7C
40
40
40
40
00
00
ENDCHAR
STARTCHAR Q
ENCODING 81
SWIDTH 480 0
DWIDTH 7 0
BBX 7 14 0 -2
BITMAP
00
00
3C
42
42
42
42
42
72
4A
46
3C
04
02
ENDCHAR
STARTCHAR R
ENCODING 82
SWIDTH 480 0
DWIDTH 7 0
BBX 7 14 0 -2
BITMAP
00
00
7C
42
42
42
42
7C
48
44
42
42
00
00
ENDCHAR
STARTCHAR S
ENCODING 83
SWIDTH 480 0
DWIDTH 7 0
BBX 7 14 0 -2
BITMAP
00
00
3C
42
42
40
30
0C
02
42
42
3C
00
00
ENDCHAR
STARTCHAR T
ENCODING 84
SWIDTH 480 0
DWIDTH 7 0
BBX 7 14 0 -2
BITMAP
00
00
FE
10
10
10
10
10
10
10
10
10
00
00
ENDCHAR
STARTCHAR U
ENCODING 85
SWIDTH 480 0
DWIDTH 7 0
BBX 7 14 0 -2
BITMAP
00
00
42
42
42
42
42
42
42
42
42
3C
00
00
ENDCHAR
STARTCHAR V
ENCODING 86
SWIDTH 480 0
DWIDTH 7 0
BBX 7 14 0 -2
BITMAP
00
00
42
42
42
42
24
24
24
18
18
18
00
00
ENDCHAR
STARTCHAR W
ENCODING 87
SWIDTH 480 0
DWIDTH 7 0
BBX 7 14 0 -2
BITMAP
00
00
42
42
42
42
42
5A
5A
66
66
42
00
00
ENDCHAR
STARTCHAR X
ENCODING 88
SWIDTH 480 0
DWIDTH 7 0
BBX 7 14 0 -2
BITMAP
00
00
42
42
24
24
18
18
24
24
42
42
00
00
ENDCHAR
STARTCHAR Y
ENCODING 89
SWIDTH 480 0
DWIDTH 7 0
BBX 7 14 0 -2
BITMAP
00
00
44
44
44
28
28
10
10
10
10
10
00
00
ENDCHAR
STARTCHAR Z
ENCODING 90
SWIDTH 480 0
DWIDTH 7 0
BBX 7 14 0 -2
BITMAP
00
00
7E
02
04
08
08
10
20
20
40
7E
00
00
ENDCHAR
STARTCHAR bracketleft
ENCODING 91
SWIDTH 480 0
DWIDTH 7 0
BBX 7 14 0 -2
BITMAP
00
1E
10
10
10
10
10
10
10
10
10
10
10
1E
ENDCHAR
STARTCHAR backslash
ENCODING 92
SWIDTH 480 0
DWIDTH 7 0
BBX 7 14 0 -2
BITMAP
00
40
40
20
20
10
10
10
08
08
04
04
02
02
ENDCHAR
STARTCHAR bracketright
ENCODING 93
SWIDTH 480 0
DWIDTH 7 0
BBX 7 14 0 -2
BITMAP
00
78
08
08
08
08
08
08
08
08
08
08
08
78
ENDCHAR
STARTCHAR asciicircum
ENCODING 94
SWIDTH 480 0
DWIDTH 7 0
BBX 7 14 0 -2
BITMAP
00
18
24
42
00
00
00
00
00
00
00
00
00
00
ENDCHAR
STARTCHAR underscore
ENCODING 95
SWIDTH 480 0
DWIDTH 7 0
BBX 7 14 0 -2
BITMAP
00
00
00
00
00
00
00
00
00
00
00
00
00
7E
ENDCHAR
STARTCHAR grave
ENCODING 96
SWIDTH 480 0
DWIDTH 7 0
BBX 7 14 0 -2
BITMAP
00
20
10
08
00
00
00
00
00
00
00
00
00
00
ENDCHAR
STARTCHAR a
ENCODING 97
SWIDTH 480 0
DWIDTH 7 0
BBX 7 14 0 -2
BITMAP
00
00
00
00
00
3C
42
0E
32
42
46
3A
00
00
ENDCHAR
STARTCHAR b
ENCODING 98
SWIDTH 480 0
DWIDTH 7 0
BBX 7 14 0 -2
BITMAP
00
00
40
40
40
5C
62
42
42
42
62
5C
00
00
ENDCHAR
STARTCHAR c
ENCODING 99
SWIDTH 480 0
DWIDTH 7 0
BBX 7 14 0 -2
BITMAP
00
00
00
00
00
3C
42
40
40
40
42
3C
00
00
ENDCHAR
STARTCHAR d
ENCODING 100
SWIDTH 480 0
DWIDTH 7 0
BBX 7 14 0 -2
BITMAP
00
00
02
02
02
3A
46
42
42
42
46
3A
00
00
ENDCHAR
STARTCHAR e
ENCODING 101
SWIDTH 480 0
DWIDTH 7 0
BBX 7 14 0 -2
BITMAP
00
00
00
00
00
3C
42
42
7E
40
42
3C
00
00
ENDCHAR
STARTCHAR f
ENCODING 102
SWIDTH 480 0
DWIDTH 7 0
BBX 7 14 0 -2
BITMAP
00
00
0C
12
10
10
7C
10
10
10
10
10
00
00
ENDCHAR
STARTCHAR g
ENCODING 103
SWIDTH 480 0
DWIDTH 7 0
BBX 7 14 0 -2
BITMAP
00
00
00
00
00
3A
44
44
44
38
20
5C
42
3C
ENDCHAR
STARTCHAR h
ENCODING 104
SWIDTH 480 0
DWIDTH 7 0
BBX 7 14 0 -2
BITMAP
00
00
40
40
40
5C
62
42
42
42
42
42
00
00
ENDCHAR
STARTCHAR i
ENCODING 105
SWIDTH 480 0
DWIDTH 7 0
BBX 7 14 0 -2
BITMAP
00
00
08
08
00
18
08
08
08
08
08
3E
00
00
ENDCHAR
STARTCHAR j
ENCODING 106
SWIDTH 480 0
DWIDTH 7 0
BBX 7 14 0 -2
BITMAP
00
00
04
04
00
0C
04
04
04
04
04
44
44
38
ENDCHAR
STARTCHAR k
ENCODING 107
SWIDTH 480 0
DWIDTH 7 0
BBX 7 14 0 -2
BITMAP
00
00
40
40
40
44
48
50
70
48
44
42
00
00
ENDCHAR
STARTCHAR l
ENCODING 108
SWIDTH 480 0
DWIDTH 7 0
BBX 7 14 0 -2
BITMAP
00
00
18
08
08
08
08
08
08
08
08
3E
00
00
ENDCHAR
STARTCHAR m
ENCODING 109
SWIDTH 480 0
DWIDTH 7 0
BBX 7 14 0 -2
BITMAP
00
00
00
00
00
68
54
54
54
54
54
44
00
00
ENDCHAR
STARTCHAR n
ENCODING 110
SWIDTH 480 0
DWIDTH 7 0
BBX 7 14 0 -2
BITMAP
00
00
00
00
00
5C
62
42
42
42
42
42
00
00
ENDCHAR
STARTCHAR o
ENCODING 111
SWIDTH 480 0
DWIDTH 7 0
BBX 7 14 0 -2
BITMAP
00
00
00
00
00
3C
42
42
42
42
42
3C
00
00
ENDCHAR
STARTCHAR p
ENCODING 112
SWIDTH 480 0
DWIDTH 7 0
BBX 7 14 0 -2
BITMAP
00
00
00
00
00
5C
62
42
42
42
62
5C
40
40
ENDCHAR
STARTCHAR q
ENCODING 113
SWIDTH 480 0
DWIDTH 7 0
BBX 7 14 0 -2
BITMAP
00
00
00
00
00
3A
46
42
42
42
46
3A
02
02
ENDCHAR
STARTCHAR r
ENCODING 114
SWIDTH 480 0
DWIDTH 7 0
BBX 7 14 0 -2
BITMAP
00
00
00
00
00
5C
62
42
40
40
40
40
00
00
ENDCHAR
STARTCHAR s
ENCODING 115
SWIDTH 480 0
DWIDTH 7 0
BBX 7 14 0 -2
BITMAP
00
00
00
00
00
3C
42
20
18
04
42
3C
00
00
ENDCHAR
STARTCHAR t
ENCODING 116
SWIDTH 480 0
DWIDTH 7 0
BBX 7 14 0 -2
BITMAP
00
00
10
10
10
7C
10
10
10
10
12
0C
00
00
ENDCHAR
STARTCHAR u
ENCODING 117
SWIDTH 480 0
DWIDTH 7 0
BBX 7 14 0 -2
BITMAP
00
00
00
00
00
42
42
42
42
42
46
3A
00
00
ENDCHAR
STARTCHAR v
ENCODING 118
SWIDTH 480 0
DWIDTH 7 0
BBX 7 14 0 -2
BITMAP
00
00
00
00
00
44
44
44
28
28
10
10
00
00
ENDCHAR
STARTCHAR w
ENCODING 119
SWIDTH 480 0
DWIDTH 7 0
BBX 7 14 0 -2
BITMAP
00
00
00
00
00
44
44
54
54
54
54
28
00
00
ENDCHAR
STARTCHAR x
ENCODING 120
SWIDTH 480 0
DWIDTH 7 0
BBX 7 14 0 -2
BITMAP
00
00
00
00
00
42
42
24
18
24
42
42
00
00
ENDCHAR
STARTCHAR y
ENCODING 121
SWIDTH 480 0
DWIDTH 7 0
BBX 7 14 0 -2
BITMAP
00
00
00
00
00
42
42
42
42
46
3A
02
42
3C
ENDCHAR
STARTCHAR z
ENCODING 122
SWIDTH 480 0
DWIDTH 7 0
BBX 7 14 0 -2
BITMAP
00
00
00
00
00
7E
04
08
10
10
20
7E
00
00
ENDCHAR
STARTCHAR braceleft
ENCODING 123
SWIDTH 480 0
DWIDTH 7 0
BBX 7 14 0 -2
BITMAP
00
06
08
08
08
08
08
10
08
08
08
08
08
06
ENDCHAR
STARTCHAR bar
ENCODING 124
SWIDTH 480 0
DWIDTH 7 0
BBX 7 14 0 -2
BITMAP
00
10
10
10
10
10
10
10
10
10
10
10
10
10
ENDCHAR
STARTCHAR braceright
ENCODING 125
SWIDTH 480 0
DWIDTH 7 0
BBX 7 14 0 -2
BITMAP
00
60
10
10
10
10
10
08
10
10
10
10
10
60
ENDCHAR
STARTCHAR asciitilde
ENCODING 126
SWIDTH 480 0
DWIDTH 7 0
BBX 7 14 0 -2
BITMAP
00
20
52
4A
04
00
00
00
00
00
00
00
00
00
ENDCHAR
STARTCHAR delete
ENCODING 127
SWIDTH 480 0
DWIDTH 7 0
BBX 7 14 0 -2
BITMAP
00
00
00
00
00
00
00
00
00
00
00
00
00
00
ENDCHAR
STARTCHAR afii10051
ENCODING 128
SWIDTH 480 0
DWIDTH 7 0
BBX 7 14 0 -2
BITMAP
00
00
F8
40
40
40
7C
42
42
42
42
4C
00
00
ENDCHAR
STARTCHAR afii10052
ENCODING 129
SWIDTH 480 0
DWIDTH 7 0
BBX 7 14 0 -2
BITMAP
04
18
00
7E
40
40
40
40
40
40
40
40
00
00
ENDCHAR
STARTCHAR quotesinglbase
ENCODING 130
SWIDTH 480 0
DWIDTH 7 0
BBX 7 14 0 -2
BITMAP
00
00
00
00
00
00
00
00
00
00
18
08
08
10
ENDCHAR
STARTCHAR afii10100
ENCODING 131
SWIDTH 480 0
DWIDTH 7 0
BBX 7 14 0 -2
BITMAP
00
04
08
10
00
7C
40
40
40
40
40
40
00
00
ENDCHAR
STARTCHAR quotedblbase
ENCODING 132
SWIDTH 480 0
DWIDTH 7 0
BBX 7 14 0 -2
BITMAP
00
00
00
00
00
00
00
00
00
00
6C
24
24
48
ENDCHAR
STARTCHAR ellipsis
ENCODING 133
SWIDTH 480 0
DWIDTH 7 0
BBX 7 14 0 -2
BITMAP
00
00
00
00
00
00
00
00
00
00
54
54
00
00
ENDCHAR
STARTCHAR dagger
ENCODING 134
SWIDTH 480 0
DWIDTH 7 0
BBX 7 14 0 -2
BITMAP
00
10
10
10
7C
10
10
10
10
10
10
10
10
00
ENDCHAR
STARTCHAR daggerdbl
ENCODING 135
SWIDTH 480 0
DWIDTH 7 0
BBX 7 14 0 -2
BITMAP
00
10
10
10
7C
10
10
10
7C
10
10
10
10
00
ENDCHAR
STARTCHAR Euro
ENCODING 136
SWIDTH 480 0
DWIDTH 7 0
BBX 7 14 0 -2
BITMAP
00
00
1C
22
22
78
20
78
20
22
22
1C
00
00
ENDCHAR
STARTCHAR perthousand
ENCODING 137
SWIDTH 480 0
DWIDTH 7 0
BBX 7 14 0 -2
BITMAP
00
00
40
A0
A4
48
30
40
94
2A
2A
14
00
00
ENDCHAR
STARTCHAR afii10058
ENCODING 138
SWIDTH 480 0
DWIDTH 7 0
BBX 7 14 0 -2
BITMAP
00
00
38
48
48
48
4C
4A
4A
4A
4A
8C
00
00
ENDCHAR
STARTCHAR guilsinglleft
ENCODING 139
SWIDTH 480 0
DWIDTH 7 0
BBX 7 14 0 -2
BITMAP
00
00
00
00
00
04
08
10
20
10
08
04
00
00
ENDCHAR
STARTCHAR afii10059
ENCODING 140
SWIDTH 480 0
DWIDTH 7 0
BBX 7 14 0 -2
BITMAP
00
00
48
48
48
48
7C
4A
4A
4A
4A
4C
00
00
ENDCHAR
STARTCHAR afii10061
ENCODING 141
SWIDTH 480 0
DWIDTH 7 0
BBX 7 14 0 -2
BITMAP
04
18
00
42
44
48
50
60
50
48
44
42
00
00
ENDCHAR
STARTCHAR afii10060
ENCODING 142
SWIDTH 480 0
DWIDTH 7 0
BBX 7 14 0 -2
BITMAP
00
00
F8
40
40
40
7C
42
42
42
42
42
00
00
ENDCHAR
STARTCHAR afii10145
ENCODING 143
SWIDTH 480 0
DWIDTH 7 0
BBX 7 14 0 -2
BITMAP
00
00
42
42
42
42
42
42
42
42
42
7E
08
08
ENDCHAR
STARTCHAR afii10099
ENCODING 144
SWIDTH 480 0
DWIDTH 7 0
BBX 7 14 0 -2
BITMAP
00
00
40
F8
40
5C
62
42
42
42
42
42
02
1C
ENDCHAR
STARTCHAR quoteleft
ENCODING 145
SWIDTH 480 0
DWIDTH 7 0
BBX 7 14 0 -2
BITMAP
00
0C
08
08
04
00
00
00
00
00
00
00
00
00
ENDCHAR
STARTCHAR quoteright
ENCODING 146
SWIDTH 480 0
DWIDTH 7 0
BBX 7 14 0 -2
BITMAP
00
18
08
08
10
00
00
00
00
00
00
00
00
00
ENDCHAR
STARTCHAR quotedblleft
ENCODING 147
SWIDTH 480 0
DWIDTH 7 0
BBX 7 14 0 -2
BITMAP
00
24
48
48
6C
00
00
00
00
00
00
00
00
00
ENDCHAR
STARTCHAR quotedblright
ENCODING 148
SWIDTH 480 0
DWIDTH 7 0
BBX 7 14 0 -2
BITMAP
00
6C
24
24
48
00
00
00
00
00
00
00
00
00
ENDCHAR
STARTCHAR bullet
ENCODING 149
SWIDTH 480 0
DWIDTH 7 0
BBX 7 14 0 -2
BITMAP
00
00
00
00
38
7C
7C
7C
38
00
00
00
00
00
ENDCHAR
STARTCHAR endash
ENCODING 150
SWIDTH 480 0
DWIDTH 7 0
BBX 7 14 0 -2
BITMAP
00
00
00
00
00
00
00
7C
00
00
00
00
00
00
ENDCHAR
STARTCHAR emdash
ENCODING 151
SWIDTH 480 0
DWIDTH 7 0
BBX 7 14 0 -2
BITMAP
00
00
00
00
00
00
00
7E
00
00
00
00
00
00
ENDCHAR
STARTCHAR trademark
ENCODING 153
SWIDTH 480 0
DWIDTH 7 0
BBX 7 14 0 -2
BITMAP
00
FE
5E
52
52
00
00
00
00
00
00
00
00
00
ENDCHAR
STARTCHAR afii10106
ENCODING 154
SWIDTH 480 0
DWIDTH 7 0
BBX 7 14 0 -2
BITMAP
00
00
00
00
00
38
48
48
4C
4A
4A
8C
00
00
ENDCHAR
STARTCHAR guilsinglright
ENCODING 155
SWIDTH 480 0
DWIDTH 7 0
BBX 7 14 0 -2
BITMAP
00
00
00
00
00
20
10
08
04
08
10
20
00
00
ENDCHAR
STARTCHAR afii10107
ENCODING 156
SWIDTH 480 0
DWIDTH 7 0
BBX 7 14 0 -2
BITMAP
00
00
00
00
00
48
48
48
7C
4A
4A
4C
00
00
ENDCHAR
STARTCHAR afii10109
ENCODING 157
SWIDTH 480 0
DWIDTH 7 0
BBX 7 14 0 -2
BITMAP
00
04
08
10
00
44
48
50
70
48
44
42
00
00
ENDCHAR
STARTCHAR afii10108
ENCODING 158
SWIDTH 480 0
DWIDTH 7 0
BBX 7 14 0 -2
BITMAP
00
00
40
F8
40
5C
62
42
42
42
42
42
00
00
ENDCHAR
STARTCHAR afii10193
ENCODING 159
SWIDTH 480 0
DWIDTH 7 0
BBX 7 14 0 -2
BITMAP
00
00
00
00
00
42
42
42
42
42
42
7E
08
08
ENDCHAR
STARTCHAR space
ENCODING 160
SWIDTH 480 0
DWIDTH 7 0
BBX 7 14 0 -2
BITMAP
00
00
00
00
00
00
00
00
00
00
00
00
00
00
ENDCHAR
STARTCHAR afii10062
ENCODING 161
SWIDTH 480 0
DWIDTH 7 0
BBX 7 14 0 -2
BITMAP
3C
00
42
42
42
42
42
3E
02
02
42
3C
00
00
ENDCHAR
STARTCHAR afii10110
ENCODING 162
SWIDTH 480 0
DWIDTH 7 0
BBX 7 14 0 -2
BITMAP
00
00
00
3C
00
42
42
42
42
46
3A
02
42
3C
ENDCHAR
STARTCHAR afii10057
ENCODING 163
SWIDTH 480 0
DWIDTH 7 0
BBX 7 14 0 -2
BITMAP
00
00
0E
04
04
04
04
04
04
44
44
38
00
00
ENDCHAR
STARTCHAR currency
ENCODING 164
SWIDTH 480 0
DWIDTH 7 0
BBX 7 14 0 -2
BITMAP
00
00
00
00
42
3C
24
24
3C
42
00
00
00
00
ENDCHAR
STARTCHAR afii10050
ENCODING 165
SWIDTH 480 0
DWIDTH 7 0
BBX 7 14 0 -2
BITMAP
02
02
7E
40
40
40
40
40
40
40
40
40
00
00
ENDCHAR
STARTCHAR brokenbar
ENCODING 166
SWIDTH 480 0
DWIDTH 7 0
BBX 7 14 0 -2
BITMAP
00
00
10
10
10
10
00
00
10
10
10
10
00
00
ENDCHAR
STARTCHAR section
ENCODING 167
SWIDTH 480 0
DWIDTH 7 0
BBX 7 14 0 -2
BITMAP
00
3C
42
20
18
24
42
24
18
04
42
3C
00
00
ENDCHAR
STARTCHAR afii10023
ENCODING 168
SWIDTH 480 0
DWIDTH 7 0
BBX 7 14 0 -2
BITMAP
00
24
00
7e
40
40
40
7c
40
40
40
7e
00
00
ENDCHAR
STARTCHAR copyright
ENCODING 169
SWIDTH 480 0
DWIDTH 7 0
BBX 7 14 0 -2
BITMAP
00
3C
42
5A
66
62
62
62
66
5A
42
3C
00
00
ENDCHAR
STARTCHAR afii10053
ENCODING 170
SWIDTH 480 0
DWIDTH 7 0
BBX 7 14 0 -2
BITMAP
00
00
3C
42
42
40
78
40
40
42
42
3C
00
00
ENDCHAR
STARTCHAR guillemotleft
ENCODING 171
SWIDTH 480 0
DWIDTH 7 0
BBX 7 14 0 -2
BITMAP
00
00
00
00
00
0A
14
28
50
28
14
0A
00
00
ENDCHAR
STARTCHAR logicalnot
ENCODING 172
SWIDTH 480 0
DWIDTH 7 0
BBX 7 14 0 -2
BITMAP
00
00
00
00
00
00
00
00
F8
08
08
08
00
00
ENDCHAR
STARTCHAR hyphen
ENCODING 173
SWIDTH 480 0
DWIDTH 7 0
BBX 7 14 0 -2
BITMAP
00
00
00
00
00
00
00
00
F0
00
00
00
00
00
ENDCHAR
STARTCHAR registered
ENCODING 174
SWIDTH 480 0
DWIDTH 7 0
BBX 7 14 0 -2
BITMAP
00
3C
42
7A
66
66
7A
66
66
66
42
3C
00
00
ENDCHAR
STARTCHAR afii10056
ENCODING 175
SWIDTH 480 0
DWIDTH 7 0
BBX 7 14 0 -2
BITMAP
00
14
00
3e
08
08
08
08
08
08
08
3e
00
00
ENDCHAR
STARTCHAR degree
ENCODING 176
SWIDTH 480 0
DWIDTH 7 0
BBX 7 14 0 -2
BITMAP
00
30
48
48
30
00
00
00
00
00
00
00
00
00
ENDCHAR
STARTCHAR plusminus
ENCODING 177
SWIDTH 480 0
DWIDTH 7 0
BBX 7 14 0 -2
BITMAP
00
00
00
00
00
00
10
10
7C
10
10
7C
00
00
ENDCHAR
STARTCHAR afii10055
ENCODING 178
SWIDTH 480 0
DWIDTH 7 0
BBX 7 14 0 -2
BITMAP
00
00
3E
08
08
08
08
08
08
08
08
3E
00
00
ENDCHAR
STARTCHAR afii10103
ENCODING 179
SWIDTH 480 0
DWIDTH 7 0
BBX 7 14 0 -2
BITMAP
00
00
08
08
00
18
08
08
08
08
08
3E
00
00
ENDCHAR
STARTCHAR afii10098
ENCODING 180
SWIDTH 480 0
DWIDTH 7 0
BBX 7 14 0 -2
BITMAP
00
00
00
00
04
7C
40
40
40
40
40
40
00
00
ENDCHAR
STARTCHAR mu
ENCODING 181
SWIDTH 480 0
DWIDTH 7 0
BBX 7 14 0 -2
BITMAP
00
00
00
00
00
00
44
44
44
44
6C
54
40
40
ENDCHAR
STARTCHAR paragraph
ENCODING 182
SWIDTH 480 0
DWIDTH 7 0
BBX 7 14 0 -2
BITMAP
00
00
3C
54
54
54
54
34
14
14
14
14
14
1C
ENDCHAR
STARTCHAR periodcentered
ENCODING 183
SWIDTH 480 0
DWIDTH 7 0
BBX 7 14 0 -2
BITMAP
00
00
00
00
00
00
10
00
00
00
00
00
00
00
ENDCHAR
STARTCHAR afii10071
ENCODING 184
SWIDTH 480 0
DWIDTH 7 0
BBX 7 14 0 -2
BITMAP
00
00
00
24
00
3c
42
42
7e
40
42
3c
00
00
ENDCHAR
STARTCHAR afii61352
ENCODING 185
SWIDTH 480 0
DWIDTH 7 0
BBX 7 14 0 -2
BITMAP
00
00
48
48
48
68
68
5E
5E
48
4E
48
00
00
ENDCHAR
STARTCHAR afii10101
ENCODING 186
SWIDTH 480 0
DWIDTH 7 0
BBX 7 14 0 -2
BITMAP
00
00
00
00
00
3C
42
40
78
40
42
3C
00
00
ENDCHAR
STARTCHAR guillemotright
ENCODING 187
SWIDTH 480 0
DWIDTH 7 0
BBX 7 14 0 -2
BITMAP
00
00
00
00
00
50
28
14
0A
14
28
50
00
00
ENDCHAR
STARTCHAR afii10105
ENCODING 188
SWIDTH 480 0
DWIDTH 7 0
BBX 7 14 0 -2
BITMAP
00
00
04
04
00
0C
04
04
04
04
04
44
44
38
ENDCHAR
STARTCHAR afii10054
ENCODING 189
SWIDTH 480 0
DWIDTH 7 0
BBX 7 14 0 -2
BITMAP
00
00
3C
42
42
40
30
0C
02
42
42
3C
00
00
ENDCHAR
STARTCHAR afii10102
ENCODING 190
SWIDTH 480 0
DWIDTH 7 0
BBX 7 14 0 -2
BITMAP
00
00
00
00
00
3C
42
20
18
04
42
3C
00
00
ENDCHAR
STARTCHAR afii10104
ENCODING 191
SWIDTH 480 0
DWIDTH 7 0
BBX 7 14 0 -2
BITMAP
00
00
00
14
00
18
08
08
08
08
08
3e
00
00
ENDCHAR
STARTCHAR afii10017
ENCODING 192
SWIDTH 480 0
DWIDTH 7 0
BBX 7 14 0 -2
BITMAP
00
00
18
24
42
42
42
7E
42
42
42
42
00
00
ENDCHAR
STARTCHAR afii10018
ENCODING 193
SWIDTH 480 0
DWIDTH 7 0
BBX 7 14 0 -2
BITMAP
00
00
7E
40
40
40
7C
42
42
42
42
7C
00
00
ENDCHAR
STARTCHAR afii10019
ENCODING 194
SWIDTH 480 0
DWIDTH 7 0
BBX 7 14 0 -2
BITMAP
00
00
7C
22
22
22
3C
22
22
22
22
7C
00
00
ENDCHAR
STARTCHAR afii10020
ENCODING 195
SWIDTH 480 0
DWIDTH 7 0
BBX 7 14 0 -2
BITMAP
00
00
7E
40
40
40
40
40
40
40
40
40
00
00
ENDCHAR
STARTCHAR afii10021
ENCODING 196
SWIDTH 480 0
DWIDTH 7 0
BBX 7 14 0 -2
BITMAP
00
00
1C
24
24
24
24
24
24
24
24
7E
42
42
ENDCHAR
STARTCHAR afii10022
ENCODING 197
SWIDTH 480 0
DWIDTH 7 0
BBX 7 14 0 -2
BITMAP
00
00
7E
40
40
40
78
40
40
40
40
7E
00
00
ENDCHAR
STARTCHAR afii10024
ENCODING 198
SWIDTH 480 0
DWIDTH 7 0
BBX 7 14 0 -2
BITMAP
00
00
92
92
54
54
38
38
54
54
92
92
00
00
ENDCHAR
STARTCHAR afii10025
ENCODING 199
SWIDTH 480 0
DWIDTH 7 0
BBX 7 14 0 -2
BITMAP
00
00
3C
42
02
02
1C
02
02
02
42
3C
00
00
ENDCHAR
STARTCHAR afii10026
ENCODING 200
SWIDTH 480 0
DWIDTH 7 0
BBX 7 14 0 -2
BITMAP
00
00
42
42
46
46
4A
52
62
62
42
42
00
00
ENDCHAR
STARTCHAR afii10027
ENCODING 201
SWIDTH 480 0
DWIDTH 7 0
BBX 7 14 0 -2
BITMAP
3C
00
42
42
46
46
4A
52
62
62
42
42
00
00
ENDCHAR
STARTCHAR afii10028
ENCODING 202
SWIDTH 480 0
DWIDTH 7 0
BBX 7 14 0 -2
BITMAP
00
00
42
44
48
50
60
50
48
44
42
42
00
00
ENDCHAR
STARTCHAR afii10029
ENCODING 203
SWIDTH 480 0
DWIDTH 7 0
BBX 7 14 0 -2
BITMAP
00
00
1E
22
22
22
22
22
22
22
22
42
00
00
ENDCHAR
STARTCHAR afii10030
ENCODING 204
SWIDTH 480 0
DWIDTH 7 0
BBX 7 14 0 -2
BITMAP
00
00
42
66
66
5A
5A
42
42
42
42
42
00
00
ENDCHAR
STARTCHAR afii10031
ENCODING 205
SWIDTH 480 0
DWIDTH 7 0
BBX 7 14 0 -2
BITMAP
00
00
42
42
42
42
7E
42
42
42
42
42
00
00
ENDCHAR
STARTCHAR afii10032
ENCODING 206
SWIDTH 480 0
DWIDTH 7 0
BBX 7 14 0 -2
BITMAP
00
00
3C
42
42
42
42
42
42
42
42
3C
00
00
ENDCHAR
STARTCHAR afii10033
ENCODING 207
SWIDTH 480 0
DWIDTH 7 0
BBX 7 14 0 -2
BITMAP
00
00
7E
42
42
42
42
42
42
42
42
42
00
00
ENDCHAR
STARTCHAR afii10034
ENCODING 208
SWIDTH 480 0
DWIDTH 7 0
BBX 7 14 0 -2
BITMAP
00
00
7C
42
42
42
42
7C
40
40
40
40
00
00
ENDCHAR
STARTCHAR afii10035
ENCODING 209
SWIDTH 480 0
DWIDTH 7 0
BBX 7 14 0 -2
BITMAP
00
00
3C
42
42
40
40
40
40
42
42
3C
00
00
ENDCHAR
STARTCHAR afii10036
ENCODING 210
SWIDTH 480 0
DWIDTH 7 0
BBX 7 14 0 -2
BITMAP
00
00
FE
10
10
10
10
10
10
10
10
10
00
00
ENDCHAR
STARTCHAR afii10037
ENCODING 211
SWIDTH 480 0
DWIDTH 7 0
BBX 7 14 0 -2
BITMAP
00
00
42
42
42
42
42
3E
02
02
42
3C
00
00
ENDCHAR
STARTCHAR afii10038
ENCODING 212
SWIDTH 480 0
DWIDTH 7 0
BBX 7 14 0 -2
BITMAP
00
00
10
7C
92
92
92
92
92
7C
10
10
00
00
ENDCHAR
STARTCHAR afii10039
ENCODING 213
SWIDTH 480 0
DWIDTH 7 0
BBX 7 14 0 -2
BITMAP
00
00
42
42
24
24
18
18
24
24
42
42
00
00
ENDCHAR
STARTCHAR afii10040
ENCODING 214
SWIDTH 480 0
DWIDTH 7 0
BBX 7 14 0 -2
BITMAP
00
00
44
44
44
44
44
44
44
44
44
7E
02
02
ENDCHAR
STARTCHAR afii10041
ENCODING 215
SWIDTH 480 0
DWIDTH 7 0
BBX 7 14 0 -2
BITMAP
00
00
42
42
42
42
42
3E
02
02
02
02
00
00
ENDCHAR
STARTCHAR afii10042
ENCODING 216
SWIDTH 480 0
DWIDTH 7 0
BBX 7 14 0 -2
BITMAP
00
00
44
44
54
54
54
54
54
54
54
7C
00
00
ENDCHAR
STARTCHAR afii10043
ENCODING 217
SWIDTH 480 0
DWIDTH 7 0
BBX 7 14 0 -2
BITMAP
00
00
44
44
54
54
54
54
54
54
54
7E
02
02
ENDCHAR
STARTCHAR afii10044
ENCODING 218
SWIDTH 480 0
DWIDTH 7 0
BBX 7 14 0 -2
BITMAP
00
00
E0
20
20
20
3C
22
22
22
22
3C
00
00
ENDCHAR
STARTCHAR afii10045
ENCODING 219
SWIDTH 480 0
DWIDTH 7 0
BBX 7 14 0 -2
BITMAP
00
00
42
42
42
42
72
4A
4A
4A
4A
72
00
00
ENDCHAR
STARTCHAR afii10046
ENCODING 220
SWIDTH 480 0
DWIDTH 7 0
BBX 7 14 0 -2
BITMAP
00
00
40
40
40
40
7C
42
42
42
42
7C
00
00
ENDCHAR
STARTCHAR afii10047
ENCODING 221
SWIDTH 480 0
DWIDTH 7 0
BBX 7 14 0 -2
BITMAP
00
00
3C
42
42
02
1E
02
02
42
42
3C
00
00
ENDCHAR
STARTCHAR afii10048
ENCODING 222
SWIDTH 480 0
DWIDTH 7 0
BBX 7 14 0 -2
BITMAP
00
00
4C
52
52
52
72
52
52
52
52
4C
00
00
ENDCHAR
STARTCHAR afii10049
ENCODING 223
SWIDTH 480 0
DWIDTH 7 0
BBX 7 14 0 -2
BITMAP
00
00
3E
42
42
42
42
3E
12
22
42
42
00
00
ENDCHAR
STARTCHAR afii10065
ENCODING 224
SWIDTH 480 0
DWIDTH 7 0
BBX 7 14 0 -2
BITMAP
00
00
00
00
00
3C
42
0E
32
42
46
3A
00
00
ENDCHAR
STARTCHAR afii10066
ENCODING 225
SWIDTH 480 0
DWIDTH 7 0
BBX 7 14 0 -2
BITMAP
00
00
02
3C
40
5C
62
42
42
42
42
3C
00
00
ENDCHAR
STARTCHAR afii10067
ENCODING 226
SWIDTH 480 0
DWIDTH 7 0
BBX 7 14 0 -2
BITMAP
00
00
00
00
00
7C
42
42
7C
42
42
7C
00
00
ENDCHAR
STARTCHAR afii10068
ENCODING 227
SWIDTH 480 0
DWIDTH 7 0
BBX 7 14 0 -2
BITMAP
00
00
00
00
00
7C
40
40
40
40
40
40
00
00
ENDCHAR
STARTCHAR afii10069
ENCODING 228
SWIDTH 480 0
DWIDTH 7 0
BBX 7 14 0 -2
BITMAP
00
00
00
00
00
1C
24
24
24
24
24
7E
42
00
ENDCHAR
STARTCHAR afii10070
ENCODING 229
SWIDTH 480 0
DWIDTH 7 0
BBX 7 14 0 -2
BITMAP
00
00
00
00
00
3C
42
42
7E
40
42
3C
00
00
ENDCHAR
STARTCHAR afii10072
ENCODING 230
SWIDTH 480 0
DWIDTH 7 0
BBX 7 14 0 -2
BITMAP
00
00
00
00
00
92
92
54
38
54
92
92
00
00
ENDCHAR
STARTCHAR afii10073
ENCODING 231
SWIDTH 480 0
DWIDTH 7 0
BBX 7 14 0 -2
BITMAP
00
00
00
00
00
3C
42
02
1C
02
42
3C
00
00
ENDCHAR
STARTCHAR afii10074
ENCODING 232
SWIDTH 480 0
DWIDTH 7 0
BBX 7 14 0 -2
BITMAP
00
00
00
00
00
42
42
46
4A
52
62
42
00
00
ENDCHAR
STARTCHAR afii10075
ENCODING 233
SWIDTH 480 0
DWIDTH 7 0
BBX 7 14 0 -2
BITMAP
00
00
00
3C
00
42
42
46
4A
52
62
42
00
00
ENDCHAR
STARTCHAR afii10076
ENCODING 234
SWIDTH 480 0
DWIDTH 7 0
BBX 7 14 0 -2
BITMAP
00
00
00
00
00
44
48
50
70
48
44
42
00
00
ENDCHAR
STARTCHAR afii10077
ENCODING 235
SWIDTH 480 0
DWIDTH 7 0
BBX 7 14 0 -2
BITMAP
00
00
00
00
00
1E
22
22
22
22
22
42
00
00
ENDCHAR
STARTCHAR afii10078
ENCODING 236
SWIDTH 480 0
DWIDTH 7 0
BBX 7 14 0 -2
BITMAP
00
00
00
00
00
42
66
66
5A
5A
42
42
00
00
ENDCHAR
STARTCHAR afii10079
ENCODING 237
SWIDTH 480 0
DWIDTH 7 0
BBX 7 14 0 -2
BITMAP
00
00
00
00
00
42
42
42
7E
42
42
42
00
00
ENDCHAR
STARTCHAR afii10080
ENCODING 238
SWIDTH 480 0
DWIDTH 7 0
BBX 7 14 0 -2
BITMAP
00
00
00
00
00
3C
42
42
42
42
42
3C
00
00
ENDCHAR
STARTCHAR afii10081
ENCODING 239
SWIDTH 480 0
DWIDTH 7 0
BBX 7 14 0 -2
BITMAP
00
00
00
00
00
7E
42
42
42
42
42
42
00
00
ENDCHAR
STARTCHAR afii10082
ENCODING 240
SWIDTH 480 0
DWIDTH 7 0
BBX 7 14 0 -2
BITMAP
00
00
00
00
00
5C
62
42
42
42
62
5C
40
40
ENDCHAR
STARTCHAR afii10083
ENCODING 241
SWIDTH 480 0
DWIDTH 7 0
BBX 7 14 0 -2
BITMAP
00
00
00
00
00
3C
42
40
40
40
42
3C
00
00
ENDCHAR
STARTCHAR afii10084
ENCODING 242
SWIDTH 480 0
DWIDTH 7 0
BBX 7 14 0 -2
BITMAP
00
00
00
00
00
7C
10
10
10
10
10
10
00
00
ENDCHAR
STARTCHAR afii10085
ENCODING 243
SWIDTH 480 0
DWIDTH 7 0
BBX 7 14 0 -2
BITMAP
00
00
00
00
00
42
42
42
42
46
3A
02
42
3C
ENDCHAR
STARTCHAR afii10086
ENCODING 244
SWIDTH 480 0
DWIDTH 7 0
BBX 7 14 0 -2
BITMAP
00
00
00
00
10
7C
92
92
92
92
92
7C
10
10
ENDCHAR
STARTCHAR afii10087
ENCODING 245
SWIDTH 480 0
DWIDTH 7 0
BBX 7 14 0 -2
BITMAP
00
00
00
00
00
42
42
24
18
24
42
42
00
00
ENDCHAR
STARTCHAR afii10088
ENCODING 246
SWIDTH 480 0
DWIDTH 7 0
BBX 7 14 0 -2
BITMAP
00
00
00
00
00
44
44
44
44
44
44
7E
02
00
ENDCHAR
STARTCHAR afii10089
ENCODING 247
SWIDTH 480 0
DWIDTH 7 0
BBX 7 14 0 -2
BITMAP
00
00
00
00
00
42
42
42
3E
02
02
02
00
00
ENDCHAR
STARTCHAR afii10090
ENCODING 248
SWIDTH 480 0
DWIDTH 7 0
BBX 7 14 0 -2
BITMAP
00
00
00
00
00
44
54
54
54
54
54
7C
00
00
ENDCHAR
STARTCHAR afii10091
ENCODING 249
SWIDTH 480 0
DWIDTH 7 0
BBX 7 14 0 -2
BITMAP
00
00
00
00
00
44
54
54
54
54
54
7E
02
00
ENDCHAR
STARTCHAR afii10092
ENCODING 250
SWIDTH 480 0
DWIDTH 7 0
BBX 7 14 0 -2
BITMAP
00
00
00
00
00
60
20
20
3C
22
22
3C
00
00
ENDCHAR
STARTCHAR afii10093
ENCODING 251
SWIDTH 480 0
DWIDTH 7 0
BBX 7 14 0 -2
BITMAP
00
00
00
00
00
42
42
42
72
4A
4A
72
00
00
ENDCHAR
STARTCHAR afii10094
ENCODING 252
SWIDTH 480 0
DWIDTH 7 0
BBX 7 14 0 -2
BITMAP
00
00
00
00
00
40
40
40
7C
42
42
7C
00
00
ENDCHAR
STARTCHAR afii10095
ENCODING 253
SWIDTH 480 0
DWIDTH 7 0
BBX 7 14 0 -2
BITMAP
00
00
00
00
00
3C
42
02
1E
02
42
3C
00
00
ENDCHAR
STARTCHAR afii10096
ENCODING 254
SWIDTH 480 0
DWIDTH 7 0
BBX 7 14 0 -2
BITMAP
00
00
00
00
00
4C
52
52
72
52
52
4C
00
00
ENDCHAR
STARTCHAR afii10097
ENCODING 255
SWIDTH 480 0
DWIDTH 7 0
BBX 7 14 0 -2
BITMAP
00
00
00
00
00
3E
42
42
3E
22
42
42
00
00
ENDCHAR
STARTCHAR tilde
ENCODING -1
SWIDTH 480 0
DWIDTH 7 0
BBX 7 14 0 -2
BITMAP
14
28
00
00
00
00
00
00
00
00
00
00
00
00
ENDCHAR
STARTCHAR florin
ENCODING -1
SWIDTH 480 0
DWIDTH 7 0
BBX 7 14 0 -2
BITMAP
00
00
06
08
08
08
3C
10
10
10
10
10
10
60
ENDCHAR
STARTCHAR circumflex
ENCODING -1
SWIDTH 480 0
DWIDTH 7 0
BBX 7 14 0 -2
BITMAP
00
00
18
24
00
00
00
00
00
00
00
00
00
00
ENDCHAR
STARTCHAR OE
ENCODING -1
SWIDTH 480 0
DWIDTH 7 0
BBX 7 14 0 -2
BITMAP
00
00
7E
90
90
90
9C
90
90
90
90
7E
00
00
ENDCHAR
STARTCHAR oe
ENCODING -1
SWIDTH 480 0
DWIDTH 7 0
BBX 7 14 0 -2
BITMAP
00
00
00
00
00
6C
92
92
9E
90
92
6C
00
00
ENDCHAR
STARTCHAR Scaron
ENCODING -1
SWIDTH 480 0
DWIDTH 7 0
BBX 7 14 0 -2
BITMAP
24
18
00
3C
42
42
30
0C
02
42
42
3C
00
00
ENDCHAR
STARTCHAR scaron
ENCODING -1
SWIDTH 480 0
DWIDTH 7 0
BBX 7 14 0 -2
BITMAP
00
00
24
18
00
3C
42
20
18
04
42
3C
00
00
ENDCHAR
STARTCHAR Zcaron
ENCODING -1
SWIDTH 480 0
DWIDTH 7 0
BBX 7 14 0 -2
BITMAP
24
18
00
7E
02
04
08
10
10
20
40
7E
00
00
ENDCHAR
STARTCHAR zcaron
ENCODING -1
SWIDTH 480 0
DWIDTH 7 0
BBX 7 14 0 -2
BITMAP
00
00
24
18
00
7E
04
08
10
10
20
7E
00
00
ENDCHAR
STARTCHAR Ydieresis
ENCODING -1
SWIDTH 480 0
DWIDTH 7 0
BBX 7 14 0 -2
BITMAP
00
28
00
44
44
28
28
10
10
10
10
10
00
00
ENDCHAR
ENDFONT
