STARTFONT 2.1
COMMENT $XConsortium: 9x15.bdf,v 1.15 94/04/05 17:53:48 gildea Exp $
COMMENT ""
COMMENT "Designed and made by"
COMMENT "by Thomas Bagli (pyramid!pcsbst!tom@uunet.UU.NET)"
COMMENT "PCS Computer Systeme, West Germany"
COMMENT ""
FONT -Misc-Fixed-Medium-R-Normal--15-140-75-75-C-90-windows-1251
SIZE 15 75 75
FONTBOUNDINGBOX 9 15 0 -3
STARTPROPERTIES 23
FONTNAME_REGISTRY ""
FOUNDRY "Misc"
FAMILY_NAME "Fixed"
WEIGHT_NAME "Medium"
SLANT "R"
SETWIDTH_NAME "Normal"
ADD_STYLE_NAME ""
PIXEL_SIZE 15
POINT_SIZE 140
RESOLUTION_X 75
RESOLUTION_Y 75
SPACING "C"
AVERAGE_WIDTH 90
CHARSET_REGISTRY "windows"
CHARSET_ENCODING "1251"
DEFAULT_CHAR 0
FONT_DESCENT 3
FONT_ASCENT 12
COPYRIGHT "Public domain terminal emulator font.  Share and enjoy."
COPYRIGHT2 "Cyrillic, Euro and special glyphs copyright 2000 Dmitry Yu. Bolkhovityanov, bolkhov@inp.nsk.su"
SOURCEDATE "Wed Aug  9 20:25:30 2000"
PKGVERSION "1.1"
ASSEMBLER "cvtbdf.pl (Linux)"
ENDPROPERTIES
CHARS 265
STARTCHAR null
ENCODING 0
SWIDTH 714 0
DWIDTH 9 0
BBX 9 15 0 -3
BITMAP
0000
0000
7F00
7F00
7F00
7F00
7F00
7F00
7F00
7F00
7F00
7F00
0000
0000
0000
ENDCHAR
STARTCHAR ctrlA
ENCODING 1
SWIDTH 714 0
DWIDTH 9 0
BBX 9 15 0 -3
BITMAP
0000
0000
0000
0000
0000
0800
1C00
3E00
7F00
3E00
1C00
0800
0000
0000
0000
ENDCHAR
STARTCHAR ctrlB
ENCODING 2
SWIDTH 714 0
DWIDTH 9 0
BBX 9 15 0 -3
BITMAP
0000
AA00
5500
AA00
5500
AA00
5500
AA00
5500
AA00
5500
AA00
5500
AA00
5500
ENDCHAR
STARTCHAR ctrlC
ENCODING 3
SWIDTH 714 0
DWIDTH 9 0
BBX 9 15 0 -3
BITMAP
0000
0000
0000
0000
4400
4400
7C00
4400
4400
0000
1F00
0400
0400
0400
0000
ENDCHAR
STARTCHAR ctrlD
ENCODING 4
SWIDTH 714 0
DWIDTH 9 0
BBX 9 15 0 -3
BITMAP
0000
0000
0000
0000
7800
4000
7000
4000
4000
0F00
0800
0E00
0800
0800
0000
ENDCHAR
STARTCHAR ctrlE
ENCODING 5
SWIDTH 714 0
DWIDTH 9 0
BBX 9 15 0 -3
BITMAP
0000
0000
0000
0000
3C00
4000
4000
3C00
0000
1E00
1100
1E00
1100
1100
0000
ENDCHAR
STARTCHAR ctrlF
ENCODING 6
SWIDTH 714 0
DWIDTH 9 0
BBX 9 15 0 -3
BITMAP
0000
0000
0000
0000
4000
4000
4000
7C00
0000
1F00
1000
1E00
1000
1000
0000
ENDCHAR
STARTCHAR ctrlG
ENCODING 7
SWIDTH 714 0
DWIDTH 9 0
BBX 9 15 0 -3
BITMAP
0000
0000
1C00
2200
2200
1C00
0000
0000
0000
0000
0000
0000
0000
0000
0000
ENDCHAR
STARTCHAR ctrlH
ENCODING 8
SWIDTH 714 0
DWIDTH 9 0
BBX 9 15 0 -3
BITMAP
0000
0000
0000
0000
0000
0000
0800
0800
7F00
0800
0800
7F00
0000
0000
0000
ENDCHAR
STARTCHAR ctrlI
ENCODING 9
SWIDTH 714 0
DWIDTH 9 0
BBX 9 15 0 -3
BITMAP
0000
0000
0000
0000
4400
6400
5400
4C00
4400
1000
1000
1000
1000
1F00
0000
ENDCHAR
STARTCHAR ctrlJ
ENCODING 10
SWIDTH 714 0
DWIDTH 9 0
BBX 9 15 0 -3
BITMAP
0000
0000
0000
0000
4400
4400
2800
1000
0000
1F00
0400
0400
0400
0400
0000
ENDCHAR
STARTCHAR ldcornsqlr
ENCODING 11
SWIDTH 714 0
DWIDTH 9 0
BBX 9 15 0 -3
BITMAP
0800
0800
0800
0800
0800
0800
0800
0800
F800
0000
0000
0000
0000
0000
0000
ENDCHAR
STARTCHAR ldcornsqur
ENCODING 12
SWIDTH 714 0
DWIDTH 9 0
BBX 9 15 0 -3
BITMAP
0000
0000
0000
0000
0000
0000
0000
0000
F800
0800
0800
0800
0800
0800
0800
ENDCHAR
STARTCHAR ldcornsqul
ENCODING 13
SWIDTH 714 0
DWIDTH 9 0
BBX 9 15 0 -3
BITMAP
0000
0000
0000
0000
0000
0000
0000
0000
0F80
0800
0800
0800
0800
0800
0800
ENDCHAR
STARTCHAR ldcornsqll
ENCODING 14
SWIDTH 714 0
DWIDTH 9 0
BBX 9 15 0 -3
BITMAP
0800
0800
0800
0800
0800
0800
0800
0800
0F80
0000
0000
0000
0000
0000
0000
ENDCHAR
STARTCHAR ldcross
ENCODING 15
SWIDTH 714 0
DWIDTH 9 0
BBX 9 15 0 -3
BITMAP
0800
0800
0800
0800
0800
0800
0800
0800
FF80
0800
0800
0800
0800
0800
0800
ENDCHAR
STARTCHAR ctrlP
ENCODING 16
SWIDTH 714 0
DWIDTH 9 0
BBX 9 15 0 -3
BITMAP
0000
0000
0000
0000
FF80
0000
0000
0000
0000
0000
0000
0000
0000
0000
0000
ENDCHAR
STARTCHAR ctrlQ
ENCODING 17
SWIDTH 714 0
DWIDTH 9 0
BBX 9 15 0 -3
BITMAP
0000
0000
0000
0000
0000
0000
FF80
0000
0000
0000
0000
0000
0000
0000
0000
ENDCHAR
STARTCHAR ldhorizontal
ENCODING 18
SWIDTH 714 0
DWIDTH 9 0
BBX 9 15 0 -3
BITMAP
0000
0000
0000
0000
0000
0000
0000
0000
FF80
0000
0000
0000
0000
0000
0000
ENDCHAR
STARTCHAR ctrlS
ENCODING 19
SWIDTH 714 0
DWIDTH 9 0
BBX 9 15 0 -3
BITMAP
0000
0000
0000
0000
0000
0000
0000
0000
0000
0000
FF80
0000
0000
0000
0000
ENDCHAR
STARTCHAR ctrlT
ENCODING 20
SWIDTH 714 0
DWIDTH 9 0
BBX 9 15 0 -3
BITMAP
0000
0000
0000
0000
0000
0000
0000
0000
0000
0000
0000
0000
FF80
0000
0000
ENDCHAR
STARTCHAR ldteelft
ENCODING 21
SWIDTH 714 0
DWIDTH 9 0
BBX 9 15 0 -3
BITMAP
0800
0800
0800
0800
0800
0800
0800
0800
0F80
0800
0800
0800
0800
0800
0800
ENDCHAR
STARTCHAR ldteert
ENCODING 22
SWIDTH 714 0
DWIDTH 9 0
BBX 9 15 0 -3
BITMAP
0800
0800
0800
0800
0800
0800
0800
0800
F800
0800
0800
0800
0800
0800
0800
ENDCHAR
STARTCHAR ldteebt
ENCODING 23
SWIDTH 714 0
DWIDTH 9 0
BBX 9 15 0 -3
BITMAP
0800
0800
0800
0800
0800
0800
0800
0800
FF80
0000
0000
0000
0000
0000
0000
ENDCHAR
STARTCHAR ldteetp
ENCODING 24
SWIDTH 714 0
DWIDTH 9 0
BBX 9 15 0 -3
BITMAP
0000
0000
0000
0000
0000
0000
0000
0000
FF80
0800
0800
0800
0800
0800
0800
ENDCHAR
STARTCHAR ldvertical
ENCODING 25
SWIDTH 714 0
DWIDTH 9 0
BBX 9 15 0 -3
BITMAP
0800
0800
0800
0800
0800
0800
0800
0800
0800
0800
0800
0800
0800
0800
0800
ENDCHAR
STARTCHAR ctrlZ
ENCODING 26
SWIDTH 714 0
DWIDTH 9 0
BBX 9 15 0 -3
BITMAP
0000
0000
0100
0200
0400
0800
1000
1000
0800
0400
0200
0100
0000
3F00
0000
ENDCHAR
STARTCHAR ctrlBRL
ENCODING 27
SWIDTH 714 0
DWIDTH 9 0
BBX 9 15 0 -3
BITMAP
0000
0000
4000
2000
1000
0800
0400
0400
0800
1000
2000
4000
0000
7F00
0000
ENDCHAR
STARTCHAR ctrlBSLASH
ENCODING 28
SWIDTH 714 0
DWIDTH 9 0
BBX 9 15 0 -3
BITMAP
0000
0000
0000
0000
0000
7F00
1200
1200
1200
1200
1200
2200
0000
0000
0000
ENDCHAR
STARTCHAR ctrlBRR
ENCODING 29
SWIDTH 714 0
DWIDTH 9 0
BBX 9 15 0 -3
BITMAP
0000
0000
0000
0000
0000
0100
0200
7F00
0800
7F00
2000
4000
0000
0000
0000
ENDCHAR
STARTCHAR ctrlCARET
ENCODING 30
SWIDTH 714 0
DWIDTH 9 0
BBX 9 15 0 -3
BITMAP
0000
0000
0E00
1100
1000
1000
7C00
1000
1000
3000
5100
2E00
0000
0000
0000
ENDCHAR
STARTCHAR ctrlUND
ENCODING 31
SWIDTH 714 0
DWIDTH 9 0
BBX 9 15 0 -3
BITMAP
0000
0000
0000
0000
0000
0000
0000
0000
0C00
0C00
0000
0000
0000
0000
0000
ENDCHAR
STARTCHAR space
ENCODING 32
SWIDTH 714 0
DWIDTH 9 0
BBX 9 15 0 -3
BITMAP
0000
0000
0000
0000
0000
0000
0000
0000
0000
0000
0000
0000
0000
0000
0000
ENDCHAR
STARTCHAR exclam
ENCODING 33
SWIDTH 714 0
DWIDTH 9 0
BBX 9 15 0 -3
BITMAP
0000
0800
0800
0800
0800
0800
0800
0800
0000
0000
0800
0800
0000
0000
0000
ENDCHAR
STARTCHAR quotedbl
ENCODING 34
SWIDTH 714 0
DWIDTH 9 0
BBX 9 15 0 -3
BITMAP
0000
0000
1200
1200
1200
0000
0000
0000
0000
0000
0000
0000
0000
0000
0000
ENDCHAR
STARTCHAR numbersign
ENCODING 35
SWIDTH 714 0
DWIDTH 9 0
BBX 9 15 0 -3
BITMAP
0000
0000
0000
2400
2400
7E00
2400
2400
7E00
2400
2400
0000
0000
0000
0000
ENDCHAR
STARTCHAR dollar
ENCODING 36
SWIDTH 714 0
DWIDTH 9 0
BBX 9 15 0 -3
BITMAP
0000
0800
3E00
4900
4800
2800
1C00
0A00
0900
0900
4900
3E00
0800
0000
0000
ENDCHAR
STARTCHAR percent
ENCODING 37
SWIDTH 714 0
DWIDTH 9 0
BBX 9 15 0 -3
BITMAP
0000
0000
2100
5200
5200
2400
0800
0800
1200
2500
2500
4200
0000
0000
0000
ENDCHAR
STARTCHAR ampersand
ENCODING 38
SWIDTH 714 0
DWIDTH 9 0
BBX 9 15 0 -3
BITMAP
0000
0000
3000
4800
4800
4800
3000
3100
4A00
4400
4A00
3100
0000
0000
0000
ENDCHAR
STARTCHAR quotesingle
ENCODING 39
SWIDTH 714 0
DWIDTH 9 0
BBX 9 15 0 -3
BITMAP
0000
0000
0800
0800
0800
0000
0000
0000
0000
0000
0000
0000
0000
0000
0000
ENDCHAR
STARTCHAR parenleft
ENCODING 40
SWIDTH 714 0
DWIDTH 9 0
BBX 9 15 0 -3
BITMAP
0000
0400
0800
0800
1000
1000
1000
1000
1000
1000
0800
0800
0400
0000
0000
ENDCHAR
STARTCHAR parenright
ENCODING 41
SWIDTH 714 0
DWIDTH 9 0
BBX 9 15 0 -3
BITMAP
0000
1000
0800
0800
0400
0400
0400
0400
0400
0400
0800
0800
1000
0000
0000
ENDCHAR
STARTCHAR asterisk
ENCODING 42
SWIDTH 714 0
DWIDTH 9 0
BBX 9 15 0 -3
BITMAP
0000
0000
0000
0000
0800
4900
2A00
1C00
2A00
4900
0800
0000
0000
0000
0000
ENDCHAR
STARTCHAR plus
ENCODING 43
SWIDTH 714 0
DWIDTH 9 0
BBX 9 15 0 -3
BITMAP
0000
0000
0000
0000
0800
0800
0800
7F00
0800
0800
0800
0000
0000
0000
0000
ENDCHAR
STARTCHAR comma
ENCODING 44
SWIDTH 714 0
DWIDTH 9 0
BBX 9 15 0 -3
BITMAP
0000
0000
0000
0000
0000
0000
0000
0000
0000
0000
0C00
0C00
0400
0400
0800
ENDCHAR
STARTCHAR minus
ENCODING 45
SWIDTH 714 0
DWIDTH 9 0
BBX 9 15 0 -3
BITMAP
0000
0000
0000
0000
0000
0000
0000
7F00
0000
0000
0000
0000
0000
0000
0000
ENDCHAR
STARTCHAR period
ENCODING 46
SWIDTH 714 0
DWIDTH 9 0
BBX 9 15 0 -3
BITMAP
0000
0000
0000
0000
0000
0000
0000
0000
0000
0000
0C00
0C00
0000
0000
0000
ENDCHAR
STARTCHAR slash
ENCODING 47
SWIDTH 714 0
DWIDTH 9 0
BBX 9 15 0 -3
BITMAP
0000
0000
0100
0200
0200
0400
0800
0800
1000
2000
2000
4000
0000
0000
0000
ENDCHAR
STARTCHAR zero
ENCODING 48
SWIDTH 714 0
DWIDTH 9 0
BBX 9 15 0 -3
BITMAP
0000
0000
1C00
2200
4100
4100
4100
4100
4100
4100
2200
1C00
0000
0000
0000
ENDCHAR
STARTCHAR one
ENCODING 49
SWIDTH 714 0
DWIDTH 9 0
BBX 9 15 0 -3
BITMAP
0000
0000
0800
1800
2800
4800
0800
0800
0800
0800
0800
7F00
0000
0000
0000
ENDCHAR
STARTCHAR two
ENCODING 50
SWIDTH 714 0
DWIDTH 9 0
BBX 9 15 0 -3
BITMAP
0000
0000
3E00
4100
4100
0100
0200
0400
1800
2000
4000
7F00
0000
0000
0000
ENDCHAR
STARTCHAR three
ENCODING 51
SWIDTH 714 0
DWIDTH 9 0
BBX 9 15 0 -3
BITMAP
0000
0000
7F00
0100
0200
0400
0E00
0100
0100
0100
4100
3E00
0000
0000
0000
ENDCHAR
STARTCHAR four
ENCODING 52
SWIDTH 714 0
DWIDTH 9 0
BBX 9 15 0 -3
BITMAP
0000
0000
0200
0600
0A00
1200
2200
4200
7F00
0200
0200
0200
0000
0000
0000
ENDCHAR
STARTCHAR five
ENCODING 53
SWIDTH 714 0
DWIDTH 9 0
BBX 9 15 0 -3
BITMAP
0000
0000
7F00
4000
4000
5E00
6100
0100
0100
0100
4100
3E00
0000
0000
0000
ENDCHAR
STARTCHAR six
ENCODING 54
SWIDTH 714 0
DWIDTH 9 0
BBX 9 15 0 -3
BITMAP
0000
0000
1E00
2000
4000
4000
5E00
6100
4100
4100
4100
3E00
0000
0000
0000
ENDCHAR
STARTCHAR seven
ENCODING 55
SWIDTH 714 0
DWIDTH 9 0
BBX 9 15 0 -3
BITMAP
0000
0000
7F00
0100
0100
0200
0400
0800
1000
1000
2000
2000
0000
0000
0000
ENDCHAR
STARTCHAR eight
ENCODING 56
SWIDTH 714 0
DWIDTH 9 0
BBX 9 15 0 -3
BITMAP
0000
0000
1C00
2200
4100
2200
1C00
2200
4100
4100
2200
1C00
0000
0000
0000
ENDCHAR
STARTCHAR nine
ENCODING 57
SWIDTH 714 0
DWIDTH 9 0
BBX 9 15 0 -3
BITMAP
0000
0000
3E00
4100
4100
4100
4300
3D00
0100
0100
0200
3C00
0000
0000
0000
ENDCHAR
STARTCHAR colon
ENCODING 58
SWIDTH 714 0
DWIDTH 9 0
BBX 9 15 0 -3
BITMAP
0000
0000
0000
0000
0000
0C00
0C00
0000
0000
0000
0C00
0C00
0000
0000
0000
ENDCHAR
STARTCHAR semicolon
ENCODING 59
SWIDTH 714 0
DWIDTH 9 0
BBX 9 15 0 -3
BITMAP
0000
0000
0000
0000
0000
0C00
0C00
0000
0000
0000
0C00
0C00
0400
0400
0800
ENDCHAR
STARTCHAR less
ENCODING 60
SWIDTH 714 0
DWIDTH 9 0
BBX 9 15 0 -3
BITMAP
0000
0000
0200
0400
0800
1000
2000
2000
1000
0800
0400
0200
0000
0000
0000
ENDCHAR
STARTCHAR equal
ENCODING 61
SWIDTH 714 0
DWIDTH 9 0
BBX 9 15 0 -3
BITMAP
0000
0000
0000
0000
0000
0000
7F00
0000
0000
7F00
0000
0000
0000
0000
0000
ENDCHAR
STARTCHAR greater
ENCODING 62
SWIDTH 714 0
DWIDTH 9 0
BBX 9 15 0 -3
BITMAP
0000
0000
2000
1000
0800
0400
0200
0200
0400
0800
1000
2000
0000
0000
0000
ENDCHAR
STARTCHAR question
ENCODING 63
SWIDTH 714 0
DWIDTH 9 0
BBX 9 15 0 -3
BITMAP
0000
0000
3E00
4100
4100
0100
0200
0400
0800
0800
0000
0800
0000
0000
0000
ENDCHAR
STARTCHAR at
ENCODING 64
SWIDTH 714 0
DWIDTH 9 0
BBX 9 15 0 -3
BITMAP
0000
0000
3E00
4100
4100
4F00
5100
5300
4D00
4000
4000
3E00
0000
0000
0000
ENDCHAR
STARTCHAR A
ENCODING 65
SWIDTH 714 0
DWIDTH 9 0
BBX 9 15 0 -3
BITMAP
0000
0000
0800
1400
2200
4100
4100
4100
7F00
4100
4100
4100
0000
0000
0000
ENDCHAR
STARTCHAR B
ENCODING 66
SWIDTH 714 0
DWIDTH 9 0
BBX 9 15 0 -3
BITMAP
0000
0000
7E00
2100
2100
2100
3E00
2100
2100
2100
2100
7E00
0000
0000
0000
ENDCHAR
STARTCHAR C
ENCODING 67
SWIDTH 714 0
DWIDTH 9 0
BBX 9 15 0 -3
BITMAP
0000
0000
3E00
4100
4000
4000
4000
4000
4000
4000
4100
3E00
0000
0000
0000
ENDCHAR
STARTCHAR D
ENCODING 68
SWIDTH 714 0
DWIDTH 9 0
BBX 9 15 0 -3
BITMAP
0000
0000
7E00
2100
2100
2100
2100
2100
2100
2100
2100
7E00
0000
0000
0000
ENDCHAR
STARTCHAR E
ENCODING 69
SWIDTH 714 0
DWIDTH 9 0
BBX 9 15 0 -3
BITMAP
0000
0000
7F00
2000
2000
2000
3C00
2000
2000
2000
2000
7F00
0000
0000
0000
ENDCHAR
STARTCHAR F
ENCODING 70
SWIDTH 714 0
DWIDTH 9 0
BBX 9 15 0 -3
BITMAP
0000
0000
7F00
2000
2000
2000
3C00
2000
2000
2000
2000
2000
0000
0000
0000
ENDCHAR
STARTCHAR G
ENCODING 71
SWIDTH 714 0
DWIDTH 9 0
BBX 9 15 0 -3
BITMAP
0000
0000
3E00
4100
4000
4000
4000
4700
4100
4100
4100
3E00
0000
0000
0000
ENDCHAR
STARTCHAR H
ENCODING 72
SWIDTH 714 0
DWIDTH 9 0
BBX 9 15 0 -3
BITMAP
0000
0000
4100
4100
4100
4100
7F00
4100
4100
4100
4100
4100
0000
0000
0000
ENDCHAR
STARTCHAR I
ENCODING 73
SWIDTH 714 0
DWIDTH 9 0
BBX 9 15 0 -3
BITMAP
0000
0000
3E00
0800
0800
0800
0800
0800
0800
0800
0800
3E00
0000
0000
0000
ENDCHAR
STARTCHAR J
ENCODING 74
SWIDTH 714 0
DWIDTH 9 0
BBX 9 15 0 -3
BITMAP
0000
0000
0F00
0200
0200
0200
0200
0200
0200
0200
4200
3C00
0000
0000
0000
ENDCHAR
STARTCHAR K
ENCODING 75
SWIDTH 714 0
DWIDTH 9 0
BBX 9 15 0 -3
BITMAP
0000
0000
4100
4200
4400
4800
7000
5000
4800
4400
4200
4100
0000
0000
0000
ENDCHAR
STARTCHAR L
ENCODING 76
SWIDTH 714 0
DWIDTH 9 0
BBX 9 15 0 -3
BITMAP
0000
0000
4000
4000
4000
4000
4000
4000
4000
4000
4000
7F00
0000
0000
0000
ENDCHAR
STARTCHAR M
ENCODING 77
SWIDTH 714 0
DWIDTH 9 0
BBX 9 15 0 -3
BITMAP
0000
0000
4100
4100
6300
5500
5500
4900
4900
4100
4100
4100
0000
0000
0000
ENDCHAR
STARTCHAR N
ENCODING 78
SWIDTH 714 0
DWIDTH 9 0
BBX 9 15 0 -3
BITMAP
0000
0000
4100
4100
6100
5100
4900
4500
4300
4100
4100
4100
0000
0000
0000
ENDCHAR
STARTCHAR O
ENCODING 79
SWIDTH 714 0
DWIDTH 9 0
BBX 9 15 0 -3
BITMAP
0000
0000
3E00
4100
4100
4100
4100
4100
4100
4100
4100
3E00
0000
0000
0000
ENDCHAR
STARTCHAR P
ENCODING 80
SWIDTH 714 0
DWIDTH 9 0
BBX 9 15 0 -3
BITMAP
0000
0000
7E00
4100
4100
4100
7E00
4000
4000
4000
4000
4000
0000
0000
0000
ENDCHAR
STARTCHAR Q
ENCODING 81
SWIDTH 714 0
DWIDTH 9 0
BBX 9 15 0 -3
BITMAP
0000
0000
3E00
4100
4100
4100
4100
4100
4100
5100
4900
3E00
0400
0300
0000
ENDCHAR
STARTCHAR R
ENCODING 82
SWIDTH 714 0
DWIDTH 9 0
BBX 9 15 0 -3
BITMAP
0000
0000
7E00
4100
4100
4100
7E00
4800
4400
4200
4100
4100
0000
0000
0000
ENDCHAR
STARTCHAR S
ENCODING 83
SWIDTH 714 0
DWIDTH 9 0
BBX 9 15 0 -3
BITMAP
0000
0000
3E00
4100
4100
4000
3800
0600
0100
4100
4100
3E00
0000
0000
0000
ENDCHAR
STARTCHAR T
ENCODING 84
SWIDTH 714 0
DWIDTH 9 0
BBX 9 15 0 -3
BITMAP
0000
0000
7F00
0800
0800
0800
0800
0800
0800
0800
0800
0800
0000
0000
0000
ENDCHAR
STARTCHAR U
ENCODING 85
SWIDTH 714 0
DWIDTH 9 0
BBX 9 15 0 -3
BITMAP
0000
0000
4100
4100
4100
4100
4100
4100
4100
4100
4100
3E00
0000
0000
0000
ENDCHAR
STARTCHAR V
ENCODING 86
SWIDTH 714 0
DWIDTH 9 0
BBX 9 15 0 -3
BITMAP
0000
0000
4100
4100
4100
2200
2200
2200
1400
1400
1400
0800
0000
0000
0000
ENDCHAR
STARTCHAR W
ENCODING 87
SWIDTH 714 0
DWIDTH 9 0
BBX 9 15 0 -3
BITMAP
0000
0000
4100
4100
4100
4100
4900
4900
4900
4900
5500
2200
0000
0000
0000
ENDCHAR
STARTCHAR X
ENCODING 88
SWIDTH 714 0
DWIDTH 9 0
BBX 9 15 0 -3
BITMAP
0000
0000
4100
4100
2200
1400
0800
0800
1400
2200
4100
4100
0000
0000
0000
ENDCHAR
STARTCHAR Y
ENCODING 89
SWIDTH 714 0
DWIDTH 9 0
BBX 9 15 0 -3
BITMAP
0000
0000
4100
4100
2200
1400
0800
0800
0800
0800
0800
0800
0000
0000
0000
ENDCHAR
STARTCHAR Z
ENCODING 90
SWIDTH 714 0
DWIDTH 9 0
BBX 9 15 0 -3
BITMAP
0000
0000
7F00
0100
0200
0400
0800
1000
2000
4000
4000
7F00
0000
0000
0000
ENDCHAR
STARTCHAR bracketleft
ENCODING 91
SWIDTH 714 0
DWIDTH 9 0
BBX 9 15 0 -3
BITMAP
0000
1E00
1000
1000
1000
1000
1000
1000
1000
1000
1000
1000
1E00
0000
0000
ENDCHAR
STARTCHAR backslash
ENCODING 92
SWIDTH 714 0
DWIDTH 9 0
BBX 9 15 0 -3
BITMAP
0000
0000
4000
2000
2000
1000
0800
0800
0400
0200
0200
0100
0000
0000
0000
ENDCHAR
STARTCHAR bracketright
ENCODING 93
SWIDTH 714 0
DWIDTH 9 0
BBX 9 15 0 -3
BITMAP
0000
3C00
0400
0400
0400
0400
0400
0400
0400
0400
0400
0400
3C00
0000
0000
ENDCHAR
STARTCHAR asciicircum
ENCODING 94
SWIDTH 714 0
DWIDTH 9 0
BBX 9 15 0 -3
BITMAP
0000
0000
0800
1400
2200
4100
0000
0000
0000
0000
0000
0000
0000
0000
0000
ENDCHAR
STARTCHAR underscore
ENCODING 95
SWIDTH 714 0
DWIDTH 9 0
BBX 9 15 0 -3
BITMAP
0000
0000
0000
0000
0000
0000
0000
0000
0000
0000
0000
0000
FF00
0000
0000
ENDCHAR
STARTCHAR grave
ENCODING 96
SWIDTH 714 0
DWIDTH 9 0
BBX 9 15 0 -3
BITMAP
0000
1000
0C00
0000
0000
0000
0000
0000
0000
0000
0000
0000
0000
0000
0000
ENDCHAR
STARTCHAR a
ENCODING 97
SWIDTH 714 0
DWIDTH 9 0
BBX 9 15 0 -3
BITMAP
0000
0000
0000
0000
0000
3E00
0100
0100
3F00
4100
4300
3D00
0000
0000
0000
ENDCHAR
STARTCHAR b
ENCODING 98
SWIDTH 714 0
DWIDTH 9 0
BBX 9 15 0 -3
BITMAP
0000
0000
4000
4000
4000
5E00
6100
4100
4100
4100
6100
5E00
0000
0000
0000
ENDCHAR
STARTCHAR c
ENCODING 99
SWIDTH 714 0
DWIDTH 9 0
BBX 9 15 0 -3
BITMAP
0000
0000
0000
0000
0000
3E00
4100
4000
4000
4000
4100
3E00
0000
0000
0000
ENDCHAR
STARTCHAR d
ENCODING 100
SWIDTH 714 0
DWIDTH 9 0
BBX 9 15 0 -3
BITMAP
0000
0000
0100
0100
0100
3D00
4300
4100
4100
4100
4300
3D00
0000
0000
0000
ENDCHAR
STARTCHAR e
ENCODING 101
SWIDTH 714 0
DWIDTH 9 0
BBX 9 15 0 -3
BITMAP
0000
0000
0000
0000
0000
3E00
4100
4100
7F00
4000
4000
3E00
0000
0000
0000
ENDCHAR
STARTCHAR f
ENCODING 102
SWIDTH 714 0
DWIDTH 9 0
BBX 9 15 0 -3
BITMAP
0000
0000
0E00
1100
1100
1000
1000
7C00
1000
1000
1000
1000
0000
0000
0000
ENDCHAR
STARTCHAR g
ENCODING 103
SWIDTH 714 0
DWIDTH 9 0
BBX 9 15 0 -3
BITMAP
0000
0000
0000
0000
0000
3D00
4200
4200
4200
3C00
4000
3E00
4100
4100
3E00
ENDCHAR
STARTCHAR h
ENCODING 104
SWIDTH 714 0
DWIDTH 9 0
BBX 9 15 0 -3
BITMAP
0000
0000
4000
4000
4000
5E00
6100
4100
4100
4100
4100
4100
0000
0000
0000
ENDCHAR
STARTCHAR i
ENCODING 105
SWIDTH 714 0
DWIDTH 9 0
BBX 9 15 0 -3
BITMAP
0000
0000
1800
0000
0000
3800
0800
0800
0800
0800
0800
3E00
0000
0000
0000
ENDCHAR
STARTCHAR j
ENCODING 106
SWIDTH 714 0
DWIDTH 9 0
BBX 9 15 0 -3
BITMAP
0000
0000
0600
0000
0000
0E00
0200
0200
0200
0200
0200
4200
4200
4200
3C00
ENDCHAR
STARTCHAR k
ENCODING 107
SWIDTH 714 0
DWIDTH 9 0
BBX 9 15 0 -3
BITMAP
0000
0000
4000
4000
4000
4100
4600
5800
6000
5800
4600
4100
0000
0000
0000
ENDCHAR
STARTCHAR l
ENCODING 108
SWIDTH 714 0
DWIDTH 9 0
BBX 9 15 0 -3
BITMAP
0000
0000
3800
0800
0800
0800
0800
0800
0800
0800
0800
3E00
0000
0000
0000
ENDCHAR
STARTCHAR m
ENCODING 109
SWIDTH 714 0
DWIDTH 9 0
BBX 9 15 0 -3
BITMAP
0000
0000
0000
0000
0000
7600
4900
4900
4900
4900
4900
4100
0000
0000
0000
ENDCHAR
STARTCHAR n
ENCODING 110
SWIDTH 714 0
DWIDTH 9 0
BBX 9 15 0 -3
BITMAP
0000
0000
0000
0000
0000
5E00
6100
4100
4100
4100
4100
4100
0000
0000
0000
ENDCHAR
STARTCHAR o
ENCODING 111
SWIDTH 714 0
DWIDTH 9 0
BBX 9 15 0 -3
BITMAP
0000
0000
0000
0000
0000
3E00
4100
4100
4100
4100
4100
3E00
0000
0000
0000
ENDCHAR
STARTCHAR p
ENCODING 112
SWIDTH 714 0
DWIDTH 9 0
BBX 9 15 0 -3
BITMAP
0000
0000
0000
0000
0000
5E00
6100
4100
4100
4100
6100
5E00
4000
4000
4000
ENDCHAR
STARTCHAR q
ENCODING 113
SWIDTH 714 0
DWIDTH 9 0
BBX 9 15 0 -3
BITMAP
0000
0000
0000
0000
0000
3D00
4300
4100
4100
4100
4300
3D00
0100
0100
0100
ENDCHAR
STARTCHAR r
ENCODING 114
SWIDTH 714 0
DWIDTH 9 0
BBX 9 15 0 -3
BITMAP
0000
0000
0000
0000
0000
4E00
3100
2100
2000
2000
2000
2000
0000
0000
0000
ENDCHAR
STARTCHAR s
ENCODING 115
SWIDTH 714 0
DWIDTH 9 0
BBX 9 15 0 -3
BITMAP
0000
0000
0000
0000
0000
3E00
4100
4000
3E00
0100
4100
3E00
0000
0000
0000
ENDCHAR
STARTCHAR t
ENCODING 116
SWIDTH 714 0
DWIDTH 9 0
BBX 9 15 0 -3
BITMAP
0000
0000
0000
1000
1000
7E00
1000
1000
1000
1000
1100
0E00
0000
0000
0000
ENDCHAR
STARTCHAR u
ENCODING 117
SWIDTH 714 0
DWIDTH 9 0
BBX 9 15 0 -3
BITMAP
0000
0000
0000
0000
0000
4200
4200
4200
4200
4200
4200
3D00
0000
0000
0000
ENDCHAR
STARTCHAR v
ENCODING 118
SWIDTH 714 0
DWIDTH 9 0
BBX 9 15 0 -3
BITMAP
0000
0000
0000
0000
0000
4100
4100
2200
2200
1400
1400
0800
0000
0000
0000
ENDCHAR
STARTCHAR w
ENCODING 119
SWIDTH 714 0
DWIDTH 9 0
BBX 9 15 0 -3
BITMAP
0000
0000
0000
0000
0000
4100
4100
4900
4900
4900
5500
2200
0000
0000
0000
ENDCHAR
STARTCHAR x
ENCODING 120
SWIDTH 714 0
DWIDTH 9 0
BBX 9 15 0 -3
BITMAP
0000
0000
0000
0000
0000
4100
2200
1400
0800
1400
2200
4100
0000
0000
0000
ENDCHAR
STARTCHAR y
ENCODING 121
SWIDTH 714 0
DWIDTH 9 0
BBX 9 15 0 -3
BITMAP
0000
0000
0000
0000
0000
4200
4200
4200
4200
4200
4600
3A00
0200
4200
3C00
ENDCHAR
STARTCHAR z
ENCODING 122
SWIDTH 714 0
DWIDTH 9 0
BBX 9 15 0 -3
BITMAP
0000
0000
0000
0000
0000
7F00
0200
0400
0800
1000
2000
7F00
0000
0000
0000
ENDCHAR
STARTCHAR braceleft
ENCODING 123
SWIDTH 714 0
DWIDTH 9 0
BBX 9 15 0 -3
BITMAP
0000
0700
0800
0800
0800
0400
1800
1800
0400
0800
0800
0800
0700
0000
0000
ENDCHAR
STARTCHAR bar
ENCODING 124
SWIDTH 714 0
DWIDTH 9 0
BBX 9 15 0 -3
BITMAP
0000
0800
0800
0800
0800
0800
0800
0800
0800
0800
0800
0800
0800
0000
0000
ENDCHAR
STARTCHAR braceright
ENCODING 125
SWIDTH 714 0
DWIDTH 9 0
BBX 9 15 0 -3
BITMAP
0000
7000
0800
0800
0800
1000
0C00
0C00
1000
0800
0800
0800
7000
0000
0000
ENDCHAR
STARTCHAR asciitilde
ENCODING 126
SWIDTH 714 0
DWIDTH 9 0
BBX 9 15 0 -3
BITMAP
0000
0000
3100
4900
4600
0000
0000
0000
0000
0000
0000
0000
0000
0000
0000
ENDCHAR
STARTCHAR delete
ENCODING 127
SWIDTH 714 0
DWIDTH 9 0
BBX 9 15 0 -3
BITMAP
0000
0000
0000
0000
0000
0000
0000
0000
0000
0000
0000
0000
0000
0000
0000
ENDCHAR
STARTCHAR afii10051
ENCODING 128
SWIDTH 714 0
DWIDTH 9 0
BBX 9 15 0 -3
BITMAP
0000
0000
F800
4000
4000
4000
7E00
4100
4100
4100
4100
4E00
0000
0000
0000
ENDCHAR
STARTCHAR afii10052
ENCODING 129
SWIDTH 714 0
DWIDTH 9 0
BBX 9 15 0 -3
BITMAP
0000
0400
1800
0000
7F00
4000
4000
4000
4000
4000
4000
4000
0000
0000
0000
ENDCHAR
STARTCHAR quotesinglbase
ENCODING 130
SWIDTH 714 0
DWIDTH 9 0
BBX 9 15 0 -3
BITMAP
0000
0000
0000
0000
0000
0000
0000
0000
0000
0000
0C00
0800
1000
2000
0000
ENDCHAR
STARTCHAR afii10100
ENCODING 131
SWIDTH 714 0
DWIDTH 9 0
BBX 9 15 0 -3
BITMAP
0000
0400
1800
0000
0000
3F00
2000
2000
2000
2000
2000
2000
0000
0000
0000
ENDCHAR
STARTCHAR quotedblbase
ENCODING 132
SWIDTH 714 0
DWIDTH 9 0
BBX 9 15 0 -3
BITMAP
0000
0000
0000
0000
0000
0000
0000
0000
0000
0000
1B00
1200
2400
4800
0000
ENDCHAR
STARTCHAR ellipsis
ENCODING 133
SWIDTH 714 0
DWIDTH 9 0
BBX 9 15 0 -3
BITMAP
0000
0000
0000
0000
0000
0000
0000
0000
0000
0000
DB00
DB00
0000
0000
0000
ENDCHAR
STARTCHAR dagger
ENCODING 134
SWIDTH 714 0
DWIDTH 9 0
BBX 9 15 0 -3
BITMAP
0000
0800
0800
0800
3E00
0800
0800
0800
0800
0800
0800
0800
0800
0000
0000
ENDCHAR
STARTCHAR daggerdbl
ENCODING 135
SWIDTH 714 0
DWIDTH 9 0
BBX 9 15 0 -3
BITMAP
0000
0800
0800
0800
3E00
0800
0800
0800
3E00
0800
0800
0800
0800
0000
0000
ENDCHAR
STARTCHAR Euro
ENCODING 136
SWIDTH 714 0
DWIDTH 9 0
BBX 9 15 0 -3
BITMAP
0000
0000
1E00
2100
2000
7C00
2000
7800
2000
2000
2100
1E00
0000
0000
0000
ENDCHAR
STARTCHAR perthousand
ENCODING 137
SWIDTH 714 0
DWIDTH 9 0
BBX 9 15 0 -3
BITMAP
0000
0000
3000
4800
4880
3300
0C00
3000
DB00
2480
2480
1B00
0000
0000
0000
ENDCHAR
STARTCHAR afii10058
ENCODING 138
SWIDTH 714 0
DWIDTH 9 0
BBX 9 15 0 -3
BITMAP
0000
0000
3800
4800
4800
4800
4E00
4900
4900
4900
4900
4E00
0000
0000
0000
ENDCHAR
STARTCHAR guilsinglleft
ENCODING 139
SWIDTH 714 0
DWIDTH 9 0
BBX 9 15 0 -3
BITMAP
0000
0000
0000
0400
0800
1000
2000
2000
1000
0800
0400
0000
0000
0000
0000
ENDCHAR
STARTCHAR afii10059
ENCODING 140
SWIDTH 714 0
DWIDTH 9 0
BBX 9 15 0 -3
BITMAP
0000
0000
4800
4800
4800
4800
7E00
4900
4900
4900
4900
4E00
0000
0000
0000
ENDCHAR
STARTCHAR afii10061
ENCODING 141
SWIDTH 714 0
DWIDTH 9 0
BBX 9 15 0 -3
BITMAP
0000
0400
1800
0000
4100
4200
4400
7800
4800
4400
4200
4100
0000
0000
0000
ENDCHAR
STARTCHAR afii10060
ENCODING 142
SWIDTH 714 0
DWIDTH 9 0
BBX 9 15 0 -3
BITMAP
0000
0000
F800
4000
4000
4000
7E00
4100
4100
4100
4100
4100
0000
0000
0000
ENDCHAR
STARTCHAR afii10145
ENCODING 143
SWIDTH 714 0
DWIDTH 9 0
BBX 9 15 0 -3
BITMAP
0000
0000
4100
4100
4100
4100
4100
4100
4100
4100
4100
7F00
0800
0800
0000
ENDCHAR
STARTCHAR afii10099
ENCODING 144
SWIDTH 714 0
DWIDTH 9 0
BBX 9 15 0 -3
BITMAP
0000
0000
4000
F800
4000
5E00
6100
4100
4100
4100
4100
4100
0100
0100
0E00
ENDCHAR
STARTCHAR quoteleft
ENCODING 145
SWIDTH 714 0
DWIDTH 9 0
BBX 9 15 0 -3
BITMAP
0000
0000
1800
0800
0400
0200
0000
0000
0000
0000
0000
0000
0000
0000
0000
ENDCHAR
STARTCHAR quoteright
ENCODING 146
SWIDTH 714 0
DWIDTH 9 0
BBX 9 15 0 -3
BITMAP
0000
0000
0600
0400
0800
1000
0000
0000
0000
0000
0000
0000
0000
0000
0000
ENDCHAR
STARTCHAR quotedblleft
ENCODING 147
SWIDTH 714 0
DWIDTH 9 0
BBX 9 15 0 -3
BITMAP
0000
0000
0900
1200
2400
6C00
0000
0000
0000
0000
0000
0000
0000
0000
0000
ENDCHAR
STARTCHAR quotedblright
ENCODING 148
SWIDTH 714 0
DWIDTH 9 0
BBX 9 15 0 -3
BITMAP
0000
0000
1B00
1200
2400
4800
0000
0000
0000
0000
0000
0000
0000
0000
0000
ENDCHAR
STARTCHAR bullet
ENCODING 149
SWIDTH 714 0
DWIDTH 9 0
BBX 9 15 0 -3
BITMAP
0000
0000
0000
0000
1C00
3E00
3E00
3E00
1C00
0000
0000
0000
0000
0000
0000
ENDCHAR
STARTCHAR endash
ENCODING 150
SWIDTH 714 0
DWIDTH 9 0
BBX 9 15 0 -3
BITMAP
0000
0000
0000
0000
0000
0000
0000
7F00
0000
0000
0000
0000
0000
0000
0000
ENDCHAR
STARTCHAR emdash
ENCODING 151
SWIDTH 714 0
DWIDTH 9 0
BBX 9 15 0 -3
BITMAP
0000
0000
0000
0000
0000
0000
0000
FF00
0000
0000
0000
0000
0000
0000
0000
ENDCHAR
STARTCHAR trademark
ENCODING 153
SWIDTH 714 0
DWIDTH 9 0
BBX 9 15 0 -3
BITMAP
0000
0000
FB00
5500
5500
5100
5100
0000
0000
0000
0000
0000
0000
0000
0000
ENDCHAR
STARTCHAR afii10106
ENCODING 154
SWIDTH 714 0
DWIDTH 9 0
BBX 9 15 0 -3
BITMAP
0000
0000
0000
0000
0000
3800
4800
4800
4E00
4900
4900
4E00
0000
0000
0000
ENDCHAR
STARTCHAR guilsinglright
ENCODING 155
SWIDTH 714 0
DWIDTH 9 0
BBX 9 15 0 -3
BITMAP
0000
0000
0000
2000
1000
0800
0400
0400
0800
1000
2000
0000
0000
0000
0000
ENDCHAR
STARTCHAR afii10107
ENCODING 156
SWIDTH 714 0
DWIDTH 9 0
BBX 9 15 0 -3
BITMAP
0000
0000
0000
0000
0000
4800
4800
4800
7E00
4900
4900
4E00
0000
0000
0000
ENDCHAR
STARTCHAR afii10109
ENCODING 157
SWIDTH 714 0
DWIDTH 9 0
BBX 9 15 0 -3
BITMAP
0000
0400
1800
0000
0000
4100
4600
5800
6000
5800
4600
4100
0000
0000
0000
ENDCHAR
STARTCHAR afii10108
ENCODING 158
SWIDTH 714 0
DWIDTH 9 0
BBX 9 15 0 -3
BITMAP
0000
0000
4000
F800
4000
5E00
6100
4100
4100
4100
4100
4100
0000
0000
0000
ENDCHAR
STARTCHAR afii10193
ENCODING 159
SWIDTH 714 0
DWIDTH 9 0
BBX 9 15 0 -3
BITMAP
0000
0000
0000
0000
0000
4100
4100
4100
4100
4100
4100
7F00
0800
0800
0000
ENDCHAR
STARTCHAR space
ENCODING 160
SWIDTH 714 0
DWIDTH 9 0
BBX 9 15 0 -3
BITMAP
0000
0000
0000
0000
0000
0000
0000
0000
0000
0000
0000
0000
0000
0000
0000
ENDCHAR
STARTCHAR afii10062
ENCODING 161
SWIDTH 714 0
DWIDTH 9 0
BBX 9 15 0 -3
BITMAP
0000
1C00
4100
4100
4100
4100
4100
3F00
0100
0100
4100
3E00
0000
0000
0000
ENDCHAR
STARTCHAR afii10110
ENCODING 162
SWIDTH 714 0
DWIDTH 9 0
BBX 9 15 0 -3
BITMAP
0000
0000
0000
3C00
0000
4200
4200
4200
4200
4200
4600
3A00
0200
4200
3C00
ENDCHAR
STARTCHAR afii10057
ENCODING 163
SWIDTH 714 0
DWIDTH 9 0
BBX 9 15 0 -3
BITMAP
0000
0000
0F00
0200
0200
0200
0200
0200
0200
0200
4200
3C00
0000
0000
0000
ENDCHAR
STARTCHAR currency
ENCODING 164
SWIDTH 714 0
DWIDTH 9 0
BBX 9 15 0 -3
BITMAP
0000
0000
0000
4100
3E00
2200
2200
3E00
4100
0000
0000
0000
0000
0000
0000
ENDCHAR
STARTCHAR afii10050
ENCODING 165
SWIDTH 714 0
DWIDTH 9 0
BBX 9 15 0 -3
BITMAP
0000
0100
0100
7F00
4000
4000
4000
4000
4000
4000
4000
4000
0000
0000
0000
ENDCHAR
STARTCHAR brokenbar
ENCODING 166
SWIDTH 714 0
DWIDTH 9 0
BBX 9 15 0 -3
BITMAP
0000
0000
0800
0800
0800
0800
0800
0000
0800
0800
0800
0800
0800
0000
0000
ENDCHAR
STARTCHAR section
ENCODING 167
SWIDTH 714 0
DWIDTH 9 0
BBX 9 15 0 -3
BITMAP
0000
0000
1C00
2200
2000
1C00
2200
2200
2200
1C00
0200
2200
1C00
0000
0000
ENDCHAR
STARTCHAR afii10023
ENCODING 168
SWIDTH 714 0
DWIDTH 9 0
BBX 9 15 0 -3
BITMAP
0000
1400
1400
0000
7f00
2000
2000
3c00
2000
2000
2000
7f00
0000
0000
0000
ENDCHAR
STARTCHAR copyright
ENCODING 169
SWIDTH 714 0
DWIDTH 9 0
BBX 9 15 0 -3
BITMAP
0000
0000
3C00
4200
9900
A500
A100
A500
9900
4200
3C00
0000
0000
0000
0000
ENDCHAR
STARTCHAR afii10053
ENCODING 170
SWIDTH 714 0
DWIDTH 9 0
BBX 9 15 0 -3
BITMAP
0000
0000
3E00
4100
4000
4000
7800
4000
4000
4000
4100
3E00
0000
0000
0000
ENDCHAR
STARTCHAR guillemotleft
ENCODING 171
SWIDTH 714 0
DWIDTH 9 0
BBX 9 15 0 -3
BITMAP
0000
0000
0000
0900
1200
2400
4800
4800
2400
1200
0900
0000
0000
0000
0000
ENDCHAR
STARTCHAR logicalnot
ENCODING 172
SWIDTH 714 0
DWIDTH 9 0
BBX 9 15 0 -3
BITMAP
0000
0000
0000
0000
0000
0000
7E00
0200
0200
0200
0000
0000
0000
0000
0000
ENDCHAR
STARTCHAR hyphen
ENCODING 173
SWIDTH 714 0
DWIDTH 9 0
BBX 9 15 0 -3
BITMAP
0000
0000
0000
0000
0000
0000
0000
7E00
0000
0000
0000
0000
0000
0000
0000
ENDCHAR
STARTCHAR registered
ENCODING 174
SWIDTH 714 0
DWIDTH 9 0
BBX 9 15 0 -3
BITMAP
0000
0000
3C00
4200
B900
A500
BD00
A900
A500
4200
3C00
0000
0000
0000
0000
ENDCHAR
STARTCHAR afii10056
ENCODING 175
SWIDTH 714 0
DWIDTH 9 0
BBX 9 15 0 -3
BITMAP
0000
1400
1400
0000
3e00
0800
0800
0800
0800
0800
0800
3e00
0000
0000
0000
ENDCHAR
STARTCHAR degree
ENCODING 176
SWIDTH 714 0
DWIDTH 9 0
BBX 9 15 0 -3
BITMAP
0000
0000
0C00
1200
1200
0C00
0000
0000
0000
0000
0000
0000
0000
0000
0000
ENDCHAR
STARTCHAR plusminus
ENCODING 177
SWIDTH 714 0
DWIDTH 9 0
BBX 9 15 0 -3
BITMAP
0000
0000
0800
0800
0800
7F00
0800
0800
0800
0000
7F00
0000
0000
0000
0000
ENDCHAR
STARTCHAR afii10055
ENCODING 178
SWIDTH 714 0
DWIDTH 9 0
BBX 9 15 0 -3
BITMAP
0000
0000
3E00
0800
0800
0800
0800
0800
0800
0800
0800
3E00
0000
0000
0000
ENDCHAR
STARTCHAR afii10103
ENCODING 179
SWIDTH 714 0
DWIDTH 9 0
BBX 9 15 0 -3
BITMAP
0000
0000
1800
0000
0000
3800
0800
0800
0800
0800
0800
3E00
0000
0000
0000
ENDCHAR
STARTCHAR afii10098
ENCODING 180
SWIDTH 714 0
DWIDTH 9 0
BBX 9 15 0 -3
BITMAP
0000
0000
0000
0100
0100
3F00
2000
2000
2000
2000
2000
2000
0000
0000
0000
ENDCHAR
STARTCHAR mu
ENCODING 181
SWIDTH 714 0
DWIDTH 9 0
BBX 9 15 0 -3
BITMAP
0000
0000
0000
0000
0000
4100
4100
4100
4100
4100
6300
5D00
4000
4000
0000
ENDCHAR
STARTCHAR paragraph
ENCODING 182
SWIDTH 714 0
DWIDTH 9 0
BBX 9 15 0 -3
BITMAP
0000
0000
3F00
4500
4500
4500
3D00
0500
0500
0500
0500
0500
0000
0000
0000
ENDCHAR
STARTCHAR periodcentered
ENCODING 183
SWIDTH 714 0
DWIDTH 9 0
BBX 9 15 0 -3
BITMAP
0000
0000
0000
0000
0000
0000
0C00
0C00
0000
0000
0000
0000
0000
0000
0000
ENDCHAR
STARTCHAR afii10071
ENCODING 184
SWIDTH 714 0
DWIDTH 9 0
BBX 9 15 0 -3
BITMAP
0000
1400
1400
0000
0000
3e00
4100
4100
7f00
4000
4000
3e00
0000
0000
0000
ENDCHAR
STARTCHAR afii61352
ENCODING 185
SWIDTH 714 0
DWIDTH 9 0
BBX 9 15 0 -3
BITMAP
0000
0000
4400
4400
6400
6400
5400
5700
4F00
4C00
4700
4400
0000
0000
0000
ENDCHAR
STARTCHAR afii10101
ENCODING 186
SWIDTH 714 0
DWIDTH 9 0
BBX 9 15 0 -3
BITMAP
0000
0000
0000
0000
0000
3E00
4100
4000
7C00
4000
4100
3E00
0000
0000
0000
ENDCHAR
STARTCHAR guillemotright
ENCODING 187
SWIDTH 714 0
DWIDTH 9 0
BBX 9 15 0 -3
BITMAP
0000
0000
0000
4800
2400
1200
0900
0900
1200
2400
4800
0000
0000
0000
0000
ENDCHAR
STARTCHAR afii10105
ENCODING 188
SWIDTH 714 0
DWIDTH 9 0
BBX 9 15 0 -3
BITMAP
0000
0000
0600
0000
0000
0E00
0200
0200
0200
0200
0200
4200
4200
4200
3C00
ENDCHAR
STARTCHAR afii10054
ENCODING 189
SWIDTH 714 0
DWIDTH 9 0
BBX 9 15 0 -3
BITMAP
0000
0000
3E00
4100
4100
4000
3800
0600
0100
4100
4100
3E00
0000
0000
0000
ENDCHAR
STARTCHAR afii10102
ENCODING 190
SWIDTH 714 0
DWIDTH 9 0
BBX 9 15 0 -3
BITMAP
0000
0000
0000
0000
0000
3E00
4100
4000
3E00
0100
4100
3E00
0000
0000
0000
ENDCHAR
STARTCHAR afii10104
ENCODING 191
SWIDTH 714 0
DWIDTH 9 0
BBX 9 15 0 -3
BITMAP
0000
1400
1400
0000
0000
3800
0800
0800
0800
0800
0800
3e00
0000
0000
0000
ENDCHAR
STARTCHAR afii10017
ENCODING 192
SWIDTH 714 0
DWIDTH 9 0
BBX 9 15 0 -3
BITMAP
0000
0000
0800
1400
2200
4100
4100
4100
7F00
4100
4100
4100
0000
0000
0000
ENDCHAR
STARTCHAR afii10018
ENCODING 193
SWIDTH 714 0
DWIDTH 9 0
BBX 9 15 0 -3
BITMAP
0000
0000
7F00
4000
4000
4000
7E00
4100
4100
4100
4100
7E00
0000
0000
0000
ENDCHAR
STARTCHAR afii10019
ENCODING 194
SWIDTH 714 0
DWIDTH 9 0
BBX 9 15 0 -3
BITMAP
0000
0000
7E00
2100
2100
2100
3E00
2100
2100
2100
2100
7E00
0000
0000
0000
ENDCHAR
STARTCHAR afii10020
ENCODING 195
SWIDTH 714 0
DWIDTH 9 0
BBX 9 15 0 -3
BITMAP
0000
0000
7F00
4000
4000
4000
4000
4000
4000
4000
4000
4000
0000
0000
0000
ENDCHAR
STARTCHAR afii10021
ENCODING 196
SWIDTH 714 0
DWIDTH 9 0
BBX 9 15 0 -3
BITMAP
0000
0000
1E00
2200
2200
2200
2200
2200
2200
2200
2200
7F00
4100
4100
0000
ENDCHAR
STARTCHAR afii10022
ENCODING 197
SWIDTH 714 0
DWIDTH 9 0
BBX 9 15 0 -3
BITMAP
0000
0000
7F00
2000
2000
2000
3C00
2000
2000
2000
2000
7F00
0000
0000
0000
ENDCHAR
STARTCHAR afii10024
ENCODING 198
SWIDTH 714 0
DWIDTH 9 0
BBX 9 15 0 -3
BITMAP
0000
0000
4900
4900
2A00
2A00
1C00
1C00
2A00
2A00
4900
4900
0000
0000
0000
ENDCHAR
STARTCHAR afii10025
ENCODING 199
SWIDTH 714 0
DWIDTH 9 0
BBX 9 15 0 -3
BITMAP
0000
0000
3E00
4100
0100
0100
1E00
0100
0100
0100
4100
3E00
0000
0000
0000
ENDCHAR
STARTCHAR afii10026
ENCODING 200
SWIDTH 714 0
DWIDTH 9 0
BBX 9 15 0 -3
BITMAP
0000
0000
4100
4100
4100
4300
4500
4900
5100
6100
4100
4100
0000
0000
0000
ENDCHAR
STARTCHAR afii10027
ENCODING 201
SWIDTH 714 0
DWIDTH 9 0
BBX 9 15 0 -3
BITMAP
0000
1C00
4100
4100
4100
4300
4500
4900
5100
6100
4100
4100
0000
0000
0000
ENDCHAR
STARTCHAR afii10028
ENCODING 202
SWIDTH 714 0
DWIDTH 9 0
BBX 9 15 0 -3
BITMAP
0000
0000
4100
4200
4400
4800
7000
5000
4800
4400
4200
4100
0000
0000
0000
ENDCHAR
STARTCHAR afii10029
ENCODING 203
SWIDTH 714 0
DWIDTH 9 0
BBX 9 15 0 -3
BITMAP
0000
0000
1F00
2100
2100
2100
2100
2100
2100
2100
2100
4100
0000
0000
0000
ENDCHAR
STARTCHAR afii10030
ENCODING 204
SWIDTH 714 0
DWIDTH 9 0
BBX 9 15 0 -3
BITMAP
0000
0000
4100
4100
6300
5500
5500
4900
4900
4100
4100
4100
0000
0000
0000
ENDCHAR
STARTCHAR afii10031
ENCODING 205
SWIDTH 714 0
DWIDTH 9 0
BBX 9 15 0 -3
BITMAP
0000
0000
4100
4100
4100
4100
7F00
4100
4100
4100
4100
4100
0000
0000
0000
ENDCHAR
STARTCHAR afii10032
ENCODING 206
SWIDTH 714 0
DWIDTH 9 0
BBX 9 15 0 -3
BITMAP
0000
0000
3E00
4100
4100
4100
4100
4100
4100
4100
4100
3E00
0000
0000
0000
ENDCHAR
STARTCHAR afii10033
ENCODING 207
SWIDTH 714 0
DWIDTH 9 0
BBX 9 15 0 -3
BITMAP
0000
0000
7F00
4100
4100
4100
4100
4100
4100
4100
4100
4100
0000
0000
0000
ENDCHAR
STARTCHAR afii10034
ENCODING 208
SWIDTH 714 0
DWIDTH 9 0
BBX 9 15 0 -3
BITMAP
0000
0000
7E00
4100
4100
4100
7E00
4000
4000
4000
4000
4000
0000
0000
0000
ENDCHAR
STARTCHAR afii10035
ENCODING 209
SWIDTH 714 0
DWIDTH 9 0
BBX 9 15 0 -3
BITMAP
0000
0000
3E00
4100
4000
4000
4000
4000
4000
4000
4100
3E00
0000
0000
0000
ENDCHAR
STARTCHAR afii10036
ENCODING 210
SWIDTH 714 0
DWIDTH 9 0
BBX 9 15 0 -3
BITMAP
0000
0000
7F00
0800
0800
0800
0800
0800
0800
0800
0800
0800
0000
0000
0000
ENDCHAR
STARTCHAR afii10037
ENCODING 211
SWIDTH 714 0
DWIDTH 9 0
BBX 9 15 0 -3
BITMAP
0000
0000
4100
4100
4100
4100
4100
3F00
0100
0100
4100
3E00
0000
0000
0000
ENDCHAR
STARTCHAR afii10038
ENCODING 212
SWIDTH 714 0
DWIDTH 9 0
BBX 9 15 0 -3
BITMAP
0000
0000
0800
3E00
4900
4900
4900
4900
4900
3E00
0800
0800
0000
0000
0000
ENDCHAR
STARTCHAR afii10039
ENCODING 213
SWIDTH 714 0
DWIDTH 9 0
BBX 9 15 0 -3
BITMAP
0000
0000
4100
4100
2200
1400
0800
0800
1400
2200
4100
4100
0000
0000
0000
ENDCHAR
STARTCHAR afii10040
ENCODING 214
SWIDTH 714 0
DWIDTH 9 0
BBX 9 15 0 -3
BITMAP
0000
0000
4200
4200
4200
4200
4200
4200
4200
4200
4200
7F00
0100
0100
0000
ENDCHAR
STARTCHAR afii10041
ENCODING 215
SWIDTH 714 0
DWIDTH 9 0
BBX 9 15 0 -3
BITMAP
0000
0000
4100
4100
4100
4100
4100
3F00
0100
0100
0100
0100
0000
0000
0000
ENDCHAR
STARTCHAR afii10042
ENCODING 216
SWIDTH 714 0
DWIDTH 9 0
BBX 9 15 0 -3
BITMAP
0000
0000
4100
4100
4900
4900
4900
4900
4900
4900
4900
7F00
0000
0000
0000
ENDCHAR
STARTCHAR afii10043
ENCODING 217
SWIDTH 714 0
DWIDTH 9 0
BBX 9 15 0 -3
BITMAP
0000
0000
4100
4100
4900
4900
4900
4900
4900
4900
4900
7F80
0080
0080
0000
ENDCHAR
STARTCHAR afii10044
ENCODING 218
SWIDTH 714 0
DWIDTH 9 0
BBX 9 15 0 -3
BITMAP
0000
0000
7000
1000
1000
1000
1E00
1100
1100
1100
1100
1E00
0000
0000
0000
ENDCHAR
STARTCHAR afii10045
ENCODING 219
SWIDTH 714 0
DWIDTH 9 0
BBX 9 15 0 -3
BITMAP
0000
0000
4100
4100
4100
4100
7900
4500
4500
4500
4500
7900
0000
0000
0000
ENDCHAR
STARTCHAR afii10046
ENCODING 220
SWIDTH 714 0
DWIDTH 9 0
BBX 9 15 0 -3
BITMAP
0000
0000
4000
4000
4000
4000
7E00
4100
4100
4100
4100
7E00
0000
0000
0000
ENDCHAR
STARTCHAR afii10047
ENCODING 221
SWIDTH 714 0
DWIDTH 9 0
BBX 9 15 0 -3
BITMAP
0000
0000
3E00
4100
0100
0100
0F00
0100
0100
0100
4100
3E00
0000
0000
0000
ENDCHAR
STARTCHAR afii10048
ENCODING 222
SWIDTH 714 0
DWIDTH 9 0
BBX 9 15 0 -3
BITMAP
0000
0000
4E00
5100
5100
5100
7100
5100
5100
5100
5100
4E00
0000
0000
0000
ENDCHAR
STARTCHAR afii10049
ENCODING 223
SWIDTH 714 0
DWIDTH 9 0
BBX 9 15 0 -3
BITMAP
0000
0000
3F00
4100
4100
4100
3F00
0900
1100
2100
4100
4100
0000
0000
0000
ENDCHAR
STARTCHAR afii10065
ENCODING 224
SWIDTH 714 0
DWIDTH 9 0
BBX 9 15 0 -3
BITMAP
0000
0000
0000
0000
0000
3E00
0100
0100
3F00
4100
4300
3D00
0000
0000
0000
ENDCHAR
STARTCHAR afii10066
ENCODING 225
SWIDTH 714 0
DWIDTH 9 0
BBX 9 15 0 -3
BITMAP
0000
0000
0100
3E00
4000
5E00
6100
4100
4100
4100
4100
3E00
0000
0000
0000
ENDCHAR
STARTCHAR afii10067
ENCODING 226
SWIDTH 714 0
DWIDTH 9 0
BBX 9 15 0 -3
BITMAP
0000
0000
0000
0000
0000
7E00
4100
4100
7E00
4100
4100
7E00
0000
0000
0000
ENDCHAR
STARTCHAR afii10068
ENCODING 227
SWIDTH 714 0
DWIDTH 9 0
BBX 9 15 0 -3
BITMAP
0000
0000
0000
0000
0000
3F00
2000
2000
2000
2000
2000
2000
0000
0000
0000
ENDCHAR
STARTCHAR afii10069
ENCODING 228
SWIDTH 714 0
DWIDTH 9 0
BBX 9 15 0 -3
BITMAP
0000
0000
0000
0000
0000
1E00
2200
2200
2200
2200
2200
7F00
4100
4100
0000
ENDCHAR
STARTCHAR afii10070
ENCODING 229
SWIDTH 714 0
DWIDTH 9 0
BBX 9 15 0 -3
BITMAP
0000
0000
0000
0000
0000
3E00
4100
4100
7F00
4000
4000
3E00
0000
0000
0000
ENDCHAR
STARTCHAR afii10072
ENCODING 230
SWIDTH 714 0
DWIDTH 9 0
BBX 9 15 0 -3
BITMAP
0000
0000
0000
0000
0000
4900
2A00
1C00
0800
1C00
2A00
4900
0000
0000
0000
ENDCHAR
STARTCHAR afii10073
ENCODING 231
SWIDTH 714 0
DWIDTH 9 0
BBX 9 15 0 -3
BITMAP
0000
0000
0000
0000
0000
3E00
4100
0100
1E00
0100
4100
3E00
0000
0000
0000
ENDCHAR
STARTCHAR afii10074
ENCODING 232
SWIDTH 714 0
DWIDTH 9 0
BBX 9 15 0 -3
BITMAP
0000
0000
0000
0000
0000
4100
4300
4500
4900
5100
6100
4100
0000
0000
0000
ENDCHAR
STARTCHAR afii10075
ENCODING 233
SWIDTH 714 0
DWIDTH 9 0
BBX 9 15 0 -3
BITMAP
0000
0000
0000
1C00
0000
4100
4300
4500
4900
5100
6100
4100
0000
0000
0000
ENDCHAR
STARTCHAR afii10076
ENCODING 234
SWIDTH 714 0
DWIDTH 9 0
BBX 9 15 0 -3
BITMAP
0000
0000
0000
0000
0000
4100
4600
5800
6000
5800
4600
4100
0000
0000
0000
ENDCHAR
STARTCHAR afii10077
ENCODING 235
SWIDTH 714 0
DWIDTH 9 0
BBX 9 15 0 -3
BITMAP
0000
0000
0000
0000
0000
1F00
2100
2100
2100
2100
2100
4100
0000
0000
0000
ENDCHAR
STARTCHAR afii10078
ENCODING 236
SWIDTH 714 0
DWIDTH 9 0
BBX 9 15 0 -3
BITMAP
0000
0000
0000
0000
0000
4100
6300
5500
5500
4900
4900
4100
0000
0000
0000
ENDCHAR
STARTCHAR afii10079
ENCODING 237
SWIDTH 714 0
DWIDTH 9 0
BBX 9 15 0 -3
BITMAP
0000
0000
0000
0000
0000
4100
4100
4100
7F00
4100
4100
4100
0000
0000
0000
ENDCHAR
STARTCHAR afii10080
ENCODING 238
SWIDTH 714 0
DWIDTH 9 0
BBX 9 15 0 -3
BITMAP
0000
0000
0000
0000
0000
3E00
4100
4100
4100
4100
4100
3E00
0000
0000
0000
ENDCHAR
STARTCHAR afii10081
ENCODING 239
SWIDTH 714 0
DWIDTH 9 0
BBX 9 15 0 -3
BITMAP
0000
0000
0000
0000
0000
7F00
4100
4100
4100
4100
4100
4100
0000
0000
0000
ENDCHAR
STARTCHAR afii10082
ENCODING 240
SWIDTH 714 0
DWIDTH 9 0
BBX 9 15 0 -3
BITMAP
0000
0000
0000
0000
0000
5E00
6100
4100
4100
4100
6100
5E00
4000
4000
4000
ENDCHAR
STARTCHAR afii10083
ENCODING 241
SWIDTH 714 0
DWIDTH 9 0
BBX 9 15 0 -3
BITMAP
0000
0000
0000
0000
0000
3E00
4100
4000
4000
4000
4100
3E00
0000
0000
0000
ENDCHAR
STARTCHAR afii10084
ENCODING 242
SWIDTH 714 0
DWIDTH 9 0
BBX 9 15 0 -3
BITMAP
0000
0000
0000
0000
0000
7F00
0800
0800
0800
0800
0800
0800
0000
0000
0000
ENDCHAR
STARTCHAR afii10085
ENCODING 243
SWIDTH 714 0
DWIDTH 9 0
BBX 9 15 0 -3
BITMAP
0000
0000
0000
0000
0000
4200
4200
4200
4200
4200
4600
3A00
0200
4200
3C00
ENDCHAR
STARTCHAR afii10086
ENCODING 244
SWIDTH 714 0
DWIDTH 9 0
BBX 9 15 0 -3
BITMAP
0000
0000
0000
0000
0800
3E00
4900
4900
4900
4900
4900
3E00
0800
0800
0800
ENDCHAR
STARTCHAR afii10087
ENCODING 245
SWIDTH 714 0
DWIDTH 9 0
BBX 9 15 0 -3
BITMAP
0000
0000
0000
0000
0000
4100
2200
1400
0800
1400
2200
4100
0000
0000
0000
ENDCHAR
STARTCHAR afii10088
ENCODING 246
SWIDTH 714 0
DWIDTH 9 0
BBX 9 15 0 -3
BITMAP
0000
0000
0000
0000
0000
4200
4200
4200
4200
4200
4200
7F00
0100
0100
0000
ENDCHAR
STARTCHAR afii10089
ENCODING 247
SWIDTH 714 0
DWIDTH 9 0
BBX 9 15 0 -3
BITMAP
0000
0000
0000
0000
0000
4100
4100
4100
3F00
0100
0100
0100
0000
0000
0000
ENDCHAR
STARTCHAR afii10090
ENCODING 248
SWIDTH 714 0
DWIDTH 9 0
BBX 9 15 0 -3
BITMAP
0000
0000
0000
0000
0000
4100
4900
4900
4900
4900
4900
7F00
0000
0000
0000
ENDCHAR
STARTCHAR afii10091
ENCODING 249
SWIDTH 714 0
DWIDTH 9 0
BBX 9 15 0 -3
BITMAP
0000
0000
0000
0000
0000
4100
4900
4900
4900
4900
4900
7F80
0080
0080
0000
ENDCHAR
STARTCHAR afii10092
ENCODING 250
SWIDTH 714 0
DWIDTH 9 0
BBX 9 15 0 -3
BITMAP
0000
0000
0000
0000
0000
7000
1000
1000
1E00
1100
1100
1E00
0000
0000
0000
ENDCHAR
STARTCHAR afii10093
ENCODING 251
SWIDTH 714 0
DWIDTH 9 0
BBX 9 15 0 -3
BITMAP
0000
0000
0000
0000
0000
4100
4100
4100
7900
4500
4500
7900
0000
0000
0000
ENDCHAR
STARTCHAR afii10094
ENCODING 252
SWIDTH 714 0
DWIDTH 9 0
BBX 9 15 0 -3
BITMAP
0000
0000
0000
0000
0000
4000
4000
4000
7E00
4100
4100
7E00
0000
0000
0000
ENDCHAR
STARTCHAR afii10095
ENCODING 253
SWIDTH 714 0
DWIDTH 9 0
BBX 9 15 0 -3
BITMAP
0000
0000
0000
0000
0000
3E00
4100
0100
1F00
0100
4100
3E00
0000
0000
0000
ENDCHAR
STARTCHAR afii10096
ENCODING 254
SWIDTH 714 0
DWIDTH 9 0
BBX 9 15 0 -3
BITMAP
0000
0000
0000
0000
0000
4E00
5100
5100
7100
5100
5100
4E00
0000
0000
0000
ENDCHAR
STARTCHAR afii10097
ENCODING 255
SWIDTH 714 0
DWIDTH 9 0
BBX 9 15 0 -3
BITMAP
0000
0000
0000
0000
0000
3F00
4100
4100
3F00
1100
2100
4100
0000
0000
0000
ENDCHAR
STARTCHAR tilde
ENCODING -1
SWIDTH 714 0
DWIDTH 9 0
BBX 9 15 0 -3
BITMAP
0000
1400
2800
0000
0000
0000
0000
0000
0000
0000
0000
0000
0000
0000
0000
ENDCHAR
STARTCHAR florin
ENCODING -1
SWIDTH 714 0
DWIDTH 9 0
BBX 9 15 0 -3
BITMAP
0000
0000
0E00
1100
1000
1000
1000
7C00
2000
2000
2000
2000
4000
4000
4000
ENDCHAR
STARTCHAR circumflex
ENCODING -1
SWIDTH 714 0
DWIDTH 9 0
BBX 9 15 0 -3
BITMAP
0000
1C00
2200
0000
0000
0000
0000
0000
0000
0000
0000
0000
0000
0000
0000
ENDCHAR
STARTCHAR OE
ENCODING -1
SWIDTH 714 0
DWIDTH 9 0
BBX 9 15 0 -3
BITMAP
0000
0000
3700
4800
4800
4800
4E00
4800
4800
4800
4800
3700
0000
0000
0000
ENDCHAR
STARTCHAR oe
ENCODING -1
SWIDTH 714 0
DWIDTH 9 0
BBX 9 15 0 -3
BITMAP
0000
0000
0000
0000
0000
3600
4900
4900
4E00
4800
4900
3700
0000
0000
0000
ENDCHAR
STARTCHAR Scaron
ENCODING -1
SWIDTH 714 0
DWIDTH 9 0
BBX 9 15 0 -3
BITMAP
0000
2200
1C00
0000
3E00
4100
4100
3800
0600
4100
4100
3E00
0000
0000
0000
ENDCHAR
STARTCHAR scaron
ENCODING -1
SWIDTH 714 0
DWIDTH 9 0
BBX 9 15 0 -3
BITMAP
0000
2200
1C00
0000
0000
3E00
4100
4000
3E00
0100
4100
3E00
0000
0000
0000
ENDCHAR
STARTCHAR Zcaron
ENCODING -1
SWIDTH 714 0
DWIDTH 9 0
BBX 9 15 0 -3
BITMAP
0000
2200
1C00
0000
7F00
0200
0400
0800
1000
2000
4000
7F00
0000
0000
0000
ENDCHAR
STARTCHAR zcaron
ENCODING -1
SWIDTH 714 0
DWIDTH 9 0
BBX 9 15 0 -3
BITMAP
0000
2200
1C00
0000
0000
7F00
0200
0400
0800
1000
2000
7F00
0000
0000
0000
ENDCHAR
STARTCHAR Ydieresis
ENCODING -1
SWIDTH 714 0
DWIDTH 9 0
BBX 9 15 0 -3
BITMAP
0000
1400
1400
0000
4100
4100
2200
1400
0800
0800
0800
0800
0000
0000
0000
ENDCHAR
ENDFONT
